<svg xmlns="http://www.w3.org/2000/svg" width="375" height="812" fill="none" viewBox="0 0 375 812">
  <path fill="#fff" d="M0 0h375v812H0z"/>
  <path fill="#000" fill-rule="evenodd" d="M121 800.5a2.5 2.5 0 012.5-2.5h129a2.5 2.5 0 110 5h-129a2.5 2.5 0 01-2.5-2.5z" clip-rule="evenodd"/>
  <path fill="url(#paint0_linear)" d="M0 0h375v350H0z"/>
  <g filter="url(#filter0_b)">
    <path stroke="#000" d="M338.663 17.799h16.666c1.196 0 2.167.97 2.167 2.166v5.979a2.167 2.167 0 01-2.167 2.167h-16.666a2.167 2.167 0 01-2.167-2.167v-5.979c0-1.196.97-2.166 2.167-2.166z" opacity=".35"/>
    <path fill="#000" d="M358.995 20.959v3.992a2.165 2.165 0 000-3.992" opacity=".4"/>
    <path fill="#000" d="M337.996 20.628c0-.736.597-1.333 1.333-1.333h15.333c.737 0 1.334.597 1.334 1.333v4.653c0 .736-.597 1.333-1.334 1.333h-15.333a1.333 1.333 0 01-1.333-1.333v-4.653z"/>
    <path fill="#000" fill-rule="evenodd" d="M323.327 19.57c2.216 0 4.347.85 5.953 2.374.12.117.314.116.433-.004l1.156-1.164a.32.32 0 00-.003-.455c-4.215-4.032-10.864-4.032-15.079 0a.32.32 0 00-.003.455l1.156 1.164c.119.12.312.121.433.004a8.65 8.65 0 015.954-2.374zm0 3.788c1.217 0 2.391.452 3.294 1.268a.31.31 0 00.433-.006l1.155-1.165a.324.324 0 00-.005-.458 7.169 7.169 0 00-9.752 0 .32.32 0 00-.004.458l1.154 1.165a.31.31 0 00.433.006 4.912 4.912 0 013.292-1.268zm2.313 2.55a.32.32 0 01-.094.23l-1.998 2.011a.31.31 0 01-.443 0l-1.998-2.012a.315.315 0 01.01-.456 3.426 3.426 0 014.419 0c.065.058.102.14.104.226zM309.663 17.633h-1a1 1 0 00-1 .998v8.65a1 1 0 001 .998h1c.553 0 1-.447 1-.998v-8.65a.999.999 0 00-1-.998zm-5.666 2.329h1a1 1 0 011 .998v6.321a1 1 0 01-1 .998h-1a1 1 0 01-1-.998V20.96a1 1 0 011-.998zm-3.667 2.329h-1a1 1 0 00-1 .998v3.992a1 1 0 001 .998h1c.553 0 1-.447 1-.998V23.29a.999.999 0 00-1-.998zm-4.666 1.996h-1a1 1 0 00-1 .998v1.996a1 1 0 001 .998h1a1 1 0 001-.998v-1.996a1 1 0 00-1-.998z" clip-rule="evenodd"/>
    <g>
      <path fill="#000" d="M33.164 20.495v.029h1.773v-.03c0-1.076.747-1.801 1.853-1.801 1.04 0 1.801.674 1.801 1.604 0 .747-.358 1.296-1.801 2.761l-3.523 3.604v1.31h7.338V26.37H35.86v-.125l2.212-2.22c1.795-1.772 2.373-2.71 2.373-3.844 0-1.765-1.508-3.04-3.596-3.04-2.168 0-3.684 1.377-3.684 3.355zm10.613 6.357c.696 0 1.172-.498 1.172-1.157 0-.667-.476-1.157-1.172-1.157-.688 0-1.172.49-1.172 1.157 0 .659.484 1.157 1.172 1.157zm0-5.493c.696 0 1.172-.49 1.172-1.15 0-.666-.476-1.157-1.172-1.157-.688 0-1.172.49-1.172 1.157 0 .66.484 1.15 1.172 1.15zm7.083 6.877c2.527 0 4.028-2.05 4.028-5.544 0-3.508-1.523-5.552-4.028-5.552-2.512 0-4.036 2.044-4.036 5.537 0 3.509 1.502 5.56 4.036 5.56zm0-1.567c-1.34 0-2.124-1.392-2.124-3.992 0-2.578.798-3.962 2.124-3.962s2.117 1.377 2.117 3.962c0 2.6-.777 3.992-2.117 3.992zm5.962 1.304H58.8l4.519-8.958v-1.611h-7.354v1.59h5.45v.116l-4.593 8.863z"/>
    </g>
    <g>
      <path fill="#1365FF" d="M312.005 59.1v1.785h-6.545v3.06h5.185v1.785h-5.185v3.485h6.715V71h-8.585V59.1h8.415zm2.471 9.435c.25.306.561.567.935.782a2.35 2.35 0 001.19.323c.442 0 .794-.102 1.054-.306.261-.204.391-.442.391-.714 0-.25-.124-.436-.374-.561-.238-.136-.634-.289-1.19-.459-.578-.17-1.054-.34-1.428-.51-.362-.17-.68-.42-.952-.748-.26-.329-.391-.76-.391-1.292 0-.43.119-.827.357-1.19s.584-.652 1.037-.867c.454-.215.981-.323 1.581-.323.635 0 1.202.108 1.7.323.51.215.907.476 1.19.782l-1.105 1.105a2.396 2.396 0 00-.782-.476 2.44 2.44 0 00-1.003-.204c-.396 0-.708.085-.935.255-.226.17-.34.368-.34.595 0 .25.119.442.357.578.25.125.652.272 1.207.442.578.17 1.049.34 1.411.51.374.17.692.42.952.748.272.329.408.76.408 1.292 0 .453-.13.878-.391 1.275-.249.385-.612.697-1.088.935-.476.227-1.031.34-1.666.34a4.03 4.03 0 01-1.887-.442c-.555-.295-1.003-.657-1.343-1.088l1.105-1.105zm8.748-4.505c.261-.374.635-.691 1.122-.952.487-.272 1.048-.408 1.683-.408.68 0 1.309.187 1.887.561.589.363 1.06.867 1.411 1.513.351.646.527 1.371.527 2.176 0 .805-.176 1.53-.527 2.176a4.085 4.085 0 01-1.411 1.53 3.483 3.483 0 01-1.887.544c-.635 0-1.196-.13-1.683-.391-.487-.272-.861-.595-1.122-.969v4.76h-1.7V62.84h1.7v1.19zm2.465 5.525c.453 0 .867-.113 1.241-.34.374-.227.669-.538.884-.935.227-.408.34-.861.34-1.36 0-.499-.113-.946-.34-1.343a2.39 2.39 0 00-.884-.952 2.349 2.349 0 00-1.241-.34c-.453 0-.867.113-1.241.34a2.518 2.518 0 00-.901.952 2.773 2.773 0 00-.323 1.343c0 .499.108.952.323 1.36.227.397.527.708.901.935.374.227.788.34 1.241.34zm10.788.255c-.26.374-.617.697-1.071.969-.453.26-.974.391-1.564.391-.521 0-.991-.108-1.411-.323a2.566 2.566 0 01-.969-.867 2.265 2.265 0 01-.34-1.19c0-.691.221-1.286.663-1.785.454-.51 1.037-.793 1.751-.85l2.941-.238c0-.442-.164-.839-.493-1.19a1.554 1.554 0 00-1.207-.527c-.419 0-.81.062-1.173.187a3.47 3.47 0 00-.918.425l-1.105-1.105c.329-.295.771-.538 1.326-.731.556-.204 1.179-.306 1.87-.306.669 0 1.258.136 1.768.408.522.272.924.652 1.207 1.139.284.476.425 1.009.425 1.598V71h-1.7v-1.19zm-2.38-2.295c-.408.045-.725.176-.952.391a.956.956 0 00-.323.714c0 .306.125.567.374.782.25.215.578.323.986.323.658 0 1.202-.198 1.632-.595.442-.397.663-.93.663-1.598v-.255l-2.38.238zm7.14-6.12c0-.782.148-1.36.442-1.734.306-.374.726-.561 1.258-.561.272 0 .505.051.697.153.204.102.431.25.68.442.204.159.357.272.459.34a.826.826 0 00.374.085c.227 0 .397-.08.51-.238.114-.159.17-.42.17-.782h1.105c0 .782-.153 1.36-.459 1.734-.294.374-.708.561-1.241.561-.272 0-.51-.051-.714-.153a4.855 4.855 0 01-.663-.442 3.168 3.168 0 00-.476-.323.628.628 0 00-.357-.102c-.226 0-.396.08-.51.238-.113.159-.17.42-.17.782h-1.105zm.68 2.635a3.31 3.31 0 011.054-.952 2.797 2.797 0 011.496-.408c.624 0 1.179.147 1.666.442.488.283.867.697 1.139 1.241.284.533.425 1.162.425 1.887V71h-1.7v-4.76c0-.59-.175-1.06-.527-1.411-.34-.363-.787-.544-1.343-.544-.646 0-1.178.215-1.598.646-.408.42-.612.969-.612 1.649V71h-1.7v-8.16h1.7v1.19zm7.652 2.89c0-.782.187-1.496.561-2.142a4.093 4.093 0 011.53-1.547 4.29 4.29 0 012.159-.561c.782 0 1.496.187 2.142.561a4.06 4.06 0 011.547 1.547c.374.646.561 1.36.561 2.142a4.29 4.29 0 01-.561 2.159 4.095 4.095 0 01-1.547 1.53 4.198 4.198 0 01-2.142.561 4.29 4.29 0 01-2.159-.561 4.13 4.13 0 01-1.53-1.53 4.29 4.29 0 01-.561-2.159zm4.25 2.635c.476 0 .906-.113 1.292-.34.396-.227.702-.538.918-.935a2.76 2.76 0 00.34-1.36c0-.499-.114-.946-.34-1.343a2.33 2.33 0 00-.918-.952 2.502 2.502 0 00-1.292-.34 2.59 2.59 0 00-1.309.34 2.464 2.464 0 00-.918.952 2.762 2.762 0 00-.323 1.343c0 .499.107.952.323 1.36.226.397.532.708.918.935.396.227.833.34 1.309.34zm7.906-10.455V71h-1.7V59.1h1.7z"/>
      <path fill="#25272E" fill-rule="evenodd" d="M16.31 58.31a1.33 1.33 0 011.88 0L24 64.118l5.81-5.81a1.33 1.33 0 111.88 1.881L25.88 66l5.81 5.81a1.33 1.33 0 11-1.88 1.88L24 67.88l-5.81 5.81a1.33 1.33 0 11-1.88-1.88L22.12 66l-5.81-5.81a1.33 1.33 0 010-1.88z" clip-rule="evenodd"/>
    </g>
  </g>
  <rect width="279" height="48" x="48" y="587" fill="#25272E" rx="10"/>
  <path fill="#fff" d="M142.945 604.4v1.89h-6.93v3.24h5.49v1.89h-5.49v3.69h7.11V617h-9.09v-12.6h8.91zm1.447 3.96h2.07l1.98 2.79 1.98-2.79h2.07l-2.97 4.14 3.24 4.5h-2.07l-2.25-3.15-2.25 3.15h-2.07l3.24-4.5-2.97-4.14zm11.61 1.26c.276-.396.672-.732 1.188-1.008.516-.288 1.11-.432 1.782-.432.72 0 1.386.198 1.998.594a4.185 4.185 0 011.494 1.602c.372.684.558 1.452.558 2.304 0 .852-.186 1.62-.558 2.304a4.325 4.325 0 01-1.494 1.62 3.688 3.688 0 01-1.998.576c-.672 0-1.266-.138-1.782-.414-.516-.288-.912-.63-1.188-1.026v5.04h-1.8v-12.42h1.8v1.26zm2.61 5.85c.48 0 .918-.12 1.314-.36s.708-.57.936-.99c.24-.432.36-.912.36-1.44 0-.528-.12-1.002-.36-1.422a2.533 2.533 0 00-.936-1.008 2.487 2.487 0 00-1.314-.36c-.48 0-.918.12-1.314.36s-.714.576-.954 1.008c-.228.42-.342.894-.342 1.422 0 .528.114 1.008.342 1.44.24.42.558.75.954.99.396.24.834.36 1.314.36zm8.273-11.07V617h-1.8v-12.6h1.8zm2.07 8.28c0-.828.198-1.584.594-2.268a4.333 4.333 0 011.62-1.638 4.543 4.543 0 012.286-.594c.828 0 1.584.198 2.268.594a4.296 4.296 0 011.638 1.638c.396.684.594 1.44.594 2.268 0 .828-.198 1.59-.594 2.286a4.333 4.333 0 01-1.638 1.62 4.445 4.445 0 01-2.268.594c-.828 0-1.59-.198-2.286-.594a4.372 4.372 0 01-1.62-1.62 4.543 4.543 0 01-.594-2.286zm4.5 2.79c.504 0 .96-.12 1.368-.36.42-.24.744-.57.972-.99.24-.432.36-.912.36-1.44 0-.528-.12-1.002-.36-1.422a2.458 2.458 0 00-.972-1.008 2.648 2.648 0 00-1.368-.36c-.504 0-.966.12-1.386.36-.408.24-.732.576-.972 1.008-.228.42-.342.894-.342 1.422 0 .528.114 1.008.342 1.44.24.42.564.75.972.99.42.24.882.36 1.386.36zm8.282-5.94c.24-.324.558-.6.954-.828.408-.228.87-.342 1.386-.342h.72v1.62h-.72c-.42 0-.81.114-1.17.342-.36.216-.648.528-.864.936-.204.396-.306.84-.306 1.332V617h-1.8v-8.64h1.8v1.17zm12.16 6.246c-.36.396-.858.732-1.494 1.008-.636.264-1.368.396-2.196.396-.828 0-1.59-.198-2.286-.594a4.372 4.372 0 01-1.62-1.62 4.543 4.543 0 01-.594-2.286c0-.828.198-1.584.594-2.268a4.414 4.414 0 011.602-1.62 4.185 4.185 0 012.214-.612c.804 0 1.524.186 2.16.558.648.36 1.152.864 1.512 1.512.372.636.558 1.356.558 2.16 0 .336-.03.636-.09.9h-6.66c.096.6.396 1.11.9 1.53.504.42 1.104.63 1.8.63.504 0 .972-.09 1.404-.27.444-.192.816-.42 1.116-.684l1.08 1.26zm-1.44-3.996c-.144-.6-.42-1.08-.828-1.44-.396-.36-.9-.54-1.512-.54-.648 0-1.182.18-1.602.54-.42.348-.726.828-.918 1.44h4.86zm9.811-2.16c.276-.396.672-.732 1.188-1.008.516-.288 1.11-.432 1.782-.432.72 0 1.386.198 1.998.594a4.185 4.185 0 011.494 1.602c.372.684.558 1.452.558 2.304 0 .852-.186 1.62-.558 2.304a4.325 4.325 0 01-1.494 1.62 3.688 3.688 0 01-1.998.576c-.672 0-1.266-.138-1.782-.414-.516-.288-.912-.63-1.188-1.026v5.04h-1.8v-12.42h1.8v1.26zm2.61 5.85c.48 0 .918-.12 1.314-.36s.708-.57.936-.99c.24-.432.36-.912.36-1.44 0-.528-.12-1.002-.36-1.422a2.533 2.533 0 00-.936-1.008 2.487 2.487 0 00-1.314-.36c-.48 0-.918.12-1.314.36s-.714.576-.954 1.008c-.228.42-.342.894-.342 1.422 0 .528.114 1.008.342 1.44.24.42.558.75.954.99.396.24.834.36 1.314.36zm8.273-11.07V617h-1.8v-12.6h1.8zm7.65 11.34c-.276.396-.654.738-1.134 1.026-.48.276-1.032.414-1.656.414-.552 0-1.05-.114-1.494-.342a2.718 2.718 0 01-1.026-.918 2.392 2.392 0 01-.36-1.26c0-.732.234-1.362.702-1.89.48-.54 1.098-.84 1.854-.9l3.114-.252c0-.468-.174-.888-.522-1.26a1.647 1.647 0 00-1.278-.558c-.444 0-.858.066-1.242.198-.384.12-.708.27-.972.45l-1.17-1.17c.348-.312.816-.57 1.404-.774.588-.216 1.248-.324 1.98-.324.708 0 1.332.144 1.872.432.552.288.978.69 1.278 1.206.3.504.45 1.068.45 1.692V617h-1.8v-1.26zm-2.52-2.43c-.432.048-.768.186-1.008.414a1.01 1.01 0 00-.342.756c0 .324.132.6.396.828.264.228.612.342 1.044.342.696 0 1.272-.21 1.728-.63.468-.42.702-.984.702-1.692v-.27l-2.52.252zm8.28-3.69a3.5 3.5 0 011.116-1.008 2.961 2.961 0 011.584-.432c.66 0 1.248.156 1.764.468.516.3.918.738 1.206 1.314.3.564.45 1.23.45 1.998V617h-1.8v-5.04c0-.624-.186-1.122-.558-1.494-.36-.384-.834-.576-1.422-.576-.684 0-1.248.228-1.692.684-.432.444-.648 1.026-.648 1.746V617h-1.8v-8.64h1.8v1.26zm9.001 4.77c.264.324.594.6.99.828.396.228.816.342 1.26.342.468 0 .84-.108 1.116-.324.276-.216.414-.468.414-.756 0-.264-.132-.462-.396-.594-.252-.144-.672-.306-1.26-.486-.612-.18-1.116-.36-1.512-.54a2.897 2.897 0 01-1.008-.792c-.276-.348-.414-.804-.414-1.368 0-.456.126-.876.378-1.26s.618-.69 1.098-.918c.48-.228 1.038-.342 1.674-.342.672 0 1.272.114 1.8.342.54.228.96.504 1.26.828l-1.17 1.17a2.545 2.545 0 00-.828-.504 2.585 2.585 0 00-1.062-.216c-.42 0-.75.09-.99.27-.24.18-.36.39-.36.63 0 .264.126.468.378.612.264.132.69.288 1.278.468.612.18 1.11.36 1.494.54.396.18.732.444 1.008.792.288.348.432.804.432 1.368 0 .48-.138.93-.414 1.35-.264.408-.648.738-1.152.99-.504.24-1.092.36-1.764.36a4.265 4.265 0 01-1.998-.468c-.588-.312-1.062-.696-1.422-1.152l1.17-1.17z"/>
  <rect width="279" height="48" x="48" y="647" fill="#EBF2FF" rx="10"/>
  <path fill="#1169F5" d="M119.043 663.16c.42.272.575.813.362 1.266l-2.166 4.602 3.536 1.011a1 1 0 01.484 1.612l-6 7a1 1 0 01-1.664-1.077l2.166-4.602-3.536-1.01a1.003 1.003 0 01-.484-1.613l6-7a1 1 0 011.302-.189zM138.529 664.4V677h-1.98v-12.6h1.98zm4.852 5.22c.228-.396.558-.732.99-1.008.432-.288.942-.432 1.53-.432.624 0 1.164.144 1.62.432.468.276.828.612 1.08 1.008.252-.396.63-.732 1.134-1.008.516-.288 1.128-.432 1.836-.432.576 0 1.104.156 1.584.468.48.3.858.732 1.134 1.296.288.552.432 1.194.432 1.926V677h-1.8v-5.13c0-.612-.174-1.092-.522-1.44-.336-.36-.762-.54-1.278-.54-.6 0-1.098.216-1.494.648-.384.42-.576.984-.576 1.692V677h-1.8v-5.13c0-.612-.174-1.092-.522-1.44-.336-.36-.762-.54-1.278-.54-.6 0-1.098.216-1.494.648-.384.42-.576.984-.576 1.692V677h-1.8v-8.64h1.8v1.26zm15.662 0c.276-.396.672-.732 1.188-1.008.516-.288 1.11-.432 1.782-.432.72 0 1.386.198 1.998.594a4.185 4.185 0 011.494 1.602c.372.684.558 1.452.558 2.304 0 .852-.186 1.62-.558 2.304a4.325 4.325 0 01-1.494 1.62 3.688 3.688 0 01-1.998.576c-.672 0-1.266-.138-1.782-.414-.516-.288-.912-.63-1.188-1.026v5.04h-1.8v-12.42h1.8v1.26zm2.61 5.85c.48 0 .918-.12 1.314-.36s.708-.57.936-.99c.24-.432.36-.912.36-1.44 0-.528-.12-1.002-.36-1.422a2.533 2.533 0 00-.936-1.008 2.487 2.487 0 00-1.314-.36c-.48 0-.918.12-1.314.36s-.714.576-.954 1.008c-.228.42-.342.894-.342 1.422 0 .528.114 1.008.342 1.44.24.42.558.75.954.99.396.24.834.36 1.314.36zm5.843-2.79c0-.828.198-1.584.594-2.268a4.333 4.333 0 011.62-1.638 4.543 4.543 0 012.286-.594c.828 0 1.584.198 2.268.594a4.296 4.296 0 011.638 1.638c.396.684.594 1.44.594 2.268 0 .828-.198 1.59-.594 2.286a4.333 4.333 0 01-1.638 1.62 4.445 4.445 0 01-2.268.594c-.828 0-1.59-.198-2.286-.594a4.372 4.372 0 01-1.62-1.62 4.543 4.543 0 01-.594-2.286zm4.5 2.79c.504 0 .96-.12 1.368-.36.42-.24.744-.57.972-.99.24-.432.36-.912.36-1.44 0-.528-.12-1.002-.36-1.422a2.458 2.458 0 00-.972-1.008 2.648 2.648 0 00-1.368-.36c-.504 0-.966.12-1.386.36-.408.24-.732.576-.972 1.008-.228.42-.342.894-.342 1.422 0 .528.114 1.008.342 1.44.24.42.564.75.972.99.42.24.882.36 1.386.36zm8.282-5.94c.24-.324.558-.6.954-.828.408-.228.87-.342 1.386-.342h.72v1.62h-.72c-.42 0-.81.114-1.17.342-.36.216-.648.528-.864.936-.204.396-.306.84-.306 1.332V677h-1.8v-8.64h1.8v1.17zm3.966-1.17h1.62v-2.88h1.8v2.88h2.25v1.71h-2.25v4.05c0 .432.102.738.306.918.204.168.522.252.954.252h.99V677h-1.35c-1.8 0-2.7-.9-2.7-2.7v-4.23h-1.62v-1.71zm11.43 4.32c0-.828.198-1.584.594-2.268a4.333 4.333 0 011.62-1.638 4.543 4.543 0 012.286-.594c.828 0 1.584.198 2.268.594a4.296 4.296 0 011.638 1.638c.396.684.594 1.44.594 2.268 0 .828-.198 1.59-.594 2.286a4.333 4.333 0 01-1.638 1.62 4.445 4.445 0 01-2.268.594c-.828 0-1.59-.198-2.286-.594a4.372 4.372 0 01-1.62-1.62 4.543 4.543 0 01-.594-2.286zm4.5 2.79c.504 0 .96-.12 1.368-.36.42-.24.744-.57.972-.99.24-.432.36-.912.36-1.44 0-.528-.12-1.002-.36-1.422a2.458 2.458 0 00-.972-1.008 2.648 2.648 0 00-1.368-.36c-.504 0-.966.12-1.386.36-.408.24-.732.576-.972 1.008-.228.42-.342.894-.342 1.422 0 .528.114 1.008.342 1.44.24.42.564.75.972.99.42.24.882.36 1.386.36zm8.282-5.94c.24-.324.558-.6.954-.828.408-.228.87-.342 1.386-.342h.72v1.62h-.72c-.42 0-.81.114-1.17.342-.36.216-.648.528-.864.936-.204.396-.306.84-.306 1.332V677h-1.8v-8.64h1.8v1.17zm10.283 0c.24-.324.558-.6.954-.828.408-.228.87-.342 1.386-.342h.72v1.62h-.72c-.42 0-.81.114-1.17.342-.36.216-.648.528-.864.936-.204.396-.306.84-.306 1.332V677h-1.8v-8.64h1.8v1.17zm12.16 6.246c-.36.396-.858.732-1.494 1.008-.636.264-1.368.396-2.196.396-.828 0-1.59-.198-2.286-.594a4.372 4.372 0 01-1.62-1.62 4.543 4.543 0 01-.594-2.286c0-.828.198-1.584.594-2.268a4.414 4.414 0 011.602-1.62 4.185 4.185 0 012.214-.612c.804 0 1.524.186 2.16.558.648.36 1.152.864 1.512 1.512.372.636.558 1.356.558 2.16 0 .336-.03.636-.09.9h-6.66c.096.6.396 1.11.9 1.53.504.42 1.104.63 1.8.63.504 0 .972-.09 1.404-.27.444-.192.816-.42 1.116-.684l1.08 1.26zm-1.44-3.996c-.144-.6-.42-1.08-.828-1.44-.396-.36-.9-.54-1.512-.54-.648 0-1.182.18-1.602.54-.42.348-.726.828-.918 1.44h4.86zm5.663-2.16a3.5 3.5 0 011.116-1.008 2.961 2.961 0 011.584-.432c.66 0 1.248.156 1.764.468.516.3.918.738 1.206 1.314.3.564.45 1.23.45 1.998V677h-1.8v-5.04c0-.624-.186-1.122-.558-1.494-.36-.384-.834-.576-1.422-.576-.684 0-1.248.228-1.692.684-.432.444-.648 1.026-.648 1.746V677h-1.8v-8.64h1.8v1.26zm16.291 6.156c-.36.396-.858.732-1.494 1.008-.636.264-1.368.396-2.196.396-.828 0-1.59-.198-2.286-.594a4.372 4.372 0 01-1.62-1.62 4.543 4.543 0 01-.594-2.286c0-.828.198-1.584.594-2.268a4.414 4.414 0 011.602-1.62 4.185 4.185 0 012.214-.612c.804 0 1.524.186 2.16.558.648.36 1.152.864 1.512 1.512.372.636.558 1.356.558 2.16 0 .336-.03.636-.09.9h-6.66c.096.6.396 1.11.9 1.53.504.42 1.104.63 1.8.63.504 0 .972-.09 1.404-.27.444-.192.816-.42 1.116-.684l1.08 1.26zm-1.44-3.996c-.144-.6-.42-1.08-.828-1.44-.396-.36-.9-.54-1.512-.54-.648 0-1.182.18-1.602.54-.42.348-.726.828-.918 1.44h4.86zm4.762-3.42l1.98 5.85 1.89-5.85h1.62l1.89 5.85 1.98-5.85h1.98l-3.06 8.64h-1.71l-1.89-5.76-1.89 5.76h-1.71l-3.06-8.64h1.98z"/>
  <g style="mix-blend-mode:multiply">
    <path fill="#70747D" d="M37.35 739.11c-.43.569-1 1.05-1.709 1.442-.7.392-1.484.588-2.352.588-.915 0-1.76-.224-2.534-.672a4.938 4.938 0 01-1.834-1.834 4.973 4.973 0 01-.672-2.534c0-.915.224-1.759.672-2.534a4.938 4.938 0 011.834-1.834 4.973 4.973 0 012.534-.672c.868 0 1.648.196 2.338.588.69.392 1.241.873 1.652 1.442l-.7.63c-.327-.467-.775-.863-1.344-1.19-.56-.327-1.209-.49-1.946-.49a3.899 3.899 0 00-3.458 2.002 4.05 4.05 0 00-.532 2.058c0 .756.178 1.447.532 2.072a3.926 3.926 0 003.458 1.988c.737 0 1.395-.163 1.974-.49.579-.327 1.04-.723 1.386-1.19l.7.63zm5.602.98a2.688 2.688 0 01-.881.742 2.633 2.633 0 01-1.288.308c-.449 0-.855-.093-1.218-.28a2.264 2.264 0 01-.854-.728 1.694 1.694 0 01-.308-.952c0-.569.168-1.036.504-1.4.345-.364.83-.574 1.456-.63l2.59-.224c0-.327-.075-.635-.225-.924a1.656 1.656 0 00-.602-.686 1.45 1.45 0 00-.853-.266c-.393 0-.752.047-1.079.14-.326.093-.597.21-.812.35l-.63-.63c.28-.215.64-.397 1.078-.546.44-.149.92-.224 1.443-.224.503 0 .956.117 1.357.35.411.224.728.532.953.924.233.392.35.831.35 1.316V741h-.98v-.91zm-2.31-2.1c-.41.037-.723.163-.938.378a1.1 1.1 0 00-.322.812c0 .299.122.551.364.756.252.196.598.294 1.036.294.654 0 1.177-.177 1.569-.532.4-.364.602-.868.602-1.512v-.42l-2.31.224zm4.277-3.71h1.26v-2.24h.98v2.24h1.82v.91h-1.82v3.99c0 .336.075.574.224.714.159.131.387.196.686.196h.91v.91h-.952c-.588 0-1.045-.149-1.372-.448-.317-.299-.476-.756-.476-1.372v-3.99h-1.26v-.91zm11.278 5.46a4.036 4.036 0 01-1.218.994 3.19 3.19 0 01-1.582.406 3.254 3.254 0 01-1.68-.462 3.58 3.58 0 01-1.232-1.274 3.542 3.542 0 01-.448-1.764c0-.644.15-1.232.448-1.764a3.469 3.469 0 011.232-1.26 3.185 3.185 0 011.68-.476c.57 0 1.092.131 1.568.392.476.252.864.565 1.162.938l-.7.7a2.773 2.773 0 00-.854-.784 2.113 2.113 0 00-1.176-.336c-.42 0-.812.117-1.176.35a2.516 2.516 0 00-.882.938 2.666 2.666 0 00-.322 1.302c0 .476.108.915.322 1.316.224.392.518.705.882.938.364.224.756.336 1.176.336.439 0 .84-.107 1.204-.322.364-.224.663-.49.896-.798l.7.63zm2.585-4.48c.215-.308.509-.569.882-.784a2.454 2.454 0 011.288-.336c.532 0 1.004.117 1.414.35.42.233.742.569.966 1.008.234.429.35.933.35 1.512V741h-.98v-3.99c0-.588-.172-1.059-.518-1.414-.336-.364-.77-.546-1.302-.546-.392 0-.751.098-1.078.294a2.04 2.04 0 00-.756.784 2.452 2.452 0 00-.266 1.162V741h-.98v-9.8h.98v4.06zm10.15-.98l1.75 5.18 1.68-5.18h.84l1.68 5.18 1.75-5.18h1.05l-2.31 6.72h-.91l-1.68-5.11-1.68 5.11h-.91l-2.31-6.72h1.05zm13.027 6.86a3.33 3.33 0 01-1.722-.462 3.541 3.541 0 01-1.246-1.274 3.457 3.457 0 01-.462-1.764c0-.644.154-1.232.462-1.764a3.433 3.433 0 011.246-1.26 3.259 3.259 0 011.722-.476c.626 0 1.2.159 1.722.476.523.308.938.728 1.246 1.26.308.532.462 1.12.462 1.764 0 .644-.154 1.232-.462 1.764a3.541 3.541 0 01-1.246 1.274 3.33 3.33 0 01-1.722.462zm0-.91c.44 0 .845-.112 1.218-.336a2.616 2.616 0 001.232-2.254c0-.476-.112-.91-.336-1.302a2.479 2.479 0 00-.896-.938 2.258 2.258 0 00-1.218-.35c-.438 0-.844.117-1.218.35a2.479 2.479 0 00-.896.938 2.578 2.578 0 00-.336 1.302 2.616 2.616 0 001.232 2.254c.374.224.78.336 1.218.336zm6.162-5.04c.177-.289.443-.537.797-.742.364-.205.798-.308 1.302-.308h.42v.98h-.42c-.373 0-.723.089-1.05.266a2.03 2.03 0 00-.77.77c-.186.327-.28.705-.28 1.134V741h-.98v-6.72h.98v.91zm4.896-3.99v6.65l3.36-3.57h1.19l-2.59 2.73 2.87 3.99h-1.12l-2.38-3.29-1.33 1.4V741h-.98v-9.8h.98zm6.156 8.05c.187.271.434.504.742.7.308.187.644.28 1.008.28.476 0 .84-.103 1.092-.308.252-.215.378-.485.378-.812a.768.768 0 00-.392-.7c-.252-.159-.634-.313-1.148-.462-.457-.14-.826-.271-1.106-.392a2.022 2.022 0 01-.7-.56c-.196-.252-.294-.574-.294-.966 0-.327.094-.635.28-.924a2.16 2.16 0 01.798-.7 2.51 2.51 0 011.162-.266c.458 0 .873.089 1.246.266.383.177.691.392.924.644l-.7.7a1.723 1.723 0 00-.616-.49 1.727 1.727 0 00-.854-.21c-.373 0-.676.098-.91.294-.233.196-.35.425-.35.686 0 .289.122.509.364.658.243.14.621.285 1.134.434.458.14.826.275 1.106.406.29.131.532.327.728.588.206.252.308.583.308.994 0 .373-.098.714-.294 1.022-.196.308-.48.555-.854.742-.373.177-.807.266-1.302.266-.55 0-1.036-.112-1.456-.336a2.988 2.988 0 01-.994-.854l.7-.7zm8.957-4.97l1.75 5.18 1.68-5.18h.84l1.68 5.18 1.75-5.18h1.05l-2.31 6.72h-.91l-1.68-5.11-1.68 5.11h-.91l-2.31-6.72h1.05zm9.947-2.24c0-.177.06-.327.182-.448a.609.609 0 01.448-.182c.177 0 .326.061.448.182a.61.61 0 01.182.448.61.61 0 01-.182.448.612.612 0 01-.448.182.609.609 0 01-.448-.182.606.606 0 01-.182-.448zm1.12 2.24V741h-.98v-6.72h.98zm1.546 0h1.26v-2.24h.98v2.24h1.82v.91h-1.82v3.99c0 .336.075.574.224.714.159.131.388.196.686.196h.91v.91h-.952c-.588 0-1.045-.149-1.372-.448-.317-.299-.476-.756-.476-1.372v-3.99h-1.26v-.91zm6.795.98a2.69 2.69 0 01.882-.784 2.454 2.454 0 011.288-.336c.532 0 1.003.117 1.414.35.42.233.742.569.966 1.008.233.429.35.933.35 1.512V741h-.98v-3.99c0-.588-.173-1.059-.518-1.414-.336-.364-.77-.546-1.302-.546-.392 0-.751.098-1.078.294a2.044 2.044 0 00-.756.784 2.456 2.456 0 00-.266 1.162V741h-.98v-9.8h.98v4.06zm9.584-.98h1.26v-2.24h.98v2.24h1.82v.91h-1.82v3.99c0 .336.075.574.224.714.159.131.387.196.686.196h.91v.91h-.952c-.588 0-1.045-.149-1.372-.448-.317-.299-.476-.756-.476-1.372v-3.99h-1.26v-.91zm6.795.98a2.69 2.69 0 01.882-.784 2.454 2.454 0 011.288-.336c.532 0 1.003.117 1.414.35.42.233.742.569.966 1.008.233.429.35.933.35 1.512V741h-.98v-3.99c0-.588-.173-1.059-.518-1.414-.336-.364-.77-.546-1.302-.546-.392 0-.751.098-1.078.294a2.044 2.044 0 00-.756.784 2.456 2.456 0 00-.266 1.162V741h-.98v-9.8h.98v4.06zm12.81 4.732c-.299.317-.691.588-1.176.812a3.833 3.833 0 01-1.624.336 3.25 3.25 0 01-1.68-.462 3.574 3.574 0 01-1.232-1.274 3.538 3.538 0 01-.448-1.764c0-.635.149-1.218.448-1.75a3.477 3.477 0 011.218-1.274 2.996 2.996 0 011.624-.476 3.19 3.19 0 011.638.434c.494.289.882.691 1.162 1.204.28.504.42 1.078.42 1.722 0 .177-.024.345-.07.504l-5.46-.014c.018.392.14.761.364 1.106.224.345.513.621.868.826.354.205.737.308 1.148.308.466 0 .886-.084 1.26-.252.373-.168.676-.373.91-.616l.63.63zm-.63-2.842c-.075-.607-.322-1.106-.742-1.498a2.065 2.065 0 00-1.498-.602c-.383 0-.742.098-1.078.294a2.453 2.453 0 00-.84.77 2.333 2.333 0 00-.392 1.036h4.55zm7.27-5.95v4.34h5.46v-4.34h1.05v9.8h-1.05v-4.48h-5.46V741h-1.05v-9.8h1.05zm14.77 8.792c-.299.317-.691.588-1.176.812a3.833 3.833 0 01-1.624.336 3.25 3.25 0 01-1.68-.462 3.574 3.574 0 01-1.232-1.274 3.538 3.538 0 01-.448-1.764c0-.635.149-1.218.448-1.75a3.477 3.477 0 011.218-1.274 2.996 2.996 0 011.624-.476 3.19 3.19 0 011.638.434c.494.289.882.691 1.162 1.204.28.504.42 1.078.42 1.722 0 .177-.024.345-.07.504l-5.46-.014c.018.392.14.761.364 1.106.224.345.513.621.868.826.354.205.737.308 1.148.308.466 0 .886-.084 1.26-.252.373-.168.676-.373.91-.616l.63.63zm-.63-2.842c-.075-.607-.322-1.106-.742-1.498a2.065 2.065 0 00-1.498-.602c-.383 0-.742.098-1.078.294a2.453 2.453 0 00-.84.77 2.333 2.333 0 00-.392 1.036h4.55zm6.785 2.94a2.673 2.673 0 01-.882.742 2.63 2.63 0 01-1.288.308c-.448 0-.854-.093-1.218-.28a2.269 2.269 0 01-.854-.728 1.697 1.697 0 01-.308-.952c0-.569.168-1.036.504-1.4.346-.364.831-.574 1.456-.63l2.59-.224c0-.327-.074-.635-.224-.924a1.651 1.651 0 00-.602-.686 1.45 1.45 0 00-.854-.266 3.93 3.93 0 00-1.078.14c-.326.093-.597.21-.812.35l-.63-.63c.28-.215.64-.397 1.078-.546.439-.149.92-.224 1.442-.224.504 0 .957.117 1.358.35.411.224.728.532.952.924.234.392.35.831.35 1.316V741h-.98v-.91zm-2.31-2.1c-.41.037-.723.163-.938.378a1.103 1.103 0 00-.322.812c0 .299.122.551.364.756.252.196.598.294 1.036.294.654 0 1.176-.177 1.568-.532.402-.364.602-.868.602-1.512v-.42l-2.31.224zm6.164-6.79v9.8h-.98v-9.8h.98zm1.613 3.08h1.26v-2.24h.98v2.24h1.82v.91h-1.82v3.99c0 .336.075.574.224.714.159.131.387.196.686.196h.91v.91h-.952c-.588 0-1.045-.149-1.372-.448-.317-.299-.476-.756-.476-1.372v-3.99h-1.26v-.91zm6.795.98a2.67 2.67 0 01.882-.784 2.452 2.452 0 011.288-.336c.532 0 1.003.117 1.414.35.42.233.742.569.966 1.008.233.429.35.933.35 1.512V741h-.98v-3.99c0-.588-.173-1.059-.518-1.414-.336-.364-.77-.546-1.302-.546-.392 0-.752.098-1.078.294a2.03 2.03 0 00-.756.784 2.444 2.444 0 00-.266 1.162V741h-.98v-9.8h.98v4.06zm11.684-4.06v9.8h-1.05v-9.8h1.05zm3.572 4.06a2.69 2.69 0 01.882-.784 2.454 2.454 0 011.288-.336c.532 0 1.003.117 1.414.35.42.233.742.569.966 1.008.233.429.35.933.35 1.512V741h-.98v-3.99c0-.588-.173-1.059-.518-1.414-.336-.364-.77-.546-1.302-.546-.392 0-.751.098-1.078.294a2.044 2.044 0 00-.756.784 2.456 2.456 0 00-.266 1.162V741h-.98v-6.72h.98v.98zm7.211 3.99c.187.271.434.504.742.7.308.187.644.28 1.008.28.476 0 .84-.103 1.092-.308.252-.215.378-.485.378-.812a.77.77 0 00-.392-.7c-.252-.159-.635-.313-1.148-.462-.457-.14-.826-.271-1.106-.392a2.02 2.02 0 01-.7-.56c-.196-.252-.294-.574-.294-.966 0-.327.093-.635.28-.924a2.16 2.16 0 01.798-.7 2.51 2.51 0 011.162-.266c.457 0 .873.089 1.246.266.383.177.691.392.924.644l-.7.7a1.732 1.732 0 00-.616-.49 1.73 1.73 0 00-.854-.21c-.373 0-.677.098-.91.294-.233.196-.35.425-.35.686 0 .289.121.509.364.658.243.14.621.285 1.134.434.457.14.826.275 1.106.406.289.131.532.327.728.588.205.252.308.583.308.994 0 .373-.098.714-.294 1.022a2.093 2.093 0 01-.854.742c-.373.177-.807.266-1.302.266-.551 0-1.036-.112-1.456-.336a2.99 2.99 0 01-.994-.854l.7-.7zm6.926-1.05c0 .392.084.742.252 1.05a1.9 1.9 0 00.686.728c.289.168.606.252.952.252.373 0 .714-.093 1.022-.28.308-.196.55-.462.728-.798.186-.345.28-.733.28-1.162v-3.71h.98V741h-.98v-.91a2.694 2.694 0 01-.882.742 2.635 2.635 0 01-1.288.308c-.514 0-.98-.121-1.4-.364a2.72 2.72 0 01-.98-1.05c-.234-.448-.35-.957-.35-1.526v-3.92h.98v3.92zm8.189-3.01c.177-.289.443-.537.798-.742.364-.205.798-.308 1.302-.308h.42v.98h-.42c-.373 0-.723.089-1.05.266a2.033 2.033 0 00-.77.77c-.187.327-.28.705-.28 1.134V741h-.98v-6.72h.98v.91zm7.906 4.9a2.673 2.673 0 01-.882.742 2.63 2.63 0 01-1.288.308c-.448 0-.854-.093-1.218-.28a2.269 2.269 0 01-.854-.728 1.697 1.697 0 01-.308-.952c0-.569.168-1.036.504-1.4.346-.364.831-.574 1.456-.63l2.59-.224c0-.327-.074-.635-.224-.924a1.651 1.651 0 00-.602-.686 1.45 1.45 0 00-.854-.266 3.93 3.93 0 00-1.078.14c-.326.093-.597.21-.812.35l-.63-.63c.28-.215.64-.397 1.078-.546.439-.149.92-.224 1.442-.224.504 0 .957.117 1.358.35.411.224.728.532.952.924.234.392.35.831.35 1.316V741h-.98v-.91zm-2.31-2.1c-.41.037-.723.163-.938.378a1.103 1.103 0 00-.322.812c0 .299.122.551.364.756.252.196.598.294 1.036.294.654 0 1.176-.177 1.568-.532.402-.364.602-.868.602-1.512v-.42l-2.31.224zm6.094-2.73a2.67 2.67 0 01.882-.784 2.452 2.452 0 011.288-.336c.532 0 1.003.117 1.414.35.42.233.742.569.966 1.008.233.429.35.933.35 1.512V741h-.98v-3.99c0-.588-.173-1.059-.518-1.414-.336-.364-.77-.546-1.302-.546-.392 0-.752.098-1.078.294a2.03 2.03 0 00-.756.784 2.444 2.444 0 00-.266 1.162V741h-.98v-6.72h.98v.98zm12.811 4.48a4.054 4.054 0 01-1.218.994 3.194 3.194 0 01-1.582.406 3.25 3.25 0 01-1.68-.462 3.574 3.574 0 01-1.232-1.274 3.538 3.538 0 01-.448-1.764c0-.644.149-1.232.448-1.764a3.463 3.463 0 011.232-1.26 3.181 3.181 0 011.68-.476c.569 0 1.092.131 1.568.392.476.252.863.565 1.162.938l-.7.7a2.785 2.785 0 00-.854-.784 2.117 2.117 0 00-1.176-.336c-.42 0-.812.117-1.176.35a2.516 2.516 0 00-.882.938 2.662 2.662 0 00-.322 1.302c0 .476.107.915.322 1.316.224.392.518.705.882.938.364.224.756.336 1.176.336.438 0 .84-.107 1.204-.322.364-.224.662-.49.896-.798l.7.63zm7.068.252c-.299.317-.691.588-1.176.812a3.83 3.83 0 01-1.624.336 3.256 3.256 0 01-1.68-.462 3.583 3.583 0 01-1.232-1.274 3.538 3.538 0 01-.448-1.764c0-.635.149-1.218.448-1.75a3.477 3.477 0 011.218-1.274 2.996 2.996 0 011.624-.476 3.19 3.19 0 011.638.434c.495.289.882.691 1.162 1.204.28.504.42 1.078.42 1.722 0 .177-.023.345-.07.504l-5.46-.014c.019.392.14.761.364 1.106.224.345.513.621.868.826.355.205.737.308 1.148.308.467 0 .887-.084 1.26-.252.373-.168.677-.373.91-.616l.63.63zm-.63-2.842c-.075-.607-.322-1.106-.742-1.498a2.065 2.065 0 00-1.498-.602c-.383 0-.742.098-1.078.294a2.453 2.453 0 00-.84.77 2.344 2.344 0 00-.392 1.036h4.55zm7.13-5.95l4.06 5.32 4.06-5.32h.91v9.8h-1.05v-7.98l-3.92 5.18-3.92-5.18V741h-1.05v-9.8h.91zm15.679 8.89a2.694 2.694 0 01-.882.742 2.633 2.633 0 01-1.288.308c-.448 0-.854-.093-1.218-.28a2.261 2.261 0 01-.854-.728 1.697 1.697 0 01-.308-.952c0-.569.168-1.036.504-1.4.345-.364.831-.574 1.456-.63l2.59-.224c0-.327-.075-.635-.224-.924a1.658 1.658 0 00-.602-.686 1.451 1.451 0 00-.854-.266 3.93 3.93 0 00-1.078.14 2.98 2.98 0 00-.812.35l-.63-.63c.28-.215.639-.397 1.078-.546a4.459 4.459 0 011.442-.224c.504 0 .957.117 1.358.35.411.224.728.532.952.924.233.392.35.831.35 1.316V741h-.98v-.91zm-2.31-2.1c-.411.037-.723.163-.938.378a1.1 1.1 0 00-.322.812c0 .299.121.551.364.756.252.196.597.294 1.036.294.653 0 1.176-.177 1.568-.532.401-.364.602-.868.602-1.512v-.42l-2.31.224zm6.093-2.8c.178-.289.444-.537.798-.742.364-.205.798-.308 1.302-.308h.42v.98h-.42c-.373 0-.723.089-1.05.266a2.033 2.033 0 00-.77.77c-.186.327-.28.705-.28 1.134V741h-.98v-6.72h.98v.91zm4.897-3.99v6.65l3.36-3.57h1.19l-2.59 2.73 2.87 3.99h-1.12l-2.38-3.29-1.33 1.4V741h-.98v-9.8h.98zm11.62 8.792c-.299.317-.691.588-1.176.812a3.833 3.833 0 01-1.624.336 3.25 3.25 0 01-1.68-.462 3.574 3.574 0 01-1.232-1.274 3.538 3.538 0 01-.448-1.764c0-.635.149-1.218.448-1.75a3.477 3.477 0 011.218-1.274 2.996 2.996 0 011.624-.476 3.19 3.19 0 011.638.434c.494.289.882.691 1.162 1.204.28.504.42 1.078.42 1.722 0 .177-.024.345-.07.504l-5.46-.014c.018.392.14.761.364 1.106.224.345.513.621.868.826.354.205.737.308 1.148.308.466 0 .886-.084 1.26-.252.373-.168.676-.373.91-.616l.63.63zm-.63-2.842c-.075-.607-.322-1.106-.742-1.498a2.065 2.065 0 00-1.498-.602c-.383 0-.742.098-1.078.294a2.453 2.453 0 00-.84.77 2.333 2.333 0 00-.392 1.036h4.55zm2.025-2.87h1.26v-2.24h.98v2.24h1.82v.91h-1.82v3.99c0 .336.075.574.224.714.159.131.388.196.686.196h.91v.91h-.952c-.588 0-1.045-.149-1.372-.448-.317-.299-.476-.756-.476-1.372v-3.99h-1.26v-.91zm6.725.98c.233-.308.551-.569.952-.784a2.737 2.737 0 011.358-.336 3.11 3.11 0 011.652.462c.504.299.901.714 1.19 1.246.299.532.448 1.129.448 1.792s-.149 1.26-.448 1.792a3.287 3.287 0 01-1.19 1.26 3.18 3.18 0 01-1.652.448c-.504 0-.957-.107-1.358-.322a3.012 3.012 0 01-.952-.798v3.92h-.98v-9.66h.98v.98zm2.31 4.97a2.2 2.2 0 001.162-.322c.355-.224.635-.532.84-.924.205-.392.308-.84.308-1.344 0-.504-.103-.952-.308-1.344a2.263 2.263 0 00-.84-.91 2.135 2.135 0 00-1.162-.336c-.392 0-.77.117-1.134.35a2.45 2.45 0 00-.854.938 2.662 2.662 0 00-.322 1.302c0 .476.107.915.322 1.316.215.392.499.705.854.938.364.224.742.336 1.134.336zm6.086-9.03v9.8h-.98v-9.8h.98zm6.374 8.89a2.694 2.694 0 01-.882.742 2.635 2.635 0 01-1.288.308c-.448 0-.854-.093-1.218-.28a2.261 2.261 0 01-.854-.728 1.69 1.69 0 01-.308-.952c0-.569.168-1.036.504-1.4.345-.364.83-.574 1.456-.63l2.59-.224c0-.327-.075-.635-.224-.924a1.658 1.658 0 00-.602-.686 1.451 1.451 0 00-.854-.266c-.392 0-.752.047-1.078.14-.327.093-.598.21-.812.35l-.63-.63c.28-.215.639-.397 1.078-.546a4.454 4.454 0 011.442-.224c.504 0 .956.117 1.358.35.41.224.728.532.952.924.233.392.35.831.35 1.316V741h-.98v-.91zm-2.31-2.1c-.411.037-.724.163-.938.378a1.1 1.1 0 00-.322.812c0 .299.121.551.364.756.252.196.597.294 1.036.294.653 0 1.176-.177 1.568-.532.401-.364.602-.868.602-1.512v-.42l-2.31.224zm10.783 1.75a4.029 4.029 0 01-1.218.994 3.19 3.19 0 01-1.582.406 3.256 3.256 0 01-1.68-.462 3.583 3.583 0 01-1.232-1.274 3.538 3.538 0 01-.448-1.764c0-.644.149-1.232.448-1.764a3.471 3.471 0 011.232-1.26 3.186 3.186 0 011.68-.476c.569 0 1.092.131 1.568.392.476.252.863.565 1.162.938l-.7.7a2.774 2.774 0 00-.854-.784 2.112 2.112 0 00-1.176-.336c-.42 0-.812.117-1.176.35a2.516 2.516 0 00-.882.938 2.662 2.662 0 00-.322 1.302c0 .476.107.915.322 1.316.224.392.518.705.882.938.364.224.756.336 1.176.336.439 0 .84-.107 1.204-.322.364-.224.663-.49.896-.798l.7.63zm7.068.252c-.298.317-.69.588-1.176.812a3.827 3.827 0 01-1.624.336 3.256 3.256 0 01-1.68-.462 3.583 3.583 0 01-1.232-1.274 3.548 3.548 0 01-.448-1.764 3.52 3.52 0 011.666-3.024 2.998 2.998 0 011.624-.476c.598 0 1.144.145 1.638.434.495.289.882.691 1.162 1.204.28.504.42 1.078.42 1.722 0 .177-.023.345-.07.504l-5.46-.014c.019.392.14.761.364 1.106.224.345.514.621.868.826.355.205.738.308 1.148.308.467 0 .887-.084 1.26-.252a2.87 2.87 0 00.91-.616l.63.63zm-.63-2.842c-.074-.607-.322-1.106-.742-1.498a2.064 2.064 0 00-1.498-.602c-.382 0-.742.098-1.078.294a2.453 2.453 0 00-.84.77 2.357 2.357 0 00-.392 1.036h4.55zM71.579 754.28h1.26v-2.24h.98v2.24h1.82v.91h-1.82v3.99c0 .336.075.574.224.714.159.131.387.196.686.196h.91v.91h-.952c-.588 0-1.045-.149-1.372-.448-.317-.299-.476-.756-.476-1.372v-3.99h-1.26v-.91zm8.548 6.86a3.33 3.33 0 01-1.722-.462 3.541 3.541 0 01-1.246-1.274 3.457 3.457 0 01-.462-1.764c0-.644.154-1.232.462-1.764a3.433 3.433 0 011.246-1.26 3.258 3.258 0 011.722-.476c.626 0 1.2.159 1.722.476.523.308.938.728 1.246 1.26.308.532.462 1.12.462 1.764 0 .644-.154 1.232-.462 1.764a3.542 3.542 0 01-1.246 1.274 3.33 3.33 0 01-1.722.462zm0-.91c.439 0 .845-.112 1.218-.336a2.616 2.616 0 001.232-2.254c0-.476-.112-.91-.336-1.302a2.479 2.479 0 00-.896-.938 2.258 2.258 0 00-1.218-.35c-.438 0-.844.117-1.218.35a2.478 2.478 0 00-.896.938 2.578 2.578 0 00-.336 1.302 2.615 2.615 0 001.232 2.254c.374.224.78.336 1.218.336zm9.376-4.97c.215-.308.509-.569.882-.784a2.454 2.454 0 011.288-.336c.532 0 1.003.117 1.414.35.42.233.742.569.966 1.008.233.429.35.933.35 1.512V761h-.98v-3.99c0-.588-.173-1.059-.518-1.414-.336-.364-.77-.546-1.302-.546-.392 0-.751.098-1.078.294a2.04 2.04 0 00-.756.784 2.452 2.452 0 00-.266 1.162V761h-.98v-9.8h.98v4.06zm12.809 4.732c-.298.317-.69.588-1.176.812a3.826 3.826 0 01-1.623.336 3.254 3.254 0 01-1.68-.462 3.58 3.58 0 01-1.233-1.274 3.541 3.541 0 01-.447-1.764c0-.635.149-1.218.447-1.75a3.477 3.477 0 011.219-1.274 2.996 2.996 0 011.623-.476c.598 0 1.144.145 1.638.434.495.289.882.691 1.162 1.204.28.504.42 1.078.42 1.722 0 .177-.023.345-.07.504l-5.46-.014c.02.392.14.761.364 1.106.225.345.514.621.869.826.354.205.737.308 1.148.308a3.034 3.034 0 002.169-.868l.63.63zm-.63-2.842c-.074-.607-.322-1.106-.742-1.498a2.063 2.063 0 00-1.498-.602c-.382 0-.741.098-1.077.294a2.453 2.453 0 00-.84.77 2.343 2.343 0 00-.393 1.036h4.55zm3.776-5.95v9.8h-.98v-9.8h.98zm3.293 4.06c.234-.308.551-.569.952-.784a2.74 2.74 0 011.358-.336c.598 0 1.148.154 1.652.462.504.299.901.714 1.19 1.246.299.532.448 1.129.448 1.792s-.149 1.26-.448 1.792a3.287 3.287 0 01-1.19 1.26 3.177 3.177 0 01-1.652.448c-.504 0-.956-.107-1.358-.322a3.023 3.023 0 01-.952-.798v3.92h-.98v-9.66h.98v.98zm2.31 4.97c.42 0 .808-.107 1.162-.322.355-.224.635-.532.84-.924.206-.392.308-.84.308-1.344 0-.504-.102-.952-.308-1.344a2.263 2.263 0 00-.84-.91 2.132 2.132 0 00-1.162-.336c-.392 0-.77.117-1.134.35a2.457 2.457 0 00-.854.938 2.673 2.673 0 00-.322 1.302c0 .476.108.915.322 1.316.215.392.5.705.854.938.364.224.742.336 1.134.336zm8.118 2.8c.308 0 .56-.089.756-.266.205-.168.373-.429.504-.784l.35-.98-2.73-6.72h1.05l2.17 5.46 2.17-5.46h1.05l-3.08 7.7c-.28.709-.579 1.213-.896 1.512-.318.299-.719.448-1.204.448h-.84v-.91h.7zm9.593-1.89a3.332 3.332 0 01-1.722-.462 3.539 3.539 0 01-1.246-1.274 3.457 3.457 0 01-.462-1.764c0-.644.154-1.232.462-1.764a3.43 3.43 0 011.246-1.26 3.26 3.26 0 011.722-.476 3.26 3.26 0 011.722.476 3.43 3.43 0 011.246 1.26c.308.532.462 1.12.462 1.764 0 .644-.154 1.232-.462 1.764a3.539 3.539 0 01-1.246 1.274 3.332 3.332 0 01-1.722.462zm0-.91c.439 0 .845-.112 1.218-.336a2.619 2.619 0 001.232-2.254c0-.476-.112-.91-.336-1.302a2.481 2.481 0 00-.896-.938 2.256 2.256 0 00-1.218-.35c-.439 0-.845.117-1.218.35a2.481 2.481 0 00-.896.938 2.578 2.578 0 00-.336 1.302 2.619 2.619 0 001.232 2.254c.373.224.779.336 1.218.336zm6.161-2.03c0 .392.084.742.252 1.05.168.308.397.551.686.728.289.168.607.252.952.252.373 0 .714-.093 1.022-.28a2.07 2.07 0 00.728-.798 2.4 2.4 0 00.28-1.162v-3.71h.98V761h-.98v-.91a2.694 2.694 0 01-.882.742 2.633 2.633 0 01-1.288.308c-.513 0-.98-.121-1.4-.364a2.728 2.728 0 01-.98-1.05 3.26 3.26 0 01-.35-1.526v-3.92h.98v3.92zm10.774 3.934c.233.252.537.462.91.63.383.177.803.266 1.26.266.42 0 .803-.107 1.148-.322.355-.215.635-.509.84-.882.215-.373.322-.789.322-1.246v-.77c-.196.289-.49.537-.882.742-.383.205-.835.308-1.358.308a2.983 2.983 0 01-1.596-.448 3.245 3.245 0 01-1.134-1.218 3.479 3.479 0 01-.42-1.694c0-.616.14-1.181.42-1.694.28-.513.658-.919 1.134-1.218a2.983 2.983 0 011.596-.448c.523 0 .975.103 1.358.308.392.205.686.453.882.742v-.91h.98v6.3c0 .616-.149 1.181-.448 1.694a3.243 3.243 0 01-1.19 1.218 3.18 3.18 0 01-1.652.448c-.616 0-1.167-.117-1.652-.35-.485-.224-.868-.499-1.148-.826l.63-.63zm2.24-2.184c.411 0 .789-.107 1.134-.322.345-.215.616-.509.812-.882a2.64 2.64 0 00.294-1.246 2.64 2.64 0 00-.294-1.246 2.252 2.252 0 00-.812-.882 2.102 2.102 0 00-1.134-.322c-.392 0-.756.107-1.092.322a2.325 2.325 0 00-.784.882 2.64 2.64 0 00-.294 1.246c0 .457.098.873.294 1.246.196.373.457.667.784.882.336.215.7.322 1.092.322zm11.131.042c-.299.317-.691.588-1.176.812a3.83 3.83 0 01-1.624.336 3.256 3.256 0 01-1.68-.462 3.583 3.583 0 01-1.232-1.274 3.538 3.538 0 01-.448-1.764c0-.635.149-1.218.448-1.75a3.477 3.477 0 011.218-1.274 2.996 2.996 0 011.624-.476 3.19 3.19 0 011.638.434c.495.289.882.691 1.162 1.204.28.504.42 1.078.42 1.722 0 .177-.023.345-.07.504l-5.46-.014c.019.392.14.761.364 1.106.224.345.513.621.868.826.355.205.737.308 1.148.308.467 0 .887-.084 1.26-.252.373-.168.677-.373.91-.616l.63.63zm-.63-2.842c-.075-.607-.322-1.106-.742-1.498a2.065 2.065 0 00-1.498-.602c-.383 0-.742.098-1.078.294a2.453 2.453 0 00-.84.77 2.344 2.344 0 00-.392 1.036h4.55zm2.026-2.87h1.26v-2.24h.98v2.24h1.82v.91h-1.82v3.99c0 .336.074.574.224.714.158.131.387.196.686.196h.91v.91h-.952c-.588 0-1.046-.149-1.372-.448-.318-.299-.476-.756-.476-1.372v-3.99h-1.26v-.91zm14.559 5.46a4.029 4.029 0 01-1.218.994 3.19 3.19 0 01-1.582.406 3.256 3.256 0 01-1.68-.462 3.583 3.583 0 01-1.232-1.274 3.538 3.538 0 01-.448-1.764c0-.644.149-1.232.448-1.764a3.471 3.471 0 011.232-1.26 3.186 3.186 0 011.68-.476c.569 0 1.092.131 1.568.392.476.252.863.565 1.162.938l-.7.7a2.774 2.774 0 00-.854-.784 2.112 2.112 0 00-1.176-.336c-.42 0-.812.117-1.176.35a2.516 2.516 0 00-.882.938 2.662 2.662 0 00-.322 1.302c0 .476.107.915.322 1.316.224.392.518.705.882.938.364.224.756.336 1.176.336.439 0 .84-.107 1.204-.322.364-.224.663-.49.896-.798l.7.63zm4.339 1.4c-.626 0-1.2-.154-1.722-.462a3.539 3.539 0 01-1.246-1.274 3.457 3.457 0 01-.462-1.764c0-.644.154-1.232.462-1.764a3.43 3.43 0 011.246-1.26 3.255 3.255 0 011.722-.476 3.26 3.26 0 011.722.476c.522.308.938.728 1.246 1.26.308.532.462 1.12.462 1.764 0 .644-.154 1.232-.462 1.764a3.547 3.547 0 01-1.246 1.274 3.332 3.332 0 01-1.722.462zm0-.91c.438 0 .844-.112 1.218-.336a2.619 2.619 0 001.232-2.254c0-.476-.112-.91-.336-1.302a2.481 2.481 0 00-.896-.938 2.261 2.261 0 00-1.218-.35c-.439 0-.845.117-1.218.35a2.474 2.474 0 00-.896.938 2.578 2.578 0 00-.336 1.302 2.61 2.61 0 001.232 2.254c.373.224.779.336 1.218.336zm5.321-5.95l2.17 5.39 2.17-5.39h1.05l-2.73 6.72h-.98l-2.73-6.72h1.05zm12.393 5.712c-.299.317-.691.588-1.176.812a3.83 3.83 0 01-1.624.336 3.256 3.256 0 01-1.68-.462 3.583 3.583 0 01-1.232-1.274 3.538 3.538 0 01-.448-1.764c0-.635.149-1.218.448-1.75a3.477 3.477 0 011.218-1.274 2.996 2.996 0 011.624-.476 3.19 3.19 0 011.638.434c.495.289.882.691 1.162 1.204.28.504.42 1.078.42 1.722 0 .177-.023.345-.07.504l-5.46-.014c.019.392.14.761.364 1.106.224.345.513.621.868.826.355.205.737.308 1.148.308.467 0 .887-.084 1.26-.252.373-.168.677-.373.91-.616l.63.63zm-.63-2.842c-.075-.607-.322-1.106-.742-1.498a2.065 2.065 0 00-1.498-.602c-.383 0-.742.098-1.078.294a2.453 2.453 0 00-.84.77 2.344 2.344 0 00-.392 1.036h4.55zm3.706-1.96c.177-.289.443-.537.798-.742.364-.205.798-.308 1.302-.308h.42v.98h-.42c-.374 0-.724.089-1.05.266a2.026 2.026 0 00-.77.77c-.187.327-.28.705-.28 1.134V761h-.98v-6.72h.98v.91zm7.906 4.9a2.694 2.694 0 01-.882.742 2.635 2.635 0 01-1.288.308c-.448 0-.854-.093-1.218-.28a2.261 2.261 0 01-.854-.728 1.69 1.69 0 01-.308-.952c0-.569.168-1.036.504-1.4.345-.364.83-.574 1.456-.63l2.59-.224c0-.327-.075-.635-.224-.924a1.658 1.658 0 00-.602-.686 1.451 1.451 0 00-.854-.266c-.392 0-.752.047-1.078.14-.327.093-.598.21-.812.35l-.63-.63c.28-.215.639-.397 1.078-.546a4.454 4.454 0 011.442-.224c.504 0 .956.117 1.358.35.41.224.728.532.952.924.233.392.35.831.35 1.316V761h-.98v-.91zm-2.31-2.1c-.411.037-.724.163-.938.378a1.1 1.1 0 00-.322.812c0 .299.121.551.364.756.252.196.597.294 1.036.294.653 0 1.176-.177 1.568-.532.401-.364.602-.868.602-1.512v-.42l-2.31.224zm5.533 4.144c.233.252.537.462.91.63.383.177.803.266 1.26.266.42 0 .803-.107 1.148-.322.355-.215.635-.509.84-.882.215-.373.322-.789.322-1.246v-.77c-.196.289-.49.537-.882.742-.383.205-.835.308-1.358.308a2.983 2.983 0 01-1.596-.448 3.245 3.245 0 01-1.134-1.218 3.479 3.479 0 01-.42-1.694c0-.616.14-1.181.42-1.694.28-.513.658-.919 1.134-1.218a2.983 2.983 0 011.596-.448c.523 0 .975.103 1.358.308.392.205.686.453.882.742v-.91h.98v6.3c0 .616-.149 1.181-.448 1.694a3.243 3.243 0 01-1.19 1.218 3.18 3.18 0 01-1.652.448c-.616 0-1.167-.117-1.652-.35-.485-.224-.868-.499-1.148-.826l.63-.63zm2.24-2.184c.411 0 .789-.107 1.134-.322.345-.215.616-.509.812-.882a2.64 2.64 0 00.294-1.246 2.64 2.64 0 00-.294-1.246 2.252 2.252 0 00-.812-.882 2.102 2.102 0 00-1.134-.322c-.392 0-.756.107-1.092.322a2.325 2.325 0 00-.784.882 2.64 2.64 0 00-.294 1.246c0 .457.098.873.294 1.246.196.373.457.667.784.882.336.215.7.322 1.092.322zm11.131.042c-.299.317-.691.588-1.176.812a3.83 3.83 0 01-1.624.336 3.256 3.256 0 01-1.68-.462 3.583 3.583 0 01-1.232-1.274 3.538 3.538 0 01-.448-1.764c0-.635.149-1.218.448-1.75a3.477 3.477 0 011.218-1.274 2.996 2.996 0 011.624-.476 3.19 3.19 0 011.638.434c.495.289.882.691 1.162 1.204.28.504.42 1.078.42 1.722 0 .177-.023.345-.07.504l-5.46-.014c.019.392.14.761.364 1.106.224.345.513.621.868.826.355.205.737.308 1.148.308.467 0 .887-.084 1.26-.252.373-.168.677-.373.91-.616l.63.63zm-.63-2.842c-.075-.607-.322-1.106-.742-1.498a2.065 2.065 0 00-1.498-.602c-.383 0-.742.098-1.078.294a2.453 2.453 0 00-.84.77 2.344 2.344 0 00-.392 1.036h4.55zm2.376 3.29c0-.215.065-.383.196-.504a.679.679 0 01.504-.196c.214 0 .382.065.504.196.13.121.196.289.196.504a.686.686 0 01-.196.504c-.122.131-.29.196-.504.196a.679.679 0 01-.504-.196.682.682 0 01-.196-.504z"/>
    <path fill="#25272E" d="M234.662 751.2v8.33h4.76V761h-6.3v-9.8h1.54zm11.837 8.848c-.28.308-.667.569-1.162.784-.494.205-1.064.308-1.708.308a3.535 3.535 0 01-1.778-.462 3.4 3.4 0 01-1.26-1.26 3.532 3.532 0 01-.462-1.778c0-.644.154-1.232.462-1.764a3.438 3.438 0 011.246-1.26 3.26 3.26 0 011.722-.476c.626 0 1.186.145 1.68.434.504.28.896.672 1.176 1.176a3.26 3.26 0 01.434 1.68c0 .261-.023.495-.07.7h-5.18c.075.467.308.863.7 1.19.392.327.859.49 1.4.49.392 0 .756-.07 1.092-.21.346-.149.635-.327.868-.532l.84.98zm-1.12-3.108c-.112-.467-.326-.84-.644-1.12-.308-.28-.7-.42-1.176-.42-.504 0-.919.14-1.246.42-.326.271-.564.644-.714 1.12h3.78zm6.924 3.08a2.808 2.808 0 01-.882.798 2.531 2.531 0 01-1.288.322c-.429 0-.816-.089-1.162-.266a2.108 2.108 0 01-.798-.714 1.867 1.867 0 01-.28-.98c0-.569.182-1.059.546-1.47.374-.42.854-.653 1.442-.7l2.422-.196c0-.364-.135-.691-.406-.98a1.28 1.28 0 00-.994-.434c-.345 0-.667.051-.966.154-.298.093-.55.21-.756.35l-.91-.91c.271-.243.635-.443 1.092-.602a4.446 4.446 0 011.54-.252c.551 0 1.036.112 1.456.336.43.224.761.537.994.938.234.392.35.831.35 1.316V761h-1.4v-.98zm-1.96-1.89c-.336.037-.597.145-.784.322a.787.787 0 00-.266.588c0 .252.103.467.308.644.206.177.476.266.812.266.542 0 .99-.163 1.344-.49.364-.327.546-.765.546-1.316v-.21l-1.96.196zm6.44-2.94a2.39 2.39 0 01.742-.644 2.178 2.178 0 011.078-.266h.56v1.26h-.56c-.326 0-.63.089-.91.266-.28.168-.504.411-.672.728a2.236 2.236 0 00-.238 1.036V761h-1.4v-6.72h1.4v.91zm5.045.07a2.73 2.73 0 01.868-.784 2.304 2.304 0 011.232-.336c.514 0 .971.121 1.372.364.402.233.714.574.938 1.022.234.439.35.957.35 1.554V761h-1.4v-3.92c0-.485-.144-.873-.434-1.162-.28-.299-.648-.448-1.106-.448-.532 0-.97.177-1.316.532-.336.345-.504.798-.504 1.358V761h-1.4v-6.72h1.4v.98zm11.348 0c.177-.308.434-.569.77-.784.336-.224.733-.336 1.19-.336.485 0 .905.112 1.26.336.364.215.644.476.84.784.196-.308.49-.569.882-.784.401-.224.877-.336 1.428-.336.448 0 .859.121 1.232.364.373.233.667.569.882 1.008.224.429.336.929.336 1.498V761h-1.4v-3.99c0-.476-.135-.849-.406-1.12a1.3 1.3 0 00-.994-.42c-.467 0-.854.168-1.162.504-.299.327-.448.765-.448 1.316V761h-1.4v-3.99c0-.476-.135-.849-.406-1.12a1.3 1.3 0 00-.994-.42c-.467 0-.854.168-1.162.504-.299.327-.448.765-.448 1.316V761h-1.4v-6.72h1.4v.98zm10.362 2.38c0-.644.154-1.232.462-1.764a3.373 3.373 0 011.26-1.274 3.532 3.532 0 011.778-.462c.644 0 1.232.154 1.764.462.541.308.966.733 1.274 1.274.308.532.462 1.12.462 1.764 0 .644-.154 1.237-.462 1.778a3.373 3.373 0 01-1.274 1.26 3.457 3.457 0 01-1.764.462 3.532 3.532 0 01-1.778-.462 3.4 3.4 0 01-1.26-1.26 3.532 3.532 0 01-.462-1.778zm3.5 2.17c.392 0 .746-.093 1.064-.28.326-.187.578-.443.756-.77.186-.336.28-.709.28-1.12 0-.411-.094-.779-.28-1.106a1.923 1.923 0 00-.756-.784 2.058 2.058 0 00-1.064-.28 2.13 2.13 0 00-1.078.28 2.03 2.03 0 00-.756.784 2.273 2.273 0 00-.266 1.106c0 .411.088.784.266 1.12.186.327.438.583.756.77.326.187.686.28 1.078.28zm6.441-4.62c.186-.252.434-.467.742-.644a2.173 2.173 0 011.078-.266h.56v1.26h-.56c-.327 0-.63.089-.91.266-.28.168-.504.411-.672.728a2.224 2.224 0 00-.238 1.036V761h-1.4v-6.72h1.4v.91zm9.458 4.858c-.28.308-.667.569-1.162.784-.495.205-1.064.308-1.708.308a3.532 3.532 0 01-1.778-.462 3.4 3.4 0 01-1.26-1.26 3.532 3.532 0 01-.462-1.778c0-.644.154-1.232.462-1.764a3.43 3.43 0 011.246-1.26 3.26 3.26 0 011.722-.476 3.27 3.27 0 011.68.434c.504.28.896.672 1.176 1.176a3.27 3.27 0 01.434 1.68c0 .261-.023.495-.07.7h-5.18c.075.467.308.863.7 1.19.392.327.859.49 1.4.49.392 0 .756-.07 1.092-.21.345-.149.635-.327.868-.532l.84.98zm-1.12-3.108c-.112-.467-.327-.84-.644-1.12-.308-.28-.7-.42-1.176-.42-.504 0-.919.14-1.246.42-.327.271-.565.644-.714 1.12h3.78z"/>
  </g>
  <g>
    <rect width="32" height="32" x="71" y="295" fill="#E3F7F7" rx="16"/>
    <path fill="#00706A" d="M83.778 313.756c.32.367.735.681 1.244.942a3.65 3.65 0 001.69.391c.675 0 1.184-.13 1.528-.391.344-.261.516-.605.516-1.031 0-.391-.184-.694-.552-.907-.367-.225-.948-.468-1.742-.729a19.437 19.437 0 01-2.026-.8 3.914 3.914 0 01-1.334-1.138c-.379-.497-.569-1.143-.569-1.937 0-.877.285-1.618.854-2.223.58-.616 1.392-1.06 2.435-1.333V303h2.311v1.6a4.82 4.82 0 011.743.587 5.629 5.629 0 011.368 1.013l-1.777 1.778a3.46 3.46 0 00-1.014-.747 2.736 2.736 0 00-1.297-.32c-.64 0-1.115.113-1.423.338a1.08 1.08 0 00-.444.907c0 .391.184.699.551.924.367.213.948.45 1.742.711.83.285 1.5.557 2.01.818.52.249.971.622 1.35 1.12.38.498.57 1.144.57 1.938 0 .912-.315 1.706-.943 2.382-.628.675-1.44 1.126-2.436 1.351v1.6h-2.31v-1.6c-.842-.119-1.595-.35-2.259-.693-.663-.356-1.185-.747-1.564-1.174l1.778-1.777z"/>
    <path fill="#25272E" d="M124.36 304.8v1.12h-6.48v3.68h5.2v1.12h-5.2v4.16h6.64V316h-7.84v-11.2h7.68zm2.234 9.2c.214.309.496.576.848.8.352.213.736.32 1.152.32.544 0 .96-.117 1.248-.352.288-.245.432-.555.432-.928a.878.878 0 00-.448-.8c-.288-.181-.725-.357-1.312-.528-.522-.16-.944-.309-1.264-.448a2.314 2.314 0 01-.8-.64c-.224-.288-.336-.656-.336-1.104 0-.373.107-.725.32-1.056.224-.331.528-.597.912-.8a2.863 2.863 0 011.328-.304c.523 0 .998.101 1.424.304.438.203.79.448 1.056.736l-.8.8a1.963 1.963 0 00-.704-.56 1.974 1.974 0 00-.976-.24c-.426 0-.773.112-1.04.336-.266.224-.4.485-.4.784a.83.83 0 00.416.752c.278.16.71.325 1.296.496.523.16.944.315 1.264.464.331.149.608.373.832.672.235.288.352.667.352 1.136 0 .427-.112.816-.336 1.168-.224.352-.549.635-.976.848-.426.203-.922.304-1.488.304-.629 0-1.184-.128-1.664-.384-.48-.267-.858-.592-1.136-.976l.8-.8zm5.995-5.68h1.44v-2.56h1.12v2.56h2.08v1.04h-2.08v4.56c0 .384.086.656.256.816.182.149.443.224.784.224h1.04V316h-1.088c-.672 0-1.194-.171-1.568-.512-.362-.341-.544-.864-.544-1.568v-4.56h-1.44v-1.04zm6.406-2.56c0-.203.069-.373.208-.512a.695.695 0 01.512-.208c.203 0 .373.069.512.208a.695.695 0 01.208.512.695.695 0 01-.208.512.695.695 0 01-.512.208.695.695 0 01-.512-.208.695.695 0 01-.208-.512zm1.28 2.56V316h-1.12v-7.68h1.12zm3.688.96c.202-.309.485-.571.848-.784.373-.224.81-.336 1.312-.336.597 0 1.109.133 1.536.4.426.256.741.576.944.96.224-.384.56-.704 1.008-.96.458-.267 1.002-.4 1.632-.4.874 0 1.584.288 2.128.864.554.576.832 1.381.832 2.416V316h-1.12v-4.56c0-.715-.176-1.264-.528-1.648-.352-.395-.816-.592-1.392-.592-.374 0-.72.107-1.04.32-.32.203-.576.501-.768.896-.182.384-.272.832-.272 1.344V316h-1.12v-4.56c0-.704-.176-1.253-.528-1.648-.352-.395-.816-.592-1.392-.592-.374 0-.72.107-1.04.32-.32.203-.576.501-.768.896-.182.384-.272.832-.272 1.344V316h-1.12v-7.68h1.12v.96zm17.441 5.68c-.245.331-.581.613-1.008.848-.426.235-.917.352-1.472.352a3.01 3.01 0 01-1.392-.32 2.59 2.59 0 01-.976-.832c-.234-.352-.352-.715-.352-1.088 0-.651.192-1.184.576-1.6.395-.416.95-.656 1.664-.72l2.96-.256c0-.373-.085-.725-.256-1.056a1.885 1.885 0 00-.688-.784 1.652 1.652 0 00-.976-.304c-.448 0-.858.053-1.232.16-.373.107-.682.24-.928.4l-.72-.72c.32-.245.731-.453 1.232-.624a5.08 5.08 0 011.648-.256c.576 0 1.094.133 1.552.4.47.256.832.608 1.088 1.056.267.448.4.949.4 1.504V316h-1.12v-1.04zm-2.64-2.4c-.469.043-.826.187-1.072.432a1.26 1.26 0 00-.368.928c0 .341.139.629.416.864.288.224.683.336 1.184.336.747 0 1.344-.203 1.792-.608.459-.416.688-.992.688-1.728v-.48l-2.64.256zm4.888-4.24h1.44v-2.56h1.12v2.56h2.08v1.04h-2.08v4.56c0 .384.085.656.256.816.181.149.443.224.784.224h1.04V316h-1.088c-.672 0-1.195-.171-1.568-.512-.363-.341-.544-.864-.544-1.568v-4.56h-1.44v-1.04zm12.889 6.528c-.341.363-.789.672-1.344.928-.554.256-1.173.384-1.856.384a3.722 3.722 0 01-1.92-.528 4.103 4.103 0 01-1.408-1.456 4.05 4.05 0 01-.512-2.016c0-.725.171-1.392.512-2a3.969 3.969 0 011.392-1.456 3.42 3.42 0 011.856-.544c.683 0 1.307.165 1.872.496a3.502 3.502 0 011.328 1.376c.32.576.48 1.232.48 1.968 0 .203-.026.395-.08.576l-6.24-.016c.022.448.16.869.416 1.264a2.9 2.9 0 00.992.944c.406.235.843.352 1.312.352.534 0 1.014-.096 1.44-.288a3.294 3.294 0 001.04-.704l.72.72zm-.72-3.248c-.085-.693-.368-1.264-.848-1.712a2.356 2.356 0 00-1.712-.688c-.437 0-.848.112-1.232.336a2.803 2.803 0 00-.96.88 2.692 2.692 0 00-.448 1.184h5.2zm7.829-2.16c.267-.352.629-.651 1.088-.896a3.13 3.13 0 011.552-.384c.683 0 1.312.176 1.888.528a3.642 3.642 0 011.36 1.424c.341.608.512 1.291.512 2.048 0 .757-.171 1.44-.512 2.048a3.761 3.761 0 01-1.36 1.44 3.639 3.639 0 01-1.888.512 3.243 3.243 0 01-1.552-.368c-.459-.256-.821-.56-1.088-.912v4.48h-1.12v-11.04h1.12v1.12zm2.64 5.68c.48 0 .923-.123 1.328-.368a2.71 2.71 0 00.96-1.056c.235-.448.352-.96.352-1.536 0-.576-.117-1.088-.352-1.536a2.591 2.591 0 00-.96-1.04 2.438 2.438 0 00-1.328-.384c-.448 0-.88.133-1.296.4a2.794 2.794 0 00-.976 1.072 3.05 3.05 0 00-.368 1.488c0 .544.123 1.045.368 1.504.245.448.571.805.976 1.072a2.44 2.44 0 001.296.384zm6.956-10.32V316h-1.12v-11.2h1.12zm7.283 10.16c-.245.331-.581.613-1.008.848-.426.235-.917.352-1.472.352a3.01 3.01 0 01-1.392-.32 2.59 2.59 0 01-.976-.832c-.234-.352-.352-.715-.352-1.088 0-.651.192-1.184.576-1.6.395-.416.95-.656 1.664-.72l2.96-.256c0-.373-.085-.725-.256-1.056a1.885 1.885 0 00-.688-.784 1.652 1.652 0 00-.976-.304c-.448 0-.858.053-1.232.16-.373.107-.682.24-.928.4l-.72-.72c.32-.245.731-.453 1.232-.624a5.08 5.08 0 011.648-.256c.576 0 1.094.133 1.552.4.47.256.832.608 1.088 1.056.267.448.4.949.4 1.504V316h-1.12v-1.04zm-2.64-2.4c-.469.043-.826.187-1.072.432a1.26 1.26 0 00-.368.928c0 .341.139.629.416.864.288.224.683.336 1.184.336.747 0 1.344-.203 1.792-.608.459-.416.688-.992.688-1.728v-.48l-2.64.256zm6.964-3.12a3.052 3.052 0 011.008-.896c.427-.256.917-.384 1.472-.384.608 0 1.147.133 1.616.4.48.267.848.651 1.104 1.152.267.491.4 1.067.4 1.728V316h-1.12v-4.56c0-.672-.197-1.211-.592-1.616-.384-.416-.88-.624-1.488-.624-.448 0-.859.112-1.232.336a2.32 2.32 0 00-.864.896c-.203.384-.304.827-.304 1.328V316h-1.12v-7.68h1.12v1.12zm11.835 4.56c.213.309.496.576.848.8.352.213.736.32 1.152.32.544 0 .96-.117 1.248-.352.288-.245.432-.555.432-.928a.878.878 0 00-.448-.8c-.288-.181-.725-.357-1.312-.528-.523-.16-.944-.309-1.264-.448a2.314 2.314 0 01-.8-.64c-.224-.288-.336-.656-.336-1.104 0-.373.107-.725.32-1.056.224-.331.528-.597.912-.8a2.86 2.86 0 011.328-.304c.523 0 .997.101 1.424.304.437.203.789.448 1.056.736l-.8.8a1.971 1.971 0 00-.704-.56 1.974 1.974 0 00-.976-.24c-.427 0-.773.112-1.04.336-.267.224-.4.485-.4.784a.83.83 0 00.416.752c.277.16.709.325 1.296.496.523.16.944.315 1.264.464.331.149.608.373.832.672.235.288.352.667.352 1.136 0 .427-.112.816-.336 1.168-.224.352-.549.635-.976.848-.427.203-.923.304-1.488.304-.629 0-1.184-.128-1.664-.384-.48-.267-.859-.592-1.136-.976l.8-.8zm11.435.96c-.245.331-.581.613-1.008.848-.427.235-.917.352-1.472.352a3.01 3.01 0 01-1.392-.32 2.59 2.59 0 01-.976-.832 1.936 1.936 0 01-.352-1.088c0-.651.192-1.184.576-1.6.395-.416.949-.656 1.664-.72l2.96-.256c0-.373-.085-.725-.256-1.056a1.885 1.885 0 00-.688-.784 1.652 1.652 0 00-.976-.304 4.46 4.46 0 00-1.232.16c-.373.107-.683.24-.928.4l-.72-.72c.32-.245.731-.453 1.232-.624a5.077 5.077 0 011.648-.256c.576 0 1.093.133 1.552.4.469.256.832.608 1.088 1.056.267.448.4.949.4 1.504V316h-1.12v-1.04zm-2.64-2.4c-.469.043-.827.187-1.072.432a1.26 1.26 0 00-.368.928c0 .341.139.629.416.864.288.224.683.336 1.184.336.747 0 1.344-.203 1.792-.608.459-.416.688-.992.688-1.728v-.48l-2.64.256zm5.848-4.24l2.48 6.16 2.48-6.16h1.2l-3.12 7.68h-1.12l-3.12-7.68h1.2zm7.523-2.56c0-.203.07-.373.208-.512a.696.696 0 01.512-.208c.203 0 .374.069.512.208a.695.695 0 01.208.512.695.695 0 01-.208.512.693.693 0 01-.512.208.696.696 0 01-.512-.208.698.698 0 01-.208-.512zm1.28 2.56V316h-1.12v-7.68h1.12zm3.688 1.12a3.052 3.052 0 011.008-.896c.427-.256.917-.384 1.472-.384.608 0 1.147.133 1.616.4.48.267.848.651 1.104 1.152.267.491.4 1.067.4 1.728V316h-1.12v-4.56c0-.672-.197-1.211-.592-1.616-.384-.416-.88-.624-1.488-.624-.448 0-.859.112-1.232.336a2.32 2.32 0 00-.864.896c-.203.384-.304.827-.304 1.328V316h-1.12v-7.68h1.12v1.12zm8.641 7.856c.267.288.613.528 1.04.72.437.203.917.304 1.44.304.48 0 .917-.123 1.312-.368.405-.245.725-.581.96-1.008.245-.427.368-.901.368-1.424v-.88c-.224.331-.56.613-1.008.848-.437.235-.955.352-1.552.352a3.418 3.418 0 01-1.824-.512 3.698 3.698 0 01-1.296-1.392 3.978 3.978 0 01-.48-1.936c0-.704.16-1.349.48-1.936a3.698 3.698 0 011.296-1.392 3.418 3.418 0 011.824-.512c.597 0 1.115.117 1.552.352.448.235.784.517 1.008.848v-1.04h1.12v7.2c0 .704-.171 1.349-.512 1.936a3.702 3.702 0 01-1.36 1.392 3.639 3.639 0 01-1.888.512c-.704 0-1.333-.133-1.888-.4-.555-.256-.992-.571-1.312-.944l.72-.72zm2.56-2.496c.469 0 .901-.123 1.296-.368s.704-.581.928-1.008c.224-.427.336-.901.336-1.424 0-.523-.112-.997-.336-1.424a2.559 2.559 0 00-.928-1.008 2.412 2.412 0 00-1.296-.368c-.448 0-.864.123-1.248.368a2.653 2.653 0 00-.896 1.008 3.016 3.016 0 00-.336 1.424c0 .523.112.997.336 1.424.224.427.523.763.896 1.008.384.245.8.368 1.248.368zm6.321-.8c.214.309.496.576.848.8.352.213.736.32 1.152.32.544 0 .96-.117 1.248-.352.288-.245.432-.555.432-.928a.878.878 0 00-.448-.8c-.288-.181-.725-.357-1.312-.528-.522-.16-.944-.309-1.264-.448a2.314 2.314 0 01-.8-.64c-.224-.288-.336-.656-.336-1.104 0-.373.107-.725.32-1.056.224-.331.528-.597.912-.8a2.863 2.863 0 011.328-.304c.523 0 .998.101 1.424.304.438.203.79.448 1.056.736l-.8.8a1.963 1.963 0 00-.704-.56 1.974 1.974 0 00-.976-.24c-.426 0-.773.112-1.04.336-.266.224-.4.485-.4.784a.83.83 0 00.416.752c.278.16.71.325 1.296.496.523.16.944.315 1.264.464.331.149.608.373.832.672.235.288.352.667.352 1.136 0 .427-.112.816-.336 1.168-.224.352-.549.635-.976.848-.426.203-.922.304-1.488.304-.629 0-1.184-.128-1.664-.384-.48-.267-.858-.592-1.136-.976l.8-.8z"/>
    <g>
      <rect width="32" height="32" x="71" y="347" fill="#F3F0FF" rx="16"/>
      <path fill="#7554F7" d="M85.045 354.666a1.463 1.463 0 01.815 1.902 1.464 1.464 0 01-1.9.821 1.463 1.463 0 01-.815-1.902 1.464 1.464 0 011.9-.821zM90.514 368.611a1.463 1.463 0 01.815 1.902 1.464 1.464 0 01-1.9.821 1.463 1.463 0 01-.815-1.902 1.464 1.464 0 011.9-.821zM95.36 360.894a1.463 1.463 0 00-.815-1.902c-.75-.299-1.6.069-1.9.82-.3.752.066 1.604.815 1.902.75.299 1.6-.068 1.9-.82zM80.567 364.463a1.464 1.464 0 01.815 1.902 1.464 1.464 0 01-1.9.821 1.463 1.463 0 01-.815-1.902 1.464 1.464 0 011.9-.821zM84.948 364.455a.943.943 0 00-.21-.559l-1.557-1.919a.945.945 0 01.695-1.54l2.231-.09a.95.95 0 00.533-.191l1.826-1.384a.945.945 0 011.513.684l.182 2.456a.942.942 0 00.188.499l1.106 1.468a.945.945 0 01-.683 1.511l-2.092.159a.947.947 0 00-.525.21l-1.592 1.298a.945.945 0 01-1.542-.696l-.073-1.906z"/>
      <path fill="#25272E" d="M126.44 365.84c-.512.651-1.179 1.2-2 1.648-.821.448-1.728.672-2.72.672a5.684 5.684 0 01-2.896-.768 5.651 5.651 0 01-2.096-2.096 5.684 5.684 0 01-.768-2.896c0-1.045.256-2.011.768-2.896a5.651 5.651 0 012.096-2.096 5.684 5.684 0 012.896-.768c.992 0 1.883.224 2.672.672.789.448 1.419.997 1.888 1.648l-.8.72c-.373-.533-.885-.987-1.536-1.36-.64-.373-1.381-.56-2.224-.56-.843 0-1.611.203-2.304.608a4.447 4.447 0 00-1.648 1.68 4.632 4.632 0 00-.608 2.352c0 .864.203 1.653.608 2.368a4.483 4.483 0 003.952 2.272c.789 0 1.488-.144 2.096-.432.608-.299 1.083-.661 1.424-1.088v-2.16h-2.56v-1.12h3.76v3.6zm9.039 1.008c-.342.363-.79.672-1.344.928a4.38 4.38 0 01-1.856.384 3.717 3.717 0 01-1.92-.528 4.094 4.094 0 01-1.408-1.456 4.04 4.04 0 01-.512-2.016c0-.725.17-1.392.512-2a3.969 3.969 0 011.392-1.456 3.417 3.417 0 011.856-.544 3.64 3.64 0 011.872.496 3.51 3.51 0 011.328 1.376c.32.576.48 1.232.48 1.968 0 .203-.027.395-.08.576l-6.24-.016c.021.448.16.869.416 1.264s.586.709.992.944c.405.235.842.352 1.312.352.533 0 1.013-.096 1.44-.288a3.318 3.318 0 001.04-.704l.72.72zm-.72-3.248c-.086-.693-.368-1.264-.848-1.712a2.358 2.358 0 00-1.712-.688c-.438 0-.848.112-1.232.336a2.803 2.803 0 00-.96.88 2.667 2.667 0 00-.448 1.184h5.2zm2.315-3.28h1.44v-2.56h1.12v2.56h2.08v1.04h-2.08v4.56c0 .384.085.656.256.816.181.149.442.224.784.224h1.04V368h-1.088c-.672 0-1.195-.171-1.568-.512-.363-.341-.544-.864-.544-1.568v-4.56h-1.44v-1.04zm14.799 6.64c-.245.331-.581.613-1.008.848-.427.235-.917.352-1.472.352a3.01 3.01 0 01-1.392-.32 2.59 2.59 0 01-.976-.832 1.936 1.936 0 01-.352-1.088c0-.651.192-1.184.576-1.6.395-.416.949-.656 1.664-.72l2.96-.256c0-.373-.085-.725-.256-1.056a1.885 1.885 0 00-.688-.784 1.652 1.652 0 00-.976-.304 4.46 4.46 0 00-1.232.16c-.373.107-.683.24-.928.4l-.72-.72c.32-.245.731-.453 1.232-.624a5.077 5.077 0 011.648-.256c.576 0 1.093.133 1.552.4.469.256.832.608 1.088 1.056.267.448.4.949.4 1.504V368h-1.12v-1.04zm-2.64-2.4c-.469.043-.827.187-1.072.432a1.26 1.26 0 00-.368.928c0 .341.139.629.416.864.288.224.683.336 1.184.336.747 0 1.344-.203 1.792-.608.459-.416.688-.992.688-1.728v-.48l-2.64.256zm10.558-3.2c.202-.331.506-.613.912-.848.416-.235.912-.352 1.488-.352h.48v1.12h-.48c-.427 0-.827.101-1.2.304a2.323 2.323 0 00-.88.88c-.214.373-.32.805-.32 1.296V368h-1.12v-7.68h1.12v1.04zm10.719 5.488c-.341.363-.789.672-1.344.928a4.377 4.377 0 01-1.856.384 3.717 3.717 0 01-1.92-.528 4.094 4.094 0 01-1.408-1.456 4.05 4.05 0 01-.512-2.016c0-.725.171-1.392.512-2a3.969 3.969 0 011.392-1.456 3.42 3.42 0 011.856-.544c.683 0 1.307.165 1.872.496a3.51 3.51 0 011.328 1.376c.32.576.48 1.232.48 1.968 0 .203-.027.395-.08.576l-6.24-.016c.021.448.16.869.416 1.264a2.9 2.9 0 00.992.944c.405.235.843.352 1.312.352.533 0 1.013-.096 1.44-.288a3.306 3.306 0 001.04-.704l.72.72zm-.72-3.248c-.085-.693-.368-1.264-.848-1.712a2.356 2.356 0 00-1.712-.688c-.437 0-.848.112-1.232.336a2.803 2.803 0 00-.96.88 2.68 2.68 0 00-.448 1.184h5.2zm9.595 2.96a4.611 4.611 0 01-1.392 1.136 3.654 3.654 0 01-1.808.464 3.717 3.717 0 01-1.92-.528 4.094 4.094 0 01-1.408-1.456 4.05 4.05 0 01-.512-2.016c0-.736.171-1.408.512-2.016a3.961 3.961 0 011.408-1.44 3.631 3.631 0 011.92-.544c.651 0 1.248.149 1.792.448a4.16 4.16 0 011.328 1.072l-.8.8a3.162 3.162 0 00-.976-.896 2.417 2.417 0 00-1.344-.384c-.48 0-.928.133-1.344.4a2.87 2.87 0 00-1.008 1.072 3.05 3.05 0 00-.368 1.488c0 .544.123 1.045.368 1.504.256.448.592.805 1.008 1.072.416.256.864.384 1.344.384.501 0 .96-.123 1.376-.368a3.7 3.7 0 001.024-.912l.8.72zm4.958 1.6a3.804 3.804 0 01-1.968-.528 4.056 4.056 0 01-1.424-1.456 3.951 3.951 0 01-.528-2.016c0-.736.176-1.408.528-2.016a3.926 3.926 0 011.424-1.44 3.716 3.716 0 011.968-.544c.715 0 1.371.181 1.968.544a3.926 3.926 0 011.424 1.44c.352.608.528 1.28.528 2.016s-.176 1.408-.528 2.016a4.056 4.056 0 01-1.424 1.456 3.804 3.804 0 01-1.968.528zm0-1.04c.501 0 .965-.128 1.392-.384a2.992 2.992 0 001.408-2.576c0-.544-.128-1.04-.384-1.488a2.825 2.825 0 00-1.024-1.072 2.576 2.576 0 00-1.392-.4c-.501 0-.965.133-1.392.4a2.825 2.825 0 00-1.024 1.072 2.946 2.946 0 00-.384 1.488 2.992 2.992 0 001.408 2.576c.427.256.891.384 1.392.384zm7.041-5.84c.203-.309.486-.571.848-.784.374-.224.811-.336 1.312-.336.598 0 1.11.133 1.536.4.427.256.742.576.944.96.224-.384.56-.704 1.008-.96.459-.267 1.003-.4 1.632-.4.875 0 1.584.288 2.128.864.555.576.832 1.381.832 2.416V368h-1.12v-4.56c0-.715-.176-1.264-.528-1.648-.352-.395-.816-.592-1.392-.592-.373 0-.72.107-1.04.32-.32.203-.576.501-.768.896-.181.384-.272.832-.272 1.344V368h-1.12v-4.56c0-.704-.176-1.253-.528-1.648-.352-.395-.816-.592-1.392-.592-.373 0-.72.107-1.04.32-.32.203-.576.501-.768.896-.181.384-.272.832-.272 1.344V368h-1.12v-7.68h1.12v.96zm13.922 0c.203-.309.486-.571.848-.784.374-.224.811-.336 1.312-.336.598 0 1.11.133 1.536.4.427.256.742.576.944.96.224-.384.56-.704 1.008-.96.459-.267 1.003-.4 1.632-.4.875 0 1.584.288 2.128.864.555.576.832 1.381.832 2.416V368h-1.12v-4.56c0-.715-.176-1.264-.528-1.648-.352-.395-.816-.592-1.392-.592-.373 0-.72.107-1.04.32-.32.203-.576.501-.768.896-.181.384-.272.832-.272 1.344V368h-1.12v-4.56c0-.704-.176-1.253-.528-1.648-.352-.395-.816-.592-1.392-.592-.373 0-.72.107-1.04.32-.32.203-.576.501-.768.896-.181.384-.272.832-.272 1.344V368h-1.12v-7.68h1.12v.96zm19.282 5.568c-.341.363-.789.672-1.344.928a4.377 4.377 0 01-1.856.384 3.717 3.717 0 01-1.92-.528 4.094 4.094 0 01-1.408-1.456 4.05 4.05 0 01-.512-2.016c0-.725.171-1.392.512-2a3.969 3.969 0 011.392-1.456 3.42 3.42 0 011.856-.544c.683 0 1.307.165 1.872.496a3.51 3.51 0 011.328 1.376c.32.576.48 1.232.48 1.968 0 .203-.027.395-.08.576l-6.24-.016c.021.448.16.869.416 1.264a2.9 2.9 0 00.992.944c.405.235.843.352 1.312.352.533 0 1.013-.096 1.44-.288a3.306 3.306 0 001.04-.704l.72.72zm-.72-3.248c-.085-.693-.368-1.264-.848-1.712a2.356 2.356 0 00-1.712-.688c-.437 0-.848.112-1.232.336a2.803 2.803 0 00-.96.88 2.68 2.68 0 00-.448 1.184h5.2zm4.235-2.16a3.052 3.052 0 011.008-.896c.427-.256.917-.384 1.472-.384.608 0 1.147.133 1.616.4.48.267.848.651 1.104 1.152.267.491.4 1.067.4 1.728V368h-1.12v-4.56c0-.672-.197-1.211-.592-1.616-.384-.416-.88-.624-1.488-.624-.448 0-.859.112-1.232.336a2.32 2.32 0 00-.864.896c-.203.384-.304.827-.304 1.328V368h-1.12v-7.68h1.12v1.12zm14.001 5.44c-.266.352-.629.656-1.088.912a3.24 3.24 0 01-1.552.368 3.641 3.641 0 01-1.888-.512 3.886 3.886 0 01-1.376-1.44c-.33-.608-.496-1.291-.496-2.048 0-.757.166-1.44.496-2.048a3.76 3.76 0 011.376-1.424 3.555 3.555 0 011.888-.528c.576 0 1.094.128 1.552.384.459.245.822.544 1.088.896v-4.64h1.12V368h-1.12v-1.12zm-2.64.24c.448 0 .875-.128 1.28-.384.416-.267.747-.624.992-1.072.246-.459.368-.96.368-1.504a3.04 3.04 0 00-.368-1.488 2.748 2.748 0 00-.992-1.072 2.289 2.289 0 00-1.28-.4c-.48 0-.922.128-1.328.384a2.591 2.591 0 00-.96 1.04c-.234.448-.352.96-.352 1.536 0 .576.118 1.088.352 1.536.235.448.555.8.96 1.056.406.245.848.368 1.328.368zm12.874-.272c-.341.363-.789.672-1.344.928a4.377 4.377 0 01-1.856.384 3.717 3.717 0 01-1.92-.528 4.094 4.094 0 01-1.408-1.456 4.05 4.05 0 01-.512-2.016c0-.725.171-1.392.512-2a3.969 3.969 0 011.392-1.456 3.42 3.42 0 011.856-.544c.683 0 1.307.165 1.872.496a3.51 3.51 0 011.328 1.376c.32.576.48 1.232.48 1.968 0 .203-.027.395-.08.576l-6.24-.016c.021.448.16.869.416 1.264a2.9 2.9 0 00.992.944c.405.235.843.352 1.312.352.533 0 1.013-.096 1.44-.288a3.306 3.306 0 001.04-.704l.72.72zm-.72-3.248c-.085-.693-.368-1.264-.848-1.712a2.356 2.356 0 00-1.712-.688c-.437 0-.848.112-1.232.336a2.803 2.803 0 00-.96.88 2.68 2.68 0 00-.448 1.184h5.2zm8.955 3.28c-.267.352-.629.656-1.088.912a3.243 3.243 0 01-1.552.368 3.639 3.639 0 01-1.888-.512 3.878 3.878 0 01-1.376-1.44c-.331-.608-.496-1.291-.496-2.048 0-.757.165-1.44.496-2.048.341-.608.8-1.083 1.376-1.424a3.552 3.552 0 011.888-.528 3.13 3.13 0 011.552.384c.459.245.821.544 1.088.896v-4.64h1.12V368h-1.12v-1.12zm-2.64.24c.448 0 .875-.128 1.28-.384.416-.267.747-.624.992-1.072.245-.459.368-.96.368-1.504a3.05 3.05 0 00-.368-1.488 2.748 2.748 0 00-.992-1.072 2.289 2.289 0 00-1.28-.4c-.48 0-.923.128-1.328.384a2.591 2.591 0 00-.96 1.04c-.235.448-.352.96-.352 1.536 0 .576.117 1.088.352 1.536.235.448.555.8.96 1.056a2.52 2.52 0 001.328.368zm11.108-5.68c.266-.352.629-.651 1.088-.896a3.128 3.128 0 011.552-.384c.682 0 1.312.176 1.888.528a3.642 3.642 0 011.36 1.424c.341.608.512 1.291.512 2.048 0 .757-.171 1.44-.512 2.048a3.761 3.761 0 01-1.36 1.44 3.641 3.641 0 01-1.888.512 3.24 3.24 0 01-1.552-.368c-.459-.256-.822-.56-1.088-.912v4.48h-1.12v-11.04h1.12v1.12zm2.64 5.68c.48 0 .922-.123 1.328-.368a2.71 2.71 0 00.96-1.056c.234-.448.352-.96.352-1.536 0-.576-.118-1.088-.352-1.536a2.591 2.591 0 00-.96-1.04 2.44 2.44 0 00-1.328-.384c-.448 0-.88.133-1.296.4a2.786 2.786 0 00-.976 1.072 3.04 3.04 0 00-.368 1.488c0 .544.122 1.045.368 1.504.245.448.57.805.976 1.072a2.44 2.44 0 001.296.384zm6.955-10.32V368h-1.12v-11.2h1.12zm7.284 10.16c-.245.331-.581.613-1.008.848-.427.235-.917.352-1.472.352a3.01 3.01 0 01-1.392-.32 2.59 2.59 0 01-.976-.832 1.936 1.936 0 01-.352-1.088c0-.651.192-1.184.576-1.6.395-.416.949-.656 1.664-.72l2.96-.256c0-.373-.085-.725-.256-1.056a1.885 1.885 0 00-.688-.784 1.652 1.652 0 00-.976-.304 4.46 4.46 0 00-1.232.16c-.373.107-.683.24-.928.4l-.72-.72c.32-.245.731-.453 1.232-.624a5.077 5.077 0 011.648-.256c.576 0 1.093.133 1.552.4.469.256.832.608 1.088 1.056.267.448.4.949.4 1.504V368h-1.12v-1.04zm-2.64-2.4c-.469.043-.827.187-1.072.432a1.26 1.26 0 00-.368.928c0 .341.139.629.416.864.288.224.683.336 1.184.336.747 0 1.344-.203 1.792-.608.459-.416.688-.992.688-1.728v-.48l-2.64.256zm6.964-3.12a3.052 3.052 0 011.008-.896c.426-.256.917-.384 1.472-.384.608 0 1.146.133 1.616.4.48.267.848.651 1.104 1.152.266.491.4 1.067.4 1.728V368h-1.12v-4.56c0-.672-.198-1.211-.592-1.616-.384-.416-.88-.624-1.488-.624-.448 0-.859.112-1.232.336a2.32 2.32 0 00-.864.896c-.203.384-.304.827-.304 1.328V368h-1.12v-7.68h1.12v1.12z"/>
    </g>
    <g>
      <rect width="32" height="32" x="71" y="399" fill="#EBF2FF" rx="16"/>
      <path fill="#1169F5" d="M92.757 408.964c.436 0 .853.169 1.161.469.308.3.481.707.481 1.132v4.432a7.555 7.555 0 01-.947 3.477 7.776 7.776 0 01-2.463 2.679 12.854 12.854 0 01-3.26 1.761 1.62 1.62 0 01-.53.086 1.513 1.513 0 01-.543-.123 12.547 12.547 0 01-3.246-1.724 7.751 7.751 0 01-2.466-2.678 7.53 7.53 0 01-.945-3.478v-4.432c0-.425.173-.832.481-1.132.308-.3.726-.469 1.161-.469h.165a6.536 6.536 0 004.408-1.65 1.697 1.697 0 011.97 0 6.536 6.536 0 004.409 1.65h.164zm-.631 2.204a8.338 8.338 0 01-4.927-1.81 8.375 8.375 0 01-4.926 1.81v3.829c0 3.607 3.979 5.38 4.939 5.75.947-.382 4.914-2.155 4.914-5.75v-3.829z"/>
      <path fill="#25272E" d="M124.36 408.8v1.12h-6.48v3.68h5.2v1.12h-5.2v4.16h6.64V420h-7.84v-11.2h7.68zm3.274 4.64a3.072 3.072 0 011.008-.896c.427-.256.918-.384 1.472-.384.608 0 1.147.133 1.616.4.48.267.848.651 1.104 1.152.267.491.4 1.067.4 1.728V420h-1.12v-4.56c0-.672-.197-1.211-.592-1.616-.384-.416-.88-.624-1.488-.624-.448 0-.858.112-1.232.336-.362.213-.65.512-.864.896-.202.384-.304.827-.304 1.328V420h-1.12v-7.68h1.12v1.12zm9.282-.08c.202-.331.506-.613.912-.848.416-.235.912-.352 1.488-.352h.48v1.12h-.48c-.427 0-.827.101-1.2.304a2.323 2.323 0 00-.88.88c-.214.373-.32.805-.32 1.296V420h-1.12v-7.68h1.12v1.04zm7.599 6.8a3.804 3.804 0 01-1.968-.528 4.056 4.056 0 01-1.424-1.456 3.951 3.951 0 01-.528-2.016c0-.736.176-1.408.528-2.016a3.926 3.926 0 011.424-1.44 3.716 3.716 0 011.968-.544c.715 0 1.371.181 1.968.544a3.926 3.926 0 011.424 1.44c.352.608.528 1.28.528 2.016s-.176 1.408-.528 2.016a4.056 4.056 0 01-1.424 1.456 3.804 3.804 0 01-1.968.528zm0-1.04c.501 0 .965-.128 1.392-.384a2.992 2.992 0 001.408-2.576c0-.544-.128-1.04-.384-1.488a2.825 2.825 0 00-1.024-1.072 2.576 2.576 0 00-1.392-.4c-.501 0-.965.133-1.392.4a2.825 2.825 0 00-1.024 1.072 2.946 2.946 0 00-.384 1.488 2.992 2.992 0 001.408 2.576c.427.256.891.384 1.392.384zm7.121-10.32V420h-1.12v-11.2h1.12zm3.844 0V420h-1.12v-11.2h1.12zm6.078.96c0-.203.069-.373.208-.512a.693.693 0 01.512-.208c.202 0 .373.069.511.208a.695.695 0 01.209.512c0 .203-.07.373-.209.512a.692.692 0 01-.511.208.693.693 0 01-.512-.208.695.695 0 01-.208-.512zm1.28 2.56V420h-1.12v-7.68h1.12zm3.687 1.12a3.052 3.052 0 011.008-.896c.427-.256.917-.384 1.472-.384.608 0 1.147.133 1.616.4.48.267.848.651 1.104 1.152.267.491.4 1.067.4 1.728V420h-1.12v-4.56c0-.672-.197-1.211-.592-1.616-.384-.416-.88-.624-1.488-.624-.448 0-.859.112-1.232.336a2.32 2.32 0 00-.864.896c-.203.384-.304.827-.304 1.328V420h-1.12v-7.68h1.12v1.12zm18.235 5.12a4.611 4.611 0 01-1.392 1.136 3.654 3.654 0 01-1.808.464 3.717 3.717 0 01-1.92-.528 4.094 4.094 0 01-1.408-1.456 4.05 4.05 0 01-.512-2.016c0-.736.171-1.408.512-2.016a3.961 3.961 0 011.408-1.44 3.631 3.631 0 011.92-.544c.651 0 1.248.149 1.792.448a4.16 4.16 0 011.328 1.072l-.8.8a3.162 3.162 0 00-.976-.896 2.417 2.417 0 00-1.344-.384c-.48 0-.928.133-1.344.4a2.87 2.87 0 00-1.008 1.072 3.05 3.05 0 00-.368 1.488c0 .544.123 1.045.368 1.504.256.448.592.805 1.008 1.072.416.256.864.384 1.344.384.501 0 .96-.123 1.376-.368a3.7 3.7 0 001.024-.912l.8.72zm4.958 1.6a3.804 3.804 0 01-1.968-.528 4.056 4.056 0 01-1.424-1.456 3.951 3.951 0 01-.528-2.016c0-.736.176-1.408.528-2.016a3.926 3.926 0 011.424-1.44 3.716 3.716 0 011.968-.544c.715 0 1.371.181 1.968.544a3.926 3.926 0 011.424 1.44c.352.608.528 1.28.528 2.016s-.176 1.408-.528 2.016a4.056 4.056 0 01-1.424 1.456 3.804 3.804 0 01-1.968.528zm0-1.04c.501 0 .965-.128 1.392-.384a2.992 2.992 0 001.408-2.576c0-.544-.128-1.04-.384-1.488a2.825 2.825 0 00-1.024-1.072 2.576 2.576 0 00-1.392-.4c-.501 0-.965.133-1.392.4a2.825 2.825 0 00-1.024 1.072 2.946 2.946 0 00-.384 1.488 2.992 2.992 0 001.408 2.576c.427.256.891.384 1.392.384zm6.081-6.8l2.48 6.16 2.48-6.16h1.2l-3.12 7.68h-1.12l-3.12-7.68h1.2zm14.164 6.528c-.341.363-.789.672-1.344.928a4.377 4.377 0 01-1.856.384 3.717 3.717 0 01-1.92-.528 4.094 4.094 0 01-1.408-1.456 4.05 4.05 0 01-.512-2.016c0-.725.171-1.392.512-2a3.969 3.969 0 011.392-1.456 3.42 3.42 0 011.856-.544c.683 0 1.307.165 1.872.496a3.51 3.51 0 011.328 1.376c.32.576.48 1.232.48 1.968 0 .203-.027.395-.08.576l-6.24-.016c.021.448.16.869.416 1.264a2.9 2.9 0 00.992.944c.405.235.843.352 1.312.352.533 0 1.013-.096 1.44-.288a3.306 3.306 0 001.04-.704l.72.72zm-.72-3.248c-.085-.693-.368-1.264-.848-1.712a2.356 2.356 0 00-1.712-.688c-.437 0-.848.112-1.232.336a2.803 2.803 0 00-.96.88 2.68 2.68 0 00-.448 1.184h5.2zm4.235-2.24c.203-.331.507-.613.912-.848.416-.235.912-.352 1.488-.352h.48v1.12h-.48c-.427 0-.827.101-1.2.304a2.323 2.323 0 00-.88.88c-.213.373-.32.805-.32 1.296V420h-1.12v-7.68h1.12v1.04zm9.036 5.6c-.246.331-.582.613-1.008.848-.427.235-.918.352-1.472.352a3.01 3.01 0 01-1.392-.32 2.582 2.582 0 01-.976-.832 1.936 1.936 0 01-.352-1.088c0-.651.192-1.184.576-1.6.394-.416.949-.656 1.664-.72l2.96-.256a2.28 2.28 0 00-.256-1.056 1.892 1.892 0 00-.688-.784 1.654 1.654 0 00-.976-.304 4.46 4.46 0 00-1.232.16c-.374.107-.683.24-.928.4l-.72-.72c.32-.245.73-.453 1.232-.624a5.072 5.072 0 011.648-.256c.576 0 1.093.133 1.552.4.469.256.832.608 1.088 1.056.266.448.4.949.4 1.504V420h-1.12v-1.04zm-2.64-2.4c-.47.043-.827.187-1.072.432-.246.245-.368.555-.368.928 0 .341.138.629.416.864.288.224.682.336 1.184.336.746 0 1.344-.203 1.792-.608.458-.416.688-.992.688-1.728v-.48l-2.64.256zm6.324 4.736c.266.288.613.528 1.04.72.437.203.917.304 1.44.304.48 0 .917-.123 1.312-.368.405-.245.725-.581.96-1.008.245-.427.368-.901.368-1.424v-.88c-.224.331-.56.613-1.008.848-.438.235-.955.352-1.552.352-.662 0-1.27-.171-1.824-.512a3.698 3.698 0 01-1.296-1.392 3.978 3.978 0 01-.48-1.936c0-.704.16-1.349.48-1.936a3.698 3.698 0 011.296-1.392 3.413 3.413 0 011.824-.512c.597 0 1.114.117 1.552.352.448.235.784.517 1.008.848v-1.04h1.12v7.2c0 .704-.171 1.349-.512 1.936a3.702 3.702 0 01-1.36 1.392 3.641 3.641 0 01-1.888.512c-.704 0-1.334-.133-1.889-.4-.554-.256-.991-.571-1.311-.944l.72-.72zm2.56-2.496c.469 0 .901-.123 1.296-.368.394-.245.704-.581.928-1.008.224-.427.336-.901.336-1.424 0-.523-.112-.997-.336-1.424a2.566 2.566 0 00-.928-1.008 2.412 2.412 0 00-1.296-.368c-.448 0-.864.123-1.248.368a2.644 2.644 0 00-.896 1.008 3.016 3.016 0 00-.336 1.424c0 .523.112.997.336 1.424.224.427.522.763.896 1.008.384.245.8.368 1.248.368zm12.721.048c-.342.363-.79.672-1.344.928a4.38 4.38 0 01-1.856.384 3.717 3.717 0 01-1.92-.528 4.094 4.094 0 01-1.408-1.456 4.04 4.04 0 01-.512-2.016c0-.725.17-1.392.512-2a3.969 3.969 0 011.392-1.456 3.417 3.417 0 011.856-.544 3.64 3.64 0 011.872.496 3.51 3.51 0 011.328 1.376c.32.576.48 1.232.48 1.968 0 .203-.027.395-.08.576l-6.24-.016c.021.448.16.869.416 1.264s.586.709.992.944c.405.235.842.352 1.312.352.533 0 1.013-.096 1.44-.288a3.318 3.318 0 001.04-.704l.72.72zm-.72-3.248c-.086-.693-.368-1.264-.848-1.712a2.358 2.358 0 00-1.712-.688c-.438 0-.848.112-1.232.336a2.803 2.803 0 00-.96.88 2.667 2.667 0 00-.448 1.184h5.2z"/>
    </g>
    <g>
      <path fill="#E4F0F0" d="M157.22 158.591c1.194-1.193 2.86-2.123 4.991-2.755 2.637-.788 5.46-.509 8.404.813 5.319 2.399 7.397 5.879 6.733 11.301-.263 2.15-1.225 3.965-2.218 5.606a.312.312 0 01-.091.09c-.007.02-.026.039-.046.059l-.408.408c-.292.292-.578.591-.883.87-1.725 1.609-3.799 2.39-6.169 2.33-5.854-.171-10.6-3.969-12.098-9.685-1.003-3.818-.382-6.87 1.785-9.037zM193.48 143.865c.735-.735 1.761-1.307 3.074-1.697 1.625-.486 3.364-.313 5.177.501 3.276 1.478 4.556 3.621 4.147 6.96-.162 1.325-.754 2.443-1.367 3.453a.187.187 0 01-.056.056.11.11 0 01-.028.036l-.251.252c-.18.18-.356.363-.544.535-1.063.992-2.34 1.473-3.8 1.435-3.605-.104-6.529-2.444-7.451-5.965-.618-2.352-.236-4.231 1.099-5.566z"/>
      <path fill="#FFDFC9" d="M168.095 142.943v2.074c0 1.087.881 1.969 1.969 1.969h.577a1.97 1.97 0 001.969-1.969v-2.074a1.969 1.969 0 00-1.969-1.968h-.577a1.968 1.968 0 00-1.969 1.968zM177.532 142.943v2.074c0 1.087.881 1.969 1.969 1.969h.577a1.97 1.97 0 001.969-1.969v-2.074a1.969 1.969 0 00-1.969-1.968h-.577a1.968 1.968 0 00-1.969 1.968zM202.364 193.027a5.42 5.42 0 100-10.841 5.42 5.42 0 000 10.841z"/>
      <path fill="#FFC499" d="M208.52 152.891h-3.701v-3.702h-4.922v3.702h-3.701v4.922h3.701v3.701h4.922v-3.701h3.701v-4.922z"/>
      <g>
        <path fill="#25272E" d="M204.058 187.608a1.693 1.693 0 11-3.386 0 1.693 1.693 0 013.386 0z"/>
        <path fill="#25272E" d="M170.064 148.167a3.15 3.15 0 01-3.15-3.15v-.112a4.25 4.25 0 00-4.043 5.5l4.887 15.946a7.83 7.83 0 007.479 5.618 7.839 7.839 0 007.53-5.549l.001-.002 4.908-16.012.002-.005a4.233 4.233 0 00-1.044-4.241 4.239 4.239 0 00-3.406-1.22v.077a3.15 3.15 0 01-3.15 3.15h-.577a3.15 3.15 0 01-3.15-3.15v-2.074a3.15 3.15 0 013.15-3.15h.577a3.15 3.15 0 013.128 2.779 6.583 6.583 0 016.834 4.998 6.593 6.593 0 01-.105 3.53l-.001.003-4.907 16.006-.001.002a10.202 10.202 0 01-8.57 7.151v11.991a5.615 5.615 0 005.591 5.593 5.617 5.617 0 005.591-5.593v-9.4a7.97 7.97 0 017.952-7.936h.007a7.976 7.976 0 015.606 2.332 7.977 7.977 0 012.343 5.602V181.11a6.602 6.602 0 11-2.363 0v-4.249a5.616 5.616 0 00-5.592-5.581 5.6 5.6 0 00-5.59 5.58v9.4a7.98 7.98 0 01-7.949 7.949h-.009a7.979 7.979 0 01-7.95-7.949V174.263a10.2 10.2 0 01-8.6-7.237l-4.88-15.928a6.619 6.619 0 011.456-6.42 6.615 6.615 0 014.87-2.136 3.151 3.151 0 013.125-2.749h.577a3.15 3.15 0 013.15 3.15v2.074a3.15 3.15 0 01-3.15 3.15h-.577zm-.788-3.15c0 .435.353.787.788.787h.577a.787.787 0 00.788-.787v-2.074a.788.788 0 00-.788-.788h-.577a.788.788 0 00-.788.788v2.074zm9.437 0c0 .435.353.787.788.787h.577a.787.787 0 00.788-.787v-2.074a.788.788 0 00-.788-.788h-.577a.788.788 0 00-.788.788v2.074zm19.412 42.59a4.24 4.24 0 108.478 0 4.24 4.24 0 00-8.478 0z"/>
        <path fill="#25272E" d="M198.716 148.008H206v3.702h3.701v7.284H206v3.701h-7.284v-3.701h-3.701v-7.284h3.701v-3.702zm2.362 2.363v3.701h-3.701v2.559h3.701v3.702h2.56v-3.702h3.701v-2.559h-3.701v-3.701h-2.56z"/>
      </g>
    </g>
    <path fill="#25272E" d="M80.609 230.4v7.7h8.4v-7.7h4.2V250h-4.2v-7.98h-8.4V250h-4.2v-19.6h4.2zm29.267 18.284c-.634.448-1.465.831-2.492 1.148-1.026.299-2.156.448-3.388.448a7.31 7.31 0 01-3.668-.952 7.409 7.409 0 01-2.66-2.604 7.055 7.055 0 01-.952-3.584c0-1.288.318-2.473.952-3.556a7.261 7.261 0 012.604-2.604 6.905 6.905 0 013.584-.98c1.232 0 2.371.308 3.416.924a6.801 6.801 0 012.52 2.52 6.608 6.608 0 01.924 3.416 9.2 9.2 0 01-.14 1.68h-9.94c.224.691.635 1.26 1.232 1.708.616.448 1.419.672 2.408.672.784 0 1.484-.084 2.1-.252.635-.187 1.148-.401 1.54-.644l1.96 2.66zm-3.08-6.944a3.548 3.548 0 00-1.176-1.68 2.822 2.822 0 00-1.904-.7 2.93 2.93 0 00-1.932.7 3.629 3.629 0 00-1.148 1.68h6.16zm14.289 6.58c-.429.541-.999 1.008-1.708 1.4-.691.373-1.475.56-2.352.56-1.251 0-2.268-.364-3.052-1.092-.765-.747-1.148-1.689-1.148-2.828 0-1.157.364-2.147 1.092-2.968.747-.821 1.736-1.297 2.968-1.428l4.34-.42c-.075-.56-.327-1.064-.756-1.512-.429-.448-.971-.672-1.624-.672-.635 0-1.223.075-1.764.224-.541.131-.98.289-1.316.476l-2.24-2.24c.597-.504 1.381-.933 2.352-1.288.971-.355 2.053-.532 3.248-.532 1.139 0 2.156.243 3.052.728.896.467 1.587 1.12 2.072 1.96.504.821.756 1.745.756 2.772V250h-3.78v-1.68h-.14zm-2.94-4.004c-.467.019-.84.177-1.12.476-.28.299-.42.635-.42 1.008 0 .429.14.775.42 1.036.299.243.719.364 1.26.364.877 0 1.587-.233 2.128-.7.541-.467.812-1.139.812-2.016v-.28l-3.08.112zm14.011-13.916V250h-3.78v-19.6h3.78zm2.531 6.16h2.38v-4.2h3.78v4.2h3.36v3.5h-3.36v4.732c0 .616.159 1.073.476 1.372.317.299.765.448 1.344.448h1.54V250h-2.52c-1.437 0-2.567-.401-3.388-1.204-.821-.803-1.232-1.988-1.232-3.556v-5.18h-2.38v-3.5zm16.391 1.68h.14a5.637 5.637 0 011.68-1.568 4.365 4.365 0 012.38-.672c.933 0 1.783.243 2.548.728.765.467 1.372 1.139 1.82 2.016.448.859.672 1.857.672 2.996V250h-3.78v-7.7c0-.84-.224-1.493-.672-1.96-.448-.467-1.064-.7-1.848-.7-.84 0-1.54.289-2.1.868s-.84 1.316-.84 2.212V250h-3.78v-19.6h3.78v7.84zm24.222-7.84V250h-4.2v-19.6h4.2zm8.122 7.84h.14a5.66 5.66 0 011.68-1.568 4.367 4.367 0 012.38-.672 4.66 4.66 0 012.548.728c.766.467 1.372 1.139 1.82 2.016.448.859.672 1.857.672 2.996V250h-3.78v-7.7c0-.84-.224-1.493-.672-1.96-.448-.467-1.064-.7-1.848-.7-.84 0-1.54.289-2.1.868s-.84 1.316-.84 2.212V250h-3.78v-13.72h3.78v1.96zm13.713 7.14c.429.429.961.793 1.596 1.092a4.733 4.733 0 002.044.448c1.12 0 1.68-.327 1.68-.98 0-.261-.178-.476-.532-.644-.336-.187-.878-.401-1.624-.644a27.844 27.844 0 01-2.436-.952 5.297 5.297 0 01-1.708-1.316c-.467-.579-.7-1.307-.7-2.184 0-.765.214-1.465.644-2.1.429-.635 1.054-1.139 1.876-1.512.84-.392 1.82-.588 2.94-.588 1.138 0 2.165.205 3.08.616.933.411 1.68.905 2.24 1.484l-2.24 2.38c-.336-.317-.775-.579-1.316-.784a4.573 4.573 0 00-1.764-.336c-.467 0-.822.084-1.064.252-.224.168-.336.364-.336.588 0 .261.168.485.504.672.354.168.905.373 1.652.616.97.336 1.782.663 2.436.98a4.592 4.592 0 011.68 1.316c.485.56.728 1.279.728 2.156 0 .803-.224 1.54-.672 2.212-.43.653-1.083 1.176-1.96 1.568-.859.373-1.895.56-3.108.56-1.232 0-2.362-.243-3.388-.728-1.027-.485-1.858-1.083-2.492-1.792l2.24-2.38zm15.682-1.4c0 .84.224 1.493.672 1.96.448.467 1.064.7 1.848.7.84 0 1.54-.289 2.1-.868s.84-1.316.84-2.212v-7.28h3.78V250h-3.78v-1.96h-.14c-.43.616-.999 1.148-1.708 1.596-.691.429-1.475.644-2.352.644a4.793 4.793 0 01-2.548-.7c-.766-.485-1.372-1.157-1.82-2.016-.448-.877-.672-1.885-.672-3.024v-8.26h3.78v7.7zm16.652-6.16h.14c.261-.429.681-.793 1.26-1.092.579-.299 1.307-.448 2.184-.448h.896v3.64h-1.26c-.933 0-1.708.336-2.324 1.008-.597.653-.896 1.531-.896 2.632V250h-3.78v-13.72h3.78v1.54zm14.417 10.5c-.429.541-.999 1.008-1.708 1.4-.691.373-1.475.56-2.352.56-1.251 0-2.268-.364-3.052-1.092-.765-.747-1.148-1.689-1.148-2.828 0-1.157.364-2.147 1.092-2.968.747-.821 1.736-1.297 2.968-1.428l4.34-.42c-.075-.56-.327-1.064-.756-1.512-.429-.448-.971-.672-1.624-.672-.635 0-1.223.075-1.764.224-.541.131-.98.289-1.316.476l-2.24-2.24c.597-.504 1.381-.933 2.352-1.288.971-.355 2.053-.532 3.248-.532 1.139 0 2.156.243 3.052.728.896.467 1.587 1.12 2.072 1.96.504.821.756 1.745.756 2.772V250h-3.78v-1.68h-.14zm-2.94-4.004c-.467.019-.84.177-1.12.476-.28.299-.42.635-.42 1.008 0 .429.14.775.42 1.036.299.243.719.364 1.26.364.877 0 1.587-.233 2.128-.7.541-.467.812-1.139.812-2.016v-.28l-3.08.112zm13.871-6.076h.14a5.637 5.637 0 011.68-1.568 4.362 4.362 0 012.38-.672c.933 0 1.782.243 2.548.728.765.467 1.372 1.139 1.82 2.016.448.859.672 1.857.672 2.996V250h-3.78v-7.7c0-.84-.224-1.493-.672-1.96-.448-.467-1.064-.7-1.848-.7-.84 0-1.54.289-2.1.868s-.84 1.316-.84 2.212V250h-3.78v-13.72h3.78v1.96zm25.052 9.24c-.56.784-1.335 1.447-2.324 1.988-.989.541-2.128.812-3.416.812a7.31 7.31 0 01-3.668-.952 7.404 7.404 0 01-2.66-2.604 7.051 7.051 0 01-.952-3.584c0-1.288.317-2.473.952-3.556a7.125 7.125 0 012.66-2.604 7.155 7.155 0 013.668-.98c1.288 0 2.427.271 3.416.812.989.541 1.764 1.204 2.324 1.988l-2.38 2.38c-.373-.467-.859-.859-1.456-1.176a3.724 3.724 0 00-1.904-.504c-.989 0-1.82.345-2.492 1.036-.672.691-1.008 1.559-1.008 2.604 0 1.045.336 1.913 1.008 2.604.672.691 1.503 1.036 2.492 1.036.691 0 1.325-.159 1.904-.476.597-.336 1.083-.737 1.456-1.204l2.38 2.38zm14.414 1.204c-.635.448-1.466.831-2.492 1.148-1.027.299-2.156.448-3.388.448a7.308 7.308 0 01-3.668-.952 7.404 7.404 0 01-2.66-2.604 7.051 7.051 0 01-.952-3.584c0-1.288.317-2.473.952-3.556a7.254 7.254 0 012.604-2.604 6.903 6.903 0 013.584-.98 6.61 6.61 0 013.416.924 6.801 6.801 0 012.52 2.52 6.608 6.608 0 01.924 3.416c0 .616-.047 1.176-.14 1.68h-9.94c.224.691.634 1.26 1.232 1.708.616.448 1.418.672 2.408.672.784 0 1.484-.084 2.1-.252.634-.187 1.148-.401 1.54-.644l1.96 2.66zm-3.08-6.944a3.548 3.548 0 00-1.176-1.68 2.824 2.824 0 00-1.904-.7 2.93 2.93 0 00-1.932.7 3.621 3.621 0 00-1.148 1.68h6.16z"/>
  </g>
  <defs>
    <linearGradient id="paint0_linear" x1="187.5" x2="187.5" y1="-39.214" y2="350" gradientUnits="userSpaceOnUse">
      <stop stop-color="#E4F0F0"/>
      <stop offset="1" stop-color="#FFF9F5" stop-opacity=".08"/>
    </linearGradient>
    <filter id="filter0_b" width="407" height="120" x="-16" y="-16" color-interpolation-filters="sRGB" filterUnits="userSpaceOnUse">
      <feFlood flood-opacity="0" result="BackgroundImageFix"/>
      <feGaussianBlur in="BackgroundImage" stdDeviation="8"/>
      <feComposite in2="SourceAlpha" operator="in" result="effect1_backgroundBlur"/>
      <feBlend in="SourceGraphic" in2="effect1_backgroundBlur" result="shape"/>
    </filter>
  </defs>
</svg>
