<svg xmlns="http://www.w3.org/2000/svg" width="375" height="812" fill="none" viewBox="0 0 375 812">
  <g clip-path="url(#clip0)">
    <path fill="#fff" d="M0 0h375v812H0z"/>
    <path fill="url(#paint0_linear)" d="M0 98h375v592H0z"/>
    <path fill="#25272E" d="M20.8 510v11.2h6.5v2.8h-9.5v-14h3zm16.804 13.06c-.453.32-1.047.593-1.78.82-.733.213-1.54.32-2.42.32-.947 0-1.82-.227-2.62-.68a5.3 5.3 0 01-1.9-1.86 5.04 5.04 0 01-.68-2.56c0-.92.227-1.767.68-2.54a5.176 5.176 0 011.86-1.86c.787-.467 1.64-.7 2.56-.7.88 0 1.693.22 2.44.66.76.44 1.36 1.04 1.8 1.8.44.747.66 1.56.66 2.44 0 .44-.033.84-.1 1.2h-7.1c.16.493.453.9.88 1.22.44.32 1.013.48 1.72.48.56 0 1.06-.06 1.5-.18.453-.133.82-.287 1.1-.46l1.4 1.9zm-2.2-4.96c-.16-.48-.44-.88-.84-1.2a2.02 2.02 0 00-1.36-.5c-.52 0-.98.167-1.38.5-.387.32-.66.72-.82 1.2h4.4zm3.906-3.7h1.7v-3h2.7v3h2.4v2.5h-2.4v3.38c0 .44.114.767.34.98.227.213.547.32.96.32h1.1V524h-1.8c-1.027 0-1.833-.287-2.42-.86s-.88-1.42-.88-2.54v-3.7h-1.7v-2.5zm12.408-3.5l-2.8 4.3-1.6-.9 2.1-4.7 2.3 1.3zm2.295 9.8c.307.307.687.567 1.14.78.454.213.94.32 1.46.32.8 0 1.2-.233 1.2-.7 0-.187-.126-.34-.38-.46-.24-.133-.626-.287-1.16-.46a20.116 20.116 0 01-1.74-.68 3.798 3.798 0 01-1.22-.94c-.333-.413-.5-.933-.5-1.56 0-.547.154-1.047.46-1.5.307-.453.754-.813 1.34-1.08.6-.28 1.3-.42 2.1-.42.814 0 1.547.147 2.2.44.667.293 1.2.647 1.6 1.06l-1.6 1.7c-.24-.227-.553-.413-.94-.56a3.263 3.263 0 00-1.26-.24c-.333 0-.586.06-.76.18-.16.12-.24.26-.24.42 0 .187.12.347.36.48.254.12.647.267 1.18.44.694.24 1.274.473 1.74.7.467.213.867.527 1.2.94.347.4.52.913.52 1.54 0 .573-.16 1.1-.48 1.58-.306.467-.773.84-1.4 1.12-.613.267-1.353.4-2.22.4-.88 0-1.686-.173-2.42-.52-.733-.347-1.326-.773-1.78-1.28l1.6-1.7zm13.711 0a3.99 3.99 0 001.14.78c.454.213.94.32 1.46.32.8 0 1.2-.233 1.2-.7 0-.187-.126-.34-.38-.46-.24-.133-.626-.287-1.16-.46a20.142 20.142 0 01-1.74-.68 3.8 3.8 0 01-1.22-.94c-.333-.413-.5-.933-.5-1.56 0-.547.154-1.047.46-1.5.307-.453.754-.813 1.34-1.08.6-.28 1.3-.42 2.1-.42.814 0 1.547.147 2.2.44.667.293 1.2.647 1.6 1.06l-1.6 1.7c-.24-.227-.553-.413-.94-.56a3.263 3.263 0 00-1.26-.24c-.333 0-.586.06-.76.18-.16.12-.24.26-.24.42 0 .187.12.347.36.48.254.12.647.267 1.18.44.694.24 1.274.473 1.74.7.467.213.867.527 1.2.94.347.4.52.913.52 1.54 0 .573-.16 1.1-.48 1.58-.306.467-.773.84-1.4 1.12-.613.267-1.353.4-2.22.4-.88 0-1.686-.173-2.42-.52-.733-.347-1.326-.773-1.78-1.28l1.6-1.7zm7.602-6.3h1.7v-3h2.7v3h2.4v2.5h-2.4v3.38c0 .44.113.767.34.98.226.213.546.32.96.32h1.1V524h-1.8c-1.027 0-1.834-.287-2.42-.86-.587-.573-.88-1.42-.88-2.54v-3.7h-1.7v-2.5zm14.112 8.4c-.306.387-.713.72-1.22 1-.493.267-1.053.4-1.68.4-.893 0-1.62-.26-2.18-.78-.546-.533-.82-1.207-.82-2.02 0-.827.26-1.533.78-2.12.534-.587 1.24-.927 2.12-1.02l3.1-.3c-.053-.4-.233-.76-.54-1.08-.306-.32-.693-.48-1.16-.48a4.71 4.71 0 00-1.26.16 3.79 3.79 0 00-.94.34l-1.6-1.6c.427-.36.987-.667 1.68-.92.694-.253 1.467-.38 2.32-.38.814 0 1.54.173 2.18.52.64.333 1.134.8 1.48 1.4.36.587.54 1.247.54 1.98v6.1h-2.7v-1.2h-.1zm-2.1-2.86c-.333.013-.6.127-.8.34-.2.213-.3.453-.3.72 0 .307.1.553.3.74.214.173.514.26.9.26.627 0 1.134-.167 1.52-.5.387-.333.58-.813.58-1.44v-.2l-2.2.08zm9.908-4.64h.1c.187-.307.487-.567.9-.78.413-.213.933-.32 1.56-.32h.64v2.6h-.9c-.667 0-1.22.24-1.66.72-.427.467-.64 1.093-.64 1.88v4.6h-2.7v-9.8h2.7v1.1zm3.998-.9h1.7v-3h2.7v3h2.4v2.5h-2.4v3.38c0 .44.113.767.34.98.226.213.546.32.96.32h1.1V524h-1.8c-1.027 0-1.834-.287-2.42-.86-.587-.573-.88-1.42-.88-2.54v-3.7h-1.7v-2.5zm14.626-.2l1.8 5.8h.1l1.9-5.8h2.2l1.9 5.8h.1l1.8-5.8h2.9l-3.44 9.8h-2.46l-1.86-5.7h-.08l-1.86 5.7h-2.46l-3.44-9.8h2.9zm13.691-2.8c0-.4.153-.747.46-1.04a1.5 1.5 0 011.1-.46c.413 0 .773.153 1.08.46.307.293.46.64.46 1.04s-.153.753-.46 1.06c-.307.293-.673.44-1.1.44-.413 0-.773-.147-1.08-.44-.307-.307-.46-.66-.46-1.06zm2.9 2.8v9.8h-2.7v-9.8h2.7zm1.693.2h1.7v-3h2.7v3h2.4v2.5h-2.4v3.38c0 .44.113.767.34.98.227.213.547.32.96.32h1.1V524h-1.8c-1.027 0-1.833-.287-2.42-.86s-.88-1.42-.88-2.54v-3.7h-1.7v-2.5zm11.708 1.2h.1c.306-.44.706-.813 1.2-1.12a3.115 3.115 0 011.7-.48c.666 0 1.273.173 1.82.52.546.333.98.813 1.3 1.44.32.613.48 1.327.48 2.14v5.9h-2.7v-5.5c0-.6-.16-1.067-.48-1.4-.32-.333-.76-.5-1.32-.5-.6 0-1.1.207-1.5.62-.4.413-.6.94-.6 1.58v5.2h-2.7v-14h2.7v5.6zm12.901-1.2h1.7v-3h2.7v3h2.4v2.5h-2.4v3.38c0 .44.114.767.34.98.227.213.547.32.96.32h1.1V524h-1.8c-1.026 0-1.833-.287-2.42-.86-.586-.573-.88-1.42-.88-2.54v-3.7h-1.7v-2.5zm11.708 1.2h.1c.307-.44.707-.813 1.2-1.12a3.118 3.118 0 011.7-.48c.667 0 1.273.173 1.82.52.547.333.98.813 1.3 1.44.32.613.48 1.327.48 2.14v5.9h-2.7v-5.5c0-.6-.16-1.067-.48-1.4-.32-.333-.76-.5-1.32-.5-.6 0-1.1.207-1.5.62-.4.413-.6.94-.6 1.58v5.2h-2.7v-14h2.7v5.6zm17.992 7.46c-.453.32-1.046.593-1.78.82-.733.213-1.54.32-2.42.32-.946 0-1.82-.227-2.62-.68a5.302 5.302 0 01-1.9-1.86 5.044 5.044 0 01-.68-2.56c0-.92.227-1.767.68-2.54a5.181 5.181 0 011.86-1.86c.787-.467 1.64-.7 2.56-.7.88 0 1.694.22 2.44.66.76.44 1.36 1.04 1.8 1.8.44.747.66 1.56.66 2.44 0 .44-.033.84-.1 1.2h-7.1c.16.493.454.9.88 1.22.44.32 1.014.48 1.72.48.56 0 1.06-.06 1.5-.18.454-.133.82-.287 1.1-.46l1.4 1.9zm-2.2-4.96c-.16-.48-.44-.88-.84-1.2-.386-.333-.84-.5-1.36-.5-.52 0-.98.167-1.38.5-.386.32-.66.72-.82 1.2h4.4zm12.216-2.5h.1c.307-.44.727-.813 1.26-1.12.533-.32 1.147-.48 1.84-.48.773 0 1.493.22 2.16.66.68.44 1.22 1.047 1.62 1.82.413.773.62 1.647.62 2.62 0 .973-.207 1.847-.62 2.62-.4.773-.94 1.38-1.62 1.82-.667.44-1.387.66-2.16.66-.693 0-1.307-.153-1.84-.46-.533-.32-.953-.7-1.26-1.14h-.1v1.4h-2.7v-14h2.7v5.6zm2.4 6.1c.707 0 1.3-.247 1.78-.74s.72-1.113.72-1.86c0-.747-.24-1.367-.72-1.86-.48-.493-1.073-.74-1.78-.74-.707 0-1.3.247-1.78.74s-.72 1.113-.72 1.86c0 .747.24 1.367.72 1.86.48.493 1.073.74 1.78.74zm12.602 1.1c-.306.387-.713.72-1.22 1-.493.267-1.053.4-1.68.4-.893 0-1.62-.26-2.18-.78-.546-.533-.82-1.207-.82-2.02 0-.827.26-1.533.78-2.12.534-.587 1.24-.927 2.12-1.02l3.1-.3c-.053-.4-.233-.76-.54-1.08-.306-.32-.693-.48-1.16-.48-.453 0-.873.053-1.26.16a3.8 3.8 0 00-.94.34l-1.6-1.6c.427-.36.987-.667 1.68-.92.694-.253 1.467-.38 2.32-.38.814 0 1.54.173 2.18.52.64.333 1.134.8 1.48 1.4.36.587.54 1.247.54 1.98v6.1h-2.7v-1.2h-.1zm-2.1-2.86c-.333.013-.6.127-.8.34-.2.213-.3.453-.3.72 0 .307.1.553.3.74.214.173.514.26.9.26.627 0 1.134-.167 1.52-.5.387-.333.58-.813.58-1.44v-.2l-2.2.08zm7.808.76a4 4 0 001.14.78c.453.213.94.32 1.46.32.8 0 1.2-.233 1.2-.7 0-.187-.127-.34-.38-.46-.24-.133-.627-.287-1.16-.46a20.22 20.22 0 01-1.74-.68 3.8 3.8 0 01-1.22-.94c-.333-.413-.5-.933-.5-1.56 0-.547.153-1.047.46-1.5.307-.453.753-.813 1.34-1.08.6-.28 1.3-.42 2.1-.42.813 0 1.547.147 2.2.44.667.293 1.2.647 1.6 1.06l-1.6 1.7c-.24-.227-.553-.413-.94-.56a3.265 3.265 0 00-1.26-.24c-.333 0-.587.06-.76.18-.16.12-.24.26-.24.42 0 .187.12.347.36.48.253.12.647.267 1.18.44.693.24 1.273.473 1.74.7a3.27 3.27 0 011.2.94c.347.4.52.913.52 1.54 0 .573-.16 1.1-.48 1.58-.307.467-.773.84-1.4 1.12-.613.267-1.353.4-2.22.4-.88 0-1.687-.173-2.42-.52-.733-.347-1.327-.773-1.78-1.28l1.6-1.7zm8.302-9.3c0-.4.153-.747.46-1.04.306-.307.673-.46 1.1-.46.413 0 .773.153 1.08.46.306.293.46.64.46 1.04s-.154.753-.46 1.06c-.307.293-.674.44-1.1.44-.414 0-.774-.147-1.08-.44-.307-.307-.46-.66-.46-1.06zm2.9 2.8v9.8h-2.7v-9.8h2.7zm11.293 8c-.4.56-.954 1.033-1.66 1.42-.707.387-1.52.58-2.44.58-.947 0-1.82-.227-2.62-.68a5.295 5.295 0 01-1.9-1.86 5.034 5.034 0 01-.68-2.56c0-.92.226-1.767.68-2.54a5.078 5.078 0 011.9-1.86c.8-.467 1.673-.7 2.62-.7.92 0 1.733.193 2.44.58.706.387 1.26.86 1.66 1.42l-1.7 1.7a3.298 3.298 0 00-1.04-.84 2.663 2.663 0 00-1.36-.36c-.707 0-1.3.247-1.78.74s-.72 1.113-.72 1.86c0 .747.24 1.367.72 1.86.48.493 1.073.74 1.78.74.493 0 .946-.113 1.36-.34.426-.24.773-.527 1.04-.86l1.7 1.7zm2.29-1.5a4 4 0 001.14.78c.454.213.94.32 1.46.32.8 0 1.2-.233 1.2-.7 0-.187-.126-.34-.38-.46-.24-.133-.626-.287-1.16-.46a20.22 20.22 0 01-1.74-.68 3.81 3.81 0 01-1.22-.94c-.333-.413-.5-.933-.5-1.56 0-.547.154-1.047.46-1.5.307-.453.754-.813 1.34-1.08.6-.28 1.3-.42 2.1-.42.814 0 1.547.147 2.2.44.667.293 1.2.647 1.6 1.06l-1.6 1.7c-.24-.227-.553-.413-.94-.56a3.258 3.258 0 00-1.26-.24c-.333 0-.586.06-.76.18-.16.12-.24.26-.24.42 0 .187.12.347.36.48.254.12.647.267 1.18.44.694.24 1.274.473 1.74.7a3.27 3.27 0 011.2.94c.347.4.52.913.52 1.54 0 .573-.16 1.1-.48 1.58-.306.467-.773.84-1.4 1.12-.613.267-1.353.4-2.22.4-.88 0-1.686-.173-2.42-.52-.733-.347-1.326-.773-1.78-1.28l1.6-1.7z"/>
    <g filter="url(#filter0_d)">
      <path fill="#fff" d="M0 626.79c0-22.21 0-33.315 4.39-41.768a39 39 0 0116.632-16.631C29.475 564 40.58 564 62.79 564h249.42c22.21 0 33.315 0 41.768 4.391a38.999 38.999 0 0116.631 16.631C375 593.475 375 604.58 375 626.79V812H0V626.79z"/>
      <g opacity=".3">
        <circle cx="331" cy="737" r="28" fill="#25272E"/>
        <path fill="#fff" d="M344.525 738.022c-.624.546-7.782 7.782-7.782 7.782-.886.775-2.274.146-2.274-1.032v-5.274h-14.548c-1.349 0-2.442-1.123-2.442-2.508 0-1.386 1.093-2.509 2.442-2.509h14.548v-5.273c0-1.178 1.388-1.808 2.274-1.032 0 0 7.158 7.235 7.782 7.782a1.37 1.37 0 010 2.064z"/>
      </g>
      <path fill="#25272E" d="M209.01 610.18c-.429.551-.999 1.017-1.708 1.4-.7.373-1.484.56-2.352.56a5.26 5.26 0 01-2.632-.672 5.021 5.021 0 01-1.876-1.82 5 5 0 01-.672-2.548c0-.924.224-1.769.672-2.534a4.983 4.983 0 011.876-1.834 5.26 5.26 0 012.632-.672c.868 0 1.647.187 2.338.56.691.364 1.241.807 1.652 1.33l-.98.98c-.299-.411-.709-.756-1.232-1.036-.523-.289-1.115-.434-1.778-.434s-1.274.163-1.834.49a3.53 3.53 0 00-1.33 1.316 3.659 3.659 0 00-.476 1.834c0 .663.159 1.274.476 1.834a3.64 3.64 0 001.33 1.33c.56.317 1.171.476 1.834.476s1.26-.149 1.792-.448c.541-.299.971-.663 1.288-1.092l.98.98zm.845-1.54c0-.644.154-1.232.462-1.764a3.373 3.373 0 011.26-1.274 3.532 3.532 0 011.778-.462c.644 0 1.232.154 1.764.462.541.308.966.733 1.274 1.274.308.532.462 1.12.462 1.764 0 .644-.154 1.237-.462 1.778a3.373 3.373 0 01-1.274 1.26 3.457 3.457 0 01-1.764.462 3.532 3.532 0 01-1.778-.462 3.4 3.4 0 01-1.26-1.26 3.532 3.532 0 01-.462-1.778zm3.5 2.17c.392 0 .747-.093 1.064-.28a1.93 1.93 0 00.756-.77c.187-.336.28-.709.28-1.12 0-.411-.093-.779-.28-1.106a1.91 1.91 0 00-.756-.784 2.055 2.055 0 00-1.064-.28c-.392 0-.751.093-1.078.28a2.044 2.044 0 00-.756.784 2.284 2.284 0 00-.266 1.106c0 .411.089.784.266 1.12.187.327.439.583.756.77.327.187.686.28 1.078.28zm5.741-5.53l1.89 4.97 1.89-4.97h1.54l-2.66 6.72h-1.54l-2.66-6.72h1.54zm12.387 5.768c-.28.308-.668.569-1.162.784-.495.205-1.064.308-1.708.308a3.532 3.532 0 01-1.778-.462 3.4 3.4 0 01-1.26-1.26 3.532 3.532 0 01-.462-1.778c0-.644.154-1.232.462-1.764a3.43 3.43 0 011.246-1.26 3.255 3.255 0 011.722-.476 3.27 3.27 0 011.68.434c.504.28.896.672 1.176 1.176a3.27 3.27 0 01.434 1.68c0 .261-.024.495-.07.7h-5.18c.074.467.308.863.7 1.19.392.327.858.49 1.4.49.392 0 .756-.07 1.092-.21a3.28 3.28 0 00.868-.532l.84.98zm-1.12-3.108c-.112-.467-.327-.84-.644-1.12-.308-.28-.7-.42-1.176-.42-.504 0-.92.14-1.246.42-.327.271-.565.644-.714 1.12h3.78zm4.404-1.75c.186-.252.434-.467.742-.644a2.173 2.173 0 011.078-.266h.56v1.26h-.56c-.327 0-.63.089-.91.266-.28.168-.504.411-.672.728a2.224 2.224 0 00-.238 1.036V612h-1.4v-6.72h1.4v.91zm7.565 4.83a2.83 2.83 0 01-.882.798 2.537 2.537 0 01-1.288.322c-.43 0-.817-.089-1.162-.266a2.108 2.108 0 01-.798-.714 1.858 1.858 0 01-.28-.98c0-.569.182-1.059.546-1.47.373-.42.854-.653 1.442-.7l2.422-.196c0-.364-.136-.691-.406-.98a1.284 1.284 0 00-.994-.434c-.346 0-.668.051-.966.154-.299.093-.551.21-.756.35l-.91-.91c.27-.243.634-.443 1.092-.602.457-.168.97-.252 1.54-.252.55 0 1.036.112 1.456.336.429.224.76.537.994.938.233.392.35.831.35 1.316V612h-1.4v-.98zm-1.96-1.89c-.336.037-.598.145-.784.322a.784.784 0 00-.266.588.82.82 0 00.308.644c.205.177.476.266.812.266.541 0 .989-.163 1.344-.49.364-.327.546-.765.546-1.316v-.21l-1.96.196zm5.81 3.64c.214.233.485.429.812.588a2.32 2.32 0 001.078.252c.634 0 1.143-.196 1.526-.588.382-.392.574-.919.574-1.582v-.63a2.694 2.694 0 01-.882.742 2.635 2.635 0 01-1.288.308 2.795 2.795 0 01-1.498-.434 3.204 3.204 0 01-1.106-1.204 3.629 3.629 0 01-.406-1.722c0-.635.135-1.209.406-1.722.28-.513.648-.915 1.106-1.204a2.795 2.795 0 011.498-.434c.485 0 .914.103 1.288.308.373.205.667.453.882.742v-.91h1.4v6.16c0 .672-.15 1.274-.448 1.806a3.203 3.203 0 01-1.246 1.246c-.532.299-1.134.448-1.806.448a3.817 3.817 0 01-1.68-.364c-.495-.243-.892-.541-1.19-.896l.98-.91zm2.1-2.24c.345 0 .662-.084.952-.252.289-.177.518-.42.686-.728.168-.308.252-.658.252-1.05s-.084-.742-.252-1.05a1.808 1.808 0 00-.686-.714 1.793 1.793 0 00-.952-.266c-.346 0-.663.089-.952.266-.29.168-.518.406-.686.714a2.157 2.157 0 00-.252 1.05c0 .392.084.742.252 1.05a1.9 1.9 0 00.686.728c.289.168.606.252.952.252zm11.201.518c-.28.308-.668.569-1.162.784-.495.205-1.064.308-1.708.308a3.532 3.532 0 01-1.778-.462 3.4 3.4 0 01-1.26-1.26 3.532 3.532 0 01-.462-1.778c0-.644.154-1.232.462-1.764a3.43 3.43 0 011.246-1.26 3.255 3.255 0 011.722-.476 3.27 3.27 0 011.68.434c.504.28.896.672 1.176 1.176a3.27 3.27 0 01.434 1.68c0 .261-.024.495-.07.7h-5.18c.074.467.308.863.7 1.19.392.327.858.49 1.4.49.392 0 .756-.07 1.092-.21a3.28 3.28 0 00.868-.532l.84.98zm-1.12-3.108c-.112-.467-.327-.84-.644-1.12-.308-.28-.7-.42-1.176-.42-.504 0-.92.14-1.246.42-.327.271-.565.644-.714 1.12h3.78zm6.377 5.67c.271 0 .509-.079.714-.238.205-.159.364-.383.476-.672l.28-.7-2.73-6.72h1.54l1.89 4.97 1.89-4.97h1.54l-2.94 7.49c-.289.719-.635 1.26-1.036 1.624a2.004 2.004 0 01-1.414.546h-1.05v-1.33h.84zm12.667-2.562c-.28.308-.668.569-1.162.784-.495.205-1.064.308-1.708.308a3.532 3.532 0 01-1.778-.462 3.4 3.4 0 01-1.26-1.26 3.532 3.532 0 01-.462-1.778c0-.644.154-1.232.462-1.764a3.43 3.43 0 011.246-1.26 3.255 3.255 0 011.722-.476 3.27 3.27 0 011.68.434c.504.28.896.672 1.176 1.176a3.27 3.27 0 01.434 1.68c0 .261-.024.495-.07.7h-5.18c.074.467.308.863.7 1.19.392.327.858.49 1.4.49.392 0 .756-.07 1.092-.21a3.28 3.28 0 00.868-.532l.84.98zm-1.12-3.108c-.112-.467-.327-.84-.644-1.12-.308-.28-.7-.42-1.176-.42-.504 0-.92.14-1.246.42-.327.271-.565.644-.714 1.12h3.78zm6.924 3.08a2.83 2.83 0 01-.882.798 2.537 2.537 0 01-1.288.322c-.43 0-.817-.089-1.162-.266a2.108 2.108 0 01-.798-.714 1.858 1.858 0 01-.28-.98c0-.569.182-1.059.546-1.47.373-.42.854-.653 1.442-.7l2.422-.196c0-.364-.136-.691-.406-.98a1.284 1.284 0 00-.994-.434c-.346 0-.668.051-.966.154-.299.093-.551.21-.756.35l-.91-.91c.27-.243.634-.443 1.092-.602.457-.168.97-.252 1.54-.252.55 0 1.036.112 1.456.336.429.224.76.537.994.938.233.392.35.831.35 1.316V612h-1.4v-.98zm-1.96-1.89c-.336.037-.598.145-.784.322a.784.784 0 00-.266.588.82.82 0 00.308.644c.205.177.476.266.812.266.541 0 .989-.163 1.344-.49.364-.327.546-.765.546-1.316v-.21l-1.96.196zm6.44-2.94c.186-.252.434-.467.742-.644a2.173 2.173 0 011.078-.266h.56v1.26h-.56c-.327 0-.63.089-.91.266-.28.168-.504.411-.672.728a2.224 2.224 0 00-.238 1.036V612h-1.4v-6.72h1.4v.91z"/>
      <path fill="#F8F9FA" d="M199 640c0-6.627 5.373-12 12-12h62a4 4 0 014 4v40a4 4 0 01-4 4h-62c-6.627 0-12-5.373-12-12v-24z"/>
      <path fill="#25272E" d="M218.968 657c0-.8.16-1.499.48-2.096a4.918 4.918 0 011.168-1.472 20.375 20.375 0 011.792-1.344 18.716 18.716 0 001.376-.992c.341-.277.624-.597.848-.96.224-.363.336-.768.336-1.216 0-.651-.213-1.173-.64-1.568-.427-.395-1.013-.592-1.76-.592-.651 0-1.179.187-1.584.56a2.76 2.76 0 00-.816 1.36l-1.04-.48a3.532 3.532 0 011.152-1.808c.587-.501 1.349-.752 2.288-.752.704 0 1.328.144 1.872.432.544.288.965.683 1.264 1.184.309.501.464 1.056.464 1.664 0 .587-.133 1.109-.4 1.568a4.68 4.68 0 01-.992 1.2c-.395.331-.917.72-1.568 1.168-.555.384-.997.709-1.328.976-.331.256-.64.56-.928.912-.277.341-.485.72-.624 1.136h5.84V657h-7.2zm13.613.16c-.789 0-1.531-.235-2.224-.704-.683-.469-1.232-1.136-1.648-2-.416-.875-.624-1.893-.624-3.056 0-1.152.208-2.165.624-3.04.416-.875.965-1.547 1.648-2.016.683-.469 1.419-.704 2.208-.704.789 0 1.525.235 2.208.704.683.469 1.232 1.141 1.648 2.016.416.875.624 1.888.624 3.04 0 1.152-.208 2.165-.624 3.04-.416.875-.965 1.547-1.648 2.016-.683.469-1.413.704-2.192.704zm0-1.12c.576 0 1.109-.181 1.6-.544.501-.363.901-.891 1.2-1.584.309-.704.464-1.541.464-2.512 0-.971-.155-1.808-.464-2.512-.299-.704-.699-1.232-1.2-1.584-.501-.363-1.04-.544-1.616-.544-.576 0-1.115.181-1.616.544-.501.352-.907.88-1.216 1.584-.299.704-.448 1.541-.448 2.512 0 .971.149 1.808.448 2.512.309.704.715 1.237 1.216 1.6.512.352 1.056.528 1.632.528zm6.059.96c0-.8.16-1.499.48-2.096a4.918 4.918 0 011.168-1.472 20.375 20.375 0 011.792-1.344 18.716 18.716 0 001.376-.992c.341-.277.624-.597.848-.96.224-.363.336-.768.336-1.216 0-.651-.213-1.173-.64-1.568-.427-.395-1.013-.592-1.76-.592-.651 0-1.179.187-1.584.56a2.76 2.76 0 00-.816 1.36l-1.04-.48a3.532 3.532 0 011.152-1.808c.587-.501 1.349-.752 2.288-.752.704 0 1.328.144 1.872.432.544.288.965.683 1.264 1.184.309.501.464 1.056.464 1.664 0 .587-.133 1.109-.4 1.568a4.68 4.68 0 01-.992 1.2c-.395.331-.917.72-1.568 1.168-.555.384-.997.709-1.328.976-.331.256-.64.56-.928.912-.277.341-.485.72-.624 1.136h5.84V657h-7.2zm13.613.16c-.789 0-1.531-.235-2.224-.704-.683-.469-1.232-1.136-1.648-2-.416-.875-.624-1.893-.624-3.056 0-1.152.208-2.165.624-3.04.416-.875.965-1.547 1.648-2.016.683-.469 1.419-.704 2.208-.704.789 0 1.525.235 2.208.704.683.469 1.232 1.141 1.648 2.016.416.875.624 1.888.624 3.04 0 1.152-.208 2.165-.624 3.04-.416.875-.965 1.547-1.648 2.016-.683.469-1.413.704-2.192.704zm0-1.12c.576 0 1.109-.181 1.6-.544.501-.363.901-.891 1.2-1.584.309-.704.464-1.541.464-2.512 0-.971-.155-1.808-.464-2.512-.299-.704-.699-1.232-1.2-1.584-.501-.363-1.04-.544-1.616-.544-.576 0-1.115.181-1.616.544-.501.352-.907.88-1.216 1.584-.299.704-.448 1.541-.448 2.512 0 .971.149 1.808.448 2.512.309.704.715 1.237 1.216 1.6.512.352 1.056.528 1.632.528z"/>
      <g>
        <path fill="#E4F0F0" d="M281 632a4 4 0 014-4h62c6.627 0 12 5.373 12 12v24c0 6.627-5.373 12-12 12h-62a4 4 0 01-4-4v-40z"/>
        <path fill="#A9C0C4" fill-rule="evenodd" d="M347 630h-62a2 2 0 00-2 2v40a2 2 0 002 2h62c5.523 0 10-4.477 10-10v-24c0-5.523-4.477-10-10-10zm-62-2a4 4 0 00-4 4v40a4 4 0 004 4h62c6.627 0 12-5.373 12-12v-24c0-6.627-5.373-12-12-12h-62z" clip-rule="evenodd"/>
        <path fill="#25272E" d="M303.122 657.001c0-.896.166-1.67.496-2.32.342-.651.747-1.179 1.216-1.584.47-.416 1.078-.875 1.824-1.376.523-.352.928-.64 1.216-.864.288-.235.528-.496.72-.784.192-.299.288-.63.288-.992 0-.534-.176-.96-.528-1.28-.352-.32-.842-.48-1.472-.48-.554 0-1.013.149-1.376.448a2.445 2.445 0 00-.784 1.072l-1.44-.64a3.75 3.75 0 011.232-1.808c.608-.502 1.398-.752 2.368-.752.726 0 1.376.154 1.952.464a3.22 3.22 0 011.328 1.232c.32.522.48 1.104.48 1.744 0 .597-.133 1.125-.4 1.584a4.32 4.32 0 01-.944 1.152c-.373.309-.885.682-1.536 1.12a18.47 18.47 0 00-1.616 1.184 3.963 3.963 0 00-.944 1.2h5.44v1.68h-7.52zM317.036 657.161a4.29 4.29 0 01-2.352-.672c-.704-.459-1.264-1.12-1.68-1.984-.406-.875-.608-1.91-.608-3.104 0-1.195.202-2.224.608-3.088.416-.875.976-1.536 1.68-1.984a4.214 4.214 0 012.352-.688c.864 0 1.648.229 2.352.688.704.448 1.258 1.109 1.664 1.984.416.864.624 1.893.624 3.088 0 1.194-.208 2.229-.624 3.104-.406.864-.96 1.525-1.664 1.984a4.29 4.29 0 01-2.352.672zm2.88-5.76c0-.896-.134-1.654-.4-2.272-.256-.63-.603-1.099-1.04-1.408a2.388 2.388 0 00-1.44-.48c-.523 0-1.003.16-1.44.48-.438.309-.79.778-1.056 1.408-.256.618-.384 1.376-.384 2.272 0 .896.128 1.658.384 2.288.266.618.618 1.088 1.056 1.408a2.44 2.44 0 001.44.464c.522 0 1.002-.155 1.44-.464.437-.32.784-.79 1.04-1.408.266-.63.4-1.392.4-2.288zM323.122 657.001c0-.896.166-1.67.496-2.32.342-.651.747-1.179 1.216-1.584.47-.416 1.078-.875 1.824-1.376.523-.352.928-.64 1.216-.864.288-.235.528-.496.72-.784.192-.299.288-.63.288-.992 0-.534-.176-.96-.528-1.28-.352-.32-.842-.48-1.472-.48-.554 0-1.013.149-1.376.448a2.445 2.445 0 00-.784 1.072l-1.44-.64a3.75 3.75 0 011.232-1.808c.608-.502 1.398-.752 2.368-.752.726 0 1.376.154 1.952.464a3.22 3.22 0 011.328 1.232c.32.522.48 1.104.48 1.744 0 .597-.133 1.125-.4 1.584a4.32 4.32 0 01-.944 1.152c-.373.309-.885.682-1.536 1.12a18.47 18.47 0 00-1.616 1.184 3.963 3.963 0 00-.944 1.2h5.44v1.68h-7.52zM332.076 647.321c.672-.075 1.184-.235 1.536-.48.352-.246.64-.592.864-1.04h1.36v11.2h-1.76v-8.56h-2v-1.12z"/>
      </g>
      <g>
        <path fill="#25272E" d="M22.09 603.67h-5.25v-1.47h7.07v1.47l-5.46 6.86h5.6V612h-7.42v-1.47l5.46-6.86zm3.502-.49c0-.233.084-.429.252-.588a.838.838 0 01.588-.252.79.79 0 01.574.252.759.759 0 01.266.588.801.801 0 01-.266.602.812.812 0 01-.574.238.86.86 0 01-.588-.238.822.822 0 01-.252-.602zm1.54 2.1V612h-1.4v-6.72h1.4zm3.43.98c.214-.308.522-.569.924-.784.401-.224.863-.336 1.386-.336.56 0 1.078.154 1.554.462.485.299.872.714 1.162 1.246.289.532.434 1.129.434 1.792s-.145 1.26-.434 1.792c-.29.532-.677.952-1.162 1.26a2.866 2.866 0 01-1.554.448c-.523 0-.985-.107-1.386-.322-.402-.224-.71-.49-.924-.798v3.92h-1.4v-9.66h1.4v.98zm2.03 4.55a1.93 1.93 0 001.022-.28c.308-.187.55-.443.728-.77.186-.336.28-.709.28-1.12 0-.411-.094-.779-.28-1.106a1.972 1.972 0 00-.728-.784 1.93 1.93 0 00-1.022-.28c-.374 0-.714.093-1.022.28a2.074 2.074 0 00-.742.784 2.28 2.28 0 00-.266 1.106c0 .411.088.784.266 1.12a2.1 2.1 0 00.742.77c.308.187.648.28 1.022.28zm14.14-.07c-.298.392-.7.723-1.203.994a3.41 3.41 0 01-1.666.406 3.533 3.533 0 01-1.778-.462 3.4 3.4 0 01-1.26-1.26 3.532 3.532 0 01-.462-1.778c0-.644.154-1.232.462-1.764a3.373 3.373 0 011.26-1.274 3.533 3.533 0 011.778-.462c.616 0 1.166.131 1.652.392.485.252.868.565 1.148.938l-.98.91a2.503 2.503 0 00-.77-.644 2.07 2.07 0 00-1.05-.266c-.392 0-.752.093-1.078.28a2.04 2.04 0 00-.756.784 2.28 2.28 0 00-.266 1.106c0 .411.088.784.266 1.12.186.327.438.583.756.77.326.187.686.28 1.078.28s.751-.093 1.078-.28a2.97 2.97 0 00.812-.7l.98.91zm.767-2.1c0-.644.154-1.232.462-1.764a3.373 3.373 0 011.26-1.274A3.533 3.533 0 0151 605.14c.644 0 1.231.154 1.764.462.54.308.965.733 1.273 1.274.309.532.462 1.12.462 1.764 0 .644-.154 1.237-.462 1.778a3.37 3.37 0 01-1.273 1.26 3.457 3.457 0 01-1.765.462 3.533 3.533 0 01-1.778-.462 3.4 3.4 0 01-1.26-1.26 3.532 3.532 0 01-.462-1.778zm3.5 2.17c.392 0 .747-.093 1.064-.28.327-.187.58-.443.756-.77.187-.336.28-.709.28-1.12a2.19 2.19 0 00-.28-1.106 1.915 1.915 0 00-.756-.784 2.056 2.056 0 00-1.064-.28c-.392 0-.75.093-1.078.28-.317.187-.569.448-.755.784a2.28 2.28 0 00-.266 1.106c0 .411.088.784.266 1.12.186.327.438.583.756.77.326.187.686.28 1.078.28zm10.081.21c-.214.308-.522.574-.923.798-.402.215-.864.322-1.386.322-.56 0-1.083-.149-1.569-.448a3.407 3.407 0 01-1.148-1.26 3.688 3.688 0 01-.434-1.792c0-.663.145-1.26.434-1.792.29-.532.672-.947 1.148-1.246a2.873 2.873 0 011.569-.462c.522 0 .984.112 1.386.336.4.215.709.476.924.784v-4.06h1.4v9.8h-1.4v-.98zm-2.03-.21a1.93 1.93 0 001.023-.28c.307-.187.55-.443.727-.77.187-.336.28-.709.28-1.12 0-.411-.093-.779-.28-1.106a1.972 1.972 0 00-.727-.784 1.93 1.93 0 00-1.023-.28c-.373 0-.713.093-1.021.28a2.074 2.074 0 00-.743.784 2.28 2.28 0 00-.266 1.106c0 .411.09.784.266 1.12a2.1 2.1 0 00.742.77c.309.187.65.28 1.023.28zm11.417.238c-.28.308-.667.569-1.162.784-.495.205-1.064.308-1.708.308a3.533 3.533 0 01-1.778-.462 3.4 3.4 0 01-1.26-1.26 3.532 3.532 0 01-.462-1.778c0-.644.154-1.232.462-1.764a3.433 3.433 0 011.246-1.26 3.259 3.259 0 011.722-.476c.625 0 1.185.145 1.68.434.504.28.896.672 1.176 1.176.29.495.434 1.055.434 1.68 0 .261-.023.495-.07.7h-5.18c.075.467.308.863.7 1.19.392.327.859.49 1.4.49.392 0 .756-.07 1.092-.21.345-.149.635-.327.868-.532l.84.98zm-1.12-3.108c-.112-.467-.327-.84-.644-1.12-.308-.28-.7-.42-1.176-.42-.504 0-.92.14-1.246.42-.327.271-.565.644-.714 1.12h3.78z"/>
        <path fill="#fff" d="M16 640c0-6.627 5.373-12 12-12h135c6.627 0 12 5.373 12 12v24c0 6.627-5.373 12-12 12H28c-6.627 0-12-5.373-12-12v-24z"/>
        <path fill="#F1F3F5" fill-rule="evenodd" d="M163 629H28c-6.075 0-11 4.925-11 11v24c0 6.075 4.925 11 11 11h135c6.075 0 11-4.925 11-11v-24c0-6.075-4.925-11-11-11zm-135-1c-6.627 0-12 5.373-12 12v24c0 6.627 5.373 12 12 12h135c6.627 0 12-5.373 12-12v-24c0-6.627-5.373-12-12-12H28z" clip-rule="evenodd" style="mix-blend-mode:multiply"/>
        <g opacity=".7">
          <path fill="#70747D" d="M33.9 659.201c-1.08 0-2.06-.28-2.94-.84-.88-.574-1.58-1.4-2.1-2.48-.507-1.094-.76-2.387-.76-3.88 0-1.494.253-2.78.76-3.86.52-1.094 1.22-1.92 2.1-2.48.88-.574 1.86-.86 2.94-.86 1.08 0 2.06.286 2.94.86.88.56 1.573 1.386 2.08 2.48.52 1.08.78 2.366.78 3.86 0 1.493-.26 2.786-.78 3.88-.507 1.08-1.2 1.906-2.08 2.48-.88.56-1.86.84-2.94.84zm3.6-7.2c0-1.12-.167-2.067-.5-2.84-.32-.787-.753-1.374-1.3-1.76-.547-.4-1.147-.6-1.8-.6s-1.253.2-1.8.6c-.547.386-.987.973-1.32 1.76-.32.773-.48 1.72-.48 2.84 0 1.12.16 2.073.48 2.86.333.773.773 1.36 1.32 1.76.547.386 1.147.58 1.8.58s1.253-.194 1.8-.58c.547-.4.98-.987 1.3-1.76.333-.787.5-1.74.5-2.86zM47.709 659.201c-1.08 0-2.06-.28-2.94-.84-.88-.574-1.58-1.4-2.1-2.48-.507-1.094-.76-2.387-.76-3.88 0-1.494.253-2.78.76-3.86.52-1.094 1.22-1.92 2.1-2.48.88-.574 1.86-.86 2.94-.86 1.08 0 2.06.286 2.94.86.88.56 1.573 1.386 2.08 2.48.52 1.08.78 2.366.78 3.86 0 1.493-.26 2.786-.78 3.88-.507 1.08-1.2 1.906-2.08 2.48-.88.56-1.86.84-2.94.84zm3.6-7.2c0-1.12-.167-2.067-.5-2.84-.32-.787-.754-1.374-1.3-1.76-.547-.4-1.147-.6-1.8-.6-.654 0-1.254.2-1.8.6-.547.386-.987.973-1.32 1.76-.32.773-.48 1.72-.48 2.84 0 1.12.16 2.073.48 2.86.333.773.773 1.36 1.32 1.76.546.386 1.146.58 1.8.58.653 0 1.253-.194 1.8-.58.546-.4.98-.987 1.3-1.76.333-.787.5-1.74.5-2.86zM61.517 659.201c-1.08 0-2.06-.28-2.94-.84-.88-.574-1.58-1.4-2.1-2.48-.506-1.094-.76-2.387-.76-3.88 0-1.494.254-2.78.76-3.86.52-1.094 1.22-1.92 2.1-2.48.88-.574 1.86-.86 2.94-.86 1.08 0 2.06.286 2.94.86.88.56 1.574 1.386 2.08 2.48.52 1.08.78 2.366.78 3.86 0 1.493-.26 2.786-.78 3.88-.507 1.08-1.2 1.906-2.08 2.48-.88.56-1.86.84-2.94.84zm3.6-7.2c0-1.12-.166-2.067-.5-2.84-.32-.787-.753-1.374-1.3-1.76-.547-.4-1.147-.6-1.8-.6s-1.253.2-1.8.6c-.547.386-.986.973-1.32 1.76-.32.773-.48 1.72-.48 2.84 0 1.12.16 2.073.48 2.86.334.773.773 1.36 1.32 1.76.547.386 1.147.58 1.8.58s1.253-.194 1.8-.58c.547-.4.98-.987 1.3-1.76.334-.787.5-1.74.5-2.86zM75.326 659.201c-1.08 0-2.06-.28-2.94-.84-.88-.574-1.58-1.4-2.1-2.48-.507-1.094-.76-2.387-.76-3.88 0-1.494.253-2.78.76-3.86.52-1.094 1.22-1.92 2.1-2.48.88-.574 1.86-.86 2.94-.86 1.08 0 2.06.286 2.94.86.88.56 1.573 1.386 2.08 2.48.52 1.08.78 2.366.78 3.86 0 1.493-.26 2.786-.78 3.88-.507 1.08-1.2 1.906-2.08 2.48-.88.56-1.86.84-2.94.84zm3.6-7.2c0-1.12-.167-2.067-.5-2.84-.32-.787-.754-1.374-1.3-1.76-.547-.4-1.147-.6-1.8-.6s-1.253.2-1.8.6c-.547.386-.987.973-1.32 1.76-.32.773-.48 1.72-.48 2.84 0 1.12.16 2.073.48 2.86.333.773.773 1.36 1.32 1.76.547.386 1.147.58 1.8.58s1.253-.194 1.8-.58c.546-.4.98-.987 1.3-1.76.333-.787.5-1.74.5-2.86zM89.134 659.201c-1.08 0-2.06-.28-2.94-.84-.88-.574-1.58-1.4-2.1-2.48-.506-1.094-.76-2.387-.76-3.88 0-1.494.254-2.78.76-3.86.52-1.094 1.22-1.92 2.1-2.48.88-.574 1.86-.86 2.94-.86 1.08 0 2.06.286 2.94.86.88.56 1.574 1.386 2.08 2.48.52 1.08.78 2.366.78 3.86 0 1.493-.26 2.786-.78 3.88-.506 1.08-1.2 1.906-2.08 2.48-.88.56-1.86.84-2.94.84zm3.6-7.2c0-1.12-.166-2.067-.5-2.84-.32-.787-.753-1.374-1.3-1.76-.546-.4-1.146-.6-1.8-.6-.653 0-1.253.2-1.8.6-.546.386-.986.973-1.32 1.76-.32.773-.48 1.72-.48 2.84 0 1.12.16 2.073.48 2.86.334.773.774 1.36 1.32 1.76.547.386 1.147.58 1.8.58.654 0 1.254-.194 1.8-.58.547-.4.98-.987 1.3-1.76.334-.787.5-1.74.5-2.86z"/>
        </g>
      </g>
    </g>
    <g filter="url(#filter1_b)">
      <path fill="#fff" fill-opacity=".95" d="M0 0h375v88H0z"/>
      <path stroke="#000" d="M338.663 17.799h16.666c1.196 0 2.167.97 2.167 2.166v5.979a2.167 2.167 0 01-2.167 2.167h-16.666a2.167 2.167 0 01-2.167-2.167v-5.979c0-1.196.97-2.166 2.167-2.166z" opacity=".35"/>
      <path fill="#000" d="M358.995 20.959v3.992a2.165 2.165 0 000-3.992" opacity=".4"/>
      <path fill="#000" d="M337.996 20.628c0-.736.597-1.333 1.333-1.333h15.333c.737 0 1.334.597 1.334 1.333v4.653c0 .736-.597 1.333-1.334 1.333h-15.333a1.333 1.333 0 01-1.333-1.333v-4.653z"/>
      <path fill="#000" fill-rule="evenodd" d="M323.327 19.57c2.216 0 4.347.85 5.953 2.374.12.117.314.116.433-.004l1.156-1.164a.32.32 0 00-.003-.455c-4.215-4.032-10.864-4.032-15.079 0a.32.32 0 00-.003.455l1.156 1.164c.119.12.312.121.433.004a8.65 8.65 0 015.954-2.374zm0 3.788c1.217 0 2.391.452 3.294 1.268a.31.31 0 00.433-.006l1.155-1.165a.324.324 0 00-.005-.458 7.169 7.169 0 00-9.752 0 .32.32 0 00-.004.458l1.154 1.165a.31.31 0 00.433.006 4.912 4.912 0 013.292-1.268zm2.313 2.55a.32.32 0 01-.094.23l-1.998 2.011a.31.31 0 01-.443 0l-1.998-2.012a.315.315 0 01.01-.456 3.426 3.426 0 014.419 0c.065.058.102.14.104.226zM309.663 17.633h-1a1 1 0 00-1 .998v8.65a1 1 0 001 .998h1c.553 0 1-.447 1-.998v-8.65a.999.999 0 00-1-.998zm-5.666 2.329h1a1 1 0 011 .998v6.321a1 1 0 01-1 .998h-1a1 1 0 01-1-.998V20.96a1 1 0 011-.998zm-3.667 2.329h-1a1 1 0 00-1 .998v3.992a1 1 0 001 .998h1c.553 0 1-.447 1-.998V23.29a.999.999 0 00-1-.998zm-4.666 1.996h-1a1 1 0 00-1 .998v1.996a1 1 0 001 .998h1a1 1 0 001-.998v-1.996a1 1 0 00-1-.998z" clip-rule="evenodd"/>
      <g>
        <path fill="#000" d="M33.164 20.495v.029h1.773v-.03c0-1.076.747-1.801 1.853-1.801 1.04 0 1.801.674 1.801 1.604 0 .747-.358 1.296-1.801 2.761l-3.523 3.604v1.31h7.338V26.37H35.86v-.125l2.212-2.22c1.795-1.772 2.373-2.71 2.373-3.844 0-1.765-1.508-3.04-3.596-3.04-2.168 0-3.684 1.377-3.684 3.355zm10.613 6.357c.696 0 1.172-.498 1.172-1.157 0-.667-.476-1.157-1.172-1.157-.688 0-1.172.49-1.172 1.157 0 .659.484 1.157 1.172 1.157zm0-5.493c.696 0 1.172-.49 1.172-1.15 0-.666-.476-1.157-1.172-1.157-.688 0-1.172.49-1.172 1.157 0 .66.484 1.15 1.172 1.15zm7.083 6.877c2.527 0 4.028-2.05 4.028-5.544 0-3.508-1.523-5.552-4.028-5.552-2.512 0-4.036 2.044-4.036 5.537 0 3.509 1.502 5.56 4.036 5.56zm0-1.567c-1.34 0-2.124-1.392-2.124-3.992 0-2.578.798-3.962 2.124-3.962s2.117 1.377 2.117 3.962c0 2.6-.777 3.992-2.117 3.992zm5.962 1.304H58.8l4.519-8.958v-1.611h-7.354v1.59h5.45v.116l-4.593 8.863z"/>
      </g>
      <g>
        <path fill="#25272E" d="M351 75.5a9.5 9.5 0 009.5-9.5 9.5 9.5 0 00-9.5-9.5 9.5 9.5 0 00-9.5 9.5 9.5 9.5 0 009.5 9.5zm0 1.5c-6.075 0-11-4.925-11-11s4.925-11 11-11 11 4.925 11 11-4.925 11-11 11z"/>
        <path fill="#25272E" d="M349.81 67.573c0-2.03 2.38-2.03 2.38-3.52a1.136 1.136 0 00-.807-1.008 1.14 1.14 0 00-.453-.042 1.719 1.719 0 00-1.68 1.15l-1.75-.77a3.56 3.56 0 013.5-2.38c2.07 0 3.36 1.32 3.36 2.79 0 2.59-2.52 2.59-2.52 4.41h-1.89a2.067 2.067 0 01-.14-.63zm-.14 2.52a1.085 1.085 0 01.33-.782 1.083 1.083 0 01.79-.308 1.119 1.119 0 11-1.12 1.09z"/>
        <g>
          <path fill="#25272E" fill-rule="evenodd" d="M27.002 57.36l-8.157 7.831c-.46.44-.46 1.176 0 1.619l8.157 7.83a1.292 1.292 0 101.79-1.865l-6.832-6.559a.299.299 0 010-.433l6.833-6.56a1.293 1.293 0 00-1.79-1.864z" clip-rule="evenodd"/>
        </g>
      </g>
      <g>
        <circle cx="141.5" cy="63.5" r="4" fill="#03948C"/>
        <circle cx="154.5" cy="63.5" r="2.5" fill="#CEE1E5"/>
        <circle cx="167.5" cy="63.5" r="2.5" fill="#CEE1E5"/>
        <circle cx="180.5" cy="63.5" r="2.5" fill="#CEE1E5"/>
        <circle cx="193.5" cy="63.5" r="2.5" fill="#CEE1E5"/>
        <circle cx="206.5" cy="63.5" r="2.5" fill="#CEE1E5"/>
        <circle cx="219.5" cy="63.5" r="2.5" fill="#CEE1E5"/>
        <circle cx="232.5" cy="63.5" r="2.5" fill="#CEE1E5"/>
      </g>
    </g>
    <g>
      <path fill="#000" fill-rule="evenodd" d="M121 800.5a2.5 2.5 0 012.5-2.5h129a2.5 2.5 0 110 5h-129a2.5 2.5 0 01-2.5-2.5z" clip-rule="evenodd"/>
    </g>
  </g>
  <defs>
    <filter id="filter0_d" width="543" height="416" x="-84" y="480" color-interpolation-filters="sRGB" filterUnits="userSpaceOnUse">
      <feFlood flood-opacity="0" result="BackgroundImageFix"/>
      <feColorMatrix in="SourceAlpha" values="0 0 0 0 0 0 0 0 0 0 0 0 0 0 0 0 0 0 127 0"/>
      <feMorphology in="SourceAlpha" operator="dilate" radius="4" result="effect1_dropShadow"/>
      <feOffset/>
      <feGaussianBlur stdDeviation="40"/>
      <feColorMatrix values="0 0 0 0 0.4056 0 0 0 0 0.500104 0 0 0 0 0.52 0 0 0 0.04 0"/>
      <feBlend in2="BackgroundImageFix" mode="multiply" result="effect1_dropShadow"/>
      <feBlend in="SourceGraphic" in2="effect1_dropShadow" result="shape"/>
    </filter>
    <filter id="filter1_b" width="407" height="120" x="-16" y="-16" color-interpolation-filters="sRGB" filterUnits="userSpaceOnUse">
      <feFlood flood-opacity="0" result="BackgroundImageFix"/>
      <feGaussianBlur in="BackgroundImage" stdDeviation="8"/>
      <feComposite in2="SourceAlpha" operator="in" result="effect1_backgroundBlur"/>
      <feBlend in="SourceGraphic" in2="effect1_backgroundBlur" result="shape"/>
    </filter>
    <linearGradient id="paint0_linear" x1="111.5" x2="241.866" y1="116.541" y2="677.362" gradientUnits="userSpaceOnUse">
      <stop stop-color="#E4F0F0" stop-opacity="0"/>
      <stop offset="1" stop-color="#E4F0F0"/>
    </linearGradient>
    <clipPath id="clip0">
      <path fill="#fff" d="M0 0h375v812H0z"/>
    </clipPath>
  </defs>
</svg>
