<svg width="375" height="812" viewBox="0 0 375 812" fill="none" xmlns="http://www.w3.org/2000/svg">
<g clip-path="url(#clip0)">
<rect width="375" height="812" fill="white"/>
<rect y="98" width="375" height="592" fill="url(#paint0_linear)"/>
<path d="M20.8 510V521.2H27.3V524H17.8V510H20.8ZM37.6039 523.06C37.1506 523.38 36.5572 523.653 35.8239 523.88C35.0906 524.093 34.2839 524.2 33.4039 524.2C32.4572 524.2 31.5839 523.973 30.7839 523.52C29.9839 523.053 29.3506 522.433 28.8839 521.66C28.4306 520.873 28.2039 520.02 28.2039 519.1C28.2039 518.18 28.4306 517.333 28.8839 516.56C29.3506 515.773 29.9706 515.153 30.7439 514.7C31.5306 514.233 32.3839 514 33.3039 514C34.1839 514 34.9972 514.22 35.7439 514.66C36.5039 515.1 37.1039 515.7 37.5439 516.46C37.9839 517.207 38.2039 518.02 38.2039 518.9C38.2039 519.34 38.1706 519.74 38.1039 520.1H31.0039C31.1639 520.593 31.4572 521 31.8839 521.32C32.3239 521.64 32.8972 521.8 33.6039 521.8C34.1639 521.8 34.6639 521.74 35.1039 521.62C35.5572 521.487 35.9239 521.333 36.2039 521.16L37.6039 523.06ZM35.4039 518.1C35.2439 517.62 34.9639 517.22 34.5639 516.9C34.1772 516.567 33.7239 516.4 33.2039 516.4C32.6839 516.4 32.2239 516.567 31.8239 516.9C31.4372 517.22 31.1639 517.62 31.0039 518.1H35.4039ZM39.3102 514.4H41.0102V511.4H43.7102V514.4H46.1102V516.9H43.7102V520.28C43.7102 520.72 43.8235 521.047 44.0502 521.26C44.2768 521.473 44.5968 521.58 45.0102 521.58H46.1102V524H44.3102C43.2835 524 42.4768 523.713 41.8902 523.14C41.3035 522.567 41.0102 521.72 41.0102 520.6V516.9H39.3102V514.4ZM51.718 510.9L48.918 515.2L47.318 514.3L49.418 509.6L51.718 510.9ZM54.0133 520.7C54.3199 521.007 54.6999 521.267 55.1533 521.48C55.6066 521.693 56.0933 521.8 56.6133 521.8C57.4133 521.8 57.8133 521.567 57.8133 521.1C57.8133 520.913 57.6866 520.76 57.4333 520.64C57.1933 520.507 56.8066 520.353 56.2733 520.18C55.5799 519.94 54.9999 519.713 54.5333 519.5C54.0666 519.273 53.6599 518.96 53.3133 518.56C52.9799 518.147 52.8133 517.627 52.8133 517C52.8133 516.453 52.9666 515.953 53.2733 515.5C53.5799 515.047 54.0266 514.687 54.6133 514.42C55.2133 514.14 55.9133 514 56.7133 514C57.5266 514 58.2599 514.147 58.9133 514.44C59.5799 514.733 60.1133 515.087 60.5133 515.5L58.9133 517.2C58.6733 516.973 58.3599 516.787 57.9733 516.64C57.5866 516.48 57.1666 516.4 56.7133 516.4C56.3799 516.4 56.1266 516.46 55.9533 516.58C55.7933 516.7 55.7133 516.84 55.7133 517C55.7133 517.187 55.8333 517.347 56.0733 517.48C56.3266 517.6 56.7199 517.747 57.2533 517.92C57.9466 518.16 58.5266 518.393 58.9933 518.62C59.4599 518.833 59.8599 519.147 60.1933 519.56C60.5399 519.96 60.7133 520.473 60.7133 521.1C60.7133 521.673 60.5533 522.2 60.2333 522.68C59.9266 523.147 59.4599 523.52 58.8333 523.8C58.2199 524.067 57.4799 524.2 56.6133 524.2C55.7333 524.2 54.9266 524.027 54.1933 523.68C53.4599 523.333 52.8666 522.907 52.4133 522.4L54.0133 520.7ZM67.7242 520.7C68.0309 521.007 68.4109 521.267 68.8642 521.48C69.3176 521.693 69.8042 521.8 70.3242 521.8C71.1242 521.8 71.5242 521.567 71.5242 521.1C71.5242 520.913 71.3976 520.76 71.1442 520.64C70.9042 520.507 70.5176 520.353 69.9842 520.18C69.2909 519.94 68.7109 519.713 68.2442 519.5C67.7776 519.273 67.3709 518.96 67.0242 518.56C66.6909 518.147 66.5242 517.627 66.5242 517C66.5242 516.453 66.6776 515.953 66.9842 515.5C67.2909 515.047 67.7376 514.687 68.3242 514.42C68.9242 514.14 69.6242 514 70.4242 514C71.2376 514 71.9709 514.147 72.6242 514.44C73.2909 514.733 73.8242 515.087 74.2242 515.5L72.6242 517.2C72.3842 516.973 72.0709 516.787 71.6842 516.64C71.2976 516.48 70.8776 516.4 70.4242 516.4C70.0909 516.4 69.8376 516.46 69.6642 516.58C69.5042 516.7 69.4242 516.84 69.4242 517C69.4242 517.187 69.5442 517.347 69.7842 517.48C70.0376 517.6 70.4309 517.747 70.9642 517.92C71.6576 518.16 72.2376 518.393 72.7042 518.62C73.1709 518.833 73.5709 519.147 73.9042 519.56C74.2509 519.96 74.4242 520.473 74.4242 521.1C74.4242 521.673 74.2642 522.2 73.9442 522.68C73.6376 523.147 73.1709 523.52 72.5442 523.8C71.9309 524.067 71.1909 524.2 70.3242 524.2C69.4442 524.2 68.6376 524.027 67.9042 523.68C67.1709 523.333 66.5776 522.907 66.1242 522.4L67.7242 520.7ZM75.3258 514.4H77.0258V511.4H79.7258V514.4H82.1258V516.9H79.7258V520.28C79.7258 520.72 79.8391 521.047 80.0658 521.26C80.2924 521.473 80.6124 521.58 81.0258 521.58H82.1258V524H80.3258C79.2991 524 78.4924 523.713 77.9058 523.14C77.3191 522.567 77.0258 521.72 77.0258 520.6V516.9H75.3258V514.4ZM89.4383 522.8C89.1316 523.187 88.7249 523.52 88.2183 523.8C87.7249 524.067 87.1649 524.2 86.5383 524.2C85.6449 524.2 84.9183 523.94 84.3583 523.42C83.8116 522.887 83.5383 522.213 83.5383 521.4C83.5383 520.573 83.7983 519.867 84.3183 519.28C84.8516 518.693 85.5583 518.353 86.4383 518.26L89.5383 517.96C89.4849 517.56 89.3049 517.2 88.9983 516.88C88.6916 516.56 88.3049 516.4 87.8383 516.4C87.3849 516.4 86.9649 516.453 86.5783 516.56C86.1916 516.653 85.8783 516.767 85.6383 516.9L84.0383 515.3C84.4649 514.94 85.0249 514.633 85.7183 514.38C86.4116 514.127 87.1849 514 88.0383 514C88.8516 514 89.5783 514.173 90.2183 514.52C90.8583 514.853 91.3516 515.32 91.6983 515.92C92.0583 516.507 92.2383 517.167 92.2383 517.9V524H89.5383V522.8H89.4383ZM87.3383 519.94C87.0049 519.953 86.7383 520.067 86.5383 520.28C86.3383 520.493 86.2383 520.733 86.2383 521C86.2383 521.307 86.3383 521.553 86.5383 521.74C86.7516 521.913 87.0516 522 87.4383 522C88.0649 522 88.5716 521.833 88.9583 521.5C89.3449 521.167 89.5383 520.687 89.5383 520.06V519.86L87.3383 519.94ZM97.2461 515.3H97.3461C97.5328 514.993 97.8328 514.733 98.2461 514.52C98.6594 514.307 99.1794 514.2 99.8061 514.2H100.446V516.8H99.5461C98.8794 516.8 98.3261 517.04 97.8861 517.52C97.4594 517.987 97.2461 518.613 97.2461 519.4V524H94.5461V514.2H97.2461V515.3ZM101.244 514.4H102.944V511.4H105.644V514.4H108.044V516.9H105.644V520.28C105.644 520.72 105.757 521.047 105.984 521.26C106.21 521.473 106.53 521.58 106.944 521.58H108.044V524H106.244C105.217 524 104.41 523.713 103.824 523.14C103.237 522.567 102.944 521.72 102.944 520.6V516.9H101.244V514.4ZM115.87 514.2L117.67 520H117.77L119.67 514.2H121.87L123.77 520H123.87L125.67 514.2H128.57L125.13 524H122.67L120.81 518.3H120.73L118.87 524H116.41L112.97 514.2H115.87ZM129.561 511.4C129.561 511 129.714 510.653 130.021 510.36C130.328 510.053 130.694 509.9 131.121 509.9C131.534 509.9 131.894 510.053 132.201 510.36C132.508 510.653 132.661 511 132.661 511.4C132.661 511.8 132.508 512.153 132.201 512.46C131.894 512.753 131.528 512.9 131.101 512.9C130.688 512.9 130.328 512.753 130.021 512.46C129.714 512.153 129.561 511.8 129.561 511.4ZM132.461 514.2V524H129.761V514.2H132.461ZM134.154 514.4H135.854V511.4H138.554V514.4H140.954V516.9H138.554V520.28C138.554 520.72 138.667 521.047 138.894 521.26C139.121 521.473 139.441 521.58 139.854 521.58H140.954V524H139.154C138.127 524 137.321 523.713 136.734 523.14C136.147 522.567 135.854 521.72 135.854 520.6V516.9H134.154V514.4ZM145.862 515.6H145.962C146.268 515.16 146.668 514.787 147.162 514.48C147.668 514.16 148.235 514 148.862 514C149.528 514 150.135 514.173 150.682 514.52C151.228 514.853 151.662 515.333 151.982 515.96C152.302 516.573 152.462 517.287 152.462 518.1V524H149.762V518.5C149.762 517.9 149.602 517.433 149.282 517.1C148.962 516.767 148.522 516.6 147.962 516.6C147.362 516.6 146.862 516.807 146.462 517.22C146.062 517.633 145.862 518.16 145.862 518.8V524H143.162V510H145.862V515.6ZM158.763 514.4H160.463V511.4H163.163V514.4H165.563V516.9H163.163V520.28C163.163 520.72 163.277 521.047 163.503 521.26C163.73 521.473 164.05 521.58 164.463 521.58H165.563V524H163.763C162.737 524 161.93 523.713 161.343 523.14C160.757 522.567 160.463 521.72 160.463 520.6V516.9H158.763V514.4ZM170.471 515.6H170.571C170.878 515.16 171.278 514.787 171.771 514.48C172.278 514.16 172.844 514 173.471 514C174.138 514 174.744 514.173 175.291 514.52C175.838 514.853 176.271 515.333 176.591 515.96C176.911 516.573 177.071 517.287 177.071 518.1V524H174.371V518.5C174.371 517.9 174.211 517.433 173.891 517.1C173.571 516.767 173.131 516.6 172.571 516.6C171.971 516.6 171.471 516.807 171.071 517.22C170.671 517.633 170.471 518.16 170.471 518.8V524H167.771V510H170.471V515.6ZM188.463 523.06C188.01 523.38 187.417 523.653 186.683 523.88C185.95 524.093 185.143 524.2 184.263 524.2C183.317 524.2 182.443 523.973 181.643 523.52C180.843 523.053 180.21 522.433 179.743 521.66C179.29 520.873 179.063 520.02 179.063 519.1C179.063 518.18 179.29 517.333 179.743 516.56C180.21 515.773 180.83 515.153 181.603 514.7C182.39 514.233 183.243 514 184.163 514C185.043 514 185.857 514.22 186.603 514.66C187.363 515.1 187.963 515.7 188.403 516.46C188.843 517.207 189.063 518.02 189.063 518.9C189.063 519.34 189.03 519.74 188.963 520.1H181.863C182.023 520.593 182.317 521 182.743 521.32C183.183 521.64 183.757 521.8 184.463 521.8C185.023 521.8 185.523 521.74 185.963 521.62C186.417 521.487 186.783 521.333 187.063 521.16L188.463 523.06ZM186.263 518.1C186.103 517.62 185.823 517.22 185.423 516.9C185.037 516.567 184.583 516.4 184.063 516.4C183.543 516.4 183.083 516.567 182.683 516.9C182.297 517.22 182.023 517.62 181.863 518.1H186.263ZM198.479 515.6H198.579C198.886 515.16 199.306 514.787 199.839 514.48C200.372 514.16 200.986 514 201.679 514C202.452 514 203.172 514.22 203.839 514.66C204.519 515.1 205.059 515.707 205.459 516.48C205.872 517.253 206.079 518.127 206.079 519.1C206.079 520.073 205.872 520.947 205.459 521.72C205.059 522.493 204.519 523.1 203.839 523.54C203.172 523.98 202.452 524.2 201.679 524.2C200.986 524.2 200.372 524.047 199.839 523.74C199.306 523.42 198.886 523.04 198.579 522.6H198.479V524H195.779V510H198.479V515.6ZM200.879 521.7C201.586 521.7 202.179 521.453 202.659 520.96C203.139 520.467 203.379 519.847 203.379 519.1C203.379 518.353 203.139 517.733 202.659 517.24C202.179 516.747 201.586 516.5 200.879 516.5C200.172 516.5 199.579 516.747 199.099 517.24C198.619 517.733 198.379 518.353 198.379 519.1C198.379 519.847 198.619 520.467 199.099 520.96C199.579 521.453 200.172 521.7 200.879 521.7ZM213.481 522.8C213.175 523.187 212.768 523.52 212.261 523.8C211.768 524.067 211.208 524.2 210.581 524.2C209.688 524.2 208.961 523.94 208.401 523.42C207.855 522.887 207.581 522.213 207.581 521.4C207.581 520.573 207.841 519.867 208.361 519.28C208.895 518.693 209.601 518.353 210.481 518.26L213.581 517.96C213.528 517.56 213.348 517.2 213.041 516.88C212.735 516.56 212.348 516.4 211.881 516.4C211.428 516.4 211.008 516.453 210.621 516.56C210.235 516.653 209.921 516.767 209.681 516.9L208.081 515.3C208.508 514.94 209.068 514.633 209.761 514.38C210.455 514.127 211.228 514 212.081 514C212.895 514 213.621 514.173 214.261 514.52C214.901 514.853 215.395 515.32 215.741 515.92C216.101 516.507 216.281 517.167 216.281 517.9V524H213.581V522.8H213.481ZM211.381 519.94C211.048 519.953 210.781 520.067 210.581 520.28C210.381 520.493 210.281 520.733 210.281 521C210.281 521.307 210.381 521.553 210.581 521.74C210.795 521.913 211.095 522 211.481 522C212.108 522 212.615 521.833 213.001 521.5C213.388 521.167 213.581 520.687 213.581 520.06V519.86L211.381 519.94ZM219.189 520.7C219.496 521.007 219.876 521.267 220.329 521.48C220.782 521.693 221.269 521.8 221.789 521.8C222.589 521.8 222.989 521.567 222.989 521.1C222.989 520.913 222.862 520.76 222.609 520.64C222.369 520.507 221.982 520.353 221.449 520.18C220.756 519.94 220.176 519.713 219.709 519.5C219.242 519.273 218.836 518.96 218.489 518.56C218.156 518.147 217.989 517.627 217.989 517C217.989 516.453 218.142 515.953 218.449 515.5C218.756 515.047 219.202 514.687 219.789 514.42C220.389 514.14 221.089 514 221.889 514C222.702 514 223.436 514.147 224.089 514.44C224.756 514.733 225.289 515.087 225.689 515.5L224.089 517.2C223.849 516.973 223.536 516.787 223.149 516.64C222.762 516.48 222.342 516.4 221.889 516.4C221.556 516.4 221.302 516.46 221.129 516.58C220.969 516.7 220.889 516.84 220.889 517C220.889 517.187 221.009 517.347 221.249 517.48C221.502 517.6 221.896 517.747 222.429 517.92C223.122 518.16 223.702 518.393 224.169 518.62C224.636 518.833 225.036 519.147 225.369 519.56C225.716 519.96 225.889 520.473 225.889 521.1C225.889 521.673 225.729 522.2 225.409 522.68C225.102 523.147 224.636 523.52 224.009 523.8C223.396 524.067 222.656 524.2 221.789 524.2C220.909 524.2 220.102 524.027 219.369 523.68C218.636 523.333 218.042 522.907 217.589 522.4L219.189 520.7ZM227.491 511.4C227.491 511 227.644 510.653 227.951 510.36C228.257 510.053 228.624 509.9 229.051 509.9C229.464 509.9 229.824 510.053 230.131 510.36C230.437 510.653 230.591 511 230.591 511.4C230.591 511.8 230.437 512.153 230.131 512.46C229.824 512.753 229.457 512.9 229.031 512.9C228.617 512.9 228.257 512.753 227.951 512.46C227.644 512.153 227.491 511.8 227.491 511.4ZM230.391 514.2V524H227.691V514.2H230.391ZM241.684 522.2C241.284 522.76 240.73 523.233 240.024 523.62C239.317 524.007 238.504 524.2 237.584 524.2C236.637 524.2 235.764 523.973 234.964 523.52C234.164 523.053 233.53 522.433 233.064 521.66C232.61 520.873 232.384 520.02 232.384 519.1C232.384 518.18 232.61 517.333 233.064 516.56C233.53 515.773 234.164 515.153 234.964 514.7C235.764 514.233 236.637 514 237.584 514C238.504 514 239.317 514.193 240.024 514.58C240.73 514.967 241.284 515.44 241.684 516L239.984 517.7C239.717 517.367 239.37 517.087 238.944 516.86C238.53 516.62 238.077 516.5 237.584 516.5C236.877 516.5 236.284 516.747 235.804 517.24C235.324 517.733 235.084 518.353 235.084 519.1C235.084 519.847 235.324 520.467 235.804 520.96C236.284 521.453 236.877 521.7 237.584 521.7C238.077 521.7 238.53 521.587 238.944 521.36C239.37 521.12 239.717 520.833 239.984 520.5L241.684 522.2ZM243.974 520.7C244.281 521.007 244.661 521.267 245.114 521.48C245.568 521.693 246.054 521.8 246.574 521.8C247.374 521.8 247.774 521.567 247.774 521.1C247.774 520.913 247.648 520.76 247.394 520.64C247.154 520.507 246.768 520.353 246.234 520.18C245.541 519.94 244.961 519.713 244.494 519.5C244.028 519.273 243.621 518.96 243.274 518.56C242.941 518.147 242.774 517.627 242.774 517C242.774 516.453 242.928 515.953 243.234 515.5C243.541 515.047 243.988 514.687 244.574 514.42C245.174 514.14 245.874 514 246.674 514C247.488 514 248.221 514.147 248.874 514.44C249.541 514.733 250.074 515.087 250.474 515.5L248.874 517.2C248.634 516.973 248.321 516.787 247.934 516.64C247.548 516.48 247.128 516.4 246.674 516.4C246.341 516.4 246.088 516.46 245.914 516.58C245.754 516.7 245.674 516.84 245.674 517C245.674 517.187 245.794 517.347 246.034 517.48C246.288 517.6 246.681 517.747 247.214 517.92C247.908 518.16 248.488 518.393 248.954 518.62C249.421 518.833 249.821 519.147 250.154 519.56C250.501 519.96 250.674 520.473 250.674 521.1C250.674 521.673 250.514 522.2 250.194 522.68C249.888 523.147 249.421 523.52 248.794 523.8C248.181 524.067 247.441 524.2 246.574 524.2C245.694 524.2 244.888 524.027 244.154 523.68C243.421 523.333 242.828 522.907 242.374 522.4L243.974 520.7Z" fill="#25272E"/>
<g filter="url(#filter0_d)">
<path d="M0 626.79C0 604.58 0 593.475 4.39088 585.022C8.09102 577.899 13.8989 572.091 21.022 568.391C29.4748 564 40.5799 564 62.79 564H312.21C334.42 564 345.525 564 353.978 568.391C361.101 572.091 366.909 577.899 370.609 585.022C375 593.475 375 604.58 375 626.79V812H0V626.79Z" fill="white"/>
<g opacity="0.3">
<circle cx="331" cy="737" r="28" fill="#25272E"/>
<path d="M344.527 738.022C343.903 738.568 336.745 745.804 336.745 745.804C335.859 746.579 334.471 745.95 334.471 744.772V739.498L319.923 739.498C318.574 739.498 317.48 738.375 317.48 736.99C317.48 735.604 318.574 734.481 319.923 734.481L334.471 734.481L334.471 729.208C334.471 728.03 335.859 727.4 336.745 728.176C336.745 728.176 343.903 735.411 344.527 735.958C345.152 736.504 345.152 737.475 344.527 738.022Z" fill="white"/>
</g>
<path d="M209.01 610.18C208.581 610.731 208.011 611.197 207.302 611.58C206.602 611.953 205.818 612.14 204.95 612.14C203.989 612.14 203.111 611.916 202.318 611.468C201.525 611.02 200.899 610.413 200.442 609.648C199.994 608.873 199.77 608.024 199.77 607.1C199.77 606.176 199.994 605.331 200.442 604.566C200.899 603.791 201.525 603.18 202.318 602.732C203.111 602.284 203.989 602.06 204.95 602.06C205.818 602.06 206.597 602.247 207.288 602.62C207.979 602.984 208.529 603.427 208.94 603.95L207.96 604.93C207.661 604.519 207.251 604.174 206.728 603.894C206.205 603.605 205.613 603.46 204.95 603.46C204.287 603.46 203.676 603.623 203.116 603.95C202.556 604.267 202.113 604.706 201.786 605.266C201.469 605.826 201.31 606.437 201.31 607.1C201.31 607.763 201.469 608.374 201.786 608.934C202.113 609.494 202.556 609.937 203.116 610.264C203.676 610.581 204.287 610.74 204.95 610.74C205.613 610.74 206.21 610.591 206.742 610.292C207.283 609.993 207.713 609.629 208.03 609.2L209.01 610.18ZM209.855 608.64C209.855 607.996 210.009 607.408 210.317 606.876C210.625 606.335 211.045 605.91 211.577 605.602C212.118 605.294 212.711 605.14 213.355 605.14C213.999 605.14 214.587 605.294 215.119 605.602C215.66 605.91 216.085 606.335 216.393 606.876C216.701 607.408 216.855 607.996 216.855 608.64C216.855 609.284 216.701 609.877 216.393 610.418C216.085 610.95 215.66 611.37 215.119 611.678C214.587 611.986 213.999 612.14 213.355 612.14C212.711 612.14 212.118 611.986 211.577 611.678C211.045 611.37 210.625 610.95 210.317 610.418C210.009 609.877 209.855 609.284 209.855 608.64ZM213.355 610.81C213.747 610.81 214.102 610.717 214.419 610.53C214.746 610.343 214.998 610.087 215.175 609.76C215.362 609.424 215.455 609.051 215.455 608.64C215.455 608.229 215.362 607.861 215.175 607.534C214.998 607.198 214.746 606.937 214.419 606.75C214.102 606.563 213.747 606.47 213.355 606.47C212.963 606.47 212.604 606.563 212.277 606.75C211.96 606.937 211.708 607.198 211.521 607.534C211.344 607.861 211.255 608.229 211.255 608.64C211.255 609.051 211.344 609.424 211.521 609.76C211.708 610.087 211.96 610.343 212.277 610.53C212.604 610.717 212.963 610.81 213.355 610.81ZM219.096 605.28L220.986 610.25L222.876 605.28H224.416L221.756 612H220.216L217.556 605.28H219.096ZM231.483 611.048C231.203 611.356 230.815 611.617 230.321 611.832C229.826 612.037 229.257 612.14 228.613 612.14C227.969 612.14 227.376 611.986 226.835 611.678C226.303 611.37 225.883 610.95 225.575 610.418C225.267 609.877 225.113 609.284 225.113 608.64C225.113 607.996 225.267 607.408 225.575 606.876C225.883 606.344 226.298 605.924 226.821 605.616C227.343 605.299 227.917 605.14 228.543 605.14C229.168 605.14 229.728 605.285 230.223 605.574C230.727 605.854 231.119 606.246 231.399 606.75C231.688 607.245 231.833 607.805 231.833 608.43C231.833 608.691 231.809 608.925 231.763 609.13H226.583C226.657 609.597 226.891 609.993 227.283 610.32C227.675 610.647 228.141 610.81 228.683 610.81C229.075 610.81 229.439 610.74 229.775 610.6C230.12 610.451 230.409 610.273 230.643 610.068L231.483 611.048ZM230.363 607.94C230.251 607.473 230.036 607.1 229.719 606.82C229.411 606.54 229.019 606.4 228.543 606.4C228.039 606.4 227.623 606.54 227.297 606.82C226.97 607.091 226.732 607.464 226.583 607.94H230.363ZM234.767 606.19C234.953 605.938 235.201 605.723 235.509 605.546C235.826 605.369 236.185 605.28 236.587 605.28H237.147V606.54H236.587C236.26 606.54 235.957 606.629 235.677 606.806C235.397 606.974 235.173 607.217 235.005 607.534C234.846 607.842 234.767 608.187 234.767 608.57V612H233.367V605.28H234.767V606.19ZM242.332 611.02C242.117 611.328 241.823 611.594 241.45 611.818C241.076 612.033 240.647 612.14 240.162 612.14C239.732 612.14 239.345 612.051 239 611.874C238.664 611.697 238.398 611.459 238.202 611.16C238.015 610.852 237.922 610.525 237.922 610.18C237.922 609.611 238.104 609.121 238.468 608.71C238.841 608.29 239.322 608.057 239.91 608.01L242.332 607.814C242.332 607.45 242.196 607.123 241.926 606.834C241.664 606.545 241.333 606.4 240.932 606.4C240.586 606.4 240.264 606.451 239.966 606.554C239.667 606.647 239.415 606.764 239.21 606.904L238.3 605.994C238.57 605.751 238.934 605.551 239.392 605.392C239.849 605.224 240.362 605.14 240.932 605.14C241.482 605.14 241.968 605.252 242.388 605.476C242.817 605.7 243.148 606.013 243.382 606.414C243.615 606.806 243.732 607.245 243.732 607.73V612H242.332V611.02ZM240.372 609.13C240.036 609.167 239.774 609.275 239.588 609.452C239.41 609.62 239.322 609.816 239.322 610.04C239.322 610.292 239.424 610.507 239.63 610.684C239.835 610.861 240.106 610.95 240.442 610.95C240.983 610.95 241.431 610.787 241.786 610.46C242.15 610.133 242.332 609.695 242.332 609.144V608.934L240.372 609.13ZM246.182 612.77C246.396 613.003 246.667 613.199 246.994 613.358C247.32 613.526 247.68 613.61 248.072 613.61C248.706 613.61 249.215 613.414 249.598 613.022C249.98 612.63 250.172 612.103 250.172 611.44V610.81C249.957 611.099 249.663 611.347 249.29 611.552C248.916 611.757 248.487 611.86 248.002 611.86C247.47 611.86 246.97 611.715 246.504 611.426C246.046 611.137 245.678 610.735 245.398 610.222C245.127 609.709 244.992 609.135 244.992 608.5C244.992 607.865 245.127 607.291 245.398 606.778C245.678 606.265 246.046 605.863 246.504 605.574C246.97 605.285 247.47 605.14 248.002 605.14C248.487 605.14 248.916 605.243 249.29 605.448C249.663 605.653 249.957 605.901 250.172 606.19V605.28H251.572V611.44C251.572 612.112 251.422 612.714 251.124 613.246C250.825 613.778 250.41 614.193 249.878 614.492C249.346 614.791 248.744 614.94 248.072 614.94C247.456 614.94 246.896 614.819 246.392 614.576C245.897 614.333 245.5 614.035 245.202 613.68L246.182 612.77ZM248.282 610.53C248.627 610.53 248.944 610.446 249.234 610.278C249.523 610.101 249.752 609.858 249.92 609.55C250.088 609.242 250.172 608.892 250.172 608.5C250.172 608.108 250.088 607.758 249.92 607.45C249.752 607.142 249.523 606.904 249.234 606.736C248.944 606.559 248.627 606.47 248.282 606.47C247.936 606.47 247.619 606.559 247.33 606.736C247.04 606.904 246.812 607.142 246.644 607.45C246.476 607.758 246.392 608.108 246.392 608.5C246.392 608.892 246.476 609.242 246.644 609.55C246.812 609.858 247.04 610.101 247.33 610.278C247.619 610.446 247.936 610.53 248.282 610.53ZM259.483 611.048C259.203 611.356 258.815 611.617 258.321 611.832C257.826 612.037 257.257 612.14 256.613 612.14C255.969 612.14 255.376 611.986 254.835 611.678C254.303 611.37 253.883 610.95 253.575 610.418C253.267 609.877 253.113 609.284 253.113 608.64C253.113 607.996 253.267 607.408 253.575 606.876C253.883 606.344 254.298 605.924 254.821 605.616C255.343 605.299 255.917 605.14 256.543 605.14C257.168 605.14 257.728 605.285 258.223 605.574C258.727 605.854 259.119 606.246 259.399 606.75C259.688 607.245 259.833 607.805 259.833 608.43C259.833 608.691 259.809 608.925 259.763 609.13H254.583C254.657 609.597 254.891 609.993 255.283 610.32C255.675 610.647 256.141 610.81 256.683 610.81C257.075 610.81 257.439 610.74 257.775 610.6C258.12 610.451 258.409 610.273 258.643 610.068L259.483 611.048ZM258.363 607.94C258.251 607.473 258.036 607.1 257.719 606.82C257.411 606.54 257.019 606.4 256.543 606.4C256.039 606.4 255.623 606.54 255.297 606.82C254.97 607.091 254.732 607.464 254.583 607.94H258.363ZM264.74 613.61C265.011 613.61 265.249 613.531 265.454 613.372C265.659 613.213 265.818 612.989 265.93 612.7L266.21 612L263.48 605.28H265.02L266.91 610.25L268.8 605.28H270.34L267.4 612.77C267.111 613.489 266.765 614.03 266.364 614.394C265.972 614.758 265.501 614.94 264.95 614.94H263.9V613.61H264.74ZM277.407 611.048C277.127 611.356 276.739 611.617 276.245 611.832C275.75 612.037 275.181 612.14 274.537 612.14C273.893 612.14 273.3 611.986 272.759 611.678C272.227 611.37 271.807 610.95 271.499 610.418C271.191 609.877 271.037 609.284 271.037 608.64C271.037 607.996 271.191 607.408 271.499 606.876C271.807 606.344 272.222 605.924 272.745 605.616C273.267 605.299 273.841 605.14 274.467 605.14C275.092 605.14 275.652 605.285 276.147 605.574C276.651 605.854 277.043 606.246 277.323 606.75C277.612 607.245 277.757 607.805 277.757 608.43C277.757 608.691 277.733 608.925 277.687 609.13H272.507C272.581 609.597 272.815 609.993 273.207 610.32C273.599 610.647 274.065 610.81 274.607 610.81C274.999 610.81 275.363 610.74 275.699 610.6C276.044 610.451 276.333 610.273 276.567 610.068L277.407 611.048ZM276.287 607.94C276.175 607.473 275.96 607.1 275.643 606.82C275.335 606.54 274.943 606.4 274.467 606.4C273.963 606.4 273.547 606.54 273.221 606.82C272.894 607.091 272.656 607.464 272.507 607.94H276.287ZM283.211 611.02C282.996 611.328 282.702 611.594 282.329 611.818C281.955 612.033 281.526 612.14 281.041 612.14C280.611 612.14 280.224 612.051 279.879 611.874C279.543 611.697 279.277 611.459 279.081 611.16C278.894 610.852 278.801 610.525 278.801 610.18C278.801 609.611 278.983 609.121 279.347 608.71C279.72 608.29 280.201 608.057 280.789 608.01L283.211 607.814C283.211 607.45 283.075 607.123 282.805 606.834C282.543 606.545 282.212 606.4 281.811 606.4C281.465 606.4 281.143 606.451 280.845 606.554C280.546 606.647 280.294 606.764 280.089 606.904L279.179 605.994C279.449 605.751 279.813 605.551 280.271 605.392C280.728 605.224 281.241 605.14 281.811 605.14C282.361 605.14 282.847 605.252 283.267 605.476C283.696 605.7 284.027 606.013 284.261 606.414C284.494 606.806 284.611 607.245 284.611 607.73V612H283.211V611.02ZM281.251 609.13C280.915 609.167 280.653 609.275 280.467 609.452C280.289 609.62 280.201 609.816 280.201 610.04C280.201 610.292 280.303 610.507 280.509 610.684C280.714 610.861 280.985 610.95 281.321 610.95C281.862 610.95 282.31 610.787 282.665 610.46C283.029 610.133 283.211 609.695 283.211 609.144V608.934L281.251 609.13ZM287.691 606.19C287.877 605.938 288.125 605.723 288.433 605.546C288.75 605.369 289.109 605.28 289.511 605.28H290.071V606.54H289.511C289.184 606.54 288.881 606.629 288.601 606.806C288.321 606.974 288.097 607.217 287.929 607.534C287.77 607.842 287.691 608.187 287.691 608.57V612H286.291V605.28H287.691V606.19Z" fill="#25272E"/>
<path d="M199 640C199 633.373 204.373 628 211 628H273C275.209 628 277 629.791 277 632V672C277 674.209 275.209 676 273 676H211C204.373 676 199 670.627 199 664V640Z" fill="#F8F9FA"/>
<path d="M218.968 657C218.968 656.2 219.128 655.501 219.448 654.904C219.768 654.307 220.157 653.816 220.616 653.432C221.075 653.037 221.672 652.589 222.408 652.088C222.984 651.704 223.443 651.373 223.784 651.096C224.125 650.819 224.408 650.499 224.632 650.136C224.856 649.773 224.968 649.368 224.968 648.92C224.968 648.269 224.755 647.747 224.328 647.352C223.901 646.957 223.315 646.76 222.568 646.76C221.917 646.76 221.389 646.947 220.984 647.32C220.579 647.693 220.307 648.147 220.168 648.68L219.128 648.2C219.32 647.485 219.704 646.883 220.28 646.392C220.867 645.891 221.629 645.64 222.568 645.64C223.272 645.64 223.896 645.784 224.44 646.072C224.984 646.36 225.405 646.755 225.704 647.256C226.013 647.757 226.168 648.312 226.168 648.92C226.168 649.507 226.035 650.029 225.768 650.488C225.501 650.947 225.171 651.347 224.776 651.688C224.381 652.019 223.859 652.408 223.208 652.856C222.653 653.24 222.211 653.565 221.88 653.832C221.549 654.088 221.24 654.392 220.952 654.744C220.675 655.085 220.467 655.464 220.328 655.88H226.168V657H218.968ZM232.581 657.16C231.792 657.16 231.05 656.925 230.357 656.456C229.674 655.987 229.125 655.32 228.709 654.456C228.293 653.581 228.085 652.563 228.085 651.4C228.085 650.248 228.293 649.235 228.709 648.36C229.125 647.485 229.674 646.813 230.357 646.344C231.04 645.875 231.776 645.64 232.565 645.64C233.354 645.64 234.09 645.875 234.773 646.344C235.456 646.813 236.005 647.485 236.421 648.36C236.837 649.235 237.045 650.248 237.045 651.4C237.045 652.552 236.837 653.565 236.421 654.44C236.005 655.315 235.456 655.987 234.773 656.456C234.09 656.925 233.36 657.16 232.581 657.16ZM232.581 656.04C233.157 656.04 233.69 655.859 234.181 655.496C234.682 655.133 235.082 654.605 235.381 653.912C235.69 653.208 235.845 652.371 235.845 651.4C235.845 650.429 235.69 649.592 235.381 648.888C235.082 648.184 234.682 647.656 234.181 647.304C233.68 646.941 233.141 646.76 232.565 646.76C231.989 646.76 231.45 646.941 230.949 647.304C230.448 647.656 230.042 648.184 229.733 648.888C229.434 649.592 229.285 650.429 229.285 651.4C229.285 652.371 229.434 653.208 229.733 653.912C230.042 654.616 230.448 655.149 230.949 655.512C231.461 655.864 232.005 656.04 232.581 656.04ZM238.64 657C238.64 656.2 238.8 655.501 239.12 654.904C239.44 654.307 239.829 653.816 240.288 653.432C240.747 653.037 241.344 652.589 242.08 652.088C242.656 651.704 243.115 651.373 243.456 651.096C243.797 650.819 244.08 650.499 244.304 650.136C244.528 649.773 244.64 649.368 244.64 648.92C244.64 648.269 244.427 647.747 244 647.352C243.573 646.957 242.987 646.76 242.24 646.76C241.589 646.76 241.061 646.947 240.656 647.32C240.251 647.693 239.979 648.147 239.84 648.68L238.8 648.2C238.992 647.485 239.376 646.883 239.952 646.392C240.539 645.891 241.301 645.64 242.24 645.64C242.944 645.64 243.568 645.784 244.112 646.072C244.656 646.36 245.077 646.755 245.376 647.256C245.685 647.757 245.84 648.312 245.84 648.92C245.84 649.507 245.707 650.029 245.44 650.488C245.173 650.947 244.843 651.347 244.448 651.688C244.053 652.019 243.531 652.408 242.88 652.856C242.325 653.24 241.883 653.565 241.552 653.832C241.221 654.088 240.912 654.392 240.624 654.744C240.347 655.085 240.139 655.464 240 655.88H245.84V657H238.64ZM252.253 657.16C251.464 657.16 250.722 656.925 250.029 656.456C249.346 655.987 248.797 655.32 248.381 654.456C247.965 653.581 247.757 652.563 247.757 651.4C247.757 650.248 247.965 649.235 248.381 648.36C248.797 647.485 249.346 646.813 250.029 646.344C250.712 645.875 251.448 645.64 252.237 645.64C253.026 645.64 253.762 645.875 254.445 646.344C255.128 646.813 255.677 647.485 256.093 648.36C256.509 649.235 256.717 650.248 256.717 651.4C256.717 652.552 256.509 653.565 256.093 654.44C255.677 655.315 255.128 655.987 254.445 656.456C253.762 656.925 253.032 657.16 252.253 657.16ZM252.253 656.04C252.829 656.04 253.362 655.859 253.853 655.496C254.354 655.133 254.754 654.605 255.053 653.912C255.362 653.208 255.517 652.371 255.517 651.4C255.517 650.429 255.362 649.592 255.053 648.888C254.754 648.184 254.354 647.656 253.853 647.304C253.352 646.941 252.813 646.76 252.237 646.76C251.661 646.76 251.122 646.941 250.621 647.304C250.12 647.656 249.714 648.184 249.405 648.888C249.106 649.592 248.957 650.429 248.957 651.4C248.957 652.371 249.106 653.208 249.405 653.912C249.714 654.616 250.12 655.149 250.621 655.512C251.133 655.864 251.677 656.04 252.253 656.04Z" fill="#25272E"/>
<path d="M281 632C281 629.791 282.791 628 285 628H347C353.627 628 359 633.373 359 640V664C359 670.627 353.627 676 347 676H285C282.791 676 281 674.209 281 672V632Z" fill="#E4F0F0"/>
<path fill-rule="evenodd" clip-rule="evenodd" d="M347 630H285C283.895 630 283 630.895 283 632V672C283 673.105 283.895 674 285 674H347C352.523 674 357 669.523 357 664V640C357 634.477 352.523 630 347 630ZM285 628C282.791 628 281 629.791 281 632V672C281 674.209 282.791 676 285 676H347C353.627 676 359 670.627 359 664V640C359 633.373 353.627 628 347 628H285Z" fill="#A9C0C4"/>
<path d="M303.121 657.001C303.121 656.105 303.286 655.331 303.617 654.681C303.958 654.03 304.364 653.502 304.833 653.097C305.302 652.681 305.91 652.222 306.657 651.721C307.18 651.369 307.585 651.081 307.873 650.857C308.161 650.622 308.401 650.361 308.593 650.073C308.785 649.774 308.881 649.443 308.881 649.081C308.881 648.547 308.705 648.121 308.353 647.801C308.001 647.481 307.51 647.321 306.881 647.321C306.326 647.321 305.868 647.47 305.505 647.769C305.142 648.057 304.881 648.414 304.721 648.841L303.281 648.201C303.505 647.486 303.916 646.883 304.513 646.393C305.121 645.891 305.91 645.641 306.881 645.641C307.606 645.641 308.257 645.795 308.833 646.105C309.409 646.403 309.852 646.814 310.161 647.337C310.481 647.859 310.641 648.441 310.641 649.081C310.641 649.678 310.508 650.206 310.241 650.665C309.985 651.113 309.67 651.497 309.297 651.817C308.924 652.126 308.412 652.499 307.761 652.937C307.089 653.385 306.55 653.779 306.145 654.121C305.75 654.462 305.436 654.862 305.201 655.321H310.641V657.001H303.121Z" fill="#25272E"/>
<path d="M317.034 657.161C316.17 657.161 315.386 656.937 314.682 656.489C313.978 656.03 313.418 655.369 313.002 654.505C312.597 653.63 312.394 652.595 312.394 651.401C312.394 650.206 312.597 649.177 313.002 648.313C313.418 647.438 313.978 646.777 314.682 646.329C315.386 645.87 316.17 645.641 317.034 645.641C317.898 645.641 318.682 645.87 319.386 646.329C320.09 646.777 320.645 647.438 321.05 648.313C321.466 649.177 321.674 650.206 321.674 651.401C321.674 652.595 321.466 653.63 321.05 654.505C320.645 655.369 320.09 656.03 319.386 656.489C318.682 656.937 317.898 657.161 317.034 657.161ZM319.914 651.401C319.914 650.505 319.781 649.747 319.514 649.129C319.258 648.499 318.912 648.03 318.474 647.721C318.037 647.401 317.557 647.241 317.034 647.241C316.512 647.241 316.032 647.401 315.594 647.721C315.157 648.03 314.805 648.499 314.538 649.129C314.282 649.747 314.154 650.505 314.154 651.401C314.154 652.297 314.282 653.059 314.538 653.689C314.805 654.307 315.157 654.777 315.594 655.097C316.032 655.406 316.512 655.561 317.034 655.561C317.557 655.561 318.037 655.406 318.474 655.097C318.912 654.777 319.258 654.307 319.514 653.689C319.781 653.059 319.914 652.297 319.914 651.401Z" fill="#25272E"/>
<path d="M323.121 657.001C323.121 656.105 323.286 655.331 323.617 654.681C323.958 654.03 324.364 653.502 324.833 653.097C325.302 652.681 325.91 652.222 326.657 651.721C327.18 651.369 327.585 651.081 327.873 650.857C328.161 650.622 328.401 650.361 328.593 650.073C328.785 649.774 328.881 649.443 328.881 649.081C328.881 648.547 328.705 648.121 328.353 647.801C328.001 647.481 327.51 647.321 326.881 647.321C326.326 647.321 325.868 647.47 325.505 647.769C325.142 648.057 324.881 648.414 324.721 648.841L323.281 648.201C323.505 647.486 323.916 646.883 324.513 646.393C325.121 645.891 325.91 645.641 326.881 645.641C327.606 645.641 328.257 645.795 328.833 646.105C329.409 646.403 329.852 646.814 330.161 647.337C330.481 647.859 330.641 648.441 330.641 649.081C330.641 649.678 330.508 650.206 330.241 650.665C329.985 651.113 329.67 651.497 329.297 651.817C328.924 652.126 328.412 652.499 327.761 652.937C327.089 653.385 326.55 653.779 326.145 654.121C325.75 654.462 325.436 654.862 325.201 655.321H330.641V657.001H323.121Z" fill="#25272E"/>
<path d="M332.074 647.321C332.746 647.246 333.258 647.086 333.61 646.841C333.962 646.595 334.25 646.249 334.474 645.801H335.834V657.001H334.074V648.441H332.074V647.321Z" fill="#25272E"/>
<path d="M22.09 603.67H16.84V602.2H23.91V603.67L18.45 610.53H24.05V612H16.63V610.53L22.09 603.67ZM25.5916 603.18C25.5916 602.947 25.6756 602.751 25.8436 602.592C26.021 602.424 26.217 602.34 26.4316 602.34C26.6463 602.34 26.8376 602.424 27.0056 602.592C27.183 602.751 27.2716 602.947 27.2716 603.18C27.2716 603.413 27.183 603.614 27.0056 603.782C26.8376 603.941 26.6463 604.02 26.4316 604.02C26.217 604.02 26.021 603.941 25.8436 603.782C25.6756 603.614 25.5916 603.413 25.5916 603.18ZM27.1316 605.28V612H25.7316V605.28H27.1316ZM30.5616 606.26C30.7763 605.952 31.0843 605.691 31.4856 605.476C31.887 605.252 32.349 605.14 32.8716 605.14C33.4316 605.14 33.9496 605.294 34.4256 605.602C34.911 605.901 35.2983 606.316 35.5876 606.848C35.877 607.38 36.0216 607.977 36.0216 608.64C36.0216 609.303 35.877 609.9 35.5876 610.432C35.2983 610.964 34.911 611.384 34.4256 611.692C33.9496 611.991 33.4316 612.14 32.8716 612.14C32.349 612.14 31.887 612.033 31.4856 611.818C31.0843 611.594 30.7763 611.328 30.5616 611.02V614.94H29.1616V605.28H30.5616V606.26ZM32.5916 610.81C32.965 610.81 33.3056 610.717 33.6136 610.53C33.9216 610.343 34.1643 610.087 34.3416 609.76C34.5283 609.424 34.6216 609.051 34.6216 608.64C34.6216 608.229 34.5283 607.861 34.3416 607.534C34.1643 607.198 33.9216 606.937 33.6136 606.75C33.3056 606.563 32.965 606.47 32.5916 606.47C32.2183 606.47 31.8776 606.563 31.5696 606.75C31.2616 606.937 31.0143 607.198 30.8276 607.534C30.6503 607.861 30.5616 608.229 30.5616 608.64C30.5616 609.051 30.6503 609.424 30.8276 609.76C31.0143 610.087 31.2616 610.343 31.5696 610.53C31.8776 610.717 32.2183 610.81 32.5916 610.81ZM46.7327 610.74C46.4341 611.132 46.0327 611.463 45.5287 611.734C45.0341 612.005 44.4787 612.14 43.8627 612.14C43.2187 612.14 42.6261 611.986 42.0847 611.678C41.5527 611.37 41.1327 610.95 40.8247 610.418C40.5167 609.877 40.3627 609.284 40.3627 608.64C40.3627 607.996 40.5167 607.408 40.8247 606.876C41.1327 606.335 41.5527 605.91 42.0847 605.602C42.6261 605.294 43.2187 605.14 43.8627 605.14C44.4787 605.14 45.0294 605.271 45.5147 605.532C46.0001 605.784 46.3827 606.097 46.6627 606.47L45.6827 607.38C45.4867 607.128 45.2301 606.913 44.9127 606.736C44.6047 606.559 44.2547 606.47 43.8627 606.47C43.4707 606.47 43.1114 606.563 42.7847 606.75C42.4674 606.937 42.2154 607.198 42.0287 607.534C41.8514 607.861 41.7627 608.229 41.7627 608.64C41.7627 609.051 41.8514 609.424 42.0287 609.76C42.2154 610.087 42.4674 610.343 42.7847 610.53C43.1114 610.717 43.4707 610.81 43.8627 610.81C44.2547 610.81 44.6141 610.717 44.9407 610.53C45.2674 610.334 45.5381 610.101 45.7527 609.83L46.7327 610.74ZM47.4995 608.64C47.4995 607.996 47.6535 607.408 47.9615 606.876C48.2695 606.335 48.6895 605.91 49.2215 605.602C49.7628 605.294 50.3555 605.14 50.9995 605.14C51.6435 605.14 52.2315 605.294 52.7635 605.602C53.3048 605.91 53.7295 606.335 54.0375 606.876C54.3455 607.408 54.4995 607.996 54.4995 608.64C54.4995 609.284 54.3455 609.877 54.0375 610.418C53.7295 610.95 53.3048 611.37 52.7635 611.678C52.2315 611.986 51.6435 612.14 50.9995 612.14C50.3555 612.14 49.7628 611.986 49.2215 611.678C48.6895 611.37 48.2695 610.95 47.9615 610.418C47.6535 609.877 47.4995 609.284 47.4995 608.64ZM50.9995 610.81C51.3915 610.81 51.7461 610.717 52.0635 610.53C52.3901 610.343 52.6421 610.087 52.8195 609.76C53.0061 609.424 53.0995 609.051 53.0995 608.64C53.0995 608.229 53.0061 607.861 52.8195 607.534C52.6421 607.198 52.3901 606.937 52.0635 606.75C51.7461 606.563 51.3915 606.47 50.9995 606.47C50.6075 606.47 50.2481 606.563 49.9215 606.75C49.6041 606.937 49.3521 607.198 49.1655 607.534C48.9881 607.861 48.8995 608.229 48.8995 608.64C48.8995 609.051 48.9881 609.424 49.1655 609.76C49.3521 610.087 49.6041 610.343 49.9215 610.53C50.2481 610.717 50.6075 610.81 50.9995 610.81ZM61.0805 611.02C60.8659 611.328 60.5579 611.594 60.1565 611.818C59.7552 612.033 59.2932 612.14 58.7705 612.14C58.2105 612.14 57.6879 611.991 57.2025 611.692C56.7265 611.384 56.3439 610.964 56.0545 610.432C55.7652 609.9 55.6205 609.303 55.6205 608.64C55.6205 607.977 55.7652 607.38 56.0545 606.848C56.3439 606.316 56.7265 605.901 57.2025 605.602C57.6879 605.294 58.2105 605.14 58.7705 605.14C59.2932 605.14 59.7552 605.252 60.1565 605.476C60.5579 605.691 60.8659 605.952 61.0805 606.26V602.2H62.4805V612H61.0805V611.02ZM59.0505 610.81C59.4239 610.81 59.7645 610.717 60.0725 610.53C60.3805 610.343 60.6232 610.087 60.8005 609.76C60.9872 609.424 61.0805 609.051 61.0805 608.64C61.0805 608.229 60.9872 607.861 60.8005 607.534C60.6232 607.198 60.3805 606.937 60.0725 606.75C59.7645 606.563 59.4239 606.47 59.0505 606.47C58.6772 606.47 58.3365 606.563 58.0285 606.75C57.7205 606.937 57.4732 607.198 57.2865 607.534C57.1092 607.861 57.0205 608.229 57.0205 608.64C57.0205 609.051 57.1092 609.424 57.2865 609.76C57.4732 610.087 57.7205 610.343 58.0285 610.53C58.3365 610.717 58.6772 610.81 59.0505 610.81ZM70.4671 611.048C70.1871 611.356 69.7998 611.617 69.3051 611.832C68.8104 612.037 68.2411 612.14 67.5971 612.14C66.9531 612.14 66.3604 611.986 65.8191 611.678C65.2871 611.37 64.8671 610.95 64.5591 610.418C64.2511 609.877 64.0971 609.284 64.0971 608.64C64.0971 607.996 64.2511 607.408 64.5591 606.876C64.8671 606.344 65.2824 605.924 65.8051 605.616C66.3278 605.299 66.9018 605.14 67.5271 605.14C68.1524 605.14 68.7124 605.285 69.2071 605.574C69.7111 605.854 70.1031 606.246 70.3831 606.75C70.6724 607.245 70.8171 607.805 70.8171 608.43C70.8171 608.691 70.7938 608.925 70.7471 609.13H65.5671C65.6418 609.597 65.8751 609.993 66.2671 610.32C66.6591 610.647 67.1258 610.81 67.6671 610.81C68.0591 610.81 68.4231 610.74 68.7591 610.6C69.1044 610.451 69.3938 610.273 69.6271 610.068L70.4671 611.048ZM69.3471 607.94C69.2351 607.473 69.0204 607.1 68.7031 606.82C68.3951 606.54 68.0031 606.4 67.5271 606.4C67.0231 606.4 66.6078 606.54 66.2811 606.82C65.9544 607.091 65.7164 607.464 65.5671 607.94H69.3471Z" fill="#25272E"/>
<path d="M16 640C16 633.373 21.3726 628 28 628H163C169.627 628 175 633.373 175 640V664C175 670.627 169.627 676 163 676H28C21.3726 676 16 670.627 16 664V640Z" fill="white"/>
<path fill-rule="evenodd" clip-rule="evenodd" d="M163 629H28C21.9249 629 17 633.925 17 640V664C17 670.075 21.9249 675 28 675H163C169.075 675 174 670.075 174 664V640C174 633.925 169.075 629 163 629ZM28 628C21.3726 628 16 633.373 16 640V664C16 670.627 21.3726 676 28 676H163C169.627 676 175 670.627 175 664V640C175 633.373 169.627 628 163 628H28Z" fill="#F1F3F5" style="mix-blend-mode:multiply"/>
<g opacity="0.7">
<path d="M33.9016 659.201C32.8216 659.201 31.8416 658.921 30.9616 658.361C30.0816 657.787 29.3816 656.961 28.8616 655.881C28.3549 654.787 28.1016 653.494 28.1016 652.001C28.1016 650.507 28.3549 649.221 28.8616 648.141C29.3816 647.047 30.0816 646.221 30.9616 645.661C31.8416 645.087 32.8216 644.801 33.9016 644.801C34.9816 644.801 35.9616 645.087 36.8416 645.661C37.7216 646.221 38.4149 647.047 38.9216 648.141C39.4416 649.221 39.7016 650.507 39.7016 652.001C39.7016 653.494 39.4416 654.787 38.9216 655.881C38.4149 656.961 37.7216 657.787 36.8416 658.361C35.9616 658.921 34.9816 659.201 33.9016 659.201ZM37.5016 652.001C37.5016 650.881 37.3349 649.934 37.0016 649.161C36.6816 648.374 36.2482 647.787 35.7016 647.401C35.1549 647.001 34.5549 646.801 33.9016 646.801C33.2482 646.801 32.6482 647.001 32.1016 647.401C31.5549 647.787 31.1149 648.374 30.7816 649.161C30.4616 649.934 30.3016 650.881 30.3016 652.001C30.3016 653.121 30.4616 654.074 30.7816 654.861C31.1149 655.634 31.5549 656.221 32.1016 656.621C32.6482 657.007 33.2482 657.201 33.9016 657.201C34.5549 657.201 35.1549 657.007 35.7016 656.621C36.2482 656.221 36.6816 655.634 37.0016 654.861C37.3349 654.074 37.5016 653.121 37.5016 652.001Z" fill="#70747D"/>
<path d="M47.7102 659.201C46.6302 659.201 45.6502 658.921 44.7702 658.361C43.8902 657.787 43.1902 656.961 42.6702 655.881C42.1635 654.787 41.9102 653.494 41.9102 652.001C41.9102 650.507 42.1635 649.221 42.6702 648.141C43.1902 647.047 43.8902 646.221 44.7702 645.661C45.6502 645.087 46.6302 644.801 47.7102 644.801C48.7902 644.801 49.7702 645.087 50.6502 645.661C51.5302 646.221 52.2235 647.047 52.7302 648.141C53.2502 649.221 53.5102 650.507 53.5102 652.001C53.5102 653.494 53.2502 654.787 52.7302 655.881C52.2235 656.961 51.5302 657.787 50.6502 658.361C49.7702 658.921 48.7902 659.201 47.7102 659.201ZM51.3102 652.001C51.3102 650.881 51.1435 649.934 50.8102 649.161C50.4902 648.374 50.0568 647.787 49.5102 647.401C48.9635 647.001 48.3635 646.801 47.7102 646.801C47.0568 646.801 46.4568 647.001 45.9102 647.401C45.3635 647.787 44.9235 648.374 44.5902 649.161C44.2702 649.934 44.1102 650.881 44.1102 652.001C44.1102 653.121 44.2702 654.074 44.5902 654.861C44.9235 655.634 45.3635 656.221 45.9102 656.621C46.4568 657.007 47.0568 657.201 47.7102 657.201C48.3635 657.201 48.9635 657.007 49.5102 656.621C50.0568 656.221 50.4902 655.634 50.8102 654.861C51.1435 654.074 51.3102 653.121 51.3102 652.001Z" fill="#70747D"/>
<path d="M61.5188 659.201C60.4388 659.201 59.4588 658.921 58.5788 658.361C57.6988 657.787 56.9988 656.961 56.4788 655.881C55.9721 654.787 55.7188 653.494 55.7188 652.001C55.7188 650.507 55.9721 649.221 56.4788 648.141C56.9988 647.047 57.6988 646.221 58.5788 645.661C59.4588 645.087 60.4388 644.801 61.5188 644.801C62.5988 644.801 63.5788 645.087 64.4588 645.661C65.3388 646.221 66.0321 647.047 66.5388 648.141C67.0588 649.221 67.3188 650.507 67.3188 652.001C67.3188 653.494 67.0588 654.787 66.5388 655.881C66.0321 656.961 65.3388 657.787 64.4588 658.361C63.5788 658.921 62.5988 659.201 61.5188 659.201ZM65.1188 652.001C65.1188 650.881 64.9521 649.934 64.6188 649.161C64.2988 648.374 63.8654 647.787 63.3188 647.401C62.7721 647.001 62.1721 646.801 61.5188 646.801C60.8654 646.801 60.2654 647.001 59.7188 647.401C59.1721 647.787 58.7321 648.374 58.3988 649.161C58.0788 649.934 57.9187 650.881 57.9187 652.001C57.9187 653.121 58.0788 654.074 58.3988 654.861C58.7321 655.634 59.1721 656.221 59.7188 656.621C60.2654 657.007 60.8654 657.201 61.5188 657.201C62.1721 657.201 62.7721 657.007 63.3188 656.621C63.8654 656.221 64.2988 655.634 64.6188 654.861C64.9521 654.074 65.1188 653.121 65.1188 652.001Z" fill="#70747D"/>
<path d="M75.3273 659.201C74.2473 659.201 73.2673 658.921 72.3873 658.361C71.5073 657.787 70.8073 656.961 70.2873 655.881C69.7807 654.787 69.5273 653.494 69.5273 652.001C69.5273 650.507 69.7807 649.221 70.2873 648.141C70.8073 647.047 71.5073 646.221 72.3873 645.661C73.2673 645.087 74.2473 644.801 75.3273 644.801C76.4073 644.801 77.3873 645.087 78.2673 645.661C79.1473 646.221 79.8407 647.047 80.3473 648.141C80.8673 649.221 81.1273 650.507 81.1273 652.001C81.1273 653.494 80.8673 654.787 80.3473 655.881C79.8407 656.961 79.1473 657.787 78.2673 658.361C77.3873 658.921 76.4073 659.201 75.3273 659.201ZM78.9273 652.001C78.9273 650.881 78.7607 649.934 78.4273 649.161C78.1073 648.374 77.674 647.787 77.1273 647.401C76.5807 647.001 75.9807 646.801 75.3273 646.801C74.674 646.801 74.074 647.001 73.5273 647.401C72.9807 647.787 72.5407 648.374 72.2073 649.161C71.8873 649.934 71.7273 650.881 71.7273 652.001C71.7273 653.121 71.8873 654.074 72.2073 654.861C72.5407 655.634 72.9807 656.221 73.5273 656.621C74.074 657.007 74.674 657.201 75.3273 657.201C75.9807 657.201 76.5807 657.007 77.1273 656.621C77.674 656.221 78.1073 655.634 78.4273 654.861C78.7607 654.074 78.9273 653.121 78.9273 652.001Z" fill="#70747D"/>
<path d="M89.1359 659.201C88.0559 659.201 87.0759 658.921 86.1959 658.361C85.3159 657.787 84.6159 656.961 84.0959 655.881C83.5893 654.787 83.3359 653.494 83.3359 652.001C83.3359 650.507 83.5893 649.221 84.0959 648.141C84.6159 647.047 85.3159 646.221 86.1959 645.661C87.0759 645.087 88.0559 644.801 89.1359 644.801C90.2159 644.801 91.1959 645.087 92.0759 645.661C92.9559 646.221 93.6493 647.047 94.1559 648.141C94.6759 649.221 94.9359 650.507 94.9359 652.001C94.9359 653.494 94.6759 654.787 94.1559 655.881C93.6493 656.961 92.9559 657.787 92.0759 658.361C91.1959 658.921 90.2159 659.201 89.1359 659.201ZM92.7359 652.001C92.7359 650.881 92.5693 649.934 92.2359 649.161C91.9159 648.374 91.4826 647.787 90.9359 647.401C90.3893 647.001 89.7893 646.801 89.1359 646.801C88.4826 646.801 87.8826 647.001 87.3359 647.401C86.7893 647.787 86.3493 648.374 86.0159 649.161C85.6959 649.934 85.5359 650.881 85.5359 652.001C85.5359 653.121 85.6959 654.074 86.0159 654.861C86.3493 655.634 86.7893 656.221 87.3359 656.621C87.8826 657.007 88.4826 657.201 89.1359 657.201C89.7893 657.201 90.3893 657.007 90.9359 656.621C91.4826 656.221 91.9159 655.634 92.2359 654.861C92.5693 654.074 92.7359 653.121 92.7359 652.001Z" fill="#70747D"/>
</g>
</g>
<g filter="url(#filter1_b)">
<rect width="375" height="88" fill="white" fill-opacity="0.95"/>
<path opacity="0.35" d="M338.663 17.7988H355.329C356.525 17.7988 357.496 18.7689 357.496 19.9655V25.9439C357.496 27.1405 356.525 28.1106 355.329 28.1106H338.663C337.466 28.1106 336.496 27.1405 336.496 25.9439V19.9655C336.496 18.7689 337.466 17.7988 338.663 17.7988Z" stroke="black"/>
<path opacity="0.4" d="M358.996 20.959V24.9514C359.801 24.6132 360.324 23.8267 360.324 22.9552C360.324 22.0837 359.801 21.2971 358.996 20.959" fill="black"/>
<path d="M337.996 20.6283C337.996 19.8919 338.593 19.2949 339.329 19.2949H354.662C355.399 19.2949 355.996 19.8919 355.996 20.6283V25.281C355.996 26.0173 355.399 26.6143 354.662 26.6143H339.329C338.593 26.6143 337.996 26.0173 337.996 25.281V20.6283Z" fill="black"/>
<path fill-rule="evenodd" clip-rule="evenodd" d="M323.328 19.5699C325.544 19.57 327.675 20.4198 329.281 21.9437C329.402 22.0613 329.595 22.0598 329.714 21.9404L330.87 20.7759C330.93 20.7153 330.964 20.6332 330.963 20.5478C330.963 20.4624 330.928 20.3807 330.867 20.3208C326.652 16.2889 320.003 16.2889 315.788 20.3208C315.727 20.3806 315.692 20.4623 315.691 20.5477C315.691 20.6331 315.724 20.7153 315.785 20.7759L316.941 21.9404C317.06 22.06 317.253 22.0615 317.374 21.9437C318.98 20.4197 321.112 19.5699 323.328 19.5699ZM323.328 23.3583C324.545 23.3582 325.719 23.8099 326.622 24.6256C326.744 24.7413 326.936 24.7388 327.055 24.6199L328.21 23.4555C328.27 23.3944 328.304 23.3115 328.303 23.2254C328.302 23.1393 328.267 23.0572 328.205 22.9973C325.457 20.4458 321.201 20.4458 318.453 22.9973C318.391 23.0572 318.355 23.1394 318.355 23.2255C318.354 23.3116 318.388 23.3945 318.449 23.4555L319.603 24.6199C319.722 24.7388 319.914 24.7413 320.036 24.6256C320.938 23.8104 322.111 23.3588 323.328 23.3583ZM325.641 25.9073C325.643 25.9936 325.609 26.0769 325.547 26.1374L323.549 28.1492C323.491 28.2083 323.411 28.2416 323.328 28.2416C323.245 28.2416 323.165 28.2083 323.106 28.1492L321.109 26.1374C321.047 26.0768 321.013 25.9935 321.015 25.9072C321.017 25.8209 321.054 25.7391 321.118 25.6812C322.394 24.6044 324.262 24.6044 325.537 25.6812C325.602 25.7391 325.639 25.8209 325.641 25.9073Z" fill="black"/>
<path fill-rule="evenodd" clip-rule="evenodd" d="M309.664 17.6328H308.664C308.111 17.6328 307.664 18.0797 307.664 18.6309V27.2811C307.664 27.8323 308.111 28.2792 308.664 28.2792H309.664C310.216 28.2792 310.664 27.8323 310.664 27.2811V18.6309C310.664 18.0797 310.216 17.6328 309.664 17.6328ZM303.997 19.9617H304.997C305.549 19.9617 305.997 20.4086 305.997 20.9598V27.2811C305.997 27.8323 305.549 28.2792 304.997 28.2792H303.997C303.445 28.2792 302.997 27.8323 302.997 27.2811V20.9598C302.997 20.4086 303.445 19.9617 303.997 19.9617ZM300.331 22.2906H299.331C298.778 22.2906 298.331 22.7375 298.331 23.2887V27.2811C298.331 27.8323 298.778 28.2792 299.331 28.2792H300.331C300.883 28.2792 301.331 27.8323 301.331 27.2811V23.2887C301.331 22.7375 300.883 22.2906 300.331 22.2906ZM295.664 24.2868H294.664C294.112 24.2868 293.664 24.7337 293.664 25.2849V27.2811C293.664 27.8323 294.112 28.2792 294.664 28.2792H295.664C296.216 28.2792 296.664 27.8323 296.664 27.2811V25.2849C296.664 24.7337 296.216 24.2868 295.664 24.2868Z" fill="black"/>
<path d="M33.1637 20.4946V20.5239H34.9362V20.4946C34.9362 19.418 35.6833 18.6929 36.7892 18.6929C37.8293 18.6929 38.591 19.3667 38.591 20.2969C38.591 21.0439 38.2321 21.5933 36.7892 23.0581L33.2663 26.6616V27.9727H40.6052V26.3687H35.8591V26.2441L38.071 24.0249C39.8654 22.2524 40.444 21.3149 40.444 20.1797C40.444 18.4146 38.9352 17.1401 36.8478 17.1401C34.6799 17.1401 33.1637 18.5171 33.1637 20.4946ZM43.7768 26.8521C44.4726 26.8521 44.9487 26.354 44.9487 25.6948C44.9487 25.0283 44.4726 24.5376 43.7768 24.5376C43.0884 24.5376 42.605 25.0283 42.605 25.6948C42.605 26.354 43.0884 26.8521 43.7768 26.8521ZM43.7768 21.3589C44.4726 21.3589 44.9487 20.8682 44.9487 20.209C44.9487 19.5425 44.4726 19.0518 43.7768 19.0518C43.0884 19.0518 42.605 19.5425 42.605 20.209C42.605 20.8682 43.0884 21.3589 43.7768 21.3589ZM50.8596 28.2363C53.3865 28.2363 54.888 26.1855 54.888 22.6919C54.888 19.1836 53.3645 17.1401 50.8596 17.1401C48.3474 17.1401 46.824 19.1836 46.824 22.6772C46.824 26.1855 48.3255 28.2363 50.8596 28.2363ZM50.8596 26.6689C49.5193 26.6689 48.7356 25.2773 48.7356 22.6772C48.7356 20.0991 49.534 18.7148 50.8596 18.7148C52.1853 18.7148 52.9763 20.0918 52.9763 22.6772C52.9763 25.2773 52.2 26.6689 50.8596 26.6689ZM56.8218 27.9727H58.7994L63.3184 19.0151V17.4038H55.9649V18.9932H61.4141V19.1104L56.8218 27.9727Z" fill="black"/>
<path d="M351 75.5C356.247 75.5 360.5 71.2467 360.5 66C360.5 60.7533 356.247 56.5 351 56.5C345.753 56.5 341.5 60.7533 341.5 66C341.5 71.2467 345.753 75.5 351 75.5ZM351 77C344.925 77 340 72.0751 340 66C340 59.9249 344.925 55 351 55C357.075 55 362 59.9249 362 66C362 72.0751 357.075 77 351 77Z" fill="#25272E"/>
<path d="M349.81 67.5728C349.81 65.5428 352.19 65.5428 352.19 64.0528C352.179 63.9001 352.137 63.7513 352.067 63.6151C351.997 63.479 351.9 63.3583 351.783 63.2603C351.665 63.1623 351.529 63.089 351.383 63.0448C351.236 63.0005 351.082 62.9862 350.93 63.0028C350.564 62.9907 350.204 63.0957 349.902 63.3025C349.599 63.5093 349.371 63.8072 349.25 64.1528L347.5 63.3828C347.752 62.6638 348.228 62.0445 348.858 61.6161C349.488 61.1877 350.239 60.9727 351 61.0028C353.07 61.0028 354.36 62.3228 354.36 63.7928C354.36 66.3828 351.84 66.3828 351.84 68.2028H349.95C349.871 68.0014 349.823 67.7888 349.81 67.5728ZM349.67 70.0928C349.67 69.9471 349.699 69.8028 349.756 69.6686C349.812 69.5344 349.895 69.4128 350 69.3112C350.104 69.2096 350.228 69.1299 350.364 69.077C350.499 69.024 350.644 68.9988 350.79 69.0028C351.013 69.0028 351.23 69.0694 351.415 69.1938C351.6 69.3182 351.743 69.495 351.827 69.7014C351.911 69.9078 351.931 70.1345 351.886 70.3525C351.84 70.5706 351.73 70.77 351.571 70.9254C351.411 71.0808 351.209 71.185 350.99 71.2248C350.77 71.2645 350.544 71.238 350.34 71.1487C350.136 71.0593 349.963 70.911 349.844 70.723C349.725 70.5349 349.664 70.3155 349.67 70.0928Z" fill="#25272E"/>
<path fill-rule="evenodd" clip-rule="evenodd" d="M27.0023 57.3592L18.8447 65.1911C18.3851 65.6317 18.3851 66.3672 18.8447 66.8096L27.0023 74.6397C27.5026 75.1201 28.2924 75.1201 28.7927 74.6397C29.3219 74.1313 29.3219 73.2845 28.7927 72.7751L21.9605 66.2161C21.8365 66.0976 21.8365 65.9013 21.9605 65.7828L28.7927 59.2237C29.3219 58.7153 29.3219 57.8685 28.7927 57.3592C28.5421 57.1203 28.22 57 27.898 57C27.575 57 27.2529 57.1203 27.0023 57.3592Z" fill="#25272E"/>
<circle cx="141.5" cy="63.5" r="4" fill="#03948C"/>
<circle cx="154.5" cy="63.5" r="2.5" fill="#CEE1E5"/>
<circle cx="167.5" cy="63.5" r="2.5" fill="#CEE1E5"/>
<circle cx="180.5" cy="63.5" r="2.5" fill="#CEE1E5"/>
<circle cx="193.5" cy="63.5" r="2.5" fill="#CEE1E5"/>
<circle cx="206.5" cy="63.5" r="2.5" fill="#CEE1E5"/>
<circle cx="219.5" cy="63.5" r="2.5" fill="#CEE1E5"/>
<circle cx="232.5" cy="63.5" r="2.5" fill="#CEE1E5"/>
</g>
<path fill-rule="evenodd" clip-rule="evenodd" d="M121 800.5C121 799.119 122.119 798 123.5 798H252.5C253.881 798 255 799.119 255 800.5V800.5C255 801.881 253.881 803 252.5 803H123.5C122.119 803 121 801.881 121 800.5V800.5Z" fill="black"/>
</g>
<defs>
<filter id="filter0_d" x="-84" y="480" width="543" height="416" filterUnits="userSpaceOnUse" color-interpolation-filters="sRGB">
<feFlood flood-opacity="0" result="BackgroundImageFix"/>
<feColorMatrix in="SourceAlpha" type="matrix" values="0 0 0 0 0 0 0 0 0 0 0 0 0 0 0 0 0 0 127 0"/>
<feMorphology radius="4" operator="dilate" in="SourceAlpha" result="effect1_dropShadow"/>
<feOffset/>
<feGaussianBlur stdDeviation="40"/>
<feColorMatrix type="matrix" values="0 0 0 0 0.4056 0 0 0 0 0.500104 0 0 0 0 0.52 0 0 0 0.04 0"/>
<feBlend mode="multiply" in2="BackgroundImageFix" result="effect1_dropShadow"/>
<feBlend mode="normal" in="SourceGraphic" in2="effect1_dropShadow" result="shape"/>
</filter>
<filter id="filter1_b" x="-16" y="-16" width="407" height="120" filterUnits="userSpaceOnUse" color-interpolation-filters="sRGB">
<feFlood flood-opacity="0" result="BackgroundImageFix"/>
<feGaussianBlur in="BackgroundImage" stdDeviation="8"/>
<feComposite in2="SourceAlpha" operator="in" result="effect1_backgroundBlur"/>
<feBlend mode="normal" in="SourceGraphic" in2="effect1_backgroundBlur" result="shape"/>
</filter>
<linearGradient id="paint0_linear" x1="111.5" y1="116.541" x2="241.866" y2="677.362" gradientUnits="userSpaceOnUse">
<stop stop-color="#E4F0F0" stop-opacity="0"/>
<stop offset="1" stop-color="#E4F0F0"/>
</linearGradient>
<clipPath id="clip0">
<rect width="375" height="812" fill="white"/>
</clipPath>
</defs>
</svg>
