<svg width="375" height="812" viewBox="0 0 375 812" fill="none" xmlns="http://www.w3.org/2000/svg">
<g clip-path="url(#clip0)">
<rect width="375" height="812" fill="white"/>
<rect y="98" width="375" height="323" fill="url(#paint0_linear)"/>
<path fill-rule="evenodd" clip-rule="evenodd" d="M121 800.5C121 799.119 122.119 798 123.5 798H252.5C253.881 798 255 799.119 255 800.5V800.5C255 801.881 253.881 803 252.5 803H123.5C122.119 803 121 801.881 121 800.5V800.5Z" fill="black"/>
<path d="M20.8 246V257.2H27.3V260H17.8V246H20.8ZM37.6039 259.06C37.1506 259.38 36.5572 259.653 35.8239 259.88C35.0906 260.093 34.2839 260.2 33.4039 260.2C32.4572 260.2 31.5839 259.973 30.7839 259.52C29.9839 259.053 29.3506 258.433 28.8839 257.66C28.4306 256.873 28.2039 256.02 28.2039 255.1C28.2039 254.18 28.4306 253.333 28.8839 252.56C29.3506 251.773 29.9706 251.153 30.7439 250.7C31.5306 250.233 32.3839 250 33.3039 250C34.1839 250 34.9972 250.22 35.7439 250.66C36.5039 251.1 37.1039 251.7 37.5439 252.46C37.9839 253.207 38.2039 254.02 38.2039 254.9C38.2039 255.34 38.1706 255.74 38.1039 256.1H31.0039C31.1639 256.593 31.4572 257 31.8839 257.32C32.3239 257.64 32.8972 257.8 33.6039 257.8C34.1639 257.8 34.6639 257.74 35.1039 257.62C35.5572 257.487 35.9239 257.333 36.2039 257.16L37.6039 259.06ZM35.4039 254.1C35.2439 253.62 34.9639 253.22 34.5639 252.9C34.1772 252.567 33.7239 252.4 33.2039 252.4C32.6839 252.4 32.2239 252.567 31.8239 252.9C31.4372 253.22 31.1639 253.62 31.0039 254.1H35.4039ZM39.3102 250.4H41.0102V247.4H43.7102V250.4H46.1102V252.9H43.7102V256.28C43.7102 256.72 43.8235 257.047 44.0502 257.26C44.2768 257.473 44.5968 257.58 45.0102 257.58H46.1102V260H44.3102C43.2835 260 42.4768 259.713 41.8902 259.14C41.3035 258.567 41.0102 257.72 41.0102 256.6V252.9H39.3102V250.4ZM51.718 246.9L48.918 251.2L47.318 250.3L49.418 245.6L51.718 246.9ZM54.0133 256.7C54.3199 257.007 54.6999 257.267 55.1533 257.48C55.6066 257.693 56.0933 257.8 56.6133 257.8C57.4133 257.8 57.8133 257.567 57.8133 257.1C57.8133 256.913 57.6866 256.76 57.4333 256.64C57.1933 256.507 56.8066 256.353 56.2733 256.18C55.5799 255.94 54.9999 255.713 54.5333 255.5C54.0666 255.273 53.6599 254.96 53.3133 254.56C52.9799 254.147 52.8133 253.627 52.8133 253C52.8133 252.453 52.9666 251.953 53.2733 251.5C53.5799 251.047 54.0266 250.687 54.6133 250.42C55.2133 250.14 55.9133 250 56.7133 250C57.5266 250 58.2599 250.147 58.9133 250.44C59.5799 250.733 60.1133 251.087 60.5133 251.5L58.9133 253.2C58.6733 252.973 58.3599 252.787 57.9733 252.64C57.5866 252.48 57.1666 252.4 56.7133 252.4C56.3799 252.4 56.1266 252.46 55.9533 252.58C55.7933 252.7 55.7133 252.84 55.7133 253C55.7133 253.187 55.8333 253.347 56.0733 253.48C56.3266 253.6 56.7199 253.747 57.2533 253.92C57.9466 254.16 58.5266 254.393 58.9933 254.62C59.4599 254.833 59.8599 255.147 60.1933 255.56C60.5399 255.96 60.7133 256.473 60.7133 257.1C60.7133 257.673 60.5533 258.2 60.2333 258.68C59.9266 259.147 59.4599 259.52 58.8333 259.8C58.2199 260.067 57.4799 260.2 56.6133 260.2C55.7333 260.2 54.9266 260.027 54.1933 259.68C53.4599 259.333 52.8666 258.907 52.4133 258.4L54.0133 256.7ZM67.7242 256.7C68.0309 257.007 68.4109 257.267 68.8642 257.48C69.3176 257.693 69.8042 257.8 70.3242 257.8C71.1242 257.8 71.5242 257.567 71.5242 257.1C71.5242 256.913 71.3976 256.76 71.1442 256.64C70.9042 256.507 70.5176 256.353 69.9842 256.18C69.2909 255.94 68.7109 255.713 68.2442 255.5C67.7776 255.273 67.3709 254.96 67.0242 254.56C66.6909 254.147 66.5242 253.627 66.5242 253C66.5242 252.453 66.6776 251.953 66.9842 251.5C67.2909 251.047 67.7376 250.687 68.3242 250.42C68.9242 250.14 69.6242 250 70.4242 250C71.2376 250 71.9709 250.147 72.6242 250.44C73.2909 250.733 73.8242 251.087 74.2242 251.5L72.6242 253.2C72.3842 252.973 72.0709 252.787 71.6842 252.64C71.2976 252.48 70.8776 252.4 70.4242 252.4C70.0909 252.4 69.8376 252.46 69.6642 252.58C69.5042 252.7 69.4242 252.84 69.4242 253C69.4242 253.187 69.5442 253.347 69.7842 253.48C70.0376 253.6 70.4309 253.747 70.9642 253.92C71.6576 254.16 72.2376 254.393 72.7042 254.62C73.1709 254.833 73.5709 255.147 73.9042 255.56C74.2509 255.96 74.4242 256.473 74.4242 257.1C74.4242 257.673 74.2642 258.2 73.9442 258.68C73.6376 259.147 73.1709 259.52 72.5442 259.8C71.9309 260.067 71.1909 260.2 70.3242 260.2C69.4442 260.2 68.6376 260.027 67.9042 259.68C67.1709 259.333 66.5776 258.907 66.1242 258.4L67.7242 256.7ZM75.3258 250.4H77.0258V247.4H79.7258V250.4H82.1258V252.9H79.7258V256.28C79.7258 256.72 79.8391 257.047 80.0658 257.26C80.2924 257.473 80.6124 257.58 81.0258 257.58H82.1258V260H80.3258C79.2991 260 78.4924 259.713 77.9058 259.14C77.3191 258.567 77.0258 257.72 77.0258 256.6V252.9H75.3258V250.4ZM89.4383 258.8C89.1316 259.187 88.7249 259.52 88.2183 259.8C87.7249 260.067 87.1649 260.2 86.5383 260.2C85.6449 260.2 84.9183 259.94 84.3583 259.42C83.8116 258.887 83.5383 258.213 83.5383 257.4C83.5383 256.573 83.7983 255.867 84.3183 255.28C84.8516 254.693 85.5583 254.353 86.4383 254.26L89.5383 253.96C89.4849 253.56 89.3049 253.2 88.9983 252.88C88.6916 252.56 88.3049 252.4 87.8383 252.4C87.3849 252.4 86.9649 252.453 86.5783 252.56C86.1916 252.653 85.8783 252.767 85.6383 252.9L84.0383 251.3C84.4649 250.94 85.0249 250.633 85.7183 250.38C86.4116 250.127 87.1849 250 88.0383 250C88.8516 250 89.5783 250.173 90.2183 250.52C90.8583 250.853 91.3516 251.32 91.6983 251.92C92.0583 252.507 92.2383 253.167 92.2383 253.9V260H89.5383V258.8H89.4383ZM87.3383 255.94C87.0049 255.953 86.7383 256.067 86.5383 256.28C86.3383 256.493 86.2383 256.733 86.2383 257C86.2383 257.307 86.3383 257.553 86.5383 257.74C86.7516 257.913 87.0516 258 87.4383 258C88.0649 258 88.5716 257.833 88.9583 257.5C89.3449 257.167 89.5383 256.687 89.5383 256.06V255.86L87.3383 255.94ZM97.2461 251.3H97.3461C97.5328 250.993 97.8328 250.733 98.2461 250.52C98.6594 250.307 99.1794 250.2 99.8061 250.2H100.446V252.8H99.5461C98.8794 252.8 98.3261 253.04 97.8861 253.52C97.4594 253.987 97.2461 254.613 97.2461 255.4V260H94.5461V250.2H97.2461V251.3ZM101.244 250.4H102.944V247.4H105.644V250.4H108.044V252.9H105.644V256.28C105.644 256.72 105.757 257.047 105.984 257.26C106.21 257.473 106.53 257.58 106.944 257.58H108.044V260H106.244C105.217 260 104.41 259.713 103.824 259.14C103.237 258.567 102.944 257.72 102.944 256.6V252.9H101.244V250.4ZM115.87 250.2L117.67 256H117.77L119.67 250.2H121.87L123.77 256H123.87L125.67 250.2H128.57L125.13 260H122.67L120.81 254.3H120.73L118.87 260H116.41L112.97 250.2H115.87ZM129.561 247.4C129.561 247 129.714 246.653 130.021 246.36C130.328 246.053 130.694 245.9 131.121 245.9C131.534 245.9 131.894 246.053 132.201 246.36C132.508 246.653 132.661 247 132.661 247.4C132.661 247.8 132.508 248.153 132.201 248.46C131.894 248.753 131.528 248.9 131.101 248.9C130.688 248.9 130.328 248.753 130.021 248.46C129.714 248.153 129.561 247.8 129.561 247.4ZM132.461 250.2V260H129.761V250.2H132.461ZM134.154 250.4H135.854V247.4H138.554V250.4H140.954V252.9H138.554V256.28C138.554 256.72 138.667 257.047 138.894 257.26C139.121 257.473 139.441 257.58 139.854 257.58H140.954V260H139.154C138.127 260 137.321 259.713 136.734 259.14C136.147 258.567 135.854 257.72 135.854 256.6V252.9H134.154V250.4ZM145.862 251.6H145.962C146.268 251.16 146.668 250.787 147.162 250.48C147.668 250.16 148.235 250 148.862 250C149.528 250 150.135 250.173 150.682 250.52C151.228 250.853 151.662 251.333 151.982 251.96C152.302 252.573 152.462 253.287 152.462 254.1V260H149.762V254.5C149.762 253.9 149.602 253.433 149.282 253.1C148.962 252.767 148.522 252.6 147.962 252.6C147.362 252.6 146.862 252.807 146.462 253.22C146.062 253.633 145.862 254.16 145.862 254.8V260H143.162V246H145.862V251.6ZM158.763 250.4H160.463V247.4H163.163V250.4H165.563V252.9H163.163V256.28C163.163 256.72 163.277 257.047 163.503 257.26C163.73 257.473 164.05 257.58 164.463 257.58H165.563V260H163.763C162.737 260 161.93 259.713 161.343 259.14C160.757 258.567 160.463 257.72 160.463 256.6V252.9H158.763V250.4ZM170.471 251.6H170.571C170.878 251.16 171.278 250.787 171.771 250.48C172.278 250.16 172.844 250 173.471 250C174.138 250 174.744 250.173 175.291 250.52C175.838 250.853 176.271 251.333 176.591 251.96C176.911 252.573 177.071 253.287 177.071 254.1V260H174.371V254.5C174.371 253.9 174.211 253.433 173.891 253.1C173.571 252.767 173.131 252.6 172.571 252.6C171.971 252.6 171.471 252.807 171.071 253.22C170.671 253.633 170.471 254.16 170.471 254.8V260H167.771V246H170.471V251.6ZM188.463 259.06C188.01 259.38 187.417 259.653 186.683 259.88C185.95 260.093 185.143 260.2 184.263 260.2C183.317 260.2 182.443 259.973 181.643 259.52C180.843 259.053 180.21 258.433 179.743 257.66C179.29 256.873 179.063 256.02 179.063 255.1C179.063 254.18 179.29 253.333 179.743 252.56C180.21 251.773 180.83 251.153 181.603 250.7C182.39 250.233 183.243 250 184.163 250C185.043 250 185.857 250.22 186.603 250.66C187.363 251.1 187.963 251.7 188.403 252.46C188.843 253.207 189.063 254.02 189.063 254.9C189.063 255.34 189.03 255.74 188.963 256.1H181.863C182.023 256.593 182.317 257 182.743 257.32C183.183 257.64 183.757 257.8 184.463 257.8C185.023 257.8 185.523 257.74 185.963 257.62C186.417 257.487 186.783 257.333 187.063 257.16L188.463 259.06ZM186.263 254.1C186.103 253.62 185.823 253.22 185.423 252.9C185.037 252.567 184.583 252.4 184.063 252.4C183.543 252.4 183.083 252.567 182.683 252.9C182.297 253.22 182.023 253.62 181.863 254.1H186.263ZM198.479 251.6H198.579C198.886 251.16 199.306 250.787 199.839 250.48C200.372 250.16 200.986 250 201.679 250C202.452 250 203.172 250.22 203.839 250.66C204.519 251.1 205.059 251.707 205.459 252.48C205.872 253.253 206.079 254.127 206.079 255.1C206.079 256.073 205.872 256.947 205.459 257.72C205.059 258.493 204.519 259.1 203.839 259.54C203.172 259.98 202.452 260.2 201.679 260.2C200.986 260.2 200.372 260.047 199.839 259.74C199.306 259.42 198.886 259.04 198.579 258.6H198.479V260H195.779V246H198.479V251.6ZM200.879 257.7C201.586 257.7 202.179 257.453 202.659 256.96C203.139 256.467 203.379 255.847 203.379 255.1C203.379 254.353 203.139 253.733 202.659 253.24C202.179 252.747 201.586 252.5 200.879 252.5C200.172 252.5 199.579 252.747 199.099 253.24C198.619 253.733 198.379 254.353 198.379 255.1C198.379 255.847 198.619 256.467 199.099 256.96C199.579 257.453 200.172 257.7 200.879 257.7ZM213.481 258.8C213.175 259.187 212.768 259.52 212.261 259.8C211.768 260.067 211.208 260.2 210.581 260.2C209.688 260.2 208.961 259.94 208.401 259.42C207.855 258.887 207.581 258.213 207.581 257.4C207.581 256.573 207.841 255.867 208.361 255.28C208.895 254.693 209.601 254.353 210.481 254.26L213.581 253.96C213.528 253.56 213.348 253.2 213.041 252.88C212.735 252.56 212.348 252.4 211.881 252.4C211.428 252.4 211.008 252.453 210.621 252.56C210.235 252.653 209.921 252.767 209.681 252.9L208.081 251.3C208.508 250.94 209.068 250.633 209.761 250.38C210.455 250.127 211.228 250 212.081 250C212.895 250 213.621 250.173 214.261 250.52C214.901 250.853 215.395 251.32 215.741 251.92C216.101 252.507 216.281 253.167 216.281 253.9V260H213.581V258.8H213.481ZM211.381 255.94C211.048 255.953 210.781 256.067 210.581 256.28C210.381 256.493 210.281 256.733 210.281 257C210.281 257.307 210.381 257.553 210.581 257.74C210.795 257.913 211.095 258 211.481 258C212.108 258 212.615 257.833 213.001 257.5C213.388 257.167 213.581 256.687 213.581 256.06V255.86L211.381 255.94ZM219.189 256.7C219.496 257.007 219.876 257.267 220.329 257.48C220.782 257.693 221.269 257.8 221.789 257.8C222.589 257.8 222.989 257.567 222.989 257.1C222.989 256.913 222.862 256.76 222.609 256.64C222.369 256.507 221.982 256.353 221.449 256.18C220.756 255.94 220.176 255.713 219.709 255.5C219.242 255.273 218.836 254.96 218.489 254.56C218.156 254.147 217.989 253.627 217.989 253C217.989 252.453 218.142 251.953 218.449 251.5C218.756 251.047 219.202 250.687 219.789 250.42C220.389 250.14 221.089 250 221.889 250C222.702 250 223.436 250.147 224.089 250.44C224.756 250.733 225.289 251.087 225.689 251.5L224.089 253.2C223.849 252.973 223.536 252.787 223.149 252.64C222.762 252.48 222.342 252.4 221.889 252.4C221.556 252.4 221.302 252.46 221.129 252.58C220.969 252.7 220.889 252.84 220.889 253C220.889 253.187 221.009 253.347 221.249 253.48C221.502 253.6 221.896 253.747 222.429 253.92C223.122 254.16 223.702 254.393 224.169 254.62C224.636 254.833 225.036 255.147 225.369 255.56C225.716 255.96 225.889 256.473 225.889 257.1C225.889 257.673 225.729 258.2 225.409 258.68C225.102 259.147 224.636 259.52 224.009 259.8C223.396 260.067 222.656 260.2 221.789 260.2C220.909 260.2 220.102 260.027 219.369 259.68C218.636 259.333 218.042 258.907 217.589 258.4L219.189 256.7ZM227.491 247.4C227.491 247 227.644 246.653 227.951 246.36C228.257 246.053 228.624 245.9 229.051 245.9C229.464 245.9 229.824 246.053 230.131 246.36C230.437 246.653 230.591 247 230.591 247.4C230.591 247.8 230.437 248.153 230.131 248.46C229.824 248.753 229.457 248.9 229.031 248.9C228.617 248.9 228.257 248.753 227.951 248.46C227.644 248.153 227.491 247.8 227.491 247.4ZM230.391 250.2V260H227.691V250.2H230.391ZM241.684 258.2C241.284 258.76 240.73 259.233 240.024 259.62C239.317 260.007 238.504 260.2 237.584 260.2C236.637 260.2 235.764 259.973 234.964 259.52C234.164 259.053 233.53 258.433 233.064 257.66C232.61 256.873 232.384 256.02 232.384 255.1C232.384 254.18 232.61 253.333 233.064 252.56C233.53 251.773 234.164 251.153 234.964 250.7C235.764 250.233 236.637 250 237.584 250C238.504 250 239.317 250.193 240.024 250.58C240.73 250.967 241.284 251.44 241.684 252L239.984 253.7C239.717 253.367 239.37 253.087 238.944 252.86C238.53 252.62 238.077 252.5 237.584 252.5C236.877 252.5 236.284 252.747 235.804 253.24C235.324 253.733 235.084 254.353 235.084 255.1C235.084 255.847 235.324 256.467 235.804 256.96C236.284 257.453 236.877 257.7 237.584 257.7C238.077 257.7 238.53 257.587 238.944 257.36C239.37 257.12 239.717 256.833 239.984 256.5L241.684 258.2ZM243.974 256.7C244.281 257.007 244.661 257.267 245.114 257.48C245.568 257.693 246.054 257.8 246.574 257.8C247.374 257.8 247.774 257.567 247.774 257.1C247.774 256.913 247.648 256.76 247.394 256.64C247.154 256.507 246.768 256.353 246.234 256.18C245.541 255.94 244.961 255.713 244.494 255.5C244.028 255.273 243.621 254.96 243.274 254.56C242.941 254.147 242.774 253.627 242.774 253C242.774 252.453 242.928 251.953 243.234 251.5C243.541 251.047 243.988 250.687 244.574 250.42C245.174 250.14 245.874 250 246.674 250C247.488 250 248.221 250.147 248.874 250.44C249.541 250.733 250.074 251.087 250.474 251.5L248.874 253.2C248.634 252.973 248.321 252.787 247.934 252.64C247.548 252.48 247.128 252.4 246.674 252.4C246.341 252.4 246.088 252.46 245.914 252.58C245.754 252.7 245.674 252.84 245.674 253C245.674 253.187 245.794 253.347 246.034 253.48C246.288 253.6 246.681 253.747 247.214 253.92C247.908 254.16 248.488 254.393 248.954 254.62C249.421 254.833 249.821 255.147 250.154 255.56C250.501 255.96 250.674 256.473 250.674 257.1C250.674 257.673 250.514 258.2 250.194 258.68C249.888 259.147 249.421 259.52 248.794 259.8C248.181 260.067 247.441 260.2 246.574 260.2C245.694 260.2 244.888 260.027 244.154 259.68C243.421 259.333 242.828 258.907 242.374 258.4L243.974 256.7Z" fill="#25272E"/>
<g filter="url(#filter0_d)">
<path d="M0 362.79C0 340.58 0 329.475 4.39088 321.022C8.09102 313.899 13.8989 308.091 21.022 304.391C29.4748 300 40.5799 300 62.79 300H312.21C334.42 300 345.525 300 353.978 304.391C361.101 308.091 366.909 313.899 370.609 321.022C375 329.475 375 340.58 375 362.79V521H0V362.79Z" fill="white"/>
<circle cx="331" cy="477" r="28" fill="#25272E"/>
<path d="M344.527 478.022C343.903 478.568 336.745 485.804 336.745 485.804C335.859 486.579 334.471 485.95 334.471 484.772V479.498L319.923 479.498C318.574 479.498 317.48 478.375 317.48 476.99C317.48 475.604 318.574 474.481 319.923 474.481L334.471 474.481L334.471 469.208C334.471 468.03 335.859 467.4 336.745 468.176C336.745 468.176 343.903 475.411 344.527 475.958C345.152 476.504 345.152 477.475 344.527 478.022Z" fill="white"/>
<path d="M210.44 346.92C209.949 347.549 209.299 348.083 208.488 348.52C207.688 348.947 206.792 349.16 205.8 349.16C204.701 349.16 203.699 348.904 202.792 348.392C201.885 347.88 201.171 347.187 200.648 346.312C200.136 345.427 199.88 344.456 199.88 343.4C199.88 342.344 200.136 341.379 200.648 340.504C201.171 339.619 201.885 338.92 202.792 338.408C203.699 337.896 204.701 337.64 205.8 337.64C206.792 337.64 207.683 337.853 208.472 338.28C209.261 338.696 209.891 339.203 210.36 339.8L209.24 340.92C208.899 340.451 208.429 340.056 207.832 339.736C207.235 339.405 206.557 339.24 205.8 339.24C205.043 339.24 204.344 339.427 203.704 339.8C203.064 340.163 202.557 340.664 202.184 341.304C201.821 341.944 201.64 342.643 201.64 343.4C201.64 344.157 201.821 344.856 202.184 345.496C202.557 346.136 203.064 346.643 203.704 347.016C204.344 347.379 205.043 347.56 205.8 347.56C206.557 347.56 207.24 347.389 207.848 347.048C208.467 346.707 208.957 346.291 209.32 345.8L210.44 346.92ZM211.406 345.16C211.406 344.424 211.582 343.752 211.934 343.144C212.286 342.525 212.766 342.04 213.374 341.688C213.992 341.336 214.67 341.16 215.406 341.16C216.142 341.16 216.814 341.336 217.422 341.688C218.04 342.04 218.526 342.525 218.878 343.144C219.23 343.752 219.406 344.424 219.406 345.16C219.406 345.896 219.23 346.573 218.878 347.192C218.526 347.8 218.04 348.28 217.422 348.632C216.814 348.984 216.142 349.16 215.406 349.16C214.67 349.16 213.992 348.984 213.374 348.632C212.766 348.28 212.286 347.8 211.934 347.192C211.582 346.573 211.406 345.896 211.406 345.16ZM215.406 347.64C215.854 347.64 216.259 347.533 216.622 347.32C216.995 347.107 217.283 346.813 217.486 346.44C217.699 346.056 217.806 345.629 217.806 345.16C217.806 344.691 217.699 344.269 217.486 343.896C217.283 343.512 216.995 343.213 216.622 343C216.259 342.787 215.854 342.68 215.406 342.68C214.958 342.68 214.547 342.787 214.174 343C213.811 343.213 213.523 343.512 213.31 343.896C213.107 344.269 213.006 344.691 213.006 345.16C213.006 345.629 213.107 346.056 213.31 346.44C213.523 346.813 213.811 347.107 214.174 347.32C214.547 347.533 214.958 347.64 215.406 347.64ZM221.967 341.32L224.127 347L226.287 341.32H228.047L225.007 349H223.247L220.207 341.32H221.967ZM236.123 347.912C235.803 348.264 235.36 348.563 234.795 348.808C234.23 349.043 233.579 349.16 232.843 349.16C232.107 349.16 231.43 348.984 230.811 348.632C230.203 348.28 229.723 347.8 229.371 347.192C229.019 346.573 228.843 345.896 228.843 345.16C228.843 344.424 229.019 343.752 229.371 343.144C229.723 342.536 230.198 342.056 230.795 341.704C231.392 341.341 232.048 341.16 232.763 341.16C233.478 341.16 234.118 341.325 234.683 341.656C235.259 341.976 235.707 342.424 236.027 343C236.358 343.565 236.523 344.205 236.523 344.92C236.523 345.219 236.496 345.485 236.443 345.72H230.523C230.608 346.253 230.875 346.707 231.323 347.08C231.771 347.453 232.304 347.64 232.923 347.64C233.371 347.64 233.787 347.56 234.171 347.4C234.566 347.229 234.896 347.027 235.163 346.792L236.123 347.912ZM234.843 344.36C234.715 343.827 234.47 343.4 234.107 343.08C233.755 342.76 233.307 342.6 232.763 342.6C232.187 342.6 231.712 342.76 231.339 343.08C230.966 343.389 230.694 343.816 230.523 344.36H234.843ZM239.876 342.36C240.09 342.072 240.372 341.827 240.724 341.624C241.087 341.421 241.498 341.32 241.956 341.32H242.596V342.76H241.956C241.583 342.76 241.236 342.861 240.916 343.064C240.596 343.256 240.34 343.533 240.148 343.896C239.967 344.248 239.876 344.643 239.876 345.08V349H238.276V341.32H239.876V342.36ZM248.522 347.88C248.277 348.232 247.941 348.536 247.514 348.792C247.087 349.037 246.597 349.16 246.042 349.16C245.551 349.16 245.109 349.059 244.714 348.856C244.33 348.653 244.026 348.381 243.802 348.04C243.589 347.688 243.482 347.315 243.482 346.92C243.482 346.269 243.69 345.709 244.106 345.24C244.533 344.76 245.082 344.493 245.754 344.44L248.522 344.216C248.522 343.8 248.367 343.427 248.058 343.096C247.759 342.765 247.381 342.6 246.922 342.6C246.527 342.6 246.159 342.659 245.818 342.776C245.477 342.883 245.189 343.016 244.954 343.176L243.914 342.136C244.223 341.859 244.639 341.629 245.162 341.448C245.685 341.256 246.271 341.16 246.922 341.16C247.551 341.16 248.106 341.288 248.586 341.544C249.077 341.8 249.455 342.157 249.722 342.616C249.989 343.064 250.122 343.565 250.122 344.12V349H248.522V347.88ZM246.282 345.72C245.898 345.763 245.599 345.885 245.386 346.088C245.183 346.28 245.082 346.504 245.082 346.76C245.082 347.048 245.199 347.293 245.434 347.496C245.669 347.699 245.978 347.8 246.362 347.8C246.981 347.8 247.493 347.613 247.898 347.24C248.314 346.867 248.522 346.365 248.522 345.736V345.496L246.282 345.72ZM252.922 349.88C253.167 350.147 253.477 350.371 253.85 350.552C254.223 350.744 254.634 350.84 255.082 350.84C255.807 350.84 256.389 350.616 256.826 350.168C257.263 349.72 257.482 349.117 257.482 348.36V347.64C257.237 347.971 256.901 348.253 256.474 348.488C256.047 348.723 255.557 348.84 255.002 348.84C254.394 348.84 253.823 348.675 253.29 348.344C252.767 348.013 252.346 347.555 252.026 346.968C251.717 346.381 251.562 345.725 251.562 345C251.562 344.275 251.717 343.619 252.026 343.032C252.346 342.445 252.767 341.987 253.29 341.656C253.823 341.325 254.394 341.16 255.002 341.16C255.557 341.16 256.047 341.277 256.474 341.512C256.901 341.747 257.237 342.029 257.482 342.36V341.32H259.082V348.36C259.082 349.128 258.911 349.816 258.57 350.424C258.229 351.032 257.754 351.507 257.146 351.848C256.538 352.189 255.85 352.36 255.082 352.36C254.378 352.36 253.738 352.221 253.162 351.944C252.597 351.667 252.143 351.325 251.802 350.92L252.922 349.88ZM255.322 347.32C255.717 347.32 256.079 347.224 256.41 347.032C256.741 346.829 257.002 346.552 257.194 346.2C257.386 345.848 257.482 345.448 257.482 345C257.482 344.552 257.386 344.152 257.194 343.8C257.002 343.448 256.741 343.176 256.41 342.984C256.079 342.781 255.717 342.68 255.322 342.68C254.927 342.68 254.565 342.781 254.234 342.984C253.903 343.176 253.642 343.448 253.45 343.8C253.258 344.152 253.162 344.552 253.162 345C253.162 345.448 253.258 345.848 253.45 346.2C253.642 346.552 253.903 346.829 254.234 347.032C254.565 347.224 254.927 347.32 255.322 347.32ZM268.123 347.912C267.803 348.264 267.36 348.563 266.795 348.808C266.23 349.043 265.579 349.16 264.843 349.16C264.107 349.16 263.43 348.984 262.811 348.632C262.203 348.28 261.723 347.8 261.371 347.192C261.019 346.573 260.843 345.896 260.843 345.16C260.843 344.424 261.019 343.752 261.371 343.144C261.723 342.536 262.198 342.056 262.795 341.704C263.392 341.341 264.048 341.16 264.763 341.16C265.478 341.16 266.118 341.325 266.683 341.656C267.259 341.976 267.707 342.424 268.027 343C268.358 343.565 268.523 344.205 268.523 344.92C268.523 345.219 268.496 345.485 268.443 345.72H262.523C262.608 346.253 262.875 346.707 263.323 347.08C263.771 347.453 264.304 347.64 264.923 347.64C265.371 347.64 265.787 347.56 266.171 347.4C266.566 347.229 266.896 347.027 267.163 346.792L268.123 347.912ZM266.843 344.36C266.715 343.827 266.47 343.4 266.107 343.08C265.755 342.76 265.307 342.6 264.763 342.6C264.187 342.6 263.712 342.76 263.339 343.08C262.966 343.389 262.694 343.816 262.523 344.36H266.843ZM274.131 350.84C274.441 350.84 274.713 350.749 274.947 350.568C275.182 350.387 275.363 350.131 275.491 349.8L275.811 349L272.691 341.32H274.451L276.611 347L278.771 341.32H280.531L277.171 349.88C276.841 350.701 276.446 351.32 275.987 351.736C275.539 352.152 275.001 352.36 274.371 352.36H273.171V350.84H274.131ZM288.608 347.912C288.288 348.264 287.845 348.563 287.28 348.808C286.714 349.043 286.064 349.16 285.328 349.16C284.592 349.16 283.914 348.984 283.296 348.632C282.688 348.28 282.208 347.8 281.856 347.192C281.504 346.573 281.328 345.896 281.328 345.16C281.328 344.424 281.504 343.752 281.856 343.144C282.208 342.536 282.682 342.056 283.28 341.704C283.877 341.341 284.533 341.16 285.248 341.16C285.962 341.16 286.602 341.325 287.168 341.656C287.744 341.976 288.192 342.424 288.512 343C288.842 343.565 289.008 344.205 289.008 344.92C289.008 345.219 288.981 345.485 288.928 345.72H283.008C283.093 346.253 283.36 346.707 283.808 347.08C284.256 347.453 284.789 347.64 285.408 347.64C285.856 347.64 286.272 347.56 286.656 347.4C287.05 347.229 287.381 347.027 287.648 346.792L288.608 347.912ZM287.328 344.36C287.2 343.827 286.954 343.4 286.592 343.08C286.24 342.76 285.792 342.6 285.248 342.6C284.672 342.6 284.197 342.76 283.824 343.08C283.45 343.389 283.178 343.816 283.008 344.36H287.328ZM295.241 347.88C294.995 348.232 294.659 348.536 294.233 348.792C293.806 349.037 293.315 349.16 292.761 349.16C292.27 349.16 291.827 349.059 291.433 348.856C291.049 348.653 290.745 348.381 290.521 348.04C290.307 347.688 290.201 347.315 290.201 346.92C290.201 346.269 290.409 345.709 290.825 345.24C291.251 344.76 291.801 344.493 292.473 344.44L295.241 344.216C295.241 343.8 295.086 343.427 294.777 343.096C294.478 342.765 294.099 342.6 293.641 342.6C293.246 342.6 292.878 342.659 292.537 342.776C292.195 342.883 291.907 343.016 291.673 343.176L290.633 342.136C290.942 341.859 291.358 341.629 291.881 341.448C292.403 341.256 292.99 341.16 293.641 341.16C294.27 341.16 294.825 341.288 295.305 341.544C295.795 341.8 296.174 342.157 296.441 342.616C296.707 343.064 296.841 343.565 296.841 344.12V349H295.241V347.88ZM293.001 345.72C292.617 345.763 292.318 345.885 292.105 346.088C291.902 346.28 291.801 346.504 291.801 346.76C291.801 347.048 291.918 347.293 292.153 347.496C292.387 347.699 292.697 347.8 293.081 347.8C293.699 347.8 294.211 347.613 294.617 347.24C295.033 346.867 295.241 346.365 295.241 345.736V345.496L293.001 345.72ZM300.361 342.36C300.574 342.072 300.857 341.827 301.209 341.624C301.571 341.421 301.982 341.32 302.441 341.32H303.081V342.76H302.441C302.067 342.76 301.721 342.861 301.401 343.064C301.081 343.256 300.825 343.533 300.633 343.896C300.451 344.248 300.361 344.643 300.361 345.08V349H298.761V341.32H300.361V342.36Z" fill="#25272E"/>
<path d="M199 380C199 373.373 204.373 368 211 368H273C275.209 368 277 369.791 277 372V412C277 414.209 275.209 416 273 416H211C204.373 416 199 410.627 199 404V380Z" fill="#F8F9FA"/>
<path d="M218.969 397.001C218.969 396.201 219.129 395.502 219.449 394.905C219.769 394.307 220.158 393.817 220.617 393.433C221.075 393.038 221.673 392.59 222.409 392.089C222.985 391.705 223.443 391.374 223.785 391.097C224.126 390.819 224.409 390.499 224.633 390.137C224.857 389.774 224.969 389.369 224.969 388.921C224.969 388.27 224.755 387.747 224.329 387.353C223.902 386.958 223.315 386.761 222.569 386.761C221.918 386.761 221.39 386.947 220.985 387.321C220.579 387.694 220.307 388.147 220.169 388.681L219.129 388.201C219.321 387.486 219.705 386.883 220.281 386.393C220.867 385.891 221.63 385.641 222.569 385.641C223.273 385.641 223.897 385.785 224.441 386.073C224.985 386.361 225.406 386.755 225.705 387.257C226.014 387.758 226.169 388.313 226.169 388.921C226.169 389.507 226.035 390.03 225.769 390.489C225.502 390.947 225.171 391.347 224.777 391.689C224.382 392.019 223.859 392.409 223.209 392.857C222.654 393.241 222.211 393.566 221.881 393.833C221.55 394.089 221.241 394.393 220.953 394.745C220.675 395.086 220.467 395.465 220.329 395.881H226.169V397.001H218.969Z" fill="#25272E"/>
<path d="M232.582 397.161C231.792 397.161 231.051 396.926 230.358 396.457C229.675 395.987 229.126 395.321 228.71 394.457C228.294 393.582 228.086 392.563 228.086 391.401C228.086 390.249 228.294 389.235 228.71 388.361C229.126 387.486 229.675 386.814 230.358 386.345C231.04 385.875 231.776 385.641 232.566 385.641C233.355 385.641 234.091 385.875 234.774 386.345C235.456 386.814 236.006 387.486 236.422 388.361C236.838 389.235 237.046 390.249 237.046 391.401C237.046 392.553 236.838 393.566 236.422 394.441C236.006 395.315 235.456 395.987 234.774 396.457C234.091 396.926 233.36 397.161 232.582 397.161ZM232.582 396.041C233.158 396.041 233.691 395.859 234.182 395.497C234.683 395.134 235.083 394.606 235.382 393.913C235.691 393.209 235.846 392.371 235.846 391.401C235.846 390.43 235.691 389.593 235.382 388.889C235.083 388.185 234.683 387.657 234.182 387.305C233.68 386.942 233.142 386.761 232.566 386.761C231.99 386.761 231.451 386.942 230.95 387.305C230.448 387.657 230.043 388.185 229.734 388.889C229.435 389.593 229.286 390.43 229.286 391.401C229.286 392.371 229.435 393.209 229.734 393.913C230.043 394.617 230.448 395.15 230.95 395.513C231.462 395.865 232.006 396.041 232.582 396.041Z" fill="#25272E"/>
<path d="M238.641 397.001C238.641 396.201 238.801 395.502 239.121 394.905C239.441 394.307 239.83 393.817 240.289 393.433C240.747 393.038 241.345 392.59 242.081 392.089C242.657 391.705 243.115 391.374 243.457 391.097C243.798 390.819 244.081 390.499 244.305 390.137C244.529 389.774 244.641 389.369 244.641 388.921C244.641 388.27 244.427 387.747 244.001 387.353C243.574 386.958 242.987 386.761 242.241 386.761C241.59 386.761 241.062 386.947 240.657 387.321C240.251 387.694 239.979 388.147 239.841 388.681L238.801 388.201C238.993 387.486 239.377 386.883 239.953 386.393C240.539 385.891 241.302 385.641 242.241 385.641C242.945 385.641 243.569 385.785 244.113 386.073C244.657 386.361 245.078 386.755 245.377 387.257C245.686 387.758 245.841 388.313 245.841 388.921C245.841 389.507 245.707 390.03 245.441 390.489C245.174 390.947 244.843 391.347 244.449 391.689C244.054 392.019 243.531 392.409 242.881 392.857C242.326 393.241 241.883 393.566 241.553 393.833C241.222 394.089 240.913 394.393 240.625 394.745C240.347 395.086 240.139 395.465 240.001 395.881H245.841V397.001H238.641Z" fill="#25272E"/>
<path d="M252.254 397.161C251.464 397.161 250.723 396.926 250.029 396.457C249.347 395.987 248.798 395.321 248.382 394.457C247.966 393.582 247.757 392.563 247.757 391.401C247.757 390.249 247.966 389.235 248.382 388.361C248.798 387.486 249.347 386.814 250.029 386.345C250.712 385.875 251.448 385.641 252.237 385.641C253.027 385.641 253.763 385.875 254.445 386.345C255.128 386.814 255.678 387.486 256.094 388.361C256.51 389.235 256.717 390.249 256.717 391.401C256.717 392.553 256.51 393.566 256.094 394.441C255.678 395.315 255.128 395.987 254.445 396.457C253.763 396.926 253.032 397.161 252.254 397.161ZM252.254 396.041C252.83 396.041 253.363 395.859 253.854 395.497C254.355 395.134 254.755 394.606 255.054 393.913C255.363 393.209 255.518 392.371 255.518 391.401C255.518 390.43 255.363 389.593 255.054 388.889C254.755 388.185 254.355 387.657 253.854 387.305C253.352 386.942 252.813 386.761 252.237 386.761C251.661 386.761 251.123 386.942 250.622 387.305C250.12 387.657 249.715 388.185 249.406 388.889C249.107 389.593 248.958 390.43 248.958 391.401C248.958 392.371 249.107 393.209 249.406 393.913C249.715 394.617 250.12 395.15 250.622 395.513C251.134 395.865 251.678 396.041 252.254 396.041Z" fill="#25272E"/>
<path d="M281 372C281 369.791 282.791 368 285 368H347C353.627 368 359 373.373 359 380V404C359 410.627 353.627 416 347 416H285C282.791 416 281 414.209 281 412V372Z" fill="#E4F0F0"/>
<path fill-rule="evenodd" clip-rule="evenodd" d="M347 370H285C283.895 370 283 370.895 283 372V412C283 413.105 283.895 414 285 414H347C352.523 414 357 409.523 357 404V380C357 374.477 352.523 370 347 370ZM285 368C282.791 368 281 369.791 281 372V412C281 414.209 282.791 416 285 416H347C353.627 416 359 410.627 359 404V380C359 373.373 353.627 368 347 368H285Z" fill="#A9C0C4"/>
<path d="M303.121 397.001C303.121 396.105 303.286 395.331 303.617 394.681C303.958 394.03 304.364 393.502 304.833 393.097C305.302 392.681 305.91 392.222 306.657 391.721C307.18 391.369 307.585 391.081 307.873 390.857C308.161 390.622 308.401 390.361 308.593 390.073C308.785 389.774 308.881 389.443 308.881 389.081C308.881 388.547 308.705 388.121 308.353 387.801C308.001 387.481 307.51 387.321 306.881 387.321C306.326 387.321 305.868 387.47 305.505 387.769C305.142 388.057 304.881 388.414 304.721 388.841L303.281 388.201C303.505 387.486 303.916 386.883 304.513 386.393C305.121 385.891 305.91 385.641 306.881 385.641C307.606 385.641 308.257 385.795 308.833 386.105C309.409 386.403 309.852 386.814 310.161 387.337C310.481 387.859 310.641 388.441 310.641 389.081C310.641 389.678 310.508 390.206 310.241 390.665C309.985 391.113 309.67 391.497 309.297 391.817C308.924 392.126 308.412 392.499 307.761 392.937C307.089 393.385 306.55 393.779 306.145 394.121C305.75 394.462 305.436 394.862 305.201 395.321H310.641V397.001H303.121Z" fill="#25272E"/>
<path d="M317.034 397.161C316.17 397.161 315.386 396.937 314.682 396.489C313.978 396.03 313.418 395.369 313.002 394.505C312.597 393.63 312.394 392.595 312.394 391.401C312.394 390.206 312.597 389.177 313.002 388.313C313.418 387.438 313.978 386.777 314.682 386.329C315.386 385.87 316.17 385.641 317.034 385.641C317.898 385.641 318.682 385.87 319.386 386.329C320.09 386.777 320.645 387.438 321.05 388.313C321.466 389.177 321.674 390.206 321.674 391.401C321.674 392.595 321.466 393.63 321.05 394.505C320.645 395.369 320.09 396.03 319.386 396.489C318.682 396.937 317.898 397.161 317.034 397.161ZM319.914 391.401C319.914 390.505 319.781 389.747 319.514 389.129C319.258 388.499 318.912 388.03 318.474 387.721C318.037 387.401 317.557 387.241 317.034 387.241C316.512 387.241 316.032 387.401 315.594 387.721C315.157 388.03 314.805 388.499 314.538 389.129C314.282 389.747 314.154 390.505 314.154 391.401C314.154 392.297 314.282 393.059 314.538 393.689C314.805 394.307 315.157 394.777 315.594 395.097C316.032 395.406 316.512 395.561 317.034 395.561C317.557 395.561 318.037 395.406 318.474 395.097C318.912 394.777 319.258 394.307 319.514 393.689C319.781 393.059 319.914 392.297 319.914 391.401Z" fill="#25272E"/>
<path d="M323.121 397.001C323.121 396.105 323.286 395.331 323.617 394.681C323.958 394.03 324.364 393.502 324.833 393.097C325.302 392.681 325.91 392.222 326.657 391.721C327.18 391.369 327.585 391.081 327.873 390.857C328.161 390.622 328.401 390.361 328.593 390.073C328.785 389.774 328.881 389.443 328.881 389.081C328.881 388.547 328.705 388.121 328.353 387.801C328.001 387.481 327.51 387.321 326.881 387.321C326.326 387.321 325.868 387.47 325.505 387.769C325.142 388.057 324.881 388.414 324.721 388.841L323.281 388.201C323.505 387.486 323.916 386.883 324.513 386.393C325.121 385.891 325.91 385.641 326.881 385.641C327.606 385.641 328.257 385.795 328.833 386.105C329.409 386.403 329.852 386.814 330.161 387.337C330.481 387.859 330.641 388.441 330.641 389.081C330.641 389.678 330.508 390.206 330.241 390.665C329.985 391.113 329.67 391.497 329.297 391.817C328.924 392.126 328.412 392.499 327.761 392.937C327.089 393.385 326.55 393.779 326.145 394.121C325.75 394.462 325.436 394.862 325.201 395.321H330.641V397.001H323.121Z" fill="#25272E"/>
<path d="M332.074 387.321C332.746 387.246 333.258 387.086 333.61 386.841C333.962 386.595 334.25 386.249 334.474 385.801H335.834V397.001H334.074V388.441H332.074V387.321Z" fill="#25272E"/>
<path d="M22.96 339.48H16.96V337.8H25.04V339.48L18.8 347.32H25.2V349H16.72V347.32L22.96 339.48ZM26.9619 338.92C26.9619 338.653 27.0579 338.429 27.2499 338.248C27.4525 338.056 27.6765 337.96 27.9219 337.96C28.1672 337.96 28.3859 338.056 28.5779 338.248C28.7805 338.429 28.8819 338.653 28.8819 338.92C28.8819 339.187 28.7805 339.416 28.5779 339.608C28.3859 339.789 28.1672 339.88 27.9219 339.88C27.6765 339.88 27.4525 339.789 27.2499 339.608C27.0579 339.416 26.9619 339.187 26.9619 338.92ZM28.7219 341.32V349H27.1219V341.32H28.7219ZM32.6419 342.44C32.8872 342.088 33.2392 341.789 33.6979 341.544C34.1565 341.288 34.6845 341.16 35.2819 341.16C35.9219 341.16 36.5139 341.336 37.0579 341.688C37.6125 342.029 38.0552 342.504 38.3859 343.112C38.7165 343.72 38.8819 344.403 38.8819 345.16C38.8819 345.917 38.7165 346.6 38.3859 347.208C38.0552 347.816 37.6125 348.296 37.0579 348.648C36.5139 348.989 35.9219 349.16 35.2819 349.16C34.6845 349.16 34.1565 349.037 33.6979 348.792C33.2392 348.536 32.8872 348.232 32.6419 347.88V352.36H31.0419V341.32H32.6419V342.44ZM34.9619 347.64C35.3885 347.64 35.7779 347.533 36.1299 347.32C36.4819 347.107 36.7592 346.813 36.9619 346.44C37.1752 346.056 37.2819 345.629 37.2819 345.16C37.2819 344.691 37.1752 344.269 36.9619 343.896C36.7592 343.512 36.4819 343.213 36.1299 343C35.7779 342.787 35.3885 342.68 34.9619 342.68C34.5352 342.68 34.1459 342.787 33.7939 343C33.4419 343.213 33.1592 343.512 32.9459 343.896C32.7432 344.269 32.6419 344.691 32.6419 345.16C32.6419 345.629 32.7432 346.056 32.9459 346.44C33.1592 346.813 33.4419 347.107 33.7939 347.32C34.1459 347.533 34.5352 347.64 34.9619 347.64ZM51.1231 347.56C50.7818 348.008 50.3231 348.387 49.7471 348.696C49.1818 349.005 48.5471 349.16 47.8431 349.16C47.1071 349.16 46.4298 348.984 45.8111 348.632C45.2031 348.28 44.7231 347.8 44.3711 347.192C44.0191 346.573 43.8431 345.896 43.8431 345.16C43.8431 344.424 44.0191 343.752 44.3711 343.144C44.7231 342.525 45.2031 342.04 45.8111 341.688C46.4298 341.336 47.1071 341.16 47.8431 341.16C48.5471 341.16 49.1765 341.309 49.7311 341.608C50.2858 341.896 50.7231 342.253 51.0431 342.68L49.9231 343.72C49.6991 343.432 49.4058 343.187 49.0431 342.984C48.6911 342.781 48.2911 342.68 47.8431 342.68C47.3951 342.68 46.9845 342.787 46.6111 343C46.2485 343.213 45.9605 343.512 45.7471 343.896C45.5445 344.269 45.4431 344.691 45.4431 345.16C45.4431 345.629 45.5445 346.056 45.7471 346.44C45.9605 346.813 46.2485 347.107 46.6111 347.32C46.9845 347.533 47.3951 347.64 47.8431 347.64C48.2911 347.64 48.7018 347.533 49.0751 347.32C49.4485 347.096 49.7578 346.829 50.0031 346.52L51.1231 347.56ZM51.9994 345.16C51.9994 344.424 52.1754 343.752 52.5274 343.144C52.8794 342.525 53.3594 342.04 53.9674 341.688C54.586 341.336 55.2634 341.16 55.9994 341.16C56.7354 341.16 57.4074 341.336 58.0154 341.688C58.634 342.04 59.1194 342.525 59.4714 343.144C59.8234 343.752 59.9994 344.424 59.9994 345.16C59.9994 345.896 59.8234 346.573 59.4714 347.192C59.1194 347.8 58.634 348.28 58.0154 348.632C57.4074 348.984 56.7354 349.16 55.9994 349.16C55.2634 349.16 54.586 348.984 53.9674 348.632C53.3594 348.28 52.8794 347.8 52.5274 347.192C52.1754 346.573 51.9994 345.896 51.9994 345.16ZM55.9994 347.64C56.4474 347.64 56.8527 347.533 57.2154 347.32C57.5887 347.107 57.8767 346.813 58.0794 346.44C58.2927 346.056 58.3994 345.629 58.3994 345.16C58.3994 344.691 58.2927 344.269 58.0794 343.896C57.8767 343.512 57.5887 343.213 57.2154 343C56.8527 342.787 56.4474 342.68 55.9994 342.68C55.5514 342.68 55.1407 342.787 54.7674 343C54.4047 343.213 54.1167 343.512 53.9034 343.896C53.7007 344.269 53.5994 344.691 53.5994 345.16C53.5994 345.629 53.7007 346.056 53.9034 346.44C54.1167 346.813 54.4047 347.107 54.7674 347.32C55.1407 347.533 55.5514 347.64 55.9994 347.64ZM67.5206 347.88C67.2753 348.232 66.9233 348.536 66.4646 348.792C66.006 349.037 65.478 349.16 64.8806 349.16C64.2406 349.16 63.6433 348.989 63.0886 348.648C62.5446 348.296 62.1073 347.816 61.7766 347.208C61.446 346.6 61.2806 345.917 61.2806 345.16C61.2806 344.403 61.446 343.72 61.7766 343.112C62.1073 342.504 62.5446 342.029 63.0886 341.688C63.6433 341.336 64.2406 341.16 64.8806 341.16C65.478 341.16 66.006 341.288 66.4646 341.544C66.9233 341.789 67.2753 342.088 67.5206 342.44V337.8H69.1206V349H67.5206V347.88ZM65.2006 347.64C65.6273 347.64 66.0166 347.533 66.3686 347.32C66.7206 347.107 66.998 346.813 67.2006 346.44C67.414 346.056 67.5206 345.629 67.5206 345.16C67.5206 344.691 67.414 344.269 67.2006 343.896C66.998 343.512 66.7206 343.213 66.3686 343C66.0166 342.787 65.6273 342.68 65.2006 342.68C64.774 342.68 64.3846 342.787 64.0326 343C63.6806 343.213 63.398 343.512 63.1846 343.896C62.982 344.269 62.8806 344.691 62.8806 345.16C62.8806 345.629 62.982 346.056 63.1846 346.44C63.398 346.813 63.6806 347.107 64.0326 347.32C64.3846 347.533 64.774 347.64 65.2006 347.64ZM78.2481 347.912C77.9281 348.264 77.4855 348.563 76.9201 348.808C76.3548 349.043 75.7041 349.16 74.9681 349.16C74.2321 349.16 73.5548 348.984 72.9361 348.632C72.3281 348.28 71.8481 347.8 71.4961 347.192C71.1441 346.573 70.9681 345.896 70.9681 345.16C70.9681 344.424 71.1441 343.752 71.4961 343.144C71.8481 342.536 72.3228 342.056 72.9201 341.704C73.5175 341.341 74.1735 341.16 74.8881 341.16C75.6028 341.16 76.2428 341.325 76.8081 341.656C77.3841 341.976 77.8321 342.424 78.1521 343C78.4828 343.565 78.6481 344.205 78.6481 344.92C78.6481 345.219 78.6215 345.485 78.5681 345.72H72.6481C72.7335 346.253 73.0001 346.707 73.4481 347.08C73.8961 347.453 74.4295 347.64 75.0481 347.64C75.4961 347.64 75.9121 347.56 76.2961 347.4C76.6908 347.229 77.0215 347.027 77.2881 346.792L78.2481 347.912ZM76.9681 344.36C76.8401 343.827 76.5948 343.4 76.2321 343.08C75.8801 342.76 75.4321 342.6 74.8881 342.6C74.3121 342.6 73.8375 342.76 73.4641 343.08C73.0908 343.389 72.8188 343.816 72.6481 344.36H76.9681Z" fill="#25272E"/>
<path d="M16 380C16 373.373 21.3726 368 28 368H163C169.627 368 175 373.373 175 380V404C175 410.627 169.627 416 163 416H28C21.3726 416 16 410.627 16 404V380Z" fill="white"/>
<path fill-rule="evenodd" clip-rule="evenodd" d="M163 369H28C21.9249 369 17 373.925 17 380V404C17 410.075 21.9249 415 28 415H163C169.075 415 174 410.075 174 404V380C174 373.925 169.075 369 163 369ZM28 368C21.3726 368 16 373.373 16 380V404C16 410.627 21.3726 416 28 416H163C169.627 416 175 410.627 175 404V380C175 373.373 169.627 368 163 368H28Z" fill="#1169F5"/>
<path d="M27.6016 387.101V385.001H36.8016V387.001L31.0016 399.001H28.6016L34.4016 387.101H27.6016Z" fill="#25272E"/>
<path d="M39.2922 395.601C39.6255 396.041 40.0855 396.421 40.6722 396.741C41.2722 397.047 41.9455 397.201 42.6922 397.201C43.5722 397.201 44.2589 396.987 44.7522 396.561C45.2455 396.121 45.4922 395.567 45.4922 394.901C45.4922 394.274 45.2389 393.754 44.7322 393.341C44.2389 392.914 43.5589 392.701 42.6922 392.701H41.1922V390.601H42.6922C43.4255 390.601 43.9922 390.427 44.3922 390.081C44.7922 389.734 44.9922 389.274 44.9922 388.701C44.9922 388.127 44.7922 387.667 44.3922 387.321C43.9922 386.974 43.4255 386.801 42.6922 386.801C42.0655 386.801 41.4922 386.941 40.9722 387.221C40.4522 387.487 40.0255 387.814 39.6922 388.201L38.1922 386.701C38.6855 386.167 39.3189 385.721 40.0922 385.361C40.8789 384.987 41.7455 384.801 42.6922 384.801C43.5989 384.801 44.3922 384.967 45.0722 385.301C45.7522 385.634 46.2722 386.087 46.6322 386.661C47.0055 387.221 47.1922 387.834 47.1922 388.501C47.1922 389.247 46.9855 389.887 46.5722 390.421C46.1722 390.954 45.6789 391.347 45.0922 391.601C45.8122 391.854 46.4255 392.274 46.9322 392.861C47.4389 393.434 47.6922 394.147 47.6922 395.001C47.6922 395.774 47.4855 396.481 47.0722 397.121C46.6722 397.761 46.0922 398.267 45.3322 398.641C44.5722 399.014 43.6922 399.201 42.6922 399.201C41.6122 399.201 40.6455 399.001 39.7922 398.601C38.9522 398.187 38.2855 397.687 37.7922 397.101L39.2922 395.601Z" fill="#25272E"/>
<path d="M50.6008 395.601C50.9341 396.041 51.3941 396.421 51.9808 396.741C52.5808 397.047 53.2541 397.201 54.0008 397.201C54.8808 397.201 55.5674 396.987 56.0608 396.561C56.5541 396.121 56.8008 395.567 56.8008 394.901C56.8008 394.274 56.5474 393.754 56.0408 393.341C55.5474 392.914 54.8674 392.701 54.0008 392.701H52.5008V390.601H54.0008C54.7341 390.601 55.3008 390.427 55.7008 390.081C56.1008 389.734 56.3008 389.274 56.3008 388.701C56.3008 388.127 56.1008 387.667 55.7008 387.321C55.3008 386.974 54.7341 386.801 54.0008 386.801C53.3741 386.801 52.8008 386.941 52.2808 387.221C51.7608 387.487 51.3341 387.814 51.0008 388.201L49.5008 386.701C49.9941 386.167 50.6274 385.721 51.4008 385.361C52.1874 384.987 53.0541 384.801 54.0008 384.801C54.9074 384.801 55.7008 384.967 56.3808 385.301C57.0608 385.634 57.5808 386.087 57.9408 386.661C58.3141 387.221 58.5008 387.834 58.5008 388.501C58.5008 389.247 58.2941 389.887 57.8808 390.421C57.4808 390.954 56.9874 391.347 56.4008 391.601C57.1208 391.854 57.7341 392.274 58.2408 392.861C58.7474 393.434 59.0008 394.147 59.0008 395.001C59.0008 395.774 58.7941 396.481 58.3808 397.121C57.9808 397.761 57.4008 398.267 56.6408 398.641C55.8808 399.014 55.0008 399.201 54.0008 399.201C52.9208 399.201 51.9541 399.001 51.1008 398.601C50.2608 398.187 49.5941 397.687 49.1008 397.101L50.6008 395.601Z" fill="#25272E"/>
<path d="M66.9094 399.201C65.8294 399.201 64.8494 398.921 63.9694 398.361C63.0894 397.787 62.3894 396.961 61.8694 395.881C61.3627 394.787 61.1094 393.494 61.1094 392.001C61.1094 390.507 61.3627 389.221 61.8694 388.141C62.3894 387.047 63.0894 386.221 63.9694 385.661C64.8494 385.087 65.8294 384.801 66.9094 384.801C67.9894 384.801 68.9694 385.087 69.8494 385.661C70.7294 386.221 71.4227 387.047 71.9294 388.141C72.4494 389.221 72.7094 390.507 72.7094 392.001C72.7094 393.494 72.4494 394.787 71.9294 395.881C71.4227 396.961 70.7294 397.787 69.8494 398.361C68.9694 398.921 67.9894 399.201 66.9094 399.201ZM70.5094 392.001C70.5094 390.881 70.3427 389.934 70.0094 389.161C69.6894 388.374 69.256 387.787 68.7094 387.401C68.1627 387.001 67.5627 386.801 66.9094 386.801C66.256 386.801 65.656 387.001 65.1094 387.401C64.5627 387.787 64.1227 388.374 63.7894 389.161C63.4694 389.934 63.3094 390.881 63.3094 392.001C63.3094 393.121 63.4694 394.074 63.7894 394.861C64.1227 395.634 64.5627 396.221 65.1094 396.621C65.656 397.007 66.256 397.201 66.9094 397.201C67.5627 397.201 68.1627 397.007 68.7094 396.621C69.256 396.221 69.6894 395.634 70.0094 394.861C70.3427 394.074 70.5094 393.121 70.5094 392.001Z" fill="#25272E"/>
<path d="M74.518 386.901C75.358 386.807 75.998 386.607 76.438 386.301C76.878 385.994 77.238 385.561 77.518 385.001H79.218V399.001H77.018V388.301H74.518V386.901Z" fill="#25272E"/>
<path d="M16.6443 435.18V434.2H23.8543V435.18H20.7743V444H19.7243V435.18H16.6443ZM25.3959 438.19C25.5732 437.901 25.8392 437.653 26.1939 437.448C26.5579 437.243 26.9919 437.14 27.4959 437.14H27.9159V438.12H27.4959C27.1226 438.12 26.7726 438.209 26.4459 438.386C26.1286 438.563 25.8719 438.82 25.6759 439.156C25.4892 439.483 25.3959 439.861 25.3959 440.29V444H24.4159V437.28H25.3959V438.19ZM33.3021 443.09C33.0874 443.379 32.7934 443.627 32.4201 443.832C32.0467 444.037 31.6174 444.14 31.1321 444.14C30.6841 444.14 30.2781 444.047 29.9141 443.86C29.5501 443.673 29.2654 443.431 29.0601 443.132C28.8547 442.824 28.7521 442.507 28.7521 442.18C28.7521 441.611 28.9201 441.144 29.2561 440.78C29.6014 440.416 30.0867 440.206 30.7121 440.15L33.3021 439.926C33.3021 439.599 33.2274 439.291 33.0781 439.002C32.9381 438.713 32.7374 438.484 32.4761 438.316C32.2241 438.139 31.9394 438.05 31.6221 438.05C31.2301 438.05 30.8707 438.097 30.5441 438.19C30.2174 438.283 29.9467 438.4 29.7321 438.54L29.1021 437.91C29.3821 437.695 29.7414 437.513 30.1801 437.364C30.6187 437.215 31.0994 437.14 31.6221 437.14C32.1261 437.14 32.5787 437.257 32.9801 437.49C33.3907 437.714 33.7081 438.022 33.9321 438.414C34.1654 438.806 34.2821 439.245 34.2821 439.73V444H33.3021V443.09ZM30.9921 440.99C30.5814 441.027 30.2687 441.153 30.0541 441.368C29.8394 441.583 29.7321 441.853 29.7321 442.18C29.7321 442.479 29.8534 442.731 30.0961 442.936C30.3481 443.132 30.6934 443.23 31.1321 443.23C31.7854 443.23 32.3081 443.053 32.7001 442.698C33.1014 442.334 33.3021 441.83 33.3021 441.186V440.766L30.9921 440.99ZM36.1086 437.28L38.2786 442.67L40.4486 437.28H41.4986L38.7686 444H37.7886L35.0586 437.28H36.1086ZM42.6919 435.04C42.6919 434.863 42.7526 434.713 42.8739 434.592C42.9952 434.471 43.1446 434.41 43.3219 434.41C43.4992 434.41 43.6486 434.471 43.7699 434.592C43.8912 434.713 43.9519 434.863 43.9519 435.04C43.9519 435.217 43.8912 435.367 43.7699 435.488C43.6486 435.609 43.4992 435.67 43.3219 435.67C43.1446 435.67 42.9952 435.609 42.8739 435.488C42.7526 435.367 42.6919 435.217 42.6919 435.04ZM43.8119 437.28V444H42.8319V437.28H43.8119ZM46.1285 442.25C46.3151 442.521 46.5625 442.754 46.8705 442.95C47.1785 443.137 47.5145 443.23 47.8785 443.23C48.3545 443.23 48.7185 443.127 48.9705 442.922C49.2225 442.707 49.3485 442.437 49.3485 442.11C49.3485 441.802 49.2178 441.569 48.9565 441.41C48.7045 441.251 48.3218 441.097 47.8085 440.948C47.3511 440.808 46.9825 440.677 46.7025 440.556C46.4318 440.425 46.1985 440.239 46.0025 439.996C45.8065 439.744 45.7085 439.422 45.7085 439.03C45.7085 438.703 45.8018 438.395 45.9885 438.106C46.1845 437.817 46.4505 437.583 46.7865 437.406C47.1318 437.229 47.5191 437.14 47.9485 437.14C48.4058 437.14 48.8211 437.229 49.1945 437.406C49.5771 437.583 49.8851 437.798 50.1185 438.05L49.4185 438.75C49.2691 438.554 49.0638 438.391 48.8025 438.26C48.5505 438.12 48.2658 438.05 47.9485 438.05C47.5751 438.05 47.2718 438.148 47.0385 438.344C46.8051 438.54 46.6885 438.769 46.6885 439.03C46.6885 439.319 46.8098 439.539 47.0525 439.688C47.2951 439.828 47.6731 439.973 48.1865 440.122C48.6438 440.262 49.0125 440.397 49.2925 440.528C49.5818 440.659 49.8245 440.855 50.0205 441.116C50.2258 441.368 50.3285 441.699 50.3285 442.11C50.3285 442.483 50.2305 442.824 50.0345 443.132C49.8385 443.44 49.5538 443.687 49.1805 443.874C48.8071 444.051 48.3731 444.14 47.8785 444.14C47.3278 444.14 46.8425 444.028 46.4225 443.804C46.0025 443.571 45.6711 443.286 45.4285 442.95L46.1285 442.25ZM64.0386 442.11C63.6093 442.679 63.04 443.16 62.3306 443.552C61.6306 443.944 60.8466 444.14 59.9786 444.14C59.064 444.14 58.2193 443.916 57.4446 443.468C56.67 443.02 56.0586 442.409 55.6106 441.634C55.1626 440.859 54.9386 440.015 54.9386 439.1C54.9386 438.185 55.1626 437.341 55.6106 436.566C56.0586 435.791 56.67 435.18 57.4446 434.732C58.2193 434.284 59.064 434.06 59.9786 434.06C60.8466 434.06 61.626 434.256 62.3166 434.648C63.0073 435.04 63.558 435.521 63.9686 436.09L63.2686 436.72C62.942 436.253 62.494 435.857 61.9246 435.53C61.3646 435.203 60.716 435.04 59.9786 435.04C59.2413 435.04 58.5693 435.217 57.9626 435.572C57.356 435.927 56.8753 436.417 56.5206 437.042C56.166 437.658 55.9886 438.344 55.9886 439.1C55.9886 439.856 56.166 440.547 56.5206 441.172C56.8753 441.788 57.356 442.273 57.9626 442.628C58.5693 442.983 59.2413 443.16 59.9786 443.16C60.716 443.16 61.374 442.997 61.9526 442.67C62.5313 442.343 62.9933 441.947 63.3386 441.48L64.0386 442.11ZM68.5219 444.14C67.8966 444.14 67.3226 443.986 66.7999 443.678C66.2772 443.361 65.8619 442.936 65.5539 442.404C65.2459 441.872 65.0919 441.284 65.0919 440.64C65.0919 439.996 65.2459 439.408 65.5539 438.876C65.8619 438.344 66.2772 437.924 66.7999 437.616C67.3226 437.299 67.8966 437.14 68.5219 437.14C69.1472 437.14 69.7212 437.299 70.2439 437.616C70.7666 437.924 71.1819 438.344 71.4899 438.876C71.7979 439.408 71.9519 439.996 71.9519 440.64C71.9519 441.284 71.7979 441.872 71.4899 442.404C71.1819 442.936 70.7666 443.361 70.2439 443.678C69.7212 443.986 69.1472 444.14 68.5219 444.14ZM68.5219 443.23C68.9606 443.23 69.3666 443.118 69.7399 442.894C70.1132 442.661 70.4119 442.348 70.6359 441.956C70.8599 441.555 70.9719 441.116 70.9719 440.64C70.9719 440.164 70.8599 439.73 70.6359 439.338C70.4119 438.937 70.1132 438.624 69.7399 438.4C69.3666 438.167 68.9606 438.05 68.5219 438.05C68.0832 438.05 67.6772 438.167 67.3039 438.4C66.9306 438.624 66.6319 438.937 66.4079 439.338C66.1839 439.73 66.0719 440.164 66.0719 440.64C66.0719 441.116 66.1839 441.555 66.4079 441.956C66.6319 442.348 66.9306 442.661 67.3039 442.894C67.6772 443.118 68.0832 443.23 68.5219 443.23ZM74.683 441.2C74.683 441.592 74.767 441.942 74.935 442.25C75.103 442.558 75.3317 442.801 75.621 442.978C75.9103 443.146 76.2277 443.23 76.573 443.23C76.9463 443.23 77.287 443.137 77.595 442.95C77.903 442.754 78.1457 442.488 78.323 442.152C78.5097 441.807 78.603 441.419 78.603 440.99V437.28H79.583V444H78.603V443.09C78.3883 443.379 78.0943 443.627 77.721 443.832C77.3477 444.037 76.9183 444.14 76.433 444.14C75.9197 444.14 75.453 444.019 75.033 443.776C74.6223 443.524 74.2957 443.174 74.053 442.726C73.8197 442.278 73.703 441.769 73.703 441.2V437.28H74.683V441.2ZM82.8725 438.26C83.0871 437.952 83.3811 437.691 83.7545 437.476C84.1278 437.252 84.5571 437.14 85.0425 437.14C85.5745 437.14 86.0458 437.257 86.4565 437.49C86.8765 437.723 87.1985 438.059 87.4225 438.498C87.6558 438.927 87.7725 439.431 87.7725 440.01V444H86.7925V440.01C86.7925 439.422 86.6198 438.951 86.2745 438.596C85.9385 438.232 85.5045 438.05 84.9725 438.05C84.5805 438.05 84.2211 438.148 83.8945 438.344C83.5771 438.531 83.3251 438.792 83.1385 439.128C82.9611 439.464 82.8725 439.851 82.8725 440.29V444H81.8925V437.28H82.8725V438.26ZM89.1768 437.28H90.4368V435.04H91.4168V437.28H93.2368V438.19H91.4168V442.18C91.4168 442.516 91.4915 442.754 91.6408 442.894C91.7995 443.025 92.0282 443.09 92.3268 443.09H93.2368V444H92.2848C91.6968 444 91.2395 443.851 90.9128 443.552C90.5955 443.253 90.4368 442.796 90.4368 442.18V438.19H89.1768V437.28ZM94.995 446.03C95.303 446.03 95.555 445.941 95.751 445.764C95.9564 445.596 96.1244 445.335 96.255 444.98L96.605 444L93.875 437.28H94.925L97.095 442.74L99.265 437.28H100.315L97.235 444.98C96.955 445.689 96.6564 446.193 96.339 446.492C96.0217 446.791 95.6204 446.94 95.135 446.94H94.295V446.03H94.995ZM101.858 443.006L100.878 445.54H100.248L100.878 443.006H101.858ZM106.045 435.18V434.2H113.255V435.18H110.175V444H109.125V435.18H106.045ZM114.09 434.2H115.35L118.08 438.05L120.81 434.2H122.07L118.71 438.89L122.35 444H121.09L118.08 439.73L115.07 444H113.81L117.45 438.89L114.09 434.2Z" fill="#70747D"/>
</g>
<g filter="url(#filter1_b)">
<rect width="375" height="88" fill="white" fill-opacity="0.95"/>
<path opacity="0.35" d="M338.663 17.7988H355.329C356.525 17.7988 357.496 18.7689 357.496 19.9655V25.9439C357.496 27.1405 356.525 28.1106 355.329 28.1106H338.663C337.466 28.1106 336.496 27.1405 336.496 25.9439V19.9655C336.496 18.7689 337.466 17.7988 338.663 17.7988Z" stroke="black"/>
<path opacity="0.4" d="M358.996 20.959V24.9514C359.801 24.6132 360.324 23.8267 360.324 22.9552C360.324 22.0837 359.801 21.2971 358.996 20.959" fill="black"/>
<path d="M337.996 20.6283C337.996 19.8919 338.593 19.2949 339.329 19.2949H354.662C355.399 19.2949 355.996 19.8919 355.996 20.6283V25.281C355.996 26.0173 355.399 26.6143 354.662 26.6143H339.329C338.593 26.6143 337.996 26.0173 337.996 25.281V20.6283Z" fill="black"/>
<path fill-rule="evenodd" clip-rule="evenodd" d="M323.328 19.5699C325.544 19.57 327.675 20.4198 329.281 21.9437C329.402 22.0613 329.595 22.0598 329.714 21.9404L330.87 20.7759C330.93 20.7153 330.964 20.6332 330.963 20.5478C330.963 20.4624 330.928 20.3807 330.867 20.3208C326.652 16.2889 320.003 16.2889 315.788 20.3208C315.727 20.3806 315.692 20.4623 315.691 20.5477C315.691 20.6331 315.724 20.7153 315.785 20.7759L316.941 21.9404C317.06 22.06 317.253 22.0615 317.374 21.9437C318.98 20.4197 321.112 19.5699 323.328 19.5699ZM323.328 23.3583C324.545 23.3582 325.719 23.8099 326.622 24.6256C326.744 24.7413 326.936 24.7388 327.055 24.6199L328.21 23.4555C328.27 23.3944 328.304 23.3115 328.303 23.2254C328.302 23.1393 328.267 23.0572 328.205 22.9973C325.457 20.4458 321.201 20.4458 318.453 22.9973C318.391 23.0572 318.355 23.1394 318.355 23.2255C318.354 23.3116 318.388 23.3945 318.449 23.4555L319.603 24.6199C319.722 24.7388 319.914 24.7413 320.036 24.6256C320.938 23.8104 322.111 23.3588 323.328 23.3583ZM325.641 25.9073C325.643 25.9936 325.609 26.0769 325.547 26.1374L323.549 28.1492C323.491 28.2083 323.411 28.2416 323.328 28.2416C323.245 28.2416 323.165 28.2083 323.106 28.1492L321.109 26.1374C321.047 26.0768 321.013 25.9935 321.015 25.9072C321.017 25.8209 321.054 25.7391 321.118 25.6812C322.394 24.6044 324.262 24.6044 325.537 25.6812C325.602 25.7391 325.639 25.8209 325.641 25.9073Z" fill="black"/>
<path fill-rule="evenodd" clip-rule="evenodd" d="M309.664 17.6328H308.664C308.111 17.6328 307.664 18.0797 307.664 18.6309V27.2811C307.664 27.8323 308.111 28.2792 308.664 28.2792H309.664C310.216 28.2792 310.664 27.8323 310.664 27.2811V18.6309C310.664 18.0797 310.216 17.6328 309.664 17.6328ZM303.997 19.9617H304.997C305.549 19.9617 305.997 20.4086 305.997 20.9598V27.2811C305.997 27.8323 305.549 28.2792 304.997 28.2792H303.997C303.445 28.2792 302.997 27.8323 302.997 27.2811V20.9598C302.997 20.4086 303.445 19.9617 303.997 19.9617ZM300.331 22.2906H299.331C298.778 22.2906 298.331 22.7375 298.331 23.2887V27.2811C298.331 27.8323 298.778 28.2792 299.331 28.2792H300.331C300.883 28.2792 301.331 27.8323 301.331 27.2811V23.2887C301.331 22.7375 300.883 22.2906 300.331 22.2906ZM295.664 24.2868H294.664C294.112 24.2868 293.664 24.7337 293.664 25.2849V27.2811C293.664 27.8323 294.112 28.2792 294.664 28.2792H295.664C296.216 28.2792 296.664 27.8323 296.664 27.2811V25.2849C296.664 24.7337 296.216 24.2868 295.664 24.2868Z" fill="black"/>
<path d="M33.1637 20.4946V20.5239H34.9362V20.4946C34.9362 19.418 35.6833 18.6929 36.7892 18.6929C37.8293 18.6929 38.591 19.3667 38.591 20.2969C38.591 21.0439 38.2321 21.5933 36.7892 23.0581L33.2663 26.6616V27.9727H40.6052V26.3687H35.8591V26.2441L38.071 24.0249C39.8654 22.2524 40.444 21.3149 40.444 20.1797C40.444 18.4146 38.9352 17.1401 36.8478 17.1401C34.6799 17.1401 33.1637 18.5171 33.1637 20.4946ZM43.7768 26.8521C44.4726 26.8521 44.9487 26.354 44.9487 25.6948C44.9487 25.0283 44.4726 24.5376 43.7768 24.5376C43.0884 24.5376 42.605 25.0283 42.605 25.6948C42.605 26.354 43.0884 26.8521 43.7768 26.8521ZM43.7768 21.3589C44.4726 21.3589 44.9487 20.8682 44.9487 20.209C44.9487 19.5425 44.4726 19.0518 43.7768 19.0518C43.0884 19.0518 42.605 19.5425 42.605 20.209C42.605 20.8682 43.0884 21.3589 43.7768 21.3589ZM50.8596 28.2363C53.3865 28.2363 54.888 26.1855 54.888 22.6919C54.888 19.1836 53.3645 17.1401 50.8596 17.1401C48.3474 17.1401 46.824 19.1836 46.824 22.6772C46.824 26.1855 48.3255 28.2363 50.8596 28.2363ZM50.8596 26.6689C49.5193 26.6689 48.7356 25.2773 48.7356 22.6772C48.7356 20.0991 49.534 18.7148 50.8596 18.7148C52.1853 18.7148 52.9763 20.0918 52.9763 22.6772C52.9763 25.2773 52.2 26.6689 50.8596 26.6689ZM56.8218 27.9727H58.7994L63.3184 19.0151V17.4038H55.9649V18.9932H61.4141V19.1104L56.8218 27.9727Z" fill="black"/>
<path d="M351 75.5C356.247 75.5 360.5 71.2467 360.5 66C360.5 60.7533 356.247 56.5 351 56.5C345.753 56.5 341.5 60.7533 341.5 66C341.5 71.2467 345.753 75.5 351 75.5ZM351 77C344.925 77 340 72.0751 340 66C340 59.9249 344.925 55 351 55C357.075 55 362 59.9249 362 66C362 72.0751 357.075 77 351 77Z" fill="#25272E"/>
<path d="M349.81 67.5728C349.81 65.5428 352.19 65.5428 352.19 64.0528C352.179 63.9001 352.137 63.7513 352.067 63.6151C351.997 63.479 351.9 63.3583 351.783 63.2603C351.665 63.1623 351.529 63.089 351.383 63.0448C351.236 63.0005 351.082 62.9862 350.93 63.0028C350.564 62.9907 350.204 63.0957 349.902 63.3025C349.599 63.5093 349.371 63.8072 349.25 64.1528L347.5 63.3828C347.752 62.6638 348.228 62.0445 348.858 61.6161C349.488 61.1877 350.239 60.9727 351 61.0028C353.07 61.0028 354.36 62.3228 354.36 63.7928C354.36 66.3828 351.84 66.3828 351.84 68.2028H349.95C349.871 68.0014 349.823 67.7888 349.81 67.5728ZM349.67 70.0928C349.67 69.9471 349.699 69.8028 349.756 69.6686C349.812 69.5344 349.895 69.4128 350 69.3112C350.104 69.2096 350.228 69.1299 350.364 69.077C350.499 69.024 350.644 68.9988 350.79 69.0028C351.013 69.0028 351.23 69.0694 351.415 69.1938C351.6 69.3182 351.743 69.495 351.827 69.7014C351.911 69.9078 351.931 70.1345 351.886 70.3525C351.84 70.5706 351.73 70.77 351.571 70.9254C351.411 71.0808 351.209 71.185 350.99 71.2248C350.77 71.2645 350.544 71.238 350.34 71.1487C350.136 71.0593 349.963 70.911 349.844 70.723C349.725 70.5349 349.664 70.3155 349.67 70.0928Z" fill="#25272E"/>
<path fill-rule="evenodd" clip-rule="evenodd" d="M27.0023 57.3592L18.8447 65.1911C18.3851 65.6317 18.3851 66.3672 18.8447 66.8096L27.0023 74.6397C27.5026 75.1201 28.2924 75.1201 28.7927 74.6397C29.3219 74.1313 29.3219 73.2845 28.7927 72.7751L21.9605 66.2161C21.8365 66.0976 21.8365 65.9013 21.9605 65.7828L28.7927 59.2237C29.3219 58.7153 29.3219 57.8685 28.7927 57.3592C28.5421 57.1203 28.22 57 27.898 57C27.575 57 27.2529 57.1203 27.0023 57.3592Z" fill="#25272E"/>
<circle cx="141.5" cy="63.5" r="4" fill="#03948C"/>
<circle cx="154.5" cy="63.5" r="2.5" fill="#CEE1E5"/>
<circle cx="167.5" cy="63.5" r="2.5" fill="#CEE1E5"/>
<circle cx="180.5" cy="63.5" r="2.5" fill="#CEE1E5"/>
<circle cx="193.5" cy="63.5" r="2.5" fill="#CEE1E5"/>
<circle cx="206.5" cy="63.5" r="2.5" fill="#CEE1E5"/>
<circle cx="219.5" cy="63.5" r="2.5" fill="#CEE1E5"/>
<circle cx="232.5" cy="63.5" r="2.5" fill="#CEE1E5"/>
</g>
<rect width="375" height="291" transform="translate(0 521)" fill="#CCCED3"/>
<g filter="url(#filter2_b)">
<rect y="521" width="375" height="291" fill="#D1D5DB"/>
</g>
<rect x="121" y="799" width="134" height="5" rx="2.5" fill="black"/>
<path fill-rule="evenodd" clip-rule="evenodd" d="M307.427 702.704C307.33 702.799 307.226 702.902 307.087 703.042C307.087 703.042 304.798 705.332 304.791 705.339C304.72 705.406 304.66 705.464 304.599 705.525C304.571 705.553 304.546 705.578 304.493 705.63C304.447 705.675 304.425 705.696 304.399 705.723L302.329 707.795C302.285 707.841 302.247 707.879 302.198 707.929L302.142 707.985C302.079 708.048 302.029 708.1 301.958 708.173C301.796 708.333 301.632 708.514 301.477 708.704C301.333 708.857 301.217 709.034 301.134 709.227L301.112 709.286C300.963 709.749 300.963 710.248 301.112 710.712L301.135 710.772C301.219 710.965 301.336 711.142 301.48 711.294C301.634 711.483 301.798 711.664 301.972 711.836C302.008 711.875 302.062 711.93 302.134 712.002C302.184 712.052 302.205 712.073 302.232 712.1C302.266 712.135 302.296 712.165 302.323 712.194L304.398 714.273C304.501 714.375 304.547 714.421 304.63 714.501C304.697 714.568 304.737 714.607 304.811 714.676L307.089 716.957C307.26 717.127 307.336 717.204 307.433 717.298C307.558 717.424 307.641 717.505 307.77 717.631C307.819 717.683 307.837 717.701 307.862 717.725C308.154 718.018 308.509 718.277 308.899 718.475C309.289 718.672 309.702 718.808 310.129 718.882C310.528 718.948 310.927 718.983 311.327 718.988C311.496 718.992 311.667 718.994 311.835 718.995L312.235 718.995H319.68C319.835 718.995 319.988 718.992 320.201 718.988C320.598 718.983 321.001 718.948 321.399 718.882C321.834 718.807 322.251 718.669 322.64 718.473C323.034 718.273 323.394 718.012 323.706 717.7C324.017 717.388 324.277 717.03 324.477 716.639C324.675 716.244 324.812 715.827 324.886 715.397C324.952 714.994 324.987 714.591 324.992 714.188C324.995 714.089 324.996 714.001 324.998 713.807L325 713.683L325 713.07V706.282L324.999 706.175C324.998 706.055 324.997 706.003 324.996 705.936C324.995 705.873 324.993 705.815 324.992 705.759C324.987 705.372 324.953 704.973 324.888 704.578C324.814 704.146 324.678 703.733 324.484 703.346C324.282 702.953 324.024 702.597 323.716 702.288C323.408 701.978 323.051 701.718 322.66 701.52C322.273 701.325 321.86 701.188 321.434 701.114C321.032 701.049 320.634 701.014 320.234 701.009C320.053 701.004 319.886 701.002 319.725 701.002C319.563 701 319.429 701 319.128 701H312.432C312.134 701 311.999 701 311.829 701.002C311.676 701.002 311.509 701.004 311.318 701.009C310.926 701.014 310.528 701.049 310.134 701.113C309.7 701.188 309.287 701.325 308.9 701.52C308.508 701.72 308.152 701.979 307.844 702.289C307.829 702.303 307.819 702.314 307.732 702.407C307.623 702.51 307.524 702.607 307.427 702.704ZM304.836 705.301L304.838 705.299C304.835 705.302 304.833 705.303 304.83 705.305L304.836 705.301ZM308.032 716.014L305.73 713.709C305.73 713.709 305.684 713.667 305.679 713.663C305.644 713.629 305.613 713.599 305.537 713.524C305.482 713.47 305.439 713.428 305.341 713.33L303.275 711.26C303.251 711.235 303.217 711.2 303.179 711.162C303.15 711.133 303.127 711.11 303.077 711.06C303.014 710.996 302.968 710.95 302.926 710.905C302.764 710.744 302.627 710.593 302.499 710.434L302.455 710.385C302.421 710.35 302.393 710.311 302.371 710.268C302.321 710.092 302.321 709.905 302.371 709.728C302.393 709.685 302.421 709.644 302.456 709.609L302.496 709.564C302.625 709.405 302.762 709.253 302.908 709.109C302.986 709.028 303.031 708.981 303.065 708.947C303.109 708.904 303.109 708.903 303.143 708.869L303.143 708.869L303.143 708.869C303.197 708.815 303.24 708.771 303.282 708.727L305.341 706.666C305.363 706.644 305.382 706.625 305.437 706.572C305.483 706.526 305.51 706.499 305.54 706.469C305.587 706.423 305.633 706.378 305.677 706.335C305.687 706.327 305.699 706.316 305.731 706.286L305.731 706.286L308.031 703.983C308.167 703.846 308.267 703.747 308.365 703.652C308.459 703.557 308.549 703.469 308.645 703.378C308.667 703.358 308.679 703.345 308.738 703.283L308.785 703.234C308.998 703.019 309.239 702.843 309.503 702.709C309.77 702.574 310.058 702.479 310.355 702.428C310.677 702.375 311.009 702.346 311.343 702.342C311.531 702.337 311.687 702.335 311.836 702.335C312.006 702.333 312.138 702.333 312.432 702.333H319.128C319.424 702.333 319.556 702.333 319.718 702.335C319.874 702.335 320.031 702.337 320.209 702.342C320.55 702.346 320.884 702.375 321.213 702.429C321.503 702.479 321.789 702.574 322.058 702.71C322.322 702.843 322.563 703.019 322.771 703.229C322.983 703.441 323.159 703.683 323.294 703.948C323.427 704.213 323.522 704.501 323.573 704.798C323.626 705.122 323.655 705.454 323.659 705.787C323.661 705.849 323.662 705.901 323.663 705.959C323.664 706.022 323.665 706.072 323.666 706.189L323.667 706.29L323.667 706.88V713.668L323.665 713.791C323.663 713.978 323.662 714.06 323.659 714.16C323.655 714.509 323.625 714.845 323.571 715.177C323.52 715.472 323.424 715.763 323.288 716.036C323.153 716.3 322.975 716.545 322.762 716.758C322.551 716.97 322.306 717.147 322.038 717.283C321.767 717.42 321.477 717.516 321.178 717.567C320.851 717.621 320.515 717.651 320.178 717.655C319.968 717.659 319.823 717.661 319.68 717.661H311.837C311.68 717.661 311.518 717.659 311.35 717.655C311.011 717.651 310.679 717.621 310.35 717.567C310.059 717.517 309.771 717.422 309.502 717.286C309.24 717.153 308.999 716.977 308.789 716.767C308.776 716.754 308.759 716.736 308.737 716.713L308.734 716.71C308.682 716.655 308.67 716.642 308.658 716.631L308.643 716.617C308.566 716.545 308.492 716.472 308.371 716.351C308.274 716.256 308.2 716.182 308.032 716.014ZM312.813 713.525C312.759 713.579 312.694 713.622 312.621 713.653C312.397 713.745 312.14 713.694 311.969 713.523C311.857 713.411 311.793 713.258 311.793 713.1C311.793 712.941 311.857 712.788 311.969 712.676V712.677C312.001 712.645 312.037 712.617 312.074 712.594L314.669 709.996L311.969 707.299L311.978 707.291C311.924 707.236 311.88 707.171 311.85 707.098C311.757 706.875 311.808 706.618 311.98 706.447C312.092 706.334 312.244 706.27 312.404 706.27C312.563 706.27 312.715 706.334 312.828 706.447H312.825C312.854 706.476 312.88 706.507 312.902 706.54L315.513 709.15L318.132 706.528C318.152 706.499 318.176 706.471 318.202 706.445C318.373 706.274 318.63 706.223 318.853 706.315C319.077 706.408 319.222 706.626 319.222 706.868C319.222 707.029 319.158 707.179 319.049 707.289L319.056 707.295L316.359 709.996L318.969 712.604C319.001 712.625 319.031 712.65 319.059 712.678L319.058 712.679C319.229 712.85 319.28 713.107 319.187 713.331C319.095 713.554 318.877 713.7 318.635 713.7C318.474 713.7 318.324 713.635 318.214 713.526L318.209 713.532L315.515 710.841L312.823 713.536L312.813 713.525Z" fill="black"/>
<g filter="url(#filter3_d)">
<path fill-rule="evenodd" clip-rule="evenodd" d="M129 693C129 690.239 131.239 688 134 688H241C243.761 688 246 690.239 246 693V729C246 731.761 243.761 734 241 734H134C131.239 734 129 731.761 129 729V693Z" fill="#FCFCFE"/>
</g>
<path d="M187.512 719.293C191.614 719.293 193.982 715.741 193.982 710.174C193.982 704.645 191.602 701.092 187.512 701.092C183.423 701.092 181.018 704.669 181.018 710.187C181.018 715.753 183.398 719.293 187.512 719.293ZM187.512 717.376C184.753 717.376 183.228 714.569 183.228 710.174C183.228 705.877 184.79 703.021 187.512 703.021C190.234 703.021 191.772 705.853 191.772 710.187C191.772 714.581 190.259 717.376 187.512 717.376Z" fill="black"/>
<g filter="url(#filter4_d)">
<path fill-rule="evenodd" clip-rule="evenodd" d="M252 639C252 636.239 254.239 634 257 634H364C366.761 634 369 636.239 369 639V676C369 678.761 366.761 681 364 681H257C254.239 681 252 678.761 252 676V639Z" fill="#FCFCFE"/>
</g>
<path d="M296.885 668.968H296.963L298.296 673.631H299.678L301.548 666.585H300.024L298.936 671.551H298.857L297.549 666.585H296.304L295.02 671.551H294.941L293.843 666.585H292.31L294.175 673.631H295.566L296.885 668.968ZM304.407 673.631H305.999L307.532 671.243H307.62L309.134 673.631H310.813L308.528 670.105L310.848 666.585H309.197L307.713 669.051H307.625L306.155 666.585H304.422L306.658 670.081L304.407 673.631ZM317.555 673.631V671.038L320.006 666.585H318.409L316.861 669.534H316.773L315.221 666.585H313.624L316.08 671.038V673.631H317.555ZM323.021 673.631H328.461V672.371H324.828V672.283L328.363 667.576V666.585H323.104V667.845H326.566V667.933L323.021 672.635V673.631Z" fill="black"/>
<path d="M310.048 659.314C314.357 659.314 316.872 655.848 316.872 649.915C316.872 647.999 316.591 646.412 316.005 645.057C314.931 642.53 312.832 641.102 310.183 641.102C306.569 641.102 303.945 643.641 303.945 647.12C303.945 650.464 306.435 652.942 309.792 652.942C312.038 652.942 313.967 651.807 314.711 650.062C314.724 650.062 314.724 650.062 314.736 650.062H314.748C314.687 654.737 313.002 657.398 310.073 657.398C308.327 657.398 306.899 656.348 306.435 654.749H304.201C304.738 657.508 307.045 659.314 310.048 659.314ZM310.17 651.014C307.863 651.014 306.167 649.341 306.167 647.046C306.167 644.837 307.949 643.079 310.207 643.079C312.478 643.079 314.235 644.849 314.235 647.107C314.235 649.354 312.502 651.014 310.17 651.014Z" fill="black"/>
<g filter="url(#filter5_d)">
<path fill-rule="evenodd" clip-rule="evenodd" d="M129 639C129 636.239 131.239 634 134 634H241C243.761 634 246 636.239 246 639V676C246 678.761 243.761 681 241 681H134C131.239 681 129 678.761 129 676V639Z" fill="#FCFCFE"/>
</g>
<path d="M178.811 673.631V667.845H180.925V666.585H175.222V667.845H177.336V673.631H178.811ZM185.718 666.585H184.243V671.199C184.243 672.762 185.391 673.812 187.192 673.812C188.999 673.812 190.146 672.762 190.146 671.199V666.585H188.672V671.048C188.672 671.937 188.14 672.503 187.192 672.503C186.25 672.503 185.718 671.937 185.718 671.048V666.585ZM197.527 673.631L199.876 666.585H198.289L196.717 671.971H196.629L195.027 666.585H193.362L195.745 673.631H197.527Z" fill="black"/>
<path d="M187.488 659.314C191.223 659.314 193.884 657.215 193.884 654.261C193.884 652.076 192.371 650.269 190.088 649.732V649.683C192.004 649.073 193.164 647.583 193.164 645.752C193.164 643.067 190.784 641.114 187.488 641.114C184.216 641.114 181.799 643.079 181.799 645.74C181.799 647.596 182.983 649.097 184.888 649.683V649.732C182.617 650.257 181.104 652.063 181.104 654.261C181.104 657.203 183.765 659.314 187.488 659.314ZM187.488 657.398C185.071 657.398 183.337 656.019 183.337 654.102C183.337 652.173 185.071 650.794 187.488 650.794C189.917 650.794 191.638 652.161 191.638 654.102C191.638 656.019 189.917 657.398 187.488 657.398ZM187.488 648.865C185.425 648.865 183.984 647.657 183.984 645.948C183.984 644.227 185.425 643.006 187.488 643.006C189.551 643.006 190.991 644.214 190.991 645.948C190.991 647.657 189.539 648.865 187.488 648.865Z" fill="black"/>
<g filter="url(#filter6_d)">
<path fill-rule="evenodd" clip-rule="evenodd" d="M6 639C6 636.239 8.23858 634 11 634H118C120.761 634 123 636.239 123 639V676C123 678.761 120.761 681 118 681H11C8.23858 681 6 678.761 6 676V639Z" fill="#FCFCFE"/>
</g>
<path d="M48.2041 666.585V673.631H49.6787V671.443H51.0703C52.5547 671.443 53.585 670.472 53.585 669.021C53.585 667.557 52.5938 666.585 51.1436 666.585H48.2041ZM49.6787 667.796H50.7529C51.6025 667.796 52.0859 668.226 52.0859 669.026C52.0859 669.817 51.5928 670.247 50.748 670.247H49.6787V667.796ZM60.0234 673.812C60.4678 673.812 60.8877 673.748 61.2588 673.626L61.7471 674.319H63.1729L62.2988 672.991C63.0117 672.381 63.4072 671.37 63.4072 670.105C63.4072 667.82 62.0938 666.404 60.0234 666.404C57.9531 666.404 56.6299 667.82 56.6299 670.105C56.6299 672.405 57.9385 673.812 60.0234 673.812ZM60.0283 672.518C58.876 672.518 58.1387 671.59 58.1387 670.105C58.1387 668.631 58.8809 667.698 60.0234 667.698C61.1611 667.698 61.9033 668.631 61.9033 670.105C61.9033 670.784 61.7227 671.331 61.4004 671.678L61.0732 671.282H59.7354L60.5361 672.454C60.3701 672.493 60.2041 672.518 60.0283 672.518ZM68.2783 667.776H69.5576C70.29 667.776 70.749 668.196 70.749 668.865C70.749 669.544 70.3145 669.944 69.5723 669.944H68.2783V667.776ZM68.2783 671.077H69.4844L70.7979 673.631H72.4678L70.9834 670.848C71.7939 670.525 72.2627 669.744 72.2627 668.846C72.2627 667.444 71.3105 666.585 69.7627 666.585H66.8037V673.631H68.2783V671.077ZM75.4297 671.673C75.4834 672.986 76.5723 673.812 78.252 673.812C80.0195 673.812 81.1084 672.942 81.1084 671.521C81.1084 670.428 80.498 669.817 79.082 669.52L78.2324 669.339C77.4072 669.163 77.0703 668.914 77.0703 668.479C77.0703 667.942 77.5586 667.601 78.2959 667.601C79.0088 667.601 79.5264 667.972 79.5947 668.528H80.9814C80.9375 667.273 79.8389 666.404 78.2861 666.404C76.6602 666.404 75.5908 667.278 75.5908 668.606C75.5908 669.681 76.2207 670.35 77.5049 670.618L78.4229 670.813C79.2871 670.999 79.6387 671.258 79.6387 671.707C79.6387 672.239 79.0967 672.61 78.3301 672.61C77.5 672.61 76.9238 672.244 76.8555 671.673H75.4297Z" fill="black"/>
<path d="M60.1055 659.021H62.4126L70.2495 643.445V641.407H58.5918V643.36H68.0767V643.409L60.1055 659.021Z" fill="black"/>
<g filter="url(#filter7_d)">
<path fill-rule="evenodd" clip-rule="evenodd" d="M252 585C252 582.239 254.239 580 257 580H364C366.761 580 369 582.239 369 585V622C369 624.761 366.761 627 364 627H257C254.239 627 252 624.761 252 622V585Z" fill="#FCFCFE"/>
</g>
<path d="M304.457 619.631V612.585H302.724L300.771 617.321H300.683L298.734 612.585H296.996V619.631H298.363V614.919H298.441L300.238 619.226H301.22L303.012 614.919H303.09V619.631H304.457ZM309.577 619.631V615.222H309.665L312.917 619.631H314.138V612.585H312.727V616.975H312.639L309.396 612.585H308.166V619.631H309.577ZM320.933 612.404C318.862 612.404 317.539 613.82 317.539 616.105C317.539 618.391 318.843 619.812 320.933 619.812C323.018 619.812 324.316 618.391 324.316 616.105C324.316 613.825 323.013 612.404 320.933 612.404ZM320.933 613.698C322.08 613.698 322.812 614.631 322.812 616.105C322.812 617.575 322.08 618.518 320.933 618.518C319.775 618.518 319.048 617.575 319.048 616.105C319.048 614.631 319.79 613.698 320.933 613.698Z" fill="black"/>
<path d="M310.817 605.327C314.431 605.327 317.055 602.788 317.055 599.309C317.055 595.964 314.565 593.486 311.208 593.486C309.023 593.486 307.082 594.621 306.289 596.342H306.252C306.325 591.655 307.998 589.042 310.939 589.042C312.685 589.042 314.101 590.068 314.577 591.667H316.811C316.25 588.896 313.955 587.102 310.964 587.102C306.655 587.102 304.128 590.581 304.128 596.513C304.128 598.417 304.409 600.004 304.995 601.359C306.081 603.898 308.181 605.327 310.817 605.327ZM310.793 603.374C308.535 603.374 306.777 601.579 306.777 599.321C306.777 597.075 308.498 595.415 310.83 595.415C313.161 595.415 314.821 597.075 314.821 599.382C314.821 601.604 313.039 603.374 310.793 603.374Z" fill="black"/>
<g filter="url(#filter8_d)">
<path fill-rule="evenodd" clip-rule="evenodd" d="M129 585C129 582.239 131.239 580 134 580H241C243.761 580 246 582.239 246 585V622C246 624.761 243.761 627 241 627H134C131.239 627 129 624.761 129 622V585Z" fill="#FCFCFE"/>
</g>
<path d="M176.34 617.561C176.34 618.942 177.287 619.812 178.732 619.812C180.227 619.812 181.125 618.962 181.125 617.443V612.585H179.65V617.434C179.65 618.127 179.318 618.493 178.713 618.493C178.146 618.493 177.775 618.127 177.766 617.561H176.34ZM186.313 619.631V617.507L187.012 616.682L189.058 619.631H190.825L188.076 615.676L190.645 612.585H189.004L186.401 615.725H186.313V612.585H184.839V619.631H186.313ZM198.548 618.347H195.413V612.585H193.938V619.631H198.548V618.347Z" fill="black"/>
<path d="M187.671 605.314C191.345 605.314 193.945 602.836 193.945 599.296C193.945 595.878 191.504 593.4 188.123 593.4C186.438 593.4 184.973 594.035 184.18 595.097H184.131L184.668 589.36H192.944V587.407H182.861L181.897 597.27H183.96C184.68 596.037 186.084 595.292 187.732 595.292C190.076 595.292 191.748 596.989 191.748 599.357C191.748 601.726 190.088 603.386 187.695 603.386C185.583 603.386 183.984 602.092 183.789 600.212H181.628C181.812 603.215 184.302 605.314 187.671 605.314Z" fill="black"/>
<g filter="url(#filter9_d)">
<path fill-rule="evenodd" clip-rule="evenodd" d="M6 585C6 582.239 8.23858 580 11 580H118C120.761 580 123 582.239 123 585V622C123 624.761 120.761 627 118 627H11C8.23858 627 6 624.761 6 622V585Z" fill="#FCFCFE"/>
</g>
<path d="M60.2344 616.755V615.856H57.2754V616.965H58.8037L58.7988 617.092C58.7695 617.941 58.1006 618.513 57.1338 618.513C55.9717 618.513 55.2393 617.595 55.2393 616.086C55.2393 614.606 55.9375 613.703 57.0752 613.703C57.8955 613.703 58.4863 614.118 58.7061 614.831H60.1709C59.9658 613.366 58.7402 612.404 57.0752 612.404C55.0244 612.404 53.7305 613.83 53.7305 616.101C53.7305 618.405 55.0146 619.812 57.1094 619.812C59.0332 619.812 60.2344 618.64 60.2344 616.755ZM69.7734 619.631V612.585H68.2988V615.427H65.125V612.585H63.6504V619.631H65.125V616.687H68.2988V619.631H69.7734ZM74.957 619.631V612.585H73.4824V619.631H74.957Z" fill="black"/>
<path d="M66.7339 605.021H68.8579V601.359H71.3481V599.431H68.8579V587.407H65.6108C61.4482 593.376 59.3853 596.586 57.8838 599.37V601.359H66.7339V605.021ZM60.0566 599.382C61.4482 596.94 63.3647 593.999 66.6973 589.238H66.7339V599.431H60.0566V599.382Z" fill="black"/>
<g filter="url(#filter10_d)">
<path fill-rule="evenodd" clip-rule="evenodd" d="M252 532C252 529.239 254.239 527 257 527H364C366.761 527 369 529.239 369 532V568C369 570.761 366.761 573 364 573H257C254.239 573 252 570.761 252 568V532Z" fill="#FCFCFE"/>
</g>
<path d="M299.521 558.949V566H302.294C304.403 566 305.6 564.716 305.6 562.426C305.6 560.219 304.389 558.949 302.294 558.949H299.521ZM300.995 560.209H302.06C303.339 560.209 304.096 561.024 304.096 562.45C304.096 563.939 303.363 564.74 302.06 564.74H300.995V560.209ZM313.659 564.74H310.466V563.026H313.479V561.859H310.466V560.214H313.659V558.954H308.991V566H313.659V564.74ZM318.687 566V563.256H321.553V562.05H318.687V560.214H321.826V558.954H317.212V566H318.687Z" fill="black"/>
<path d="M308.12 543.87H310.329C312.844 543.87 314.406 545.152 314.406 547.227C314.406 549.07 312.734 550.389 310.402 550.389C308.034 550.389 306.533 549.144 306.337 547.337H304.226C304.384 550.254 306.74 552.293 310.427 552.293C313.881 552.293 316.64 550.181 316.64 547.154C316.64 544.676 314.931 543.028 312.27 542.869V542.82C314.467 542.43 315.883 540.843 315.883 538.633C315.883 535.984 313.503 534.092 310.354 534.092C307.045 534.092 304.824 536.009 304.58 539H306.691C306.887 537.156 308.229 535.997 310.256 535.997C312.49 535.997 313.674 537.181 313.674 538.926C313.674 540.708 312.258 542.015 310.231 542.015H308.12V543.87Z" fill="black"/>
<g filter="url(#filter11_d)">
<path fill-rule="evenodd" clip-rule="evenodd" d="M129 532C129 529.239 131.239 527 134 527H241C243.761 527 246 529.239 246 532V568C246 570.761 243.761 573 241 573H134C131.239 573 129 570.761 129 568V532Z" fill="#FCFCFE"/>
</g>
<path d="M180.046 566H181.643L179.196 558.954H177.463L175.017 566H176.496L177.038 564.32H179.514L180.046 566ZM178.239 560.419H178.327L179.201 563.183H177.355L178.239 560.419ZM188.008 566C189.512 566 190.444 565.219 190.444 563.983C190.444 563.075 189.766 562.372 188.833 562.304V562.216C189.556 562.108 190.107 561.459 190.107 560.712C190.107 559.623 189.292 558.954 187.925 558.954H184.844V566H188.008ZM186.318 560.082H187.549C188.252 560.082 188.657 560.419 188.657 560.98C188.657 561.547 188.223 561.874 187.427 561.874H186.318V560.082ZM186.318 564.872V562.87H187.598C188.467 562.87 188.94 563.212 188.94 563.856C188.94 564.516 188.481 564.872 187.632 564.872H186.318ZM196.771 566.181C198.47 566.181 199.71 565.131 199.832 563.607H198.396C198.255 564.384 197.62 564.882 196.775 564.882C195.662 564.882 194.974 563.959 194.974 562.475C194.974 560.99 195.662 560.072 196.771 560.072C197.61 560.072 198.25 560.604 198.392 561.415H199.827C199.72 559.882 198.44 558.773 196.771 558.773C194.725 558.773 193.465 560.185 193.465 562.475C193.465 564.77 194.729 566.181 196.771 566.181Z" fill="black"/>
<path d="M181.738 539.463V539.476H183.862V539.463C183.862 537.498 185.425 536.009 187.488 536.009C189.429 536.009 190.979 537.364 190.979 539.061C190.979 540.525 190.417 541.465 188.049 543.956L181.848 550.486V552H193.469V550.047H184.888V549.998L189.343 545.396C192.285 542.356 193.176 540.892 193.176 538.926C193.176 536.229 190.698 534.092 187.549 534.092C184.229 534.092 181.738 536.387 181.738 539.463Z" fill="black"/>
<g filter="url(#filter12_d)">
<path fill-rule="evenodd" clip-rule="evenodd" d="M6 532C6 529.239 8.23858 527 11 527H118C120.761 527 123 529.239 123 532V568C123 570.761 120.761 573 118 573H11C8.23858 573 6 570.761 6 568V532Z" fill="#FCFCFE"/>
</g>
<path d="M64.8784 552H67.0024V534.385H64.854L60.1665 537.754V540.074L64.8296 536.717H64.8784V552Z" fill="black"/>
</g>
<defs>
<filter id="filter0_d" x="-84" y="216" width="543" height="389" filterUnits="userSpaceOnUse" color-interpolation-filters="sRGB">
<feFlood flood-opacity="0" result="BackgroundImageFix"/>
<feColorMatrix in="SourceAlpha" type="matrix" values="0 0 0 0 0 0 0 0 0 0 0 0 0 0 0 0 0 0 127 0"/>
<feMorphology radius="4" operator="dilate" in="SourceAlpha" result="effect1_dropShadow"/>
<feOffset/>
<feGaussianBlur stdDeviation="40"/>
<feColorMatrix type="matrix" values="0 0 0 0 0.4056 0 0 0 0 0.500104 0 0 0 0 0.52 0 0 0 0.04 0"/>
<feBlend mode="multiply" in2="BackgroundImageFix" result="effect1_dropShadow"/>
<feBlend mode="normal" in="SourceGraphic" in2="effect1_dropShadow" result="shape"/>
</filter>
<filter id="filter1_b" x="-16" y="-16" width="407" height="120" filterUnits="userSpaceOnUse" color-interpolation-filters="sRGB">
<feFlood flood-opacity="0" result="BackgroundImageFix"/>
<feGaussianBlur in="BackgroundImage" stdDeviation="8"/>
<feComposite in2="SourceAlpha" operator="in" result="effect1_backgroundBlur"/>
<feBlend mode="normal" in="SourceGraphic" in2="effect1_backgroundBlur" result="shape"/>
</filter>
<filter id="filter2_b" x="-108.731" y="412.269" width="592.463" height="508.463" filterUnits="userSpaceOnUse" color-interpolation-filters="sRGB">
<feFlood flood-opacity="0" result="BackgroundImageFix"/>
<feGaussianBlur in="BackgroundImage" stdDeviation="54.3656"/>
<feComposite in2="SourceAlpha" operator="in" result="effect1_backgroundBlur"/>
<feBlend mode="normal" in="SourceGraphic" in2="effect1_backgroundBlur" result="shape"/>
</filter>
<filter id="filter3_d" x="129" y="688" width="117" height="47" filterUnits="userSpaceOnUse" color-interpolation-filters="sRGB">
<feFlood flood-opacity="0" result="BackgroundImageFix"/>
<feColorMatrix in="SourceAlpha" type="matrix" values="0 0 0 0 0 0 0 0 0 0 0 0 0 0 0 0 0 0 127 0"/>
<feOffset dy="1"/>
<feColorMatrix type="matrix" values="0 0 0 0 0.537255 0 0 0 0 0.541176 0 0 0 0 0.552941 0 0 0 1 0"/>
<feBlend mode="normal" in2="BackgroundImageFix" result="effect1_dropShadow"/>
<feBlend mode="normal" in="SourceGraphic" in2="effect1_dropShadow" result="shape"/>
</filter>
<filter id="filter4_d" x="252" y="634" width="117" height="48" filterUnits="userSpaceOnUse" color-interpolation-filters="sRGB">
<feFlood flood-opacity="0" result="BackgroundImageFix"/>
<feColorMatrix in="SourceAlpha" type="matrix" values="0 0 0 0 0 0 0 0 0 0 0 0 0 0 0 0 0 0 127 0"/>
<feOffset dy="1"/>
<feColorMatrix type="matrix" values="0 0 0 0 0.537255 0 0 0 0 0.541176 0 0 0 0 0.552941 0 0 0 1 0"/>
<feBlend mode="normal" in2="BackgroundImageFix" result="effect1_dropShadow"/>
<feBlend mode="normal" in="SourceGraphic" in2="effect1_dropShadow" result="shape"/>
</filter>
<filter id="filter5_d" x="129" y="634" width="117" height="48" filterUnits="userSpaceOnUse" color-interpolation-filters="sRGB">
<feFlood flood-opacity="0" result="BackgroundImageFix"/>
<feColorMatrix in="SourceAlpha" type="matrix" values="0 0 0 0 0 0 0 0 0 0 0 0 0 0 0 0 0 0 127 0"/>
<feOffset dy="1"/>
<feColorMatrix type="matrix" values="0 0 0 0 0.537255 0 0 0 0 0.541176 0 0 0 0 0.552941 0 0 0 1 0"/>
<feBlend mode="normal" in2="BackgroundImageFix" result="effect1_dropShadow"/>
<feBlend mode="normal" in="SourceGraphic" in2="effect1_dropShadow" result="shape"/>
</filter>
<filter id="filter6_d" x="6" y="634" width="117" height="48" filterUnits="userSpaceOnUse" color-interpolation-filters="sRGB">
<feFlood flood-opacity="0" result="BackgroundImageFix"/>
<feColorMatrix in="SourceAlpha" type="matrix" values="0 0 0 0 0 0 0 0 0 0 0 0 0 0 0 0 0 0 127 0"/>
<feOffset dy="1"/>
<feColorMatrix type="matrix" values="0 0 0 0 0.537255 0 0 0 0 0.541176 0 0 0 0 0.552941 0 0 0 1 0"/>
<feBlend mode="normal" in2="BackgroundImageFix" result="effect1_dropShadow"/>
<feBlend mode="normal" in="SourceGraphic" in2="effect1_dropShadow" result="shape"/>
</filter>
<filter id="filter7_d" x="252" y="580" width="117" height="48" filterUnits="userSpaceOnUse" color-interpolation-filters="sRGB">
<feFlood flood-opacity="0" result="BackgroundImageFix"/>
<feColorMatrix in="SourceAlpha" type="matrix" values="0 0 0 0 0 0 0 0 0 0 0 0 0 0 0 0 0 0 127 0"/>
<feOffset dy="1"/>
<feColorMatrix type="matrix" values="0 0 0 0 0.537255 0 0 0 0 0.541176 0 0 0 0 0.552941 0 0 0 1 0"/>
<feBlend mode="normal" in2="BackgroundImageFix" result="effect1_dropShadow"/>
<feBlend mode="normal" in="SourceGraphic" in2="effect1_dropShadow" result="shape"/>
</filter>
<filter id="filter8_d" x="129" y="580" width="117" height="48" filterUnits="userSpaceOnUse" color-interpolation-filters="sRGB">
<feFlood flood-opacity="0" result="BackgroundImageFix"/>
<feColorMatrix in="SourceAlpha" type="matrix" values="0 0 0 0 0 0 0 0 0 0 0 0 0 0 0 0 0 0 127 0"/>
<feOffset dy="1"/>
<feColorMatrix type="matrix" values="0 0 0 0 0.537255 0 0 0 0 0.541176 0 0 0 0 0.552941 0 0 0 1 0"/>
<feBlend mode="normal" in2="BackgroundImageFix" result="effect1_dropShadow"/>
<feBlend mode="normal" in="SourceGraphic" in2="effect1_dropShadow" result="shape"/>
</filter>
<filter id="filter9_d" x="6" y="580" width="117" height="48" filterUnits="userSpaceOnUse" color-interpolation-filters="sRGB">
<feFlood flood-opacity="0" result="BackgroundImageFix"/>
<feColorMatrix in="SourceAlpha" type="matrix" values="0 0 0 0 0 0 0 0 0 0 0 0 0 0 0 0 0 0 127 0"/>
<feOffset dy="1"/>
<feColorMatrix type="matrix" values="0 0 0 0 0.537255 0 0 0 0 0.541176 0 0 0 0 0.552941 0 0 0 1 0"/>
<feBlend mode="normal" in2="BackgroundImageFix" result="effect1_dropShadow"/>
<feBlend mode="normal" in="SourceGraphic" in2="effect1_dropShadow" result="shape"/>
</filter>
<filter id="filter10_d" x="252" y="527" width="117" height="47" filterUnits="userSpaceOnUse" color-interpolation-filters="sRGB">
<feFlood flood-opacity="0" result="BackgroundImageFix"/>
<feColorMatrix in="SourceAlpha" type="matrix" values="0 0 0 0 0 0 0 0 0 0 0 0 0 0 0 0 0 0 127 0"/>
<feOffset dy="1"/>
<feColorMatrix type="matrix" values="0 0 0 0 0.537255 0 0 0 0 0.541176 0 0 0 0 0.552941 0 0 0 1 0"/>
<feBlend mode="normal" in2="BackgroundImageFix" result="effect1_dropShadow"/>
<feBlend mode="normal" in="SourceGraphic" in2="effect1_dropShadow" result="shape"/>
</filter>
<filter id="filter11_d" x="129" y="527" width="117" height="47" filterUnits="userSpaceOnUse" color-interpolation-filters="sRGB">
<feFlood flood-opacity="0" result="BackgroundImageFix"/>
<feColorMatrix in="SourceAlpha" type="matrix" values="0 0 0 0 0 0 0 0 0 0 0 0 0 0 0 0 0 0 127 0"/>
<feOffset dy="1"/>
<feColorMatrix type="matrix" values="0 0 0 0 0.537255 0 0 0 0 0.541176 0 0 0 0 0.552941 0 0 0 1 0"/>
<feBlend mode="normal" in2="BackgroundImageFix" result="effect1_dropShadow"/>
<feBlend mode="normal" in="SourceGraphic" in2="effect1_dropShadow" result="shape"/>
</filter>
<filter id="filter12_d" x="6" y="527" width="117" height="47" filterUnits="userSpaceOnUse" color-interpolation-filters="sRGB">
<feFlood flood-opacity="0" result="BackgroundImageFix"/>
<feColorMatrix in="SourceAlpha" type="matrix" values="0 0 0 0 0 0 0 0 0 0 0 0 0 0 0 0 0 0 127 0"/>
<feOffset dy="1"/>
<feColorMatrix type="matrix" values="0 0 0 0 0.537255 0 0 0 0 0.541176 0 0 0 0 0.552941 0 0 0 1 0"/>
<feBlend mode="normal" in2="BackgroundImageFix" result="effect1_dropShadow"/>
<feBlend mode="normal" in="SourceGraphic" in2="effect1_dropShadow" result="shape"/>
</filter>
<linearGradient id="paint0_linear" x1="111.5" y1="108.116" x2="151.758" y2="425.533" gradientUnits="userSpaceOnUse">
<stop stop-color="#E4F0F0" stop-opacity="0"/>
<stop offset="1" stop-color="#E4F0F0"/>
</linearGradient>
<clipPath id="clip0">
<rect width="375" height="812" fill="white"/>
</clipPath>
</defs>
</svg>
