<svg xmlns="http://www.w3.org/2000/svg" width="375" height="812" fill="none" viewBox="0 0 375 812">
  <g clip-path="url(#clip0)">
    <path fill="#fff" d="M0 0h375v812H0z"/>
    <path fill="url(#paint0_linear)" d="M0 98h375v323H0z"/>
    <path fill="#000" fill-rule="evenodd" d="M121 800.5a2.5 2.5 0 012.5-2.5h129a2.5 2.5 0 110 5h-129a2.5 2.5 0 01-2.5-2.5z" clip-rule="evenodd"/>
    <path fill="#25272E" d="M20.8 246v11.2h6.5v2.8h-9.5v-14h3zm16.804 13.06c-.453.32-1.047.593-1.78.82-.733.213-1.54.32-2.42.32-.947 0-1.82-.227-2.62-.68a5.3 5.3 0 01-1.9-1.86 5.04 5.04 0 01-.68-2.56c0-.92.227-1.767.68-2.54a5.176 5.176 0 011.86-1.86c.787-.467 1.64-.7 2.56-.7.88 0 1.693.22 2.44.66.76.44 1.36 1.04 1.8 1.8.44.747.66 1.56.66 2.44 0 .44-.033.84-.1 1.2h-7.1c.16.493.453.9.88 1.22.44.32 1.013.48 1.72.48.56 0 1.06-.06 1.5-.18.453-.133.82-.287 1.1-.46l1.4 1.9zm-2.2-4.96c-.16-.48-.44-.88-.84-1.2a2.02 2.02 0 00-1.36-.5c-.52 0-.98.167-1.38.5-.387.32-.66.72-.82 1.2h4.4zm3.906-3.7h1.7v-3h2.7v3h2.4v2.5h-2.4v3.38c0 .44.114.767.34.98.227.213.547.32.96.32h1.1V260h-1.8c-1.027 0-1.833-.287-2.42-.86s-.88-1.42-.88-2.54v-3.7h-1.7v-2.5zm12.408-3.5l-2.8 4.3-1.6-.9 2.1-4.7 2.3 1.3zm2.295 9.8c.307.307.687.567 1.14.78.454.213.94.32 1.46.32.8 0 1.2-.233 1.2-.7 0-.187-.126-.34-.38-.46-.24-.133-.626-.287-1.16-.46a20.116 20.116 0 01-1.74-.68 3.798 3.798 0 01-1.22-.94c-.333-.413-.5-.933-.5-1.56 0-.547.154-1.047.46-1.5.307-.453.754-.813 1.34-1.08.6-.28 1.3-.42 2.1-.42.814 0 1.547.147 2.2.44.667.293 1.2.647 1.6 1.06l-1.6 1.7c-.24-.227-.553-.413-.94-.56a3.263 3.263 0 00-1.26-.24c-.333 0-.586.06-.76.18-.16.12-.24.26-.24.42 0 .187.12.347.36.48.254.12.647.267 1.18.44.694.24 1.274.473 1.74.7.467.213.867.527 1.2.94.347.4.52.913.52 1.54 0 .573-.16 1.1-.48 1.58-.306.467-.773.84-1.4 1.12-.613.267-1.353.4-2.22.4-.88 0-1.686-.173-2.42-.52-.733-.347-1.326-.773-1.78-1.28l1.6-1.7zm13.711 0a3.99 3.99 0 001.14.78c.454.213.94.32 1.46.32.8 0 1.2-.233 1.2-.7 0-.187-.126-.34-.38-.46-.24-.133-.626-.287-1.16-.46a20.142 20.142 0 01-1.74-.68 3.8 3.8 0 01-1.22-.94c-.333-.413-.5-.933-.5-1.56 0-.547.154-1.047.46-1.5.307-.453.754-.813 1.34-1.08.6-.28 1.3-.42 2.1-.42.814 0 1.547.147 2.2.44.667.293 1.2.647 1.6 1.06l-1.6 1.7c-.24-.227-.553-.413-.94-.56a3.263 3.263 0 00-1.26-.24c-.333 0-.586.06-.76.18-.16.12-.24.26-.24.42 0 .187.12.347.36.48.254.12.647.267 1.18.44.694.24 1.274.473 1.74.7.467.213.867.527 1.2.94.347.4.52.913.52 1.54 0 .573-.16 1.1-.48 1.58-.306.467-.773.84-1.4 1.12-.613.267-1.353.4-2.22.4-.88 0-1.686-.173-2.42-.52-.733-.347-1.326-.773-1.78-1.28l1.6-1.7zm7.602-6.3h1.7v-3h2.7v3h2.4v2.5h-2.4v3.38c0 .44.113.767.34.98.226.213.546.32.96.32h1.1V260h-1.8c-1.027 0-1.834-.287-2.42-.86-.587-.573-.88-1.42-.88-2.54v-3.7h-1.7v-2.5zm14.112 8.4c-.306.387-.713.72-1.22 1-.493.267-1.053.4-1.68.4-.893 0-1.62-.26-2.18-.78-.546-.533-.82-1.207-.82-2.02 0-.827.26-1.533.78-2.12.534-.587 1.24-.927 2.12-1.02l3.1-.3c-.053-.4-.233-.76-.54-1.08-.306-.32-.693-.48-1.16-.48a4.71 4.71 0 00-1.26.16 3.79 3.79 0 00-.94.34l-1.6-1.6c.427-.36.987-.667 1.68-.92.694-.253 1.467-.38 2.32-.38.814 0 1.54.173 2.18.52.64.333 1.134.8 1.48 1.4.36.587.54 1.247.54 1.98v6.1h-2.7v-1.2h-.1zm-2.1-2.86c-.333.013-.6.127-.8.34-.2.213-.3.453-.3.72 0 .307.1.553.3.74.214.173.514.26.9.26.627 0 1.134-.167 1.52-.5.387-.333.58-.813.58-1.44v-.2l-2.2.08zm9.908-4.64h.1c.187-.307.487-.567.9-.78.413-.213.933-.32 1.56-.32h.64v2.6h-.9c-.667 0-1.22.24-1.66.72-.427.467-.64 1.093-.64 1.88v4.6h-2.7v-9.8h2.7v1.1zm3.998-.9h1.7v-3h2.7v3h2.4v2.5h-2.4v3.38c0 .44.113.767.34.98.226.213.546.32.96.32h1.1V260h-1.8c-1.027 0-1.834-.287-2.42-.86-.587-.573-.88-1.42-.88-2.54v-3.7h-1.7v-2.5zm14.626-.2l1.8 5.8h.1l1.9-5.8h2.2l1.9 5.8h.1l1.8-5.8h2.9l-3.44 9.8h-2.46l-1.86-5.7h-.08l-1.86 5.7h-2.46l-3.44-9.8h2.9zm13.691-2.8c0-.4.153-.747.46-1.04a1.5 1.5 0 011.1-.46c.413 0 .773.153 1.08.46.307.293.46.64.46 1.04s-.153.753-.46 1.06c-.307.293-.673.44-1.1.44-.413 0-.773-.147-1.08-.44-.307-.307-.46-.66-.46-1.06zm2.9 2.8v9.8h-2.7v-9.8h2.7zm1.693.2h1.7v-3h2.7v3h2.4v2.5h-2.4v3.38c0 .44.113.767.34.98.227.213.547.32.96.32h1.1V260h-1.8c-1.027 0-1.833-.287-2.42-.86s-.88-1.42-.88-2.54v-3.7h-1.7v-2.5zm11.708 1.2h.1c.306-.44.706-.813 1.2-1.12a3.115 3.115 0 011.7-.48c.666 0 1.273.173 1.82.52.546.333.98.813 1.3 1.44.32.613.48 1.327.48 2.14v5.9h-2.7v-5.5c0-.6-.16-1.067-.48-1.4-.32-.333-.76-.5-1.32-.5-.6 0-1.1.207-1.5.62-.4.413-.6.94-.6 1.58v5.2h-2.7v-14h2.7v5.6zm12.901-1.2h1.7v-3h2.7v3h2.4v2.5h-2.4v3.38c0 .44.114.767.34.98.227.213.547.32.96.32h1.1V260h-1.8c-1.026 0-1.833-.287-2.42-.86-.586-.573-.88-1.42-.88-2.54v-3.7h-1.7v-2.5zm11.708 1.2h.1c.307-.44.707-.813 1.2-1.12a3.118 3.118 0 011.7-.48c.667 0 1.273.173 1.82.52.547.333.98.813 1.3 1.44.32.613.48 1.327.48 2.14v5.9h-2.7v-5.5c0-.6-.16-1.067-.48-1.4-.32-.333-.76-.5-1.32-.5-.6 0-1.1.207-1.5.62-.4.413-.6.94-.6 1.58v5.2h-2.7v-14h2.7v5.6zm17.992 7.46c-.453.32-1.046.593-1.78.82-.733.213-1.54.32-2.42.32-.946 0-1.82-.227-2.62-.68a5.302 5.302 0 01-1.9-1.86 5.044 5.044 0 01-.68-2.56c0-.92.227-1.767.68-2.54a5.181 5.181 0 011.86-1.86c.787-.467 1.64-.7 2.56-.7.88 0 1.694.22 2.44.66.76.44 1.36 1.04 1.8 1.8.44.747.66 1.56.66 2.44 0 .44-.033.84-.1 1.2h-7.1c.16.493.454.9.88 1.22.44.32 1.014.48 1.72.48.56 0 1.06-.06 1.5-.18.454-.133.82-.287 1.1-.46l1.4 1.9zm-2.2-4.96c-.16-.48-.44-.88-.84-1.2-.386-.333-.84-.5-1.36-.5-.52 0-.98.167-1.38.5-.386.32-.66.72-.82 1.2h4.4zm12.216-2.5h.1c.307-.44.727-.813 1.26-1.12.533-.32 1.147-.48 1.84-.48.773 0 1.493.22 2.16.66.68.44 1.22 1.047 1.62 1.82.413.773.62 1.647.62 2.62 0 .973-.207 1.847-.62 2.62-.4.773-.94 1.38-1.62 1.82-.667.44-1.387.66-2.16.66-.693 0-1.307-.153-1.84-.46-.533-.32-.953-.7-1.26-1.14h-.1v1.4h-2.7v-14h2.7v5.6zm2.4 6.1c.707 0 1.3-.247 1.78-.74s.72-1.113.72-1.86c0-.747-.24-1.367-.72-1.86-.48-.493-1.073-.74-1.78-.74-.707 0-1.3.247-1.78.74s-.72 1.113-.72 1.86c0 .747.24 1.367.72 1.86.48.493 1.073.74 1.78.74zm12.602 1.1c-.306.387-.713.72-1.22 1-.493.267-1.053.4-1.68.4-.893 0-1.62-.26-2.18-.78-.546-.533-.82-1.207-.82-2.02 0-.827.26-1.533.78-2.12.534-.587 1.24-.927 2.12-1.02l3.1-.3c-.053-.4-.233-.76-.54-1.08-.306-.32-.693-.48-1.16-.48-.453 0-.873.053-1.26.16a3.8 3.8 0 00-.94.34l-1.6-1.6c.427-.36.987-.667 1.68-.92.694-.253 1.467-.38 2.32-.38.814 0 1.54.173 2.18.52.64.333 1.134.8 1.48 1.4.36.587.54 1.247.54 1.98v6.1h-2.7v-1.2h-.1zm-2.1-2.86c-.333.013-.6.127-.8.34-.2.213-.3.453-.3.72 0 .307.1.553.3.74.214.173.514.26.9.26.627 0 1.134-.167 1.52-.5.387-.333.58-.813.58-1.44v-.2l-2.2.08zm7.808.76a4 4 0 001.14.78c.453.213.94.32 1.46.32.8 0 1.2-.233 1.2-.7 0-.187-.127-.34-.38-.46-.24-.133-.627-.287-1.16-.46a20.22 20.22 0 01-1.74-.68 3.8 3.8 0 01-1.22-.94c-.333-.413-.5-.933-.5-1.56 0-.547.153-1.047.46-1.5.307-.453.753-.813 1.34-1.08.6-.28 1.3-.42 2.1-.42.813 0 1.547.147 2.2.44.667.293 1.2.647 1.6 1.06l-1.6 1.7c-.24-.227-.553-.413-.94-.56a3.265 3.265 0 00-1.26-.24c-.333 0-.587.06-.76.18-.16.12-.24.26-.24.42 0 .187.12.347.36.48.253.12.647.267 1.18.44.693.24 1.273.473 1.74.7a3.27 3.27 0 011.2.94c.347.4.52.913.52 1.54 0 .573-.16 1.1-.48 1.58-.307.467-.773.84-1.4 1.12-.613.267-1.353.4-2.22.4-.88 0-1.687-.173-2.42-.52-.733-.347-1.327-.773-1.78-1.28l1.6-1.7zm8.302-9.3c0-.4.153-.747.46-1.04.306-.307.673-.46 1.1-.46.413 0 .773.153 1.08.46.306.293.46.64.46 1.04s-.154.753-.46 1.06c-.307.293-.674.44-1.1.44-.414 0-.774-.147-1.08-.44-.307-.307-.46-.66-.46-1.06zm2.9 2.8v9.8h-2.7v-9.8h2.7zm11.293 8c-.4.56-.954 1.033-1.66 1.42-.707.387-1.52.58-2.44.58-.947 0-1.82-.227-2.62-.68a5.295 5.295 0 01-1.9-1.86 5.034 5.034 0 01-.68-2.56c0-.92.226-1.767.68-2.54a5.078 5.078 0 011.9-1.86c.8-.467 1.673-.7 2.62-.7.92 0 1.733.193 2.44.58.706.387 1.26.86 1.66 1.42l-1.7 1.7a3.298 3.298 0 00-1.04-.84 2.663 2.663 0 00-1.36-.36c-.707 0-1.3.247-1.78.74s-.72 1.113-.72 1.86c0 .747.24 1.367.72 1.86.48.493 1.073.74 1.78.74.493 0 .946-.113 1.36-.34.426-.24.773-.527 1.04-.86l1.7 1.7zm2.29-1.5a4 4 0 001.14.78c.454.213.94.32 1.46.32.8 0 1.2-.233 1.2-.7 0-.187-.126-.34-.38-.46-.24-.133-.626-.287-1.16-.46a20.22 20.22 0 01-1.74-.68 3.81 3.81 0 01-1.22-.94c-.333-.413-.5-.933-.5-1.56 0-.547.154-1.047.46-1.5.307-.453.754-.813 1.34-1.08.6-.28 1.3-.42 2.1-.42.814 0 1.547.147 2.2.44.667.293 1.2.647 1.6 1.06l-1.6 1.7c-.24-.227-.553-.413-.94-.56a3.258 3.258 0 00-1.26-.24c-.333 0-.586.06-.76.18-.16.12-.24.26-.24.42 0 .187.12.347.36.48.254.12.647.267 1.18.44.694.24 1.274.473 1.74.7a3.27 3.27 0 011.2.94c.347.4.52.913.52 1.54 0 .573-.16 1.1-.48 1.58-.306.467-.773.84-1.4 1.12-.613.267-1.353.4-2.22.4-.88 0-1.686-.173-2.42-.52-.733-.347-1.326-.773-1.78-1.28l1.6-1.7z"/>
    <g filter="url(#filter0_d)">
      <path fill="#fff" d="M0 362.79c0-22.21 0-33.315 4.39-41.768a39 39 0 0116.632-16.631C29.475 300 40.58 300 62.79 300h249.42c22.21 0 33.315 0 41.768 4.391a38.999 38.999 0 0116.631 16.631C375 329.475 375 340.58 375 362.79V521H0V362.79z"/>
      <circle cx="331" cy="477" r="28" fill="#25272E"/>
      <path fill="#fff" d="M344.525 478.022c-.624.546-7.781 7.782-7.781 7.782-.887.775-2.275.146-2.275-1.032v-5.274h-14.548c-1.349 0-2.442-1.123-2.442-2.508 0-1.386 1.093-2.509 2.442-2.509h14.548v-5.273c0-1.178 1.388-1.808 2.275-1.032 0 0 7.157 7.235 7.781 7.782a1.37 1.37 0 010 2.064z"/>
      <path fill="#25272E" d="M210.44 346.92c-.491.629-1.141 1.163-1.952 1.6-.8.427-1.696.64-2.688.64-1.099 0-2.101-.256-3.008-.768a5.733 5.733 0 01-2.144-2.08 5.713 5.713 0 01-.768-2.912c0-1.056.256-2.021.768-2.896a5.7 5.7 0 012.144-2.096c.907-.512 1.909-.768 3.008-.768.992 0 1.883.213 2.672.64.789.416 1.419.923 1.888 1.52l-1.12 1.12c-.341-.469-.811-.864-1.408-1.184-.597-.331-1.275-.496-2.032-.496a4.09 4.09 0 00-2.096.56 4.034 4.034 0 00-1.52 1.504 4.176 4.176 0 00-.544 2.096c0 .757.181 1.456.544 2.096a4.15 4.15 0 001.52 1.52c.64.363 1.339.544 2.096.544.757 0 1.44-.171 2.048-.512.619-.341 1.109-.757 1.472-1.248l1.12 1.12zm.966-1.76c0-.736.176-1.408.528-2.016a3.85 3.85 0 011.44-1.456 4.036 4.036 0 012.032-.528c.736 0 1.408.176 2.016.528a3.82 3.82 0 011.456 1.456c.352.608.528 1.28.528 2.016s-.176 1.413-.528 2.032a3.857 3.857 0 01-1.456 1.44 3.951 3.951 0 01-2.016.528 4.036 4.036 0 01-2.032-.528 3.886 3.886 0 01-1.44-1.44 4.039 4.039 0 01-.528-2.032zm4 2.48c.448 0 .853-.107 1.216-.32.373-.213.661-.507.864-.88.213-.384.32-.811.32-1.28s-.107-.891-.32-1.264a2.187 2.187 0 00-.864-.896 2.357 2.357 0 00-1.216-.32c-.448 0-.859.107-1.232.32a2.32 2.32 0 00-.864.896 2.602 2.602 0 00-.304 1.264c0 .469.101.896.304 1.28.213.373.501.667.864.88.373.213.784.32 1.232.32zm6.561-6.32l2.16 5.68 2.16-5.68h1.76l-3.04 7.68h-1.76l-3.04-7.68h1.76zm14.156 6.592c-.32.352-.763.651-1.328.896-.565.235-1.216.352-1.952.352a4.039 4.039 0 01-2.032-.528 3.886 3.886 0 01-1.44-1.44 4.039 4.039 0 01-.528-2.032c0-.736.176-1.408.528-2.016a3.926 3.926 0 011.424-1.44 3.716 3.716 0 011.968-.544c.715 0 1.355.165 1.92.496.576.32 1.024.768 1.344 1.344.331.565.496 1.205.496 1.92 0 .299-.027.565-.08.8h-5.92c.085.533.352.987.8 1.36.448.373.981.56 1.6.56.448 0 .864-.08 1.248-.24a3.73 3.73 0 00.992-.608l.96 1.12zm-1.28-3.552c-.128-.533-.373-.96-.736-1.28-.352-.32-.8-.48-1.344-.48-.576 0-1.051.16-1.424.48-.373.309-.645.736-.816 1.28h4.32zm5.033-2c.214-.288.496-.533.848-.736a2.481 2.481 0 011.232-.304h.64v1.44h-.64c-.373 0-.72.101-1.04.304-.32.192-.576.469-.768.832a2.552 2.552 0 00-.272 1.184V349h-1.6v-7.68h1.6v1.04zm8.646 5.52a3.218 3.218 0 01-1.008.912c-.427.245-.917.368-1.472.368a2.86 2.86 0 01-1.328-.304 2.421 2.421 0 01-.912-.816 2.128 2.128 0 01-.32-1.12c0-.651.208-1.211.624-1.68.427-.48.976-.747 1.648-.8l2.768-.224c0-.416-.155-.789-.464-1.12a1.463 1.463 0 00-1.136-.496 3.38 3.38 0 00-1.104.176c-.341.107-.629.24-.864.4l-1.04-1.04c.309-.277.725-.507 1.248-.688a5.076 5.076 0 011.76-.288c.629 0 1.184.128 1.664.384.491.256.869.613 1.136 1.072.267.448.4.949.4 1.504V349h-1.6v-1.12zm-2.24-2.16c-.384.043-.683.165-.896.368a.897.897 0 00-.304.672c0 .288.117.533.352.736.235.203.544.304.928.304.619 0 1.131-.187 1.536-.56.416-.373.624-.875.624-1.504v-.24l-2.24.224zm6.64 4.16c.245.267.555.491.928.672.373.192.784.288 1.232.288.725 0 1.307-.224 1.744-.672.437-.448.656-1.051.656-1.808v-.72c-.245.331-.581.613-1.008.848-.427.235-.917.352-1.472.352a3.189 3.189 0 01-1.712-.496 3.665 3.665 0 01-1.264-1.376 4.16 4.16 0 01-.464-1.968c0-.725.155-1.381.464-1.968a3.665 3.665 0 011.264-1.376 3.189 3.189 0 011.712-.496c.555 0 1.045.117 1.472.352.427.235.763.517 1.008.848v-1.04h1.6v7.04c0 .768-.171 1.456-.512 2.064a3.651 3.651 0 01-1.424 1.424c-.608.341-1.296.512-2.064.512a4.373 4.373 0 01-1.92-.416c-.565-.277-1.019-.619-1.36-1.024l1.12-1.04zm2.4-2.56c.395 0 .757-.096 1.088-.288a2.18 2.18 0 00.784-.832c.192-.352.288-.752.288-1.2 0-.448-.096-.848-.288-1.2a2.061 2.061 0 00-.784-.816 2.04 2.04 0 00-1.088-.304 2.04 2.04 0 00-1.088.304 2.061 2.061 0 00-.784.816 2.465 2.465 0 00-.288 1.2c0 .448.096.848.288 1.2.192.352.453.629.784.832.331.192.693.288 1.088.288zm12.801.592c-.32.352-.763.651-1.328.896-.565.235-1.216.352-1.952.352a4.039 4.039 0 01-2.032-.528 3.886 3.886 0 01-1.44-1.44 4.039 4.039 0 01-.528-2.032c0-.736.176-1.408.528-2.016a3.926 3.926 0 011.424-1.44 3.716 3.716 0 011.968-.544c.715 0 1.355.165 1.92.496.576.32 1.024.768 1.344 1.344.331.565.496 1.205.496 1.92 0 .299-.027.565-.08.8h-5.92c.085.533.352.987.8 1.36.448.373.981.56 1.6.56.448 0 .864-.08 1.248-.24a3.73 3.73 0 00.992-.608l.96 1.12zm-1.28-3.552c-.128-.533-.373-.96-.736-1.28-.352-.32-.8-.48-1.344-.48-.576 0-1.051.16-1.424.48-.373.309-.645.736-.816 1.28h4.32zm7.288 6.48c.31 0 .582-.091.816-.272.235-.181.416-.437.544-.768l.32-.8-3.12-7.68h1.76l2.16 5.68 2.16-5.68h1.76l-3.36 8.56c-.33.821-.725 1.44-1.184 1.856a2.29 2.29 0 01-1.616.624h-1.2v-1.52h.96zm14.477-2.928c-.32.352-.763.651-1.328.896-.566.235-1.216.352-1.952.352a4.036 4.036 0 01-2.032-.528 3.886 3.886 0 01-1.44-1.44 4.039 4.039 0 01-.528-2.032c0-.736.176-1.408.528-2.016a3.918 3.918 0 011.424-1.44 3.716 3.716 0 011.968-.544c.714 0 1.354.165 1.92.496.576.32 1.024.768 1.344 1.344.33.565.496 1.205.496 1.92 0 .299-.027.565-.08.8h-5.92c.085.533.352.987.8 1.36.448.373.981.56 1.6.56.448 0 .864-.08 1.248-.24.394-.171.725-.373.992-.608l.96 1.12zm-1.28-3.552c-.128-.533-.374-.96-.736-1.28-.352-.32-.8-.48-1.344-.48-.576 0-1.051.16-1.424.48-.374.309-.646.736-.816 1.28h4.32zm7.913 3.52a3.24 3.24 0 01-1.008.912c-.427.245-.918.368-1.472.368-.491 0-.934-.101-1.328-.304a2.421 2.421 0 01-.912-.816 2.12 2.12 0 01-.32-1.12c0-.651.208-1.211.624-1.68.426-.48.976-.747 1.648-.8l2.768-.224c0-.416-.155-.789-.464-1.12a1.464 1.464 0 00-1.136-.496 3.38 3.38 0 00-1.104.176c-.342.107-.63.24-.864.4l-1.04-1.04c.309-.277.725-.507 1.248-.688.522-.192 1.109-.288 1.76-.288.629 0 1.184.128 1.664.384.49.256.869.613 1.136 1.072.266.448.4.949.4 1.504V349h-1.6v-1.12zm-2.24-2.16c-.384.043-.683.165-.896.368a.897.897 0 00-.304.672c0 .288.117.533.352.736.234.203.544.304.928.304.618 0 1.13-.187 1.536-.56.416-.373.624-.875.624-1.504v-.24l-2.24.224zm7.36-3.36c.213-.288.496-.533.848-.736a2.476 2.476 0 011.232-.304h.64v1.44h-.64c-.374 0-.72.101-1.04.304-.32.192-.576.469-.768.832a2.54 2.54 0 00-.272 1.184V349h-1.6v-7.68h1.6v1.04z"/>
      <path fill="#F8F9FA" d="M199 380c0-6.627 5.373-12 12-12h62a4 4 0 014 4v40a4 4 0 01-4 4h-62c-6.627 0-12-5.373-12-12v-24z"/>
      <path fill="#25272E" d="M218.968 397.001c0-.8.16-1.499.48-2.096a4.906 4.906 0 011.168-1.472 20.375 20.375 0 011.792-1.344 18.716 18.716 0 001.376-.992c.341-.278.624-.598.848-.96.224-.363.336-.768.336-1.216 0-.651-.213-1.174-.64-1.568-.427-.395-1.013-.592-1.76-.592-.651 0-1.179.186-1.584.56a2.755 2.755 0 00-.816 1.36l-1.04-.48a3.528 3.528 0 011.152-1.808c.587-.502 1.349-.752 2.288-.752.704 0 1.328.144 1.872.432a3.15 3.15 0 011.264 1.184c.309.501.464 1.056.464 1.664 0 .586-.133 1.109-.4 1.568a4.715 4.715 0 01-.992 1.2c-.395.33-.917.72-1.568 1.168-.555.384-.997.709-1.328.976-.331.256-.64.56-.928.912-.277.341-.485.72-.624 1.136h5.84v1.12h-7.2zM232.581 397.161c-.789 0-1.531-.235-2.224-.704-.683-.47-1.232-1.136-1.648-2-.416-.875-.624-1.894-.624-3.056 0-1.152.208-2.166.624-3.04.416-.875.965-1.547 1.648-2.016.683-.47 1.419-.704 2.208-.704.789 0 1.525.234 2.208.704.683.469 1.232 1.141 1.648 2.016.416.874.624 1.888.624 3.04 0 1.152-.208 2.165-.624 3.04-.416.874-.965 1.546-1.648 2.016-.683.469-1.413.704-2.192.704zm0-1.12c.576 0 1.109-.182 1.6-.544.501-.363.901-.891 1.2-1.584.309-.704.464-1.542.464-2.512 0-.971-.155-1.808-.464-2.512-.299-.704-.699-1.232-1.2-1.584-.501-.363-1.04-.544-1.616-.544-.576 0-1.115.181-1.616.544-.501.352-.907.88-1.216 1.584-.299.704-.448 1.541-.448 2.512 0 .97.149 1.808.448 2.512.309.704.715 1.237 1.216 1.6.512.352 1.056.528 1.632.528zM238.64 397.001c0-.8.16-1.499.48-2.096a4.906 4.906 0 011.168-1.472 20.375 20.375 0 011.792-1.344 18.716 18.716 0 001.376-.992c.341-.278.624-.598.848-.96.224-.363.336-.768.336-1.216 0-.651-.213-1.174-.64-1.568-.427-.395-1.013-.592-1.76-.592-.651 0-1.179.186-1.584.56a2.755 2.755 0 00-.816 1.36l-1.04-.48a3.528 3.528 0 011.152-1.808c.587-.502 1.349-.752 2.288-.752.704 0 1.328.144 1.872.432a3.15 3.15 0 011.264 1.184c.309.501.464 1.056.464 1.664 0 .586-.133 1.109-.4 1.568a4.715 4.715 0 01-.992 1.2c-.395.33-.917.72-1.568 1.168-.555.384-.997.709-1.328.976-.331.256-.64.56-.928.912-.277.341-.485.72-.624 1.136h5.84v1.12h-7.2zM252.253 397.161c-.789 0-1.531-.235-2.224-.704-.683-.47-1.232-1.136-1.648-2-.416-.875-.624-1.894-.624-3.056 0-1.152.208-2.166.624-3.04.416-.875.965-1.547 1.648-2.016.683-.47 1.419-.704 2.208-.704.789 0 1.525.234 2.208.704.683.469 1.232 1.141 1.648 2.016.416.874.624 1.888.624 3.04 0 1.152-.208 2.165-.624 3.04-.416.874-.965 1.546-1.648 2.016-.683.469-1.413.704-2.192.704zm0-1.12c.576 0 1.109-.182 1.6-.544.501-.363.901-.891 1.2-1.584.309-.704.464-1.542.464-2.512 0-.971-.155-1.808-.464-2.512-.299-.704-.699-1.232-1.2-1.584-.501-.363-1.04-.544-1.616-.544-.576 0-1.115.181-1.616.544-.501.352-.907.88-1.216 1.584-.299.704-.448 1.541-.448 2.512 0 .97.149 1.808.448 2.512.309.704.715 1.237 1.216 1.6.512.352 1.056.528 1.632.528z"/>
      <g>
        <path fill="#E4F0F0" d="M281 372a4 4 0 014-4h62c6.627 0 12 5.373 12 12v24c0 6.627-5.373 12-12 12h-62a4 4 0 01-4-4v-40z"/>
        <path fill="#A9C0C4" fill-rule="evenodd" d="M347 370h-62a2 2 0 00-2 2v40a2 2 0 002 2h62c5.523 0 10-4.477 10-10v-24c0-5.523-4.477-10-10-10zm-62-2a4 4 0 00-4 4v40a4 4 0 004 4h62c6.627 0 12-5.373 12-12v-24c0-6.627-5.373-12-12-12h-62z" clip-rule="evenodd"/>
        <path fill="#25272E" d="M303.122 397.001c0-.896.166-1.67.496-2.32.342-.651.747-1.179 1.216-1.584.47-.416 1.078-.875 1.824-1.376.523-.352.928-.64 1.216-.864.288-.235.528-.496.72-.784.192-.299.288-.63.288-.992 0-.534-.176-.96-.528-1.28-.352-.32-.842-.48-1.472-.48-.554 0-1.013.149-1.376.448a2.445 2.445 0 00-.784 1.072l-1.44-.64a3.75 3.75 0 011.232-1.808c.608-.502 1.398-.752 2.368-.752.726 0 1.376.154 1.952.464a3.22 3.22 0 011.328 1.232c.32.522.48 1.104.48 1.744 0 .597-.133 1.125-.4 1.584a4.32 4.32 0 01-.944 1.152c-.373.309-.885.682-1.536 1.12a18.47 18.47 0 00-1.616 1.184 3.963 3.963 0 00-.944 1.2h5.44v1.68h-7.52zM317.036 397.161a4.29 4.29 0 01-2.352-.672c-.704-.459-1.264-1.12-1.68-1.984-.406-.875-.608-1.91-.608-3.104 0-1.195.202-2.224.608-3.088.416-.875.976-1.536 1.68-1.984a4.214 4.214 0 012.352-.688c.864 0 1.648.229 2.352.688.704.448 1.258 1.109 1.664 1.984.416.864.624 1.893.624 3.088 0 1.194-.208 2.229-.624 3.104-.406.864-.96 1.525-1.664 1.984a4.29 4.29 0 01-2.352.672zm2.88-5.76c0-.896-.134-1.654-.4-2.272-.256-.63-.603-1.099-1.04-1.408a2.388 2.388 0 00-1.44-.48c-.523 0-1.003.16-1.44.48-.438.309-.79.778-1.056 1.408-.256.618-.384 1.376-.384 2.272 0 .896.128 1.658.384 2.288.266.618.618 1.088 1.056 1.408a2.44 2.44 0 001.44.464c.522 0 1.002-.155 1.44-.464.437-.32.784-.79 1.04-1.408.266-.63.4-1.392.4-2.288zM323.122 397.001c0-.896.166-1.67.496-2.32.342-.651.747-1.179 1.216-1.584.47-.416 1.078-.875 1.824-1.376.523-.352.928-.64 1.216-.864.288-.235.528-.496.72-.784.192-.299.288-.63.288-.992 0-.534-.176-.96-.528-1.28-.352-.32-.842-.48-1.472-.48-.554 0-1.013.149-1.376.448a2.445 2.445 0 00-.784 1.072l-1.44-.64a3.75 3.75 0 011.232-1.808c.608-.502 1.398-.752 2.368-.752.726 0 1.376.154 1.952.464a3.22 3.22 0 011.328 1.232c.32.522.48 1.104.48 1.744 0 .597-.133 1.125-.4 1.584a4.32 4.32 0 01-.944 1.152c-.373.309-.885.682-1.536 1.12a18.47 18.47 0 00-1.616 1.184 3.963 3.963 0 00-.944 1.2h5.44v1.68h-7.52zM332.076 387.321c.672-.075 1.184-.235 1.536-.48.352-.246.64-.592.864-1.04h1.36v11.2h-1.76v-8.56h-2v-1.12z"/>
      </g>
      <g>
        <path fill="#25272E" d="M22.96 339.48h-6v-1.68h8.08v1.68l-6.24 7.84h6.4V349h-8.48v-1.68l6.24-7.84zm4.002-.56c0-.267.096-.491.288-.672a.957.957 0 01.672-.288c.245 0 .464.096.656.288a.865.865 0 01.304.672.915.915 0 01-.304.688.93.93 0 01-.656.272.987.987 0 01-.672-.272.938.938 0 01-.288-.688zm1.76 2.4V349h-1.6v-7.68h1.6zm3.92 1.12c.245-.352.597-.651 1.056-.896.459-.256.986-.384 1.584-.384.64 0 1.232.176 1.776.528.554.341.997.816 1.328 1.424.33.608.496 1.291.496 2.048 0 .757-.165 1.44-.496 2.048a3.845 3.845 0 01-1.328 1.44 3.281 3.281 0 01-1.776.512c-.597 0-1.125-.123-1.584-.368-.459-.256-.81-.56-1.056-.912v4.48h-1.6v-11.04h1.6v1.12zm2.32 5.2c.426 0 .816-.107 1.168-.32a2.28 2.28 0 00.832-.88c.213-.384.32-.811.32-1.28s-.107-.891-.32-1.264a2.213 2.213 0 00-2-1.216c-.427 0-.816.107-1.168.32a2.364 2.364 0 00-.848.896 2.606 2.606 0 00-.304 1.264c0 .469.101.896.304 1.28a2.4 2.4 0 00.848.88c.352.213.741.32 1.168.32zm16.161-.08c-.341.448-.8.827-1.376 1.136-.565.309-1.2.464-1.904.464a4.038 4.038 0 01-2.032-.528 3.886 3.886 0 01-1.44-1.44 4.039 4.039 0 01-.528-2.032c0-.736.176-1.408.528-2.016a3.85 3.85 0 011.44-1.456 4.038 4.038 0 012.032-.528c.704 0 1.333.149 1.888.448.555.288.992.645 1.312 1.072l-1.12 1.04a2.871 2.871 0 00-.88-.736 2.358 2.358 0 00-1.2-.304c-.448 0-.859.107-1.232.32-.362.213-.65.512-.864.896a2.607 2.607 0 00-.304 1.264c0 .469.102.896.304 1.28.214.373.502.667.864.88.373.213.784.32 1.232.32.448 0 .859-.107 1.232-.32.373-.224.683-.491.928-.8l1.12 1.04zm.876-2.4c0-.736.176-1.408.528-2.016a3.85 3.85 0 011.44-1.456A4.038 4.038 0 0156 341.16c.736 0 1.408.176 2.016.528a3.816 3.816 0 011.456 1.456c.352.608.528 1.28.528 2.016s-.176 1.413-.528 2.032a3.852 3.852 0 01-1.456 1.44 3.951 3.951 0 01-2.016.528 4.038 4.038 0 01-2.032-.528 3.886 3.886 0 01-1.44-1.44A4.039 4.039 0 0152 345.16zm4 2.48c.448 0 .854-.107 1.216-.32.374-.213.662-.507.864-.88.214-.384.32-.811.32-1.28s-.106-.891-.32-1.264a2.184 2.184 0 00-.864-.896 2.357 2.357 0 00-1.216-.32c-.448 0-.858.107-1.232.32-.362.213-.65.512-.864.896a2.606 2.606 0 00-.304 1.264c0 .469.102.896.304 1.28.214.373.502.667.864.88.374.213.784.32 1.232.32zm11.522.24c-.246.352-.598.656-1.056.912-.459.245-.987.368-1.584.368-.64 0-1.238-.171-1.792-.512a3.893 3.893 0 01-1.312-1.44c-.331-.608-.496-1.291-.496-2.048 0-.757.165-1.44.496-2.048a3.762 3.762 0 011.312-1.424 3.284 3.284 0 011.792-.528c.597 0 1.125.128 1.584.384.458.245.81.544 1.056.896v-4.64h1.6V349h-1.6v-1.12zm-2.32-.24c.426 0 .816-.107 1.168-.32.352-.213.629-.507.832-.88a2.59 2.59 0 00.32-1.28c0-.469-.107-.891-.32-1.264a2.213 2.213 0 00-2-1.216c-.427 0-.816.107-1.168.32a2.365 2.365 0 00-.848.896 2.607 2.607 0 00-.304 1.264c0 .469.101.896.304 1.28a2.4 2.4 0 00.848.88c.352.213.741.32 1.168.32zm13.047.272c-.32.352-.763.651-1.328.896-.565.235-1.216.352-1.952.352a4.038 4.038 0 01-2.032-.528 3.886 3.886 0 01-1.44-1.44 4.039 4.039 0 01-.528-2.032c0-.736.176-1.408.528-2.016a3.924 3.924 0 011.424-1.44 3.718 3.718 0 011.968-.544c.715 0 1.355.165 1.92.496.576.32 1.024.768 1.344 1.344.33.565.496 1.205.496 1.92 0 .299-.026.565-.08.8h-5.92c.086.533.352.987.8 1.36.448.373.982.56 1.6.56.448 0 .864-.08 1.248-.24.395-.171.725-.373.992-.608l.96 1.12zm-1.28-3.552c-.128-.533-.373-.96-.736-1.28-.352-.32-.8-.48-1.344-.48-.576 0-1.05.16-1.424.48-.373.309-.645.736-.816 1.28h4.32z"/>
        <path fill="#fff" d="M16 380c0-6.627 5.373-12 12-12h135c6.627 0 12 5.373 12 12v24c0 6.627-5.373 12-12 12H28c-6.627 0-12-5.373-12-12v-24z"/>
        <path fill="#1169F5" fill-rule="evenodd" d="M163 369H28c-6.075 0-11 4.925-11 11v24c0 6.075 4.925 11 11 11h135c6.075 0 11-4.925 11-11v-24c0-6.075-4.925-11-11-11zm-135-1c-6.627 0-12 5.373-12 12v24c0 6.627 5.373 12 12 12h135c6.627 0 12-5.373 12-12v-24c0-6.627-5.373-12-12-12H28z" clip-rule="evenodd"/>
        <path fill="#25272E" d="M27.6 387.101v-2.1h9.2v2l-5.8 12h-2.4l5.8-11.9h-6.8zM39.29 395.601c.334.44.794.82 1.38 1.14.6.306 1.274.46 2.02.46.88 0 1.567-.214 2.06-.64.494-.44.74-.994.74-1.66 0-.627-.253-1.147-.76-1.56-.493-.427-1.173-.64-2.04-.64h-1.5v-2.1h1.5c.734 0 1.3-.174 1.7-.52.4-.347.6-.807.6-1.38 0-.574-.2-1.034-.6-1.38-.4-.347-.966-.52-1.7-.52-.626 0-1.2.14-1.72.42a4.17 4.17 0 00-1.28.98l-1.5-1.5c.494-.534 1.127-.98 1.9-1.34.787-.374 1.654-.56 2.6-.56.907 0 1.7.166 2.38.5.68.333 1.2.786 1.56 1.36.374.56.56 1.173.56 1.84 0 .746-.206 1.386-.62 1.92-.4.533-.893.926-1.48 1.18.72.253 1.334.673 1.84 1.26.507.573.76 1.286.76 2.14 0 .773-.206 1.48-.62 2.12-.4.64-.98 1.146-1.74 1.52-.76.373-1.64.56-2.64.56-1.08 0-2.046-.2-2.9-.6-.84-.414-1.506-.914-2-1.5l1.5-1.5zM50.6 395.601c.333.44.793.82 1.38 1.14.6.306 1.273.46 2.02.46.88 0 1.566-.214 2.06-.64.493-.44.74-.994.74-1.66 0-.627-.254-1.147-.76-1.56-.494-.427-1.174-.64-2.04-.64h-1.5v-2.1H54c.733 0 1.3-.174 1.7-.52.4-.347.6-.807.6-1.38 0-.574-.2-1.034-.6-1.38-.4-.347-.967-.52-1.7-.52-.627 0-1.2.14-1.72.42a4.17 4.17 0 00-1.28.98l-1.5-1.5c.493-.534 1.126-.98 1.9-1.34.786-.374 1.653-.56 2.6-.56.906 0 1.7.166 2.38.5.68.333 1.2.786 1.56 1.36.373.56.56 1.173.56 1.84 0 .746-.207 1.386-.62 1.92-.4.533-.894.926-1.48 1.18.72.253 1.333.673 1.84 1.26.506.573.76 1.286.76 2.14 0 .773-.207 1.48-.62 2.12-.4.64-.98 1.146-1.74 1.52-.76.373-1.64.56-2.64.56-1.08 0-2.047-.2-2.9-.6-.84-.414-1.507-.914-2-1.5l1.5-1.5zM66.908 399.201c-1.08 0-2.06-.28-2.94-.84-.88-.574-1.58-1.4-2.1-2.48-.507-1.094-.76-2.387-.76-3.88 0-1.494.253-2.78.76-3.86.52-1.094 1.22-1.92 2.1-2.48.88-.574 1.86-.86 2.94-.86 1.08 0 2.06.286 2.94.86.88.56 1.573 1.386 2.08 2.48.52 1.08.78 2.366.78 3.86 0 1.493-.26 2.786-.78 3.88-.507 1.08-1.2 1.906-2.08 2.48-.88.56-1.86.84-2.94.84zm3.6-7.2c0-1.12-.167-2.067-.5-2.84-.32-.787-.754-1.374-1.3-1.76-.547-.4-1.147-.6-1.8-.6-.654 0-1.254.2-1.8.6-.547.386-.987.973-1.32 1.76-.32.773-.48 1.72-.48 2.84 0 1.12.16 2.073.48 2.86.333.773.773 1.36 1.32 1.76.546.386 1.146.58 1.8.58.653 0 1.253-.194 1.8-.58.546-.4.98-.987 1.3-1.76.333-.787.5-1.74.5-2.86zM74.516 386.901c.84-.094 1.48-.294 1.92-.6.44-.307.8-.74 1.08-1.3h1.7v14h-2.2v-10.7h-2.5v-1.4z"/>
      </g>
      <path fill="#70747D" d="M16.644 435.18v-.98h7.21v.98h-3.08V444h-1.05v-8.82h-3.08zm8.752 3.01c.177-.289.443-.537.798-.742.364-.205.798-.308 1.302-.308h.42v.98h-.42c-.373 0-.723.089-1.05.266a2.03 2.03 0 00-.77.77c-.187.327-.28.705-.28 1.134V444h-.98v-6.72h.98v.91zm7.906 4.9a2.688 2.688 0 01-.882.742 2.633 2.633 0 01-1.288.308c-.448 0-.854-.093-1.218-.28a2.264 2.264 0 01-.854-.728 1.694 1.694 0 01-.308-.952c0-.569.168-1.036.504-1.4.345-.364.83-.574 1.456-.63l2.59-.224c0-.327-.075-.635-.224-.924a1.656 1.656 0 00-.602-.686 1.45 1.45 0 00-.854-.266c-.392 0-.751.047-1.078.14-.327.093-.597.21-.812.35l-.63-.63c.28-.215.64-.397 1.078-.546.439-.149.92-.224 1.442-.224.504 0 .957.117 1.358.35.41.224.728.532.952.924.233.392.35.831.35 1.316V444h-.98v-.91zm-2.31-2.1c-.41.037-.723.163-.938.378a1.1 1.1 0 00-.322.812c0 .299.121.551.364.756.252.196.597.294 1.036.294.653 0 1.176-.177 1.568-.532.401-.364.602-.868.602-1.512v-.42l-2.31.224zm5.117-3.71l2.17 5.39 2.17-5.39h1.05l-2.73 6.72h-.98l-2.73-6.72h1.05zm6.583-2.24c0-.177.06-.327.182-.448a.61.61 0 01.448-.182.61.61 0 01.448.182.609.609 0 01.182.448c0 .177-.06.327-.182.448a.61.61 0 01-.448.182.61.61 0 01-.448-.182.609.609 0 01-.182-.448zm1.12 2.24V444h-.98v-6.72h.98zm2.317 4.97c.186.271.434.504.742.7.307.187.643.28 1.008.28.476 0 .84-.103 1.092-.308.252-.215.378-.485.378-.812a.77.77 0 00-.392-.7c-.252-.159-.635-.313-1.148-.462a10.97 10.97 0 01-1.106-.392 2.022 2.022 0 01-.7-.56c-.197-.252-.294-.574-.294-.966 0-.327.093-.635.28-.924a2.16 2.16 0 01.797-.7 2.51 2.51 0 011.163-.266c.457 0 .872.089 1.245.266a2.9 2.9 0 01.924.644l-.7.7a1.733 1.733 0 00-.615-.49 1.729 1.729 0 00-.854-.21c-.374 0-.677.098-.91.294-.234.196-.35.425-.35.686 0 .289.12.509.364.658.242.14.62.285 1.134.434.457.14.826.275 1.105.406.29.131.532.327.728.588.206.252.308.583.308.994 0 .373-.098.714-.294 1.022-.195.308-.48.555-.853.742-.374.177-.808.266-1.302.266-.551 0-1.036-.112-1.456-.336a2.987 2.987 0 01-.995-.854l.7-.7zm17.91-.14c-.43.569-.999 1.05-1.708 1.442-.7.392-1.484.588-2.352.588-.915 0-1.76-.224-2.534-.672a4.939 4.939 0 01-1.834-1.834 4.973 4.973 0 01-.672-2.534c0-.915.224-1.759.672-2.534a4.939 4.939 0 011.834-1.834 4.974 4.974 0 012.534-.672c.868 0 1.647.196 2.338.588.69.392 1.241.873 1.652 1.442l-.7.63c-.327-.467-.775-.863-1.344-1.19-.56-.327-1.209-.49-1.946-.49a3.9 3.9 0 00-3.458 2.002 4.05 4.05 0 00-.532 2.058c0 .756.177 1.447.532 2.072a3.928 3.928 0 003.458 1.988c.737 0 1.395-.163 1.974-.49.578-.327 1.04-.723 1.386-1.19l.7.63zm4.483 2.03a3.33 3.33 0 01-1.722-.462 3.541 3.541 0 01-1.246-1.274 3.457 3.457 0 01-.462-1.764c0-.644.154-1.232.462-1.764a3.433 3.433 0 011.246-1.26 3.259 3.259 0 011.722-.476c.625 0 1.2.159 1.722.476.523.308.938.728 1.246 1.26.308.532.462 1.12.462 1.764 0 .644-.154 1.232-.462 1.764a3.541 3.541 0 01-1.246 1.274 3.33 3.33 0 01-1.722.462zm0-.91c.439 0 .845-.112 1.218-.336a2.616 2.616 0 001.232-2.254c0-.476-.112-.91-.336-1.302a2.479 2.479 0 00-.896-.938 2.258 2.258 0 00-1.218-.35c-.439 0-.845.117-1.218.35a2.479 2.479 0 00-.896.938 2.578 2.578 0 00-.336 1.302 2.616 2.616 0 001.232 2.254c.373.224.78.336 1.218.336zm6.161-2.03c0 .392.084.742.252 1.05.168.308.397.551.686.728.29.168.607.252.952.252.373 0 .714-.093 1.022-.28.308-.196.55-.462.728-.798.187-.345.28-.733.28-1.162v-3.71h.98V444h-.98v-.91a2.688 2.688 0 01-.882.742 2.633 2.633 0 01-1.288.308c-.513 0-.98-.121-1.4-.364a2.728 2.728 0 01-.98-1.05c-.233-.448-.35-.957-.35-1.526v-3.92h.98v3.92zm8.19-2.94c.214-.308.508-.569.881-.784a2.454 2.454 0 011.288-.336c.532 0 1.004.117 1.415.35.42.233.742.569.966 1.008.233.429.35.933.35 1.512V444h-.98v-3.99c0-.588-.173-1.059-.519-1.414-.335-.364-.77-.546-1.302-.546-.391 0-.75.098-1.078.294-.317.187-.569.448-.756.784a2.451 2.451 0 00-.266 1.162V444h-.98v-6.72h.98v.98zm6.304-.98h1.26v-2.24h.98v2.24h1.82v.91h-1.82v3.99c0 .336.075.574.224.714.158.131.387.196.686.196h.91v.91h-.952c-.588 0-1.045-.149-1.372-.448-.317-.299-.476-.756-.476-1.372v-3.99h-1.26v-.91zm5.818 8.75c.308 0 .56-.089.756-.266.205-.168.373-.429.504-.784l.35-.98-2.73-6.72h1.05l2.17 5.46 2.17-5.46h1.05l-3.08 7.7c-.28.709-.579 1.213-.896 1.512-.317.299-.719.448-1.204.448h-.84v-.91h.7zm6.863-3.024l-.98 2.534h-.63l.63-2.534h.98zm4.187-7.826v-.98h7.21v.98h-3.08V444h-1.05v-8.82h-3.08zm8.045-.98h1.26l2.73 3.85 2.73-3.85h1.26l-3.36 4.69 3.64 5.11h-1.26l-3.01-4.27-3.01 4.27h-1.26l3.64-5.11-3.36-4.69z"/>
    </g>
    <g filter="url(#filter1_b)">
      <path fill="#fff" fill-opacity=".95" d="M0 0h375v88H0z"/>
      <path stroke="#000" d="M338.663 17.799h16.666c1.196 0 2.167.97 2.167 2.166v5.979a2.167 2.167 0 01-2.167 2.167h-16.666a2.167 2.167 0 01-2.167-2.167v-5.979c0-1.196.97-2.166 2.167-2.166z" opacity=".35"/>
      <path fill="#000" d="M358.995 20.959v3.992a2.165 2.165 0 000-3.992" opacity=".4"/>
      <path fill="#000" d="M337.996 20.628c0-.736.597-1.333 1.333-1.333h15.333c.737 0 1.334.597 1.334 1.333v4.653c0 .736-.597 1.333-1.334 1.333h-15.333a1.333 1.333 0 01-1.333-1.333v-4.653z"/>
      <path fill="#000" fill-rule="evenodd" d="M323.327 19.57c2.216 0 4.347.85 5.953 2.374.12.117.314.116.433-.004l1.156-1.164a.32.32 0 00-.003-.455c-4.215-4.032-10.864-4.032-15.079 0a.32.32 0 00-.003.455l1.156 1.164c.119.12.312.121.433.004a8.65 8.65 0 015.954-2.374zm0 3.788c1.217 0 2.391.452 3.294 1.268a.31.31 0 00.433-.006l1.155-1.165a.324.324 0 00-.005-.458 7.169 7.169 0 00-9.752 0 .32.32 0 00-.004.458l1.154 1.165a.31.31 0 00.433.006 4.912 4.912 0 013.292-1.268zm2.313 2.55a.32.32 0 01-.094.23l-1.998 2.011a.31.31 0 01-.443 0l-1.998-2.012a.315.315 0 01.01-.456 3.426 3.426 0 014.419 0c.065.058.102.14.104.226zM309.663 17.633h-1a1 1 0 00-1 .998v8.65a1 1 0 001 .998h1c.553 0 1-.447 1-.998v-8.65a.999.999 0 00-1-.998zm-5.666 2.329h1a1 1 0 011 .998v6.321a1 1 0 01-1 .998h-1a1 1 0 01-1-.998V20.96a1 1 0 011-.998zm-3.667 2.329h-1a1 1 0 00-1 .998v3.992a1 1 0 001 .998h1c.553 0 1-.447 1-.998V23.29a.999.999 0 00-1-.998zm-4.666 1.996h-1a1 1 0 00-1 .998v1.996a1 1 0 001 .998h1a1 1 0 001-.998v-1.996a1 1 0 00-1-.998z" clip-rule="evenodd"/>
      <g>
        <path fill="#000" d="M33.164 20.495v.029h1.773v-.03c0-1.076.747-1.801 1.853-1.801 1.04 0 1.801.674 1.801 1.604 0 .747-.358 1.296-1.801 2.761l-3.523 3.604v1.31h7.338V26.37H35.86v-.125l2.212-2.22c1.795-1.772 2.373-2.71 2.373-3.844 0-1.765-1.508-3.04-3.596-3.04-2.168 0-3.684 1.377-3.684 3.355zm10.613 6.357c.696 0 1.172-.498 1.172-1.157 0-.667-.476-1.157-1.172-1.157-.688 0-1.172.49-1.172 1.157 0 .659.484 1.157 1.172 1.157zm0-5.493c.696 0 1.172-.49 1.172-1.15 0-.666-.476-1.157-1.172-1.157-.688 0-1.172.49-1.172 1.157 0 .66.484 1.15 1.172 1.15zm7.083 6.877c2.527 0 4.028-2.05 4.028-5.544 0-3.508-1.523-5.552-4.028-5.552-2.512 0-4.036 2.044-4.036 5.537 0 3.509 1.502 5.56 4.036 5.56zm0-1.567c-1.34 0-2.124-1.392-2.124-3.992 0-2.578.798-3.962 2.124-3.962s2.117 1.377 2.117 3.962c0 2.6-.777 3.992-2.117 3.992zm5.962 1.304H58.8l4.519-8.958v-1.611h-7.354v1.59h5.45v.116l-4.593 8.863z"/>
      </g>
      <g>
        <path fill="#25272E" d="M351 75.5a9.5 9.5 0 009.5-9.5 9.5 9.5 0 00-9.5-9.5 9.5 9.5 0 00-9.5 9.5 9.5 9.5 0 009.5 9.5zm0 1.5c-6.075 0-11-4.925-11-11s4.925-11 11-11 11 4.925 11 11-4.925 11-11 11z"/>
        <path fill="#25272E" d="M349.81 67.573c0-2.03 2.38-2.03 2.38-3.52a1.136 1.136 0 00-.807-1.008 1.14 1.14 0 00-.453-.042 1.719 1.719 0 00-1.68 1.15l-1.75-.77a3.56 3.56 0 013.5-2.38c2.07 0 3.36 1.32 3.36 2.79 0 2.59-2.52 2.59-2.52 4.41h-1.89a2.067 2.067 0 01-.14-.63zm-.14 2.52a1.085 1.085 0 01.33-.782 1.083 1.083 0 01.79-.308 1.119 1.119 0 11-1.12 1.09z"/>
        <g>
          <path fill="#25272E" fill-rule="evenodd" d="M27.002 57.36l-8.157 7.831c-.46.44-.46 1.176 0 1.619l8.157 7.83a1.292 1.292 0 101.79-1.865l-6.832-6.559a.299.299 0 010-.433l6.833-6.56a1.293 1.293 0 00-1.79-1.864z" clip-rule="evenodd"/>
        </g>
      </g>
      <g>
        <circle cx="141.5" cy="63.5" r="4" fill="#03948C"/>
        <circle cx="154.5" cy="63.5" r="2.5" fill="#CEE1E5"/>
        <circle cx="167.5" cy="63.5" r="2.5" fill="#CEE1E5"/>
        <circle cx="180.5" cy="63.5" r="2.5" fill="#CEE1E5"/>
        <circle cx="193.5" cy="63.5" r="2.5" fill="#CEE1E5"/>
        <circle cx="206.5" cy="63.5" r="2.5" fill="#CEE1E5"/>
        <circle cx="219.5" cy="63.5" r="2.5" fill="#CEE1E5"/>
        <circle cx="232.5" cy="63.5" r="2.5" fill="#CEE1E5"/>
      </g>
    </g>
    <g>
      <path fill="#CCCED3" d="M0 521h375v291H0z"/>
      <g filter="url(#filter2_b)">
        <path fill="#D1D5DB" d="M0 521h375v291H0z"/>
      </g>
      <rect width="134" height="5" x="121" y="799" fill="#000" rx="2.5"/>
      <path fill="#000" fill-rule="evenodd" d="M307.427 702.704c-.097.095-.201.198-.34.338l-2.296 2.297a8.985 8.985 0 00-.298.291l-.094.093-2.07 2.072-.131.134-.056.056-.184.188c-.162.16-.326.341-.481.531-.144.153-.26.33-.343.523l-.022.059a2.33 2.33 0 000 1.426l.023.06c.084.193.201.37.345.522.154.189.318.37.492.542a6.439 6.439 0 00.26.264l.091.094 2.075 2.079c.103.102.149.148.232.228.067.067.107.106.181.175l2.278 2.281c.171.17.247.247.344.341.125.126.208.207.337.333a4.086 4.086 0 001.129.844c.39.197.803.333 1.23.407.399.066.798.101 1.198.106.169.004.34.006.508.007H319.68c.155 0 .308-.003.521-.007.397-.005.8-.04 1.198-.106a4.425 4.425 0 001.241-.409 4.19 4.19 0 001.837-1.834c.198-.395.335-.812.409-1.242a8.09 8.09 0 00.106-1.209c.003-.099.004-.187.006-.381l.002-.124v-7.401l-.001-.107-.003-.239-.004-.177a7.943 7.943 0 00-.104-1.181 4.4 4.4 0 00-.404-1.232 4.242 4.242 0 00-.768-1.058 4.103 4.103 0 00-1.056-.768 4.397 4.397 0 00-1.226-.406c-.402-.065-.8-.1-1.2-.105a18.268 18.268 0 00-.509-.007c-.162-.002-.296-.002-.597-.002h-6.696c-.298 0-.433 0-.603.002-.153 0-.32.002-.511.007-.392.005-.79.04-1.184.104a4.398 4.398 0 00-1.234.407c-.392.2-.748.459-1.056.769-.015.014-.025.025-.112.118-.109.103-.208.2-.305.297zm-2.591 2.597l.002-.002-.008.006.006-.004zm3.196 10.713l-2.302-2.305-.051-.046-.142-.139-.196-.194-2.066-2.07a6.865 6.865 0 00-.096-.098l-.102-.102c-.063-.064-.109-.11-.151-.155a5.65 5.65 0 01-.427-.471l-.044-.049a.482.482 0 01-.084-.117.99.99 0 010-.54.471.471 0 01.085-.119l.04-.045c.129-.159.266-.311.412-.455l.157-.162.078-.078a8.3 8.3 0 00.139-.142l2.059-2.061.096-.094.103-.103.137-.134.054-.049 2.3-2.303c.136-.137.236-.236.334-.331.094-.095.184-.183.28-.274.022-.02.034-.033.093-.095l.047-.049a2.78 2.78 0 01.718-.525c.267-.135.555-.23.852-.281.322-.053.654-.082.988-.086.188-.005.344-.007.493-.007.17-.002.302-.002.596-.002h6.696a45.908 45.908 0 011.081.009c.341.004.675.033 1.004.087.29.05.576.145.845.281a2.837 2.837 0 011.236 1.238c.133.265.228.553.279.85.053.324.082.656.086.989l.004.172.003.23.001.101v7.378l-.002.123c-.002.187-.003.269-.006.369a6.783 6.783 0 01-.088 1.017 2.875 2.875 0 01-2.393 2.39 6.637 6.637 0 01-1 .088c-.21.004-.355.006-.498.006h-7.843c-.157 0-.319-.002-.487-.006a6.637 6.637 0 01-1-.088 3.02 3.02 0 01-.848-.281 2.81 2.81 0 01-.713-.519l-.052-.054-.003-.003c-.052-.055-.064-.068-.076-.079l-.015-.014a43.265 43.265 0 01-.611-.603zm4.781-2.489a.6.6 0 01-.844-.849v.001a.59.59 0 01.105-.083l2.595-2.598-2.7-2.697.009-.008a.595.595 0 01.002-.844.596.596 0 01.848 0h-.003c.029.029.055.06.077.093l2.611 2.61 2.619-2.622a.604.604 0 01.721-.213.598.598 0 01.196.974l.007.006-2.697 2.701 2.61 2.608a.57.57 0 01.09.074l-.001.001a.597.597 0 01-.844.847l-.005.006-2.694-2.691-2.692 2.695-.01-.011z" clip-rule="evenodd"/>
      <g filter="url(#filter3_d)">
        <path fill="#FCFCFE" fill-rule="evenodd" d="M129 693a5 5 0 015-5h107a5 5 0 015 5v36a5 5 0 01-5 5H134a5 5 0 01-5-5v-36z" clip-rule="evenodd"/>
      </g>
      <path fill="#000" d="M187.512 719.293c4.102 0 6.47-3.552 6.47-9.119 0-5.529-2.38-9.082-6.47-9.082-4.089 0-6.494 3.577-6.494 9.095 0 5.566 2.38 9.106 6.494 9.106zm0-1.917c-2.759 0-4.284-2.807-4.284-7.202 0-4.297 1.562-7.153 4.284-7.153 2.722 0 4.26 2.832 4.26 7.166 0 4.394-1.513 7.189-4.26 7.189z"/>
      <g filter="url(#filter4_d)">
        <path fill="#FCFCFE" fill-rule="evenodd" d="M252 639a5 5 0 015-5h107a5 5 0 015 5v37a5 5 0 01-5 5H257a5 5 0 01-5-5v-37z" clip-rule="evenodd"/>
      </g>
      <path fill="#000" d="M296.885 668.968h.078l1.333 4.663h1.382l1.87-7.046h-1.524l-1.088 4.966h-.079l-1.308-4.966h-1.245l-1.284 4.966h-.079l-1.098-4.966h-1.533l1.865 7.046h1.391l1.319-4.663zm7.522 4.663h1.592l1.533-2.388h.088l1.514 2.388h1.679l-2.285-3.526 2.32-3.52h-1.651l-1.484 2.466h-.088l-1.47-2.466h-1.733l2.236 3.496-2.251 3.55zm13.148 0v-2.593l2.451-4.453h-1.597l-1.548 2.949h-.088l-1.552-2.949h-1.597l2.456 4.453v2.593h1.475zm5.466 0h5.44v-1.26h-3.633v-.088l3.535-4.707v-.991h-5.259v1.26h3.462v.088l-3.545 4.702v.996zM310.048 659.314c4.309 0 6.824-3.466 6.824-9.399 0-1.916-.281-3.503-.867-4.858-1.074-2.527-3.173-3.955-5.822-3.955-3.614 0-6.238 2.539-6.238 6.018 0 3.344 2.49 5.822 5.847 5.822 2.246 0 4.175-1.135 4.919-2.88H314.748c-.061 4.675-1.746 7.336-4.675 7.336-1.746 0-3.174-1.05-3.638-2.649h-2.234c.537 2.759 2.844 4.565 5.847 4.565zm.122-8.3c-2.307 0-4.003-1.673-4.003-3.968 0-2.209 1.782-3.967 4.04-3.967 2.271 0 4.028 1.77 4.028 4.028 0 2.247-1.733 3.907-4.065 3.907z"/>
      <g filter="url(#filter5_d)">
        <path fill="#FCFCFE" fill-rule="evenodd" d="M129 639a5 5 0 015-5h107a5 5 0 015 5v37a5 5 0 01-5 5H134a5 5 0 01-5-5v-37z" clip-rule="evenodd"/>
      </g>
      <path fill="#000" d="M178.811 673.631v-5.786h2.114v-1.26h-5.703v1.26h2.114v5.786h1.475zm6.907-7.046h-1.475v4.614c0 1.563 1.148 2.613 2.949 2.613 1.807 0 2.954-1.05 2.954-2.613v-4.614h-1.474v4.463c0 .889-.532 1.455-1.48 1.455-.942 0-1.474-.566-1.474-1.455v-4.463zm11.809 7.046l2.349-7.046h-1.587l-1.572 5.386h-.088l-1.602-5.386h-1.665l2.383 7.046h1.782zM187.488 659.314c3.735 0 6.396-2.099 6.396-5.053 0-2.185-1.513-3.992-3.796-4.529v-.049c1.916-.61 3.076-2.1 3.076-3.931 0-2.685-2.38-4.638-5.676-4.638-3.272 0-5.689 1.965-5.689 4.626 0 1.856 1.184 3.357 3.089 3.943v.049c-2.271.525-3.784 2.331-3.784 4.529 0 2.942 2.661 5.053 6.384 5.053zm0-1.916c-2.417 0-4.151-1.379-4.151-3.296 0-1.929 1.734-3.308 4.151-3.308 2.429 0 4.15 1.367 4.15 3.308 0 1.917-1.721 3.296-4.15 3.296zm0-8.533c-2.063 0-3.504-1.208-3.504-2.917 0-1.721 1.441-2.942 3.504-2.942 2.063 0 3.503 1.208 3.503 2.942 0 1.709-1.452 2.917-3.503 2.917z"/>
      <g filter="url(#filter6_d)">
        <path fill="#FCFCFE" fill-rule="evenodd" d="M6 639a5 5 0 015-5h107a5 5 0 015 5v37a5 5 0 01-5 5H11a5 5 0 01-5-5v-37z" clip-rule="evenodd"/>
      </g>
      <path fill="#000" d="M48.204 666.585v7.046h1.475v-2.188h1.391c1.485 0 2.515-.971 2.515-2.422 0-1.464-.991-2.436-2.441-2.436h-2.94zm1.475 1.211h1.074c.85 0 1.333.43 1.333 1.23 0 .791-.493 1.221-1.338 1.221h-1.07v-2.451zm10.344 6.016c.445 0 .865-.064 1.236-.186l.488.693h1.426l-.874-1.328c.713-.61 1.108-1.621 1.108-2.886 0-2.285-1.313-3.701-3.384-3.701-2.07 0-3.393 1.416-3.393 3.701 0 2.3 1.308 3.707 3.393 3.707zm.005-1.294c-1.152 0-1.89-.928-1.89-2.413 0-1.474.743-2.407 1.885-2.407 1.138 0 1.88.933 1.88 2.407 0 .679-.18 1.226-.503 1.573l-.327-.396h-1.338l.801 1.172a2.195 2.195 0 01-.508.064zm8.25-4.742h1.28c.732 0 1.191.42 1.191 1.089 0 .679-.434 1.079-1.177 1.079h-1.294v-2.168zm0 3.301h1.206l1.314 2.554h1.67l-1.485-2.783c.81-.323 1.28-1.104 1.28-2.002 0-1.402-.953-2.261-2.5-2.261h-2.96v7.046h1.475v-2.554zm7.152.596c.053 1.313 1.142 2.139 2.822 2.139 1.767 0 2.856-.87 2.856-2.291 0-1.093-.61-1.704-2.026-2.001l-.85-.181c-.825-.176-1.162-.425-1.162-.86 0-.537.489-.878 1.226-.878.713 0 1.23.371 1.299.927h1.386c-.043-1.255-1.142-2.124-2.695-2.124-1.626 0-2.695.874-2.695 2.202 0 1.075.63 1.744 1.914 2.012l.918.195c.864.186 1.216.445 1.216.894 0 .532-.542.903-1.309.903-.83 0-1.406-.366-1.474-.937H75.43zM60.105 659.021h2.308l7.837-15.576v-2.038H58.591v1.953h9.485v.049l-7.971 15.612z"/>
      <g>
        <g filter="url(#filter7_d)">
          <path fill="#FCFCFE" fill-rule="evenodd" d="M252 585a5 5 0 015-5h107a5 5 0 015 5v37a5 5 0 01-5 5H257a5 5 0 01-5-5v-37z" clip-rule="evenodd"/>
        </g>
        <path fill="#000" d="M304.457 619.631v-7.046h-1.733l-1.953 4.736h-.088l-1.949-4.736h-1.738v7.046h1.367v-4.712h.078l1.797 4.307h.982l1.792-4.307h.078v4.712h1.367zm5.12 0v-4.409h.088l3.252 4.409h1.221v-7.046h-1.411v4.39h-.088l-3.243-4.39h-1.23v7.046h1.411zm11.356-7.227c-2.071 0-3.394 1.416-3.394 3.701 0 2.286 1.304 3.707 3.394 3.707 2.085 0 3.383-1.421 3.383-3.707 0-2.28-1.303-3.701-3.383-3.701zm0 1.294c1.147 0 1.879.933 1.879 2.407 0 1.47-.732 2.413-1.879 2.413-1.158 0-1.885-.943-1.885-2.413 0-1.474.742-2.407 1.885-2.407zM310.817 605.327c3.614 0 6.238-2.539 6.238-6.018 0-3.345-2.49-5.823-5.847-5.823-2.185 0-4.126 1.135-4.919 2.856h-.037c.073-4.687 1.746-7.3 4.687-7.3 1.746 0 3.162 1.026 3.638 2.625h2.234c-.561-2.771-2.856-4.565-5.847-4.565-4.309 0-6.836 3.479-6.836 9.411 0 1.904.281 3.491.867 4.846 1.086 2.539 3.186 3.968 5.822 3.968zm-.024-1.953c-2.258 0-4.016-1.795-4.016-4.053 0-2.246 1.721-3.906 4.053-3.906 2.331 0 3.991 1.66 3.991 3.967 0 2.222-1.782 3.992-4.028 3.992z"/>
      </g>
      <g>
        <g filter="url(#filter8_d)">
          <path fill="#FCFCFE" fill-rule="evenodd" d="M129 585a5 5 0 015-5h107a5 5 0 015 5v37a5 5 0 01-5 5H134a5 5 0 01-5-5v-37z" clip-rule="evenodd"/>
        </g>
        <path fill="#000" d="M176.34 617.561c0 1.381.947 2.251 2.392 2.251 1.495 0 2.393-.85 2.393-2.369v-4.858h-1.475v4.849c0 .693-.332 1.059-.937 1.059-.567 0-.938-.366-.947-.932h-1.426zm9.973 2.07v-2.124l.699-.825 2.046 2.949h1.767l-2.749-3.955 2.569-3.091h-1.641l-2.603 3.14h-.088v-3.14h-1.474v7.046h1.474zm12.235-1.284h-3.135v-5.762h-1.475v7.046h4.61v-1.284zM187.671 605.314c3.674 0 6.274-2.478 6.274-6.018 0-3.418-2.441-5.896-5.822-5.896-1.685 0-3.15.635-3.943 1.697h-.049l.537-5.737h8.276v-1.953h-10.083l-.964 9.863h2.063c.72-1.233 2.124-1.978 3.772-1.978 2.344 0 4.016 1.697 4.016 4.065 0 2.369-1.66 4.029-4.053 4.029-2.112 0-3.711-1.294-3.906-3.174h-2.161c.184 3.003 2.674 5.102 6.043 5.102z"/>
      </g>
      <g>
        <g filter="url(#filter9_d)">
          <path fill="#FCFCFE" fill-rule="evenodd" d="M6 585a5 5 0 015-5h107a5 5 0 015 5v37a5 5 0 01-5 5H11a5 5 0 01-5-5v-37z" clip-rule="evenodd"/>
        </g>
        <path fill="#000" d="M60.234 616.755v-.899h-2.959v1.109h1.529l-.005.127c-.03.849-.698 1.421-1.665 1.421-1.162 0-1.895-.918-1.895-2.427 0-1.48.699-2.383 1.836-2.383.82 0 1.411.415 1.631 1.128h1.465c-.205-1.465-1.43-2.427-3.096-2.427-2.05 0-3.345 1.426-3.345 3.697 0 2.304 1.285 3.711 3.38 3.711 1.923 0 3.124-1.172 3.124-3.057zm9.54 2.876v-7.046h-1.475v2.842h-3.174v-2.842H63.65v7.046h1.475v-2.944h3.174v2.944h1.474zm5.183 0v-7.046h-1.475v7.046h1.475zM66.734 605.021h2.124v-3.662h2.49v-1.928h-2.49v-12.024H65.61c-4.163 5.969-6.226 9.179-7.727 11.963v1.989h8.85v3.662zm-6.677-5.639c1.391-2.442 3.308-5.383 6.64-10.144h.037v10.193h-6.677v-.049z"/>
      </g>
      <g>
        <g filter="url(#filter10_d)">
          <path fill="#FCFCFE" fill-rule="evenodd" d="M252 532a5 5 0 015-5h107a5 5 0 015 5v36a5 5 0 01-5 5H257a5 5 0 01-5-5v-36z" clip-rule="evenodd"/>
        </g>
        <path fill="#000" d="M299.521 558.949V566h2.773c2.109 0 3.306-1.284 3.306-3.574 0-2.207-1.211-3.477-3.306-3.477h-2.773zm1.474 1.26h1.065c1.279 0 2.036.815 2.036 2.241 0 1.489-.733 2.29-2.036 2.29h-1.065v-4.531zm12.664 4.531h-3.193v-1.714h3.013v-1.167h-3.013v-1.645h3.193v-1.26h-4.668V566h4.668v-1.26zm5.028 1.26v-2.744h2.866v-1.206h-2.866v-1.836h3.139v-1.26h-4.614V566h1.475zM308.12 543.87h2.209c2.515 0 4.077 1.282 4.077 3.357 0 1.843-1.672 3.162-4.004 3.162-2.368 0-3.869-1.245-4.065-3.052h-2.111c.158 2.917 2.514 4.956 6.201 4.956 3.454 0 6.213-2.112 6.213-5.139 0-2.478-1.709-4.126-4.37-4.285v-.049c2.197-.39 3.613-1.977 3.613-4.187 0-2.649-2.38-4.541-5.529-4.541-3.309 0-5.53 1.917-5.774 4.908h2.111c.196-1.844 1.538-3.003 3.565-3.003 2.234 0 3.418 1.184 3.418 2.929 0 1.782-1.416 3.089-3.443 3.089h-2.111v1.855z"/>
      </g>
      <g>
        <g filter="url(#filter11_d)">
          <path fill="#FCFCFE" fill-rule="evenodd" d="M129 532a5 5 0 015-5h107a5 5 0 015 5v36a5 5 0 01-5 5H134a5 5 0 01-5-5v-36z" clip-rule="evenodd"/>
        </g>
        <path fill="#000" d="M180.046 566h1.597l-2.447-7.046h-1.733L175.017 566h1.479l.542-1.68h2.476l.532 1.68zm-1.807-5.581h.088l.874 2.764h-1.846l.884-2.764zm9.769 5.581c1.504 0 2.436-.781 2.436-2.017 0-.908-.678-1.611-1.611-1.679v-.088c.723-.108 1.274-.757 1.274-1.504 0-1.089-.815-1.758-2.182-1.758h-3.081V566h3.164zm-1.69-5.918h1.231c.703 0 1.108.337 1.108.898 0 .567-.434.894-1.23.894h-1.109v-1.792zm0 4.79v-2.002h1.28c.869 0 1.342.342 1.342.986 0 .66-.459 1.016-1.308 1.016h-1.314zm10.453 1.309c1.699 0 2.939-1.05 3.061-2.574h-1.436c-.141.777-.776 1.275-1.621 1.275-1.113 0-1.801-.923-1.801-2.407 0-1.485.688-2.403 1.797-2.403.839 0 1.479.532 1.621 1.343h1.435c-.107-1.533-1.387-2.642-3.056-2.642-2.046 0-3.306 1.412-3.306 3.702 0 2.295 1.264 3.706 3.306 3.706zM181.738 539.463v.013h2.124v-.013c0-1.965 1.563-3.454 3.626-3.454 1.941 0 3.491 1.355 3.491 3.052 0 1.464-.562 2.404-2.93 4.895l-6.201 6.53V552h11.621v-1.953h-8.581v-.049l4.455-4.602c2.942-3.04 3.833-4.504 3.833-6.47 0-2.697-2.478-4.834-5.627-4.834-3.32 0-5.811 2.295-5.811 5.371z"/>
      </g>
      <g>
        <g filter="url(#filter12_d)">
          <path fill="#FCFCFE" fill-rule="evenodd" d="M6 532a5 5 0 015-5h107a5 5 0 015 5v36a5 5 0 01-5 5H11a5 5 0 01-5-5v-36z" clip-rule="evenodd"/>
        </g>
        <path fill="#000" d="M64.878 552h2.124v-17.615h-2.148l-4.688 3.369v2.32l4.664-3.357h.048V552z"/>
      </g>
    </g>
  </g>
  <defs>
    <filter id="filter0_d" width="543" height="389" x="-84" y="216" color-interpolation-filters="sRGB" filterUnits="userSpaceOnUse">
      <feFlood flood-opacity="0" result="BackgroundImageFix"/>
      <feColorMatrix in="SourceAlpha" values="0 0 0 0 0 0 0 0 0 0 0 0 0 0 0 0 0 0 127 0"/>
      <feMorphology in="SourceAlpha" operator="dilate" radius="4" result="effect1_dropShadow"/>
      <feOffset/>
      <feGaussianBlur stdDeviation="40"/>
      <feColorMatrix values="0 0 0 0 0.4056 0 0 0 0 0.500104 0 0 0 0 0.52 0 0 0 0.04 0"/>
      <feBlend in2="BackgroundImageFix" mode="multiply" result="effect1_dropShadow"/>
      <feBlend in="SourceGraphic" in2="effect1_dropShadow" result="shape"/>
    </filter>
    <filter id="filter1_b" width="407" height="120" x="-16" y="-16" color-interpolation-filters="sRGB" filterUnits="userSpaceOnUse">
      <feFlood flood-opacity="0" result="BackgroundImageFix"/>
      <feGaussianBlur in="BackgroundImage" stdDeviation="8"/>
      <feComposite in2="SourceAlpha" operator="in" result="effect1_backgroundBlur"/>
      <feBlend in="SourceGraphic" in2="effect1_backgroundBlur" result="shape"/>
    </filter>
    <filter id="filter2_b" width="592.463" height="508.463" x="-108.731" y="412.269" color-interpolation-filters="sRGB" filterUnits="userSpaceOnUse">
      <feFlood flood-opacity="0" result="BackgroundImageFix"/>
      <feGaussianBlur in="BackgroundImage" stdDeviation="54.366"/>
      <feComposite in2="SourceAlpha" operator="in" result="effect1_backgroundBlur"/>
      <feBlend in="SourceGraphic" in2="effect1_backgroundBlur" result="shape"/>
    </filter>
    <filter id="filter3_d" width="117" height="47" x="129" y="688" color-interpolation-filters="sRGB" filterUnits="userSpaceOnUse">
      <feFlood flood-opacity="0" result="BackgroundImageFix"/>
      <feColorMatrix in="SourceAlpha" values="0 0 0 0 0 0 0 0 0 0 0 0 0 0 0 0 0 0 127 0"/>
      <feOffset dy="1"/>
      <feColorMatrix values="0 0 0 0 0.537255 0 0 0 0 0.541176 0 0 0 0 0.552941 0 0 0 1 0"/>
      <feBlend in2="BackgroundImageFix" result="effect1_dropShadow"/>
      <feBlend in="SourceGraphic" in2="effect1_dropShadow" result="shape"/>
    </filter>
    <filter id="filter4_d" width="117" height="48" x="252" y="634" color-interpolation-filters="sRGB" filterUnits="userSpaceOnUse">
      <feFlood flood-opacity="0" result="BackgroundImageFix"/>
      <feColorMatrix in="SourceAlpha" values="0 0 0 0 0 0 0 0 0 0 0 0 0 0 0 0 0 0 127 0"/>
      <feOffset dy="1"/>
      <feColorMatrix values="0 0 0 0 0.537255 0 0 0 0 0.541176 0 0 0 0 0.552941 0 0 0 1 0"/>
      <feBlend in2="BackgroundImageFix" result="effect1_dropShadow"/>
      <feBlend in="SourceGraphic" in2="effect1_dropShadow" result="shape"/>
    </filter>
    <filter id="filter5_d" width="117" height="48" x="129" y="634" color-interpolation-filters="sRGB" filterUnits="userSpaceOnUse">
      <feFlood flood-opacity="0" result="BackgroundImageFix"/>
      <feColorMatrix in="SourceAlpha" values="0 0 0 0 0 0 0 0 0 0 0 0 0 0 0 0 0 0 127 0"/>
      <feOffset dy="1"/>
      <feColorMatrix values="0 0 0 0 0.537255 0 0 0 0 0.541176 0 0 0 0 0.552941 0 0 0 1 0"/>
      <feBlend in2="BackgroundImageFix" result="effect1_dropShadow"/>
      <feBlend in="SourceGraphic" in2="effect1_dropShadow" result="shape"/>
    </filter>
    <filter id="filter6_d" width="117" height="48" x="6" y="634" color-interpolation-filters="sRGB" filterUnits="userSpaceOnUse">
      <feFlood flood-opacity="0" result="BackgroundImageFix"/>
      <feColorMatrix in="SourceAlpha" values="0 0 0 0 0 0 0 0 0 0 0 0 0 0 0 0 0 0 127 0"/>
      <feOffset dy="1"/>
      <feColorMatrix values="0 0 0 0 0.537255 0 0 0 0 0.541176 0 0 0 0 0.552941 0 0 0 1 0"/>
      <feBlend in2="BackgroundImageFix" result="effect1_dropShadow"/>
      <feBlend in="SourceGraphic" in2="effect1_dropShadow" result="shape"/>
    </filter>
    <filter id="filter7_d" width="117" height="48" x="252" y="580" color-interpolation-filters="sRGB" filterUnits="userSpaceOnUse">
      <feFlood flood-opacity="0" result="BackgroundImageFix"/>
      <feColorMatrix in="SourceAlpha" values="0 0 0 0 0 0 0 0 0 0 0 0 0 0 0 0 0 0 127 0"/>
      <feOffset dy="1"/>
      <feColorMatrix values="0 0 0 0 0.537255 0 0 0 0 0.541176 0 0 0 0 0.552941 0 0 0 1 0"/>
      <feBlend in2="BackgroundImageFix" result="effect1_dropShadow"/>
      <feBlend in="SourceGraphic" in2="effect1_dropShadow" result="shape"/>
    </filter>
    <filter id="filter8_d" width="117" height="48" x="129" y="580" color-interpolation-filters="sRGB" filterUnits="userSpaceOnUse">
      <feFlood flood-opacity="0" result="BackgroundImageFix"/>
      <feColorMatrix in="SourceAlpha" values="0 0 0 0 0 0 0 0 0 0 0 0 0 0 0 0 0 0 127 0"/>
      <feOffset dy="1"/>
      <feColorMatrix values="0 0 0 0 0.537255 0 0 0 0 0.541176 0 0 0 0 0.552941 0 0 0 1 0"/>
      <feBlend in2="BackgroundImageFix" result="effect1_dropShadow"/>
      <feBlend in="SourceGraphic" in2="effect1_dropShadow" result="shape"/>
    </filter>
    <filter id="filter9_d" width="117" height="48" x="6" y="580" color-interpolation-filters="sRGB" filterUnits="userSpaceOnUse">
      <feFlood flood-opacity="0" result="BackgroundImageFix"/>
      <feColorMatrix in="SourceAlpha" values="0 0 0 0 0 0 0 0 0 0 0 0 0 0 0 0 0 0 127 0"/>
      <feOffset dy="1"/>
      <feColorMatrix values="0 0 0 0 0.537255 0 0 0 0 0.541176 0 0 0 0 0.552941 0 0 0 1 0"/>
      <feBlend in2="BackgroundImageFix" result="effect1_dropShadow"/>
      <feBlend in="SourceGraphic" in2="effect1_dropShadow" result="shape"/>
    </filter>
    <filter id="filter10_d" width="117" height="47" x="252" y="527" color-interpolation-filters="sRGB" filterUnits="userSpaceOnUse">
      <feFlood flood-opacity="0" result="BackgroundImageFix"/>
      <feColorMatrix in="SourceAlpha" values="0 0 0 0 0 0 0 0 0 0 0 0 0 0 0 0 0 0 127 0"/>
      <feOffset dy="1"/>
      <feColorMatrix values="0 0 0 0 0.537255 0 0 0 0 0.541176 0 0 0 0 0.552941 0 0 0 1 0"/>
      <feBlend in2="BackgroundImageFix" result="effect1_dropShadow"/>
      <feBlend in="SourceGraphic" in2="effect1_dropShadow" result="shape"/>
    </filter>
    <filter id="filter11_d" width="117" height="47" x="129" y="527" color-interpolation-filters="sRGB" filterUnits="userSpaceOnUse">
      <feFlood flood-opacity="0" result="BackgroundImageFix"/>
      <feColorMatrix in="SourceAlpha" values="0 0 0 0 0 0 0 0 0 0 0 0 0 0 0 0 0 0 127 0"/>
      <feOffset dy="1"/>
      <feColorMatrix values="0 0 0 0 0.537255 0 0 0 0 0.541176 0 0 0 0 0.552941 0 0 0 1 0"/>
      <feBlend in2="BackgroundImageFix" result="effect1_dropShadow"/>
      <feBlend in="SourceGraphic" in2="effect1_dropShadow" result="shape"/>
    </filter>
    <filter id="filter12_d" width="117" height="47" x="6" y="527" color-interpolation-filters="sRGB" filterUnits="userSpaceOnUse">
      <feFlood flood-opacity="0" result="BackgroundImageFix"/>
      <feColorMatrix in="SourceAlpha" values="0 0 0 0 0 0 0 0 0 0 0 0 0 0 0 0 0 0 127 0"/>
      <feOffset dy="1"/>
      <feColorMatrix values="0 0 0 0 0.537255 0 0 0 0 0.541176 0 0 0 0 0.552941 0 0 0 1 0"/>
      <feBlend in2="BackgroundImageFix" result="effect1_dropShadow"/>
      <feBlend in="SourceGraphic" in2="effect1_dropShadow" result="shape"/>
    </filter>
    <linearGradient id="paint0_linear" x1="111.5" x2="151.758" y1="108.116" y2="425.533" gradientUnits="userSpaceOnUse">
      <stop stop-color="#E4F0F0" stop-opacity="0"/>
      <stop offset="1" stop-color="#E4F0F0"/>
    </linearGradient>
    <clipPath id="clip0">
      <path fill="#fff" d="M0 0h375v812H0z"/>
    </clipPath>
  </defs>
</svg>
