<svg xmlns="http://www.w3.org/2000/svg" width="375" height="812" fill="none" viewBox="0 0 375 812">
  <g class="04-he" clip-path="url(#clip0)">
    <path fill="#fff" d="M0 0h375v812H0z"/>
    <path fill="url(#paint0_linear)" d="M0 88h375v724H0z" class="Rectangle 480"/>
    <path fill="#25272E" d="M19.4 376l2.9 9.4h.1l2.9-9.4h2.8l2.9 9.4h.1L34 376h3.1l-4.6 14h-2.9l-2.84-9.1h-.12L23.8 390h-2.9l-4.6-14h3.1zm21.716 5.6h.1a4.04 4.04 0 011.2-1.12 3.118 3.118 0 011.7-.48c.666 0 1.273.173 1.82.52.546.333.98.813 1.3 1.44.32.613.48 1.327.48 2.14v5.9h-2.7v-5.5c0-.6-.16-1.067-.48-1.4-.32-.333-.76-.5-1.32-.5-.6 0-1.1.207-1.5.62-.4.413-.6.94-.6 1.58v5.2h-2.7v-14h2.7v5.6zm8.592 3.5c0-.92.227-1.767.68-2.54a5.083 5.083 0 011.9-1.86c.8-.467 1.673-.7 2.62-.7.947 0 1.82.233 2.62.7a4.934 4.934 0 011.88 1.86c.466.773.7 1.62.7 2.54a4.93 4.93 0 01-.7 2.56 5.14 5.14 0 01-1.88 1.86c-.8.453-1.673.68-2.62.68-.947 0-1.82-.227-2.62-.68a5.3 5.3 0 01-1.9-1.86 5.04 5.04 0 01-.68-2.56zm5.2 2.6c.706 0 1.3-.247 1.78-.74s.72-1.113.72-1.86c0-.747-.24-1.367-.72-1.86-.48-.493-1.074-.74-1.78-.74-.707 0-1.3.247-1.78.74s-.72 1.113-.72 1.86c0 .747.24 1.367.72 1.86.48.493 1.073.74 1.78.74zm14.506-6.1h.1c.307-.44.707-.813 1.2-1.12a3.117 3.117 0 011.7-.48c.667 0 1.273.173 1.82.52.547.333.98.813 1.3 1.44.32.613.48 1.327.48 2.14v5.9h-2.7v-5.5c0-.6-.16-1.067-.48-1.4-.32-.333-.76-.5-1.32-.5-.6 0-1.1.207-1.5.62-.4.413-.6.94-.6 1.58v5.2h-2.7v-9.8h2.7v1.4zm17.995 7.46c-.454.32-1.047.593-1.78.82-.734.213-1.54.32-2.42.32-.947 0-1.82-.227-2.62-.68a5.3 5.3 0 01-1.9-1.86 5.04 5.04 0 01-.68-2.56c0-.92.226-1.767.68-2.54a5.176 5.176 0 011.86-1.86c.786-.467 1.64-.7 2.56-.7.88 0 1.693.22 2.44.66.76.44 1.36 1.04 1.8 1.8.44.747.66 1.56.66 2.44 0 .44-.034.84-.1 1.2h-7.1c.16.493.453.9.88 1.22.44.32 1.013.48 1.72.48.56 0 1.06-.06 1.5-.18.453-.133.82-.287 1.1-.46l1.4 1.9zm-2.2-4.96c-.16-.48-.44-.88-.84-1.2a2.02 2.02 0 00-1.36-.5c-.52 0-.98.167-1.38.5-.387.32-.66.72-.82 1.2h4.4zm13.606 4.96c-.453.32-1.047.593-1.78.82-.733.213-1.54.32-2.42.32-.947 0-1.82-.227-2.62-.68a5.3 5.3 0 01-1.9-1.86 5.04 5.04 0 01-.68-2.56c0-.92.226-1.767.68-2.54a5.176 5.176 0 011.86-1.86c.787-.467 1.64-.7 2.56-.7.88 0 1.693.22 2.44.66.76.44 1.36 1.04 1.8 1.8.44.747.66 1.56.66 2.44 0 .44-.034.84-.1 1.2h-7.1c.16.493.453.9.88 1.22.44.32 1.013.48 1.72.48.56 0 1.06-.06 1.5-.18.453-.133.82-.287 1.1-.46l1.4 1.9zm-2.2-4.96c-.16-.48-.44-.88-.84-1.2-.387-.333-.84-.5-1.36-.5-.52 0-.98.167-1.38.5-.387.32-.66.72-.82 1.2h4.4zm11.706 4.5c-.307.44-.727.82-1.26 1.14-.533.307-1.147.46-1.84.46-.773 0-1.5-.22-2.18-.66-.667-.44-1.207-1.047-1.62-1.82-.4-.773-.6-1.647-.6-2.62 0-.973.2-1.847.6-2.62.413-.773.953-1.38 1.62-1.82.68-.44 1.407-.66 2.18-.66.693 0 1.307.16 1.84.48.533.307.953.68 1.26 1.12h.1V376h2.7v14h-2.7v-1.4h-.1zm-2.3-.9c.707 0 1.3-.247 1.78-.74s.72-1.113.72-1.86c0-.747-.24-1.367-.72-1.86-.48-.493-1.073-.74-1.78-.74-.707 0-1.3.247-1.78.74s-.72 1.113-.72 1.86c0 .747.24 1.367.72 1.86.48.493 1.073.74 1.78.74zm8.402-1a4 4 0 001.14.78c.454.213.94.32 1.46.32.8 0 1.2-.233 1.2-.7 0-.187-.126-.34-.38-.46-.24-.133-.626-.287-1.16-.46a20.22 20.22 0 01-1.74-.68 3.81 3.81 0 01-1.22-.94c-.333-.413-.5-.933-.5-1.56 0-.547.154-1.047.46-1.5.307-.453.754-.813 1.34-1.08.6-.28 1.3-.42 2.1-.42.814 0 1.547.147 2.2.44.667.293 1.2.647 1.6 1.06l-1.6 1.7c-.24-.227-.553-.413-.94-.56a3.258 3.258 0 00-1.26-.24c-.333 0-.586.06-.76.18-.16.12-.24.26-.24.42 0 .187.12.347.36.48.254.12.647.267 1.18.44.694.24 1.274.473 1.74.7a3.27 3.27 0 011.2.94c.347.4.52.913.52 1.54 0 .573-.16 1.1-.48 1.58-.306.467-.773.84-1.4 1.12-.613.267-1.353.4-2.22.4-.88 0-1.686-.173-2.42-.52-.733-.347-1.326-.773-1.78-1.28l1.6-1.7zm21.811 1.5c-.4.56-.953 1.033-1.66 1.42-.706.387-1.52.58-2.44.58-.946 0-1.82-.227-2.62-.68a5.302 5.302 0 01-1.9-1.86 5.044 5.044 0 01-.68-2.56c0-.92.227-1.767.68-2.54a5.085 5.085 0 011.9-1.86c.8-.467 1.674-.7 2.62-.7.92 0 1.734.193 2.44.58.707.387 1.26.86 1.66 1.42l-1.7 1.7a3.275 3.275 0 00-1.04-.84 2.658 2.658 0 00-1.36-.36c-.706 0-1.3.247-1.78.74s-.72 1.113-.72 1.86c0 .747.24 1.367.72 1.86.48.493 1.074.74 1.78.74.494 0 .947-.113 1.36-.34.427-.24.774-.527 1.04-.86l1.7 1.7zm.896-3.1c0-.92.226-1.767.68-2.54a5.078 5.078 0 011.9-1.86c.8-.467 1.673-.7 2.62-.7.946 0 1.82.233 2.62.7a4.94 4.94 0 011.88 1.86c.466.773.7 1.62.7 2.54 0 .92-.234 1.773-.7 2.56a5.145 5.145 0 01-1.88 1.86c-.8.453-1.674.68-2.62.68-.947 0-1.82-.227-2.62-.68a5.295 5.295 0 01-1.9-1.86 5.034 5.034 0 01-.68-2.56zm5.2 2.6c.706 0 1.3-.247 1.78-.74s.72-1.113.72-1.86c0-.747-.24-1.367-.72-1.86-.48-.493-1.074-.74-1.78-.74-.707 0-1.3.247-1.78.74s-.72 1.113-.72 1.86c0 .747.24 1.367.72 1.86.48.493 1.073.74 1.78.74zm8.697-7.5l2.26 6.6h.08l2.26-6.6h2.9l-3.7 9.8h-3l-3.7-9.8h2.9zm17.495 8.86c-.453.32-1.047.593-1.78.82-.733.213-1.54.32-2.42.32-.947 0-1.82-.227-2.62-.68a5.302 5.302 0 01-1.9-1.86 5.044 5.044 0 01-.68-2.56c0-.92.227-1.767.68-2.54a5.181 5.181 0 011.86-1.86c.787-.467 1.64-.7 2.56-.7.88 0 1.693.22 2.44.66.76.44 1.36 1.04 1.8 1.8.44.747.66 1.56.66 2.44 0 .44-.033.84-.1 1.2h-7.1c.16.493.453.9.88 1.22.44.32 1.013.48 1.72.48.56 0 1.06-.06 1.5-.18.453-.133.82-.287 1.1-.46l1.4 1.9zm-2.2-4.96c-.16-.48-.44-.88-.84-1.2a2.02 2.02 0 00-1.36-.5c-.52 0-.98.167-1.38.5-.387.32-.66.72-.82 1.2h4.4zm7.506-2.8h.1c.187-.307.487-.567.9-.78.413-.213.933-.32 1.56-.32h.64v2.6h-.9c-.667 0-1.22.24-1.66.72-.427.467-.64 1.093-.64 1.88v4.6h-2.7v-9.8h2.7v1.1zm10.298 7.5c-.307.387-.714.72-1.22 1-.494.267-1.054.4-1.68.4-.894 0-1.62-.26-2.18-.78-.547-.533-.82-1.207-.82-2.02 0-.827.26-1.533.78-2.12.533-.587 1.24-.927 2.12-1.02l3.1-.3c-.054-.4-.234-.76-.54-1.08-.307-.32-.694-.48-1.16-.48-.454 0-.874.053-1.26.16-.387.093-.7.207-.94.34l-1.6-1.6c.426-.36.986-.667 1.68-.92.693-.253 1.466-.38 2.32-.38.813 0 1.54.173 2.18.52.64.333 1.133.8 1.48 1.4.36.587.54 1.247.54 1.98v6.1h-2.7v-1.2h-.1zm-2.1-2.86c-.334.013-.6.127-.8.34-.2.213-.3.453-.3.72 0 .307.1.553.3.74.213.173.513.26.9.26.626 0 1.133-.167 1.52-.5.386-.333.58-.813.58-1.44v-.2l-2.2.08zm8.708 4.9c.306.24.686.44 1.14.6.453.173.94.26 1.46.26.76 0 1.38-.253 1.86-.76.493-.493.74-1.14.74-1.94v-.8h-.1c-.28.44-.68.82-1.2 1.14-.507.307-1.107.46-1.8.46a3.826 3.826 0 01-2.08-.62c-.64-.427-1.154-1.013-1.54-1.76-.387-.747-.58-1.587-.58-2.52s.193-1.773.58-2.52c.386-.747.9-1.327 1.54-1.74.653-.427 1.346-.64 2.08-.64.693 0 1.293.16 1.8.48.52.307.92.68 1.2 1.12h.1v-1.4h2.7v8.8c0 .987-.227 1.873-.68 2.66a4.73 4.73 0 01-1.9 1.86c-.8.453-1.707.68-2.72.68-.947 0-1.794-.16-2.54-.48-.747-.32-1.334-.713-1.76-1.18l1.7-1.7zm2.9-3.54c.653 0 1.2-.227 1.64-.68.44-.453.66-1.027.66-1.72 0-.693-.22-1.267-.66-1.72-.44-.453-.987-.68-1.64-.68-.654 0-1.2.227-1.64.68-.44.453-.66 1.027-.66 1.72 0 .693.22 1.267.66 1.72.44.453.986.68 1.64.68zm16.392 1.76c-.454.32-1.047.593-1.78.82-.734.213-1.54.32-2.42.32-.947 0-1.82-.227-2.62-.68a5.295 5.295 0 01-1.9-1.86 5.034 5.034 0 01-.68-2.56c0-.92.226-1.767.68-2.54a5.166 5.166 0 011.86-1.86c.786-.467 1.64-.7 2.56-.7.88 0 1.693.22 2.44.66.76.44 1.36 1.04 1.8 1.8.44.747.66 1.56.66 2.44 0 .44-.034.84-.1 1.2h-7.1c.16.493.453.9.88 1.22.44.32 1.013.48 1.72.48.56 0 1.06-.06 1.5-.18.453-.133.82-.287 1.1-.46l1.4 1.9zm-2.2-4.96c-.16-.48-.44-.88-.84-1.2a2.02 2.02 0 00-1.36-.5c-.52 0-.98.167-1.38.5-.387.32-.66.72-.82 1.2h4.4zm7.306 1.6c-.133-.28-.2-.58-.2-.9 0-.667.18-1.213.54-1.64.36-.44.873-.893 1.54-1.36.493-.347.853-.64 1.08-.88.227-.24.34-.513.34-.82 0-.373-.167-.7-.5-.98-.333-.28-.767-.42-1.3-.42-.587 0-1.093.16-1.52.48-.427.307-.753.68-.98 1.12l-2.6-1.2c.36-.92.973-1.7 1.84-2.34.867-.64 1.953-.96 3.26-.96 1 0 1.88.187 2.64.56.76.373 1.34.873 1.74 1.5.413.627.62 1.307.62 2.04 0 .573-.107 1.073-.32 1.5-.2.413-.447.76-.74 1.04-.293.267-.673.573-1.14.92-.573.413-1 .787-1.28 1.12-.28.32-.42.727-.42 1.22h-2.6zm-.4 2.9c0-.453.153-.833.46-1.14.307-.307.687-.46 1.14-.46.453 0 .833.153 1.14.46.307.307.46.687.46 1.14 0 .453-.153.833-.46 1.14-.307.307-.687.46-1.14.46-.453 0-.833-.153-1.14-.46a1.548 1.548 0 01-.46-1.14z" class="Step Title"/>
    <g class="Rectangle 1153" filter="url(#filter0_d)">
      <rect width="343" height="180" x="16" y="430" fill="#fff" rx="24"/>
    </g>
    <circle cx="52" cy="470" r="20" fill="#E4F0F0" class="Circle"/>
    <g class="Intersect">
      <path fill="#678085" d="M38.48 484.739c2.162-5.057 6.683-8.489 13.52-8.489s11.358 3.432 13.52 8.489A19.928 19.928 0 0152 490c-5.213 0-9.96-1.994-13.52-5.261zM59.5 465a7.5 7.5 0 11-15 0 7.5 7.5 0 0115 0z"/>
    </g>
    <path fill="#25272E" d="M92.05 465.4l4.32 5.4 4.32-5.4h2.43V478h-2.7v-8.28l-4.05 5.04-4.05-5.04V478h-2.7v-12.6h2.43zm14.304 14.04c.732 0 1.242-.36 1.53-1.08l.18-.45-3.42-8.73h2.61l2.07 5.85h.09l1.98-5.85h2.61l-3.6 9.54c-.384 1.02-.852 1.782-1.404 2.286-.552.516-1.224.774-2.016.774h-1.62v-2.34h.99zm9.266-4.41c.276.276.618.51 1.026.702.408.192.846.288 1.314.288.72 0 1.08-.21 1.08-.63 0-.168-.114-.306-.342-.414-.216-.12-.564-.258-1.044-.414a18.023 18.023 0 01-1.566-.612 3.415 3.415 0 01-1.098-.846c-.3-.372-.45-.84-.45-1.404 0-.492.138-.942.414-1.35.276-.408.678-.732 1.206-.972.54-.252 1.17-.378 1.89-.378.732 0 1.392.132 1.98.396.6.264 1.08.582 1.44.954l-1.44 1.53a2.514 2.514 0 00-.846-.504 2.937 2.937 0 00-1.134-.216c-.3 0-.528.054-.684.162-.144.108-.216.234-.216.378 0 .168.108.312.324.432.228.108.582.24 1.062.396.624.216 1.146.426 1.566.63.42.192.78.474 1.08.846.312.36.468.822.468 1.386 0 .516-.144.99-.432 1.422-.276.42-.696.756-1.26 1.008-.552.24-1.218.36-1.998.36a5.031 5.031 0 01-2.178-.468c-.66-.312-1.194-.696-1.602-1.152l1.44-1.53zm15.572 2.124c-.408.288-.942.534-1.602.738a7.777 7.777 0 01-2.178.288 4.701 4.701 0 01-2.358-.612 4.765 4.765 0 01-1.71-1.674 4.535 4.535 0 01-.612-2.304c0-.828.204-1.59.612-2.286a4.663 4.663 0 011.674-1.674 4.436 4.436 0 012.304-.63c.792 0 1.524.198 2.196.594a4.372 4.372 0 011.62 1.62c.396.672.594 1.404.594 2.196 0 .396-.03.756-.09 1.08h-6.39c.144.444.408.81.792 1.098.396.288.912.432 1.548.432a5.14 5.14 0 001.35-.162c.408-.12.738-.258.99-.414l1.26 1.71zm-1.98-4.464a2.28 2.28 0 00-.756-1.08c-.348-.3-.756-.45-1.224-.45-.468 0-.882.15-1.242.45a2.331 2.331 0 00-.738 1.08h3.96zm6.845-7.29V478h-2.43v-12.6h2.43zm1.627 3.96h1.35v-.9c0-1.02.264-1.812.792-2.376.54-.576 1.266-.864 2.178-.864h1.62v2.34h-.99c-.36 0-.648.114-.864.342-.204.216-.306.522-.306.918v.54h1.98v2.25h-1.98V478h-2.43v-6.39h-1.35v-2.25z" class="Primary"/>
    <circle cx="331" cy="458" r="12" fill="#F1F3F5" style="mix-blend-mode:multiply"/>
    <g class="Iconography/Glyphs/Small/X">
      <path fill="#25272E" fill-rule="evenodd" d="M332.934 461.065a.8.8 0 001.132-1.131l-1.935-1.935 1.935-1.934a.8.8 0 00-1.131-1.131L331 456.868l-1.934-1.934a.8.8 0 10-1.132 1.131l1.935 1.934-1.934 1.935a.799.799 0 101.131 1.131l1.934-1.934 1.934 1.934z" class="Vector" clip-rule="evenodd"/>
    </g>
    <g class="Field Label">
      <path fill="#25272E" d="M37.74 516.2l3.92 9.8h-1.61l-.98-2.52h-4.34l-.98 2.52h-1.61l3.92-9.8h1.68zm-.84 1.82l-1.61 4.06h3.22l-1.61-4.06zm6.653 8.75c.214.233.485.429.812.588.326.168.686.252 1.078.252.634 0 1.143-.196 1.526-.588.382-.392.574-.919.574-1.582v-.63a2.686 2.686 0 01-.882.742 2.632 2.632 0 01-1.288.308 2.797 2.797 0 01-1.498-.434 3.21 3.21 0 01-1.106-1.204 3.633 3.633 0 01-.406-1.722c0-.635.135-1.209.406-1.722a3.21 3.21 0 011.106-1.204 2.797 2.797 0 011.498-.434c.485 0 .914.103 1.288.308.373.205.667.453.882.742v-.91h1.4v6.16c0 .672-.15 1.274-.448 1.806a3.2 3.2 0 01-1.246 1.246c-.532.299-1.134.448-1.806.448a3.817 3.817 0 01-1.68-.364c-.495-.243-.892-.541-1.19-.896l.98-.91zm2.1-2.24c.345 0 .662-.084.952-.252.29-.177.518-.42.686-.728.168-.308.252-.658.252-1.05s-.084-.742-.252-1.05a1.805 1.805 0 00-.686-.714 1.79 1.79 0 00-.952-.266 1.79 1.79 0 00-.952.266c-.29.168-.518.406-.686.714a2.157 2.157 0 00-.252 1.05c0 .392.084.742.252 1.05.168.308.396.551.686.728.29.168.606.252.952.252zm11.2.518c-.28.308-.666.569-1.161.784-.495.205-1.064.308-1.708.308a3.533 3.533 0 01-1.778-.462 3.4 3.4 0 01-1.26-1.26 3.532 3.532 0 01-.462-1.778c0-.644.154-1.232.462-1.764a3.434 3.434 0 011.246-1.26 3.259 3.259 0 011.722-.476c.625 0 1.185.145 1.68.434.504.28.896.672 1.176 1.176.29.495.434 1.055.434 1.68 0 .261-.023.495-.07.7h-5.18c.075.467.308.863.7 1.19.392.327.858.49 1.4.49.392 0 .756-.07 1.092-.21.345-.149.635-.327.868-.532l.84.98zm-1.12-3.108c-.111-.467-.326-.84-.643-1.12-.308-.28-.7-.42-1.176-.42-.504 0-.92.14-1.246.42-.327.271-.565.644-.714 1.12h3.78z" class="Field form label"/>
    </g>
    <g class="Field Input (large)">
      <path fill="#fff" d="M32 554c0-6.627 5.373-12 12-12h79c6.627 0 12 5.373 12 12v24c0 6.627-5.373 12-12 12H44c-6.627 0-12-5.373-12-12v-24z" class="Rectangle 1144"/>
      <path fill="#F1F3F5" fill-rule="evenodd" d="M123 543H44c-6.075 0-11 4.925-11 11v24c0 6.075 4.925 11 11 11h79c6.075 0 11-4.925 11-11v-24c0-6.075-4.925-11-11-11zm-79-1c-6.627 0-12 5.373-12 12v24c0 6.627 5.373 12 12 12h79c6.627 0 12-5.373 12-12v-24c0-6.627-5.373-12-12-12H44z" clip-rule="evenodd" style="mix-blend-mode:multiply"/>
      <path fill="#25272E" d="M53.9 569.6c.333.44.793.82 1.38 1.14.6.307 1.273.46 2.02.46.88 0 1.567-.213 2.06-.64.493-.44.74-.993.74-1.66 0-.627-.253-1.147-.76-1.56-.493-.427-1.173-.64-2.04-.64h-1.5v-2.1h1.5c.733 0 1.3-.173 1.7-.52.4-.347.6-.807.6-1.38 0-.573-.2-1.033-.6-1.38-.4-.347-.967-.52-1.7-.52-.627 0-1.2.14-1.72.42-.52.267-.947.593-1.28.98l-1.5-1.5c.493-.533 1.127-.98 1.9-1.34.787-.373 1.653-.56 2.6-.56.907 0 1.7.167 2.38.5.68.333 1.2.787 1.56 1.36.373.56.56 1.173.56 1.84 0 .747-.207 1.387-.62 1.92-.4.533-.893.927-1.48 1.18a4.26 4.26 0 011.84 1.26c.507.573.76 1.287.76 2.14 0 .773-.207 1.48-.62 2.12-.4.64-.98 1.147-1.74 1.52s-1.64.56-2.64.56c-1.08 0-2.047-.2-2.9-.6-.84-.413-1.507-.913-2-1.5l1.5-1.5zm16.309 3.6c-1.08 0-2.06-.28-2.94-.84-.88-.573-1.58-1.4-2.1-2.48-.507-1.093-.76-2.387-.76-3.88 0-1.493.253-2.78.76-3.86.52-1.093 1.22-1.92 2.1-2.48.88-.573 1.86-.86 2.94-.86 1.08 0 2.06.287 2.94.86.88.56 1.573 1.387 2.08 2.48.52 1.08.78 2.367.78 3.86 0 1.493-.26 2.787-.78 3.88-.507 1.08-1.2 1.907-2.08 2.48-.88.56-1.86.84-2.94.84zm3.6-7.2c0-1.12-.167-2.067-.5-2.84-.32-.787-.754-1.373-1.3-1.76-.547-.4-1.147-.6-1.8-.6-.654 0-1.254.2-1.8.6-.547.387-.987.973-1.32 1.76-.32.773-.48 1.72-.48 2.84 0 1.12.16 2.073.48 2.86.333.773.773 1.36 1.32 1.76.546.387 1.146.58 1.8.58.653 0 1.253-.193 1.8-.58.546-.4.98-.987 1.3-1.76.333-.787.5-1.74.5-2.86z" class="Dollar value"/>
    </g>
    <g class="Check Field/Single">
      <g class="Iconography/Form elements/Checkbox/Default/Unselected">
        <path fill="#25272E" fill-rule="evenodd" d="M180 559h-2c-1.914 0-3.249.002-4.256.138-.978.131-1.496.372-1.865.741s-.61.887-.741 1.865c-.136 1.007-.138 2.342-.138 4.256v2c0 1.914.002 3.249.138 4.256.131.978.372 1.496.741 1.865s.887.61 1.865.741c1.007.136 2.342.138 4.256.138h2c1.914 0 3.249-.002 4.256-.138.978-.131 1.496-.372 1.865-.741s.61-.887.741-1.865c.136-1.007.138-2.342.138-4.256v-2c0-1.914-.002-3.249-.138-4.256-.131-.978-.372-1.496-.741-1.865s-.887-.61-1.865-.741c-1.007-.136-2.342-.138-4.256-.138zm-8.828.172C170 560.343 170 562.229 170 566v2c0 3.771 0 5.657 1.172 6.828C172.343 576 174.229 576 178 576h2c3.771 0 5.657 0 6.828-1.172C188 573.657 188 571.771 188 568v-2c0-3.771 0-5.657-1.172-6.828C185.657 558 183.771 558 180 558h-2c-3.771 0-5.657 0-6.828 1.172z" class="Rectangle (Stroke)" clip-rule="evenodd"/>
      </g>
      <path fill="#25272E" d="M201.72 567.6c0 .661.144 1.253.432 1.776a3.29 3.29 0 001.216 1.232 3.432 3.432 0 001.712.432c.629 0 1.2-.144 1.712-.432a3.172 3.172 0 001.2-1.232c.299-.523.448-1.115.448-1.776v-6.8h1.2v6.8a4.522 4.522 0 01-4.56 4.56 4.522 4.522 0 01-4.56-4.56v-6.8h1.2v6.8zm10.796 2.4c.214.309.496.576.848.8.352.213.736.32 1.152.32.544 0 .96-.117 1.248-.352.288-.245.432-.555.432-.928a.878.878 0 00-.448-.8c-.288-.181-.725-.357-1.312-.528-.522-.16-.944-.309-1.264-.448a2.314 2.314 0 01-.8-.64c-.224-.288-.336-.656-.336-1.104 0-.373.107-.725.32-1.056.224-.331.528-.597.912-.8a2.863 2.863 0 011.328-.304c.523 0 .998.101 1.424.304.438.203.79.448 1.056.736l-.8.8a1.963 1.963 0 00-.704-.56 1.974 1.974 0 00-.976-.24c-.426 0-.773.112-1.04.336-.266.224-.4.485-.4.784a.83.83 0 00.416.752c.278.16.71.325 1.296.496.523.16.944.315 1.264.464.331.149.608.373.832.672.235.288.352.667.352 1.136 0 .427-.112.816-.336 1.168-.224.352-.549.635-.976.848-.426.203-.922.304-1.488.304-.629 0-1.184-.128-1.664-.384-.48-.267-.858-.592-1.136-.976l.8-.8zm13.275.848c-.341.363-.789.672-1.344.928-.554.256-1.173.384-1.856.384a3.722 3.722 0 01-1.92-.528 4.103 4.103 0 01-1.408-1.456 4.05 4.05 0 01-.512-2.016c0-.725.171-1.392.512-2a3.969 3.969 0 011.392-1.456 3.42 3.42 0 011.856-.544c.683 0 1.307.165 1.872.496a3.502 3.502 0 011.328 1.376c.32.576.48 1.232.48 1.968 0 .203-.026.395-.08.576l-6.24-.016c.022.448.16.869.416 1.264a2.9 2.9 0 00.992.944c.406.235.843.352 1.312.352.534 0 1.014-.096 1.44-.288a3.294 3.294 0 001.04-.704l.72.72zm-.72-3.248c-.085-.693-.368-1.264-.848-1.712a2.356 2.356 0 00-1.712-.688c-.437 0-.848.112-1.232.336a2.803 2.803 0 00-.96.88 2.692 2.692 0 00-.448 1.184h5.2zm3.195 2.4c.214.309.496.576.848.8.352.213.736.32 1.152.32.544 0 .96-.117 1.248-.352.288-.245.432-.555.432-.928a.878.878 0 00-.448-.8c-.288-.181-.725-.357-1.312-.528-.522-.16-.944-.309-1.264-.448a2.314 2.314 0 01-.8-.64c-.224-.288-.336-.656-.336-1.104 0-.373.107-.725.32-1.056.224-.331.528-.597.912-.8a2.863 2.863 0 011.328-.304c.523 0 .998.101 1.424.304.438.203.79.448 1.056.736l-.8.8a1.963 1.963 0 00-.704-.56 1.974 1.974 0 00-.976-.24c-.426 0-.773.112-1.04.336-.266.224-.4.485-.4.784a.83.83 0 00.416.752c.278.16.71.325 1.296.496.523.16.944.315 1.264.464.331.149.608.373.832.672.235.288.352.667.352 1.136 0 .427-.112.816-.336 1.168-.224.352-.549.635-.976.848-.426.203-.922.304-1.488.304-.629 0-1.184-.128-1.664-.384-.48-.267-.858-.592-1.136-.976l.8-.8zm9.589-5.68h1.44v-2.56h1.12v2.56h2.08v1.04h-2.08v4.56c0 .384.085.656.256.816.181.149.443.224.784.224h1.04V572h-1.088c-.672 0-1.195-.171-1.568-.512-.363-.341-.544-.864-.544-1.568v-4.56h-1.44v-1.04zm9.769 7.84a3.81 3.81 0 01-1.968-.528 4.056 4.056 0 01-1.424-1.456 3.951 3.951 0 01-.528-2.016c0-.736.176-1.408.528-2.016a3.926 3.926 0 011.424-1.44 3.72 3.72 0 011.968-.544c.715 0 1.371.181 1.968.544a3.918 3.918 0 011.424 1.44c.352.608.528 1.28.528 2.016s-.176 1.408-.528 2.016a4.047 4.047 0 01-1.424 1.456 3.804 3.804 0 01-1.968.528zm0-1.04c.502 0 .966-.128 1.392-.384a2.992 2.992 0 001.408-2.576c0-.544-.128-1.04-.384-1.488a2.825 2.825 0 00-1.024-1.072 2.57 2.57 0 00-1.392-.4c-.501 0-.965.133-1.392.4a2.833 2.833 0 00-1.024 1.072 2.946 2.946 0 00-.384 1.488c0 .544.128 1.045.384 1.504a3 3 0 001.024 1.072c.427.256.891.384 1.392.384zm7.122-5.68c.266-.352.629-.651 1.088-.896a3.128 3.128 0 011.552-.384c.682 0 1.312.176 1.888.528a3.642 3.642 0 011.36 1.424c.341.608.512 1.291.512 2.048 0 .757-.171 1.44-.512 2.048a3.761 3.761 0 01-1.36 1.44 3.641 3.641 0 01-1.888.512 3.24 3.24 0 01-1.552-.368c-.459-.256-.822-.56-1.088-.912V572h-1.12v-11.2h1.12v4.64zm2.64 5.68c.48 0 .922-.123 1.328-.368a2.71 2.71 0 00.96-1.056c.234-.448.352-.96.352-1.536 0-.576-.118-1.088-.352-1.536a2.591 2.591 0 00-.96-1.04 2.44 2.44 0 00-1.328-.384c-.448 0-.88.133-1.296.4a2.786 2.786 0 00-.976 1.072 3.04 3.04 0 00-.368 1.488c0 .544.122 1.045.368 1.504.245.448.57.805.976 1.072a2.44 2.44 0 001.296.384zm10.393-.16c-.245.331-.581.613-1.008.848-.426.235-.917.352-1.472.352a3.01 3.01 0 01-1.392-.32 2.59 2.59 0 01-.976-.832c-.234-.352-.352-.715-.352-1.088 0-.651.192-1.184.576-1.6.395-.416.95-.656 1.664-.72l2.96-.256c0-.373-.085-.725-.256-1.056a1.885 1.885 0 00-.688-.784 1.652 1.652 0 00-.976-.304c-.448 0-.858.053-1.232.16-.373.107-.682.24-.928.4l-.72-.72c.32-.245.731-.453 1.232-.624a5.08 5.08 0 011.648-.256c.576 0 1.094.133 1.552.4.47.256.832.608 1.088 1.056.267.448.4.949.4 1.504V572h-1.12v-1.04zm-2.64-2.4c-.469.043-.826.187-1.072.432a1.26 1.26 0 00-.368.928c0 .341.139.629.416.864.288.224.683.336 1.184.336.747 0 1.344-.203 1.792-.608.459-.416.688-.992.688-1.728v-.48l-2.64.256zm12.324 2a4.611 4.611 0 01-1.392 1.136 3.654 3.654 0 01-1.808.464 3.717 3.717 0 01-1.92-.528 4.094 4.094 0 01-1.408-1.456 4.05 4.05 0 01-.512-2.016c0-.736.171-1.408.512-2.016a3.961 3.961 0 011.408-1.44 3.631 3.631 0 011.92-.544c.651 0 1.248.149 1.792.448a4.16 4.16 0 011.328 1.072l-.8.8a3.162 3.162 0 00-.976-.896 2.417 2.417 0 00-1.344-.384c-.48 0-.928.133-1.344.4a2.87 2.87 0 00-1.008 1.072 3.05 3.05 0 00-.368 1.488c0 .544.123 1.045.368 1.504.256.448.592.805 1.008 1.072.416.256.864.384 1.344.384.501 0 .96-.123 1.376-.368a3.7 3.7 0 001.024-.912l.8.72zm8.078 0a4.587 4.587 0 01-1.392 1.136 3.652 3.652 0 01-1.808.464 3.722 3.722 0 01-1.92-.528 4.103 4.103 0 01-1.408-1.456 4.05 4.05 0 01-.512-2.016c0-.736.171-1.408.512-2.016a3.97 3.97 0 011.408-1.44 3.637 3.637 0 011.92-.544c.651 0 1.248.149 1.792.448a4.16 4.16 0 011.328 1.072l-.8.8a3.15 3.15 0 00-.976-.896 2.412 2.412 0 00-1.344-.384c-.48 0-.928.133-1.344.4a2.87 2.87 0 00-1.008 1.072 3.05 3.05 0 00-.368 1.488c0 .544.123 1.045.368 1.504.256.448.592.805 1.008 1.072.416.256.864.384 1.344.384.502 0 .96-.123 1.376-.368.416-.256.758-.56 1.024-.912l.8.72zm4.958 1.6a3.81 3.81 0 01-1.968-.528 4.056 4.056 0 01-1.424-1.456 3.951 3.951 0 01-.528-2.016c0-.736.176-1.408.528-2.016a3.926 3.926 0 011.424-1.44 3.72 3.72 0 011.968-.544c.715 0 1.371.181 1.968.544a3.918 3.918 0 011.424 1.44c.352.608.528 1.28.528 2.016s-.176 1.408-.528 2.016a4.047 4.047 0 01-1.424 1.456 3.804 3.804 0 01-1.968.528zm0-1.04c.502 0 .966-.128 1.392-.384a2.992 2.992 0 001.408-2.576c0-.544-.128-1.04-.384-1.488a2.825 2.825 0 00-1.024-1.072 2.57 2.57 0 00-1.392-.4c-.501 0-.965.133-1.392.4a2.833 2.833 0 00-1.024 1.072 2.946 2.946 0 00-.384 1.488c0 .544.128 1.045.384 1.504a3 3 0 001.024 1.072c.427.256.891.384 1.392.384z" class="Uses tobacco"/>
    </g>
    <path fill="#25272E" d="M245.716 649.4l5.04 12.6h-2.07l-1.26-3.24h-5.58l-1.26 3.24h-2.07l5.04-12.6h2.16zm-1.08 2.34l-2.07 5.22h4.14l-2.07-5.22zm14.043 9c-.276.396-.672.738-1.188 1.026-.516.276-1.11.414-1.782.414-.72 0-1.392-.192-2.016-.576a4.38 4.38 0 01-1.476-1.62c-.372-.684-.558-1.452-.558-2.304 0-.852.186-1.62.558-2.304.372-.684.864-1.218 1.476-1.602a3.694 3.694 0 012.016-.594c.672 0 1.266.144 1.782.432.516.276.912.612 1.188 1.008v-5.22h1.8V662h-1.8v-1.26zm-2.61-.27c.48 0 .918-.12 1.314-.36s.708-.57.936-.99c.24-.432.36-.912.36-1.44 0-.528-.12-1.002-.36-1.422a2.533 2.533 0 00-.936-1.008 2.487 2.487 0 00-1.314-.36c-.48 0-.918.12-1.314.36s-.714.576-.954 1.008c-.228.42-.342.894-.342 1.422 0 .528.114 1.008.342 1.44.24.42.558.75.954.99.396.24.834.36 1.314.36zm13.509.27c-.276.396-.672.738-1.188 1.026-.516.276-1.11.414-1.782.414-.72 0-1.392-.192-2.016-.576a4.38 4.38 0 01-1.476-1.62c-.372-.684-.558-1.452-.558-2.304 0-.852.186-1.62.558-2.304.372-.684.864-1.218 1.476-1.602a3.694 3.694 0 012.016-.594c.672 0 1.266.144 1.782.432.516.276.912.612 1.188 1.008v-5.22h1.8V662h-1.8v-1.26zm-2.61-.27c.48 0 .918-.12 1.314-.36s.708-.57.936-.99c.24-.432.36-.912.36-1.44 0-.528-.12-1.002-.36-1.422a2.533 2.533 0 00-.936-1.008 2.487 2.487 0 00-1.314-.36c-.48 0-.918.12-1.314.36s-.714.576-.954 1.008c-.228.42-.342.894-.342 1.422 0 .528.114 1.008.342 1.44.24.42.558.75.954.99.396.24.834.36 1.314.36zm18.827-.09c-.384.504-.9.93-1.548 1.278-.636.348-1.35.522-2.142.522-.828 0-1.59-.198-2.286-.594a4.372 4.372 0 01-1.62-1.62 4.543 4.543 0 01-.594-2.286c0-.828.198-1.584.594-2.268a4.333 4.333 0 011.62-1.638 4.543 4.543 0 012.286-.594c.792 0 1.5.168 2.124.504.624.324 1.116.726 1.476 1.206l-1.26 1.17a3.225 3.225 0 00-.99-.828 2.656 2.656 0 00-1.35-.342c-.504 0-.966.12-1.386.36-.408.24-.732.576-.972 1.008-.228.42-.342.894-.342 1.422 0 .528.114 1.008.342 1.44.24.42.564.75.972.99.42.24.882.36 1.386.36.504 0 .966-.12 1.386-.36.42-.252.768-.552 1.044-.9l1.26 1.17zm3.591-5.76a3.5 3.5 0 011.116-1.008 2.961 2.961 0 011.584-.432c.66 0 1.248.156 1.764.468.516.3.918.738 1.206 1.314.3.564.45 1.23.45 1.998V662h-1.8v-5.04c0-.624-.186-1.122-.558-1.494-.36-.384-.834-.576-1.422-.576-.684 0-1.248.228-1.692.684-.432.444-.648 1.026-.648 1.746V662h-1.8v-12.6h1.8v5.22zm8.55-3.96c0-.3.108-.552.324-.756.228-.216.48-.324.756-.324s.522.108.738.324a.974.974 0 01.342.756c0 .3-.114.558-.342.774a1.046 1.046 0 01-.738.306c-.276 0-.528-.102-.756-.306a1.056 1.056 0 01-.324-.774zm1.98 2.7V662h-1.8v-8.64h1.8zm4.5-3.96V662h-1.8v-12.6h1.8zm9.09 11.34c-.276.396-.672.738-1.188 1.026-.516.276-1.11.414-1.782.414-.72 0-1.392-.192-2.016-.576a4.38 4.38 0 01-1.476-1.62c-.372-.684-.558-1.452-.558-2.304 0-.852.186-1.62.558-2.304.372-.684.864-1.218 1.476-1.602a3.694 3.694 0 012.016-.594c.672 0 1.266.144 1.782.432.516.276.912.612 1.188 1.008v-5.22h1.8V662h-1.8v-1.26zm-2.61-.27c.48 0 .918-.12 1.314-.36s.708-.57.936-.99c.24-.432.36-.912.36-1.44 0-.528-.12-1.002-.36-1.422a2.533 2.533 0 00-.936-1.008 2.487 2.487 0 00-1.314-.36c-.48 0-.918.12-1.314.36s-.714.576-.954 1.008c-.228.42-.342.894-.342 1.422 0 .528.114 1.008.342 1.44.24.42.558.75.954.99.396.24.834.36 1.314.36z" class="Add child"/>
    <path fill="#25272E" fill-rule="evenodd" d="M337 635H218c-11.598 0-21 9.402-21 21s9.402 21 21 21h119c11.598 0 21-9.402 21-21s-9.402-21-21-21zm-119-1c-12.15 0-22 9.85-22 22s9.85 22 22 22h119c12.15 0 22-9.85 22-22s-9.85-22-22-22H218z" class="Rectangle 1146 (Stroke)" clip-rule="evenodd"/>
    <path fill="#25272E" fill-rule="evenodd" d="M157 635H38c-11.598 0-21 9.402-21 21s9.402 21 21 21h119c11.598 0 21-9.402 21-21s-9.402-21-21-21zm-119-1c-12.15 0-22 9.85-22 22s9.85 22 22 22h119c12.15 0 22-9.85 22-22s-9.85-22-22-22H38z" class="Rectangle 1146 (Stroke)_2" clip-rule="evenodd"/>
    <path fill="#25272E" d="M56.41 649.4l5.04 12.6h-2.07l-1.26-3.24h-5.58L51.28 662h-2.07l5.04-12.6h2.16zm-1.08 2.34l-2.07 5.22h4.14l-2.07-5.22zm14.043 9c-.276.396-.672.738-1.188 1.026-.516.276-1.11.414-1.782.414-.72 0-1.392-.192-2.016-.576a4.38 4.38 0 01-1.476-1.62c-.372-.684-.558-1.452-.558-2.304 0-.852.186-1.62.558-2.304.372-.684.864-1.218 1.476-1.602a3.694 3.694 0 012.016-.594c.672 0 1.266.144 1.782.432.516.276.912.612 1.188 1.008v-5.22h1.8V662h-1.8v-1.26zm-2.61-.27c.48 0 .918-.12 1.314-.36s.708-.57.936-.99c.24-.432.36-.912.36-1.44 0-.528-.12-1.002-.36-1.422a2.533 2.533 0 00-.936-1.008 2.487 2.487 0 00-1.314-.36c-.48 0-.918.12-1.314.36s-.714.576-.954 1.008c-.228.42-.342.894-.342 1.422 0 .528.114 1.008.342 1.44.24.42.558.75.954.99.396.24.834.36 1.314.36zm13.508.27c-.276.396-.672.738-1.188 1.026-.516.276-1.11.414-1.782.414-.72 0-1.392-.192-2.016-.576a4.38 4.38 0 01-1.476-1.62c-.372-.684-.558-1.452-.558-2.304 0-.852.186-1.62.558-2.304.372-.684.864-1.218 1.476-1.602a3.694 3.694 0 012.016-.594c.672 0 1.266.144 1.782.432.516.276.912.612 1.188 1.008v-5.22h1.8V662h-1.8v-1.26zm-2.61-.27c.48 0 .918-.12 1.314-.36s.708-.57.936-.99c.24-.432.36-.912.36-1.44 0-.528-.12-1.002-.36-1.422a2.533 2.533 0 00-.936-1.008 2.487 2.487 0 00-1.314-.36c-.48 0-.918.12-1.314.36s-.714.576-.954 1.008c-.228.42-.342.894-.342 1.422 0 .528.114 1.008.342 1.44.24.42.558.75.954.99.396.24.834.36 1.314.36zm11.537-1.08c.264.324.594.6.99.828.396.228.816.342 1.26.342.468 0 .84-.108 1.116-.324.276-.216.414-.468.414-.756 0-.264-.132-.462-.396-.594-.252-.144-.672-.306-1.26-.486-.612-.18-1.116-.36-1.512-.54a2.897 2.897 0 01-1.008-.792c-.276-.348-.414-.804-.414-1.368 0-.456.126-.876.378-1.26s.618-.69 1.098-.918c.48-.228 1.038-.342 1.674-.342.672 0 1.272.114 1.8.342.54.228.96.504 1.26.828l-1.17 1.17a2.545 2.545 0 00-.828-.504 2.585 2.585 0 00-1.062-.216c-.42 0-.75.09-.99.27-.24.18-.36.39-.36.63 0 .264.126.468.378.612.264.132.69.288 1.278.468.612.18 1.11.36 1.494.54.396.18.732.444 1.008.792.288.348.432.804.432 1.368 0 .48-.138.93-.414 1.35-.264.408-.648.738-1.152.99-.504.24-1.092.36-1.764.36a4.265 4.265 0 01-1.998-.468c-.588-.312-1.062-.696-1.422-1.152l1.17-1.17zm9.262-4.77c.276-.396.672-.732 1.188-1.008.516-.288 1.11-.432 1.782-.432.72 0 1.386.198 1.998.594a4.185 4.185 0 011.494 1.602c.372.684.558 1.452.558 2.304 0 .852-.186 1.62-.558 2.304a4.325 4.325 0 01-1.494 1.62 3.688 3.688 0 01-1.998.576c-.672 0-1.266-.138-1.782-.414-.516-.288-.912-.63-1.188-1.026v5.04h-1.8v-12.42h1.8v1.26zm2.61 5.85c.48 0 .918-.12 1.314-.36s.708-.57.936-.99c.24-.432.36-.912.36-1.44 0-.528-.12-1.002-.36-1.422a2.533 2.533 0 00-.936-1.008 2.487 2.487 0 00-1.314-.36c-.48 0-.918.12-1.314.36s-.714.576-.954 1.008c-.228.42-.342.894-.342 1.422 0 .528.114 1.008.342 1.44.24.42.558.75.954.99.396.24.834.36 1.314.36zm5.843-2.79c0-.828.198-1.584.594-2.268a4.333 4.333 0 011.62-1.638 4.543 4.543 0 012.286-.594c.828 0 1.584.198 2.268.594a4.296 4.296 0 011.638 1.638c.396.684.594 1.44.594 2.268 0 .828-.198 1.59-.594 2.286a4.333 4.333 0 01-1.638 1.62 4.445 4.445 0 01-2.268.594c-.828 0-1.59-.198-2.286-.594a4.372 4.372 0 01-1.62-1.62 4.543 4.543 0 01-.594-2.286zm4.5 2.79c.504 0 .96-.12 1.368-.36.42-.24.744-.57.972-.99.24-.432.36-.912.36-1.44 0-.528-.12-1.002-.36-1.422a2.458 2.458 0 00-.972-1.008 2.648 2.648 0 00-1.368-.36c-.504 0-.966.12-1.386.36-.408.24-.732.576-.972 1.008-.228.42-.342.894-.342 1.422 0 .528.114 1.008.342 1.44.24.42.564.75.972.99.42.24.882.36 1.386.36zm8.282-2.07c0 .624.18 1.128.54 1.512.372.372.852.558 1.44.558.684 0 1.242-.222 1.674-.666.444-.456.666-1.044.666-1.764v-4.68h1.8V662h-1.8v-1.26a3.693 3.693 0 01-1.116 1.026 3.059 3.059 0 01-1.584.414c-.66 0-1.248-.15-1.764-.45a3.32 3.32 0 01-1.224-1.314c-.288-.576-.432-1.248-.432-2.016v-5.04h1.8v5.04zm9.001.99c.264.324.594.6.99.828.396.228.816.342 1.26.342.468 0 .84-.108 1.116-.324.276-.216.414-.468.414-.756 0-.264-.132-.462-.396-.594-.252-.144-.672-.306-1.26-.486-.612-.18-1.116-.36-1.512-.54a2.897 2.897 0 01-1.008-.792c-.276-.348-.414-.804-.414-1.368 0-.456.126-.876.378-1.26s.618-.69 1.098-.918c.48-.228 1.038-.342 1.674-.342.672 0 1.272.114 1.8.342.54.228.96.504 1.26.828l-1.17 1.17a2.545 2.545 0 00-.828-.504 2.585 2.585 0 00-1.062-.216c-.42 0-.75.09-.99.27-.24.18-.36.39-.36.63 0 .264.126.468.378.612.264.132.69.288 1.278.468.612.18 1.11.36 1.494.54.396.18.732.444 1.008.792.288.348.432.804.432 1.368 0 .48-.138.93-.414 1.35-.264.408-.648.738-1.152.99-.504.24-1.092.36-1.764.36a4.265 4.265 0 01-1.998-.468c-.588-.312-1.062-.696-1.422-1.152l1.17-1.17zm15.112 1.386c-.36.396-.858.732-1.494 1.008-.636.264-1.368.396-2.196.396-.828 0-1.59-.198-2.286-.594a4.372 4.372 0 01-1.62-1.62 4.543 4.543 0 01-.594-2.286c0-.828.198-1.584.594-2.268a4.414 4.414 0 011.602-1.62 4.185 4.185 0 012.214-.612c.804 0 1.524.186 2.16.558.648.36 1.152.864 1.512 1.512.372.636.558 1.356.558 2.16 0 .336-.03.636-.09.9h-6.66c.096.6.396 1.11.9 1.53.504.42 1.104.63 1.8.63.504 0 .972-.09 1.404-.27.444-.192.816-.42 1.116-.684l1.08 1.26zm-1.44-3.996c-.144-.6-.42-1.08-.828-1.44-.396-.36-.9-.54-1.512-.54-.648 0-1.182.18-1.602.54-.42.348-.726.828-.918 1.44h4.86z" class="Add spouse"/>
    <g class="Big Next Button">
      <g class="Ellipse 1" filter="url(#filter1_d)">
        <circle cx="331" cy="738" r="28" fill="#25272E"/>
      </g>
      <g class="Iconography/Glyphs/Large/Next">
        <path fill="#fff" d="M344.525 739.022c-.624.546-7.781 7.782-7.781 7.782-.887.775-2.275.146-2.275-1.032v-5.274h-14.548c-1.349 0-2.442-1.123-2.442-2.508 0-1.386 1.093-2.509 2.442-2.509h14.548v-5.273c0-1.178 1.388-1.808 2.275-1.032 0 0 7.157 7.235 7.781 7.782a1.37 1.37 0 010 2.064z" class="Vector_2"/>
      </g>
    </g>
    <g class="Battery">
      <path stroke="#000" d="M336.496 19.967c0-1.196.97-2.166 2.167-2.166h16.666c1.196 0 2.167.97 2.167 2.166v5.979a2.167 2.167 0 01-2.167 2.167h-16.666a2.167 2.167 0 01-2.167-2.167v-5.979z" class="Rectangle" opacity=".35"/>
      <path fill="#000" d="M358.995 20.96v3.993a2.165 2.165 0 000-3.992z" class="Combined Shape" opacity=".4"/>
      <path fill="#000" d="M337.996 20.63c0-.736.597-1.333 1.333-1.333h15.333c.737 0 1.334.597 1.334 1.333v4.653c0 .736-.597 1.333-1.334 1.333h-15.333a1.333 1.333 0 01-1.333-1.333V20.63z" class="Rectangle_2"/>
    </g>
    <path fill="#000" fill-rule="evenodd" d="M323.327 19.57c2.216 0 4.347.85 5.953 2.374.12.117.314.116.433-.004l1.156-1.164a.32.32 0 00-.003-.455c-4.215-4.032-10.864-4.032-15.079 0a.32.32 0 00-.003.455l1.156 1.164c.119.12.312.121.433.004a8.65 8.65 0 015.954-2.374zm0 3.788c1.217 0 2.391.452 3.294 1.268a.31.31 0 00.433-.006l1.155-1.165a.324.324 0 00-.005-.458 7.169 7.169 0 00-9.752 0 .32.32 0 00-.004.458l1.154 1.165a.31.31 0 00.433.006 4.912 4.912 0 013.292-1.268zm2.313 2.55a.32.32 0 01-.094.23l-1.998 2.011a.31.31 0 01-.443 0l-1.998-2.012a.315.315 0 01.01-.456 3.426 3.426 0 014.419 0c.065.058.102.14.104.226z" class="Wifi" clip-rule="evenodd"/>
    <path fill="#000" fill-rule="evenodd" d="M309.663 17.633h-1a1 1 0 00-1 .998v8.65a1 1 0 001 .998h1c.553 0 1-.447 1-.998v-8.65a.999.999 0 00-1-.998zm-5.666 2.329h1a1 1 0 011 .998v6.321a1 1 0 01-1 .998h-1a1 1 0 01-1-.998V20.96a1 1 0 011-.998zm-3.667 2.329h-1a1 1 0 00-1 .998v3.992a1 1 0 001 .998h1c.553 0 1-.447 1-.998V23.29a.999.999 0 00-1-.998zm-4.666 1.996h-1a1 1 0 00-1 .998v1.996a1 1 0 001 .998h1a1 1 0 001-.998v-1.996a1 1 0 00-1-.998z" class="Mobile Signal" clip-rule="evenodd"/>
    <path fill="#000" d="M33.842 20.539v.021h1.772v-.029c0-1.047.82-1.823 1.92-1.823 1.047 0 1.83.695 1.83 1.567 0 .79-.33 1.333-1.53 2.556l-3.89 3.867v1.275h7.427v-1.546h-4.907v-.036l2.615-2.586c1.384-1.399 2.13-2.35 2.13-3.61 0-1.715-1.508-3.004-3.617-3.004-2.19 0-3.75 1.4-3.75 3.348zm9.888 5.888a1.04 1.04 0 001.047-1.054 1.04 1.04 0 00-1.047-1.055c-.593 0-1.055.461-1.055 1.055 0 .593.462 1.054 1.055 1.054zm0-5.288c.586 0 1.047-.469 1.047-1.055a1.04 1.04 0 00-1.047-1.054c-.593 0-1.055.461-1.055 1.054 0 .586.462 1.055 1.055 1.055zm6.49 7.046c2.585 0 4.123-2.131 4.123-5.515s-1.553-5.479-4.124-5.479c-2.578 0-4.138 2.11-4.138 5.486 0 3.391 1.545 5.508 4.138 5.508zm0-1.545c-1.407 0-2.235-1.48-2.235-3.97 0-2.446.843-3.933 2.234-3.933 1.385 0 2.212 1.472 2.212 3.94 0 2.49-.813 3.963-2.212 3.963zm5.53 1.333h1.977l4.519-8.994v-1.575h-7.354v1.545h5.494v.037l-4.637 8.987z" class="9:41"/>
    <g class=".Navigation primitives/L1–2/Native/Nav bar (black)">
      <g class="Right">
        <g class="Navigation UI/Secondary/Native/Help">
          <g class="Vector_3">
            <path fill="#25272E" d="M351 75.5a9.5 9.5 0 009.5-9.5 9.5 9.5 0 00-9.5-9.5 9.5 9.5 0 00-9.5 9.5 9.5 9.5 0 009.5 9.5zm0 1.5c-6.075 0-11-4.925-11-11s4.925-11 11-11 11 4.925 11 11-4.925 11-11 11z"/>
            <path fill="#25272E" d="M349.81 67.573c0-2.03 2.38-2.03 2.38-3.52a1.136 1.136 0 00-.807-1.008 1.14 1.14 0 00-.453-.042 1.719 1.719 0 00-1.68 1.15l-1.75-.77a3.56 3.56 0 013.5-2.38c2.07 0 3.36 1.32 3.36 2.79 0 2.59-2.52 2.59-2.52 4.41h-1.89a2.067 2.067 0 01-.14-.63zm-.14 2.52a1.085 1.085 0 01.33-.782 1.083 1.083 0 01.79-.308 1.119 1.119 0 11-1.12 1.09z"/>
          </g>
        </g>
      </g>
      <g class="Left">
        <g class="Navigation UI/Secondary/Native/Back">
          <path fill="#25272E" fill-rule="evenodd" d="M27.002 57.36l-8.157 7.831c-.46.44-.46 1.176 0 1.619l8.157 7.83a1.292 1.292 0 101.79-1.865l-6.832-6.559a.299.299 0 010-.433l6.833-6.56a1.293 1.293 0 00-1.79-1.864z" class="Back" clip-rule="evenodd"/>
        </g>
      </g>
    </g>
    <g class="Explorer Step Dot/Complete">
      <circle cx="141.5" cy="63.5" r="2.5" fill="#03948C" class="Dot"/>
    </g>
    <g class="Explorer Step Dot/Current">
      <circle cx="154.5" cy="63.5" r="4" fill="#03948C" class="Grande Dot"/>
    </g>
    <g class="Explorer Step Dot/Upcoming">
      <circle cx="167.5" cy="63.5" r="2.5" fill="#CEE1E5" class="Dot_2"/>
    </g>
    <g class="Explorer Step Dot/Upcoming_2">
      <circle cx="180.5" cy="63.5" r="2.5" fill="#CEE1E5" class="Dot_3"/>
    </g>
    <g class="Explorer Step Dot/Upcoming_3">
      <circle cx="193.5" cy="63.5" r="2.5" fill="#CEE1E5" class="Dot_4"/>
    </g>
    <g class="Explorer Step Dot/Upcoming_4">
      <circle cx="206.5" cy="63.5" r="2.5" fill="#CEE1E5" class="Dot_5"/>
    </g>
    <g class="Explorer Step Dot/Upcoming_5">
      <circle cx="219.5" cy="63.5" r="2.5" fill="#CEE1E5" class="Dot_6"/>
    </g>
    <g class="Explorer Step Dot/Upcoming_6">
      <circle cx="232.5" cy="63.5" r="2.5" fill="#CEE1E5" class="Dot_7"/>
    </g>
    <g class="UI Bars / Home Indicator / Home Indicator - On Light">
      <path fill="#000" fill-rule="evenodd" d="M121 800.5a2.5 2.5 0 012.5-2.5h129a2.5 2.5 0 110 5h-129a2.5 2.5 0 01-2.5-2.5z" class="Rectangle_3" clip-rule="evenodd"/>
    </g>
  </g>
  <defs>
    <filter id="filter0_d" width="511" height="348" x="-68" y="346" class="filter0_d" color-interpolation-filters="sRGB" filterUnits="userSpaceOnUse">
      <feFlood flood-opacity="0" result="BackgroundImageFix"/>
      <feColorMatrix in="SourceAlpha" values="0 0 0 0 0 0 0 0 0 0 0 0 0 0 0 0 0 0 127 0"/>
      <feMorphology in="SourceAlpha" operator="dilate" radius="4" result="effect1_dropShadow"/>
      <feOffset/>
      <feGaussianBlur stdDeviation="40"/>
      <feColorMatrix values="0 0 0 0 0.4056 0 0 0 0 0.500104 0 0 0 0 0.52 0 0 0 0.04 0"/>
      <feBlend in2="BackgroundImageFix" mode="multiply" result="effect1_dropShadow"/>
      <feBlend in="SourceGraphic" in2="effect1_dropShadow" result="shape"/>
    </filter>
    <filter id="filter1_d" width="88" height="88" x="287" y="694" class="filter1_d" color-interpolation-filters="sRGB" filterUnits="userSpaceOnUse">
      <feFlood flood-opacity="0" result="BackgroundImageFix"/>
      <feColorMatrix in="SourceAlpha" values="0 0 0 0 0 0 0 0 0 0 0 0 0 0 0 0 0 0 127 0"/>
      <feOffset/>
      <feGaussianBlur stdDeviation="8"/>
      <feColorMatrix values="0 0 0 0 0.121569 0 0 0 0 0.145098 0 0 0 0 0.2 0 0 0 0.08 0"/>
      <feBlend in2="BackgroundImageFix" mode="multiply" result="effect1_dropShadow"/>
      <feBlend in="SourceGraphic" in2="effect1_dropShadow" result="shape"/>
    </filter>
    <linearGradient id="paint0_linear" x1="111.5" x2="301.652" y1="110.676" y2="779.548" class="paint0_linear" gradientUnits="userSpaceOnUse">
      <stop stop-color="#E4F0F0" stop-opacity="0"/>
      <stop offset="1" stop-color="#E4F0F0"/>
    </linearGradient>
    <clipPath id="clip0" class="clip0">
      <path fill="#fff" d="M0 0h375v812H0z"/>
    </clipPath>
  </defs>
</svg>
