<svg width="375" height="812" viewBox="0 0 375 812" fill="none" xmlns="http://www.w3.org/2000/svg">
<g clip-path="url(#clip0)">
<rect width="375" height="812" fill="white"/>
<rect y="88" width="375" height="724" fill="url(#paint0_linear)"/>
<path d="M19.4 376L22.3 385.4H22.4L25.3 376H28.1L31 385.4H31.1L34 376H37.1L32.5 390H29.6L26.76 380.9H26.64L23.8 390H20.9L16.3 376H19.4ZM41.1156 381.6H41.2156C41.5223 381.16 41.9223 380.787 42.4156 380.48C42.9223 380.16 43.489 380 44.1156 380C44.7823 380 45.389 380.173 45.9356 380.52C46.4823 380.853 46.9156 381.333 47.2356 381.96C47.5556 382.573 47.7156 383.287 47.7156 384.1V390H45.0156V384.5C45.0156 383.9 44.8556 383.433 44.5356 383.1C44.2156 382.767 43.7756 382.6 43.2156 382.6C42.6156 382.6 42.1156 382.807 41.7156 383.22C41.3156 383.633 41.1156 384.16 41.1156 384.8V390H38.4156V376H41.1156V381.6ZM49.7078 385.1C49.7078 384.18 49.9345 383.333 50.3878 382.56C50.8545 381.773 51.4878 381.153 52.2878 380.7C53.0878 380.233 53.9611 380 54.9078 380C55.8545 380 56.7278 380.233 57.5278 380.7C58.3278 381.153 58.9545 381.773 59.4078 382.56C59.8745 383.333 60.1078 384.18 60.1078 385.1C60.1078 386.02 59.8745 386.873 59.4078 387.66C58.9545 388.433 58.3278 389.053 57.5278 389.52C56.7278 389.973 55.8545 390.2 54.9078 390.2C53.9611 390.2 53.0878 389.973 52.2878 389.52C51.4878 389.053 50.8545 388.433 50.3878 387.66C49.9345 386.873 49.7078 386.02 49.7078 385.1ZM54.9078 387.7C55.6145 387.7 56.2078 387.453 56.6878 386.96C57.1678 386.467 57.4078 385.847 57.4078 385.1C57.4078 384.353 57.1678 383.733 56.6878 383.24C56.2078 382.747 55.6145 382.5 54.9078 382.5C54.2011 382.5 53.6078 382.747 53.1278 383.24C52.6478 383.733 52.4078 384.353 52.4078 385.1C52.4078 385.847 52.6478 386.467 53.1278 386.96C53.6078 387.453 54.2011 387.7 54.9078 387.7ZM69.4141 381.6H69.5141C69.8207 381.16 70.2207 380.787 70.7141 380.48C71.2207 380.16 71.7874 380 72.4141 380C73.0807 380 73.6874 380.173 74.2341 380.52C74.7807 380.853 75.2141 381.333 75.5341 381.96C75.8541 382.573 76.0141 383.287 76.0141 384.1V390H73.3141V384.5C73.3141 383.9 73.1541 383.433 72.8341 383.1C72.5141 382.767 72.0741 382.6 71.5141 382.6C70.9141 382.6 70.4141 382.807 70.0141 383.22C69.6141 383.633 69.4141 384.16 69.4141 384.8V390H66.7141V380.2H69.4141V381.6ZM87.4086 389.06C86.9553 389.38 86.3619 389.653 85.6286 389.88C84.8953 390.093 84.0886 390.2 83.2086 390.2C82.2619 390.2 81.3886 389.973 80.5886 389.52C79.7886 389.053 79.1553 388.433 78.6886 387.66C78.2353 386.873 78.0086 386.02 78.0086 385.1C78.0086 384.18 78.2353 383.333 78.6886 382.56C79.1553 381.773 79.7753 381.153 80.5486 380.7C81.3353 380.233 82.1886 380 83.1086 380C83.9886 380 84.8019 380.22 85.5486 380.66C86.3086 381.1 86.9086 381.7 87.3486 382.46C87.7886 383.207 88.0086 384.02 88.0086 384.9C88.0086 385.34 87.9753 385.74 87.9086 386.1H80.8086C80.9686 386.593 81.2619 387 81.6886 387.32C82.1286 387.64 82.7019 387.8 83.4086 387.8C83.9686 387.8 84.4686 387.74 84.9086 387.62C85.3619 387.487 85.7286 387.333 86.0086 387.16L87.4086 389.06ZM85.2086 384.1C85.0486 383.62 84.7686 383.22 84.3686 382.9C83.9819 382.567 83.5286 382.4 83.0086 382.4C82.4886 382.4 82.0286 382.567 81.6286 382.9C81.2419 383.22 80.9686 383.62 80.8086 384.1H85.2086ZM98.8148 389.06C98.3615 389.38 97.7682 389.653 97.0348 389.88C96.3015 390.093 95.4948 390.2 94.6148 390.2C93.6682 390.2 92.7948 389.973 91.9948 389.52C91.1948 389.053 90.5615 388.433 90.0948 387.66C89.6415 386.873 89.4148 386.02 89.4148 385.1C89.4148 384.18 89.6415 383.333 90.0948 382.56C90.5615 381.773 91.1815 381.153 91.9548 380.7C92.7415 380.233 93.5948 380 94.5148 380C95.3948 380 96.2082 380.22 96.9548 380.66C97.7148 381.1 98.3148 381.7 98.7548 382.46C99.1948 383.207 99.4148 384.02 99.4148 384.9C99.4148 385.34 99.3815 385.74 99.3148 386.1H92.2148C92.3748 386.593 92.6682 387 93.0948 387.32C93.5348 387.64 94.1082 387.8 94.8148 387.8C95.3748 387.8 95.8748 387.74 96.3148 387.62C96.7682 387.487 97.1348 387.333 97.4148 387.16L98.8148 389.06ZM96.6148 384.1C96.4548 383.62 96.1748 383.22 95.7748 382.9C95.3882 382.567 94.9348 382.4 94.4148 382.4C93.8948 382.4 93.4348 382.567 93.0348 382.9C92.6482 383.22 92.3748 383.62 92.2148 384.1H96.6148ZM108.321 388.6C108.014 389.04 107.594 389.42 107.061 389.74C106.528 390.047 105.914 390.2 105.221 390.2C104.448 390.2 103.721 389.98 103.041 389.54C102.374 389.1 101.834 388.493 101.421 387.72C101.021 386.947 100.821 386.073 100.821 385.1C100.821 384.127 101.021 383.253 101.421 382.48C101.834 381.707 102.374 381.1 103.041 380.66C103.721 380.22 104.448 380 105.221 380C105.914 380 106.528 380.16 107.061 380.48C107.594 380.787 108.014 381.16 108.321 381.6H108.421V376H111.121V390H108.421V388.6H108.321ZM106.021 387.7C106.728 387.7 107.321 387.453 107.801 386.96C108.281 386.467 108.521 385.847 108.521 385.1C108.521 384.353 108.281 383.733 107.801 383.24C107.321 382.747 106.728 382.5 106.021 382.5C105.314 382.5 104.721 382.747 104.241 383.24C103.761 383.733 103.521 384.353 103.521 385.1C103.521 385.847 103.761 386.467 104.241 386.96C104.721 387.453 105.314 387.7 106.021 387.7ZM114.423 386.7C114.73 387.007 115.11 387.267 115.563 387.48C116.017 387.693 116.503 387.8 117.023 387.8C117.823 387.8 118.223 387.567 118.223 387.1C118.223 386.913 118.097 386.76 117.843 386.64C117.603 386.507 117.217 386.353 116.683 386.18C115.99 385.94 115.41 385.713 114.943 385.5C114.477 385.273 114.07 384.96 113.723 384.56C113.39 384.147 113.223 383.627 113.223 383C113.223 382.453 113.377 381.953 113.683 381.5C113.99 381.047 114.437 380.687 115.023 380.42C115.623 380.14 116.323 380 117.123 380C117.937 380 118.67 380.147 119.323 380.44C119.99 380.733 120.523 381.087 120.923 381.5L119.323 383.2C119.083 382.973 118.77 382.787 118.383 382.64C117.997 382.48 117.577 382.4 117.123 382.4C116.79 382.4 116.537 382.46 116.363 382.58C116.203 382.7 116.123 382.84 116.123 383C116.123 383.187 116.243 383.347 116.483 383.48C116.737 383.6 117.13 383.747 117.663 383.92C118.357 384.16 118.937 384.393 119.403 384.62C119.87 384.833 120.27 385.147 120.603 385.56C120.95 385.96 121.123 386.473 121.123 387.1C121.123 387.673 120.963 388.2 120.643 388.68C120.337 389.147 119.87 389.52 119.243 389.8C118.63 390.067 117.89 390.2 117.023 390.2C116.143 390.2 115.337 390.027 114.603 389.68C113.87 389.333 113.277 388.907 112.823 388.4L114.423 386.7ZM136.234 388.2C135.834 388.76 135.281 389.233 134.574 389.62C133.868 390.007 133.054 390.2 132.134 390.2C131.188 390.2 130.314 389.973 129.514 389.52C128.714 389.053 128.081 388.433 127.614 387.66C127.161 386.873 126.934 386.02 126.934 385.1C126.934 384.18 127.161 383.333 127.614 382.56C128.081 381.773 128.714 381.153 129.514 380.7C130.314 380.233 131.188 380 132.134 380C133.054 380 133.868 380.193 134.574 380.58C135.281 380.967 135.834 381.44 136.234 382L134.534 383.7C134.268 383.367 133.921 383.087 133.494 382.86C133.081 382.62 132.628 382.5 132.134 382.5C131.428 382.5 130.834 382.747 130.354 383.24C129.874 383.733 129.634 384.353 129.634 385.1C129.634 385.847 129.874 386.467 130.354 386.96C130.834 387.453 131.428 387.7 132.134 387.7C132.628 387.7 133.081 387.587 133.494 387.36C133.921 387.12 134.268 386.833 134.534 386.5L136.234 388.2ZM137.13 385.1C137.13 384.18 137.356 383.333 137.81 382.56C138.276 381.773 138.91 381.153 139.71 380.7C140.51 380.233 141.383 380 142.33 380C143.276 380 144.15 380.233 144.95 380.7C145.75 381.153 146.376 381.773 146.83 382.56C147.296 383.333 147.53 384.18 147.53 385.1C147.53 386.02 147.296 386.873 146.83 387.66C146.376 388.433 145.75 389.053 144.95 389.52C144.15 389.973 143.276 390.2 142.33 390.2C141.383 390.2 140.51 389.973 139.71 389.52C138.91 389.053 138.276 388.433 137.81 387.66C137.356 386.873 137.13 386.02 137.13 385.1ZM142.33 387.7C143.036 387.7 143.63 387.453 144.11 386.96C144.59 386.467 144.83 385.847 144.83 385.1C144.83 384.353 144.59 383.733 144.11 383.24C143.63 382.747 143.036 382.5 142.33 382.5C141.623 382.5 141.03 382.747 140.55 383.24C140.07 383.733 139.83 384.353 139.83 385.1C139.83 385.847 140.07 386.467 140.55 386.96C141.03 387.453 141.623 387.7 142.33 387.7ZM151.027 380.2L153.287 386.8H153.367L155.627 380.2H158.527L154.827 390H151.827L148.127 380.2H151.027ZM168.522 389.06C168.069 389.38 167.475 389.653 166.742 389.88C166.009 390.093 165.202 390.2 164.322 390.2C163.375 390.2 162.502 389.973 161.702 389.52C160.902 389.053 160.269 388.433 159.802 387.66C159.349 386.873 159.122 386.02 159.122 385.1C159.122 384.18 159.349 383.333 159.802 382.56C160.269 381.773 160.889 381.153 161.662 380.7C162.449 380.233 163.302 380 164.222 380C165.102 380 165.915 380.22 166.662 380.66C167.422 381.1 168.022 381.7 168.462 382.46C168.902 383.207 169.122 384.02 169.122 384.9C169.122 385.34 169.089 385.74 169.022 386.1H161.922C162.082 386.593 162.375 387 162.802 387.32C163.242 387.64 163.815 387.8 164.522 387.8C165.082 387.8 165.582 387.74 166.022 387.62C166.475 387.487 166.842 387.333 167.122 387.16L168.522 389.06ZM166.322 384.1C166.162 383.62 165.882 383.22 165.482 382.9C165.095 382.567 164.642 382.4 164.122 382.4C163.602 382.4 163.142 382.567 162.742 382.9C162.355 383.22 162.082 383.62 161.922 384.1H166.322ZM173.828 381.3H173.928C174.115 380.993 174.415 380.733 174.828 380.52C175.241 380.307 175.761 380.2 176.388 380.2H177.028V382.8H176.128C175.461 382.8 174.908 383.04 174.468 383.52C174.041 383.987 173.828 384.613 173.828 385.4V390H171.128V380.2H173.828V381.3ZM184.126 388.8C183.819 389.187 183.412 389.52 182.906 389.8C182.412 390.067 181.852 390.2 181.226 390.2C180.332 390.2 179.606 389.94 179.046 389.42C178.499 388.887 178.226 388.213 178.226 387.4C178.226 386.573 178.486 385.867 179.006 385.28C179.539 384.693 180.246 384.353 181.126 384.26L184.226 383.96C184.172 383.56 183.992 383.2 183.686 382.88C183.379 382.56 182.992 382.4 182.526 382.4C182.072 382.4 181.652 382.453 181.266 382.56C180.879 382.653 180.566 382.767 180.326 382.9L178.726 381.3C179.152 380.94 179.712 380.633 180.406 380.38C181.099 380.127 181.872 380 182.726 380C183.539 380 184.266 380.173 184.906 380.52C185.546 380.853 186.039 381.32 186.386 381.92C186.746 382.507 186.926 383.167 186.926 383.9V390H184.226V388.8H184.126ZM182.026 385.94C181.692 385.953 181.426 386.067 181.226 386.28C181.026 386.493 180.926 386.733 180.926 387C180.926 387.307 181.026 387.553 181.226 387.74C181.439 387.913 181.739 388 182.126 388C182.752 388 183.259 387.833 183.646 387.5C184.032 387.167 184.226 386.687 184.226 386.06V385.86L182.026 385.94ZM190.734 390.84C191.04 391.08 191.42 391.28 191.874 391.44C192.327 391.613 192.814 391.7 193.334 391.7C194.094 391.7 194.714 391.447 195.194 390.94C195.687 390.447 195.934 389.8 195.934 389V388.2H195.834C195.554 388.64 195.154 389.02 194.634 389.34C194.127 389.647 193.527 389.8 192.834 389.8C192.1 389.8 191.407 389.593 190.754 389.18C190.114 388.753 189.6 388.167 189.214 387.42C188.827 386.673 188.634 385.833 188.634 384.9C188.634 383.967 188.827 383.127 189.214 382.38C189.6 381.633 190.114 381.053 190.754 380.64C191.407 380.213 192.1 380 192.834 380C193.527 380 194.127 380.16 194.634 380.48C195.154 380.787 195.554 381.16 195.834 381.6H195.934V380.2H198.634V389C198.634 389.987 198.407 390.873 197.954 391.66C197.5 392.46 196.867 393.08 196.054 393.52C195.254 393.973 194.347 394.2 193.334 394.2C192.387 394.2 191.54 394.04 190.794 393.72C190.047 393.4 189.46 393.007 189.034 392.54L190.734 390.84ZM193.634 387.3C194.287 387.3 194.834 387.073 195.274 386.62C195.714 386.167 195.934 385.593 195.934 384.9C195.934 384.207 195.714 383.633 195.274 383.18C194.834 382.727 194.287 382.5 193.634 382.5C192.98 382.5 192.434 382.727 191.994 383.18C191.554 383.633 191.334 384.207 191.334 384.9C191.334 385.593 191.554 386.167 191.994 386.62C192.434 387.073 192.98 387.3 193.634 387.3ZM210.026 389.06C209.572 389.38 208.979 389.653 208.246 389.88C207.512 390.093 206.706 390.2 205.826 390.2C204.879 390.2 204.006 389.973 203.206 389.52C202.406 389.053 201.772 388.433 201.306 387.66C200.852 386.873 200.626 386.02 200.626 385.1C200.626 384.18 200.852 383.333 201.306 382.56C201.772 381.773 202.392 381.153 203.166 380.7C203.952 380.233 204.806 380 205.726 380C206.606 380 207.419 380.22 208.166 380.66C208.926 381.1 209.526 381.7 209.966 382.46C210.406 383.207 210.626 384.02 210.626 384.9C210.626 385.34 210.592 385.74 210.526 386.1H203.426C203.586 386.593 203.879 387 204.306 387.32C204.746 387.64 205.319 387.8 206.026 387.8C206.586 387.8 207.086 387.74 207.526 387.62C207.979 387.487 208.346 387.333 208.626 387.16L210.026 389.06ZM207.826 384.1C207.666 383.62 207.386 383.22 206.986 382.9C206.599 382.567 206.146 382.4 205.626 382.4C205.106 382.4 204.646 382.567 204.246 382.9C203.859 383.22 203.586 383.62 203.426 384.1H207.826ZM215.132 385.7C214.999 385.42 214.932 385.12 214.932 384.8C214.932 384.133 215.112 383.587 215.472 383.16C215.832 382.72 216.345 382.267 217.012 381.8C217.505 381.453 217.865 381.16 218.092 380.92C218.319 380.68 218.432 380.407 218.432 380.1C218.432 379.727 218.265 379.4 217.932 379.12C217.599 378.84 217.165 378.7 216.632 378.7C216.045 378.7 215.539 378.86 215.112 379.18C214.685 379.487 214.359 379.86 214.132 380.3L211.532 379.1C211.892 378.18 212.505 377.4 213.372 376.76C214.239 376.12 215.325 375.8 216.632 375.8C217.632 375.8 218.512 375.987 219.272 376.36C220.032 376.733 220.612 377.233 221.012 377.86C221.425 378.487 221.632 379.167 221.632 379.9C221.632 380.473 221.525 380.973 221.312 381.4C221.112 381.813 220.865 382.16 220.572 382.44C220.279 382.707 219.899 383.013 219.432 383.36C218.859 383.773 218.432 384.147 218.152 384.48C217.872 384.8 217.732 385.207 217.732 385.7H215.132ZM214.732 388.6C214.732 388.147 214.885 387.767 215.192 387.46C215.499 387.153 215.879 387 216.332 387C216.785 387 217.165 387.153 217.472 387.46C217.779 387.767 217.932 388.147 217.932 388.6C217.932 389.053 217.779 389.433 217.472 389.74C217.165 390.047 216.785 390.2 216.332 390.2C215.879 390.2 215.499 390.047 215.192 389.74C214.885 389.433 214.732 389.053 214.732 388.6Z" fill="#25272E"/>
<g filter="url(#filter0_d)">
<rect x="16" y="430" width="343" height="180" rx="24" fill="white"/>
<circle cx="52" cy="470" r="20" fill="#E4F0F0"/>
<path d="M38.4805 484.739C40.6418 479.682 45.1627 476.25 51.9993 476.25C58.8368 476.25 63.358 479.682 65.5194 484.739C61.9595 488.006 57.2126 490 52 490C46.7873 490 42.0403 488.006 38.4805 484.739Z" fill="#678085"/>
<path d="M59.5 465C59.5 469.142 56.1425 472.5 52.0006 472.5C47.8576 472.5 44.5 469.142 44.5 465C44.5 460.858 47.8576 457.5 52.0006 457.5C56.1425 457.5 59.5 460.858 59.5 465Z" fill="#678085"/>
<path d="M92.05 465.4L96.37 470.8L100.69 465.4H103.12V478H100.42V469.72L96.37 474.76L92.32 469.72V478H89.62V465.4H92.05ZM106.354 479.44C107.086 479.44 107.596 479.08 107.884 478.36L108.064 477.91L104.644 469.18H107.254L109.324 475.03H109.414L111.394 469.18H114.004L110.404 478.72C110.02 479.74 109.552 480.502 109 481.006C108.448 481.522 107.776 481.78 106.984 481.78H105.364V479.44H106.354ZM115.62 475.03C115.896 475.306 116.238 475.54 116.646 475.732C117.054 475.924 117.492 476.02 117.96 476.02C118.68 476.02 119.04 475.81 119.04 475.39C119.04 475.222 118.926 475.084 118.698 474.976C118.482 474.856 118.134 474.718 117.654 474.562C117.03 474.346 116.508 474.142 116.088 473.95C115.668 473.746 115.302 473.464 114.99 473.104C114.69 472.732 114.54 472.264 114.54 471.7C114.54 471.208 114.678 470.758 114.954 470.35C115.23 469.942 115.632 469.618 116.16 469.378C116.7 469.126 117.33 469 118.05 469C118.782 469 119.442 469.132 120.03 469.396C120.63 469.66 121.11 469.978 121.47 470.35L120.03 471.88C119.814 471.676 119.532 471.508 119.184 471.376C118.836 471.232 118.458 471.16 118.05 471.16C117.75 471.16 117.522 471.214 117.366 471.322C117.222 471.43 117.15 471.556 117.15 471.7C117.15 471.868 117.258 472.012 117.474 472.132C117.702 472.24 118.056 472.372 118.536 472.528C119.16 472.744 119.682 472.954 120.102 473.158C120.522 473.35 120.882 473.632 121.182 474.004C121.494 474.364 121.65 474.826 121.65 475.39C121.65 475.906 121.506 476.38 121.218 476.812C120.942 477.232 120.522 477.568 119.958 477.82C119.406 478.06 118.74 478.18 117.96 478.18C117.168 478.18 116.442 478.024 115.782 477.712C115.122 477.4 114.588 477.016 114.18 476.56L115.62 475.03ZM131.192 477.154C130.784 477.442 130.25 477.688 129.59 477.892C128.93 478.084 128.204 478.18 127.412 478.18C126.56 478.18 125.774 477.976 125.054 477.568C124.334 477.148 123.764 476.59 123.344 475.894C122.936 475.186 122.732 474.418 122.732 473.59C122.732 472.762 122.936 472 123.344 471.304C123.764 470.596 124.322 470.038 125.018 469.63C125.726 469.21 126.494 469 127.322 469C128.114 469 128.846 469.198 129.518 469.594C130.202 469.99 130.742 470.53 131.138 471.214C131.534 471.886 131.732 472.618 131.732 473.41C131.732 473.806 131.702 474.166 131.642 474.49H125.252C125.396 474.934 125.66 475.3 126.044 475.588C126.44 475.876 126.956 476.02 127.592 476.02C128.096 476.02 128.546 475.966 128.942 475.858C129.35 475.738 129.68 475.6 129.932 475.444L131.192 477.154ZM129.212 472.69C129.068 472.258 128.816 471.898 128.456 471.61C128.108 471.31 127.7 471.16 127.232 471.16C126.764 471.16 126.35 471.31 125.99 471.61C125.642 471.898 125.396 472.258 125.252 472.69H129.212ZM136.057 465.4V478H133.627V465.4H136.057ZM137.684 469.36H139.034V468.46C139.034 467.44 139.298 466.648 139.826 466.084C140.366 465.508 141.092 465.22 142.004 465.22H143.624V467.56H142.634C142.274 467.56 141.986 467.674 141.77 467.902C141.566 468.118 141.464 468.424 141.464 468.82V469.36H143.444V471.61H141.464V478H139.034V471.61H137.684V469.36Z" fill="#25272E"/>
<circle cx="331" cy="458" r="12" fill="#F1F3F5" style="mix-blend-mode:multiply"/>
<path fill-rule="evenodd" clip-rule="evenodd" d="M332.934 461.065C333.246 461.377 333.752 461.377 334.065 461.065C334.377 460.752 334.377 460.246 334.065 459.934L332.131 457.999L334.065 456.065C334.378 455.752 334.378 455.246 334.065 454.934C333.753 454.621 333.246 454.621 332.934 454.934L330.999 456.868L329.065 454.934C328.752 454.621 328.246 454.621 327.934 454.934C327.621 455.246 327.621 455.752 327.934 456.065L329.868 457.999L327.934 459.934C327.622 460.246 327.622 460.752 327.934 461.065C328.246 461.377 328.753 461.377 329.065 461.065L330.999 459.131L332.934 461.065Z" fill="#25272E"/>
<path d="M37.74 516.2L41.66 526H40.05L39.07 523.48H34.73L33.75 526H32.14L36.06 516.2H37.74ZM36.9 518.02L35.29 522.08H38.51L36.9 518.02ZM43.5527 526.77C43.7674 527.003 44.0381 527.199 44.3647 527.358C44.6914 527.526 45.0507 527.61 45.4427 527.61C46.0774 527.61 46.5861 527.414 46.9687 527.022C47.3514 526.63 47.5427 526.103 47.5427 525.44V524.81C47.3281 525.099 47.0341 525.347 46.6607 525.552C46.2874 525.757 45.8581 525.86 45.3727 525.86C44.8407 525.86 44.3414 525.715 43.8747 525.426C43.4174 525.137 43.0487 524.735 42.7687 524.222C42.4981 523.709 42.3627 523.135 42.3627 522.5C42.3627 521.865 42.4981 521.291 42.7687 520.778C43.0487 520.265 43.4174 519.863 43.8747 519.574C44.3414 519.285 44.8407 519.14 45.3727 519.14C45.8581 519.14 46.2874 519.243 46.6607 519.448C47.0341 519.653 47.3281 519.901 47.5427 520.19V519.28H48.9427V525.44C48.9427 526.112 48.7934 526.714 48.4947 527.246C48.1961 527.778 47.7807 528.193 47.2487 528.492C46.7167 528.791 46.1147 528.94 45.4427 528.94C44.8267 528.94 44.2667 528.819 43.7627 528.576C43.2681 528.333 42.8714 528.035 42.5727 527.68L43.5527 526.77ZM45.6527 524.53C45.9981 524.53 46.3154 524.446 46.6047 524.278C46.8941 524.101 47.1227 523.858 47.2907 523.55C47.4587 523.242 47.5427 522.892 47.5427 522.5C47.5427 522.108 47.4587 521.758 47.2907 521.45C47.1227 521.142 46.8941 520.904 46.6047 520.736C46.3154 520.559 45.9981 520.47 45.6527 520.47C45.3074 520.47 44.9901 520.559 44.7007 520.736C44.4114 520.904 44.1827 521.142 44.0147 521.45C43.8467 521.758 43.7627 522.108 43.7627 522.5C43.7627 522.892 43.8467 523.242 44.0147 523.55C44.1827 523.858 44.4114 524.101 44.7007 524.278C44.9901 524.446 45.3074 524.53 45.6527 524.53ZM56.8538 525.048C56.5738 525.356 56.1865 525.617 55.6918 525.832C55.1972 526.037 54.6278 526.14 53.9838 526.14C53.3398 526.14 52.7472 525.986 52.2058 525.678C51.6738 525.37 51.2538 524.95 50.9458 524.418C50.6378 523.877 50.4838 523.284 50.4838 522.64C50.4838 521.996 50.6378 521.408 50.9458 520.876C51.2538 520.344 51.6692 519.924 52.1918 519.616C52.7145 519.299 53.2885 519.14 53.9138 519.14C54.5392 519.14 55.0992 519.285 55.5938 519.574C56.0978 519.854 56.4898 520.246 56.7698 520.75C57.0592 521.245 57.2038 521.805 57.2038 522.43C57.2038 522.691 57.1805 522.925 57.1338 523.13H51.9538C52.0285 523.597 52.2618 523.993 52.6538 524.32C53.0458 524.647 53.5125 524.81 54.0538 524.81C54.4458 524.81 54.8098 524.74 55.1458 524.6C55.4912 524.451 55.7805 524.273 56.0138 524.068L56.8538 525.048ZM55.7338 521.94C55.6218 521.473 55.4072 521.1 55.0898 520.82C54.7818 520.54 54.3898 520.4 53.9138 520.4C53.4098 520.4 52.9945 520.54 52.6678 520.82C52.3412 521.091 52.1032 521.464 51.9538 521.94H55.7338Z" fill="#25272E"/>
<path d="M32 554C32 547.373 37.3726 542 44 542H123C129.627 542 135 547.373 135 554V578C135 584.627 129.627 590 123 590H44C37.3726 590 32 584.627 32 578V554Z" fill="white"/>
<path fill-rule="evenodd" clip-rule="evenodd" d="M123 543H44C37.9249 543 33 547.925 33 554V578C33 584.075 37.9249 589 44 589H123C129.075 589 134 584.075 134 578V554C134 547.925 129.075 543 123 543ZM44 542C37.3726 542 32 547.373 32 554V578C32 584.627 37.3726 590 44 590H123C129.627 590 135 584.627 135 578V554C135 547.373 129.627 542 123 542H44Z" fill="#F1F3F5" style="mix-blend-mode:multiply"/>
<path d="M53.9 569.6C54.2333 570.04 54.6933 570.42 55.28 570.74C55.88 571.047 56.5533 571.2 57.3 571.2C58.18 571.2 58.8667 570.987 59.36 570.56C59.8533 570.12 60.1 569.567 60.1 568.9C60.1 568.273 59.8467 567.753 59.34 567.34C58.8467 566.913 58.1667 566.7 57.3 566.7H55.8V564.6H57.3C58.0333 564.6 58.6 564.427 59 564.08C59.4 563.733 59.6 563.273 59.6 562.7C59.6 562.127 59.4 561.667 59 561.32C58.6 560.973 58.0333 560.8 57.3 560.8C56.6733 560.8 56.1 560.94 55.58 561.22C55.06 561.487 54.6333 561.813 54.3 562.2L52.8 560.7C53.2933 560.167 53.9267 559.72 54.7 559.36C55.4867 558.987 56.3533 558.8 57.3 558.8C58.2067 558.8 59 558.967 59.68 559.3C60.36 559.633 60.88 560.087 61.24 560.66C61.6133 561.22 61.8 561.833 61.8 562.5C61.8 563.247 61.5933 563.887 61.18 564.42C60.78 564.953 60.2867 565.347 59.7 565.6C60.42 565.853 61.0333 566.273 61.54 566.86C62.0467 567.433 62.3 568.147 62.3 569C62.3 569.773 62.0933 570.48 61.68 571.12C61.28 571.76 60.7 572.267 59.94 572.64C59.18 573.013 58.3 573.2 57.3 573.2C56.22 573.2 55.2533 573 54.4 572.6C53.56 572.187 52.8933 571.687 52.4 571.1L53.9 569.6ZM70.2086 573.2C69.1286 573.2 68.1486 572.92 67.2686 572.36C66.3886 571.787 65.6886 570.96 65.1686 569.88C64.6619 568.787 64.4086 567.493 64.4086 566C64.4086 564.507 64.6619 563.22 65.1686 562.14C65.6886 561.047 66.3886 560.22 67.2686 559.66C68.1486 559.087 69.1286 558.8 70.2086 558.8C71.2886 558.8 72.2686 559.087 73.1486 559.66C74.0286 560.22 74.7219 561.047 75.2286 562.14C75.7486 563.22 76.0086 564.507 76.0086 566C76.0086 567.493 75.7486 568.787 75.2286 569.88C74.7219 570.96 74.0286 571.787 73.1486 572.36C72.2686 572.92 71.2886 573.2 70.2086 573.2ZM73.8086 566C73.8086 564.88 73.6419 563.933 73.3086 563.16C72.9886 562.373 72.5553 561.787 72.0086 561.4C71.4619 561 70.8619 560.8 70.2086 560.8C69.5553 560.8 68.9553 561 68.4086 561.4C67.8619 561.787 67.4219 562.373 67.0886 563.16C66.7686 563.933 66.6086 564.88 66.6086 566C66.6086 567.12 66.7686 568.073 67.0886 568.86C67.4219 569.633 67.8619 570.22 68.4086 570.62C68.9553 571.007 69.5553 571.2 70.2086 571.2C70.8619 571.2 71.4619 571.007 72.0086 570.62C72.5553 570.22 72.9886 569.633 73.3086 568.86C73.6419 568.073 73.8086 567.12 73.8086 566Z" fill="#25272E"/>
<path fill-rule="evenodd" clip-rule="evenodd" d="M180 559H178C176.086 559 174.751 559.002 173.744 559.138C172.766 559.269 172.248 559.51 171.879 559.879C171.51 560.248 171.269 560.766 171.138 561.744C171.002 562.751 171 564.086 171 566V568C171 569.914 171.002 571.249 171.138 572.256C171.269 573.234 171.51 573.752 171.879 574.121C172.248 574.49 172.766 574.731 173.744 574.862C174.751 574.998 176.086 575 178 575H180C181.914 575 183.249 574.998 184.256 574.862C185.234 574.731 185.752 574.49 186.121 574.121C186.49 573.752 186.731 573.234 186.862 572.256C186.998 571.249 187 569.914 187 568V566C187 564.086 186.998 562.751 186.862 561.744C186.731 560.766 186.49 560.248 186.121 559.879C185.752 559.51 185.234 559.269 184.256 559.138C183.249 559.002 181.914 559 180 559ZM171.172 559.172C170 560.343 170 562.229 170 566V568C170 571.771 170 573.657 171.172 574.828C172.343 576 174.229 576 178 576H180C183.771 576 185.657 576 186.828 574.828C188 573.657 188 571.771 188 568V566C188 562.229 188 560.343 186.828 559.172C185.657 558 183.771 558 180 558H178C174.229 558 172.343 558 171.172 559.172Z" fill="#25272E"/>
<path d="M201.72 567.6C201.72 568.261 201.864 568.853 202.152 569.376C202.451 569.899 202.856 570.309 203.368 570.608C203.88 570.896 204.451 571.04 205.08 571.04C205.709 571.04 206.28 570.896 206.792 570.608C207.304 570.309 207.704 569.899 207.992 569.376C208.291 568.853 208.44 568.261 208.44 567.6V560.8H209.64V567.6C209.64 568.443 209.437 569.211 209.032 569.904C208.627 570.597 208.077 571.147 207.384 571.552C206.691 571.957 205.923 572.16 205.08 572.16C204.237 572.16 203.469 571.957 202.776 571.552C202.083 571.147 201.533 570.597 201.128 569.904C200.723 569.211 200.52 568.443 200.52 567.6V560.8H201.72V567.6ZM212.516 570C212.73 570.309 213.012 570.576 213.364 570.8C213.716 571.013 214.1 571.12 214.516 571.12C215.06 571.12 215.476 571.003 215.764 570.768C216.052 570.523 216.196 570.213 216.196 569.84C216.196 569.488 216.047 569.221 215.748 569.04C215.46 568.859 215.023 568.683 214.436 568.512C213.914 568.352 213.492 568.203 213.172 568.064C212.863 567.915 212.596 567.701 212.372 567.424C212.148 567.136 212.036 566.768 212.036 566.32C212.036 565.947 212.143 565.595 212.356 565.264C212.58 564.933 212.884 564.667 213.268 564.464C213.663 564.261 214.106 564.16 214.596 564.16C215.119 564.16 215.594 564.261 216.02 564.464C216.458 564.667 216.81 564.912 217.076 565.2L216.276 566C216.106 565.776 215.871 565.589 215.572 565.44C215.284 565.28 214.959 565.2 214.596 565.2C214.17 565.2 213.823 565.312 213.556 565.536C213.29 565.76 213.156 566.021 213.156 566.32C213.156 566.651 213.295 566.901 213.572 567.072C213.85 567.232 214.282 567.397 214.868 567.568C215.391 567.728 215.812 567.883 216.132 568.032C216.463 568.181 216.74 568.405 216.964 568.704C217.199 568.992 217.316 569.371 217.316 569.84C217.316 570.267 217.204 570.656 216.98 571.008C216.756 571.36 216.431 571.643 216.004 571.856C215.578 572.059 215.082 572.16 214.516 572.16C213.887 572.16 213.332 572.032 212.852 571.776C212.372 571.509 211.994 571.184 211.716 570.8L212.516 570ZM225.791 570.848C225.45 571.211 225.002 571.52 224.447 571.776C223.893 572.032 223.274 572.16 222.591 572.16C221.909 572.16 221.269 571.984 220.671 571.632C220.085 571.269 219.615 570.784 219.263 570.176C218.922 569.568 218.751 568.896 218.751 568.16C218.751 567.435 218.922 566.768 219.263 566.16C219.615 565.541 220.079 565.056 220.655 564.704C221.231 564.341 221.85 564.16 222.511 564.16C223.194 564.16 223.818 564.325 224.383 564.656C224.949 564.987 225.391 565.445 225.711 566.032C226.031 566.608 226.191 567.264 226.191 568C226.191 568.203 226.165 568.395 226.111 568.576L219.871 568.56C219.893 569.008 220.031 569.429 220.287 569.824C220.543 570.219 220.874 570.533 221.279 570.768C221.685 571.003 222.122 571.12 222.591 571.12C223.125 571.12 223.605 571.024 224.031 570.832C224.458 570.64 224.805 570.405 225.071 570.128L225.791 570.848ZM225.071 567.6C224.986 566.907 224.703 566.336 224.223 565.888C223.754 565.429 223.183 565.2 222.511 565.2C222.074 565.2 221.663 565.312 221.279 565.536C220.895 565.749 220.575 566.043 220.319 566.416C220.074 566.779 219.925 567.173 219.871 567.6H225.071ZM228.266 570C228.48 570.309 228.762 570.576 229.114 570.8C229.466 571.013 229.85 571.12 230.266 571.12C230.81 571.12 231.226 571.003 231.514 570.768C231.802 570.523 231.946 570.213 231.946 569.84C231.946 569.488 231.797 569.221 231.498 569.04C231.21 568.859 230.773 568.683 230.186 568.512C229.664 568.352 229.242 568.203 228.922 568.064C228.613 567.915 228.346 567.701 228.122 567.424C227.898 567.136 227.786 566.768 227.786 566.32C227.786 565.947 227.893 565.595 228.106 565.264C228.33 564.933 228.634 564.667 229.018 564.464C229.413 564.261 229.856 564.16 230.346 564.16C230.869 564.16 231.344 564.261 231.77 564.464C232.208 564.667 232.56 564.912 232.826 565.2L232.026 566C231.856 565.776 231.621 565.589 231.322 565.44C231.034 565.28 230.709 565.2 230.346 565.2C229.92 565.2 229.573 565.312 229.306 565.536C229.04 565.76 228.906 566.021 228.906 566.32C228.906 566.651 229.045 566.901 229.322 567.072C229.6 567.232 230.032 567.397 230.618 567.568C231.141 567.728 231.562 567.883 231.882 568.032C232.213 568.181 232.49 568.405 232.714 568.704C232.949 568.992 233.066 569.371 233.066 569.84C233.066 570.267 232.954 570.656 232.73 571.008C232.506 571.36 232.181 571.643 231.754 571.856C231.328 572.059 230.832 572.16 230.266 572.16C229.637 572.16 229.082 572.032 228.602 571.776C228.122 571.509 227.744 571.184 227.466 570.8L228.266 570ZM237.855 564.32H239.295V561.76H240.415V564.32H242.495V565.36H240.415V569.92C240.415 570.304 240.5 570.576 240.671 570.736C240.852 570.885 241.114 570.96 241.455 570.96H242.495V572H241.407C240.735 572 240.212 571.829 239.839 571.488C239.476 571.147 239.295 570.624 239.295 569.92V565.36H237.855V564.32ZM247.624 572.16C246.91 572.16 246.254 571.984 245.656 571.632C245.059 571.269 244.584 570.784 244.232 570.176C243.88 569.568 243.704 568.896 243.704 568.16C243.704 567.424 243.88 566.752 244.232 566.144C244.584 565.536 245.059 565.056 245.656 564.704C246.254 564.341 246.91 564.16 247.624 564.16C248.339 564.16 248.995 564.341 249.592 564.704C250.19 565.056 250.664 565.536 251.016 566.144C251.368 566.752 251.544 567.424 251.544 568.16C251.544 568.896 251.368 569.568 251.016 570.176C250.664 570.784 250.19 571.269 249.592 571.632C248.995 571.984 248.339 572.16 247.624 572.16ZM247.624 571.12C248.126 571.12 248.59 570.992 249.016 570.736C249.443 570.469 249.784 570.112 250.04 569.664C250.296 569.205 250.424 568.704 250.424 568.16C250.424 567.616 250.296 567.12 250.04 566.672C249.784 566.213 249.443 565.856 249.016 565.6C248.59 565.333 248.126 565.2 247.624 565.2C247.123 565.2 246.659 565.333 246.232 565.6C245.806 565.856 245.464 566.213 245.208 566.672C244.952 567.12 244.824 567.616 244.824 568.16C244.824 568.704 244.952 569.205 245.208 569.664C245.464 570.112 245.806 570.469 246.232 570.736C246.659 570.992 247.123 571.12 247.624 571.12ZM254.746 565.44C255.012 565.088 255.375 564.789 255.834 564.544C256.292 564.288 256.81 564.16 257.386 564.16C258.068 564.16 258.698 564.336 259.274 564.688C259.85 565.029 260.303 565.504 260.634 566.112C260.975 566.72 261.146 567.403 261.146 568.16C261.146 568.917 260.975 569.6 260.634 570.208C260.303 570.816 259.85 571.296 259.274 571.648C258.698 571.989 258.068 572.16 257.386 572.16C256.81 572.16 256.292 572.037 255.834 571.792C255.375 571.536 255.012 571.232 254.746 570.88V572H253.626V560.8H254.746V565.44ZM257.386 571.12C257.866 571.12 258.308 570.997 258.714 570.752C259.119 570.496 259.439 570.144 259.674 569.696C259.908 569.248 260.026 568.736 260.026 568.16C260.026 567.584 259.908 567.072 259.674 566.624C259.439 566.176 259.119 565.829 258.714 565.584C258.308 565.328 257.866 565.2 257.386 565.2C256.938 565.2 256.506 565.333 256.09 565.6C255.684 565.856 255.359 566.213 255.114 566.672C254.868 567.12 254.746 567.616 254.746 568.16C254.746 568.704 254.868 569.205 255.114 569.664C255.359 570.112 255.684 570.469 256.09 570.736C256.506 570.992 256.938 571.12 257.386 571.12ZM267.779 570.96C267.534 571.291 267.198 571.573 266.771 571.808C266.345 572.043 265.854 572.16 265.299 572.16C264.787 572.16 264.323 572.053 263.907 571.84C263.491 571.627 263.166 571.349 262.931 571.008C262.697 570.656 262.579 570.293 262.579 569.92C262.579 569.269 262.771 568.736 263.155 568.32C263.55 567.904 264.105 567.664 264.819 567.6L267.779 567.344C267.779 566.971 267.694 566.619 267.523 566.288C267.363 565.957 267.134 565.696 266.835 565.504C266.547 565.301 266.222 565.2 265.859 565.2C265.411 565.2 265.001 565.253 264.627 565.36C264.254 565.467 263.945 565.6 263.699 565.76L262.979 565.04C263.299 564.795 263.71 564.587 264.211 564.416C264.713 564.245 265.262 564.16 265.859 564.16C266.435 564.16 266.953 564.293 267.411 564.56C267.881 564.816 268.243 565.168 268.499 565.616C268.766 566.064 268.899 566.565 268.899 567.12V572H267.779V570.96ZM265.139 568.56C264.67 568.603 264.313 568.747 264.067 568.992C263.822 569.237 263.699 569.547 263.699 569.92C263.699 570.261 263.838 570.549 264.115 570.784C264.403 571.008 264.798 571.12 265.299 571.12C266.046 571.12 266.643 570.917 267.091 570.512C267.55 570.096 267.779 569.52 267.779 568.784V568.304L265.139 568.56ZM277.463 570.56C277.1 571.008 276.636 571.387 276.071 571.696C275.516 572.005 274.914 572.16 274.263 572.16C273.58 572.16 272.94 571.984 272.343 571.632C271.756 571.269 271.287 570.784 270.935 570.176C270.594 569.568 270.423 568.896 270.423 568.16C270.423 567.424 270.594 566.752 270.935 566.144C271.287 565.536 271.756 565.056 272.343 564.704C272.94 564.341 273.58 564.16 274.263 564.16C274.914 564.16 275.511 564.309 276.055 564.608C276.599 564.896 277.042 565.253 277.383 565.68L276.583 566.48C276.338 566.128 276.012 565.829 275.607 565.584C275.212 565.328 274.764 565.2 274.263 565.2C273.783 565.2 273.335 565.333 272.919 565.6C272.503 565.856 272.167 566.213 271.911 566.672C271.666 567.12 271.543 567.616 271.543 568.16C271.543 568.704 271.666 569.205 271.911 569.664C272.167 570.112 272.503 570.469 272.919 570.736C273.335 570.992 273.783 571.12 274.263 571.12C274.764 571.12 275.223 570.997 275.639 570.752C276.055 570.496 276.396 570.192 276.663 569.84L277.463 570.56ZM285.541 570.56C285.179 571.008 284.715 571.387 284.149 571.696C283.595 572.005 282.992 572.16 282.341 572.16C281.659 572.16 281.019 571.984 280.421 571.632C279.835 571.269 279.365 570.784 279.013 570.176C278.672 569.568 278.501 568.896 278.501 568.16C278.501 567.424 278.672 566.752 279.013 566.144C279.365 565.536 279.835 565.056 280.421 564.704C281.019 564.341 281.659 564.16 282.341 564.16C282.992 564.16 283.589 564.309 284.133 564.608C284.677 564.896 285.12 565.253 285.461 565.68L284.661 566.48C284.416 566.128 284.091 565.829 283.685 565.584C283.291 565.328 282.843 565.2 282.341 565.2C281.861 565.2 281.413 565.333 280.997 565.6C280.581 565.856 280.245 566.213 279.989 566.672C279.744 567.12 279.621 567.616 279.621 568.16C279.621 568.704 279.744 569.205 279.989 569.664C280.245 570.112 280.581 570.469 280.997 570.736C281.413 570.992 281.861 571.12 282.341 571.12C282.843 571.12 283.301 570.997 283.717 570.752C284.133 570.496 284.475 570.192 284.741 569.84L285.541 570.56ZM290.499 572.16C289.785 572.16 289.129 571.984 288.531 571.632C287.934 571.269 287.459 570.784 287.107 570.176C286.755 569.568 286.579 568.896 286.579 568.16C286.579 567.424 286.755 566.752 287.107 566.144C287.459 565.536 287.934 565.056 288.531 564.704C289.129 564.341 289.785 564.16 290.499 564.16C291.214 564.16 291.87 564.341 292.467 564.704C293.065 565.056 293.539 565.536 293.891 566.144C294.243 566.752 294.419 567.424 294.419 568.16C294.419 568.896 294.243 569.568 293.891 570.176C293.539 570.784 293.065 571.269 292.467 571.632C291.87 571.984 291.214 572.16 290.499 572.16ZM290.499 571.12C291.001 571.12 291.465 570.992 291.891 570.736C292.318 570.469 292.659 570.112 292.915 569.664C293.171 569.205 293.299 568.704 293.299 568.16C293.299 567.616 293.171 567.12 292.915 566.672C292.659 566.213 292.318 565.856 291.891 565.6C291.465 565.333 291.001 565.2 290.499 565.2C289.998 565.2 289.534 565.333 289.107 565.6C288.681 565.856 288.339 566.213 288.083 566.672C287.827 567.12 287.699 567.616 287.699 568.16C287.699 568.704 287.827 569.205 288.083 569.664C288.339 570.112 288.681 570.469 289.107 570.736C289.534 570.992 289.998 571.12 290.499 571.12Z" fill="#25272E"/>
</g>
<g filter="url(#filter1_d)">
<path d="M245.716 649.4L250.756 662H248.686L247.426 658.76H241.846L240.586 662H238.516L243.556 649.4H245.716ZM244.636 651.74L242.566 656.96H246.706L244.636 651.74ZM258.679 660.74C258.403 661.136 258.007 661.478 257.491 661.766C256.975 662.042 256.381 662.18 255.709 662.18C254.989 662.18 254.317 661.988 253.693 661.604C253.081 661.208 252.589 660.668 252.217 659.984C251.845 659.3 251.659 658.532 251.659 657.68C251.659 656.828 251.845 656.06 252.217 655.376C252.589 654.692 253.081 654.158 253.693 653.774C254.317 653.378 254.989 653.18 255.709 653.18C256.381 653.18 256.975 653.324 257.491 653.612C258.007 653.888 258.403 654.224 258.679 654.62V649.4H260.479V662H258.679V660.74ZM256.069 660.47C256.549 660.47 256.987 660.35 257.383 660.11C257.779 659.87 258.091 659.54 258.319 659.12C258.559 658.688 258.679 658.208 258.679 657.68C258.679 657.152 258.559 656.678 258.319 656.258C258.091 655.826 257.779 655.49 257.383 655.25C256.987 655.01 256.549 654.89 256.069 654.89C255.589 654.89 255.151 655.01 254.755 655.25C254.359 655.49 254.041 655.826 253.801 656.258C253.573 656.678 253.459 657.152 253.459 657.68C253.459 658.208 253.573 658.688 253.801 659.12C254.041 659.54 254.359 659.87 254.755 660.11C255.151 660.35 255.589 660.47 256.069 660.47ZM269.578 660.74C269.302 661.136 268.906 661.478 268.39 661.766C267.874 662.042 267.28 662.18 266.608 662.18C265.888 662.18 265.216 661.988 264.592 661.604C263.98 661.208 263.488 660.668 263.116 659.984C262.744 659.3 262.558 658.532 262.558 657.68C262.558 656.828 262.744 656.06 263.116 655.376C263.488 654.692 263.98 654.158 264.592 653.774C265.216 653.378 265.888 653.18 266.608 653.18C267.28 653.18 267.874 653.324 268.39 653.612C268.906 653.888 269.302 654.224 269.578 654.62V649.4H271.378V662H269.578V660.74ZM266.968 660.47C267.448 660.47 267.886 660.35 268.282 660.11C268.678 659.87 268.99 659.54 269.218 659.12C269.458 658.688 269.578 658.208 269.578 657.68C269.578 657.152 269.458 656.678 269.218 656.258C268.99 655.826 268.678 655.49 268.282 655.25C267.886 655.01 267.448 654.89 266.968 654.89C266.488 654.89 266.05 655.01 265.654 655.25C265.258 655.49 264.94 655.826 264.7 656.258C264.472 656.678 264.358 657.152 264.358 657.68C264.358 658.208 264.472 658.688 264.7 659.12C264.94 659.54 265.258 659.87 265.654 660.11C266.05 660.35 266.488 660.47 266.968 660.47ZM285.795 660.38C285.411 660.884 284.895 661.31 284.247 661.658C283.611 662.006 282.897 662.18 282.105 662.18C281.277 662.18 280.515 661.982 279.819 661.586C279.135 661.19 278.595 660.65 278.199 659.966C277.803 659.27 277.605 658.508 277.605 657.68C277.605 656.852 277.803 656.096 278.199 655.412C278.595 654.716 279.135 654.17 279.819 653.774C280.515 653.378 281.277 653.18 282.105 653.18C282.897 653.18 283.605 653.348 284.229 653.684C284.853 654.008 285.345 654.41 285.705 654.89L284.445 656.06C284.193 655.736 283.863 655.46 283.455 655.232C283.059 655.004 282.609 654.89 282.105 654.89C281.601 654.89 281.139 655.01 280.719 655.25C280.311 655.49 279.987 655.826 279.747 656.258C279.519 656.678 279.405 657.152 279.405 657.68C279.405 658.208 279.519 658.688 279.747 659.12C279.987 659.54 280.311 659.87 280.719 660.11C281.139 660.35 281.601 660.47 282.105 660.47C282.609 660.47 283.071 660.35 283.491 660.11C283.911 659.858 284.259 659.558 284.535 659.21L285.795 660.38ZM289.386 654.62C289.662 654.224 290.034 653.888 290.502 653.612C290.97 653.324 291.498 653.18 292.086 653.18C292.746 653.18 293.334 653.336 293.85 653.648C294.366 653.948 294.768 654.386 295.056 654.962C295.356 655.526 295.506 656.192 295.506 656.96V662H293.706V656.96C293.706 656.336 293.52 655.838 293.148 655.466C292.788 655.082 292.314 654.89 291.726 654.89C291.042 654.89 290.478 655.118 290.034 655.574C289.602 656.018 289.386 656.6 289.386 657.32V662H287.586V649.4H289.386V654.62ZM297.936 650.66C297.936 650.36 298.044 650.108 298.26 649.904C298.488 649.688 298.74 649.58 299.016 649.58C299.292 649.58 299.538 649.688 299.754 649.904C299.982 650.108 300.096 650.36 300.096 650.66C300.096 650.96 299.982 651.218 299.754 651.434C299.538 651.638 299.292 651.74 299.016 651.74C298.74 651.74 298.488 651.638 298.26 651.434C298.044 651.218 297.936 650.96 297.936 650.66ZM299.916 653.36V662H298.116V653.36H299.916ZM304.416 649.4V662H302.616V649.4H304.416ZM313.506 660.74C313.23 661.136 312.834 661.478 312.318 661.766C311.802 662.042 311.208 662.18 310.536 662.18C309.816 662.18 309.144 661.988 308.52 661.604C307.908 661.208 307.416 660.668 307.044 659.984C306.672 659.3 306.486 658.532 306.486 657.68C306.486 656.828 306.672 656.06 307.044 655.376C307.416 654.692 307.908 654.158 308.52 653.774C309.144 653.378 309.816 653.18 310.536 653.18C311.208 653.18 311.802 653.324 312.318 653.612C312.834 653.888 313.23 654.224 313.506 654.62V649.4H315.306V662H313.506V660.74ZM310.896 660.47C311.376 660.47 311.814 660.35 312.21 660.11C312.606 659.87 312.918 659.54 313.146 659.12C313.386 658.688 313.506 658.208 313.506 657.68C313.506 657.152 313.386 656.678 313.146 656.258C312.918 655.826 312.606 655.49 312.21 655.25C311.814 655.01 311.376 654.89 310.896 654.89C310.416 654.89 309.978 655.01 309.582 655.25C309.186 655.49 308.868 655.826 308.628 656.258C308.4 656.678 308.286 657.152 308.286 657.68C308.286 658.208 308.4 658.688 308.628 659.12C308.868 659.54 309.186 659.87 309.582 660.11C309.978 660.35 310.416 660.47 310.896 660.47Z" fill="#25272E"/>
<path fill-rule="evenodd" clip-rule="evenodd" d="M337 635H218C206.402 635 197 644.402 197 656C197 667.598 206.402 677 218 677H337C348.598 677 358 667.598 358 656C358 644.402 348.598 635 337 635ZM218 634C205.85 634 196 643.85 196 656C196 668.15 205.85 678 218 678H337C349.15 678 359 668.15 359 656C359 643.85 349.15 634 337 634H218Z" fill="#25272E"/>
</g>
<path fill-rule="evenodd" clip-rule="evenodd" d="M157 635H38C26.402 635 17 644.402 17 656C17 667.598 26.402 677 38 677H157C168.598 677 178 667.598 178 656C178 644.402 168.598 635 157 635ZM38 634C25.8497 634 16 643.85 16 656C16 668.15 25.8497 678 38 678H157C169.15 678 179 668.15 179 656C179 643.85 169.15 634 157 634H38Z" fill="#25272E"/>
<path d="M56.4093 649.4L61.4493 662H59.3793L58.1193 658.76H52.5393L51.2793 662H49.2093L54.2493 649.4H56.4093ZM55.3293 651.74L53.2593 656.96H57.3993L55.3293 651.74ZM69.3728 660.74C69.0968 661.136 68.7008 661.478 68.1848 661.766C67.6688 662.042 67.0748 662.18 66.4028 662.18C65.6828 662.18 65.0108 661.988 64.3868 661.604C63.7748 661.208 63.2828 660.668 62.9108 659.984C62.5388 659.3 62.3528 658.532 62.3528 657.68C62.3528 656.828 62.5388 656.06 62.9108 655.376C63.2828 654.692 63.7748 654.158 64.3868 653.774C65.0108 653.378 65.6828 653.18 66.4028 653.18C67.0748 653.18 67.6688 653.324 68.1848 653.612C68.7008 653.888 69.0968 654.224 69.3728 654.62V649.4H71.1728V662H69.3728V660.74ZM66.7628 660.47C67.2428 660.47 67.6808 660.35 68.0768 660.11C68.4728 659.87 68.7848 659.54 69.0128 659.12C69.2528 658.688 69.3728 658.208 69.3728 657.68C69.3728 657.152 69.2528 656.678 69.0128 656.258C68.7848 655.826 68.4728 655.49 68.0768 655.25C67.6808 655.01 67.2428 654.89 66.7628 654.89C66.2828 654.89 65.8448 655.01 65.4488 655.25C65.0528 655.49 64.7348 655.826 64.4948 656.258C64.2668 656.678 64.1528 657.152 64.1528 657.68C64.1528 658.208 64.2668 658.688 64.4948 659.12C64.7348 659.54 65.0528 659.87 65.4488 660.11C65.8448 660.35 66.2828 660.47 66.7628 660.47ZM80.2713 660.74C79.9953 661.136 79.5993 661.478 79.0833 661.766C78.5673 662.042 77.9733 662.18 77.3013 662.18C76.5813 662.18 75.9093 661.988 75.2853 661.604C74.6733 661.208 74.1813 660.668 73.8093 659.984C73.4373 659.3 73.2513 658.532 73.2513 657.68C73.2513 656.828 73.4373 656.06 73.8093 655.376C74.1813 654.692 74.6733 654.158 75.2853 653.774C75.9093 653.378 76.5813 653.18 77.3013 653.18C77.9733 653.18 78.5673 653.324 79.0833 653.612C79.5993 653.888 79.9953 654.224 80.2713 654.62V649.4H82.0713V662H80.2713V660.74ZM77.6613 660.47C78.1413 660.47 78.5793 660.35 78.9753 660.11C79.3713 659.87 79.6833 659.54 79.9113 659.12C80.1513 658.688 80.2713 658.208 80.2713 657.68C80.2713 657.152 80.1513 656.678 79.9113 656.258C79.6833 655.826 79.3713 655.49 78.9753 655.25C78.5793 655.01 78.1413 654.89 77.6613 654.89C77.1813 654.89 76.7433 655.01 76.3473 655.25C75.9513 655.49 75.6333 655.826 75.3933 656.258C75.1653 656.678 75.0513 657.152 75.0513 657.68C75.0513 658.208 75.1653 658.688 75.3933 659.12C75.6333 659.54 75.9513 659.87 76.3473 660.11C76.7433 660.35 77.1813 660.47 77.6613 660.47ZM89.1981 659.39C89.4621 659.714 89.7921 659.99 90.1881 660.218C90.5841 660.446 91.0041 660.56 91.4481 660.56C91.9161 660.56 92.2881 660.452 92.5641 660.236C92.8401 660.02 92.9781 659.768 92.9781 659.48C92.9781 659.216 92.8461 659.018 92.5821 658.886C92.3301 658.742 91.9101 658.58 91.3221 658.4C90.7101 658.22 90.2061 658.04 89.8101 657.86C89.4261 657.68 89.0901 657.416 88.8021 657.068C88.5261 656.72 88.3881 656.264 88.3881 655.7C88.3881 655.244 88.5141 654.824 88.7661 654.44C89.0181 654.056 89.3841 653.75 89.8641 653.522C90.3441 653.294 90.9021 653.18 91.5381 653.18C92.2101 653.18 92.8101 653.294 93.3381 653.522C93.8781 653.75 94.2981 654.026 94.5981 654.35L93.4281 655.52C93.2121 655.316 92.9361 655.148 92.6001 655.016C92.2761 654.872 91.9221 654.8 91.5381 654.8C91.1181 654.8 90.7881 654.89 90.5481 655.07C90.3081 655.25 90.1881 655.46 90.1881 655.7C90.1881 655.964 90.3141 656.168 90.5661 656.312C90.8301 656.444 91.2561 656.6 91.8441 656.78C92.4561 656.96 92.9541 657.14 93.3381 657.32C93.7341 657.5 94.0701 657.764 94.3461 658.112C94.6341 658.46 94.7781 658.916 94.7781 659.48C94.7781 659.96 94.6401 660.41 94.3641 660.83C94.1001 661.238 93.7161 661.568 93.2121 661.82C92.7081 662.06 92.1201 662.18 91.4481 662.18C90.7161 662.18 90.0501 662.024 89.4501 661.712C88.8621 661.4 88.3881 661.016 88.0281 660.56L89.1981 659.39ZM98.4604 654.62C98.7364 654.224 99.1324 653.888 99.6484 653.612C100.164 653.324 100.758 653.18 101.43 653.18C102.15 653.18 102.816 653.378 103.428 653.774C104.052 654.158 104.55 654.692 104.922 655.376C105.294 656.06 105.48 656.828 105.48 657.68C105.48 658.532 105.294 659.3 104.922 659.984C104.55 660.668 104.052 661.208 103.428 661.604C102.816 661.988 102.15 662.18 101.43 662.18C100.758 662.18 100.164 662.042 99.6484 661.766C99.1324 661.478 98.7364 661.136 98.4604 660.74V665.78H96.6604V653.36H98.4604V654.62ZM101.07 660.47C101.55 660.47 101.988 660.35 102.384 660.11C102.78 659.87 103.092 659.54 103.32 659.12C103.56 658.688 103.68 658.208 103.68 657.68C103.68 657.152 103.56 656.678 103.32 656.258C103.092 655.826 102.78 655.49 102.384 655.25C101.988 655.01 101.55 654.89 101.07 654.89C100.59 654.89 100.152 655.01 99.7564 655.25C99.3604 655.49 99.0424 655.826 98.8024 656.258C98.5744 656.678 98.4604 657.152 98.4604 657.68C98.4604 658.208 98.5744 658.688 98.8024 659.12C99.0424 659.54 99.3604 659.87 99.7564 660.11C100.152 660.35 100.59 660.47 101.07 660.47ZM106.913 657.68C106.913 656.852 107.111 656.096 107.507 655.412C107.903 654.716 108.443 654.17 109.127 653.774C109.823 653.378 110.585 653.18 111.413 653.18C112.241 653.18 112.997 653.378 113.681 653.774C114.377 654.17 114.923 654.716 115.319 655.412C115.715 656.096 115.913 656.852 115.913 657.68C115.913 658.508 115.715 659.27 115.319 659.966C114.923 660.65 114.377 661.19 113.681 661.586C112.997 661.982 112.241 662.18 111.413 662.18C110.585 662.18 109.823 661.982 109.127 661.586C108.443 661.19 107.903 660.65 107.507 659.966C107.111 659.27 106.913 658.508 106.913 657.68ZM111.413 660.47C111.917 660.47 112.373 660.35 112.781 660.11C113.201 659.87 113.525 659.54 113.753 659.12C113.993 658.688 114.113 658.208 114.113 657.68C114.113 657.152 113.993 656.678 113.753 656.258C113.525 655.826 113.201 655.49 112.781 655.25C112.373 655.01 111.917 654.89 111.413 654.89C110.909 654.89 110.447 655.01 110.027 655.25C109.619 655.49 109.295 655.826 109.055 656.258C108.827 656.678 108.713 657.152 108.713 657.68C108.713 658.208 108.827 658.688 109.055 659.12C109.295 659.54 109.619 659.87 110.027 660.11C110.447 660.35 110.909 660.47 111.413 660.47ZM119.695 658.4C119.695 659.024 119.875 659.528 120.235 659.912C120.607 660.284 121.087 660.47 121.675 660.47C122.359 660.47 122.917 660.248 123.349 659.804C123.793 659.348 124.015 658.76 124.015 658.04V653.36H125.815V662H124.015V660.74C123.739 661.136 123.367 661.478 122.899 661.766C122.431 662.042 121.903 662.18 121.315 662.18C120.655 662.18 120.067 662.03 119.551 661.73C119.035 661.418 118.627 660.98 118.327 660.416C118.039 659.84 117.895 659.168 117.895 658.4V653.36H119.695V658.4ZM128.696 659.39C128.96 659.714 129.29 659.99 129.686 660.218C130.082 660.446 130.502 660.56 130.946 660.56C131.414 660.56 131.786 660.452 132.062 660.236C132.338 660.02 132.476 659.768 132.476 659.48C132.476 659.216 132.344 659.018 132.08 658.886C131.828 658.742 131.408 658.58 130.82 658.4C130.208 658.22 129.704 658.04 129.308 657.86C128.924 657.68 128.588 657.416 128.3 657.068C128.024 656.72 127.886 656.264 127.886 655.7C127.886 655.244 128.012 654.824 128.264 654.44C128.516 654.056 128.882 653.75 129.362 653.522C129.842 653.294 130.4 653.18 131.036 653.18C131.708 653.18 132.308 653.294 132.836 653.522C133.376 653.75 133.796 654.026 134.096 654.35L132.926 655.52C132.71 655.316 132.434 655.148 132.098 655.016C131.774 654.872 131.42 654.8 131.036 654.8C130.616 654.8 130.286 654.89 130.046 655.07C129.806 655.25 129.686 655.46 129.686 655.7C129.686 655.964 129.812 656.168 130.064 656.312C130.328 656.444 130.754 656.6 131.342 656.78C131.954 656.96 132.452 657.14 132.836 657.32C133.232 657.5 133.568 657.764 133.844 658.112C134.132 658.46 134.276 658.916 134.276 659.48C134.276 659.96 134.138 660.41 133.862 660.83C133.598 661.238 133.214 661.568 132.71 661.82C132.206 662.06 131.618 662.18 130.946 662.18C130.214 662.18 129.548 662.024 128.948 661.712C128.36 661.4 127.886 661.016 127.526 660.56L128.696 659.39ZM143.808 660.776C143.448 661.172 142.95 661.508 142.314 661.784C141.678 662.048 140.946 662.18 140.118 662.18C139.29 662.18 138.528 661.982 137.832 661.586C137.148 661.19 136.608 660.65 136.212 659.966C135.816 659.27 135.618 658.508 135.618 657.68C135.618 656.852 135.816 656.096 136.212 655.412C136.608 654.728 137.142 654.188 137.814 653.792C138.486 653.384 139.224 653.18 140.028 653.18C140.832 653.18 141.552 653.366 142.188 653.738C142.836 654.098 143.34 654.602 143.7 655.25C144.072 655.886 144.258 656.606 144.258 657.41C144.258 657.746 144.228 658.046 144.168 658.31H137.508C137.604 658.91 137.904 659.42 138.408 659.84C138.912 660.26 139.512 660.47 140.208 660.47C140.712 660.47 141.18 660.38 141.612 660.2C142.056 660.008 142.428 659.78 142.728 659.516L143.808 660.776ZM142.368 656.78C142.224 656.18 141.948 655.7 141.54 655.34C141.144 654.98 140.64 654.8 140.028 654.8C139.38 654.8 138.846 654.98 138.426 655.34C138.006 655.688 137.7 656.168 137.508 656.78H142.368Z" fill="#25272E"/>
<g filter="url(#filter2_d)">
<circle cx="331" cy="738" r="28" fill="#25272E"/>
</g>
<path d="M344.527 739.022C343.903 739.568 336.745 746.804 336.745 746.804C335.859 747.579 334.471 746.95 334.471 745.772V740.498L319.923 740.498C318.574 740.498 317.48 739.375 317.48 737.99C317.48 736.604 318.574 735.481 319.923 735.481L334.471 735.481L334.471 730.208C334.471 729.03 335.859 728.4 336.745 729.176C336.745 729.176 343.903 736.411 344.527 736.958C345.152 737.504 345.152 738.475 344.527 739.022Z" fill="white"/>
<g filter="url(#filter3_b)">
<rect width="375" height="88" fill="white" fill-opacity="0.95"/>
<path opacity="0.35" d="M338.663 17.7988H355.329C356.525 17.7988 357.496 18.7689 357.496 19.9655V25.9439C357.496 27.1405 356.525 28.1106 355.329 28.1106H338.663C337.466 28.1106 336.496 27.1405 336.496 25.9439V19.9655C336.496 18.7689 337.466 17.7988 338.663 17.7988Z" stroke="black"/>
<path opacity="0.4" d="M358.996 20.959V24.9514C359.801 24.6132 360.324 23.8267 360.324 22.9552C360.324 22.0837 359.801 21.2971 358.996 20.959" fill="black"/>
<path d="M337.996 20.6283C337.996 19.8919 338.593 19.2949 339.329 19.2949H354.662C355.399 19.2949 355.996 19.8919 355.996 20.6283V25.281C355.996 26.0173 355.399 26.6143 354.662 26.6143H339.329C338.593 26.6143 337.996 26.0173 337.996 25.281V20.6283Z" fill="black"/>
<path fill-rule="evenodd" clip-rule="evenodd" d="M323.328 19.5699C325.544 19.57 327.675 20.4198 329.281 21.9437C329.402 22.0613 329.595 22.0598 329.714 21.9404L330.87 20.7759C330.93 20.7153 330.964 20.6332 330.963 20.5478C330.963 20.4624 330.928 20.3807 330.867 20.3208C326.652 16.2889 320.003 16.2889 315.788 20.3208C315.727 20.3806 315.692 20.4623 315.691 20.5477C315.691 20.6331 315.724 20.7153 315.785 20.7759L316.941 21.9404C317.06 22.06 317.253 22.0615 317.374 21.9437C318.98 20.4197 321.112 19.5699 323.328 19.5699ZM323.328 23.3583C324.545 23.3582 325.719 23.8099 326.622 24.6256C326.744 24.7413 326.936 24.7388 327.055 24.6199L328.21 23.4555C328.27 23.3944 328.304 23.3115 328.303 23.2254C328.302 23.1393 328.267 23.0572 328.205 22.9973C325.457 20.4458 321.201 20.4458 318.453 22.9973C318.391 23.0572 318.355 23.1394 318.355 23.2255C318.354 23.3116 318.388 23.3945 318.449 23.4555L319.603 24.6199C319.722 24.7388 319.914 24.7413 320.036 24.6256C320.938 23.8104 322.111 23.3588 323.328 23.3583ZM325.641 25.9073C325.643 25.9936 325.609 26.0769 325.547 26.1374L323.549 28.1492C323.491 28.2083 323.411 28.2416 323.328 28.2416C323.245 28.2416 323.165 28.2083 323.106 28.1492L321.109 26.1374C321.047 26.0768 321.013 25.9935 321.015 25.9072C321.017 25.8209 321.054 25.7391 321.118 25.6812C322.394 24.6044 324.262 24.6044 325.537 25.6812C325.602 25.7391 325.639 25.8209 325.641 25.9073Z" fill="black"/>
<path fill-rule="evenodd" clip-rule="evenodd" d="M309.664 17.6328H308.664C308.111 17.6328 307.664 18.0797 307.664 18.6309V27.2811C307.664 27.8323 308.111 28.2792 308.664 28.2792H309.664C310.216 28.2792 310.664 27.8323 310.664 27.2811V18.6309C310.664 18.0797 310.216 17.6328 309.664 17.6328ZM303.997 19.9617H304.997C305.549 19.9617 305.997 20.4086 305.997 20.9598V27.2811C305.997 27.8323 305.549 28.2792 304.997 28.2792H303.997C303.445 28.2792 302.997 27.8323 302.997 27.2811V20.9598C302.997 20.4086 303.445 19.9617 303.997 19.9617ZM300.331 22.2906H299.331C298.778 22.2906 298.331 22.7375 298.331 23.2887V27.2811C298.331 27.8323 298.778 28.2792 299.331 28.2792H300.331C300.883 28.2792 301.331 27.8323 301.331 27.2811V23.2887C301.331 22.7375 300.883 22.2906 300.331 22.2906ZM295.664 24.2868H294.664C294.112 24.2868 293.664 24.7337 293.664 25.2849V27.2811C293.664 27.8323 294.112 28.2792 294.664 28.2792H295.664C296.216 28.2792 296.664 27.8323 296.664 27.2811V25.2849C296.664 24.7337 296.216 24.2868 295.664 24.2868Z" fill="black"/>
<path d="M33.1637 20.4946V20.5239H34.9362V20.4946C34.9362 19.418 35.6833 18.6929 36.7892 18.6929C37.8293 18.6929 38.591 19.3667 38.591 20.2969C38.591 21.0439 38.2321 21.5933 36.7892 23.0581L33.2663 26.6616V27.9727H40.6052V26.3687H35.8591V26.2441L38.071 24.0249C39.8654 22.2524 40.444 21.3149 40.444 20.1797C40.444 18.4146 38.9352 17.1401 36.8478 17.1401C34.6799 17.1401 33.1637 18.5171 33.1637 20.4946ZM43.7768 26.8521C44.4726 26.8521 44.9487 26.354 44.9487 25.6948C44.9487 25.0283 44.4726 24.5376 43.7768 24.5376C43.0884 24.5376 42.605 25.0283 42.605 25.6948C42.605 26.354 43.0884 26.8521 43.7768 26.8521ZM43.7768 21.3589C44.4726 21.3589 44.9487 20.8682 44.9487 20.209C44.9487 19.5425 44.4726 19.0518 43.7768 19.0518C43.0884 19.0518 42.605 19.5425 42.605 20.209C42.605 20.8682 43.0884 21.3589 43.7768 21.3589ZM50.8596 28.2363C53.3865 28.2363 54.888 26.1855 54.888 22.6919C54.888 19.1836 53.3645 17.1401 50.8596 17.1401C48.3474 17.1401 46.824 19.1836 46.824 22.6772C46.824 26.1855 48.3255 28.2363 50.8596 28.2363ZM50.8596 26.6689C49.5193 26.6689 48.7356 25.2773 48.7356 22.6772C48.7356 20.0991 49.534 18.7148 50.8596 18.7148C52.1853 18.7148 52.9763 20.0918 52.9763 22.6772C52.9763 25.2773 52.2 26.6689 50.8596 26.6689ZM56.8218 27.9727H58.7994L63.3184 19.0151V17.4038H55.9649V18.9932H61.4141V19.1104L56.8218 27.9727Z" fill="black"/>
<path d="M351 75.5C356.247 75.5 360.5 71.2467 360.5 66C360.5 60.7533 356.247 56.5 351 56.5C345.753 56.5 341.5 60.7533 341.5 66C341.5 71.2467 345.753 75.5 351 75.5ZM351 77C344.925 77 340 72.0751 340 66C340 59.9249 344.925 55 351 55C357.075 55 362 59.9249 362 66C362 72.0751 357.075 77 351 77Z" fill="#25272E"/>
<path d="M349.81 67.5728C349.81 65.5428 352.19 65.5428 352.19 64.0528C352.179 63.9001 352.137 63.7513 352.067 63.6151C351.997 63.479 351.9 63.3583 351.783 63.2603C351.665 63.1623 351.529 63.089 351.383 63.0448C351.236 63.0005 351.082 62.9862 350.93 63.0028C350.564 62.9907 350.204 63.0957 349.902 63.3025C349.599 63.5093 349.371 63.8072 349.25 64.1528L347.5 63.3828C347.752 62.6638 348.228 62.0445 348.858 61.6161C349.488 61.1877 350.239 60.9727 351 61.0028C353.07 61.0028 354.36 62.3228 354.36 63.7928C354.36 66.3828 351.84 66.3828 351.84 68.2028H349.95C349.871 68.0014 349.823 67.7888 349.81 67.5728ZM349.67 70.0928C349.67 69.9471 349.699 69.8028 349.756 69.6686C349.812 69.5344 349.895 69.4128 350 69.3112C350.104 69.2096 350.228 69.1299 350.364 69.077C350.499 69.024 350.644 68.9988 350.79 69.0028C351.013 69.0028 351.23 69.0694 351.415 69.1938C351.6 69.3182 351.743 69.495 351.827 69.7014C351.911 69.9078 351.931 70.1345 351.886 70.3525C351.84 70.5706 351.73 70.77 351.571 70.9254C351.411 71.0808 351.209 71.185 350.99 71.2248C350.77 71.2645 350.544 71.238 350.34 71.1487C350.136 71.0593 349.963 70.911 349.844 70.723C349.725 70.5349 349.664 70.3155 349.67 70.0928Z" fill="#25272E"/>
<path fill-rule="evenodd" clip-rule="evenodd" d="M27.0023 57.3592L18.8447 65.1911C18.3851 65.6317 18.3851 66.3672 18.8447 66.8096L27.0023 74.6397C27.5026 75.1201 28.2924 75.1201 28.7927 74.6397C29.3219 74.1313 29.3219 73.2845 28.7927 72.7751L21.9605 66.2161C21.8365 66.0976 21.8365 65.9013 21.9605 65.7828L28.7927 59.2237C29.3219 58.7153 29.3219 57.8685 28.7927 57.3592C28.5421 57.1203 28.22 57 27.898 57C27.575 57 27.2529 57.1203 27.0023 57.3592Z" fill="#25272E"/>
<circle cx="141.5" cy="63.5" r="2.5" fill="#03948C"/>
<circle cx="154.5" cy="63.5" r="4" fill="#03948C"/>
<circle cx="167.5" cy="63.5" r="2.5" fill="#CEE1E5"/>
<circle cx="180.5" cy="63.5" r="2.5" fill="#CEE1E5"/>
<circle cx="193.5" cy="63.5" r="2.5" fill="#CEE1E5"/>
<circle cx="206.5" cy="63.5" r="2.5" fill="#CEE1E5"/>
<circle cx="219.5" cy="63.5" r="2.5" fill="#CEE1E5"/>
<circle cx="232.5" cy="63.5" r="2.5" fill="#CEE1E5"/>
</g>
<path fill-rule="evenodd" clip-rule="evenodd" d="M121 800.5C121 799.119 122.119 798 123.5 798H252.5C253.881 798 255 799.119 255 800.5V800.5C255 801.881 253.881 803 252.5 803H123.5C122.119 803 121 801.881 121 800.5V800.5Z" fill="black"/>
</g>
<defs>
<filter id="filter0_d" x="0" y="414" width="506" height="212" filterUnits="userSpaceOnUse" color-interpolation-filters="sRGB">
<feFlood flood-opacity="0" result="BackgroundImageFix"/>
<feColorMatrix in="SourceAlpha" type="matrix" values="0 0 0 0 0 0 0 0 0 0 0 0 0 0 0 0 0 0 127 0"/>
<feOffset/>
<feGaussianBlur stdDeviation="8"/>
<feColorMatrix type="matrix" values="0 0 0 0 0.121569 0 0 0 0 0.145098 0 0 0 0 0.2 0 0 0 0.08 0"/>
<feBlend mode="normal" in2="BackgroundImageFix" result="effect1_dropShadow"/>
<feBlend mode="normal" in="SourceGraphic" in2="effect1_dropShadow" result="shape"/>
</filter>
<filter id="filter1_d" x="180" y="618" width="195" height="76" filterUnits="userSpaceOnUse" color-interpolation-filters="sRGB">
<feFlood flood-opacity="0" result="BackgroundImageFix"/>
<feColorMatrix in="SourceAlpha" type="matrix" values="0 0 0 0 0 0 0 0 0 0 0 0 0 0 0 0 0 0 127 0"/>
<feOffset/>
<feGaussianBlur stdDeviation="8"/>
<feColorMatrix type="matrix" values="0 0 0 0 0.121569 0 0 0 0 0.145098 0 0 0 0 0.2 0 0 0 0.08 0"/>
<feBlend mode="normal" in2="BackgroundImageFix" result="effect1_dropShadow"/>
<feBlend mode="normal" in="SourceGraphic" in2="effect1_dropShadow" result="shape"/>
</filter>
<filter id="filter2_d" x="287" y="694" width="88" height="88" filterUnits="userSpaceOnUse" color-interpolation-filters="sRGB">
<feFlood flood-opacity="0" result="BackgroundImageFix"/>
<feColorMatrix in="SourceAlpha" type="matrix" values="0 0 0 0 0 0 0 0 0 0 0 0 0 0 0 0 0 0 127 0"/>
<feOffset/>
<feGaussianBlur stdDeviation="8"/>
<feColorMatrix type="matrix" values="0 0 0 0 0.121569 0 0 0 0 0.145098 0 0 0 0 0.2 0 0 0 0.08 0"/>
<feBlend mode="multiply" in2="BackgroundImageFix" result="effect1_dropShadow"/>
<feBlend mode="normal" in="SourceGraphic" in2="effect1_dropShadow" result="shape"/>
</filter>
<filter id="filter3_b" x="-16" y="-16" width="407" height="120" filterUnits="userSpaceOnUse" color-interpolation-filters="sRGB">
<feFlood flood-opacity="0" result="BackgroundImageFix"/>
<feGaussianBlur in="BackgroundImage" stdDeviation="8"/>
<feComposite in2="SourceAlpha" operator="in" result="effect1_backgroundBlur"/>
<feBlend mode="normal" in="SourceGraphic" in2="effect1_backgroundBlur" result="shape"/>
</filter>
<linearGradient id="paint0_linear" x1="111.5" y1="110.676" x2="301.652" y2="779.548" gradientUnits="userSpaceOnUse">
<stop stop-color="#E4F0F0" stop-opacity="0"/>
<stop offset="1" stop-color="#E4F0F0"/>
</linearGradient>
<clipPath id="clip0">
<rect width="375" height="812" fill="white"/>
</clipPath>
</defs>
</svg>
