<svg xmlns="http://www.w3.org/2000/svg" width="375" height="812" fill="none" viewBox="0 0 375 812">
  <g clip-path="url(#clip0)">
    <path fill="#fff" d="M0 0h375v812H0z"/>
    <path fill="url(#paint0_linear)" d="M0 88h375v724H0z"/>
    <path fill="#25272E" d="M19.4 7l2.9 9.4h.1L25.3 7h2.8l2.9 9.4h.1L34 7h3.1l-4.6 14h-2.9l-2.84-9.1h-.12L23.8 21h-2.9L16.3 7h3.1zm21.716 5.6h.1c.306-.44.706-.813 1.2-1.12a3.118 3.118 0 011.7-.48c.666 0 1.273.173 1.82.52.546.333.98.813 1.3 1.44.32.613.48 1.327.48 2.14V21h-2.7v-5.5c0-.6-.16-1.067-.48-1.4-.32-.333-.76-.5-1.32-.5-.6 0-1.1.207-1.5.62-.4.413-.6.94-.6 1.58V21h-2.7V7h2.7v5.6zm8.592 3.5c0-.92.227-1.767.68-2.54a5.087 5.087 0 011.9-1.86c.8-.467 1.673-.7 2.62-.7.947 0 1.82.233 2.62.7a4.939 4.939 0 011.88 1.86c.466.773.7 1.62.7 2.54 0 .92-.233 1.773-.7 2.56a5.135 5.135 0 01-1.88 1.86c-.8.453-1.673.68-2.62.68-.947 0-1.82-.227-2.62-.68a5.295 5.295 0 01-1.9-1.86 5.04 5.04 0 01-.68-2.56zm5.2 2.6c.706 0 1.3-.247 1.78-.74s.72-1.113.72-1.86c0-.747-.24-1.367-.72-1.86-.48-.493-1.074-.74-1.78-.74-.707 0-1.3.247-1.78.74s-.72 1.113-.72 1.86c0 .747.24 1.367.72 1.86.48.493 1.073.74 1.78.74zm14.506-6.1h.1c.307-.44.707-.813 1.2-1.12a3.117 3.117 0 011.7-.48c.667 0 1.273.173 1.82.52.547.333.98.813 1.3 1.44.32.613.48 1.327.48 2.14V21h-2.7v-5.5c0-.6-.16-1.067-.48-1.4-.32-.333-.76-.5-1.32-.5-.6 0-1.1.207-1.5.62-.4.413-.6.94-.6 1.58V21h-2.7v-9.8h2.7v1.4zm17.995 7.46c-.454.32-1.047.593-1.78.82-.734.213-1.54.32-2.42.32-.947 0-1.82-.227-2.62-.68a5.295 5.295 0 01-1.9-1.86 5.04 5.04 0 01-.68-2.56c0-.92.226-1.767.68-2.54a5.181 5.181 0 011.86-1.86c.786-.467 1.64-.7 2.56-.7.88 0 1.693.22 2.44.66.76.44 1.36 1.04 1.8 1.8.44.747.66 1.56.66 2.44 0 .44-.034.84-.1 1.2h-7.1c.16.493.453.9.88 1.22.44.32 1.013.48 1.72.48.56 0 1.06-.06 1.5-.18.453-.133.82-.287 1.1-.46l1.4 1.9zm-2.2-4.96c-.16-.48-.44-.88-.84-1.2-.387-.333-.84-.5-1.36-.5-.52 0-.98.167-1.38.5-.387.32-.66.72-.82 1.2h4.4zm13.606 4.96c-.453.32-1.047.593-1.78.82-.733.213-1.54.32-2.42.32-.947 0-1.82-.227-2.62-.68a5.295 5.295 0 01-1.9-1.86 5.04 5.04 0 01-.68-2.56c0-.92.226-1.767.68-2.54a5.181 5.181 0 011.86-1.86c.787-.467 1.64-.7 2.56-.7.88 0 1.693.22 2.44.66.76.44 1.36 1.04 1.8 1.8.44.747.66 1.56.66 2.44 0 .44-.034.84-.1 1.2h-7.1c.16.493.453.9.88 1.22.44.32 1.013.48 1.72.48.56 0 1.06-.06 1.5-.18.453-.133.82-.287 1.1-.46l1.4 1.9zm-2.2-4.96c-.16-.48-.44-.88-.84-1.2-.387-.333-.84-.5-1.36-.5-.52 0-.98.167-1.38.5-.387.32-.66.72-.82 1.2h4.4zm11.706 4.5c-.307.44-.727.82-1.26 1.14-.533.307-1.147.46-1.84.46-.773 0-1.5-.22-2.18-.66-.667-.44-1.207-1.047-1.62-1.82-.4-.773-.6-1.647-.6-2.62 0-.973.2-1.847.6-2.62.413-.773.953-1.38 1.62-1.82.68-.44 1.407-.66 2.18-.66.693 0 1.307.16 1.84.48.533.307.953.68 1.26 1.12h.1V7h2.7v14h-2.7v-1.4h-.1zm-2.3-.9c.707 0 1.3-.247 1.78-.74s.72-1.113.72-1.86c0-.747-.24-1.367-.72-1.86-.48-.493-1.073-.74-1.78-.74-.707 0-1.3.247-1.78.74s-.72 1.113-.72 1.86c0 .747.24 1.367.72 1.86.48.493 1.073.74 1.78.74zm8.402-1c.307.307.687.567 1.14.78.454.213.94.32 1.46.32.8 0 1.2-.233 1.2-.7 0-.187-.126-.34-.38-.46-.24-.133-.626-.287-1.16-.46a20.122 20.122 0 01-1.74-.68 3.806 3.806 0 01-1.22-.94c-.333-.413-.5-.933-.5-1.56 0-.547.154-1.047.46-1.5.307-.453.754-.813 1.34-1.08.6-.28 1.3-.42 2.1-.42.814 0 1.547.147 2.2.44.667.293 1.2.647 1.6 1.06l-1.6 1.7a2.79 2.79 0 00-.94-.56 3.258 3.258 0 00-1.26-.24c-.333 0-.586.06-.76.18-.16.12-.24.26-.24.42 0 .187.12.347.36.48.254.12.647.267 1.18.44.694.24 1.274.473 1.74.7a3.27 3.27 0 011.2.94c.347.4.52.913.52 1.54 0 .573-.16 1.1-.48 1.58-.306.467-.773.84-1.4 1.12-.613.267-1.353.4-2.22.4-.88 0-1.686-.173-2.42-.52-.733-.347-1.326-.773-1.78-1.28l1.6-1.7zm21.811 1.5c-.4.56-.953 1.033-1.66 1.42-.706.387-1.52.58-2.44.58-.946 0-1.82-.227-2.62-.68a5.298 5.298 0 01-1.9-1.86 5.043 5.043 0 01-.68-2.56c0-.92.227-1.767.68-2.54a5.09 5.09 0 011.9-1.86 5.11 5.11 0 012.62-.7c.92 0 1.734.193 2.44.58.707.387 1.26.86 1.66 1.42l-1.7 1.7a3.267 3.267 0 00-1.04-.84 2.658 2.658 0 00-1.36-.36c-.706 0-1.3.247-1.78.74s-.72 1.113-.72 1.86c0 .747.24 1.367.72 1.86.48.493 1.074.74 1.78.74.494 0 .947-.113 1.36-.34.427-.24.774-.527 1.04-.86l1.7 1.7zm.896-3.1c0-.92.226-1.767.68-2.54a5.082 5.082 0 011.9-1.86c.8-.467 1.673-.7 2.62-.7.946 0 1.82.233 2.62.7a4.943 4.943 0 011.88 1.86c.466.773.7 1.62.7 2.54 0 .92-.234 1.773-.7 2.56a5.14 5.14 0 01-1.88 1.86c-.8.453-1.674.68-2.62.68-.947 0-1.82-.227-2.62-.68a5.29 5.29 0 01-1.9-1.86 5.033 5.033 0 01-.68-2.56zm5.2 2.6c.706 0 1.3-.247 1.78-.74s.72-1.113.72-1.86c0-.747-.24-1.367-.72-1.86-.48-.493-1.074-.74-1.78-.74-.707 0-1.3.247-1.78.74s-.72 1.113-.72 1.86c0 .747.24 1.367.72 1.86.48.493 1.073.74 1.78.74zm8.697-7.5l2.26 6.6h.08l2.26-6.6h2.9l-3.7 9.8h-3l-3.7-9.8h2.9zm17.495 8.86c-.453.32-1.047.593-1.78.82a8.64 8.64 0 01-2.42.32c-.947 0-1.82-.227-2.62-.68a5.298 5.298 0 01-1.9-1.86 5.043 5.043 0 01-.68-2.56c0-.92.227-1.767.68-2.54a5.186 5.186 0 011.86-1.86 4.93 4.93 0 012.56-.7c.88 0 1.693.22 2.44.66.76.44 1.36 1.04 1.8 1.8.44.747.66 1.56.66 2.44 0 .44-.033.84-.1 1.2h-7.1c.16.493.453.9.88 1.22.44.32 1.013.48 1.72.48.56 0 1.06-.06 1.5-.18.453-.133.82-.287 1.1-.46l1.4 1.9zm-2.2-4.96c-.16-.48-.44-.88-.84-1.2-.387-.333-.84-.5-1.36-.5-.52 0-.98.167-1.38.5-.387.32-.66.72-.82 1.2h4.4zm7.506-2.8h.1c.187-.307.487-.567.9-.78.413-.213.933-.32 1.56-.32h.64v2.6h-.9c-.667 0-1.22.24-1.66.72-.427.467-.64 1.093-.64 1.88V21h-2.7v-9.8h2.7v1.1zm10.298 7.5c-.307.387-.714.72-1.22 1-.494.267-1.054.4-1.68.4-.894 0-1.62-.26-2.18-.78-.547-.533-.82-1.207-.82-2.02 0-.827.26-1.533.78-2.12.533-.587 1.24-.927 2.12-1.02l3.1-.3c-.054-.4-.234-.76-.54-1.08-.307-.32-.694-.48-1.16-.48-.454 0-.874.053-1.26.16-.387.093-.7.207-.94.34l-1.6-1.6c.426-.36.986-.667 1.68-.92.693-.253 1.466-.38 2.32-.38.813 0 1.54.173 2.18.52.64.333 1.133.8 1.48 1.4.36.587.54 1.247.54 1.98V21h-2.7v-1.2h-.1zm-2.1-2.86c-.334.013-.6.127-.8.34-.2.213-.3.453-.3.72 0 .307.1.553.3.74.213.173.513.26.9.26.626 0 1.133-.167 1.52-.5.386-.333.58-.813.58-1.44v-.2l-2.2.08zm8.708 4.9c.306.24.686.44 1.14.6.453.173.94.26 1.46.26.76 0 1.38-.253 1.86-.76.493-.493.74-1.14.74-1.94v-.8h-.1c-.28.44-.68.82-1.2 1.14-.507.307-1.107.46-1.8.46a3.824 3.824 0 01-2.08-.62c-.64-.427-1.154-1.013-1.54-1.76-.387-.747-.58-1.587-.58-2.52s.193-1.773.58-2.52c.386-.747.9-1.327 1.54-1.74.653-.427 1.346-.64 2.08-.64.693 0 1.293.16 1.8.48.52.307.92.68 1.2 1.12h.1v-1.4h2.7V20c0 .987-.227 1.873-.68 2.66a4.73 4.73 0 01-1.9 1.86c-.8.453-1.707.68-2.72.68-.947 0-1.794-.16-2.54-.48-.747-.32-1.334-.713-1.76-1.18l1.7-1.7zm2.9-3.54c.653 0 1.2-.227 1.64-.68.44-.453.66-1.027.66-1.72 0-.693-.22-1.267-.66-1.72-.44-.453-.987-.68-1.64-.68-.654 0-1.2.227-1.64.68-.44.453-.66 1.027-.66 1.72 0 .693.22 1.267.66 1.72.44.453.986.68 1.64.68zm16.392 1.76c-.454.32-1.047.593-1.78.82-.734.213-1.54.32-2.42.32-.947 0-1.82-.227-2.62-.68a5.29 5.29 0 01-1.9-1.86 5.033 5.033 0 01-.68-2.56c0-.92.226-1.767.68-2.54a5.17 5.17 0 011.86-1.86c.786-.467 1.64-.7 2.56-.7.88 0 1.693.22 2.44.66.76.44 1.36 1.04 1.8 1.8.44.747.66 1.56.66 2.44 0 .44-.034.84-.1 1.2h-7.1c.16.493.453.9.88 1.22.44.32 1.013.48 1.72.48.56 0 1.06-.06 1.5-.18.453-.133.82-.287 1.1-.46l1.4 1.9zm-2.2-4.96c-.16-.48-.44-.88-.84-1.2-.387-.333-.84-.5-1.36-.5-.52 0-.98.167-1.38.5-.387.32-.66.72-.82 1.2h4.4zm7.306 1.6c-.133-.28-.2-.58-.2-.9 0-.667.18-1.213.54-1.64.36-.44.873-.893 1.54-1.36.493-.347.853-.64 1.08-.88.227-.24.34-.513.34-.82 0-.373-.167-.7-.5-.98-.333-.28-.767-.42-1.3-.42-.587 0-1.093.16-1.52.48-.427.307-.753.68-.98 1.12l-2.6-1.2c.36-.92.973-1.7 1.84-2.34.867-.64 1.953-.96 3.26-.96 1 0 1.88.187 2.64.56.76.373 1.34.873 1.74 1.5.413.627.62 1.307.62 2.04 0 .573-.107 1.073-.32 1.5-.2.413-.447.76-.74 1.04-.293.267-.673.573-1.14.92-.573.413-1 .787-1.28 1.12-.28.32-.42.727-.42 1.22h-2.6zm-.4 2.9c0-.453.153-.833.46-1.14a1.55 1.55 0 011.14-.46c.453 0 .833.153 1.14.46.307.307.46.687.46 1.14 0 .453-.153.833-.46 1.14a1.55 1.55 0 01-1.14.46 1.55 1.55 0 01-1.14-.46 1.547 1.547 0 01-.46-1.14z"/>
    <g filter="url(#filter0_d)">
      <rect width="343" height="180" x="16" y="61" fill="#fff" rx="24"/>
      <circle cx="52" cy="101" r="20" fill="#E4F0F0"/>
      <path fill="#678085" d="M38.48 115.739c2.162-5.057 6.683-8.489 13.52-8.489s11.358 3.432 13.52 8.489A19.928 19.928 0 0152 121c-5.213 0-9.96-1.994-13.52-5.261zM59.5 96a7.5 7.5 0 11-15 0 7.5 7.5 0 1115 0z"/>
      <path fill="#25272E" d="M92.05 96.4l4.32 5.4 4.32-5.4h2.43V109h-2.7v-8.28l-4.05 5.04-4.05-5.04V109h-2.7V96.4h2.43zm14.304 14.04c.732 0 1.242-.36 1.53-1.08l.18-.45-3.42-8.73h2.61l2.07 5.85h.09l1.98-5.85h2.61l-3.6 9.54c-.384 1.02-.852 1.782-1.404 2.286-.552.516-1.224.774-2.016.774h-1.62v-2.34h.99zm9.266-4.41c.276.276.618.51 1.026.702.408.192.846.288 1.314.288.72 0 1.08-.21 1.08-.63 0-.168-.114-.306-.342-.414-.216-.12-.564-.258-1.044-.414a18.023 18.023 0 01-1.566-.612 3.415 3.415 0 01-1.098-.846c-.3-.372-.45-.84-.45-1.404 0-.492.138-.942.414-1.35.276-.408.678-.732 1.206-.972.54-.252 1.17-.378 1.89-.378.732 0 1.392.132 1.98.396.6.264 1.08.582 1.44.954l-1.44 1.53a2.514 2.514 0 00-.846-.504 2.937 2.937 0 00-1.134-.216c-.3 0-.528.054-.684.162-.144.108-.216.234-.216.378 0 .168.108.312.324.432.228.108.582.24 1.062.396.624.216 1.146.426 1.566.63.42.192.78.474 1.08.846.312.36.468.822.468 1.386 0 .516-.144.99-.432 1.422-.276.42-.696.756-1.26 1.008-.552.24-1.218.36-1.998.36a5.031 5.031 0 01-2.178-.468c-.66-.312-1.194-.696-1.602-1.152l1.44-1.53zm15.572 2.124c-.408.288-.942.534-1.602.738a7.777 7.777 0 01-2.178.288 4.701 4.701 0 01-2.358-.612 4.765 4.765 0 01-1.71-1.674 4.535 4.535 0 01-.612-2.304c0-.828.204-1.59.612-2.286a4.663 4.663 0 011.674-1.674 4.436 4.436 0 012.304-.63c.792 0 1.524.198 2.196.594a4.372 4.372 0 011.62 1.62c.396.672.594 1.404.594 2.196 0 .396-.03.756-.09 1.08h-6.39c.144.444.408.81.792 1.098.396.288.912.432 1.548.432a5.14 5.14 0 001.35-.162c.408-.12.738-.258.99-.414l1.26 1.71zm-1.98-4.464a2.28 2.28 0 00-.756-1.08c-.348-.3-.756-.45-1.224-.45-.468 0-.882.15-1.242.45a2.331 2.331 0 00-.738 1.08h3.96zm6.845-7.29V109h-2.43V96.4h2.43zm1.627 3.96h1.35v-.9c0-1.02.264-1.812.792-2.376.54-.576 1.266-.864 2.178-.864h1.62v2.34h-.99c-.36 0-.648.114-.864.342-.204.216-.306.522-.306.918v.54h1.98v2.25h-1.98V109h-2.43v-6.39h-1.35v-2.25z"/>
      <circle cx="331" cy="89" r="12" fill="#F1F3F5" style="mix-blend-mode:multiply"/>
      <path fill="#25272E" fill-rule="evenodd" d="M332.934 92.065a.8.8 0 001.132-1.132L332.131 89l1.935-1.934a.8.8 0 00-1.131-1.132L331 87.868l-1.934-1.934a.8.8 0 00-1.132 1.13L329.869 89l-1.934 1.934a.799.799 0 101.131 1.132L331 90.13l1.934 1.934z" clip-rule="evenodd"/>
      <g>
        <path fill="#25272E" d="M37.74 147.2l3.92 9.8h-1.61l-.98-2.52h-4.34l-.98 2.52h-1.61l3.92-9.8h1.68zm-.84 1.82l-1.61 4.06h3.22l-1.61-4.06zm6.653 8.75c.214.233.485.429.812.588.326.168.686.252 1.078.252.634 0 1.143-.196 1.526-.588.382-.392.574-.919.574-1.582v-.63a2.686 2.686 0 01-.882.742 2.632 2.632 0 01-1.288.308 2.797 2.797 0 01-1.498-.434 3.21 3.21 0 01-1.106-1.204 3.633 3.633 0 01-.406-1.722c0-.635.135-1.209.406-1.722a3.21 3.21 0 011.106-1.204 2.797 2.797 0 011.498-.434c.485 0 .914.103 1.288.308.373.205.667.453.882.742v-.91h1.4v6.16c0 .672-.15 1.274-.448 1.806a3.2 3.2 0 01-1.246 1.246c-.532.299-1.134.448-1.806.448a3.817 3.817 0 01-1.68-.364c-.495-.243-.892-.541-1.19-.896l.98-.91zm2.1-2.24c.345 0 .662-.084.952-.252.29-.177.518-.42.686-.728.168-.308.252-.658.252-1.05s-.084-.742-.252-1.05a1.805 1.805 0 00-.686-.714 1.79 1.79 0 00-.952-.266 1.79 1.79 0 00-.952.266c-.29.168-.518.406-.686.714a2.157 2.157 0 00-.252 1.05c0 .392.084.742.252 1.05.168.308.396.551.686.728.29.168.606.252.952.252zm11.2.518c-.28.308-.666.569-1.161.784-.495.205-1.064.308-1.708.308a3.533 3.533 0 01-1.778-.462 3.4 3.4 0 01-1.26-1.26 3.532 3.532 0 01-.462-1.778c0-.644.154-1.232.462-1.764a3.434 3.434 0 011.246-1.26 3.259 3.259 0 011.722-.476c.625 0 1.185.145 1.68.434.504.28.896.672 1.176 1.176.29.495.434 1.055.434 1.68 0 .261-.023.495-.07.7h-5.18c.075.467.308.863.7 1.19.392.327.858.49 1.4.49.392 0 .756-.07 1.092-.21.345-.149.635-.327.868-.532l.84.98zm-1.12-3.108c-.111-.467-.326-.84-.643-1.12-.308-.28-.7-.42-1.176-.42-.504 0-.92.14-1.246.42-.327.271-.565.644-.714 1.12h3.78z"/>
        <path fill="#fff" d="M32 185c0-6.627 5.373-12 12-12h79c6.627 0 12 5.373 12 12v24c0 6.627-5.373 12-12 12H44c-6.627 0-12-5.373-12-12v-24z"/>
        <path fill="#F1F3F5" fill-rule="evenodd" d="M123 174H44c-6.075 0-11 4.925-11 11v24c0 6.075 4.925 11 11 11h79c6.075 0 11-4.925 11-11v-24c0-6.075-4.925-11-11-11zm-79-1c-6.627 0-12 5.373-12 12v24c0 6.627 5.373 12 12 12h79c6.627 0 12-5.373 12-12v-24c0-6.627-5.373-12-12-12H44z" clip-rule="evenodd" style="mix-blend-mode:multiply"/>
        <path fill="#25272E" d="M53.9 200.6c.333.44.793.82 1.38 1.14.6.307 1.273.46 2.02.46.88 0 1.567-.213 2.06-.64.493-.44.74-.993.74-1.66 0-.627-.253-1.147-.76-1.56-.493-.427-1.173-.64-2.04-.64h-1.5v-2.1h1.5c.733 0 1.3-.173 1.7-.52.4-.347.6-.807.6-1.38 0-.573-.2-1.033-.6-1.38-.4-.347-.967-.52-1.7-.52-.627 0-1.2.14-1.72.42-.52.267-.947.593-1.28.98l-1.5-1.5c.493-.533 1.127-.98 1.9-1.34.787-.373 1.653-.56 2.6-.56.907 0 1.7.167 2.38.5.68.333 1.2.787 1.56 1.36.373.56.56 1.173.56 1.84 0 .747-.207 1.387-.62 1.92-.4.533-.893.927-1.48 1.18a4.26 4.26 0 011.84 1.26c.507.573.76 1.287.76 2.14 0 .773-.207 1.48-.62 2.12-.4.64-.98 1.147-1.74 1.52s-1.64.56-2.64.56c-1.08 0-2.047-.2-2.9-.6-.84-.413-1.507-.913-2-1.5l1.5-1.5zm16.309 3.6c-1.08 0-2.06-.28-2.94-.84-.88-.573-1.58-1.4-2.1-2.48-.507-1.093-.76-2.387-.76-3.88 0-1.493.253-2.78.76-3.86.52-1.093 1.22-1.92 2.1-2.48.88-.573 1.86-.86 2.94-.86 1.08 0 2.06.287 2.94.86.88.56 1.573 1.387 2.08 2.48.52 1.08.78 2.367.78 3.86 0 1.493-.26 2.787-.78 3.88-.507 1.08-1.2 1.907-2.08 2.48-.88.56-1.86.84-2.94.84zm3.6-7.2c0-1.12-.167-2.067-.5-2.84-.32-.787-.754-1.373-1.3-1.76-.547-.4-1.147-.6-1.8-.6-.654 0-1.254.2-1.8.6-.547.387-.987.973-1.32 1.76-.32.773-.48 1.72-.48 2.84 0 1.12.16 2.073.48 2.86.333.773.773 1.36 1.32 1.76.546.387 1.146.58 1.8.58.653 0 1.253-.193 1.8-.58.546-.4.98-.987 1.3-1.76.333-.787.5-1.74.5-2.86z"/>
      </g>
      <g>
        <path fill="#25272E" fill-rule="evenodd" d="M180 190h-2c-1.914 0-3.249.002-4.256.138-.978.131-1.496.372-1.865.741s-.61.887-.741 1.865c-.136 1.007-.138 2.342-.138 4.256v2c0 1.914.002 3.249.138 4.256.131.978.372 1.496.741 1.865s.887.61 1.865.741c1.007.136 2.342.138 4.256.138h2c1.914 0 3.249-.002 4.256-.138.978-.131 1.496-.372 1.865-.741s.61-.887.741-1.865c.136-1.007.138-2.342.138-4.256v-2c0-1.914-.002-3.249-.138-4.256-.131-.978-.372-1.496-.741-1.865s-.887-.61-1.865-.741c-1.007-.136-2.342-.138-4.256-.138zm-8.828.172C170 191.343 170 193.229 170 197v2c0 3.771 0 5.657 1.172 6.828C172.343 207 174.229 207 178 207h2c3.771 0 5.657 0 6.828-1.172C188 204.657 188 202.771 188 199v-2c0-3.771 0-5.657-1.172-6.828C185.657 189 183.771 189 180 189h-2c-3.771 0-5.657 0-6.828 1.172z" clip-rule="evenodd"/>
        <path fill="#25272E" d="M201.72 198.6c0 .661.144 1.253.432 1.776a3.29 3.29 0 001.216 1.232 3.432 3.432 0 001.712.432c.629 0 1.2-.144 1.712-.432a3.172 3.172 0 001.2-1.232c.299-.523.448-1.115.448-1.776v-6.8h1.2v6.8a4.522 4.522 0 01-4.56 4.56 4.522 4.522 0 01-4.56-4.56v-6.8h1.2v6.8zm10.796 2.4c.214.309.496.576.848.8.352.213.736.32 1.152.32.544 0 .96-.117 1.248-.352.288-.245.432-.555.432-.928a.878.878 0 00-.448-.8c-.288-.181-.725-.357-1.312-.528-.522-.16-.944-.309-1.264-.448a2.314 2.314 0 01-.8-.64c-.224-.288-.336-.656-.336-1.104 0-.373.107-.725.32-1.056.224-.331.528-.597.912-.8a2.863 2.863 0 011.328-.304c.523 0 .998.101 1.424.304.438.203.79.448 1.056.736l-.8.8a1.963 1.963 0 00-.704-.56 1.974 1.974 0 00-.976-.24c-.426 0-.773.112-1.04.336-.266.224-.4.485-.4.784a.83.83 0 00.416.752c.278.16.71.325 1.296.496.523.16.944.315 1.264.464.331.149.608.373.832.672.235.288.352.667.352 1.136 0 .427-.112.816-.336 1.168-.224.352-.549.635-.976.848-.426.203-.922.304-1.488.304-.629 0-1.184-.128-1.664-.384-.48-.267-.858-.592-1.136-.976l.8-.8zm13.275.848c-.341.363-.789.672-1.344.928-.554.256-1.173.384-1.856.384a3.722 3.722 0 01-1.92-.528 4.103 4.103 0 01-1.408-1.456 4.05 4.05 0 01-.512-2.016c0-.725.171-1.392.512-2a3.969 3.969 0 011.392-1.456 3.42 3.42 0 011.856-.544c.683 0 1.307.165 1.872.496a3.502 3.502 0 011.328 1.376c.32.576.48 1.232.48 1.968 0 .203-.026.395-.08.576l-6.24-.016c.022.448.16.869.416 1.264a2.9 2.9 0 00.992.944c.406.235.843.352 1.312.352.534 0 1.014-.096 1.44-.288a3.294 3.294 0 001.04-.704l.72.72zm-.72-3.248c-.085-.693-.368-1.264-.848-1.712a2.356 2.356 0 00-1.712-.688c-.437 0-.848.112-1.232.336a2.803 2.803 0 00-.96.88 2.692 2.692 0 00-.448 1.184h5.2zm3.195 2.4c.214.309.496.576.848.8.352.213.736.32 1.152.32.544 0 .96-.117 1.248-.352.288-.245.432-.555.432-.928a.878.878 0 00-.448-.8c-.288-.181-.725-.357-1.312-.528-.522-.16-.944-.309-1.264-.448a2.314 2.314 0 01-.8-.64c-.224-.288-.336-.656-.336-1.104 0-.373.107-.725.32-1.056.224-.331.528-.597.912-.8a2.863 2.863 0 011.328-.304c.523 0 .998.101 1.424.304.438.203.79.448 1.056.736l-.8.8a1.963 1.963 0 00-.704-.56 1.974 1.974 0 00-.976-.24c-.426 0-.773.112-1.04.336-.266.224-.4.485-.4.784a.83.83 0 00.416.752c.278.16.71.325 1.296.496.523.16.944.315 1.264.464.331.149.608.373.832.672.235.288.352.667.352 1.136 0 .427-.112.816-.336 1.168-.224.352-.549.635-.976.848-.426.203-.922.304-1.488.304-.629 0-1.184-.128-1.664-.384-.48-.267-.858-.592-1.136-.976l.8-.8zm9.589-5.68h1.44v-2.56h1.12v2.56h2.08v1.04h-2.08v4.56c0 .384.085.656.256.816.181.149.443.224.784.224h1.04V203h-1.088c-.672 0-1.195-.171-1.568-.512-.363-.341-.544-.864-.544-1.568v-4.56h-1.44v-1.04zm9.769 7.84a3.81 3.81 0 01-1.968-.528 4.056 4.056 0 01-1.424-1.456 3.951 3.951 0 01-.528-2.016c0-.736.176-1.408.528-2.016a3.926 3.926 0 011.424-1.44 3.72 3.72 0 011.968-.544c.715 0 1.371.181 1.968.544a3.918 3.918 0 011.424 1.44c.352.608.528 1.28.528 2.016s-.176 1.408-.528 2.016a4.047 4.047 0 01-1.424 1.456 3.804 3.804 0 01-1.968.528zm0-1.04c.502 0 .966-.128 1.392-.384a2.992 2.992 0 001.408-2.576c0-.544-.128-1.04-.384-1.488a2.825 2.825 0 00-1.024-1.072 2.57 2.57 0 00-1.392-.4c-.501 0-.965.133-1.392.4a2.833 2.833 0 00-1.024 1.072 2.946 2.946 0 00-.384 1.488c0 .544.128 1.045.384 1.504a3 3 0 001.024 1.072c.427.256.891.384 1.392.384zm7.122-5.68c.266-.352.629-.651 1.088-.896a3.128 3.128 0 011.552-.384c.682 0 1.312.176 1.888.528a3.642 3.642 0 011.36 1.424c.341.608.512 1.291.512 2.048 0 .757-.171 1.44-.512 2.048a3.761 3.761 0 01-1.36 1.44 3.641 3.641 0 01-1.888.512 3.24 3.24 0 01-1.552-.368c-.459-.256-.822-.56-1.088-.912V203h-1.12v-11.2h1.12v4.64zm2.64 5.68c.48 0 .922-.123 1.328-.368a2.71 2.71 0 00.96-1.056c.234-.448.352-.96.352-1.536 0-.576-.118-1.088-.352-1.536a2.591 2.591 0 00-.96-1.04 2.44 2.44 0 00-1.328-.384c-.448 0-.88.133-1.296.4a2.786 2.786 0 00-.976 1.072 3.04 3.04 0 00-.368 1.488c0 .544.122 1.045.368 1.504.245.448.57.805.976 1.072a2.44 2.44 0 001.296.384zm10.393-.16c-.245.331-.581.613-1.008.848-.426.235-.917.352-1.472.352a3.01 3.01 0 01-1.392-.32 2.59 2.59 0 01-.976-.832c-.234-.352-.352-.715-.352-1.088 0-.651.192-1.184.576-1.6.395-.416.95-.656 1.664-.72l2.96-.256c0-.373-.085-.725-.256-1.056a1.885 1.885 0 00-.688-.784 1.652 1.652 0 00-.976-.304c-.448 0-.858.053-1.232.16-.373.107-.682.24-.928.4l-.72-.72c.32-.245.731-.453 1.232-.624a5.08 5.08 0 011.648-.256c.576 0 1.094.133 1.552.4.47.256.832.608 1.088 1.056.267.448.4.949.4 1.504V203h-1.12v-1.04zm-2.64-2.4c-.469.043-.826.187-1.072.432a1.26 1.26 0 00-.368.928c0 .341.139.629.416.864.288.224.683.336 1.184.336.747 0 1.344-.203 1.792-.608.459-.416.688-.992.688-1.728v-.48l-2.64.256zm12.324 2a4.611 4.611 0 01-1.392 1.136 3.654 3.654 0 01-1.808.464 3.717 3.717 0 01-1.92-.528 4.094 4.094 0 01-1.408-1.456 4.05 4.05 0 01-.512-2.016c0-.736.171-1.408.512-2.016a3.961 3.961 0 011.408-1.44 3.631 3.631 0 011.92-.544c.651 0 1.248.149 1.792.448a4.16 4.16 0 011.328 1.072l-.8.8a3.162 3.162 0 00-.976-.896 2.417 2.417 0 00-1.344-.384c-.48 0-.928.133-1.344.4a2.87 2.87 0 00-1.008 1.072 3.05 3.05 0 00-.368 1.488c0 .544.123 1.045.368 1.504.256.448.592.805 1.008 1.072.416.256.864.384 1.344.384.501 0 .96-.123 1.376-.368a3.7 3.7 0 001.024-.912l.8.72zm8.078 0a4.587 4.587 0 01-1.392 1.136 3.652 3.652 0 01-1.808.464 3.722 3.722 0 01-1.92-.528 4.103 4.103 0 01-1.408-1.456 4.05 4.05 0 01-.512-2.016c0-.736.171-1.408.512-2.016a3.97 3.97 0 011.408-1.44 3.637 3.637 0 011.92-.544c.651 0 1.248.149 1.792.448a4.16 4.16 0 011.328 1.072l-.8.8a3.15 3.15 0 00-.976-.896 2.412 2.412 0 00-1.344-.384c-.48 0-.928.133-1.344.4a2.87 2.87 0 00-1.008 1.072 3.05 3.05 0 00-.368 1.488c0 .544.123 1.045.368 1.504.256.448.592.805 1.008 1.072.416.256.864.384 1.344.384.502 0 .96-.123 1.376-.368.416-.256.758-.56 1.024-.912l.8.72zm4.958 1.6a3.81 3.81 0 01-1.968-.528 4.056 4.056 0 01-1.424-1.456 3.951 3.951 0 01-.528-2.016c0-.736.176-1.408.528-2.016a3.926 3.926 0 011.424-1.44 3.72 3.72 0 011.968-.544c.715 0 1.371.181 1.968.544a3.918 3.918 0 011.424 1.44c.352.608.528 1.28.528 2.016s-.176 1.408-.528 2.016a4.047 4.047 0 01-1.424 1.456 3.804 3.804 0 01-1.968.528zm0-1.04c.502 0 .966-.128 1.392-.384a2.992 2.992 0 001.408-2.576c0-.544-.128-1.04-.384-1.488a2.825 2.825 0 00-1.024-1.072 2.57 2.57 0 00-1.392-.4c-.501 0-.965.133-1.392.4a2.833 2.833 0 00-1.024 1.072 2.946 2.946 0 00-.384 1.488c0 .544.128 1.045.384 1.504a3 3 0 001.024 1.072c.427.256.891.384 1.392.384z"/>
      </g>
    </g>
    <g filter="url(#filter1_d)">
      <rect width="343" height="180" x="16" y="257" fill="#fff" rx="24"/>
      <circle cx="52" cy="297" r="20" fill="#E4F0F0"/>
      <path fill="#678085" d="M38.48 311.739c2.162-5.057 6.683-8.489 13.52-8.489s11.358 3.432 13.52 8.489A19.928 19.928 0 0152 317c-5.213 0-9.96-1.994-13.52-5.261zM59.5 292a7.5 7.5 0 11-15 0 7.5 7.5 0 0115 0z"/>
      <path fill="#25272E" d="M92.05 292.4l4.32 5.4 4.32-5.4h2.43V305h-2.7v-8.28l-4.05 5.04-4.05-5.04V305h-2.7v-12.6h2.43zm14.304 14.04c.732 0 1.242-.36 1.53-1.08l.18-.45-3.42-8.73h2.61l2.07 5.85h.09l1.98-5.85h2.61l-3.6 9.54c-.384 1.02-.852 1.782-1.404 2.286-.552.516-1.224.774-2.016.774h-1.62v-2.34h.99zm13.513-4.95c.324.372.744.69 1.26.954a3.699 3.699 0 001.71.396c.684 0 1.2-.132 1.548-.396.348-.264.522-.612.522-1.044 0-.396-.186-.702-.558-.918-.372-.228-.96-.474-1.764-.738a19.813 19.813 0 01-2.052-.81 3.962 3.962 0 01-1.35-1.152c-.384-.504-.576-1.158-.576-1.962 0-.672.186-1.284.558-1.836.372-.564.906-1.014 1.602-1.35.696-.336 1.506-.504 2.43-.504.912 0 1.734.168 2.466.504.732.324 1.32.726 1.764 1.206l-1.8 1.8a3.506 3.506 0 00-1.026-.756 2.767 2.767 0 00-1.314-.324c-.648 0-1.128.114-1.44.342-.3.228-.45.534-.45.918 0 .396.186.708.558.936.372.216.96.456 1.764.72.84.288 1.518.564 2.034.828.528.252.984.63 1.368 1.134.384.504.576 1.158.576 1.962 0 .696-.198 1.338-.594 1.926-.384.588-.936 1.062-1.656 1.422-.72.348-1.56.522-2.52.522-1.056 0-2.01-.192-2.862-.576-.84-.384-1.506-.852-1.998-1.404l1.8-1.8zm11.969-4.05h.09a3.445 3.445 0 011.134-1.008c.48-.288 1.032-.432 1.656-.432.696 0 1.344.198 1.944.594.612.396 1.098.942 1.458 1.638.372.696.558 1.482.558 2.358 0 .876-.186 1.662-.558 2.358-.36.696-.846 1.242-1.458 1.638-.6.396-1.248.594-1.944.594-.624 0-1.176-.138-1.656-.414-.48-.288-.858-.63-1.134-1.026h-.09v5.04h-2.43v-12.6h2.43v1.26zm2.16 5.49c.636 0 1.17-.222 1.602-.666.432-.444.648-1.002.648-1.674 0-.672-.216-1.23-.648-1.674a2.146 2.146 0 00-1.602-.666c-.636 0-1.17.222-1.602.666-.432.444-.648 1.002-.648 1.674 0 .672.216 1.23.648 1.674.432.444.966.666 1.602.666zm5.945-2.34c0-.828.204-1.59.612-2.286.42-.708.99-1.266 1.71-1.674.72-.42 1.506-.63 2.358-.63.852 0 1.638.21 2.358.63.72.408 1.284.966 1.692 1.674.42.696.63 1.458.63 2.286 0 .828-.21 1.596-.63 2.304a4.62 4.62 0 01-1.692 1.674 4.701 4.701 0 01-2.358.612 4.701 4.701 0 01-2.358-.612 4.765 4.765 0 01-1.71-1.674 4.535 4.535 0 01-.612-2.304zm4.68 2.34c.636 0 1.17-.222 1.602-.666.432-.444.648-1.002.648-1.674 0-.672-.216-1.23-.648-1.674a2.146 2.146 0 00-1.602-.666c-.636 0-1.17.222-1.602.666-.432.444-.648 1.002-.648 1.674 0 .672.216 1.23.648 1.674.432.444.966.666 1.602.666zm8.907-1.8c0 .54.144.96.432 1.26.288.3.684.45 1.188.45.54 0 .99-.186 1.35-.558.36-.372.54-.846.54-1.422v-4.68h2.43V305h-2.43v-1.26h-.09a3.765 3.765 0 01-1.098 1.026 2.805 2.805 0 01-1.512.414c-.6 0-1.146-.15-1.638-.45a3.312 3.312 0 01-1.17-1.296c-.288-.564-.432-1.212-.432-1.944v-5.31h2.43v4.95zm8.815.9c.276.276.618.51 1.026.702.408.192.846.288 1.314.288.72 0 1.08-.21 1.08-.63 0-.168-.114-.306-.342-.414-.216-.12-.564-.258-1.044-.414a18.023 18.023 0 01-1.566-.612 3.415 3.415 0 01-1.098-.846c-.3-.372-.45-.84-.45-1.404 0-.492.138-.942.414-1.35.276-.408.678-.732 1.206-.972.54-.252 1.17-.378 1.89-.378.732 0 1.392.132 1.98.396.6.264 1.08.582 1.44.954l-1.44 1.53a2.514 2.514 0 00-.846-.504 2.937 2.937 0 00-1.134-.216c-.3 0-.528.054-.684.162-.144.108-.216.234-.216.378 0 .168.108.312.324.432.228.108.582.24 1.062.396.624.216 1.146.426 1.566.63.42.192.78.474 1.08.846.312.36.468.822.468 1.386 0 .516-.144.99-.432 1.422-.276.42-.696.756-1.26 1.008-.552.24-1.218.36-1.998.36a5.031 5.031 0 01-2.178-.468c-.66-.312-1.194-.696-1.602-1.152l1.44-1.53zm15.571 2.124c-.408.288-.942.534-1.602.738a7.777 7.777 0 01-2.178.288 4.701 4.701 0 01-2.358-.612 4.765 4.765 0 01-1.71-1.674 4.535 4.535 0 01-.612-2.304c0-.828.204-1.59.612-2.286a4.663 4.663 0 011.674-1.674 4.436 4.436 0 012.304-.63c.792 0 1.524.198 2.196.594a4.372 4.372 0 011.62 1.62c.396.672.594 1.404.594 2.196 0 .396-.03.756-.09 1.08h-6.39c.144.444.408.81.792 1.098.396.288.912.432 1.548.432a5.14 5.14 0 001.35-.162c.408-.12.738-.258.99-.414l1.26 1.71zm-1.98-4.464a2.28 2.28 0 00-.756-1.08c-.348-.3-.756-.45-1.224-.45-.468 0-.882.15-1.242.45a2.331 2.331 0 00-.738 1.08h3.96z"/>
      <circle cx="331" cy="285" r="12" fill="#F1F3F5" style="mix-blend-mode:multiply"/>
      <path fill="#25272E" fill-rule="evenodd" d="M332.934 288.065a.8.8 0 001.132-1.131l-1.935-1.935 1.935-1.934a.8.8 0 00-1.131-1.131L331 283.868l-1.934-1.934a.8.8 0 10-1.132 1.131l1.935 1.934-1.934 1.935a.799.799 0 101.131 1.131l1.934-1.934 1.934 1.934z" clip-rule="evenodd"/>
      <g>
        <path fill="#25272E" d="M37.74 343.2l3.92 9.8h-1.61l-.98-2.52h-4.34l-.98 2.52h-1.61l3.92-9.8h1.68zm-.84 1.82l-1.61 4.06h3.22l-1.61-4.06zm6.653 8.75c.214.233.485.429.812.588.326.168.686.252 1.078.252.634 0 1.143-.196 1.526-.588.382-.392.574-.919.574-1.582v-.63a2.686 2.686 0 01-.882.742 2.632 2.632 0 01-1.288.308 2.797 2.797 0 01-1.498-.434 3.21 3.21 0 01-1.106-1.204 3.633 3.633 0 01-.406-1.722c0-.635.135-1.209.406-1.722a3.21 3.21 0 011.106-1.204 2.797 2.797 0 011.498-.434c.485 0 .914.103 1.288.308.373.205.667.453.882.742v-.91h1.4v6.16c0 .672-.15 1.274-.448 1.806a3.2 3.2 0 01-1.246 1.246c-.532.299-1.134.448-1.806.448a3.817 3.817 0 01-1.68-.364c-.495-.243-.892-.541-1.19-.896l.98-.91zm2.1-2.24c.345 0 .662-.084.952-.252.29-.177.518-.42.686-.728.168-.308.252-.658.252-1.05s-.084-.742-.252-1.05a1.805 1.805 0 00-.686-.714 1.79 1.79 0 00-.952-.266 1.79 1.79 0 00-.952.266c-.29.168-.518.406-.686.714a2.157 2.157 0 00-.252 1.05c0 .392.084.742.252 1.05.168.308.396.551.686.728.29.168.606.252.952.252zm11.2.518c-.28.308-.666.569-1.161.784-.495.205-1.064.308-1.708.308a3.533 3.533 0 01-1.778-.462 3.4 3.4 0 01-1.26-1.26 3.532 3.532 0 01-.462-1.778c0-.644.154-1.232.462-1.764a3.434 3.434 0 011.246-1.26 3.259 3.259 0 011.722-.476c.625 0 1.185.145 1.68.434.504.28.896.672 1.176 1.176.29.495.434 1.055.434 1.68 0 .261-.023.495-.07.7h-5.18c.075.467.308.863.7 1.19.392.327.858.49 1.4.49.392 0 .756-.07 1.092-.21.345-.149.635-.327.868-.532l.84.98zm-1.12-3.108c-.111-.467-.326-.84-.643-1.12-.308-.28-.7-.42-1.176-.42-.504 0-.92.14-1.246.42-.327.271-.565.644-.714 1.12h3.78z"/>
        <path fill="#fff" d="M32 381c0-6.627 5.373-12 12-12h79c6.627 0 12 5.373 12 12v24c0 6.627-5.373 12-12 12H44c-6.627 0-12-5.373-12-12v-24z"/>
        <path fill="#1169F5" fill-rule="evenodd" d="M123 370H44c-6.075 0-11 4.925-11 11v24c0 6.075 4.925 11 11 11h79c6.075 0 11-4.925 11-11v-24c0-6.075-4.925-11-11-11zm-79-1c-6.627 0-12 5.373-12 12v24c0 6.627 5.373 12 12 12h79c6.627 0 12-5.373 12-12v-24c0-6.627-5.373-12-12-12H44z" clip-rule="evenodd"/>
        <path fill="#25272E" d="M53.9 396.6c.333.44.793.82 1.38 1.14.6.307 1.273.46 2.02.46.88 0 1.567-.213 2.06-.64.493-.44.74-.993.74-1.66 0-.627-.253-1.147-.76-1.56-.493-.427-1.173-.64-2.04-.64h-1.5v-2.1h1.5c.733 0 1.3-.173 1.7-.52.4-.347.6-.807.6-1.38 0-.573-.2-1.033-.6-1.38-.4-.347-.967-.52-1.7-.52-.627 0-1.2.14-1.72.42-.52.267-.947.593-1.28.98l-1.5-1.5c.493-.533 1.127-.98 1.9-1.34.787-.373 1.653-.56 2.6-.56.907 0 1.7.167 2.38.5.68.333 1.2.787 1.56 1.36.373.56.56 1.173.56 1.84 0 .747-.207 1.387-.62 1.92-.4.533-.893.927-1.48 1.18a4.26 4.26 0 011.84 1.26c.507.573.76 1.287.76 2.14 0 .773-.207 1.48-.62 2.12-.4.64-.98 1.147-1.74 1.52s-1.64.56-2.64.56c-1.08 0-2.047-.2-2.9-.6-.84-.413-1.507-.913-2-1.5l1.5-1.5zm10.109 3.4c0-1.12.206-2.087.62-2.9.426-.813.933-1.473 1.52-1.98.586-.52 1.346-1.093 2.28-1.72.653-.44 1.16-.8 1.52-1.08.36-.293.66-.62.9-.98.24-.373.36-.787.36-1.24 0-.667-.22-1.2-.66-1.6-.44-.4-1.054-.6-1.84-.6-.694 0-1.267.187-1.72.56-.454.36-.78.807-.98 1.34l-1.8-.8a4.69 4.69 0 011.54-2.26c.76-.627 1.746-.94 2.96-.94.906 0 1.72.193 2.44.58.72.373 1.273.887 1.66 1.54.4.653.6 1.38.6 2.18 0 .747-.167 1.407-.5 1.98-.32.56-.714 1.04-1.18 1.44-.467.387-1.107.853-1.92 1.4-.84.56-1.514 1.053-2.02 1.48a4.953 4.953 0 00-1.18 1.5h6.8v2.1h-9.4z"/>
      </g>
      <g>
        <path fill="#25272E" fill-rule="evenodd" d="M180 386h-2c-1.914 0-3.249.002-4.256.138-.978.131-1.496.372-1.865.741s-.61.887-.741 1.865c-.136 1.007-.138 2.342-.138 4.256v2c0 1.914.002 3.249.138 4.256.131.978.372 1.496.741 1.865s.887.61 1.865.741c1.007.136 2.342.138 4.256.138h2c1.914 0 3.249-.002 4.256-.138.978-.131 1.496-.372 1.865-.741s.61-.887.741-1.865c.136-1.007.138-2.342.138-4.256v-2c0-1.914-.002-3.249-.138-4.256-.131-.978-.372-1.496-.741-1.865s-.887-.61-1.865-.741c-1.007-.136-2.342-.138-4.256-.138zm-8.828.172C170 387.343 170 389.229 170 393v2c0 3.771 0 5.657 1.172 6.828C172.343 403 174.229 403 178 403h2c3.771 0 5.657 0 6.828-1.172C188 400.657 188 398.771 188 395v-2c0-3.771 0-5.657-1.172-6.828C185.657 385 183.771 385 180 385h-2c-3.771 0-5.657 0-6.828 1.172z" clip-rule="evenodd"/>
        <path fill="#25272E" d="M201.72 394.6c0 .661.144 1.253.432 1.776a3.29 3.29 0 001.216 1.232 3.432 3.432 0 001.712.432c.629 0 1.2-.144 1.712-.432a3.172 3.172 0 001.2-1.232c.299-.523.448-1.115.448-1.776v-6.8h1.2v6.8a4.522 4.522 0 01-4.56 4.56 4.522 4.522 0 01-4.56-4.56v-6.8h1.2v6.8zm10.796 2.4c.214.309.496.576.848.8.352.213.736.32 1.152.32.544 0 .96-.117 1.248-.352.288-.245.432-.555.432-.928a.878.878 0 00-.448-.8c-.288-.181-.725-.357-1.312-.528-.522-.16-.944-.309-1.264-.448a2.314 2.314 0 01-.8-.64c-.224-.288-.336-.656-.336-1.104 0-.373.107-.725.32-1.056.224-.331.528-.597.912-.8a2.863 2.863 0 011.328-.304c.523 0 .998.101 1.424.304.438.203.79.448 1.056.736l-.8.8a1.963 1.963 0 00-.704-.56 1.974 1.974 0 00-.976-.24c-.426 0-.773.112-1.04.336-.266.224-.4.485-.4.784a.83.83 0 00.416.752c.278.16.71.325 1.296.496.523.16.944.315 1.264.464.331.149.608.373.832.672.235.288.352.667.352 1.136 0 .427-.112.816-.336 1.168-.224.352-.549.635-.976.848-.426.203-.922.304-1.488.304-.629 0-1.184-.128-1.664-.384-.48-.267-.858-.592-1.136-.976l.8-.8zm13.275.848c-.341.363-.789.672-1.344.928-.554.256-1.173.384-1.856.384a3.722 3.722 0 01-1.92-.528 4.103 4.103 0 01-1.408-1.456 4.05 4.05 0 01-.512-2.016c0-.725.171-1.392.512-2a3.969 3.969 0 011.392-1.456 3.42 3.42 0 011.856-.544c.683 0 1.307.165 1.872.496a3.502 3.502 0 011.328 1.376c.32.576.48 1.232.48 1.968 0 .203-.026.395-.08.576l-6.24-.016c.022.448.16.869.416 1.264a2.9 2.9 0 00.992.944c.406.235.843.352 1.312.352.534 0 1.014-.096 1.44-.288a3.294 3.294 0 001.04-.704l.72.72zm-.72-3.248c-.085-.693-.368-1.264-.848-1.712a2.356 2.356 0 00-1.712-.688c-.437 0-.848.112-1.232.336a2.803 2.803 0 00-.96.88 2.692 2.692 0 00-.448 1.184h5.2zm3.195 2.4c.214.309.496.576.848.8.352.213.736.32 1.152.32.544 0 .96-.117 1.248-.352.288-.245.432-.555.432-.928a.878.878 0 00-.448-.8c-.288-.181-.725-.357-1.312-.528-.522-.16-.944-.309-1.264-.448a2.314 2.314 0 01-.8-.64c-.224-.288-.336-.656-.336-1.104 0-.373.107-.725.32-1.056.224-.331.528-.597.912-.8a2.863 2.863 0 011.328-.304c.523 0 .998.101 1.424.304.438.203.79.448 1.056.736l-.8.8a1.963 1.963 0 00-.704-.56 1.974 1.974 0 00-.976-.24c-.426 0-.773.112-1.04.336-.266.224-.4.485-.4.784a.83.83 0 00.416.752c.278.16.71.325 1.296.496.523.16.944.315 1.264.464.331.149.608.373.832.672.235.288.352.667.352 1.136 0 .427-.112.816-.336 1.168-.224.352-.549.635-.976.848-.426.203-.922.304-1.488.304-.629 0-1.184-.128-1.664-.384-.48-.267-.858-.592-1.136-.976l.8-.8zm9.589-5.68h1.44v-2.56h1.12v2.56h2.08v1.04h-2.08v4.56c0 .384.085.656.256.816.181.149.443.224.784.224h1.04V399h-1.088c-.672 0-1.195-.171-1.568-.512-.363-.341-.544-.864-.544-1.568v-4.56h-1.44v-1.04zm9.769 7.84a3.81 3.81 0 01-1.968-.528 4.056 4.056 0 01-1.424-1.456 3.951 3.951 0 01-.528-2.016c0-.736.176-1.408.528-2.016a3.926 3.926 0 011.424-1.44 3.72 3.72 0 011.968-.544c.715 0 1.371.181 1.968.544a3.918 3.918 0 011.424 1.44c.352.608.528 1.28.528 2.016s-.176 1.408-.528 2.016a4.047 4.047 0 01-1.424 1.456 3.804 3.804 0 01-1.968.528zm0-1.04c.502 0 .966-.128 1.392-.384a2.992 2.992 0 001.408-2.576c0-.544-.128-1.04-.384-1.488a2.825 2.825 0 00-1.024-1.072 2.57 2.57 0 00-1.392-.4c-.501 0-.965.133-1.392.4a2.833 2.833 0 00-1.024 1.072 2.946 2.946 0 00-.384 1.488c0 .544.128 1.045.384 1.504a3 3 0 001.024 1.072c.427.256.891.384 1.392.384zm7.122-5.68c.266-.352.629-.651 1.088-.896a3.128 3.128 0 011.552-.384c.682 0 1.312.176 1.888.528a3.642 3.642 0 011.36 1.424c.341.608.512 1.291.512 2.048 0 .757-.171 1.44-.512 2.048a3.761 3.761 0 01-1.36 1.44 3.641 3.641 0 01-1.888.512 3.24 3.24 0 01-1.552-.368c-.459-.256-.822-.56-1.088-.912V399h-1.12v-11.2h1.12v4.64zm2.64 5.68c.48 0 .922-.123 1.328-.368a2.71 2.71 0 00.96-1.056c.234-.448.352-.96.352-1.536 0-.576-.118-1.088-.352-1.536a2.591 2.591 0 00-.96-1.04 2.44 2.44 0 00-1.328-.384c-.448 0-.88.133-1.296.4a2.786 2.786 0 00-.976 1.072 3.04 3.04 0 00-.368 1.488c0 .544.122 1.045.368 1.504.245.448.57.805.976 1.072a2.44 2.44 0 001.296.384zm10.393-.16c-.245.331-.581.613-1.008.848-.426.235-.917.352-1.472.352a3.01 3.01 0 01-1.392-.32 2.59 2.59 0 01-.976-.832c-.234-.352-.352-.715-.352-1.088 0-.651.192-1.184.576-1.6.395-.416.95-.656 1.664-.72l2.96-.256c0-.373-.085-.725-.256-1.056a1.885 1.885 0 00-.688-.784 1.652 1.652 0 00-.976-.304c-.448 0-.858.053-1.232.16-.373.107-.682.24-.928.4l-.72-.72c.32-.245.731-.453 1.232-.624a5.08 5.08 0 011.648-.256c.576 0 1.094.133 1.552.4.47.256.832.608 1.088 1.056.267.448.4.949.4 1.504V399h-1.12v-1.04zm-2.64-2.4c-.469.043-.826.187-1.072.432a1.26 1.26 0 00-.368.928c0 .341.139.629.416.864.288.224.683.336 1.184.336.747 0 1.344-.203 1.792-.608.459-.416.688-.992.688-1.728v-.48l-2.64.256zm12.324 2a4.611 4.611 0 01-1.392 1.136 3.654 3.654 0 01-1.808.464 3.717 3.717 0 01-1.92-.528 4.094 4.094 0 01-1.408-1.456 4.05 4.05 0 01-.512-2.016c0-.736.171-1.408.512-2.016a3.961 3.961 0 011.408-1.44 3.631 3.631 0 011.92-.544c.651 0 1.248.149 1.792.448a4.16 4.16 0 011.328 1.072l-.8.8a3.162 3.162 0 00-.976-.896 2.417 2.417 0 00-1.344-.384c-.48 0-.928.133-1.344.4a2.87 2.87 0 00-1.008 1.072 3.05 3.05 0 00-.368 1.488c0 .544.123 1.045.368 1.504.256.448.592.805 1.008 1.072.416.256.864.384 1.344.384.501 0 .96-.123 1.376-.368a3.7 3.7 0 001.024-.912l.8.72zm8.078 0a4.587 4.587 0 01-1.392 1.136 3.652 3.652 0 01-1.808.464 3.722 3.722 0 01-1.92-.528 4.103 4.103 0 01-1.408-1.456 4.05 4.05 0 01-.512-2.016c0-.736.171-1.408.512-2.016a3.97 3.97 0 011.408-1.44 3.637 3.637 0 011.92-.544c.651 0 1.248.149 1.792.448a4.16 4.16 0 011.328 1.072l-.8.8a3.15 3.15 0 00-.976-.896 2.412 2.412 0 00-1.344-.384c-.48 0-.928.133-1.344.4a2.87 2.87 0 00-1.008 1.072 3.05 3.05 0 00-.368 1.488c0 .544.123 1.045.368 1.504.256.448.592.805 1.008 1.072.416.256.864.384 1.344.384.502 0 .96-.123 1.376-.368.416-.256.758-.56 1.024-.912l.8.72zm4.958 1.6a3.81 3.81 0 01-1.968-.528 4.056 4.056 0 01-1.424-1.456 3.951 3.951 0 01-.528-2.016c0-.736.176-1.408.528-2.016a3.926 3.926 0 011.424-1.44 3.72 3.72 0 011.968-.544c.715 0 1.371.181 1.968.544a3.918 3.918 0 011.424 1.44c.352.608.528 1.28.528 2.016s-.176 1.408-.528 2.016a4.047 4.047 0 01-1.424 1.456 3.804 3.804 0 01-1.968.528zm0-1.04c.502 0 .966-.128 1.392-.384a2.992 2.992 0 001.408-2.576c0-.544-.128-1.04-.384-1.488a2.825 2.825 0 00-1.024-1.072 2.57 2.57 0 00-1.392-.4c-.501 0-.965.133-1.392.4a2.833 2.833 0 00-1.024 1.072 2.946 2.946 0 00-.384 1.488c0 .544.128 1.045.384 1.504a3 3 0 001.024 1.072c.427.256.891.384 1.392.384z"/>
      </g>
    </g>
    <g filter="url(#filter2_d)">
      <path fill="#25272E" d="M155.716 476.4l5.04 12.6h-2.07l-1.26-3.24h-5.58l-1.26 3.24h-2.07l5.04-12.6h2.16zm-1.08 2.34l-2.07 5.22h4.14l-2.07-5.22zm14.043 9c-.276.396-.672.738-1.188 1.026-.516.276-1.11.414-1.782.414-.72 0-1.392-.192-2.016-.576a4.38 4.38 0 01-1.476-1.62c-.372-.684-.558-1.452-.558-2.304 0-.852.186-1.62.558-2.304.372-.684.864-1.218 1.476-1.602a3.694 3.694 0 012.016-.594c.672 0 1.266.144 1.782.432.516.276.912.612 1.188 1.008v-5.22h1.8V489h-1.8v-1.26zm-2.61-.27c.48 0 .918-.12 1.314-.36s.708-.57.936-.99c.24-.432.36-.912.36-1.44 0-.528-.12-1.002-.36-1.422a2.533 2.533 0 00-.936-1.008 2.487 2.487 0 00-1.314-.36c-.48 0-.918.12-1.314.36s-.714.576-.954 1.008c-.228.42-.342.894-.342 1.422 0 .528.114 1.008.342 1.44.24.42.558.75.954.99.396.24.834.36 1.314.36zm13.509.27c-.276.396-.672.738-1.188 1.026-.516.276-1.11.414-1.782.414-.72 0-1.392-.192-2.016-.576a4.38 4.38 0 01-1.476-1.62c-.372-.684-.558-1.452-.558-2.304 0-.852.186-1.62.558-2.304.372-.684.864-1.218 1.476-1.602a3.694 3.694 0 012.016-.594c.672 0 1.266.144 1.782.432.516.276.912.612 1.188 1.008v-5.22h1.8V489h-1.8v-1.26zm-2.61-.27c.48 0 .918-.12 1.314-.36s.708-.57.936-.99c.24-.432.36-.912.36-1.44 0-.528-.12-1.002-.36-1.422a2.533 2.533 0 00-.936-1.008 2.487 2.487 0 00-1.314-.36c-.48 0-.918.12-1.314.36s-.714.576-.954 1.008c-.228.42-.342.894-.342 1.422 0 .528.114 1.008.342 1.44.24.42.558.75.954.99.396.24.834.36 1.314.36zm18.827-.09c-.384.504-.9.93-1.548 1.278-.636.348-1.35.522-2.142.522-.828 0-1.59-.198-2.286-.594a4.372 4.372 0 01-1.62-1.62 4.543 4.543 0 01-.594-2.286c0-.828.198-1.584.594-2.268a4.333 4.333 0 011.62-1.638 4.543 4.543 0 012.286-.594c.792 0 1.5.168 2.124.504.624.324 1.116.726 1.476 1.206l-1.26 1.17a3.225 3.225 0 00-.99-.828 2.656 2.656 0 00-1.35-.342c-.504 0-.966.12-1.386.36-.408.24-.732.576-.972 1.008-.228.42-.342.894-.342 1.422 0 .528.114 1.008.342 1.44.24.42.564.75.972.99.42.24.882.36 1.386.36.504 0 .966-.12 1.386-.36.42-.252.768-.552 1.044-.9l1.26 1.17zm3.591-5.76a3.5 3.5 0 011.116-1.008 2.961 2.961 0 011.584-.432c.66 0 1.248.156 1.764.468.516.3.918.738 1.206 1.314.3.564.45 1.23.45 1.998V489h-1.8v-5.04c0-.624-.186-1.122-.558-1.494-.36-.384-.834-.576-1.422-.576-.684 0-1.248.228-1.692.684-.432.444-.648 1.026-.648 1.746V489h-1.8v-12.6h1.8v5.22zm8.55-3.96c0-.3.108-.552.324-.756.228-.216.48-.324.756-.324s.522.108.738.324a.974.974 0 01.342.756c0 .3-.114.558-.342.774a1.046 1.046 0 01-.738.306c-.276 0-.528-.102-.756-.306a1.056 1.056 0 01-.324-.774zm1.98 2.7V489h-1.8v-8.64h1.8zm4.5-3.96V489h-1.8v-12.6h1.8zm9.09 11.34c-.276.396-.672.738-1.188 1.026-.516.276-1.11.414-1.782.414-.72 0-1.392-.192-2.016-.576a4.38 4.38 0 01-1.476-1.62c-.372-.684-.558-1.452-.558-2.304 0-.852.186-1.62.558-2.304.372-.684.864-1.218 1.476-1.602a3.694 3.694 0 012.016-.594c.672 0 1.266.144 1.782.432.516.276.912.612 1.188 1.008v-5.22h1.8V489h-1.8v-1.26zm-2.61-.27c.48 0 .918-.12 1.314-.36s.708-.57.936-.99c.24-.432.36-.912.36-1.44 0-.528-.12-1.002-.36-1.422a2.533 2.533 0 00-.936-1.008 2.487 2.487 0 00-1.314-.36c-.48 0-.918.12-1.314.36s-.714.576-.954 1.008c-.228.42-.342.894-.342 1.422 0 .528.114 1.008.342 1.44.24.42.558.75.954.99.396.24.834.36 1.314.36z"/>
      <path fill="#25272E" fill-rule="evenodd" d="M247 462H128c-11.598 0-21 9.402-21 21s9.402 21 21 21h119c11.598 0 21-9.402 21-21s-9.402-21-21-21zm-119-1c-12.15 0-22 9.85-22 22s9.85 22 22 22h119c12.15 0 22-9.85 22-22s-9.85-22-22-22H128z" clip-rule="evenodd"/>
    </g>
    <g filter="url(#filter3_d)">
      <circle cx="331" cy="738" r="28" fill="#25272E"/>
    </g>
    <path fill="#fff" d="M344.525 739.022c-.624.546-7.781 7.782-7.781 7.782-.887.775-2.275.146-2.275-1.032v-5.274h-14.548c-1.349 0-2.442-1.123-2.442-2.508 0-1.386 1.093-2.509 2.442-2.509h14.548v-5.273c0-1.178 1.388-1.808 2.275-1.032 0 0 7.157 7.235 7.781 7.782a1.37 1.37 0 010 2.064z"/>
    <g filter="url(#filter4_b)">
      <path fill="#fff" fill-opacity=".95" d="M0 0h375v88H0z"/>
      <path stroke="#000" d="M338.663 17.799h16.666c1.196 0 2.167.97 2.167 2.166v5.979a2.167 2.167 0 01-2.167 2.167h-16.666a2.167 2.167 0 01-2.167-2.167v-5.979c0-1.196.97-2.166 2.167-2.166z" opacity=".35"/>
      <path fill="#000" d="M358.995 20.959v3.992a2.165 2.165 0 000-3.992" opacity=".4"/>
      <path fill="#000" d="M337.996 20.628c0-.736.597-1.333 1.333-1.333h15.333c.737 0 1.334.597 1.334 1.333v4.653c0 .736-.597 1.333-1.334 1.333h-15.333a1.333 1.333 0 01-1.333-1.333v-4.653z"/>
      <path fill="#000" fill-rule="evenodd" d="M323.327 19.57c2.216 0 4.347.85 5.953 2.374.12.117.314.116.433-.004l1.156-1.164a.32.32 0 00-.003-.455c-4.215-4.032-10.864-4.032-15.079 0a.32.32 0 00-.003.455l1.156 1.164c.119.12.312.121.433.004a8.65 8.65 0 015.954-2.374zm0 3.788c1.217 0 2.391.452 3.294 1.268a.31.31 0 00.433-.006l1.155-1.165a.324.324 0 00-.005-.458 7.169 7.169 0 00-9.752 0 .32.32 0 00-.004.458l1.154 1.165a.31.31 0 00.433.006 4.912 4.912 0 013.292-1.268zm2.313 2.55a.32.32 0 01-.094.23l-1.998 2.011a.31.31 0 01-.443 0l-1.998-2.012a.315.315 0 01.01-.456 3.426 3.426 0 014.419 0c.065.058.102.14.104.226zM309.663 17.633h-1a1 1 0 00-1 .998v8.65a1 1 0 001 .998h1c.553 0 1-.447 1-.998v-8.65a.999.999 0 00-1-.998zm-5.666 2.329h1a1 1 0 011 .998v6.321a1 1 0 01-1 .998h-1a1 1 0 01-1-.998V20.96a1 1 0 011-.998zm-3.667 2.329h-1a1 1 0 00-1 .998v3.992a1 1 0 001 .998h1c.553 0 1-.447 1-.998V23.29a.999.999 0 00-1-.998zm-4.666 1.996h-1a1 1 0 00-1 .998v1.996a1 1 0 001 .998h1a1 1 0 001-.998v-1.996a1 1 0 00-1-.998z" clip-rule="evenodd"/>
      <g>
        <path fill="#000" d="M33.164 20.495v.029h1.773v-.03c0-1.076.747-1.801 1.853-1.801 1.04 0 1.801.674 1.801 1.604 0 .747-.358 1.296-1.801 2.761l-3.523 3.604v1.31h7.338V26.37H35.86v-.125l2.212-2.22c1.795-1.772 2.373-2.71 2.373-3.844 0-1.765-1.508-3.04-3.596-3.04-2.168 0-3.684 1.377-3.684 3.355zm10.613 6.357c.696 0 1.172-.498 1.172-1.157 0-.667-.476-1.157-1.172-1.157-.688 0-1.172.49-1.172 1.157 0 .659.484 1.157 1.172 1.157zm0-5.493c.696 0 1.172-.49 1.172-1.15 0-.666-.476-1.157-1.172-1.157-.688 0-1.172.49-1.172 1.157 0 .66.484 1.15 1.172 1.15zm7.083 6.877c2.527 0 4.028-2.05 4.028-5.544 0-3.508-1.523-5.552-4.028-5.552-2.512 0-4.036 2.044-4.036 5.537 0 3.509 1.502 5.56 4.036 5.56zm0-1.567c-1.34 0-2.124-1.392-2.124-3.992 0-2.578.798-3.962 2.124-3.962s2.117 1.377 2.117 3.962c0 2.6-.777 3.992-2.117 3.992zm5.962 1.304H58.8l4.519-8.958v-1.611h-7.354v1.59h5.45v.116l-4.593 8.863z"/>
      </g>
      <g>
        <path fill="#25272E" d="M351 75.5a9.5 9.5 0 009.5-9.5 9.5 9.5 0 00-9.5-9.5 9.5 9.5 0 00-9.5 9.5 9.5 9.5 0 009.5 9.5zm0 1.5c-6.075 0-11-4.925-11-11s4.925-11 11-11 11 4.925 11 11-4.925 11-11 11z"/>
        <path fill="#25272E" d="M349.81 67.573c0-2.03 2.38-2.03 2.38-3.52a1.136 1.136 0 00-.807-1.008 1.14 1.14 0 00-.453-.042 1.719 1.719 0 00-1.68 1.15l-1.75-.77a3.56 3.56 0 013.5-2.38c2.07 0 3.36 1.32 3.36 2.79 0 2.59-2.52 2.59-2.52 4.41h-1.89a2.067 2.067 0 01-.14-.63zm-.14 2.52a1.085 1.085 0 01.33-.782 1.083 1.083 0 01.79-.308 1.119 1.119 0 11-1.12 1.09z"/>
        <g>
          <path fill="#25272E" fill-rule="evenodd" d="M27.002 57.36l-8.157 7.831c-.46.44-.46 1.176 0 1.619l8.157 7.83a1.292 1.292 0 101.79-1.865l-6.832-6.559a.299.299 0 010-.433l6.833-6.56a1.293 1.293 0 00-1.79-1.864z" clip-rule="evenodd"/>
        </g>
      </g>
      <g>
        <circle cx="141.5" cy="63.5" r="2.5" fill="#03948C"/>
        <circle cx="154.5" cy="63.5" r="4" fill="#03948C"/>
        <circle cx="167.5" cy="63.5" r="2.5" fill="#CEE1E5"/>
        <circle cx="180.5" cy="63.5" r="2.5" fill="#CEE1E5"/>
        <circle cx="193.5" cy="63.5" r="2.5" fill="#CEE1E5"/>
        <circle cx="206.5" cy="63.5" r="2.5" fill="#CEE1E5"/>
        <circle cx="219.5" cy="63.5" r="2.5" fill="#CEE1E5"/>
        <circle cx="232.5" cy="63.5" r="2.5" fill="#CEE1E5"/>
      </g>
    </g>
    <g>
      <path fill="#CCCED3" d="M0 521h375v291H0z"/>
      <g filter="url(#filter5_b)">
        <path fill="#D1D5DB" d="M0 521h375v291H0z"/>
      </g>
      <path fill="#000" fill-rule="evenodd" d="M307.427 702.704c-.097.095-.201.198-.34.338l-2.296 2.297a8.985 8.985 0 00-.298.291l-.094.093-2.07 2.072-.131.134-.056.056-.184.188c-.162.16-.326.341-.481.531-.144.153-.26.33-.343.523l-.022.059a2.33 2.33 0 000 1.426l.023.06c.084.193.201.37.345.522.154.189.318.37.492.542a6.439 6.439 0 00.26.264l.091.094 2.075 2.079c.103.102.149.148.232.228.067.067.107.106.181.175l2.278 2.281c.171.17.247.247.344.341.125.126.208.207.337.333a4.086 4.086 0 001.129.844c.39.197.803.333 1.23.407.399.066.798.101 1.198.106.169.004.34.006.508.007H319.68c.155 0 .308-.003.521-.007.397-.005.8-.04 1.198-.106a4.425 4.425 0 001.241-.409 4.19 4.19 0 001.837-1.834c.198-.395.335-.812.409-1.242a8.09 8.09 0 00.106-1.209c.003-.099.004-.187.006-.381l.002-.124v-7.401l-.001-.107-.003-.239-.004-.177a7.943 7.943 0 00-.104-1.181 4.4 4.4 0 00-.404-1.232 4.242 4.242 0 00-.768-1.058 4.103 4.103 0 00-1.056-.768 4.397 4.397 0 00-1.226-.406c-.402-.065-.8-.1-1.2-.105a18.268 18.268 0 00-.509-.007c-.162-.002-.296-.002-.597-.002h-6.696c-.298 0-.433 0-.603.002-.153 0-.32.002-.511.007-.392.005-.79.04-1.184.104a4.398 4.398 0 00-1.234.407c-.392.2-.748.459-1.056.769-.015.014-.025.025-.112.118-.109.103-.208.2-.305.297zm-2.591 2.597l.002-.002-.008.006.006-.004zm3.196 10.713l-2.302-2.305-.051-.046-.142-.139-.196-.194-2.066-2.07a6.865 6.865 0 00-.096-.098l-.102-.102c-.063-.064-.109-.11-.151-.155a5.65 5.65 0 01-.427-.471l-.044-.049a.482.482 0 01-.084-.117.99.99 0 010-.54.471.471 0 01.085-.119l.04-.045c.129-.159.266-.311.412-.455l.157-.162.078-.078a8.3 8.3 0 00.139-.142l2.059-2.061.096-.094.103-.103.137-.134.054-.049 2.3-2.303c.136-.137.236-.236.334-.331.094-.095.184-.183.28-.274.022-.02.034-.033.093-.095l.047-.049a2.78 2.78 0 01.718-.525c.267-.135.555-.23.852-.281.322-.053.654-.082.988-.086.188-.005.344-.007.493-.007.17-.002.302-.002.596-.002h6.696a45.908 45.908 0 011.081.009c.341.004.675.033 1.004.087.29.05.576.145.845.281a2.837 2.837 0 011.236 1.238c.133.265.228.553.279.85.053.324.082.656.086.989l.004.172.003.23.001.101v7.378l-.002.123c-.002.187-.003.269-.006.369a6.783 6.783 0 01-.088 1.017 2.875 2.875 0 01-2.393 2.39 6.637 6.637 0 01-1 .088c-.21.004-.355.006-.498.006h-7.843c-.157 0-.319-.002-.487-.006a6.637 6.637 0 01-1-.088 3.02 3.02 0 01-.848-.281 2.81 2.81 0 01-.713-.519l-.052-.054-.003-.003c-.052-.055-.064-.068-.076-.079l-.015-.014a43.265 43.265 0 01-.611-.603zm4.781-2.489a.6.6 0 01-.844-.849v.001a.59.59 0 01.105-.083l2.595-2.598-2.7-2.697.009-.008a.595.595 0 01.002-.844.596.596 0 01.848 0h-.003c.029.029.055.06.077.093l2.611 2.61 2.619-2.622a.604.604 0 01.721-.213.598.598 0 01.196.974l.007.006-2.697 2.701 2.61 2.608a.57.57 0 01.09.074l-.001.001a.597.597 0 01-.844.847l-.005.006-2.694-2.691-2.692 2.695-.01-.011z" clip-rule="evenodd"/>
      <g filter="url(#filter6_d)">
        <path fill="#FCFCFE" fill-rule="evenodd" d="M129 693a5 5 0 015-5h107a5 5 0 015 5v36a5 5 0 01-5 5H134a5 5 0 01-5-5v-36z" clip-rule="evenodd"/>
      </g>
      <path fill="#000" d="M187.512 719.293c4.102 0 6.47-3.552 6.47-9.119 0-5.529-2.38-9.082-6.47-9.082-4.089 0-6.494 3.577-6.494 9.095 0 5.566 2.38 9.106 6.494 9.106zm0-1.917c-2.759 0-4.284-2.807-4.284-7.202 0-4.297 1.562-7.153 4.284-7.153 2.722 0 4.26 2.832 4.26 7.166 0 4.394-1.513 7.189-4.26 7.189z"/>
      <g filter="url(#filter7_d)">
        <path fill="#FCFCFE" fill-rule="evenodd" d="M252 639a5 5 0 015-5h107a5 5 0 015 5v37a5 5 0 01-5 5H257a5 5 0 01-5-5v-37z" clip-rule="evenodd"/>
      </g>
      <path fill="#000" d="M296.885 668.968h.078l1.333 4.663h1.382l1.87-7.046h-1.524l-1.088 4.966h-.079l-1.308-4.966h-1.245l-1.284 4.966h-.079l-1.098-4.966h-1.533l1.865 7.046h1.391l1.319-4.663zm7.522 4.663h1.592l1.533-2.388h.088l1.514 2.388h1.679l-2.285-3.526 2.32-3.52h-1.651l-1.484 2.466h-.088l-1.47-2.466h-1.733l2.236 3.496-2.251 3.55zm13.148 0v-2.593l2.451-4.453h-1.597l-1.548 2.949h-.088l-1.552-2.949h-1.597l2.456 4.453v2.593h1.475zm5.466 0h5.44v-1.26h-3.633v-.088l3.535-4.707v-.991h-5.259v1.26h3.462v.088l-3.545 4.702v.996zM310.048 659.314c4.309 0 6.824-3.466 6.824-9.399 0-1.916-.281-3.503-.867-4.858-1.074-2.527-3.173-3.955-5.822-3.955-3.614 0-6.238 2.539-6.238 6.018 0 3.344 2.49 5.822 5.847 5.822 2.246 0 4.175-1.135 4.919-2.88H314.748c-.061 4.675-1.746 7.336-4.675 7.336-1.746 0-3.174-1.05-3.638-2.649h-2.234c.537 2.759 2.844 4.565 5.847 4.565zm.122-8.3c-2.307 0-4.003-1.673-4.003-3.968 0-2.209 1.782-3.967 4.04-3.967 2.271 0 4.028 1.77 4.028 4.028 0 2.247-1.733 3.907-4.065 3.907z"/>
      <g filter="url(#filter8_d)">
        <path fill="#FCFCFE" fill-rule="evenodd" d="M129 639a5 5 0 015-5h107a5 5 0 015 5v37a5 5 0 01-5 5H134a5 5 0 01-5-5v-37z" clip-rule="evenodd"/>
      </g>
      <path fill="#000" d="M178.811 673.631v-5.786h2.114v-1.26h-5.703v1.26h2.114v5.786h1.475zm6.907-7.046h-1.475v4.614c0 1.563 1.148 2.613 2.949 2.613 1.807 0 2.954-1.05 2.954-2.613v-4.614h-1.474v4.463c0 .889-.532 1.455-1.48 1.455-.942 0-1.474-.566-1.474-1.455v-4.463zm11.809 7.046l2.349-7.046h-1.587l-1.572 5.386h-.088l-1.602-5.386h-1.665l2.383 7.046h1.782zM187.488 659.314c3.735 0 6.396-2.099 6.396-5.053 0-2.185-1.513-3.992-3.796-4.529v-.049c1.916-.61 3.076-2.1 3.076-3.931 0-2.685-2.38-4.638-5.676-4.638-3.272 0-5.689 1.965-5.689 4.626 0 1.856 1.184 3.357 3.089 3.943v.049c-2.271.525-3.784 2.331-3.784 4.529 0 2.942 2.661 5.053 6.384 5.053zm0-1.916c-2.417 0-4.151-1.379-4.151-3.296 0-1.929 1.734-3.308 4.151-3.308 2.429 0 4.15 1.367 4.15 3.308 0 1.917-1.721 3.296-4.15 3.296zm0-8.533c-2.063 0-3.504-1.208-3.504-2.917 0-1.721 1.441-2.942 3.504-2.942 2.063 0 3.503 1.208 3.503 2.942 0 1.709-1.452 2.917-3.503 2.917z"/>
      <g filter="url(#filter9_d)">
        <path fill="#FCFCFE" fill-rule="evenodd" d="M6 639a5 5 0 015-5h107a5 5 0 015 5v37a5 5 0 01-5 5H11a5 5 0 01-5-5v-37z" clip-rule="evenodd"/>
      </g>
      <path fill="#000" d="M48.204 666.585v7.046h1.475v-2.188h1.391c1.485 0 2.515-.971 2.515-2.422 0-1.464-.991-2.436-2.441-2.436h-2.94zm1.475 1.211h1.074c.85 0 1.333.43 1.333 1.23 0 .791-.493 1.221-1.338 1.221h-1.07v-2.451zm10.344 6.016c.445 0 .865-.064 1.236-.186l.488.693h1.426l-.874-1.328c.713-.61 1.108-1.621 1.108-2.886 0-2.285-1.313-3.701-3.384-3.701-2.07 0-3.393 1.416-3.393 3.701 0 2.3 1.308 3.707 3.393 3.707zm.005-1.294c-1.152 0-1.89-.928-1.89-2.413 0-1.474.743-2.407 1.885-2.407 1.138 0 1.88.933 1.88 2.407 0 .679-.18 1.226-.503 1.573l-.327-.396h-1.338l.801 1.172a2.195 2.195 0 01-.508.064zm8.25-4.742h1.28c.732 0 1.191.42 1.191 1.089 0 .679-.434 1.079-1.177 1.079h-1.294v-2.168zm0 3.301h1.206l1.314 2.554h1.67l-1.485-2.783c.81-.323 1.28-1.104 1.28-2.002 0-1.402-.953-2.261-2.5-2.261h-2.96v7.046h1.475v-2.554zm7.152.596c.053 1.313 1.142 2.139 2.822 2.139 1.767 0 2.856-.87 2.856-2.291 0-1.093-.61-1.704-2.026-2.001l-.85-.181c-.825-.176-1.162-.425-1.162-.86 0-.537.489-.878 1.226-.878.713 0 1.23.371 1.299.927h1.386c-.043-1.255-1.142-2.124-2.695-2.124-1.626 0-2.695.874-2.695 2.202 0 1.075.63 1.744 1.914 2.012l.918.195c.864.186 1.216.445 1.216.894 0 .532-.542.903-1.309.903-.83 0-1.406-.366-1.474-.937H75.43zM60.105 659.021h2.308l7.837-15.576v-2.038H58.591v1.953h9.485v.049l-7.971 15.612z"/>
      <g>
        <g filter="url(#filter10_d)">
          <path fill="#FCFCFE" fill-rule="evenodd" d="M252 585a5 5 0 015-5h107a5 5 0 015 5v37a5 5 0 01-5 5H257a5 5 0 01-5-5v-37z" clip-rule="evenodd"/>
        </g>
        <path fill="#000" d="M304.457 619.631v-7.046h-1.733l-1.953 4.736h-.088l-1.949-4.736h-1.738v7.046h1.367v-4.712h.078l1.797 4.307h.982l1.792-4.307h.078v4.712h1.367zm5.12 0v-4.409h.088l3.252 4.409h1.221v-7.046h-1.411v4.39h-.088l-3.243-4.39h-1.23v7.046h1.411zm11.356-7.227c-2.071 0-3.394 1.416-3.394 3.701 0 2.286 1.304 3.707 3.394 3.707 2.085 0 3.383-1.421 3.383-3.707 0-2.28-1.303-3.701-3.383-3.701zm0 1.294c1.147 0 1.879.933 1.879 2.407 0 1.47-.732 2.413-1.879 2.413-1.158 0-1.885-.943-1.885-2.413 0-1.474.742-2.407 1.885-2.407zM310.817 605.327c3.614 0 6.238-2.539 6.238-6.018 0-3.345-2.49-5.823-5.847-5.823-2.185 0-4.126 1.135-4.919 2.856h-.037c.073-4.687 1.746-7.3 4.687-7.3 1.746 0 3.162 1.026 3.638 2.625h2.234c-.561-2.771-2.856-4.565-5.847-4.565-4.309 0-6.836 3.479-6.836 9.411 0 1.904.281 3.491.867 4.846 1.086 2.539 3.186 3.968 5.822 3.968zm-.024-1.953c-2.258 0-4.016-1.795-4.016-4.053 0-2.246 1.721-3.906 4.053-3.906 2.331 0 3.991 1.66 3.991 3.967 0 2.222-1.782 3.992-4.028 3.992z"/>
      </g>
      <g>
        <g filter="url(#filter11_d)">
          <path fill="#FCFCFE" fill-rule="evenodd" d="M129 585a5 5 0 015-5h107a5 5 0 015 5v37a5 5 0 01-5 5H134a5 5 0 01-5-5v-37z" clip-rule="evenodd"/>
        </g>
        <path fill="#000" d="M176.34 617.561c0 1.381.947 2.251 2.392 2.251 1.495 0 2.393-.85 2.393-2.369v-4.858h-1.475v4.849c0 .693-.332 1.059-.937 1.059-.567 0-.938-.366-.947-.932h-1.426zm9.973 2.07v-2.124l.699-.825 2.046 2.949h1.767l-2.749-3.955 2.569-3.091h-1.641l-2.603 3.14h-.088v-3.14h-1.474v7.046h1.474zm12.235-1.284h-3.135v-5.762h-1.475v7.046h4.61v-1.284zM187.671 605.314c3.674 0 6.274-2.478 6.274-6.018 0-3.418-2.441-5.896-5.822-5.896-1.685 0-3.15.635-3.943 1.697h-.049l.537-5.737h8.276v-1.953h-10.083l-.964 9.863h2.063c.72-1.233 2.124-1.978 3.772-1.978 2.344 0 4.016 1.697 4.016 4.065 0 2.369-1.66 4.029-4.053 4.029-2.112 0-3.711-1.294-3.906-3.174h-2.161c.184 3.003 2.674 5.102 6.043 5.102z"/>
      </g>
      <g>
        <g filter="url(#filter12_d)">
          <path fill="#FCFCFE" fill-rule="evenodd" d="M6 585a5 5 0 015-5h107a5 5 0 015 5v37a5 5 0 01-5 5H11a5 5 0 01-5-5v-37z" clip-rule="evenodd"/>
        </g>
        <path fill="#000" d="M60.234 616.755v-.899h-2.959v1.109h1.529l-.005.127c-.03.849-.698 1.421-1.665 1.421-1.162 0-1.895-.918-1.895-2.427 0-1.48.699-2.383 1.836-2.383.82 0 1.411.415 1.631 1.128h1.465c-.205-1.465-1.43-2.427-3.096-2.427-2.05 0-3.345 1.426-3.345 3.697 0 2.304 1.285 3.711 3.38 3.711 1.923 0 3.124-1.172 3.124-3.057zm9.54 2.876v-7.046h-1.475v2.842h-3.174v-2.842H63.65v7.046h1.475v-2.944h3.174v2.944h1.474zm5.183 0v-7.046h-1.475v7.046h1.475zM66.734 605.021h2.124v-3.662h2.49v-1.928h-2.49v-12.024H65.61c-4.163 5.969-6.226 9.179-7.727 11.963v1.989h8.85v3.662zm-6.677-5.639c1.391-2.442 3.308-5.383 6.64-10.144h.037v10.193h-6.677v-.049z"/>
      </g>
      <g>
        <g filter="url(#filter13_d)">
          <path fill="#FCFCFE" fill-rule="evenodd" d="M252 532a5 5 0 015-5h107a5 5 0 015 5v36a5 5 0 01-5 5H257a5 5 0 01-5-5v-36z" clip-rule="evenodd"/>
        </g>
        <path fill="#000" d="M299.521 558.949V566h2.773c2.109 0 3.306-1.284 3.306-3.574 0-2.207-1.211-3.477-3.306-3.477h-2.773zm1.474 1.26h1.065c1.279 0 2.036.815 2.036 2.241 0 1.489-.733 2.29-2.036 2.29h-1.065v-4.531zm12.664 4.531h-3.193v-1.714h3.013v-1.167h-3.013v-1.645h3.193v-1.26h-4.668V566h4.668v-1.26zm5.028 1.26v-2.744h2.866v-1.206h-2.866v-1.836h3.139v-1.26h-4.614V566h1.475zM308.12 543.87h2.209c2.515 0 4.077 1.282 4.077 3.357 0 1.843-1.672 3.162-4.004 3.162-2.368 0-3.869-1.245-4.065-3.052h-2.111c.158 2.917 2.514 4.956 6.201 4.956 3.454 0 6.213-2.112 6.213-5.139 0-2.478-1.709-4.126-4.37-4.285v-.049c2.197-.39 3.613-1.977 3.613-4.187 0-2.649-2.38-4.541-5.529-4.541-3.309 0-5.53 1.917-5.774 4.908h2.111c.196-1.844 1.538-3.003 3.565-3.003 2.234 0 3.418 1.184 3.418 2.929 0 1.782-1.416 3.089-3.443 3.089h-2.111v1.855z"/>
      </g>
      <g>
        <g filter="url(#filter14_d)">
          <path fill="#FCFCFE" fill-rule="evenodd" d="M129 532a5 5 0 015-5h107a5 5 0 015 5v36a5 5 0 01-5 5H134a5 5 0 01-5-5v-36z" clip-rule="evenodd"/>
        </g>
        <path fill="#000" d="M180.046 566h1.597l-2.447-7.046h-1.733L175.017 566h1.479l.542-1.68h2.476l.532 1.68zm-1.807-5.581h.088l.874 2.764h-1.846l.884-2.764zm9.769 5.581c1.504 0 2.436-.781 2.436-2.017 0-.908-.678-1.611-1.611-1.679v-.088c.723-.108 1.274-.757 1.274-1.504 0-1.089-.815-1.758-2.182-1.758h-3.081V566h3.164zm-1.69-5.918h1.231c.703 0 1.108.337 1.108.898 0 .567-.434.894-1.23.894h-1.109v-1.792zm0 4.79v-2.002h1.28c.869 0 1.342.342 1.342.986 0 .66-.459 1.016-1.308 1.016h-1.314zm10.453 1.309c1.699 0 2.939-1.05 3.061-2.574h-1.436c-.141.777-.776 1.275-1.621 1.275-1.113 0-1.801-.923-1.801-2.407 0-1.485.688-2.403 1.797-2.403.839 0 1.479.532 1.621 1.343h1.435c-.107-1.533-1.387-2.642-3.056-2.642-2.046 0-3.306 1.412-3.306 3.702 0 2.295 1.264 3.706 3.306 3.706zM181.738 539.463v.013h2.124v-.013c0-1.965 1.563-3.454 3.626-3.454 1.941 0 3.491 1.355 3.491 3.052 0 1.464-.562 2.404-2.93 4.895l-6.201 6.53V552h11.621v-1.953h-8.581v-.049l4.455-4.602c2.942-3.04 3.833-4.504 3.833-6.47 0-2.697-2.478-4.834-5.627-4.834-3.32 0-5.811 2.295-5.811 5.371z"/>
      </g>
      <g>
        <g filter="url(#filter15_d)">
          <path fill="#FCFCFE" fill-rule="evenodd" d="M6 532a5 5 0 015-5h107a5 5 0 015 5v36a5 5 0 01-5 5H11a5 5 0 01-5-5v-36z" clip-rule="evenodd"/>
        </g>
        <path fill="#000" d="M64.878 552h2.124v-17.615h-2.148l-4.688 3.369v2.32l4.664-3.357h.048V552z"/>
      </g>
    </g>
    <g>
      <path fill="#000" fill-rule="evenodd" d="M121 800.5a2.5 2.5 0 012.5-2.5h129a2.5 2.5 0 110 5h-129a2.5 2.5 0 01-2.5-2.5z" clip-rule="evenodd"/>
    </g>
  </g>
  <defs>
    <filter id="filter0_d" width="506" height="212" x="0" y="45" color-interpolation-filters="sRGB" filterUnits="userSpaceOnUse">
      <feFlood flood-opacity="0" result="BackgroundImageFix"/>
      <feColorMatrix in="SourceAlpha" values="0 0 0 0 0 0 0 0 0 0 0 0 0 0 0 0 0 0 127 0"/>
      <feOffset/>
      <feGaussianBlur stdDeviation="8"/>
      <feColorMatrix values="0 0 0 0 0.121569 0 0 0 0 0.145098 0 0 0 0 0.2 0 0 0 0.08 0"/>
      <feBlend in2="BackgroundImageFix" result="effect1_dropShadow"/>
      <feBlend in="SourceGraphic" in2="effect1_dropShadow" result="shape"/>
    </filter>
    <filter id="filter1_d" width="506" height="212" x="0" y="241" color-interpolation-filters="sRGB" filterUnits="userSpaceOnUse">
      <feFlood flood-opacity="0" result="BackgroundImageFix"/>
      <feColorMatrix in="SourceAlpha" values="0 0 0 0 0 0 0 0 0 0 0 0 0 0 0 0 0 0 127 0"/>
      <feOffset/>
      <feGaussianBlur stdDeviation="8"/>
      <feColorMatrix values="0 0 0 0 0.121569 0 0 0 0 0.145098 0 0 0 0 0.2 0 0 0 0.08 0"/>
      <feBlend in2="BackgroundImageFix" result="effect1_dropShadow"/>
      <feBlend in="SourceGraphic" in2="effect1_dropShadow" result="shape"/>
    </filter>
    <filter id="filter2_d" width="195" height="76" x="90" y="445" color-interpolation-filters="sRGB" filterUnits="userSpaceOnUse">
      <feFlood flood-opacity="0" result="BackgroundImageFix"/>
      <feColorMatrix in="SourceAlpha" values="0 0 0 0 0 0 0 0 0 0 0 0 0 0 0 0 0 0 127 0"/>
      <feOffset/>
      <feGaussianBlur stdDeviation="8"/>
      <feColorMatrix values="0 0 0 0 0.121569 0 0 0 0 0.145098 0 0 0 0 0.2 0 0 0 0.08 0"/>
      <feBlend in2="BackgroundImageFix" result="effect1_dropShadow"/>
      <feBlend in="SourceGraphic" in2="effect1_dropShadow" result="shape"/>
    </filter>
    <filter id="filter3_d" width="88" height="88" x="287" y="694" color-interpolation-filters="sRGB" filterUnits="userSpaceOnUse">
      <feFlood flood-opacity="0" result="BackgroundImageFix"/>
      <feColorMatrix in="SourceAlpha" values="0 0 0 0 0 0 0 0 0 0 0 0 0 0 0 0 0 0 127 0"/>
      <feOffset/>
      <feGaussianBlur stdDeviation="8"/>
      <feColorMatrix values="0 0 0 0 0.121569 0 0 0 0 0.145098 0 0 0 0 0.2 0 0 0 0.08 0"/>
      <feBlend in2="BackgroundImageFix" mode="multiply" result="effect1_dropShadow"/>
      <feBlend in="SourceGraphic" in2="effect1_dropShadow" result="shape"/>
    </filter>
    <filter id="filter4_b" width="407" height="120" x="-16" y="-16" color-interpolation-filters="sRGB" filterUnits="userSpaceOnUse">
      <feFlood flood-opacity="0" result="BackgroundImageFix"/>
      <feGaussianBlur in="BackgroundImage" stdDeviation="8"/>
      <feComposite in2="SourceAlpha" operator="in" result="effect1_backgroundBlur"/>
      <feBlend in="SourceGraphic" in2="effect1_backgroundBlur" result="shape"/>
    </filter>
    <filter id="filter5_b" width="592.463" height="508.463" x="-108.731" y="412.269" color-interpolation-filters="sRGB" filterUnits="userSpaceOnUse">
      <feFlood flood-opacity="0" result="BackgroundImageFix"/>
      <feGaussianBlur in="BackgroundImage" stdDeviation="54.366"/>
      <feComposite in2="SourceAlpha" operator="in" result="effect1_backgroundBlur"/>
      <feBlend in="SourceGraphic" in2="effect1_backgroundBlur" result="shape"/>
    </filter>
    <filter id="filter6_d" width="117" height="47" x="129" y="688" color-interpolation-filters="sRGB" filterUnits="userSpaceOnUse">
      <feFlood flood-opacity="0" result="BackgroundImageFix"/>
      <feColorMatrix in="SourceAlpha" values="0 0 0 0 0 0 0 0 0 0 0 0 0 0 0 0 0 0 127 0"/>
      <feOffset dy="1"/>
      <feColorMatrix values="0 0 0 0 0.537255 0 0 0 0 0.541176 0 0 0 0 0.552941 0 0 0 1 0"/>
      <feBlend in2="BackgroundImageFix" result="effect1_dropShadow"/>
      <feBlend in="SourceGraphic" in2="effect1_dropShadow" result="shape"/>
    </filter>
    <filter id="filter7_d" width="117" height="48" x="252" y="634" color-interpolation-filters="sRGB" filterUnits="userSpaceOnUse">
      <feFlood flood-opacity="0" result="BackgroundImageFix"/>
      <feColorMatrix in="SourceAlpha" values="0 0 0 0 0 0 0 0 0 0 0 0 0 0 0 0 0 0 127 0"/>
      <feOffset dy="1"/>
      <feColorMatrix values="0 0 0 0 0.537255 0 0 0 0 0.541176 0 0 0 0 0.552941 0 0 0 1 0"/>
      <feBlend in2="BackgroundImageFix" result="effect1_dropShadow"/>
      <feBlend in="SourceGraphic" in2="effect1_dropShadow" result="shape"/>
    </filter>
    <filter id="filter8_d" width="117" height="48" x="129" y="634" color-interpolation-filters="sRGB" filterUnits="userSpaceOnUse">
      <feFlood flood-opacity="0" result="BackgroundImageFix"/>
      <feColorMatrix in="SourceAlpha" values="0 0 0 0 0 0 0 0 0 0 0 0 0 0 0 0 0 0 127 0"/>
      <feOffset dy="1"/>
      <feColorMatrix values="0 0 0 0 0.537255 0 0 0 0 0.541176 0 0 0 0 0.552941 0 0 0 1 0"/>
      <feBlend in2="BackgroundImageFix" result="effect1_dropShadow"/>
      <feBlend in="SourceGraphic" in2="effect1_dropShadow" result="shape"/>
    </filter>
    <filter id="filter9_d" width="117" height="48" x="6" y="634" color-interpolation-filters="sRGB" filterUnits="userSpaceOnUse">
      <feFlood flood-opacity="0" result="BackgroundImageFix"/>
      <feColorMatrix in="SourceAlpha" values="0 0 0 0 0 0 0 0 0 0 0 0 0 0 0 0 0 0 127 0"/>
      <feOffset dy="1"/>
      <feColorMatrix values="0 0 0 0 0.537255 0 0 0 0 0.541176 0 0 0 0 0.552941 0 0 0 1 0"/>
      <feBlend in2="BackgroundImageFix" result="effect1_dropShadow"/>
      <feBlend in="SourceGraphic" in2="effect1_dropShadow" result="shape"/>
    </filter>
    <filter id="filter10_d" width="117" height="48" x="252" y="580" color-interpolation-filters="sRGB" filterUnits="userSpaceOnUse">
      <feFlood flood-opacity="0" result="BackgroundImageFix"/>
      <feColorMatrix in="SourceAlpha" values="0 0 0 0 0 0 0 0 0 0 0 0 0 0 0 0 0 0 127 0"/>
      <feOffset dy="1"/>
      <feColorMatrix values="0 0 0 0 0.537255 0 0 0 0 0.541176 0 0 0 0 0.552941 0 0 0 1 0"/>
      <feBlend in2="BackgroundImageFix" result="effect1_dropShadow"/>
      <feBlend in="SourceGraphic" in2="effect1_dropShadow" result="shape"/>
    </filter>
    <filter id="filter11_d" width="117" height="48" x="129" y="580" color-interpolation-filters="sRGB" filterUnits="userSpaceOnUse">
      <feFlood flood-opacity="0" result="BackgroundImageFix"/>
      <feColorMatrix in="SourceAlpha" values="0 0 0 0 0 0 0 0 0 0 0 0 0 0 0 0 0 0 127 0"/>
      <feOffset dy="1"/>
      <feColorMatrix values="0 0 0 0 0.537255 0 0 0 0 0.541176 0 0 0 0 0.552941 0 0 0 1 0"/>
      <feBlend in2="BackgroundImageFix" result="effect1_dropShadow"/>
      <feBlend in="SourceGraphic" in2="effect1_dropShadow" result="shape"/>
    </filter>
    <filter id="filter12_d" width="117" height="48" x="6" y="580" color-interpolation-filters="sRGB" filterUnits="userSpaceOnUse">
      <feFlood flood-opacity="0" result="BackgroundImageFix"/>
      <feColorMatrix in="SourceAlpha" values="0 0 0 0 0 0 0 0 0 0 0 0 0 0 0 0 0 0 127 0"/>
      <feOffset dy="1"/>
      <feColorMatrix values="0 0 0 0 0.537255 0 0 0 0 0.541176 0 0 0 0 0.552941 0 0 0 1 0"/>
      <feBlend in2="BackgroundImageFix" result="effect1_dropShadow"/>
      <feBlend in="SourceGraphic" in2="effect1_dropShadow" result="shape"/>
    </filter>
    <filter id="filter13_d" width="117" height="47" x="252" y="527" color-interpolation-filters="sRGB" filterUnits="userSpaceOnUse">
      <feFlood flood-opacity="0" result="BackgroundImageFix"/>
      <feColorMatrix in="SourceAlpha" values="0 0 0 0 0 0 0 0 0 0 0 0 0 0 0 0 0 0 127 0"/>
      <feOffset dy="1"/>
      <feColorMatrix values="0 0 0 0 0.537255 0 0 0 0 0.541176 0 0 0 0 0.552941 0 0 0 1 0"/>
      <feBlend in2="BackgroundImageFix" result="effect1_dropShadow"/>
      <feBlend in="SourceGraphic" in2="effect1_dropShadow" result="shape"/>
    </filter>
    <filter id="filter14_d" width="117" height="47" x="129" y="527" color-interpolation-filters="sRGB" filterUnits="userSpaceOnUse">
      <feFlood flood-opacity="0" result="BackgroundImageFix"/>
      <feColorMatrix in="SourceAlpha" values="0 0 0 0 0 0 0 0 0 0 0 0 0 0 0 0 0 0 127 0"/>
      <feOffset dy="1"/>
      <feColorMatrix values="0 0 0 0 0.537255 0 0 0 0 0.541176 0 0 0 0 0.552941 0 0 0 1 0"/>
      <feBlend in2="BackgroundImageFix" result="effect1_dropShadow"/>
      <feBlend in="SourceGraphic" in2="effect1_dropShadow" result="shape"/>
    </filter>
    <filter id="filter15_d" width="117" height="47" x="6" y="527" color-interpolation-filters="sRGB" filterUnits="userSpaceOnUse">
      <feFlood flood-opacity="0" result="BackgroundImageFix"/>
      <feColorMatrix in="SourceAlpha" values="0 0 0 0 0 0 0 0 0 0 0 0 0 0 0 0 0 0 127 0"/>
      <feOffset dy="1"/>
      <feColorMatrix values="0 0 0 0 0.537255 0 0 0 0 0.541176 0 0 0 0 0.552941 0 0 0 1 0"/>
      <feBlend in2="BackgroundImageFix" result="effect1_dropShadow"/>
      <feBlend in="SourceGraphic" in2="effect1_dropShadow" result="shape"/>
    </filter>
    <linearGradient id="paint0_linear" x1="111.5" x2="301.652" y1="110.676" y2="779.548" gradientUnits="userSpaceOnUse">
      <stop stop-color="#E4F0F0" stop-opacity="0"/>
      <stop offset="1" stop-color="#E4F0F0"/>
    </linearGradient>
    <clipPath id="clip0">
      <path fill="#fff" d="M0 0h375v812H0z"/>
    </clipPath>
  </defs>
</svg>
