<svg xmlns="http://www.w3.org/2000/svg" width="375" height="812" fill="none" viewBox="0 0 375 812">
  <g class="05-he" clip-path="url(#clip0)">
    <path fill="#fff" d="M0 0h375v812H0z"/>
    <path fill="url(#paint0_linear)" d="M0 88h375v724H0z" class="Rectangle 480"/>
    <g class="Rectangle 1153" filter="url(#filter0_d)">
      <rect width="343" height="180" x="16" y="61" fill="#fff" rx="24"/>
    </g>
    <circle cx="52" cy="101" r="20" fill="#E4F0F0" class="Circle"/>
    <g class="Intersect">
      <path fill="#678085" d="M38.48 115.739c2.162-5.057 6.683-8.489 13.52-8.489s11.358 3.432 13.52 8.489A19.928 19.928 0 0152 121c-5.213 0-9.96-1.994-13.52-5.261zM59.5 96a7.5 7.5 0 11-15 0 7.5 7.5 0 1115 0z"/>
    </g>
    <path fill="#25272E" d="M92.05 96.4l4.32 5.4 4.32-5.4h2.43V109h-2.7v-8.28l-4.05 5.04-4.05-5.04V109h-2.7V96.4h2.43zm14.304 14.04c.732 0 1.242-.36 1.53-1.08l.18-.45-3.42-8.73h2.61l2.07 5.85h.09l1.98-5.85h2.61l-3.6 9.54c-.384 1.02-.852 1.782-1.404 2.286-.552.516-1.224.774-2.016.774h-1.62v-2.34h.99zm9.266-4.41c.276.276.618.51 1.026.702.408.192.846.288 1.314.288.72 0 1.08-.21 1.08-.63 0-.168-.114-.306-.342-.414-.216-.12-.564-.258-1.044-.414a18.023 18.023 0 01-1.566-.612 3.415 3.415 0 01-1.098-.846c-.3-.372-.45-.84-.45-1.404 0-.492.138-.942.414-1.35.276-.408.678-.732 1.206-.972.54-.252 1.17-.378 1.89-.378.732 0 1.392.132 1.98.396.6.264 1.08.582 1.44.954l-1.44 1.53a2.514 2.514 0 00-.846-.504 2.937 2.937 0 00-1.134-.216c-.3 0-.528.054-.684.162-.144.108-.216.234-.216.378 0 .168.108.312.324.432.228.108.582.24 1.062.396.624.216 1.146.426 1.566.63.42.192.78.474 1.08.846.312.36.468.822.468 1.386 0 .516-.144.99-.432 1.422-.276.42-.696.756-1.26 1.008-.552.24-1.218.36-1.998.36a5.031 5.031 0 01-2.178-.468c-.66-.312-1.194-.696-1.602-1.152l1.44-1.53zm15.572 2.124c-.408.288-.942.534-1.602.738a7.777 7.777 0 01-2.178.288 4.701 4.701 0 01-2.358-.612 4.765 4.765 0 01-1.71-1.674 4.535 4.535 0 01-.612-2.304c0-.828.204-1.59.612-2.286a4.663 4.663 0 011.674-1.674 4.436 4.436 0 012.304-.63c.792 0 1.524.198 2.196.594a4.372 4.372 0 011.62 1.62c.396.672.594 1.404.594 2.196 0 .396-.03.756-.09 1.08h-6.39c.144.444.408.81.792 1.098.396.288.912.432 1.548.432a5.14 5.14 0 001.35-.162c.408-.12.738-.258.99-.414l1.26 1.71zm-1.98-4.464a2.28 2.28 0 00-.756-1.08c-.348-.3-.756-.45-1.224-.45-.468 0-.882.15-1.242.45a2.331 2.331 0 00-.738 1.08h3.96zm6.845-7.29V109h-2.43V96.4h2.43zm1.627 3.96h1.35v-.9c0-1.02.264-1.812.792-2.376.54-.576 1.266-.864 2.178-.864h1.62v2.34h-.99c-.36 0-.648.114-.864.342-.204.216-.306.522-.306.918v.54h1.98v2.25h-1.98V109h-2.43v-6.39h-1.35v-2.25z" class="Primary"/>
    <circle cx="331" cy="89" r="12" fill="#F1F3F5" style="mix-blend-mode:multiply"/>
    <path fill="#1A1717" d="M334.066 85.933a.8.8 0 010 1.132l-5 5a.8.8 0 11-1.131-1.132l5-5a.8.8 0 011.131 0z" class="Vector 33 (Stroke)"/>
    <path fill="#1A1717" d="M334.065 92.065a.8.8 0 01-1.131 0l-5-5a.8.8 0 011.131-1.132l5 5a.799.799 0 010 1.132z" class="Vector 34 (Stroke)"/>
    <path fill="#25272E" d="M37.74 147.2l3.92 9.8h-1.61l-.98-2.52h-4.34l-.98 2.52h-1.61l3.92-9.8h1.68zm-.84 1.82l-1.61 4.06h3.22l-1.61-4.06zm6.653 8.75c.214.233.485.429.812.588.326.168.686.252 1.078.252.634 0 1.143-.196 1.526-.588.382-.392.574-.919.574-1.582v-.63a2.686 2.686 0 01-.882.742 2.632 2.632 0 01-1.288.308 2.797 2.797 0 01-1.498-.434 3.21 3.21 0 01-1.106-1.204 3.633 3.633 0 01-.406-1.722c0-.635.135-1.209.406-1.722a3.21 3.21 0 011.106-1.204 2.797 2.797 0 011.498-.434c.485 0 .914.103 1.288.308.373.205.667.453.882.742v-.91h1.4v6.16c0 .672-.15 1.274-.448 1.806a3.2 3.2 0 01-1.246 1.246c-.532.299-1.134.448-1.806.448a3.817 3.817 0 01-1.68-.364c-.495-.243-.892-.541-1.19-.896l.98-.91zm2.1-2.24c.345 0 .662-.084.952-.252.29-.177.518-.42.686-.728.168-.308.252-.658.252-1.05s-.084-.742-.252-1.05a1.805 1.805 0 00-.686-.714 1.79 1.79 0 00-.952-.266 1.79 1.79 0 00-.952.266c-.29.168-.518.406-.686.714a2.157 2.157 0 00-.252 1.05c0 .392.084.742.252 1.05.168.308.396.551.686.728.29.168.606.252.952.252zm11.2.518c-.28.308-.666.569-1.161.784-.495.205-1.064.308-1.708.308a3.533 3.533 0 01-1.778-.462 3.4 3.4 0 01-1.26-1.26 3.532 3.532 0 01-.462-1.778c0-.644.154-1.232.462-1.764a3.434 3.434 0 011.246-1.26 3.259 3.259 0 011.722-.476c.625 0 1.185.145 1.68.434.504.28.896.672 1.176 1.176.29.495.434 1.055.434 1.68 0 .261-.023.495-.07.7h-5.18c.075.467.308.863.7 1.19.392.327.858.49 1.4.49.392 0 .756-.07 1.092-.21.345-.149.635-.327.868-.532l.84.98zm-1.12-3.108c-.111-.467-.326-.84-.643-1.12-.308-.28-.7-.42-1.176-.42-.504 0-.92.14-1.246.42-.327.271-.565.644-.714 1.12h3.78z" class="Field form label"/>
    <path fill="#fff" d="M32 185c0-6.627 5.373-12 12-12h79c6.627 0 12 5.373 12 12v24c0 6.627-5.373 12-12 12H44c-6.627 0-12-5.373-12-12v-24z" class="Rectangle 1144"/>
    <path fill="#F1F3F5" fill-rule="evenodd" d="M123 174H44c-6.075 0-11 4.925-11 11v24c0 6.075 4.925 11 11 11h79c6.075 0 11-4.925 11-11v-24c0-6.075-4.925-11-11-11zm-79-1c-6.627 0-12 5.373-12 12v24c0 6.627 5.373 12 12 12h79c6.627 0 12-5.373 12-12v-24c0-6.627-5.373-12-12-12H44z" clip-rule="evenodd" style="mix-blend-mode:multiply"/>
    <path fill="#25272E" d="M53.9 200.6c.333.44.793.82 1.38 1.14.6.307 1.273.46 2.02.46.88 0 1.567-.213 2.06-.64.493-.44.74-.993.74-1.66 0-.627-.253-1.147-.76-1.56-.493-.427-1.173-.64-2.04-.64h-1.5v-2.1h1.5c.733 0 1.3-.173 1.7-.52.4-.347.6-.807.6-1.38 0-.573-.2-1.033-.6-1.38-.4-.347-.967-.52-1.7-.52-.627 0-1.2.14-1.72.42-.52.267-.947.593-1.28.98l-1.5-1.5c.493-.533 1.127-.98 1.9-1.34.787-.373 1.653-.56 2.6-.56.907 0 1.7.167 2.38.5.68.333 1.2.787 1.56 1.36.373.56.56 1.173.56 1.84 0 .747-.207 1.387-.62 1.92-.4.533-.893.927-1.48 1.18a4.26 4.26 0 011.84 1.26c.507.573.76 1.287.76 2.14 0 .773-.207 1.48-.62 2.12-.4.64-.98 1.147-1.74 1.52s-1.64.56-2.64.56c-1.08 0-2.047-.2-2.9-.6-.84-.413-1.507-.913-2-1.5l1.5-1.5zm16.309 3.6c-1.08 0-2.06-.28-2.94-.84-.88-.573-1.58-1.4-2.1-2.48-.507-1.093-.76-2.387-.76-3.88 0-1.493.253-2.78.76-3.86.52-1.093 1.22-1.92 2.1-2.48.88-.573 1.86-.86 2.94-.86 1.08 0 2.06.287 2.94.86.88.56 1.573 1.387 2.08 2.48.52 1.08.78 2.367.78 3.86 0 1.493-.26 2.787-.78 3.88-.507 1.08-1.2 1.907-2.08 2.48-.88.56-1.86.84-2.94.84zm3.6-7.2c0-1.12-.167-2.067-.5-2.84-.32-.787-.754-1.373-1.3-1.76-.547-.4-1.147-.6-1.8-.6-.654 0-1.254.2-1.8.6-.547.387-.987.973-1.32 1.76-.32.773-.48 1.72-.48 2.84 0 1.12.16 2.073.48 2.86.333.773.773 1.36 1.32 1.76.546.387 1.146.58 1.8.58.653 0 1.253-.193 1.8-.58.546-.4.98-.987 1.3-1.76.333-.787.5-1.74.5-2.86z" class="Dollar value"/>
    <path fill="#25272E" fill-rule="evenodd" d="M180 190h-2c-1.914 0-3.249.002-4.256.138-.978.131-1.496.372-1.865.741s-.61.887-.741 1.865c-.136 1.007-.138 2.342-.138 4.256v2c0 1.914.002 3.249.138 4.256.131.978.372 1.496.741 1.865s.887.61 1.865.741c1.007.136 2.342.138 4.256.138h2c1.914 0 3.249-.002 4.256-.138.978-.131 1.496-.372 1.865-.741s.61-.887.741-1.865c.136-1.007.138-2.342.138-4.256v-2c0-1.914-.002-3.249-.138-4.256-.131-.978-.372-1.496-.741-1.865s-.887-.61-1.865-.741c-1.007-.136-2.342-.138-4.256-.138zm-8.828.172C170 191.343 170 193.229 170 197v2c0 3.771 0 5.657 1.172 6.828C172.343 207 174.229 207 178 207h2c3.771 0 5.657 0 6.828-1.172C188 204.657 188 202.771 188 199v-2c0-3.771 0-5.657-1.172-6.828C185.657 189 183.771 189 180 189h-2c-3.771 0-5.657 0-6.828 1.172z" class="Rectangle (Stroke)" clip-rule="evenodd"/>
    <path fill="#25272E" d="M201.72 198.6c0 .661.144 1.253.432 1.776a3.29 3.29 0 001.216 1.232 3.432 3.432 0 001.712.432c.629 0 1.2-.144 1.712-.432a3.172 3.172 0 001.2-1.232c.299-.523.448-1.115.448-1.776v-6.8h1.2v6.8a4.522 4.522 0 01-4.56 4.56 4.522 4.522 0 01-4.56-4.56v-6.8h1.2v6.8zm10.796 2.4c.214.309.496.576.848.8.352.213.736.32 1.152.32.544 0 .96-.117 1.248-.352.288-.245.432-.555.432-.928a.878.878 0 00-.448-.8c-.288-.181-.725-.357-1.312-.528-.522-.16-.944-.309-1.264-.448a2.314 2.314 0 01-.8-.64c-.224-.288-.336-.656-.336-1.104 0-.373.107-.725.32-1.056.224-.331.528-.597.912-.8a2.863 2.863 0 011.328-.304c.523 0 .998.101 1.424.304.438.203.79.448 1.056.736l-.8.8a1.963 1.963 0 00-.704-.56 1.974 1.974 0 00-.976-.24c-.426 0-.773.112-1.04.336-.266.224-.4.485-.4.784a.83.83 0 00.416.752c.278.16.71.325 1.296.496.523.16.944.315 1.264.464.331.149.608.373.832.672.235.288.352.667.352 1.136 0 .427-.112.816-.336 1.168-.224.352-.549.635-.976.848-.426.203-.922.304-1.488.304-.629 0-1.184-.128-1.664-.384-.48-.267-.858-.592-1.136-.976l.8-.8zm13.275.848c-.341.363-.789.672-1.344.928-.554.256-1.173.384-1.856.384a3.722 3.722 0 01-1.92-.528 4.103 4.103 0 01-1.408-1.456 4.05 4.05 0 01-.512-2.016c0-.725.171-1.392.512-2a3.969 3.969 0 011.392-1.456 3.42 3.42 0 011.856-.544c.683 0 1.307.165 1.872.496a3.502 3.502 0 011.328 1.376c.32.576.48 1.232.48 1.968 0 .203-.026.395-.08.576l-6.24-.016c.022.448.16.869.416 1.264a2.9 2.9 0 00.992.944c.406.235.843.352 1.312.352.534 0 1.014-.096 1.44-.288a3.294 3.294 0 001.04-.704l.72.72zm-.72-3.248c-.085-.693-.368-1.264-.848-1.712a2.356 2.356 0 00-1.712-.688c-.437 0-.848.112-1.232.336a2.803 2.803 0 00-.96.88 2.692 2.692 0 00-.448 1.184h5.2zm3.195 2.4c.214.309.496.576.848.8.352.213.736.32 1.152.32.544 0 .96-.117 1.248-.352.288-.245.432-.555.432-.928a.878.878 0 00-.448-.8c-.288-.181-.725-.357-1.312-.528-.522-.16-.944-.309-1.264-.448a2.314 2.314 0 01-.8-.64c-.224-.288-.336-.656-.336-1.104 0-.373.107-.725.32-1.056.224-.331.528-.597.912-.8a2.863 2.863 0 011.328-.304c.523 0 .998.101 1.424.304.438.203.79.448 1.056.736l-.8.8a1.963 1.963 0 00-.704-.56 1.974 1.974 0 00-.976-.24c-.426 0-.773.112-1.04.336-.266.224-.4.485-.4.784a.83.83 0 00.416.752c.278.16.71.325 1.296.496.523.16.944.315 1.264.464.331.149.608.373.832.672.235.288.352.667.352 1.136 0 .427-.112.816-.336 1.168-.224.352-.549.635-.976.848-.426.203-.922.304-1.488.304-.629 0-1.184-.128-1.664-.384-.48-.267-.858-.592-1.136-.976l.8-.8zm9.589-5.68h1.44v-2.56h1.12v2.56h2.08v1.04h-2.08v4.56c0 .384.085.656.256.816.181.149.443.224.784.224h1.04V203h-1.088c-.672 0-1.195-.171-1.568-.512-.363-.341-.544-.864-.544-1.568v-4.56h-1.44v-1.04zm9.769 7.84a3.81 3.81 0 01-1.968-.528 4.056 4.056 0 01-1.424-1.456 3.951 3.951 0 01-.528-2.016c0-.736.176-1.408.528-2.016a3.926 3.926 0 011.424-1.44 3.72 3.72 0 011.968-.544c.715 0 1.371.181 1.968.544a3.918 3.918 0 011.424 1.44c.352.608.528 1.28.528 2.016s-.176 1.408-.528 2.016a4.047 4.047 0 01-1.424 1.456 3.804 3.804 0 01-1.968.528zm0-1.04c.502 0 .966-.128 1.392-.384a2.992 2.992 0 001.408-2.576c0-.544-.128-1.04-.384-1.488a2.825 2.825 0 00-1.024-1.072 2.57 2.57 0 00-1.392-.4c-.501 0-.965.133-1.392.4a2.833 2.833 0 00-1.024 1.072 2.946 2.946 0 00-.384 1.488c0 .544.128 1.045.384 1.504a3 3 0 001.024 1.072c.427.256.891.384 1.392.384zm7.122-5.68c.266-.352.629-.651 1.088-.896a3.128 3.128 0 011.552-.384c.682 0 1.312.176 1.888.528a3.642 3.642 0 011.36 1.424c.341.608.512 1.291.512 2.048 0 .757-.171 1.44-.512 2.048a3.761 3.761 0 01-1.36 1.44 3.641 3.641 0 01-1.888.512 3.24 3.24 0 01-1.552-.368c-.459-.256-.822-.56-1.088-.912V203h-1.12v-11.2h1.12v4.64zm2.64 5.68c.48 0 .922-.123 1.328-.368a2.71 2.71 0 00.96-1.056c.234-.448.352-.96.352-1.536 0-.576-.118-1.088-.352-1.536a2.591 2.591 0 00-.96-1.04 2.44 2.44 0 00-1.328-.384c-.448 0-.88.133-1.296.4a2.786 2.786 0 00-.976 1.072 3.04 3.04 0 00-.368 1.488c0 .544.122 1.045.368 1.504.245.448.57.805.976 1.072a2.44 2.44 0 001.296.384zm10.393-.16c-.245.331-.581.613-1.008.848-.426.235-.917.352-1.472.352a3.01 3.01 0 01-1.392-.32 2.59 2.59 0 01-.976-.832c-.234-.352-.352-.715-.352-1.088 0-.651.192-1.184.576-1.6.395-.416.95-.656 1.664-.72l2.96-.256c0-.373-.085-.725-.256-1.056a1.885 1.885 0 00-.688-.784 1.652 1.652 0 00-.976-.304c-.448 0-.858.053-1.232.16-.373.107-.682.24-.928.4l-.72-.72c.32-.245.731-.453 1.232-.624a5.08 5.08 0 011.648-.256c.576 0 1.094.133 1.552.4.47.256.832.608 1.088 1.056.267.448.4.949.4 1.504V203h-1.12v-1.04zm-2.64-2.4c-.469.043-.826.187-1.072.432a1.26 1.26 0 00-.368.928c0 .341.139.629.416.864.288.224.683.336 1.184.336.747 0 1.344-.203 1.792-.608.459-.416.688-.992.688-1.728v-.48l-2.64.256zm12.324 2a4.611 4.611 0 01-1.392 1.136 3.654 3.654 0 01-1.808.464 3.717 3.717 0 01-1.92-.528 4.094 4.094 0 01-1.408-1.456 4.05 4.05 0 01-.512-2.016c0-.736.171-1.408.512-2.016a3.961 3.961 0 011.408-1.44 3.631 3.631 0 011.92-.544c.651 0 1.248.149 1.792.448a4.16 4.16 0 011.328 1.072l-.8.8a3.162 3.162 0 00-.976-.896 2.417 2.417 0 00-1.344-.384c-.48 0-.928.133-1.344.4a2.87 2.87 0 00-1.008 1.072 3.05 3.05 0 00-.368 1.488c0 .544.123 1.045.368 1.504.256.448.592.805 1.008 1.072.416.256.864.384 1.344.384.501 0 .96-.123 1.376-.368a3.7 3.7 0 001.024-.912l.8.72zm8.078 0a4.587 4.587 0 01-1.392 1.136 3.652 3.652 0 01-1.808.464 3.722 3.722 0 01-1.92-.528 4.103 4.103 0 01-1.408-1.456 4.05 4.05 0 01-.512-2.016c0-.736.171-1.408.512-2.016a3.97 3.97 0 011.408-1.44 3.637 3.637 0 011.92-.544c.651 0 1.248.149 1.792.448a4.16 4.16 0 011.328 1.072l-.8.8a3.15 3.15 0 00-.976-.896 2.412 2.412 0 00-1.344-.384c-.48 0-.928.133-1.344.4a2.87 2.87 0 00-1.008 1.072 3.05 3.05 0 00-.368 1.488c0 .544.123 1.045.368 1.504.256.448.592.805 1.008 1.072.416.256.864.384 1.344.384.502 0 .96-.123 1.376-.368.416-.256.758-.56 1.024-.912l.8.72zm4.958 1.6a3.81 3.81 0 01-1.968-.528 4.056 4.056 0 01-1.424-1.456 3.951 3.951 0 01-.528-2.016c0-.736.176-1.408.528-2.016a3.926 3.926 0 011.424-1.44 3.72 3.72 0 011.968-.544c.715 0 1.371.181 1.968.544a3.918 3.918 0 011.424 1.44c.352.608.528 1.28.528 2.016s-.176 1.408-.528 2.016a4.047 4.047 0 01-1.424 1.456 3.804 3.804 0 01-1.968.528zm0-1.04c.502 0 .966-.128 1.392-.384a2.992 2.992 0 001.408-2.576c0-.544-.128-1.04-.384-1.488a2.825 2.825 0 00-1.024-1.072 2.57 2.57 0 00-1.392-.4c-.501 0-.965.133-1.392.4a2.833 2.833 0 00-1.024 1.072 2.946 2.946 0 00-.384 1.488c0 .544.128 1.045.384 1.504a3 3 0 001.024 1.072c.427.256.891.384 1.392.384z" class="Uses tobacco"/>
    <g class="Rectangle 1153_2" filter="url(#filter1_d)">
      <rect width="343" height="180" x="16" y="257" fill="#fff" rx="24"/>
    </g>
    <circle cx="52" cy="297" r="20" fill="#E4F0F0" class="Circle_3"/>
    <g class="Intersect_2">
      <path fill="#678085" d="M38.48 311.739c2.162-5.057 6.683-8.489 13.52-8.489s11.358 3.432 13.52 8.489A19.928 19.928 0 0152 317c-5.213 0-9.96-1.994-13.52-5.261zM59.5 292a7.5 7.5 0 11-15 0 7.5 7.5 0 0115 0z"/>
    </g>
    <path fill="#25272E" d="M92.05 292.4l4.32 5.4 4.32-5.4h2.43V305h-2.7v-8.28l-4.05 5.04-4.05-5.04V305h-2.7v-12.6h2.43zm14.304 14.04c.732 0 1.242-.36 1.53-1.08l.18-.45-3.42-8.73h2.61l2.07 5.85h.09l1.98-5.85h2.61l-3.6 9.54c-.384 1.02-.852 1.782-1.404 2.286-.552.516-1.224.774-2.016.774h-1.62v-2.34h.99zm13.513-4.95c.324.372.744.69 1.26.954a3.699 3.699 0 001.71.396c.684 0 1.2-.132 1.548-.396.348-.264.522-.612.522-1.044 0-.396-.186-.702-.558-.918-.372-.228-.96-.474-1.764-.738a19.813 19.813 0 01-2.052-.81 3.962 3.962 0 01-1.35-1.152c-.384-.504-.576-1.158-.576-1.962 0-.672.186-1.284.558-1.836.372-.564.906-1.014 1.602-1.35.696-.336 1.506-.504 2.43-.504.912 0 1.734.168 2.466.504.732.324 1.32.726 1.764 1.206l-1.8 1.8a3.506 3.506 0 00-1.026-.756 2.767 2.767 0 00-1.314-.324c-.648 0-1.128.114-1.44.342-.3.228-.45.534-.45.918 0 .396.186.708.558.936.372.216.96.456 1.764.72.84.288 1.518.564 2.034.828.528.252.984.63 1.368 1.134.384.504.576 1.158.576 1.962 0 .696-.198 1.338-.594 1.926-.384.588-.936 1.062-1.656 1.422-.72.348-1.56.522-2.52.522-1.056 0-2.01-.192-2.862-.576-.84-.384-1.506-.852-1.998-1.404l1.8-1.8zm11.969-4.05h.09a3.445 3.445 0 011.134-1.008c.48-.288 1.032-.432 1.656-.432.696 0 1.344.198 1.944.594.612.396 1.098.942 1.458 1.638.372.696.558 1.482.558 2.358 0 .876-.186 1.662-.558 2.358-.36.696-.846 1.242-1.458 1.638-.6.396-1.248.594-1.944.594-.624 0-1.176-.138-1.656-.414-.48-.288-.858-.63-1.134-1.026h-.09v5.04h-2.43v-12.6h2.43v1.26zm2.16 5.49c.636 0 1.17-.222 1.602-.666.432-.444.648-1.002.648-1.674 0-.672-.216-1.23-.648-1.674a2.146 2.146 0 00-1.602-.666c-.636 0-1.17.222-1.602.666-.432.444-.648 1.002-.648 1.674 0 .672.216 1.23.648 1.674.432.444.966.666 1.602.666zm5.945-2.34c0-.828.204-1.59.612-2.286.42-.708.99-1.266 1.71-1.674.72-.42 1.506-.63 2.358-.63.852 0 1.638.21 2.358.63.72.408 1.284.966 1.692 1.674.42.696.63 1.458.63 2.286 0 .828-.21 1.596-.63 2.304a4.62 4.62 0 01-1.692 1.674 4.701 4.701 0 01-2.358.612 4.701 4.701 0 01-2.358-.612 4.765 4.765 0 01-1.71-1.674 4.535 4.535 0 01-.612-2.304zm4.68 2.34c.636 0 1.17-.222 1.602-.666.432-.444.648-1.002.648-1.674 0-.672-.216-1.23-.648-1.674a2.146 2.146 0 00-1.602-.666c-.636 0-1.17.222-1.602.666-.432.444-.648 1.002-.648 1.674 0 .672.216 1.23.648 1.674.432.444.966.666 1.602.666zm8.907-1.8c0 .54.144.96.432 1.26.288.3.684.45 1.188.45.54 0 .99-.186 1.35-.558.36-.372.54-.846.54-1.422v-4.68h2.43V305h-2.43v-1.26h-.09a3.765 3.765 0 01-1.098 1.026 2.805 2.805 0 01-1.512.414c-.6 0-1.146-.15-1.638-.45a3.312 3.312 0 01-1.17-1.296c-.288-.564-.432-1.212-.432-1.944v-5.31h2.43v4.95zm8.815.9c.276.276.618.51 1.026.702.408.192.846.288 1.314.288.72 0 1.08-.21 1.08-.63 0-.168-.114-.306-.342-.414-.216-.12-.564-.258-1.044-.414a18.023 18.023 0 01-1.566-.612 3.415 3.415 0 01-1.098-.846c-.3-.372-.45-.84-.45-1.404 0-.492.138-.942.414-1.35.276-.408.678-.732 1.206-.972.54-.252 1.17-.378 1.89-.378.732 0 1.392.132 1.98.396.6.264 1.08.582 1.44.954l-1.44 1.53a2.514 2.514 0 00-.846-.504 2.937 2.937 0 00-1.134-.216c-.3 0-.528.054-.684.162-.144.108-.216.234-.216.378 0 .168.108.312.324.432.228.108.582.24 1.062.396.624.216 1.146.426 1.566.63.42.192.78.474 1.08.846.312.36.468.822.468 1.386 0 .516-.144.99-.432 1.422-.276.42-.696.756-1.26 1.008-.552.24-1.218.36-1.998.36a5.031 5.031 0 01-2.178-.468c-.66-.312-1.194-.696-1.602-1.152l1.44-1.53zm15.571 2.124c-.408.288-.942.534-1.602.738a7.777 7.777 0 01-2.178.288 4.701 4.701 0 01-2.358-.612 4.765 4.765 0 01-1.71-1.674 4.535 4.535 0 01-.612-2.304c0-.828.204-1.59.612-2.286a4.663 4.663 0 011.674-1.674 4.436 4.436 0 012.304-.63c.792 0 1.524.198 2.196.594a4.372 4.372 0 011.62 1.62c.396.672.594 1.404.594 2.196 0 .396-.03.756-.09 1.08h-6.39c.144.444.408.81.792 1.098.396.288.912.432 1.548.432a5.14 5.14 0 001.35-.162c.408-.12.738-.258.99-.414l1.26 1.71zm-1.98-4.464a2.28 2.28 0 00-.756-1.08c-.348-.3-.756-.45-1.224-.45-.468 0-.882.15-1.242.45a2.331 2.331 0 00-.738 1.08h3.96z" class="Primary_2"/>
    <circle cx="331" cy="285" r="12" fill="#F1F3F5" style="mix-blend-mode:multiply"/>
    <path fill="#1A1717" d="M334.066 281.934a.8.8 0 010 1.131l-5 5a.8.8 0 01-1.131-1.131l5-5a.799.799 0 011.131 0z" class="Vector 33 (Stroke)_2"/>
    <path fill="#1A1717" d="M334.065 288.065a.8.8 0 01-1.131 0l-5-5a.8.8 0 011.131-1.131l5 5a.799.799 0 010 1.131z" class="Vector 34 (Stroke)_2"/>
    <path fill="#25272E" d="M37.74 343.2l3.92 9.8h-1.61l-.98-2.52h-4.34l-.98 2.52h-1.61l3.92-9.8h1.68zm-.84 1.82l-1.61 4.06h3.22l-1.61-4.06zm6.653 8.75c.214.233.485.429.812.588.326.168.686.252 1.078.252.634 0 1.143-.196 1.526-.588.382-.392.574-.919.574-1.582v-.63a2.686 2.686 0 01-.882.742 2.632 2.632 0 01-1.288.308 2.797 2.797 0 01-1.498-.434 3.21 3.21 0 01-1.106-1.204 3.633 3.633 0 01-.406-1.722c0-.635.135-1.209.406-1.722a3.21 3.21 0 011.106-1.204 2.797 2.797 0 011.498-.434c.485 0 .914.103 1.288.308.373.205.667.453.882.742v-.91h1.4v6.16c0 .672-.15 1.274-.448 1.806a3.2 3.2 0 01-1.246 1.246c-.532.299-1.134.448-1.806.448a3.817 3.817 0 01-1.68-.364c-.495-.243-.892-.541-1.19-.896l.98-.91zm2.1-2.24c.345 0 .662-.084.952-.252.29-.177.518-.42.686-.728.168-.308.252-.658.252-1.05s-.084-.742-.252-1.05a1.805 1.805 0 00-.686-.714 1.79 1.79 0 00-.952-.266 1.79 1.79 0 00-.952.266c-.29.168-.518.406-.686.714a2.157 2.157 0 00-.252 1.05c0 .392.084.742.252 1.05.168.308.396.551.686.728.29.168.606.252.952.252zm11.2.518c-.28.308-.666.569-1.161.784-.495.205-1.064.308-1.708.308a3.533 3.533 0 01-1.778-.462 3.4 3.4 0 01-1.26-1.26 3.532 3.532 0 01-.462-1.778c0-.644.154-1.232.462-1.764a3.434 3.434 0 011.246-1.26 3.259 3.259 0 011.722-.476c.625 0 1.185.145 1.68.434.504.28.896.672 1.176 1.176.29.495.434 1.055.434 1.68 0 .261-.023.495-.07.7h-5.18c.075.467.308.863.7 1.19.392.327.858.49 1.4.49.392 0 .756-.07 1.092-.21.345-.149.635-.327.868-.532l.84.98zm-1.12-3.108c-.111-.467-.326-.84-.643-1.12-.308-.28-.7-.42-1.176-.42-.504 0-.92.14-1.246.42-.327.271-.565.644-.714 1.12h3.78z" class="Field form label_2"/>
    <path fill="#fff" d="M32 381c0-6.627 5.373-12 12-12h79c6.627 0 12 5.373 12 12v24c0 6.627-5.373 12-12 12H44c-6.627 0-12-5.373-12-12v-24z" class="Rectangle 1144_2"/>
    <path fill="#1169F5" fill-rule="evenodd" d="M123 370H44c-6.075 0-11 4.925-11 11v24c0 6.075 4.925 11 11 11h79c6.075 0 11-4.925 11-11v-24c0-6.075-4.925-11-11-11zm-79-1c-6.627 0-12 5.373-12 12v24c0 6.627 5.373 12 12 12h79c6.627 0 12-5.373 12-12v-24c0-6.627-5.373-12-12-12H44z" class="Rectangle 1144 (Stroke)_2" clip-rule="evenodd"/>
    <path fill="#25272E" d="M53.9 396.6c.333.44.793.82 1.38 1.14.6.307 1.273.46 2.02.46.88 0 1.567-.213 2.06-.64.493-.44.74-.993.74-1.66 0-.627-.253-1.147-.76-1.56-.493-.427-1.173-.64-2.04-.64h-1.5v-2.1h1.5c.733 0 1.3-.173 1.7-.52.4-.347.6-.807.6-1.38 0-.573-.2-1.033-.6-1.38-.4-.347-.967-.52-1.7-.52-.627 0-1.2.14-1.72.42-.52.267-.947.593-1.28.98l-1.5-1.5c.493-.533 1.127-.98 1.9-1.34.787-.373 1.653-.56 2.6-.56.907 0 1.7.167 2.38.5.68.333 1.2.787 1.56 1.36.373.56.56 1.173.56 1.84 0 .747-.207 1.387-.62 1.92-.4.533-.893.927-1.48 1.18a4.26 4.26 0 011.84 1.26c.507.573.76 1.287.76 2.14 0 .773-.207 1.48-.62 2.12-.4.64-.98 1.147-1.74 1.52s-1.64.56-2.64.56c-1.08 0-2.047-.2-2.9-.6-.84-.413-1.507-.913-2-1.5l1.5-1.5zm10.109 3.4c0-1.12.206-2.087.62-2.9.426-.813.933-1.473 1.52-1.98.586-.52 1.346-1.093 2.28-1.72.653-.44 1.16-.8 1.52-1.08.36-.293.66-.62.9-.98.24-.373.36-.787.36-1.24 0-.667-.22-1.2-.66-1.6-.44-.4-1.054-.6-1.84-.6-.694 0-1.267.187-1.72.56-.454.36-.78.807-.98 1.34l-1.8-.8a4.69 4.69 0 011.54-2.26c.76-.627 1.746-.94 2.96-.94.906 0 1.72.193 2.44.58.72.373 1.273.887 1.66 1.54.4.653.6 1.38.6 2.18 0 .747-.167 1.407-.5 1.98-.32.56-.714 1.04-1.18 1.44-.467.387-1.107.853-1.92 1.4-.84.56-1.514 1.053-2.02 1.48a4.953 4.953 0 00-1.18 1.5h6.8v2.1h-9.4z" class="Dollar value_2"/>
    <path fill="#25272E" fill-rule="evenodd" d="M180 386h-2c-1.914 0-3.249.002-4.256.138-.978.131-1.496.372-1.865.741s-.61.887-.741 1.865c-.136 1.007-.138 2.342-.138 4.256v2c0 1.914.002 3.249.138 4.256.131.978.372 1.496.741 1.865s.887.61 1.865.741c1.007.136 2.342.138 4.256.138h2c1.914 0 3.249-.002 4.256-.138.978-.131 1.496-.372 1.865-.741s.61-.887.741-1.865c.136-1.007.138-2.342.138-4.256v-2c0-1.914-.002-3.249-.138-4.256-.131-.978-.372-1.496-.741-1.865s-.887-.61-1.865-.741c-1.007-.136-2.342-.138-4.256-.138zm-8.828.172C170 387.343 170 389.229 170 393v2c0 3.771 0 5.657 1.172 6.828C172.343 403 174.229 403 178 403h2c3.771 0 5.657 0 6.828-1.172C188 400.657 188 398.771 188 395v-2c0-3.771 0-5.657-1.172-6.828C185.657 385 183.771 385 180 385h-2c-3.771 0-5.657 0-6.828 1.172z" class="Rectangle (Stroke)_2" clip-rule="evenodd"/>
    <path fill="#25272E" d="M201.72 394.6c0 .661.144 1.253.432 1.776a3.29 3.29 0 001.216 1.232 3.432 3.432 0 001.712.432c.629 0 1.2-.144 1.712-.432a3.172 3.172 0 001.2-1.232c.299-.523.448-1.115.448-1.776v-6.8h1.2v6.8a4.522 4.522 0 01-4.56 4.56 4.522 4.522 0 01-4.56-4.56v-6.8h1.2v6.8zm10.796 2.4c.214.309.496.576.848.8.352.213.736.32 1.152.32.544 0 .96-.117 1.248-.352.288-.245.432-.555.432-.928a.878.878 0 00-.448-.8c-.288-.181-.725-.357-1.312-.528-.522-.16-.944-.309-1.264-.448a2.314 2.314 0 01-.8-.64c-.224-.288-.336-.656-.336-1.104 0-.373.107-.725.32-1.056.224-.331.528-.597.912-.8a2.863 2.863 0 011.328-.304c.523 0 .998.101 1.424.304.438.203.79.448 1.056.736l-.8.8a1.963 1.963 0 00-.704-.56 1.974 1.974 0 00-.976-.24c-.426 0-.773.112-1.04.336-.266.224-.4.485-.4.784a.83.83 0 00.416.752c.278.16.71.325 1.296.496.523.16.944.315 1.264.464.331.149.608.373.832.672.235.288.352.667.352 1.136 0 .427-.112.816-.336 1.168-.224.352-.549.635-.976.848-.426.203-.922.304-1.488.304-.629 0-1.184-.128-1.664-.384-.48-.267-.858-.592-1.136-.976l.8-.8zm13.275.848c-.341.363-.789.672-1.344.928-.554.256-1.173.384-1.856.384a3.722 3.722 0 01-1.92-.528 4.103 4.103 0 01-1.408-1.456 4.05 4.05 0 01-.512-2.016c0-.725.171-1.392.512-2a3.969 3.969 0 011.392-1.456 3.42 3.42 0 011.856-.544c.683 0 1.307.165 1.872.496a3.502 3.502 0 011.328 1.376c.32.576.48 1.232.48 1.968 0 .203-.026.395-.08.576l-6.24-.016c.022.448.16.869.416 1.264a2.9 2.9 0 00.992.944c.406.235.843.352 1.312.352.534 0 1.014-.096 1.44-.288a3.294 3.294 0 001.04-.704l.72.72zm-.72-3.248c-.085-.693-.368-1.264-.848-1.712a2.356 2.356 0 00-1.712-.688c-.437 0-.848.112-1.232.336a2.803 2.803 0 00-.96.88 2.692 2.692 0 00-.448 1.184h5.2zm3.195 2.4c.214.309.496.576.848.8.352.213.736.32 1.152.32.544 0 .96-.117 1.248-.352.288-.245.432-.555.432-.928a.878.878 0 00-.448-.8c-.288-.181-.725-.357-1.312-.528-.522-.16-.944-.309-1.264-.448a2.314 2.314 0 01-.8-.64c-.224-.288-.336-.656-.336-1.104 0-.373.107-.725.32-1.056.224-.331.528-.597.912-.8a2.863 2.863 0 011.328-.304c.523 0 .998.101 1.424.304.438.203.79.448 1.056.736l-.8.8a1.963 1.963 0 00-.704-.56 1.974 1.974 0 00-.976-.24c-.426 0-.773.112-1.04.336-.266.224-.4.485-.4.784a.83.83 0 00.416.752c.278.16.71.325 1.296.496.523.16.944.315 1.264.464.331.149.608.373.832.672.235.288.352.667.352 1.136 0 .427-.112.816-.336 1.168-.224.352-.549.635-.976.848-.426.203-.922.304-1.488.304-.629 0-1.184-.128-1.664-.384-.48-.267-.858-.592-1.136-.976l.8-.8zm9.589-5.68h1.44v-2.56h1.12v2.56h2.08v1.04h-2.08v4.56c0 .384.085.656.256.816.181.149.443.224.784.224h1.04V399h-1.088c-.672 0-1.195-.171-1.568-.512-.363-.341-.544-.864-.544-1.568v-4.56h-1.44v-1.04zm9.769 7.84a3.81 3.81 0 01-1.968-.528 4.056 4.056 0 01-1.424-1.456 3.951 3.951 0 01-.528-2.016c0-.736.176-1.408.528-2.016a3.926 3.926 0 011.424-1.44 3.72 3.72 0 011.968-.544c.715 0 1.371.181 1.968.544a3.918 3.918 0 011.424 1.44c.352.608.528 1.28.528 2.016s-.176 1.408-.528 2.016a4.047 4.047 0 01-1.424 1.456 3.804 3.804 0 01-1.968.528zm0-1.04c.502 0 .966-.128 1.392-.384a2.992 2.992 0 001.408-2.576c0-.544-.128-1.04-.384-1.488a2.825 2.825 0 00-1.024-1.072 2.57 2.57 0 00-1.392-.4c-.501 0-.965.133-1.392.4a2.833 2.833 0 00-1.024 1.072 2.946 2.946 0 00-.384 1.488c0 .544.128 1.045.384 1.504a3 3 0 001.024 1.072c.427.256.891.384 1.392.384zm7.122-5.68c.266-.352.629-.651 1.088-.896a3.128 3.128 0 011.552-.384c.682 0 1.312.176 1.888.528a3.642 3.642 0 011.36 1.424c.341.608.512 1.291.512 2.048 0 .757-.171 1.44-.512 2.048a3.761 3.761 0 01-1.36 1.44 3.641 3.641 0 01-1.888.512 3.24 3.24 0 01-1.552-.368c-.459-.256-.822-.56-1.088-.912V399h-1.12v-11.2h1.12v4.64zm2.64 5.68c.48 0 .922-.123 1.328-.368a2.71 2.71 0 00.96-1.056c.234-.448.352-.96.352-1.536 0-.576-.118-1.088-.352-1.536a2.591 2.591 0 00-.96-1.04 2.44 2.44 0 00-1.328-.384c-.448 0-.88.133-1.296.4a2.786 2.786 0 00-.976 1.072 3.04 3.04 0 00-.368 1.488c0 .544.122 1.045.368 1.504.245.448.57.805.976 1.072a2.44 2.44 0 001.296.384zm10.393-.16c-.245.331-.581.613-1.008.848-.426.235-.917.352-1.472.352a3.01 3.01 0 01-1.392-.32 2.59 2.59 0 01-.976-.832c-.234-.352-.352-.715-.352-1.088 0-.651.192-1.184.576-1.6.395-.416.95-.656 1.664-.72l2.96-.256c0-.373-.085-.725-.256-1.056a1.885 1.885 0 00-.688-.784 1.652 1.652 0 00-.976-.304c-.448 0-.858.053-1.232.16-.373.107-.682.24-.928.4l-.72-.72c.32-.245.731-.453 1.232-.624a5.08 5.08 0 011.648-.256c.576 0 1.094.133 1.552.4.47.256.832.608 1.088 1.056.267.448.4.949.4 1.504V399h-1.12v-1.04zm-2.64-2.4c-.469.043-.826.187-1.072.432a1.26 1.26 0 00-.368.928c0 .341.139.629.416.864.288.224.683.336 1.184.336.747 0 1.344-.203 1.792-.608.459-.416.688-.992.688-1.728v-.48l-2.64.256zm12.324 2a4.611 4.611 0 01-1.392 1.136 3.654 3.654 0 01-1.808.464 3.717 3.717 0 01-1.92-.528 4.094 4.094 0 01-1.408-1.456 4.05 4.05 0 01-.512-2.016c0-.736.171-1.408.512-2.016a3.961 3.961 0 011.408-1.44 3.631 3.631 0 011.92-.544c.651 0 1.248.149 1.792.448a4.16 4.16 0 011.328 1.072l-.8.8a3.162 3.162 0 00-.976-.896 2.417 2.417 0 00-1.344-.384c-.48 0-.928.133-1.344.4a2.87 2.87 0 00-1.008 1.072 3.05 3.05 0 00-.368 1.488c0 .544.123 1.045.368 1.504.256.448.592.805 1.008 1.072.416.256.864.384 1.344.384.501 0 .96-.123 1.376-.368a3.7 3.7 0 001.024-.912l.8.72zm8.078 0a4.587 4.587 0 01-1.392 1.136 3.652 3.652 0 01-1.808.464 3.722 3.722 0 01-1.92-.528 4.103 4.103 0 01-1.408-1.456 4.05 4.05 0 01-.512-2.016c0-.736.171-1.408.512-2.016a3.97 3.97 0 011.408-1.44 3.637 3.637 0 011.92-.544c.651 0 1.248.149 1.792.448a4.16 4.16 0 011.328 1.072l-.8.8a3.15 3.15 0 00-.976-.896 2.412 2.412 0 00-1.344-.384c-.48 0-.928.133-1.344.4a2.87 2.87 0 00-1.008 1.072 3.05 3.05 0 00-.368 1.488c0 .544.123 1.045.368 1.504.256.448.592.805 1.008 1.072.416.256.864.384 1.344.384.502 0 .96-.123 1.376-.368.416-.256.758-.56 1.024-.912l.8.72zm4.958 1.6a3.81 3.81 0 01-1.968-.528 4.056 4.056 0 01-1.424-1.456 3.951 3.951 0 01-.528-2.016c0-.736.176-1.408.528-2.016a3.926 3.926 0 011.424-1.44 3.72 3.72 0 011.968-.544c.715 0 1.371.181 1.968.544a3.918 3.918 0 011.424 1.44c.352.608.528 1.28.528 2.016s-.176 1.408-.528 2.016a4.047 4.047 0 01-1.424 1.456 3.804 3.804 0 01-1.968.528zm0-1.04c.502 0 .966-.128 1.392-.384a2.992 2.992 0 001.408-2.576c0-.544-.128-1.04-.384-1.488a2.825 2.825 0 00-1.024-1.072 2.57 2.57 0 00-1.392-.4c-.501 0-.965.133-1.392.4a2.833 2.833 0 00-1.024 1.072 2.946 2.946 0 00-.384 1.488c0 .544.128 1.045.384 1.504a3 3 0 001.024 1.072c.427.256.891.384 1.392.384z" class="Uses tobacco_2"/>
    <path fill="#25272E" d="M155.716 476.4l5.04 12.6h-2.07l-1.26-3.24h-5.58l-1.26 3.24h-2.07l5.04-12.6h2.16zm-1.08 2.34l-2.07 5.22h4.14l-2.07-5.22zm14.043 9c-.276.396-.672.738-1.188 1.026-.516.276-1.11.414-1.782.414-.72 0-1.392-.192-2.016-.576a4.38 4.38 0 01-1.476-1.62c-.372-.684-.558-1.452-.558-2.304 0-.852.186-1.62.558-2.304.372-.684.864-1.218 1.476-1.602a3.694 3.694 0 012.016-.594c.672 0 1.266.144 1.782.432.516.276.912.612 1.188 1.008v-5.22h1.8V489h-1.8v-1.26zm-2.61-.27c.48 0 .918-.12 1.314-.36s.708-.57.936-.99c.24-.432.36-.912.36-1.44 0-.528-.12-1.002-.36-1.422a2.533 2.533 0 00-.936-1.008 2.487 2.487 0 00-1.314-.36c-.48 0-.918.12-1.314.36s-.714.576-.954 1.008c-.228.42-.342.894-.342 1.422 0 .528.114 1.008.342 1.44.24.42.558.75.954.99.396.24.834.36 1.314.36zm13.509.27c-.276.396-.672.738-1.188 1.026-.516.276-1.11.414-1.782.414-.72 0-1.392-.192-2.016-.576a4.38 4.38 0 01-1.476-1.62c-.372-.684-.558-1.452-.558-2.304 0-.852.186-1.62.558-2.304.372-.684.864-1.218 1.476-1.602a3.694 3.694 0 012.016-.594c.672 0 1.266.144 1.782.432.516.276.912.612 1.188 1.008v-5.22h1.8V489h-1.8v-1.26zm-2.61-.27c.48 0 .918-.12 1.314-.36s.708-.57.936-.99c.24-.432.36-.912.36-1.44 0-.528-.12-1.002-.36-1.422a2.533 2.533 0 00-.936-1.008 2.487 2.487 0 00-1.314-.36c-.48 0-.918.12-1.314.36s-.714.576-.954 1.008c-.228.42-.342.894-.342 1.422 0 .528.114 1.008.342 1.44.24.42.558.75.954.99.396.24.834.36 1.314.36zm18.827-.09c-.384.504-.9.93-1.548 1.278-.636.348-1.35.522-2.142.522-.828 0-1.59-.198-2.286-.594a4.372 4.372 0 01-1.62-1.62 4.543 4.543 0 01-.594-2.286c0-.828.198-1.584.594-2.268a4.333 4.333 0 011.62-1.638 4.543 4.543 0 012.286-.594c.792 0 1.5.168 2.124.504.624.324 1.116.726 1.476 1.206l-1.26 1.17a3.225 3.225 0 00-.99-.828 2.656 2.656 0 00-1.35-.342c-.504 0-.966.12-1.386.36-.408.24-.732.576-.972 1.008-.228.42-.342.894-.342 1.422 0 .528.114 1.008.342 1.44.24.42.564.75.972.99.42.24.882.36 1.386.36.504 0 .966-.12 1.386-.36.42-.252.768-.552 1.044-.9l1.26 1.17zm3.591-5.76a3.5 3.5 0 011.116-1.008 2.961 2.961 0 011.584-.432c.66 0 1.248.156 1.764.468.516.3.918.738 1.206 1.314.3.564.45 1.23.45 1.998V489h-1.8v-5.04c0-.624-.186-1.122-.558-1.494-.36-.384-.834-.576-1.422-.576-.684 0-1.248.228-1.692.684-.432.444-.648 1.026-.648 1.746V489h-1.8v-12.6h1.8v5.22zm8.55-3.96c0-.3.108-.552.324-.756.228-.216.48-.324.756-.324s.522.108.738.324a.974.974 0 01.342.756c0 .3-.114.558-.342.774a1.046 1.046 0 01-.738.306c-.276 0-.528-.102-.756-.306a1.056 1.056 0 01-.324-.774zm1.98 2.7V489h-1.8v-8.64h1.8zm4.5-3.96V489h-1.8v-12.6h1.8zm9.09 11.34c-.276.396-.672.738-1.188 1.026-.516.276-1.11.414-1.782.414-.72 0-1.392-.192-2.016-.576a4.38 4.38 0 01-1.476-1.62c-.372-.684-.558-1.452-.558-2.304 0-.852.186-1.62.558-2.304.372-.684.864-1.218 1.476-1.602a3.694 3.694 0 012.016-.594c.672 0 1.266.144 1.782.432.516.276.912.612 1.188 1.008v-5.22h1.8V489h-1.8v-1.26zm-2.61-.27c.48 0 .918-.12 1.314-.36s.708-.57.936-.99c.24-.432.36-.912.36-1.44 0-.528-.12-1.002-.36-1.422a2.533 2.533 0 00-.936-1.008 2.487 2.487 0 00-1.314-.36c-.48 0-.918.12-1.314.36s-.714.576-.954 1.008c-.228.42-.342.894-.342 1.422 0 .528.114 1.008.342 1.44.24.42.558.75.954.99.396.24.834.36 1.314.36z" class="Add child"/>
    <path fill="#25272E" fill-rule="evenodd" d="M247 462H128c-11.598 0-21 9.402-21 21s9.402 21 21 21h119c11.598 0 21-9.402 21-21s-9.402-21-21-21zm-119-1c-12.15 0-22 9.85-22 22s9.85 22 22 22h119c12.15 0 22-9.85 22-22s-9.85-22-22-22H128z" class="Rectangle 1146 (Stroke)" clip-rule="evenodd"/>
    <g class="Big Next Button">
      <g class="Ellipse 1" filter="url(#filter2_d)">
        <circle cx="331" cy="738" r="28" fill="#25272E"/>
      </g>
      <g class="Iconography/Glyphs/Large/Next">
        <path fill="#fff" d="M344.525 739.022c-.624.546-7.781 7.782-7.781 7.782-.887.775-2.275.146-2.275-1.032v-5.274h-14.548c-1.349 0-2.442-1.123-2.442-2.508 0-1.386 1.093-2.509 2.442-2.509h14.548v-5.273c0-1.178 1.388-1.808 2.275-1.032 0 0 7.157 7.235 7.781 7.782a1.37 1.37 0 010 2.064z" class="Vector"/>
      </g>
    </g>
    <path fill="#fff" d="M0 0h375v88H0z" class="Rectangle 1150"/>
    <g class="Battery">
      <path stroke="#000" d="M338.663 17.8h16.666c1.196 0 2.167.97 2.167 2.167v5.979a2.167 2.167 0 01-2.167 2.167h-16.666a2.167 2.167 0 01-2.167-2.167v-5.979c0-1.196.97-2.166 2.167-2.166z" class="Rectangle" opacity=".35"/>
      <path fill="#000" d="M358.995 20.96v3.993a2.165 2.165 0 000-3.992" class="Combined Shape" opacity=".4"/>
      <path fill="#000" d="M337.996 20.63c0-.736.597-1.333 1.333-1.333h15.333c.737 0 1.334.597 1.334 1.333v4.653c0 .736-.597 1.333-1.334 1.333h-15.333a1.333 1.333 0 01-1.333-1.333V20.63z" class="Rectangle_2"/>
    </g>
    <path fill="#000" fill-rule="evenodd" d="M323.327 19.57c2.216 0 4.347.85 5.953 2.374.12.117.314.116.433-.004l1.156-1.164a.32.32 0 00-.003-.455c-4.215-4.032-10.864-4.032-15.079 0a.32.32 0 00-.003.455l1.156 1.164c.119.12.312.121.433.004a8.65 8.65 0 015.954-2.374zm0 3.788c1.217 0 2.391.452 3.294 1.268a.31.31 0 00.433-.006l1.155-1.165a.324.324 0 00-.005-.458 7.169 7.169 0 00-9.752 0 .32.32 0 00-.004.458l1.154 1.165a.31.31 0 00.433.006 4.912 4.912 0 013.292-1.268zm2.313 2.55a.32.32 0 01-.094.23l-1.998 2.011a.31.31 0 01-.443 0l-1.998-2.012a.315.315 0 01.01-.456 3.426 3.426 0 014.419 0c.065.058.102.14.104.226z" class="Wifi" clip-rule="evenodd"/>
    <path fill="#000" fill-rule="evenodd" d="M309.663 17.633h-1a1 1 0 00-1 .998v8.65a1 1 0 001 .998h1c.553 0 1-.447 1-.998v-8.65a.999.999 0 00-1-.998zm-5.666 2.329h1a1 1 0 011 .998v6.321a1 1 0 01-1 .998h-1a1 1 0 01-1-.998V20.96a1 1 0 011-.998zm-3.667 2.329h-1a1 1 0 00-1 .998v3.992a1 1 0 001 .998h1c.553 0 1-.447 1-.998V23.29a.999.999 0 00-1-.998zm-4.666 1.996h-1a1 1 0 00-1 .998v1.996a1 1 0 001 .998h1a1 1 0 001-.998v-1.996a1 1 0 00-1-.998z" class="Mobile Signal" clip-rule="evenodd"/>
    <path fill="#000" d="M33.842 20.539v.021h1.772v-.029c0-1.047.82-1.823 1.92-1.823 1.047 0 1.83.695 1.83 1.567 0 .79-.33 1.333-1.53 2.556l-3.89 3.867v1.275h7.427v-1.546h-4.907v-.036l2.615-2.586c1.384-1.399 2.13-2.35 2.13-3.61 0-1.715-1.508-3.004-3.617-3.004-2.19 0-3.75 1.4-3.75 3.348zm9.888 5.888a1.04 1.04 0 001.047-1.054 1.04 1.04 0 00-1.047-1.055c-.593 0-1.055.461-1.055 1.055 0 .593.462 1.054 1.055 1.054zm0-5.288c.586 0 1.047-.469 1.047-1.055a1.04 1.04 0 00-1.047-1.054c-.593 0-1.055.461-1.055 1.054 0 .586.462 1.055 1.055 1.055zm6.49 7.046c2.585 0 4.123-2.131 4.123-5.515s-1.553-5.479-4.124-5.479c-2.578 0-4.138 2.11-4.138 5.486 0 3.391 1.545 5.508 4.138 5.508zm0-1.545c-1.407 0-2.235-1.48-2.235-3.97 0-2.446.843-3.933 2.234-3.933 1.385 0 2.212 1.472 2.212 3.94 0 2.49-.813 3.963-2.212 3.963zm5.53 1.333h1.977l4.519-8.994v-1.575h-7.354v1.545h5.494v.037l-4.637 8.987z" class="9:41"/>
    <g class=".Navigation primitives/L1–2/Native/Nav bar (black)">
      <g class="Right">
        <g class="Navigation UI/Secondary/Native/Help">
          <g class="Vector_2">
            <path fill="#25272E" d="M351 75.5a9.5 9.5 0 009.5-9.5 9.5 9.5 0 00-9.5-9.5 9.5 9.5 0 00-9.5 9.5 9.5 9.5 0 009.5 9.5zm0 1.5c-6.075 0-11-4.925-11-11s4.925-11 11-11 11 4.925 11 11-4.925 11-11 11z"/>
            <path fill="#25272E" d="M349.81 67.573c0-2.03 2.38-2.03 2.38-3.52a1.136 1.136 0 00-.807-1.008 1.14 1.14 0 00-.453-.042 1.719 1.719 0 00-1.68 1.15l-1.75-.77a3.56 3.56 0 013.5-2.38c2.07 0 3.36 1.32 3.36 2.79 0 2.59-2.52 2.59-2.52 4.41h-1.89a2.067 2.067 0 01-.14-.63zm-.14 2.52a1.085 1.085 0 01.33-.782 1.083 1.083 0 01.79-.308 1.119 1.119 0 11-1.12 1.09z"/>
          </g>
        </g>
      </g>
      <g class="Left">
        <g class="Navigation UI/Secondary/Native/Back">
          <path fill="#25272E" fill-rule="evenodd" d="M27.002 57.36l-8.157 7.831c-.46.44-.46 1.176 0 1.619l8.157 7.83a1.292 1.292 0 101.79-1.865l-6.832-6.559a.299.299 0 010-.433l6.833-6.56a1.293 1.293 0 00-1.79-1.864z" class="Back" clip-rule="evenodd"/>
        </g>
      </g>
    </g>
    <g class="Explorer Step Dot/Complete">
      <circle cx="141.5" cy="63.5" r="2.5" fill="#03948C" class="Dot"/>
    </g>
    <g class="Explorer Step Dot/Current">
      <circle cx="154.5" cy="63.5" r="4" fill="#03948C" class="Grande Dot"/>
    </g>
    <g class="Explorer Step Dot/Upcoming">
      <circle cx="167.5" cy="63.5" r="2.5" fill="#CEE1E5" class="Dot_2"/>
    </g>
    <g class="Explorer Step Dot/Upcoming_2">
      <circle cx="180.5" cy="63.5" r="2.5" fill="#CEE1E5" class="Dot_3"/>
    </g>
    <g class="Explorer Step Dot/Upcoming_3">
      <circle cx="193.5" cy="63.5" r="2.5" fill="#CEE1E5" class="Dot_4"/>
    </g>
    <g class="Explorer Step Dot/Upcoming_4">
      <circle cx="206.5" cy="63.5" r="2.5" fill="#CEE1E5" class="Dot_5"/>
    </g>
    <g class="Explorer Step Dot/Upcoming_5">
      <circle cx="219.5" cy="63.5" r="2.5" fill="#CEE1E5" class="Dot_6"/>
    </g>
    <g class="Explorer Step Dot/Upcoming_6">
      <circle cx="232.5" cy="63.5" r="2.5" fill="#CEE1E5" class="Dot_7"/>
    </g>
    <g class="Keyboards / Light / Numbers">
      <path fill="#CCCED3" d="M0 521h375v291H0z"/>
      <g class="background" filter="url(#filter3_b)">
        <path fill="#D1D5DB" d="M0 521h375v291H0z"/>
      </g>
      <rect width="134" height="5" x="121" y="799" fill="#000" class="Home Indicator" rx="2.5"/>
      <path fill="#000" fill-rule="evenodd" d="M307.427 702.704c-.097.095-.201.198-.34.338l-2.296 2.297a8.985 8.985 0 00-.298.291l-.094.093-2.07 2.072-.131.134-.056.056-.184.188c-.162.16-.326.341-.481.531-.144.153-.26.33-.343.523l-.022.059a2.33 2.33 0 000 1.426l.023.06c.084.193.201.37.345.522.154.189.318.37.492.542a6.439 6.439 0 00.26.264l.091.094 2.075 2.079c.103.102.149.148.232.228.067.067.107.106.181.175l2.278 2.281c.171.17.247.247.344.341.125.126.208.207.337.333a4.086 4.086 0 001.129.844c.39.197.803.333 1.23.407.399.066.798.101 1.198.106.169.004.34.006.508.007H319.68c.155 0 .308-.003.521-.007.397-.005.8-.04 1.198-.106a4.425 4.425 0 001.241-.409 4.19 4.19 0 001.837-1.834c.198-.395.335-.812.409-1.242a8.09 8.09 0 00.106-1.209c.003-.099.004-.187.006-.381l.002-.124v-7.401l-.001-.107-.003-.239-.004-.177a7.943 7.943 0 00-.104-1.181 4.4 4.4 0 00-.404-1.232 4.242 4.242 0 00-.768-1.058 4.103 4.103 0 00-1.056-.768 4.397 4.397 0 00-1.226-.406c-.402-.065-.8-.1-1.2-.105a18.268 18.268 0 00-.509-.007c-.162-.002-.296-.002-.597-.002h-6.696c-.298 0-.433 0-.603.002-.153 0-.32.002-.511.007-.392.005-.79.04-1.184.104a4.398 4.398 0 00-1.234.407c-.392.2-.748.459-1.056.769-.015.014-.025.025-.112.118-.109.103-.208.2-.305.297zm-2.591 2.597l.002-.002-.008.006.006-.004zm3.196 10.713l-2.302-2.305-.051-.046-.142-.139-.196-.194-2.066-2.07a6.865 6.865 0 00-.096-.098l-.102-.102c-.063-.064-.109-.11-.151-.155a5.65 5.65 0 01-.427-.471l-.044-.049a.482.482 0 01-.084-.117.99.99 0 010-.54.471.471 0 01.085-.119l.04-.045c.129-.159.266-.311.412-.455l.157-.162.078-.078a8.3 8.3 0 00.139-.142l2.059-2.061.096-.094.103-.103.137-.134.054-.049 2.3-2.303c.136-.137.236-.236.334-.331.094-.095.184-.183.28-.274.022-.02.034-.033.093-.095l.047-.049a2.78 2.78 0 01.718-.525c.267-.135.555-.23.852-.281.322-.053.654-.082.988-.086.188-.005.344-.007.493-.007.17-.002.302-.002.596-.002h6.696a45.908 45.908 0 011.081.009c.341.004.675.033 1.004.087.29.05.576.145.845.281a2.837 2.837 0 011.236 1.238c.133.265.228.553.279.85.053.324.082.656.086.989l.004.172.003.23.001.101v7.378l-.002.123c-.002.187-.003.269-.006.369a6.783 6.783 0 01-.088 1.017 2.875 2.875 0 01-2.393 2.39 6.637 6.637 0 01-1 .088c-.21.004-.355.006-.498.006h-7.843c-.157 0-.319-.002-.487-.006a6.637 6.637 0 01-1-.088 3.02 3.02 0 01-.848-.281 2.81 2.81 0 01-.713-.519l-.052-.054-.003-.003c-.052-.055-.064-.068-.076-.079l-.015-.014a43.265 43.265 0 01-.611-.603zm4.781-2.489a.6.6 0 01-.844-.849v.001a.59.59 0 01.105-.083l2.595-2.598-2.7-2.697.009-.008a.595.595 0 01.002-.844.596.596 0 01.848 0h-.003c.029.029.055.06.077.093l2.611 2.61 2.619-2.622a.604.604 0 01.721-.213.598.598 0 01.196.974l.007.006-2.697 2.701 2.61 2.608a.57.57 0 01.09.074l-.001.001a.597.597 0 01-.844.847l-.005.006-2.694-2.691-2.692 2.695-.01-.011z" class="Delete" clip-rule="evenodd"/>
      <g class="Key Background" filter="url(#filter4_d)">
        <path fill="#FCFCFE" fill-rule="evenodd" d="M129 693a5 5 0 015-5h107a5 5 0 015 5v36a5 5 0 01-5 5H134a5 5 0 01-5-5v-36z" clip-rule="evenodd"/>
      </g>
      <path fill="#000" d="M187.512 719.293c4.102 0 6.47-3.552 6.47-9.119 0-5.529-2.38-9.082-6.47-9.082-4.089 0-6.494 3.577-6.494 9.095 0 5.566 2.38 9.106 6.494 9.106zm0-1.917c-2.759 0-4.284-2.807-4.284-7.202 0-4.297 1.562-7.153 4.284-7.153 2.722 0 4.26 2.832 4.26 7.166 0 4.394-1.513 7.189-4.26 7.189z" class="Number"/>
      <g class="Key Background_2" filter="url(#filter5_d)">
        <path fill="#FCFCFE" fill-rule="evenodd" d="M252 639a5 5 0 015-5h107a5 5 0 015 5v37a5 5 0 01-5 5H257a5 5 0 01-5-5v-37z" clip-rule="evenodd"/>
      </g>
      <path fill="#000" d="M297.568 668.816h.044l1.338 4.815h1.392l1.87-7.046h-1.528l-1.114 5.103h-.039l-1.318-5.103h-1.245l-1.319 5.103h-.039l-1.108-5.103h-1.528l1.865 7.046h1.391l1.338-4.815zm7.064 4.815h1.592l1.552-2.466h.039l1.543 2.466h1.68l-2.275-3.506v-.034l2.304-3.506h-1.645l-1.509 2.539h-.039l-1.494-2.539h-1.734l2.222 3.477v.039l-2.236 3.53zm12.708 0v-2.632l2.456-4.414h-1.582l-1.582 3.008h-.034l-1.577-3.008h-1.607l2.451 4.414v2.632h1.475zm5.022 0h5.44v-1.221h-3.662v-.034l3.564-4.834v-.957h-5.259v1.216h3.496v.039l-3.579 4.829v.962z" class="Label"/>
      <path fill="#000" d="M310.048 659.314c4.309 0 6.824-3.466 6.824-9.399 0-1.916-.281-3.503-.867-4.858-1.074-2.527-3.173-3.955-5.822-3.955-3.614 0-6.238 2.539-6.238 6.018 0 3.344 2.49 5.822 5.847 5.822 2.246 0 4.175-1.135 4.919-2.88H314.748c-.061 4.675-1.746 7.336-4.675 7.336-1.746 0-3.174-1.05-3.638-2.649h-2.234c.537 2.759 2.844 4.565 5.847 4.565zm.122-8.3c-2.307 0-4.003-1.673-4.003-3.968 0-2.209 1.782-3.967 4.04-3.967 2.271 0 4.028 1.77 4.028 4.028 0 2.247-1.733 3.907-4.065 3.907z" class="Number_2"/>
      <g class="Key Background_3" filter="url(#filter6_d)">
        <path fill="#FCFCFE" fill-rule="evenodd" d="M129 639a5 5 0 015-5h107a5 5 0 015 5v37a5 5 0 01-5 5H134a5 5 0 01-5-5v-37z" clip-rule="evenodd"/>
      </g>
      <path fill="#000" d="M179.304 673.631v-5.83h2.065v-1.216h-5.6v1.216h2.06v5.83h1.475zm6.355-7.046h-1.474v4.556c0 1.552 1.147 2.612 2.954 2.612 1.801 0 2.949-1.06 2.949-2.612v-4.556h-1.475v4.409c0 .903-.532 1.494-1.474 1.494-.948 0-1.48-.591-1.48-1.494v-4.409zm11.302 7.046l2.368-7.046h-1.606l-1.612 5.527h-.034l-1.611-5.527h-1.651l2.369 7.046h1.777z" class="Label_2"/>
      <path fill="#000" d="M187.488 659.314c3.735 0 6.396-2.099 6.396-5.053 0-2.185-1.513-3.992-3.796-4.529v-.049c1.916-.61 3.076-2.1 3.076-3.931 0-2.685-2.38-4.638-5.676-4.638-3.272 0-5.689 1.965-5.689 4.626 0 1.856 1.184 3.357 3.089 3.943v.049c-2.271.525-3.784 2.331-3.784 4.529 0 2.942 2.661 5.053 6.384 5.053zm0-1.916c-2.417 0-4.151-1.379-4.151-3.296 0-1.929 1.734-3.308 4.151-3.308 2.429 0 4.15 1.367 4.15 3.308 0 1.917-1.721 3.296-4.15 3.296zm0-8.533c-2.063 0-3.504-1.208-3.504-2.917 0-1.721 1.441-2.942 3.504-2.942 2.063 0 3.503 1.208 3.503 2.942 0 1.709-1.452 2.917-3.503 2.917z" class="Number_3"/>
      <g class="Key Background_4" filter="url(#filter7_d)">
        <path fill="#FCFCFE" fill-rule="evenodd" d="M6 639a5 5 0 015-5h107a5 5 0 015 5v37a5 5 0 01-5 5H11a5 5 0 01-5-5v-37z" clip-rule="evenodd"/>
      </g>
      <path fill="#000" d="M48.824 666.585v7.046H50.3v-2.222h1.391c1.485 0 2.515-.967 2.515-2.412 0-1.45-.996-2.412-2.441-2.412h-2.94zm1.475 1.167h1.074c.845 0 1.333.449 1.333 1.25 0 .806-.493 1.255-1.338 1.255h-1.07v-2.505zm13.118 6.543l-.894-1.348c.728-.6 1.123-1.596 1.123-2.837 0-2.241-1.308-3.647-3.393-3.647-2.09 0-3.398 1.406-3.398 3.647 0 2.261 1.308 3.643 3.398 3.643.444 0 .854-.064 1.23-.195l.503.737h1.431zm-3.164-1.763c-1.157 0-1.895-.947-1.895-2.422 0-1.479.738-2.431 1.895-2.431 1.152 0 1.89.952 1.89 2.431 0 .679-.186 1.241-.518 1.621l-.308-.419h-1.333l.772 1.152a1.84 1.84 0 01-.503.068zm7.825-4.795h1.28c.732 0 1.19.44 1.19 1.123 0 .699-.434 1.123-1.176 1.123h-1.294v-2.246zm0 3.316h1.206l1.314 2.578h1.67l-1.485-2.798c.81-.317 1.28-1.099 1.28-2.002 0-1.392-.928-2.246-2.55-2.246h-2.91v7.046h1.475v-2.578zm6.688.571c.044 1.323 1.123 2.129 2.817 2.129 1.748 0 2.856-.864 2.856-2.232 0-1.074-.615-1.679-2.026-1.982l-.854-.181c-.811-.185-1.153-.429-1.153-.864 0-.522.488-.869 1.216-.869.737 0 1.26.361 1.309.957h1.382c-.025-1.274-1.055-2.119-2.696-2.119-1.572 0-2.695.859-2.695 2.158 0 1.03.64 1.69 1.938 1.968l.918.2c.85.19 1.187.444 1.187.903 0 .518-.537.894-1.323.894-.782 0-1.387-.381-1.456-.962h-1.42z" class="Label_3"/>
      <path fill="#000" d="M60.105 659.021h2.308l7.837-15.576v-2.038H58.591v1.953h9.485v.049l-7.971 15.612z" class="Number_4"/>
      <g class="Key Background_5" filter="url(#filter8_d)">
        <path fill="#FCFCFE" fill-rule="evenodd" d="M252 585a5 5 0 015-5h107a5 5 0 015 5v37a5 5 0 01-5 5H257a5 5 0 01-5-5v-37z" clip-rule="evenodd"/>
      </g>
      <path fill="#000" d="M304.892 612.585h-1.709l-2.002 4.995h-.039l-2.002-4.995h-1.709v7.046h1.313v-4.756h.039l1.914 4.687h.928l1.914-4.687h.039v4.756h1.314v-7.046zm4.583 7.046v-4.614h.044l3.295 4.614h1.221v-7.046h-1.411v4.59h-.039l-3.291-4.59h-1.231v7.046h1.412zm10.916-7.168c-2.09 0-3.399 1.401-3.399 3.647 0 2.242 1.309 3.643 3.399 3.643 2.085 0 3.398-1.401 3.398-3.643 0-2.246-1.313-3.647-3.398-3.647zm0 1.23c1.152 0 1.889.938 1.889 2.417 0 1.475-.737 2.408-1.889 2.408-1.158 0-1.895-.933-1.895-2.408 0-1.479.742-2.417 1.895-2.417z" class="Label_4"/>
      <path fill="#000" d="M310.817 605.327c3.614 0 6.238-2.539 6.238-6.018 0-3.345-2.49-5.823-5.847-5.823-2.185 0-4.126 1.135-4.919 2.856h-.037c.073-4.687 1.746-7.3 4.687-7.3 1.746 0 3.162 1.026 3.638 2.625h2.234c-.561-2.771-2.856-4.565-5.847-4.565-4.309 0-6.836 3.479-6.836 9.411 0 1.904.281 3.491.867 4.846 1.086 2.539 3.186 3.968 5.822 3.968zm-.024-1.953c-2.258 0-4.016-1.795-4.016-4.053 0-2.246 1.721-3.906 4.053-3.906 2.331 0 3.991 1.66 3.991 3.967 0 2.222-1.782 3.992-4.028 3.992z" class="Number_5"/>
      <g class="Key Background_6" filter="url(#filter9_d)">
        <path fill="#FCFCFE" fill-rule="evenodd" d="M129 585a5 5 0 015-5h107a5 5 0 015 5v37a5 5 0 01-5 5H134a5 5 0 01-5-5v-37z" clip-rule="evenodd"/>
      </g>
      <path fill="#000" d="M176.838 617.556c0 1.347.942 2.221 2.383 2.221 1.508 0 2.407-.854 2.407-2.353v-4.839h-1.475v4.829c0 .708-.332 1.089-.947 1.089-.557 0-.928-.376-.937-.947h-1.431zm9.495 2.075v-2.153l.659-.791 2.09 2.944h1.763l-2.788-3.921 2.607-3.125h-1.641l-2.646 3.213h-.044v-3.213h-1.475v7.046h1.475zm11.692-1.221h-3.081v-5.825h-1.474v7.046h4.555v-1.221z" class="Label_5"/>
      <path fill="#000" d="M187.671 605.314c3.674 0 6.274-2.478 6.274-6.018 0-3.418-2.441-5.896-5.822-5.896-1.685 0-3.15.635-3.943 1.697h-.049l.537-5.737h8.276v-1.953h-10.083l-.964 9.863h2.063c.72-1.233 2.124-1.978 3.772-1.978 2.344 0 4.016 1.697 4.016 4.065 0 2.369-1.66 4.029-4.053 4.029-2.112 0-3.711-1.294-3.906-3.174h-2.161c.184 3.003 2.674 5.102 6.043 5.102z" class="Number_6"/>
      <g class="Key Background_7" filter="url(#filter10_d)">
        <path fill="#FCFCFE" fill-rule="evenodd" d="M6 585a5 5 0 015-5h107a5 5 0 015 5v37a5 5 0 01-5 5H11a5 5 0 01-5-5v-37z" clip-rule="evenodd"/>
      </g>
      <path fill="#000" d="M60.776 616.672v-.796h-2.968v1.074h1.533l-.005.112c-.03.875-.698 1.465-1.66 1.465-1.172 0-1.914-.932-1.914-2.461 0-1.499.698-2.382 1.86-2.382.796 0 1.397.439 1.611 1.176h1.48c-.21-1.425-1.45-2.397-3.096-2.397-2.07 0-3.36 1.367-3.36 3.623 0 2.29 1.29 3.667 3.394 3.667 1.963 0 3.125-1.162 3.125-3.081zm9.1 2.959v-7.046h-1.475v2.861h-3.173v-2.861h-1.475v7.046h1.475v-2.969H68.4v2.969h1.475zm4.646 0v-7.046h-1.474v7.046h1.474z" class="Label_6"/>
      <path fill="#000" d="M66.734 605.021h2.124v-3.662h2.49v-1.928h-2.49v-12.024H65.61c-4.163 5.969-6.226 9.179-7.727 11.963v1.989h8.85v3.662zm-6.677-5.639c1.391-2.442 3.308-5.383 6.64-10.144h.037v10.193h-6.677v-.049z" class="Number_7"/>
      <g class="Key Background_8" filter="url(#filter11_d)">
        <path fill="#FCFCFE" fill-rule="evenodd" d="M252 532a5 5 0 015-5h107a5 5 0 015 5v36a5 5 0 01-5 5H257a5 5 0 01-5-5v-36z" clip-rule="evenodd"/>
      </g>
      <path fill="#000" d="M299.965 558.954V566h2.715c2.114 0 3.359-1.313 3.359-3.55 0-2.236-1.245-3.496-3.359-3.496h-2.715zm1.474 1.216h1.065c1.299 0 2.031.81 2.031 2.285 0 1.524-.713 2.324-2.031 2.324h-1.065v-4.609zm12.215 4.609h-3.193v-1.777h3.013v-1.133h-3.013v-1.699h3.193v-1.216h-4.668V566h4.668v-1.221zm4.539 1.221v-2.773h2.867v-1.167h-2.867v-1.89h3.14v-1.216h-4.614V566h1.474z" class="Label_7"/>
      <path fill="#000" d="M308.12 543.87h2.209c2.515 0 4.077 1.282 4.077 3.357 0 1.843-1.672 3.162-4.004 3.162-2.368 0-3.869-1.245-4.065-3.052h-2.111c.158 2.917 2.514 4.956 6.201 4.956 3.454 0 6.213-2.112 6.213-5.139 0-2.478-1.709-4.126-4.37-4.285v-.049c2.197-.39 3.613-1.977 3.613-4.187 0-2.649-2.38-4.541-5.529-4.541-3.309 0-5.53 1.917-5.774 4.908h2.111c.196-1.844 1.538-3.003 3.565-3.003 2.234 0 3.418 1.184 3.418 2.929 0 1.782-1.416 3.089-3.443 3.089h-2.111v1.855z" class="Number_8"/>
      <g class="Key Background_9" filter="url(#filter12_d)">
        <path fill="#FCFCFE" fill-rule="evenodd" d="M129 532a5 5 0 015-5h107a5 5 0 015 5v36a5 5 0 01-5 5H134a5 5 0 01-5-5v-36z" clip-rule="evenodd"/>
      </g>
      <path fill="#000" d="M180.461 566h1.567l-2.451-7.046h-1.733L175.397 566h1.514l.537-1.709h2.476l.537 1.709zm-1.792-5.698h.034l.903 2.886h-1.84l.903-2.886zm9.246 5.698c1.504 0 2.437-.776 2.437-2.017 0-.932-.704-1.63-1.661-1.704v-.039a1.555 1.555 0 001.324-1.528c0-1.079-.83-1.758-2.154-1.758h-3.11V566h3.164zm-1.689-5.947h1.254c.689 0 1.084.322 1.084.888 0 .596-.449.943-1.235.943h-1.103v-1.831zm0 4.848v-2.046h1.279c.869 0 1.343.352 1.343 1.011 0 .674-.459 1.035-1.309 1.035h-1.313zm10.086 1.221c1.728 0 2.934-.996 3.1-2.568h-1.435c-.157.835-.787 1.347-1.661 1.347-1.128 0-1.836-.927-1.836-2.431 0-1.485.718-2.417 1.832-2.417.859 0 1.523.566 1.66 1.43h1.435c-.112-1.577-1.401-2.651-3.095-2.651-2.041 0-3.335 1.372-3.335 3.643 0 2.275 1.284 3.647 3.335 3.647z" class="Label_8"/>
      <path fill="#000" d="M181.738 539.463v.013h2.124v-.013c0-1.965 1.563-3.454 3.626-3.454 1.941 0 3.491 1.355 3.491 3.052 0 1.464-.562 2.404-2.93 4.895l-6.201 6.53V552h11.621v-1.953h-8.581v-.049l4.455-4.602c2.942-3.04 3.833-4.504 3.833-6.47 0-2.697-2.478-4.834-5.627-4.834-3.32 0-5.811 2.295-5.811 5.371z" class="Number_9"/>
      <g class="Key Background_10" filter="url(#filter13_d)">
        <path fill="#FCFCFE" fill-rule="evenodd" d="M6 532a5 5 0 015-5h107a5 5 0 015 5v36a5 5 0 01-5 5H11a5 5 0 01-5-5v-36z" clip-rule="evenodd"/>
      </g>
      <path fill="#000" d="M64.878 552h2.124v-17.615h-2.148l-4.688 3.369v2.32l4.664-3.357h.048V552z" class="Number_10"/>
    </g>
  </g>
  <defs>
    <filter id="filter0_d" width="511" height="348" x="-68" y="-23" class="filter0_d" color-interpolation-filters="sRGB" filterUnits="userSpaceOnUse">
      <feFlood flood-opacity="0" result="BackgroundImageFix"/>
      <feColorMatrix in="SourceAlpha" values="0 0 0 0 0 0 0 0 0 0 0 0 0 0 0 0 0 0 127 0"/>
      <feMorphology in="SourceAlpha" operator="dilate" radius="4" result="effect1_dropShadow"/>
      <feOffset/>
      <feGaussianBlur stdDeviation="40"/>
      <feColorMatrix values="0 0 0 0 0.4056 0 0 0 0 0.500104 0 0 0 0 0.52 0 0 0 0.04 0"/>
      <feBlend in2="BackgroundImageFix" mode="multiply" result="effect1_dropShadow"/>
      <feBlend in="SourceGraphic" in2="effect1_dropShadow" result="shape"/>
    </filter>
    <filter id="filter1_d" width="511" height="348" x="-68" y="173" class="filter1_d" color-interpolation-filters="sRGB" filterUnits="userSpaceOnUse">
      <feFlood flood-opacity="0" result="BackgroundImageFix"/>
      <feColorMatrix in="SourceAlpha" values="0 0 0 0 0 0 0 0 0 0 0 0 0 0 0 0 0 0 127 0"/>
      <feMorphology in="SourceAlpha" operator="dilate" radius="4" result="effect1_dropShadow"/>
      <feOffset/>
      <feGaussianBlur stdDeviation="40"/>
      <feColorMatrix values="0 0 0 0 0.4056 0 0 0 0 0.500104 0 0 0 0 0.52 0 0 0 0.04 0"/>
      <feBlend in2="BackgroundImageFix" mode="multiply" result="effect1_dropShadow"/>
      <feBlend in="SourceGraphic" in2="effect1_dropShadow" result="shape"/>
    </filter>
    <filter id="filter2_d" width="88" height="88" x="287" y="694" class="filter2_d" color-interpolation-filters="sRGB" filterUnits="userSpaceOnUse">
      <feFlood flood-opacity="0" result="BackgroundImageFix"/>
      <feColorMatrix in="SourceAlpha" values="0 0 0 0 0 0 0 0 0 0 0 0 0 0 0 0 0 0 127 0"/>
      <feOffset/>
      <feGaussianBlur stdDeviation="8"/>
      <feColorMatrix values="0 0 0 0 0.121569 0 0 0 0 0.145098 0 0 0 0 0.2 0 0 0 0.08 0"/>
      <feBlend in2="BackgroundImageFix" mode="multiply" result="effect1_dropShadow"/>
      <feBlend in="SourceGraphic" in2="effect1_dropShadow" result="shape"/>
    </filter>
    <filter id="filter3_b" width="592.463" height="508.463" x="-108.731" y="412.269" class="filter3_b" color-interpolation-filters="sRGB" filterUnits="userSpaceOnUse">
      <feFlood flood-opacity="0" result="BackgroundImageFix"/>
      <feGaussianBlur in="BackgroundImage" stdDeviation="54.366"/>
      <feComposite in2="SourceAlpha" operator="in" result="effect1_backgroundBlur"/>
      <feBlend in="SourceGraphic" in2="effect1_backgroundBlur" result="shape"/>
    </filter>
    <filter id="filter4_d" width="117" height="47" x="129" y="688" class="filter4_d" color-interpolation-filters="sRGB" filterUnits="userSpaceOnUse">
      <feFlood flood-opacity="0" result="BackgroundImageFix"/>
      <feColorMatrix in="SourceAlpha" values="0 0 0 0 0 0 0 0 0 0 0 0 0 0 0 0 0 0 127 0"/>
      <feOffset dy="1"/>
      <feColorMatrix values="0 0 0 0 0.537255 0 0 0 0 0.541176 0 0 0 0 0.552941 0 0 0 1 0"/>
      <feBlend in2="BackgroundImageFix" result="effect1_dropShadow"/>
      <feBlend in="SourceGraphic" in2="effect1_dropShadow" result="shape"/>
    </filter>
    <filter id="filter5_d" width="117" height="48" x="252" y="634" class="filter5_d" color-interpolation-filters="sRGB" filterUnits="userSpaceOnUse">
      <feFlood flood-opacity="0" result="BackgroundImageFix"/>
      <feColorMatrix in="SourceAlpha" values="0 0 0 0 0 0 0 0 0 0 0 0 0 0 0 0 0 0 127 0"/>
      <feOffset dy="1"/>
      <feColorMatrix values="0 0 0 0 0.537255 0 0 0 0 0.541176 0 0 0 0 0.552941 0 0 0 1 0"/>
      <feBlend in2="BackgroundImageFix" result="effect1_dropShadow"/>
      <feBlend in="SourceGraphic" in2="effect1_dropShadow" result="shape"/>
    </filter>
    <filter id="filter6_d" width="117" height="48" x="129" y="634" class="filter6_d" color-interpolation-filters="sRGB" filterUnits="userSpaceOnUse">
      <feFlood flood-opacity="0" result="BackgroundImageFix"/>
      <feColorMatrix in="SourceAlpha" values="0 0 0 0 0 0 0 0 0 0 0 0 0 0 0 0 0 0 127 0"/>
      <feOffset dy="1"/>
      <feColorMatrix values="0 0 0 0 0.537255 0 0 0 0 0.541176 0 0 0 0 0.552941 0 0 0 1 0"/>
      <feBlend in2="BackgroundImageFix" result="effect1_dropShadow"/>
      <feBlend in="SourceGraphic" in2="effect1_dropShadow" result="shape"/>
    </filter>
    <filter id="filter7_d" width="117" height="48" x="6" y="634" class="filter7_d" color-interpolation-filters="sRGB" filterUnits="userSpaceOnUse">
      <feFlood flood-opacity="0" result="BackgroundImageFix"/>
      <feColorMatrix in="SourceAlpha" values="0 0 0 0 0 0 0 0 0 0 0 0 0 0 0 0 0 0 127 0"/>
      <feOffset dy="1"/>
      <feColorMatrix values="0 0 0 0 0.537255 0 0 0 0 0.541176 0 0 0 0 0.552941 0 0 0 1 0"/>
      <feBlend in2="BackgroundImageFix" result="effect1_dropShadow"/>
      <feBlend in="SourceGraphic" in2="effect1_dropShadow" result="shape"/>
    </filter>
    <filter id="filter8_d" width="117" height="48" x="252" y="580" class="filter8_d" color-interpolation-filters="sRGB" filterUnits="userSpaceOnUse">
      <feFlood flood-opacity="0" result="BackgroundImageFix"/>
      <feColorMatrix in="SourceAlpha" values="0 0 0 0 0 0 0 0 0 0 0 0 0 0 0 0 0 0 127 0"/>
      <feOffset dy="1"/>
      <feColorMatrix values="0 0 0 0 0.537255 0 0 0 0 0.541176 0 0 0 0 0.552941 0 0 0 1 0"/>
      <feBlend in2="BackgroundImageFix" result="effect1_dropShadow"/>
      <feBlend in="SourceGraphic" in2="effect1_dropShadow" result="shape"/>
    </filter>
    <filter id="filter9_d" width="117" height="48" x="129" y="580" class="filter9_d" color-interpolation-filters="sRGB" filterUnits="userSpaceOnUse">
      <feFlood flood-opacity="0" result="BackgroundImageFix"/>
      <feColorMatrix in="SourceAlpha" values="0 0 0 0 0 0 0 0 0 0 0 0 0 0 0 0 0 0 127 0"/>
      <feOffset dy="1"/>
      <feColorMatrix values="0 0 0 0 0.537255 0 0 0 0 0.541176 0 0 0 0 0.552941 0 0 0 1 0"/>
      <feBlend in2="BackgroundImageFix" result="effect1_dropShadow"/>
      <feBlend in="SourceGraphic" in2="effect1_dropShadow" result="shape"/>
    </filter>
    <filter id="filter10_d" width="117" height="48" x="6" y="580" class="filter10_d" color-interpolation-filters="sRGB" filterUnits="userSpaceOnUse">
      <feFlood flood-opacity="0" result="BackgroundImageFix"/>
      <feColorMatrix in="SourceAlpha" values="0 0 0 0 0 0 0 0 0 0 0 0 0 0 0 0 0 0 127 0"/>
      <feOffset dy="1"/>
      <feColorMatrix values="0 0 0 0 0.537255 0 0 0 0 0.541176 0 0 0 0 0.552941 0 0 0 1 0"/>
      <feBlend in2="BackgroundImageFix" result="effect1_dropShadow"/>
      <feBlend in="SourceGraphic" in2="effect1_dropShadow" result="shape"/>
    </filter>
    <filter id="filter11_d" width="117" height="47" x="252" y="527" class="filter11_d" color-interpolation-filters="sRGB" filterUnits="userSpaceOnUse">
      <feFlood flood-opacity="0" result="BackgroundImageFix"/>
      <feColorMatrix in="SourceAlpha" values="0 0 0 0 0 0 0 0 0 0 0 0 0 0 0 0 0 0 127 0"/>
      <feOffset dy="1"/>
      <feColorMatrix values="0 0 0 0 0.537255 0 0 0 0 0.541176 0 0 0 0 0.552941 0 0 0 1 0"/>
      <feBlend in2="BackgroundImageFix" result="effect1_dropShadow"/>
      <feBlend in="SourceGraphic" in2="effect1_dropShadow" result="shape"/>
    </filter>
    <filter id="filter12_d" width="117" height="47" x="129" y="527" class="filter12_d" color-interpolation-filters="sRGB" filterUnits="userSpaceOnUse">
      <feFlood flood-opacity="0" result="BackgroundImageFix"/>
      <feColorMatrix in="SourceAlpha" values="0 0 0 0 0 0 0 0 0 0 0 0 0 0 0 0 0 0 127 0"/>
      <feOffset dy="1"/>
      <feColorMatrix values="0 0 0 0 0.537255 0 0 0 0 0.541176 0 0 0 0 0.552941 0 0 0 1 0"/>
      <feBlend in2="BackgroundImageFix" result="effect1_dropShadow"/>
      <feBlend in="SourceGraphic" in2="effect1_dropShadow" result="shape"/>
    </filter>
    <filter id="filter13_d" width="117" height="47" x="6" y="527" class="filter13_d" color-interpolation-filters="sRGB" filterUnits="userSpaceOnUse">
      <feFlood flood-opacity="0" result="BackgroundImageFix"/>
      <feColorMatrix in="SourceAlpha" values="0 0 0 0 0 0 0 0 0 0 0 0 0 0 0 0 0 0 127 0"/>
      <feOffset dy="1"/>
      <feColorMatrix values="0 0 0 0 0.537255 0 0 0 0 0.541176 0 0 0 0 0.552941 0 0 0 1 0"/>
      <feBlend in2="BackgroundImageFix" result="effect1_dropShadow"/>
      <feBlend in="SourceGraphic" in2="effect1_dropShadow" result="shape"/>
    </filter>
    <linearGradient id="paint0_linear" x1="111.5" x2="301.652" y1="110.676" y2="779.548" class="paint0_linear" gradientUnits="userSpaceOnUse">
      <stop stop-color="#E4F0F0" stop-opacity="0"/>
      <stop offset="1" stop-color="#E4F0F0"/>
    </linearGradient>
    <clipPath id="clip0" class="clip0">
      <path fill="#fff" d="M0 0h375v812H0z"/>
    </clipPath>
  </defs>
</svg>
