<svg xmlns="http://www.w3.org/2000/svg" width="375" height="812" fill="none" viewBox="0 0 375 812">
  <g clip-path="url(#clip0)">
    <path fill="#fff" d="M0 0h375v812H0z"/>
    <path fill="url(#paint0_linear)" d="M0 98h375v505H0z"/>
    <g filter="url(#filter0_b)">
      <path fill="#fff" fill-opacity=".95" d="M0 0h375v88H0z"/>
      <path stroke="#000" d="M338.663 17.799h16.666c1.196 0 2.167.97 2.167 2.166v5.979a2.167 2.167 0 01-2.167 2.167h-16.666a2.167 2.167 0 01-2.167-2.167v-5.979c0-1.196.97-2.166 2.167-2.166z" opacity=".35"/>
      <path fill="#000" d="M358.995 20.959v3.992a2.165 2.165 0 000-3.992" opacity=".4"/>
      <path fill="#000" d="M337.996 20.628c0-.736.597-1.333 1.333-1.333h15.333c.737 0 1.334.597 1.334 1.333v4.653c0 .736-.597 1.333-1.334 1.333h-15.333a1.333 1.333 0 01-1.333-1.333v-4.653z"/>
      <path fill="#000" fill-rule="evenodd" d="M323.327 19.57c2.216 0 4.347.85 5.953 2.374.12.117.314.116.433-.004l1.156-1.164a.32.32 0 00-.003-.455c-4.215-4.032-10.864-4.032-15.079 0a.32.32 0 00-.003.455l1.156 1.164c.119.12.312.121.433.004a8.65 8.65 0 015.954-2.374zm0 3.788c1.217 0 2.391.452 3.294 1.268a.31.31 0 00.433-.006l1.155-1.165a.324.324 0 00-.005-.458 7.169 7.169 0 00-9.752 0 .32.32 0 00-.004.458l1.154 1.165a.31.31 0 00.433.006 4.912 4.912 0 013.292-1.268zm2.313 2.55a.32.32 0 01-.094.23l-1.998 2.011a.31.31 0 01-.443 0l-1.998-2.012a.315.315 0 01.01-.456 3.426 3.426 0 014.419 0c.065.058.102.14.104.226zM309.663 17.633h-1a1 1 0 00-1 .998v8.65a1 1 0 001 .998h1c.553 0 1-.447 1-.998v-8.65a.999.999 0 00-1-.998zm-5.666 2.329h1a1 1 0 011 .998v6.321a1 1 0 01-1 .998h-1a1 1 0 01-1-.998V20.96a1 1 0 011-.998zm-3.667 2.329h-1a1 1 0 00-1 .998v3.992a1 1 0 001 .998h1c.553 0 1-.447 1-.998V23.29a.999.999 0 00-1-.998zm-4.666 1.996h-1a1 1 0 00-1 .998v1.996a1 1 0 001 .998h1a1 1 0 001-.998v-1.996a1 1 0 00-1-.998z" clip-rule="evenodd"/>
      <g>
        <path fill="#000" d="M33.164 20.495v.029h1.773v-.03c0-1.076.747-1.801 1.853-1.801 1.04 0 1.801.674 1.801 1.604 0 .747-.358 1.296-1.801 2.761l-3.523 3.604v1.31h7.338V26.37H35.86v-.125l2.212-2.22c1.795-1.772 2.373-2.71 2.373-3.844 0-1.765-1.508-3.04-3.596-3.04-2.168 0-3.684 1.377-3.684 3.355zm10.613 6.357c.696 0 1.172-.498 1.172-1.157 0-.667-.476-1.157-1.172-1.157-.688 0-1.172.49-1.172 1.157 0 .659.484 1.157 1.172 1.157zm0-5.493c.696 0 1.172-.49 1.172-1.15 0-.666-.476-1.157-1.172-1.157-.688 0-1.172.49-1.172 1.157 0 .66.484 1.15 1.172 1.15zm7.083 6.877c2.527 0 4.028-2.05 4.028-5.544 0-3.508-1.523-5.552-4.028-5.552-2.512 0-4.036 2.044-4.036 5.537 0 3.509 1.502 5.56 4.036 5.56zm0-1.567c-1.34 0-2.124-1.392-2.124-3.992 0-2.578.798-3.962 2.124-3.962s2.117 1.377 2.117 3.962c0 2.6-.777 3.992-2.117 3.992zm5.962 1.304H58.8l4.519-8.958v-1.611h-7.354v1.59h5.45v.116l-4.593 8.863z"/>
      </g>
      <g>
        <path fill="#25272E" d="M351 75.5a9.5 9.5 0 009.5-9.5 9.5 9.5 0 00-9.5-9.5 9.5 9.5 0 00-9.5 9.5 9.5 9.5 0 009.5 9.5zm0 1.5c-6.075 0-11-4.925-11-11s4.925-11 11-11 11 4.925 11 11-4.925 11-11 11z"/>
        <path fill="#25272E" d="M349.81 67.573c0-2.03 2.38-2.03 2.38-3.52a1.136 1.136 0 00-.807-1.008 1.14 1.14 0 00-.453-.042 1.719 1.719 0 00-1.68 1.15l-1.75-.77a3.56 3.56 0 013.5-2.38c2.07 0 3.36 1.32 3.36 2.79 0 2.59-2.52 2.59-2.52 4.41h-1.89a2.067 2.067 0 01-.14-.63zm-.14 2.52a1.085 1.085 0 01.33-.782 1.083 1.083 0 01.79-.308 1.119 1.119 0 11-1.12 1.09z"/>
        <g>
          <path fill="#25272E" fill-rule="evenodd" d="M27.002 57.36l-8.157 7.831c-.46.44-.46 1.176 0 1.619l8.157 7.83a1.292 1.292 0 101.79-1.865l-6.832-6.559a.299.299 0 010-.433l6.833-6.56a1.293 1.293 0 00-1.79-1.864z" clip-rule="evenodd"/>
        </g>
      </g>
      <g>
        <circle cx="141.5" cy="63.5" r="2.5" fill="#03948C"/>
        <circle cx="154.5" cy="63.5" r="2.5" fill="#03948C"/>
        <circle cx="167.5" cy="63.5" r="4" fill="#03948C"/>
        <circle cx="180.5" cy="63.5" r="2.5" fill="#CEE1E5"/>
        <circle cx="193.5" cy="63.5" r="2.5" fill="#CEE1E5"/>
        <circle cx="206.5" cy="63.5" r="2.5" fill="#CEE1E5"/>
        <circle cx="219.5" cy="63.5" r="2.5" fill="#CEE1E5"/>
        <circle cx="232.5" cy="63.5" r="2.5" fill="#CEE1E5"/>
      </g>
    </g>
    <path fill="#25272E" d="M19.4 452l2.9 9.4h.1l2.9-9.4h2.8l2.9 9.4h.1L34 452h3.1l-4.6 14h-2.9l-2.84-9.1h-.12L23.8 466h-2.9l-4.6-14h3.1zm21.716 5.6h.1a4.04 4.04 0 011.2-1.12 3.118 3.118 0 011.7-.48c.666 0 1.273.173 1.82.52.546.333.98.813 1.3 1.44.32.613.48 1.327.48 2.14v5.9h-2.7v-5.5c0-.6-.16-1.067-.48-1.4-.32-.333-.76-.5-1.32-.5-.6 0-1.1.207-1.5.62-.4.413-.6.94-.6 1.58v5.2h-2.7v-14h2.7v5.6zm14.592 7.2c-.307.387-.713.72-1.22 1-.493.267-1.053.4-1.68.4-.894 0-1.62-.26-2.18-.78-.547-.533-.82-1.207-.82-2.02 0-.827.26-1.533.78-2.12.533-.587 1.24-.927 2.12-1.02l3.1-.3a1.9 1.9 0 00-.54-1.08c-.307-.32-.694-.48-1.16-.48-.453 0-.873.053-1.26.16a3.79 3.79 0 00-.94.34l-1.6-1.6c.426-.36.986-.667 1.68-.92.693-.253 1.467-.38 2.32-.38.813 0 1.54.173 2.18.52.64.333 1.133.8 1.48 1.4.36.587.54 1.247.54 1.98v6.1h-2.7v-1.2h-.1zm-2.1-2.86c-.333.013-.6.127-.8.34-.2.213-.3.453-.3.72 0 .307.1.553.3.74.213.173.513.26.9.26.627 0 1.133-.167 1.52-.5.386-.333.58-.813.58-1.44v-.2l-2.2.08zm6.112-5.54h1.7v-3h2.7v3h2.4v2.5h-2.4v3.38c0 .44.114.767.34.98.227.213.547.32.96.32h1.1V466h-1.8c-1.026 0-1.833-.287-2.42-.86-.586-.573-.88-1.42-.88-2.54v-3.7h-1.7v-2.5zm12.408-3.5l-2.8 4.3-1.6-.9 2.1-4.7 2.3 1.3zm2.295 9.8a3.99 3.99 0 001.14.78c.454.213.94.32 1.46.32.8 0 1.2-.233 1.2-.7 0-.187-.126-.34-.38-.46-.24-.133-.626-.287-1.16-.46a20.142 20.142 0 01-1.74-.68 3.8 3.8 0 01-1.22-.94c-.333-.413-.5-.933-.5-1.56 0-.547.154-1.047.46-1.5.307-.453.754-.813 1.34-1.08.6-.28 1.3-.42 2.1-.42.814 0 1.547.147 2.2.44.667.293 1.2.647 1.6 1.06l-1.6 1.7c-.24-.227-.553-.413-.94-.56a3.263 3.263 0 00-1.26-.24c-.333 0-.586.06-.76.18-.16.12-.24.26-.24.42 0 .187.12.347.36.48.254.12.647.267 1.18.44.694.24 1.274.473 1.74.7.467.213.867.527 1.2.94.347.4.52.913.52 1.54 0 .573-.16 1.1-.48 1.58-.306.467-.773.84-1.4 1.12-.613.267-1.353.4-2.22.4-.88 0-1.686-.173-2.42-.52-.733-.347-1.326-.773-1.78-1.28l1.6-1.7zm13.22 4.9c.814 0 1.38-.4 1.7-1.2l.2-.5-3.8-9.7h2.9l2.3 6.5h.1l2.2-6.5h2.9l-4 10.6c-.426 1.133-.946 1.98-1.56 2.54-.613.573-1.36.86-2.24.86h-1.8v-2.6h1.1zm9.096-6.5c0-.92.227-1.767.68-2.54a5.082 5.082 0 011.9-1.86c.8-.467 1.673-.7 2.62-.7.947 0 1.82.233 2.62.7a4.932 4.932 0 011.88 1.86c.467.773.7 1.62.7 2.54 0 .92-.233 1.773-.7 2.56a5.137 5.137 0 01-4.5 2.54c-.947 0-1.82-.227-2.62-.68a5.3 5.3 0 01-1.9-1.86 5.04 5.04 0 01-.68-2.56zm5.2 2.6c.707 0 1.3-.247 1.78-.74s.72-1.113.72-1.86c0-.747-.24-1.367-.72-1.86-.48-.493-1.073-.74-1.78-.74-.707 0-1.3.247-1.78.74s-.72 1.113-.72 1.86c0 .747.24 1.367.72 1.86.48.493 1.073.74 1.78.74zm9.897-2c0 .6.16 1.067.48 1.4.32.333.76.5 1.32.5.6 0 1.1-.207 1.5-.62.4-.413.6-.94.6-1.58v-5.2h2.7v9.8h-2.7v-1.4h-.1c-.307.44-.713.82-1.22 1.14a3.112 3.112 0 01-1.68.46 3.43 3.43 0 01-1.82-.5 3.682 3.682 0 01-1.3-1.44c-.32-.627-.48-1.347-.48-2.16v-5.9h2.7v5.5zm11.894-4.4h.1c.187-.307.487-.567.9-.78.414-.213.934-.32 1.56-.32h.64v2.6h-.9c-.666 0-1.22.24-1.66.72-.426.467-.64 1.093-.64 1.88v4.6h-2.7v-9.8h2.7v1.1zm11.917.3h.1c.307-.44.707-.813 1.2-1.12a3.118 3.118 0 011.7-.48c.667 0 1.273.173 1.82.52.547.333.98.813 1.3 1.44.32.613.48 1.327.48 2.14v5.9h-2.7v-5.5c0-.6-.16-1.067-.48-1.4-.32-.333-.76-.5-1.32-.5-.6 0-1.1.207-1.5.62-.4.413-.6.94-.6 1.58v5.2h-2.7v-14h2.7v5.6zm8.592 3.5c0-.92.227-1.767.68-2.54a5.085 5.085 0 011.9-1.86c.8-.467 1.673-.7 2.62-.7.947 0 1.82.233 2.62.7a4.932 4.932 0 011.88 1.86c.467.773.7 1.62.7 2.54 0 .92-.233 1.773-.7 2.56a5.137 5.137 0 01-4.5 2.54c-.947 0-1.82-.227-2.62-.68a5.302 5.302 0 01-1.9-1.86 5.044 5.044 0 01-.68-2.56zm5.2 2.6c.707 0 1.3-.247 1.78-.74s.72-1.113.72-1.86c0-.747-.24-1.367-.72-1.86-.48-.493-1.073-.74-1.78-.74-.707 0-1.3.247-1.78.74s-.72 1.113-.72 1.86c0 .747.24 1.367.72 1.86.48.493 1.073.74 1.78.74zm9.897-2c0 .6.16 1.067.48 1.4.32.333.76.5 1.32.5.6 0 1.1-.207 1.5-.62.4-.413.6-.94.6-1.58v-5.2h2.7v9.8h-2.7v-1.4h-.1c-.307.44-.713.82-1.22 1.14a3.112 3.112 0 01-1.68.46 3.43 3.43 0 01-1.82-.5 3.682 3.682 0 01-1.3-1.44c-.32-.627-.48-1.347-.48-2.16v-5.9h2.7v5.5zm9.794 1a4 4 0 001.14.78c.454.213.94.32 1.46.32.8 0 1.2-.233 1.2-.7 0-.187-.126-.34-.38-.46-.24-.133-.626-.287-1.16-.46a20.22 20.22 0 01-1.74-.68 3.81 3.81 0 01-1.22-.94c-.333-.413-.5-.933-.5-1.56 0-.547.154-1.047.46-1.5.307-.453.754-.813 1.34-1.08.6-.28 1.3-.42 2.1-.42.814 0 1.547.147 2.2.44.667.293 1.2.647 1.6 1.06l-1.6 1.7c-.24-.227-.553-.413-.94-.56a3.258 3.258 0 00-1.26-.24c-.333 0-.586.06-.76.18-.16.12-.24.26-.24.42 0 .187.12.347.36.48.254.12.647.267 1.18.44.694.24 1.274.473 1.74.7a3.27 3.27 0 011.2.94c.347.4.52.913.52 1.54 0 .573-.16 1.1-.48 1.58-.306.467-.773.84-1.4 1.12-.613.267-1.353.4-2.22.4-.88 0-1.686-.173-2.42-.52-.733-.347-1.326-.773-1.78-1.28l1.6-1.7zm17.302 2.36c-.453.32-1.047.593-1.78.82-.733.213-1.54.32-2.42.32-.947 0-1.82-.227-2.62-.68a5.302 5.302 0 01-1.9-1.86 5.044 5.044 0 01-.68-2.56c0-.92.227-1.767.68-2.54a5.181 5.181 0 011.86-1.86c.787-.467 1.64-.7 2.56-.7.88 0 1.693.22 2.44.66.76.44 1.36 1.04 1.8 1.8.44.747.66 1.56.66 2.44 0 .44-.033.84-.1 1.2h-7.1c.16.493.453.9.88 1.22.44.32 1.013.48 1.72.48.56 0 1.06-.06 1.5-.18.453-.133.82-.287 1.1-.46l1.4 1.9zm-2.2-4.96c-.16-.48-.44-.88-.84-1.2a2.02 2.02 0 00-1.36-.5c-.52 0-.98.167-1.38.5-.387.32-.66.72-.82 1.2h4.4zm7.606-2.5h.1c.307-.44.707-.813 1.2-1.12a3.12 3.12 0 011.7-.48c.667 0 1.274.173 1.82.52.547.333.98.813 1.3 1.44.32.613.48 1.327.48 2.14v5.9h-2.7v-5.5c0-.6-.16-1.067-.48-1.4-.32-.333-.76-.5-1.32-.5-.6 0-1.1.207-1.5.62-.4.413-.6.94-.6 1.58v5.2h-2.7v-14h2.7v5.6zm8.592 3.5c0-.92.227-1.767.68-2.54a5.085 5.085 0 011.9-1.86c.8-.467 1.674-.7 2.62-.7.947 0 1.82.233 2.62.7a4.932 4.932 0 011.88 1.86c.467.773.7 1.62.7 2.54 0 .92-.233 1.773-.7 2.56a5.137 5.137 0 01-4.5 2.54c-.946 0-1.82-.227-2.62-.68a5.302 5.302 0 01-1.9-1.86 5.044 5.044 0 01-.68-2.56zm5.2 2.6c.707 0 1.3-.247 1.78-.74s.72-1.113.72-1.86c0-.747-.24-1.367-.72-1.86-.48-.493-1.073-.74-1.78-.74-.706 0-1.3.247-1.78.74s-.72 1.113-.72 1.86c0 .747.24 1.367.72 1.86.48.493 1.074.74 1.78.74zm9.997-11.7v14h-2.7v-14h2.7zm9.608 12.6c-.307.44-.727.82-1.26 1.14-.533.307-1.147.46-1.84.46-.773 0-1.5-.22-2.18-.66-.667-.44-1.207-1.047-1.62-1.82-.4-.773-.6-1.647-.6-2.62 0-.973.2-1.847.6-2.62.413-.773.953-1.38 1.62-1.82.68-.44 1.407-.66 2.18-.66.693 0 1.307.16 1.84.48.533.307.953.68 1.26 1.12h.1V452h2.7v14h-2.7v-1.4h-.1zm-2.3-.9c.707 0 1.3-.247 1.78-.74s.72-1.113.72-1.86c0-.747-.24-1.367-.72-1.86-.48-.493-1.073-.74-1.78-.74-.707 0-1.3.247-1.78.74s-.72 1.113-.72 1.86c0 .747.24 1.367.72 1.86.48.493 1.073.74 1.78.74zm11.303-10.8l-2.8 4.3-1.6-.9 2.1-4.7 2.3 1.3zm2.295 9.8c.306.307.686.567 1.14.78.453.213.94.32 1.46.32.8 0 1.2-.233 1.2-.7 0-.187-.127-.34-.38-.46-.24-.133-.627-.287-1.16-.46a19.963 19.963 0 01-1.74-.68 3.789 3.789 0 01-1.22-.94c-.334-.413-.5-.933-.5-1.56 0-.547.153-1.047.46-1.5.306-.453.753-.813 1.34-1.08.6-.28 1.3-.42 2.1-.42.813 0 1.546.147 2.2.44.666.293 1.2.647 1.6 1.06l-1.6 1.7c-.24-.227-.554-.413-.94-.56a3.265 3.265 0 00-1.26-.24c-.334 0-.587.06-.76.18-.16.12-.24.26-.24.42 0 .187.12.347.36.48.253.12.646.267 1.18.44.693.24 1.273.473 1.74.7.466.213.866.527 1.2.94.346.4.52.913.52 1.54 0 .573-.16 1.1-.48 1.58-.307.467-.774.84-1.4 1.12-.614.267-1.354.4-2.22.4-.88 0-1.687-.173-2.42-.52-.734-.347-1.327-.773-1.78-1.28l1.6-1.7zm12.211-6.3h1.7v-3h2.7v3h2.4v2.5h-2.4v3.38c0 .44.113.767.34.98.226.213.546.32.96.32h1.1V466h-1.8c-1.027 0-1.834-.287-2.42-.86-.587-.573-.88-1.42-.88-2.54v-3.7h-1.7v-2.5zm8.112 4.7c0-.92.227-1.767.68-2.54a5.085 5.085 0 011.9-1.86c.8-.467 1.674-.7 2.62-.7.947 0 1.82.233 2.62.7a4.932 4.932 0 011.88 1.86c.467.773.7 1.62.7 2.54 0 .92-.233 1.773-.7 2.56a5.137 5.137 0 01-4.5 2.54c-.946 0-1.82-.227-2.62-.68a5.302 5.302 0 01-1.9-1.86 5.044 5.044 0 01-.68-2.56zm5.2 2.6c.707 0 1.3-.247 1.78-.74s.72-1.113.72-1.86c0-.747-.24-1.367-.72-1.86-.48-.493-1.073-.74-1.78-.74-.706 0-1.3.247-1.78.74s-.72 1.113-.72 1.86c0 .747.24 1.367.72 1.86.48.493 1.074.74 1.78.74zm6.297-7.3h1.7v-3h2.7v3h2.4v2.5h-2.4v3.38c0 .44.113.767.34.98.227.213.547.32.96.32h1.1V466h-1.8c-1.027 0-1.833-.287-2.42-.86s-.88-1.42-.88-2.54v-3.7h-1.7v-2.5zm14.113 8.4c-.307.387-.714.72-1.22 1-.494.267-1.054.4-1.68.4-.894 0-1.62-.26-2.18-.78-.547-.533-.82-1.207-.82-2.02 0-.827.26-1.533.78-2.12.533-.587 1.24-.927 2.12-1.02l3.1-.3c-.054-.4-.234-.76-.54-1.08-.307-.32-.694-.48-1.16-.48-.454 0-.874.053-1.26.16-.387.093-.7.207-.94.34l-1.6-1.6c.426-.36.986-.667 1.68-.92.693-.253 1.466-.38 2.32-.38.813 0 1.54.173 2.18.52.64.333 1.133.8 1.48 1.4.36.587.54 1.247.54 1.98v6.1h-2.7v-1.2h-.1zm-2.1-2.86c-.334.013-.6.127-.8.34-.2.213-.3.453-.3.72 0 .307.1.553.3.74.213.173.513.26.9.26.626 0 1.133-.167 1.52-.5.386-.333.58-.813.58-1.44v-.2l-2.2.08zm10.007-9.94v14h-2.7v-14h2.7zM22.7 492.8c-.307.387-.713.72-1.22 1-.493.267-1.053.4-1.68.4-.893 0-1.62-.26-2.18-.78-.547-.533-.82-1.207-.82-2.02 0-.827.26-1.533.78-2.12.533-.587 1.24-.927 2.12-1.02l3.1-.3a1.9 1.9 0 00-.54-1.08c-.307-.32-.693-.48-1.16-.48-.453 0-.873.053-1.26.16a3.79 3.79 0 00-.94.34l-1.6-1.6c.427-.36.987-.667 1.68-.92s1.467-.38 2.32-.38c.813 0 1.54.173 2.18.52.64.333 1.133.8 1.48 1.4.36.587.54 1.247.54 1.98v6.1h-2.7v-1.2h-.1zm-2.1-2.86c-.333.013-.6.127-.8.34-.2.213-.3.453-.3.72 0 .307.1.553.3.74.213.173.513.26.9.26.627 0 1.133-.167 1.52-.5.387-.333.58-.813.58-1.44v-.2l-2.2.08zm9.908-4.34h.1a4.04 4.04 0 011.2-1.12 3.118 3.118 0 011.7-.48c.666 0 1.273.173 1.82.52.546.333.98.813 1.3 1.44.32.613.48 1.327.48 2.14v5.9h-2.7v-5.5c0-.6-.16-1.067-.48-1.4-.32-.333-.76-.5-1.32-.5-.6 0-1.1.207-1.5.62-.4.413-.6.94-.6 1.58v5.2h-2.7v-9.8h2.7v1.4zm11.894 0h.1a4.04 4.04 0 011.2-1.12 3.118 3.118 0 011.7-.48c.667 0 1.274.173 1.82.52.547.333.98.813 1.3 1.44.32.613.48 1.327.48 2.14v5.9h-2.7v-5.5c0-.6-.16-1.067-.48-1.4-.32-.333-.76-.5-1.32-.5-.6 0-1.1.207-1.5.62-.4.413-.6.94-.6 1.58v5.2h-2.7v-9.8h2.7v1.4zm11.895 4.1c0 .6.16 1.067.48 1.4.32.333.76.5 1.32.5.6 0 1.1-.207 1.5-.62.4-.413.6-.94.6-1.58v-5.2h2.7v9.8h-2.7v-1.4h-.1c-.307.44-.714.82-1.22 1.14a3.114 3.114 0 01-1.68.46 3.43 3.43 0 01-1.82-.5 3.684 3.684 0 01-1.3-1.44c-.32-.627-.48-1.347-.48-2.16v-5.9h2.7v5.5zm14.594 3.1c-.306.387-.713.72-1.22 1-.493.267-1.053.4-1.68.4-.893 0-1.62-.26-2.18-.78-.546-.533-.82-1.207-.82-2.02 0-.827.26-1.533.78-2.12.534-.587 1.24-.927 2.12-1.02l3.1-.3a1.9 1.9 0 00-.54-1.08c-.306-.32-.693-.48-1.16-.48-.453 0-.873.053-1.26.16a3.79 3.79 0 00-.94.34l-1.6-1.6c.427-.36.987-.667 1.68-.92.694-.253 1.467-.38 2.32-.38.814 0 1.54.173 2.18.52.64.333 1.134.8 1.48 1.4.36.587.54 1.247.54 1.98v6.1h-2.7v-1.2h-.1zm-2.1-2.86c-.333.013-.6.127-.8.34-.2.213-.3.453-.3.72 0 .307.1.553.3.74.214.173.514.26.9.26.627 0 1.134-.167 1.52-.5.387-.333.58-.813.58-1.44v-.2l-2.2.08zM76.8 480v14h-2.7v-14h2.7zm7.117 1.4c0-.4.154-.747.46-1.04a1.5 1.5 0 011.1-.46c.414 0 .774.153 1.08.46.307.293.46.64.46 1.04s-.153.753-.46 1.06c-.306.293-.673.44-1.1.44-.413 0-.773-.147-1.08-.44-.306-.307-.46-.66-.46-1.06zm2.9 2.8v9.8h-2.7v-9.8h2.7zm5.293 1.4h.1c.307-.44.707-.813 1.2-1.12a3.117 3.117 0 011.7-.48c.667 0 1.274.173 1.82.52.547.333.98.813 1.3 1.44.32.613.48 1.327.48 2.14v5.9h-2.7v-5.5c0-.6-.16-1.067-.48-1.4-.32-.333-.76-.5-1.32-.5-.6 0-1.1.207-1.5.62-.4.413-.6.94-.6 1.58v5.2h-2.7v-9.8h2.7v1.4zm17.895 6.6c-.4.56-.953 1.033-1.66 1.42s-1.52.58-2.44.58c-.947 0-1.82-.227-2.62-.68a5.302 5.302 0 01-1.9-1.86 5.044 5.044 0 01-.68-2.56c0-.92.227-1.767.68-2.54a5.085 5.085 0 011.9-1.86c.8-.467 1.673-.7 2.62-.7.92 0 1.733.193 2.44.58.707.387 1.26.86 1.66 1.42l-1.7 1.7a3.286 3.286 0 00-1.04-.84 2.66 2.66 0 00-1.36-.36c-.707 0-1.3.247-1.78.74s-.72 1.113-.72 1.86c0 .747.24 1.367.72 1.86.48.493 1.073.74 1.78.74.493 0 .947-.113 1.36-.34.427-.24.773-.527 1.04-.86l1.7 1.7zm.895-3.1c0-.92.227-1.767.68-2.54a5.085 5.085 0 011.9-1.86c.8-.467 1.674-.7 2.62-.7.947 0 1.82.233 2.62.7a4.932 4.932 0 011.88 1.86c.467.773.7 1.62.7 2.54 0 .92-.233 1.773-.7 2.56a5.137 5.137 0 01-4.5 2.54c-.946 0-1.82-.227-2.62-.68a5.302 5.302 0 01-1.9-1.86 5.044 5.044 0 01-.68-2.56zm5.2 2.6c.707 0 1.3-.247 1.78-.74s.72-1.113.72-1.86c0-.747-.24-1.367-.72-1.86-.48-.493-1.073-.74-1.78-.74-.706 0-1.3.247-1.78.74s-.72 1.113-.72 1.86c0 .747.24 1.367.72 1.86.48.493 1.074.74 1.78.74zm9.897-6.1h.1c.253-.44.607-.813 1.06-1.12.467-.32 1.013-.48 1.64-.48.693 0 1.287.167 1.78.5.493.32.867.72 1.12 1.2h.1c.333-.48.773-.88 1.32-1.2a3.61 3.61 0 011.88-.5c.64 0 1.213.16 1.72.48.52.32.927.773 1.22 1.36.307.587.46 1.273.46 2.06v6.1h-2.7v-5.7c0-.547-.14-.967-.42-1.26-.28-.293-.673-.44-1.18-.44-.56 0-1.02.187-1.38.56-.347.36-.52.84-.52 1.44v5.4h-2.7v-5.7c0-.547-.14-.967-.42-1.26-.28-.293-.673-.44-1.18-.44-.56 0-1.02.187-1.38.56-.347.36-.52.84-.52 1.44v5.4h-2.7v-9.8h2.7v1.4zm23.795 7.46c-.453.32-1.046.593-1.78.82-.733.213-1.54.32-2.42.32-.946 0-1.82-.227-2.62-.68a5.302 5.302 0 01-1.9-1.86 5.044 5.044 0 01-.68-2.56c0-.92.227-1.767.68-2.54a5.181 5.181 0 011.86-1.86c.787-.467 1.64-.7 2.56-.7.88 0 1.694.22 2.44.66.76.44 1.36 1.04 1.8 1.8.44.747.66 1.56.66 2.44 0 .44-.033.84-.1 1.2h-7.1c.16.493.454.9.88 1.22.44.32 1.014.48 1.72.48.56 0 1.06-.06 1.5-.18.454-.133.82-.287 1.1-.46l1.4 1.9zm-2.2-4.96c-.16-.48-.44-.88-.84-1.2-.386-.333-.84-.5-1.36-.5-.52 0-.98.167-1.38.5-.386.32-.66.72-.82 1.2h4.4zm7.307 1.6c-.134-.28-.2-.58-.2-.9 0-.667.18-1.213.54-1.64.36-.44.873-.893 1.54-1.36.493-.347.853-.64 1.08-.88.226-.24.34-.513.34-.82 0-.373-.167-.7-.5-.98-.334-.28-.767-.42-1.3-.42-.587 0-1.094.16-1.52.48-.427.307-.754.68-.98 1.12l-2.6-1.2c.36-.92.973-1.7 1.84-2.34.866-.64 1.953-.96 3.26-.96 1 0 1.88.187 2.64.56.76.373 1.34.873 1.74 1.5.413.627.62 1.307.62 2.04 0 .573-.107 1.073-.32 1.5-.2.413-.447.76-.74 1.04-.294.267-.674.573-1.14.92-.574.413-1 .787-1.28 1.12-.28.32-.42.727-.42 1.22h-2.6zm-.4 2.9c0-.453.153-.833.46-1.14.306-.307.686-.46 1.14-.46.453 0 .833.153 1.14.46.306.307.46.687.46 1.14 0 .453-.154.833-.46 1.14-.307.307-.687.46-1.14.46-.454 0-.834-.153-1.14-.46a1.548 1.548 0 01-.46-1.14z"/>
    <g filter="url(#filter1_d)">
      <path fill="#fff" d="M0 596.79c0-22.21 0-33.315 4.39-41.768a39 39 0 0116.632-16.631C29.475 534 40.58 534 62.79 534h249.42c22.21 0 33.315 0 41.768 4.391a38.999 38.999 0 0116.631 16.631C375 563.475 375 574.58 375 596.79V812H0V596.79z"/>
      <circle cx="331" cy="738" r="28" fill="#25272E"/>
      <path fill="#fff" d="M344.525 739.022c-.624.546-7.781 7.782-7.781 7.782-.887.775-2.275.146-2.275-1.032v-5.274h-14.548c-1.349 0-2.442-1.123-2.442-2.508 0-1.386 1.093-2.509 2.442-2.509h14.548v-5.273c0-1.178 1.388-1.808 2.275-1.032 0 0 7.157 7.235 7.781 7.782a1.37 1.37 0 010 2.064z"/>
      <g>
        <path fill="#70747D" d="M25.94 644.11c-.43.569-.999 1.05-1.708 1.442-.7.392-1.484.588-2.352.588-.915 0-1.76-.224-2.534-.672a4.938 4.938 0 01-1.834-1.834 4.973 4.973 0 01-.672-2.534c0-.915.224-1.759.672-2.534a4.938 4.938 0 011.834-1.834 4.973 4.973 0 012.534-.672c.868 0 1.647.196 2.338.588.69.392 1.241.873 1.652 1.442l-.7.63c-.327-.467-.775-.863-1.344-1.19-.56-.327-1.209-.49-1.946-.49a3.9 3.9 0 00-3.458 2.002 4.05 4.05 0 00-.532 2.058c0 .756.177 1.447.532 2.072a3.927 3.927 0 003.458 1.988c.737 0 1.395-.163 1.974-.49.579-.327 1.04-.723 1.386-1.19l.7.63zm4.483 2.03a3.33 3.33 0 01-1.722-.462 3.541 3.541 0 01-1.246-1.274 3.457 3.457 0 01-.462-1.764c0-.644.154-1.232.462-1.764a3.433 3.433 0 011.246-1.26 3.258 3.258 0 011.722-.476c.626 0 1.2.159 1.722.476.523.308.938.728 1.246 1.26.308.532.462 1.12.462 1.764 0 .644-.154 1.232-.462 1.764a3.542 3.542 0 01-1.246 1.274 3.33 3.33 0 01-1.722.462zm0-.91c.439 0 .845-.112 1.218-.336a2.616 2.616 0 001.232-2.254c0-.476-.112-.91-.336-1.302a2.479 2.479 0 00-.896-.938 2.258 2.258 0 00-1.218-.35c-.438 0-.844.117-1.218.35a2.478 2.478 0 00-.896.938 2.578 2.578 0 00-.336 1.302 2.615 2.615 0 001.232 2.254c.374.224.78.336 1.218.336zm6.161-5.11c.178-.271.425-.499.742-.686.327-.196.71-.294 1.148-.294.523 0 .971.117 1.344.35.374.224.649.504.826.84.196-.336.49-.616.882-.84.402-.233.878-.35 1.428-.35.766 0 1.386.252 1.862.756.486.504.728 1.209.728 2.114V646h-.98v-3.99c0-.625-.154-1.106-.462-1.442-.308-.345-.714-.518-1.218-.518-.326 0-.63.093-.91.28-.28.177-.504.439-.672.784-.158.336-.238.728-.238 1.176V646h-.98v-3.99c0-.616-.154-1.097-.462-1.442-.308-.345-.714-.518-1.218-.518-.326 0-.63.093-.91.28-.28.177-.504.439-.672.784-.158.336-.238.728-.238 1.176V646h-.98v-6.72h.98v.84zm12.252.14c.233-.308.55-.569.952-.784a2.738 2.738 0 011.358-.336c.597 0 1.148.154 1.652.462.504.299.9.714 1.19 1.246.299.532.448 1.129.448 1.792s-.15 1.26-.448 1.792c-.29.532-.686.952-1.19 1.26a3.179 3.179 0 01-1.652.448 2.83 2.83 0 01-1.358-.322 3.012 3.012 0 01-.952-.798v.98h-.98v-9.8h.98v4.06zm2.31 4.97a2.2 2.2 0 001.162-.322c.355-.224.635-.532.84-.924.205-.392.308-.84.308-1.344 0-.504-.103-.952-.308-1.344a2.267 2.267 0 00-.84-.91 2.134 2.134 0 00-1.162-.336c-.392 0-.77.117-1.134.35a2.45 2.45 0 00-.854.938 2.665 2.665 0 00-.322 1.302c0 .476.107.915.322 1.316.215.392.5.705.854.938.364.224.742.336 1.134.336zm4.895-8.19c0-.177.06-.327.181-.448a.61.61 0 01.448-.182.61.61 0 01.448.182.609.609 0 01.182.448c0 .177-.06.327-.181.448a.61.61 0 01-.449.182.61.61 0 01-.448-.182.609.609 0 01-.181-.448zm1.12 2.24V646h-.98v-6.72h.98zm3.226.98c.215-.308.509-.569.882-.784a2.454 2.454 0 011.288-.336c.532 0 1.003.117 1.414.35.42.233.742.569.966 1.008.233.429.35.933.35 1.512V646h-.98v-3.99c0-.588-.173-1.059-.518-1.414-.336-.364-.77-.546-1.302-.546-.392 0-.751.098-1.078.294a2.04 2.04 0 00-.756.784 2.452 2.452 0 00-.266 1.162V646h-.98v-6.72h.98v.98zm12.811 4.732c-.298.317-.69.588-1.176.812a3.83 3.83 0 01-1.624.336 3.254 3.254 0 01-1.68-.462 3.58 3.58 0 01-1.232-1.274 3.541 3.541 0 01-.448-1.764c0-.635.15-1.218.448-1.75a3.477 3.477 0 011.218-1.274 2.996 2.996 0 011.624-.476c.597 0 1.144.145 1.638.434.495.289.882.691 1.162 1.204.28.504.42 1.078.42 1.722 0 .177-.023.345-.07.504l-5.46-.014c.019.392.14.761.364 1.106.224.345.513.621.868.826.355.205.737.308 1.148.308.467 0 .887-.084 1.26-.252.373-.168.677-.373.91-.616l.63.63zm-.63-2.842c-.075-.607-.322-1.106-.742-1.498a2.065 2.065 0 00-1.498-.602c-.383 0-.742.098-1.078.294a2.453 2.453 0 00-.84.77 2.344 2.344 0 00-.392 1.036h4.55zm7.836 2.87a3.01 3.01 0 01-.952.798 2.83 2.83 0 01-1.358.322 3.179 3.179 0 01-1.652-.448 3.396 3.396 0 01-1.204-1.26 3.688 3.688 0 01-.434-1.792c0-.663.144-1.26.434-1.792a3.29 3.29 0 011.204-1.246 3.109 3.109 0 011.652-.462c.504 0 .957.112 1.358.336.401.215.719.476.952.784v-4.06h.98v9.8h-.98v-.98zm-2.31.21c.392 0 .765-.112 1.12-.336.364-.233.653-.546.868-.938.215-.401.322-.84.322-1.316 0-.476-.108-.91-.322-1.302a2.41 2.41 0 00-.868-.938 2.008 2.008 0 00-1.12-.35c-.42 0-.807.112-1.162.336a2.268 2.268 0 00-.84.91c-.206.392-.308.84-.308 1.344 0 .504.102.952.308 1.344.205.392.485.7.84.924a2.2 2.2 0 001.162.322zm8.039-5.95h1.26v-2.24h.98v2.24h1.82v.91h-1.82v3.99c0 .336.075.574.224.714.159.131.387.196.686.196h.91v.91h-.952c-.588 0-1.045-.149-1.372-.448-.317-.299-.476-.756-.476-1.372v-3.99h-1.26v-.91zm8.548 6.86a3.33 3.33 0 01-1.722-.462 3.541 3.541 0 01-1.246-1.274 3.457 3.457 0 01-.462-1.764c0-.644.154-1.232.462-1.764a3.433 3.433 0 011.246-1.26 3.259 3.259 0 011.722-.476c.625 0 1.2.159 1.722.476.523.308.938.728 1.246 1.26.308.532.462 1.12.462 1.764 0 .644-.154 1.232-.462 1.764a3.541 3.541 0 01-1.246 1.274 3.33 3.33 0 01-1.722.462zm0-.91c.439 0 .845-.112 1.218-.336a2.616 2.616 0 001.232-2.254c0-.476-.112-.91-.336-1.302a2.479 2.479 0 00-.896-.938 2.258 2.258 0 00-1.218-.35c-.439 0-.845.117-1.218.35a2.479 2.479 0 00-.896.938 2.578 2.578 0 00-.336 1.302 2.616 2.616 0 001.232 2.254c.373.224.78.336 1.218.336zm4.481-5.95h1.26v-2.24h.98v2.24h1.82v.91h-1.82v3.99c0 .336.075.574.224.714.159.131.388.196.686.196h.91v.91h-.952c-.588 0-1.045-.149-1.372-.448-.317-.299-.476-.756-.476-1.372v-3.99h-1.26v-.91zm9.668 5.81a2.673 2.673 0 01-.882.742 2.63 2.63 0 01-1.288.308c-.448 0-.854-.093-1.218-.28a2.269 2.269 0 01-.854-.728 1.697 1.697 0 01-.308-.952c0-.569.168-1.036.504-1.4.346-.364.831-.574 1.456-.63l2.59-.224c0-.327-.074-.635-.224-.924a1.651 1.651 0 00-.602-.686 1.45 1.45 0 00-.854-.266 3.93 3.93 0 00-1.078.14c-.326.093-.597.21-.812.35l-.63-.63c.28-.215.64-.397 1.078-.546.439-.149.92-.224 1.442-.224.504 0 .957.117 1.358.35.411.224.728.532.952.924.234.392.35.831.35 1.316V646h-.98v-.91zm-2.31-2.1c-.41.037-.723.163-.938.378a1.103 1.103 0 00-.322.812c0 .299.122.551.364.756.252.196.598.294 1.036.294.654 0 1.176-.177 1.568-.532.402-.364.602-.868.602-1.512v-.42l-2.31.224zm6.164-6.79v9.8h-.98v-9.8h.98zm11.127 8.792c-.298.317-.69.588-1.176.812a3.827 3.827 0 01-1.624.336 3.256 3.256 0 01-1.68-.462 3.583 3.583 0 01-1.232-1.274 3.548 3.548 0 01-.448-1.764 3.52 3.52 0 011.666-3.024 2.998 2.998 0 011.624-.476c.598 0 1.144.145 1.638.434.495.289.882.691 1.162 1.204.28.504.42 1.078.42 1.722 0 .177-.023.345-.07.504l-5.46-.014c.019.392.14.761.364 1.106.224.345.514.621.868.826.355.205.738.308 1.148.308.467 0 .887-.084 1.26-.252a2.87 2.87 0 00.91-.616l.63.63zm-.63-2.842c-.074-.607-.322-1.106-.742-1.498a2.064 2.064 0 00-1.498-.602c-.382 0-.742.098-1.078.294a2.453 2.453 0 00-.84.77 2.357 2.357 0 00-.392 1.036h4.55zm6.786 2.94a2.694 2.694 0 01-.882.742 2.633 2.633 0 01-1.288.308c-.448 0-.854-.093-1.218-.28a2.261 2.261 0 01-.854-.728 1.697 1.697 0 01-.308-.952c0-.569.168-1.036.504-1.4.345-.364.831-.574 1.456-.63l2.59-.224c0-.327-.075-.635-.224-.924a1.658 1.658 0 00-.602-.686 1.451 1.451 0 00-.854-.266 3.93 3.93 0 00-1.078.14 2.98 2.98 0 00-.812.35l-.63-.63c.28-.215.639-.397 1.078-.546a4.459 4.459 0 011.442-.224c.504 0 .957.117 1.358.35.411.224.728.532.952.924.233.392.35.831.35 1.316V646h-.98v-.91zm-2.31-2.1c-.411.037-.723.163-.938.378a1.1 1.1 0 00-.322.812c0 .299.121.551.364.756.252.196.597.294 1.036.294.653 0 1.176-.177 1.568-.532.401-.364.602-.868.602-1.512v-.42l-2.31.224zm6.093-2.8c.178-.289.444-.537.798-.742.364-.205.798-.308 1.302-.308h.42v.98h-.42c-.373 0-.723.089-1.05.266a2.033 2.033 0 00-.77.77c-.186.327-.28.705-.28 1.134V646h-.98v-6.72h.98v.91zm4.827.07a2.67 2.67 0 01.882-.784 2.452 2.452 0 011.288-.336c.532 0 1.003.117 1.414.35.42.233.742.569.966 1.008.233.429.35.933.35 1.512V646h-.98v-3.99c0-.588-.173-1.059-.518-1.414-.336-.364-.77-.546-1.302-.546-.392 0-.752.098-1.078.294a2.03 2.03 0 00-.756.784 2.444 2.444 0 00-.266 1.162V646h-.98v-6.72h.98v.98zm7.001-3.22c0-.177.06-.327.182-.448a.609.609 0 01.448-.182c.177 0 .326.061.448.182a.61.61 0 01.182.448.61.61 0 01-.182.448.612.612 0 01-.448.182.609.609 0 01-.448-.182.606.606 0 01-.182-.448zm1.12 2.24V646h-.98v-6.72h.98zm3.226.98a2.69 2.69 0 01.882-.784 2.457 2.457 0 011.288-.336c.532 0 1.004.117 1.414.35.42.233.742.569.966 1.008.234.429.35.933.35 1.512V646h-.98v-3.99c0-.588-.172-1.059-.518-1.414-.336-.364-.77-.546-1.302-.546-.392 0-.751.098-1.078.294a2.044 2.044 0 00-.756.784 2.456 2.456 0 00-.266 1.162V646h-.98v-6.72h.98v.98zm7.561 6.874c.234.252.537.462.91.63.383.177.803.266 1.26.266.42 0 .803-.107 1.148-.322.355-.215.635-.509.84-.882.215-.373.322-.789.322-1.246v-.77c-.196.289-.49.537-.882.742-.382.205-.835.308-1.358.308-.578 0-1.11-.149-1.596-.448a3.245 3.245 0 01-1.134-1.218 3.479 3.479 0 01-.42-1.694c0-.616.14-1.181.42-1.694.28-.513.658-.919 1.134-1.218a2.987 2.987 0 011.596-.448c.523 0 .976.103 1.358.308.392.205.686.453.882.742v-.91h.98v6.3c0 .616-.149 1.181-.448 1.694a3.243 3.243 0 01-1.19 1.218 3.177 3.177 0 01-1.652.448c-.616 0-1.166-.117-1.652-.35-.485-.224-.868-.499-1.148-.826l.63-.63zm2.24-2.184c.411 0 .789-.107 1.134-.322.346-.215.616-.509.812-.882a2.64 2.64 0 00.294-1.246 2.64 2.64 0 00-.294-1.246 2.245 2.245 0 00-.812-.882 2.102 2.102 0 00-1.134-.322c-.392 0-.756.107-1.092.322a2.333 2.333 0 00-.784.882 2.64 2.64 0 00-.294 1.246c0 .457.098.873.294 1.246.196.373.458.667.784.882.336.215.7.322 1.092.322zm5.531-.7c.187.271.434.504.742.7.308.187.644.28 1.008.28.476 0 .84-.103 1.092-.308.252-.215.378-.485.378-.812a.768.768 0 00-.392-.7c-.252-.159-.634-.313-1.148-.462-.457-.14-.826-.271-1.106-.392a2.029 2.029 0 01-.7-.56c-.196-.252-.294-.574-.294-.966 0-.327.094-.635.28-.924a2.16 2.16 0 01.798-.7 2.513 2.513 0 011.162-.266c.458 0 .873.089 1.246.266.383.177.691.392.924.644l-.7.7a1.723 1.723 0 00-.616-.49 1.727 1.727 0 00-.854-.21c-.373 0-.676.098-.91.294-.233.196-.35.425-.35.686 0 .289.122.509.364.658.243.14.621.285 1.134.434.458.14.826.275 1.106.406.29.131.532.327.728.588.206.252.308.583.308.994 0 .373-.098.714-.294 1.022-.196.308-.48.555-.854.742-.373.177-.807.266-1.302.266-.55 0-1.036-.112-1.456-.336a2.99 2.99 0 01-.994-.854l.7-.7zm11.401 4.83c-.644-.756-1.19-1.713-1.638-2.87-.448-1.148-.672-2.385-.672-3.71 0-1.325.224-2.562.672-3.71.448-1.157.994-2.114 1.638-2.87l.77.42c-.607.737-1.12 1.647-1.54 2.73a9.328 9.328 0 00-.63 3.43c0 1.213.21 2.361.63 3.444.42 1.073.933 1.979 1.54 2.716l-.77.42zm3.429-8.82c.233-.308.551-.569.952-.784a2.737 2.737 0 011.358-.336 3.11 3.11 0 011.652.462c.504.299.901.714 1.19 1.246.299.532.448 1.129.448 1.792s-.149 1.26-.448 1.792a3.287 3.287 0 01-1.19 1.26 3.18 3.18 0 01-1.652.448c-.504 0-.957-.107-1.358-.322a3.012 3.012 0 01-.952-.798v.98h-.98v-9.8h.98v4.06zm2.31 4.97a2.2 2.2 0 001.162-.322c.355-.224.635-.532.84-.924.205-.392.308-.84.308-1.344 0-.504-.103-.952-.308-1.344a2.263 2.263 0 00-.84-.91 2.135 2.135 0 00-1.162-.336c-.392 0-.77.117-1.134.35a2.45 2.45 0 00-.854.938 2.662 2.662 0 00-.322 1.302c0 .476.107.915.322 1.316.215.392.499.705.854.938.364.224.742.336 1.134.336zm10.705-.238c-.299.317-.691.588-1.176.812a3.833 3.833 0 01-1.624.336 3.25 3.25 0 01-1.68-.462 3.574 3.574 0 01-1.232-1.274 3.538 3.538 0 01-.448-1.764c0-.635.149-1.218.448-1.75a3.477 3.477 0 011.218-1.274 2.996 2.996 0 011.624-.476 3.19 3.19 0 011.638.434c.494.289.882.691 1.162 1.204.28.504.42 1.078.42 1.722 0 .177-.024.345-.07.504l-5.46-.014c.018.392.14.761.364 1.106.224.345.513.621.868.826.354.205.737.308 1.148.308.466 0 .886-.084 1.26-.252.373-.168.676-.373.91-.616l.63.63zm-.63-2.842c-.075-.607-.322-1.106-.742-1.498a2.065 2.065 0 00-1.498-.602c-.383 0-.742.098-1.078.294a2.453 2.453 0 00-.84.77 2.333 2.333 0 00-.392 1.036h4.55zm2.025-2.87h1.05v-1.26c0-.625.159-1.106.476-1.442.327-.345.775-.518 1.344-.518h.98v.91h-.91c-.289 0-.513.089-.672.266-.158.177-.238.439-.238.784v1.26h1.61v.91h-1.61V646h-.98v-5.81h-1.05v-.91zm8.125 6.86c-.626 0-1.2-.154-1.722-.462a3.539 3.539 0 01-1.246-1.274 3.457 3.457 0 01-.462-1.764c0-.644.154-1.232.462-1.764a3.43 3.43 0 011.246-1.26 3.255 3.255 0 011.722-.476 3.26 3.26 0 011.722.476c.522.308.938.728 1.246 1.26.308.532.462 1.12.462 1.764 0 .644-.154 1.232-.462 1.764a3.547 3.547 0 01-1.246 1.274 3.332 3.332 0 01-1.722.462zm0-.91c.438 0 .844-.112 1.218-.336a2.619 2.619 0 001.232-2.254c0-.476-.112-.91-.336-1.302a2.481 2.481 0 00-.896-.938 2.261 2.261 0 00-1.218-.35c-.439 0-.845.117-1.218.35a2.474 2.474 0 00-.896.938 2.578 2.578 0 00-.336 1.302 2.61 2.61 0 001.232 2.254c.373.224.779.336 1.218.336zm6.161-5.04c.177-.289.443-.537.798-.742.364-.205.798-.308 1.302-.308h.42v.98h-.42c-.374 0-.724.089-1.05.266a2.026 2.026 0 00-.77.77c-.187.327-.28.705-.28 1.134V646h-.98v-6.72h.98v.91zm9.379 4.802c-.299.317-.691.588-1.176.812a3.83 3.83 0 01-1.624.336 3.256 3.256 0 01-1.68-.462 3.583 3.583 0 01-1.232-1.274 3.538 3.538 0 01-.448-1.764c0-.635.149-1.218.448-1.75a3.477 3.477 0 011.218-1.274 2.996 2.996 0 011.624-.476 3.19 3.19 0 011.638.434c.495.289.882.691 1.162 1.204.28.504.42 1.078.42 1.722 0 .177-.023.345-.07.504l-5.46-.014c.019.392.14.761.364 1.106.224.345.513.621.868.826.355.205.737.308 1.148.308.467 0 .887-.084 1.26-.252.373-.168.677-.373.91-.616l.63.63zm-.63-2.842c-.075-.607-.322-1.106-.742-1.498a2.065 2.065 0 00-1.498-.602c-.383 0-.742.098-1.078.294a2.453 2.453 0 00-.84.77 2.344 2.344 0 00-.392 1.036h4.55zm5.17-2.87h1.26v-2.24h.98v2.24h1.82v.91h-1.82v3.99c0 .336.075.574.224.714.159.131.388.196.686.196h.91v.91h-.952c-.588 0-1.045-.149-1.372-.448-.317-.299-.476-.756-.476-1.372v-3.99h-1.26v-.91zm9.668 5.81a2.673 2.673 0 01-.882.742 2.63 2.63 0 01-1.288.308c-.448 0-.854-.093-1.218-.28a2.269 2.269 0 01-.854-.728 1.697 1.697 0 01-.308-.952c0-.569.168-1.036.504-1.4.346-.364.831-.574 1.456-.63l2.59-.224c0-.327-.074-.635-.224-.924a1.651 1.651 0 00-.602-.686 1.45 1.45 0 00-.854-.266 3.93 3.93 0 00-1.078.14c-.326.093-.597.21-.812.35l-.63-.63c.28-.215.64-.397 1.078-.546.439-.149.92-.224 1.442-.224.504 0 .957.117 1.358.35.411.224.728.532.952.924.234.392.35.831.35 1.316V646h-.98v-.91zm-2.31-2.1c-.41.037-.723.163-.938.378a1.103 1.103 0 00-.322.812c0 .299.122.551.364.756.252.196.598.294 1.036.294.654 0 1.176-.177 1.568-.532.402-.364.602-.868.602-1.512v-.42l-2.31.224zm4.414-3.71h1.19l1.75 2.45 1.75-2.45h1.19l-2.31 3.22 2.52 3.5h-1.19l-1.96-2.73-1.96 2.73h-1.19l2.52-3.5-2.31-3.22zm12.96 5.712c-.299.317-.691.588-1.176.812a3.833 3.833 0 01-1.624.336 3.25 3.25 0 01-1.68-.462 3.574 3.574 0 01-1.232-1.274 3.538 3.538 0 01-.448-1.764c0-.635.149-1.218.448-1.75a3.477 3.477 0 011.218-1.274 2.996 2.996 0 011.624-.476 3.19 3.19 0 011.638.434c.494.289.882.691 1.162 1.204.28.504.42 1.078.42 1.722 0 .177-.024.345-.07.504l-5.46-.014c.018.392.14.761.364 1.106.224.345.513.621.868.826.354.205.737.308 1.148.308.466 0 .886-.084 1.26-.252.373-.168.676-.373.91-.616l.63.63zm-.63-2.842c-.075-.607-.322-1.106-.742-1.498a2.065 2.065 0 00-1.498-.602c-.383 0-.742.098-1.078.294a2.453 2.453 0 00-.84.77 2.333 2.333 0 00-.392 1.036h4.55zm2.795 2.1c.187.271.434.504.742.7.308.187.644.28 1.008.28.476 0 .84-.103 1.092-.308.252-.215.378-.485.378-.812a.768.768 0 00-.392-.7c-.252-.159-.634-.313-1.148-.462-.457-.14-.826-.271-1.106-.392a2.029 2.029 0 01-.7-.56c-.196-.252-.294-.574-.294-.966 0-.327.094-.635.28-.924a2.16 2.16 0 01.798-.7 2.513 2.513 0 011.162-.266c.458 0 .873.089 1.246.266.383.177.691.392.924.644l-.7.7a1.723 1.723 0 00-.616-.49 1.727 1.727 0 00-.854-.21c-.373 0-.676.098-.91.294-.233.196-.35.425-.35.686 0 .289.122.509.364.658.243.14.621.285 1.134.434.458.14.826.275 1.106.406.29.131.532.327.728.588.206.252.308.583.308.994 0 .373-.098.714-.294 1.022-.196.308-.48.555-.854.742-.373.177-.807.266-1.302.266-.55 0-1.036-.112-1.456-.336a2.99 2.99 0 01-.994-.854l.7-.7zm5.316 4.41c.606-.737 1.12-1.643 1.54-2.716a9.44 9.44 0 00.63-3.444c0-1.213-.21-2.357-.63-3.43-.42-1.083-.934-1.993-1.54-2.73l.77-.42c.644.756 1.19 1.713 1.638 2.87.448 1.148.672 2.385.672 3.71 0 1.325-.224 2.562-.672 3.71-.448 1.157-.994 2.114-1.638 2.87l-.77-.42zm7.764-9.38h1.05v-1.26c0-.625.158-1.106.476-1.442.326-.345.774-.518 1.344-.518h.98v.91h-.91c-.29 0-.514.089-.672.266-.159.177-.238.439-.238.784v1.26h1.61v.91h-1.61V646h-.98v-5.81h-1.05v-.91zm8.124 6.86a3.332 3.332 0 01-1.722-.462 3.547 3.547 0 01-1.246-1.274 3.457 3.457 0 01-.462-1.764c0-.644.154-1.232.462-1.764a3.438 3.438 0 011.246-1.26 3.26 3.26 0 011.722-.476c.626 0 1.2.159 1.722.476a3.43 3.43 0 011.246 1.26c.308.532.462 1.12.462 1.764 0 .644-.154 1.232-.462 1.764a3.539 3.539 0 01-1.246 1.274 3.327 3.327 0 01-1.722.462zm0-.91c.439 0 .845-.112 1.218-.336a2.61 2.61 0 001.232-2.254c0-.476-.112-.91-.336-1.302a2.474 2.474 0 00-.896-.938 2.256 2.256 0 00-1.218-.35c-.438 0-.844.117-1.218.35a2.481 2.481 0 00-.896.938 2.578 2.578 0 00-.336 1.302 2.619 2.619 0 001.232 2.254c.374.224.78.336 1.218.336zm6.161-5.04c.178-.289.444-.537.798-.742.364-.205.798-.308 1.302-.308h.42v.98h-.42c-.373 0-.723.089-1.05.266a2.033 2.033 0 00-.77.77c-.186.327-.28.705-.28 1.134V646h-.98v-6.72h.98v.91zm12.388 4.802c-.299.317-.691.588-1.176.812a3.833 3.833 0 01-1.624.336 3.25 3.25 0 01-1.68-.462 3.574 3.574 0 01-1.232-1.274 3.538 3.538 0 01-.448-1.764c0-.635.149-1.218.448-1.75a3.477 3.477 0 011.218-1.274 2.996 2.996 0 011.624-.476 3.19 3.19 0 011.638.434c.494.289.882.691 1.162 1.204.28.504.42 1.078.42 1.722 0 .177-.024.345-.07.504l-5.46-.014c.018.392.14.761.364 1.106.224.345.513.621.868.826.354.205.737.308 1.148.308.466 0 .886-.084 1.26-.252.373-.168.676-.373.91-.616l.63.63zm-.63-2.842c-.075-.607-.322-1.106-.742-1.498a2.065 2.065 0 00-1.498-.602c-.383 0-.742.098-1.078.294a2.453 2.453 0 00-.84.77 2.333 2.333 0 00-.392 1.036h4.55zm2.865-2.87l2.17 5.39 2.17-5.39h1.05l-2.73 6.72h-.98l-2.73-6.72h1.05zm12.393 5.712c-.298.317-.69.588-1.176.812a3.827 3.827 0 01-1.624.336 3.256 3.256 0 01-1.68-.462 3.583 3.583 0 01-1.232-1.274 3.548 3.548 0 01-.448-1.764 3.52 3.52 0 011.666-3.024 2.998 2.998 0 011.624-.476c.598 0 1.144.145 1.638.434.495.289.882.691 1.162 1.204.28.504.42 1.078.42 1.722 0 .177-.023.345-.07.504l-5.46-.014c.019.392.14.761.364 1.106.224.345.514.621.868.826.355.205.738.308 1.148.308.467 0 .887-.084 1.26-.252a2.87 2.87 0 00.91-.616l.63.63zm-.63-2.842c-.074-.607-.322-1.106-.742-1.498a2.064 2.064 0 00-1.498-.602c-.382 0-.742.098-1.078.294a2.453 2.453 0 00-.84.77 2.357 2.357 0 00-.392 1.036h4.55zm3.706-1.96c.177-.289.443-.537.798-.742.364-.205.798-.308 1.302-.308h.42v.98h-.42c-.373 0-.723.089-1.05.266a2.033 2.033 0 00-.77.77c-.187.327-.28.705-.28 1.134V646h-.98v-6.72h.98v.91zm4.33 7.84c.308 0 .56-.089.756-.266.205-.168.373-.429.504-.784l.35-.98-2.73-6.72h1.05l2.17 5.46 2.17-5.46h1.05l-3.08 7.7c-.28.709-.579 1.213-.896 1.512-.318.299-.719.448-1.204.448h-.84v-.91h.7zm9.593-1.89a3.332 3.332 0 01-1.722-.462 3.539 3.539 0 01-1.246-1.274 3.457 3.457 0 01-.462-1.764c0-.644.154-1.232.462-1.764a3.43 3.43 0 011.246-1.26 3.26 3.26 0 011.722-.476 3.26 3.26 0 011.722.476 3.43 3.43 0 011.246 1.26c.308.532.462 1.12.462 1.764 0 .644-.154 1.232-.462 1.764a3.539 3.539 0 01-1.246 1.274 3.332 3.332 0 01-1.722.462zm0-.91c.439 0 .845-.112 1.218-.336a2.619 2.619 0 001.232-2.254c0-.476-.112-.91-.336-1.302a2.481 2.481 0 00-.896-.938 2.256 2.256 0 00-1.218-.35c-.439 0-.845.117-1.218.35a2.481 2.481 0 00-.896.938 2.578 2.578 0 00-.336 1.302 2.619 2.619 0 001.232 2.254c.373.224.779.336 1.218.336zm6.161-4.97a2.69 2.69 0 01.882-.784 2.454 2.454 0 011.288-.336c.532 0 1.003.117 1.414.35.42.233.742.569.966 1.008.233.429.35.933.35 1.512V646h-.98v-3.99c0-.588-.173-1.059-.518-1.414-.336-.364-.77-.546-1.302-.546-.392 0-.751.098-1.078.294a2.044 2.044 0 00-.756.784 2.456 2.456 0 00-.266 1.162V646h-.98v-6.72h.98v.98zm12.811 4.732c-.299.317-.691.588-1.176.812a3.83 3.83 0 01-1.624.336 3.256 3.256 0 01-1.68-.462 3.583 3.583 0 01-1.232-1.274 3.538 3.538 0 01-.448-1.764c0-.635.149-1.218.448-1.75a3.477 3.477 0 011.218-1.274 2.996 2.996 0 011.624-.476 3.19 3.19 0 011.638.434c.495.289.882.691 1.162 1.204.28.504.42 1.078.42 1.722 0 .177-.023.345-.07.504l-5.46-.014c.019.392.14.761.364 1.106.224.345.513.621.868.826.355.205.737.308 1.148.308.467 0 .887-.084 1.26-.252.373-.168.677-.373.91-.616l.63.63zm-.63-2.842c-.075-.607-.322-1.106-.742-1.498a2.065 2.065 0 00-1.498-.602c-.383 0-.742.098-1.078.294a2.453 2.453 0 00-.84.77 2.344 2.344 0 00-.392 1.036h4.55zM17.33 672.03c.308 0 .56-.089.756-.266.205-.168.373-.429.504-.784l.35-.98-2.73-6.72h1.05l2.17 5.46 2.17-5.46h1.05l-3.08 7.7c-.28.709-.579 1.213-.896 1.512-.317.299-.719.448-1.204.448h-.84v-.91h.7zm9.593-1.89a3.33 3.33 0 01-1.722-.462 3.541 3.541 0 01-1.246-1.274 3.457 3.457 0 01-.462-1.764c0-.644.154-1.232.462-1.764a3.433 3.433 0 011.246-1.26 3.258 3.258 0 011.722-.476c.626 0 1.2.159 1.722.476.523.308.938.728 1.246 1.26.308.532.462 1.12.462 1.764 0 .644-.154 1.232-.462 1.764a3.542 3.542 0 01-1.246 1.274 3.33 3.33 0 01-1.722.462zm0-.91c.439 0 .845-.112 1.218-.336a2.616 2.616 0 001.232-2.254c0-.476-.112-.91-.336-1.302a2.479 2.479 0 00-.896-.938 2.258 2.258 0 00-1.218-.35c-.438 0-.844.117-1.218.35a2.478 2.478 0 00-.896.938 2.578 2.578 0 00-.336 1.302 2.615 2.615 0 001.232 2.254c.374.224.78.336 1.218.336zm6.161-2.03c0 .392.084.742.252 1.05.168.308.397.551.686.728.29.168.607.252.952.252.374 0 .714-.093 1.022-.28.308-.196.551-.462.728-.798.187-.345.28-.733.28-1.162v-3.71h.98V670h-.98v-.91a2.688 2.688 0 01-.882.742 2.633 2.633 0 01-1.288.308c-.513 0-.98-.121-1.4-.364a2.727 2.727 0 01-.98-1.05c-.233-.448-.35-.957-.35-1.526v-3.92h.98v3.92zm9.654-3.92h1.05v-1.26c0-.625.159-1.106.476-1.442.327-.345.775-.518 1.344-.518.355 0 .682.07.98.21v.91a2.124 2.124 0 00-.91-.21c-.289 0-.513.089-.672.266-.158.177-.238.439-.238.784v1.26h3.99V670h-.98v-5.81h-3.01V670h-.98v-5.81h-1.05v-.91zm4.9-2.24c0-.177.061-.327.182-.448a.61.61 0 01.448-.182.61.61 0 01.448.182.609.609 0 01.182.448c0 .177-.06.327-.182.448a.61.61 0 01-.448.182.61.61 0 01-.448-.182.609.609 0 01-.182-.448zm4.41-.84v9.8h-.98v-9.8h.98zm7.984 8.792c-.298.317-.69.588-1.176.812a3.83 3.83 0 01-1.624.336 3.254 3.254 0 01-1.68-.462 3.58 3.58 0 01-1.232-1.274 3.541 3.541 0 01-.448-1.764c0-.635.15-1.218.448-1.75a3.477 3.477 0 011.218-1.274 2.996 2.996 0 011.624-.476c.598 0 1.144.145 1.638.434.495.289.882.691 1.162 1.204.28.504.42 1.078.42 1.722 0 .177-.023.345-.07.504l-5.46-.014c.019.392.14.761.364 1.106.224.345.514.621.868.826.355.205.737.308 1.148.308.467 0 .887-.084 1.26-.252.373-.168.677-.373.91-.616l.63.63zm-.63-2.842c-.075-.607-.322-1.106-.742-1.498a2.065 2.065 0 00-1.498-.602c-.383 0-.742.098-1.078.294a2.453 2.453 0 00-.84.77 2.344 2.344 0 00-.392 1.036h4.55zm5.17-2.87h1.26v-2.24h.98v2.24h1.82v.91h-1.82v3.99c0 .336.075.574.224.714.159.131.388.196.686.196h.91v.91h-.952c-.588 0-1.045-.149-1.372-.448-.317-.299-.476-.756-.476-1.372v-3.99h-1.26v-.91zm9.668 5.81a2.686 2.686 0 01-.881.742 2.632 2.632 0 01-1.288.308c-.448 0-.855-.093-1.218-.28a2.264 2.264 0 01-.854-.728 1.695 1.695 0 01-.308-.952c0-.569.168-1.036.504-1.4.345-.364.83-.574 1.456-.63l2.59-.224c0-.327-.075-.635-.225-.924a1.655 1.655 0 00-.602-.686 1.45 1.45 0 00-.853-.266c-.393 0-.752.047-1.079.14-.326.093-.597.21-.811.35l-.63-.63c.28-.215.639-.397 1.078-.546a4.46 4.46 0 011.442-.224c.503 0 .956.117 1.357.35.411.224.728.532.953.924.233.392.35.831.35 1.316V670h-.98v-.91zm-2.31-2.1c-.41.037-.723.163-.938.378a1.101 1.101 0 00-.322.812c0 .299.122.551.364.756.252.196.598.294 1.036.294.654 0 1.177-.177 1.569-.532.4-.364.602-.868.602-1.512v-.42l-2.31.224zm4.414-3.71h1.19l1.75 2.45 1.75-2.45h1.19l-2.31 3.22 2.52 3.5h-1.19l-1.96-2.73-1.96 2.73h-1.19l2.52-3.5-2.31-3.22zm12.96 5.712c-.299.317-.691.588-1.176.812a3.83 3.83 0 01-1.624.336 3.254 3.254 0 01-1.68-.462 3.58 3.58 0 01-1.232-1.274 3.541 3.541 0 01-.448-1.764c0-.635.149-1.218.448-1.75a3.477 3.477 0 011.218-1.274 2.996 2.996 0 011.624-.476c.597 0 1.143.145 1.638.434.494.289.882.691 1.162 1.204.28.504.42 1.078.42 1.722 0 .177-.024.345-.07.504l-5.46-.014c.018.392.14.761.364 1.106.224.345.513.621.868.826.354.205.737.308 1.148.308.466 0 .886-.084 1.26-.252.373-.168.676-.373.91-.616l.63.63zm-.63-2.842c-.075-.607-.322-1.106-.742-1.498a2.065 2.065 0 00-1.498-.602c-.383 0-.742.098-1.078.294a2.453 2.453 0 00-.84.77 2.343 2.343 0 00-.392 1.036h4.55zm2.795 2.1c.187.271.434.504.742.7.308.187.644.28 1.008.28.476 0 .84-.103 1.092-.308.252-.215.378-.485.378-.812a.77.77 0 00-.392-.7c-.252-.159-.634-.313-1.148-.462-.457-.14-.826-.271-1.106-.392a2.022 2.022 0 01-.7-.56c-.196-.252-.294-.574-.294-.966 0-.327.094-.635.28-.924a2.16 2.16 0 01.798-.7 2.51 2.51 0 011.162-.266c.458 0 .873.089 1.246.266.383.177.691.392.924.644l-.7.7a1.732 1.732 0 00-.616-.49 1.729 1.729 0 00-.854-.21c-.373 0-.676.098-.91.294-.233.196-.35.425-.35.686 0 .289.122.509.364.658.243.14.621.285 1.134.434.458.14.826.275 1.106.406.29.131.532.327.728.588.206.252.308.583.308.994 0 .373-.098.714-.294 1.022-.196.308-.48.555-.854.742-.373.177-.807.266-1.302.266-.55 0-1.036-.112-1.456-.336a2.988 2.988 0 01-.994-.854l.7-.7zm8.957-4.97l1.75 5.18 1.68-5.18h.84l1.68 5.18 1.75-5.18h1.05l-2.31 6.72h-.91l-1.68-5.11-1.68 5.11h-.91l-2.31-6.72h1.05zm9.947-2.24c0-.177.06-.327.182-.448a.609.609 0 01.448-.182c.177 0 .326.061.448.182a.61.61 0 01.182.448.61.61 0 01-.182.448.612.612 0 01-.448.182.609.609 0 01-.448-.182.606.606 0 01-.182-.448zm1.12 2.24V670h-.98v-6.72h.98zm1.546 0h1.26v-2.24h.98v2.24h1.82v.91h-1.82v3.99c0 .336.075.574.224.714.159.131.387.196.686.196h.91v.91h-.952c-.588 0-1.045-.149-1.372-.448-.317-.299-.476-.756-.476-1.372v-3.99h-1.26v-.91zm6.795.98a2.69 2.69 0 01.882-.784 2.454 2.454 0 011.288-.336c.532 0 1.003.117 1.414.35.42.233.742.569.966 1.008.233.429.35.933.35 1.512V670h-.98v-3.99c0-.588-.173-1.059-.518-1.414-.336-.364-.77-.546-1.302-.546-.392 0-.751.098-1.078.294a2.044 2.044 0 00-.756.784 2.456 2.456 0 00-.266 1.162V670h-.98v-9.8h.98v4.06zm6.79 5.18c0-.215.065-.383.196-.504a.679.679 0 01.504-.196c.214 0 .382.065.504.196.13.121.196.289.196.504a.686.686 0 01-.196.504c-.122.131-.29.196-.504.196a.679.679 0 01-.504-.196.682.682 0 01-.196-.504zm5.17-9.24h1.19l2.94 5.25h.07l2.94-5.25h1.19l-3.64 6.37V670h-1.05v-3.43l-3.64-6.37zm11.545 9.94a3.332 3.332 0 01-1.722-.462 3.547 3.547 0 01-1.246-1.274 3.457 3.457 0 01-.462-1.764c0-.644.154-1.232.462-1.764a3.438 3.438 0 011.246-1.26 3.26 3.26 0 011.722-.476c.626 0 1.2.159 1.722.476a3.43 3.43 0 011.246 1.26c.308.532.462 1.12.462 1.764 0 .644-.154 1.232-.462 1.764a3.539 3.539 0 01-1.246 1.274 3.327 3.327 0 01-1.722.462zm0-.91c.439 0 .845-.112 1.218-.336a2.61 2.61 0 001.232-2.254c0-.476-.112-.91-.336-1.302a2.474 2.474 0 00-.896-.938 2.256 2.256 0 00-1.218-.35c-.438 0-.844.117-1.218.35a2.481 2.481 0 00-.896.938 2.578 2.578 0 00-.336 1.302 2.619 2.619 0 001.232 2.254c.374.224.78.336 1.218.336zm6.161-2.03c0 .392.084.742.252 1.05.168.308.397.551.686.728.29.168.607.252.952.252a1.93 1.93 0 001.022-.28 2.07 2.07 0 00.728-.798 2.4 2.4 0 00.28-1.162v-3.71h.98V670h-.98v-.91a2.673 2.673 0 01-.882.742 2.63 2.63 0 01-1.288.308c-.513 0-.98-.121-1.4-.364a2.735 2.735 0 01-.98-1.05 3.26 3.26 0 01-.35-1.526v-3.92h.98v3.92zm8.19-3.01c.177-.289.443-.537.798-.742.364-.205.798-.308 1.302-.308h.42v.98h-.42c-.373 0-.723.089-1.05.266a2.033 2.033 0 00-.77.77c-.187.327-.28.705-.28 1.134V670h-.98v-6.72h.98v.91zm7.767.07c.233-.308.551-.569.952-.784a2.737 2.737 0 011.358-.336 3.11 3.11 0 011.652.462c.504.299.901.714 1.19 1.246.299.532.448 1.129.448 1.792s-.149 1.26-.448 1.792a3.287 3.287 0 01-1.19 1.26 3.18 3.18 0 01-1.652.448c-.504 0-.957-.107-1.358-.322a3.012 3.012 0 01-.952-.798v.98h-.98v-9.8h.98v4.06zm2.31 4.97a2.2 2.2 0 001.162-.322c.355-.224.635-.532.84-.924.205-.392.308-.84.308-1.344 0-.504-.103-.952-.308-1.344a2.263 2.263 0 00-.84-.91 2.135 2.135 0 00-1.162-.336c-.392 0-.77.117-1.134.35a2.45 2.45 0 00-.854.938 2.662 2.662 0 00-.322 1.302c0 .476.107.915.322 1.316.215.392.499.705.854.938.364.224.742.336 1.134.336zm10.705-.238c-.299.317-.691.588-1.176.812a3.833 3.833 0 01-1.624.336 3.25 3.25 0 01-1.68-.462 3.574 3.574 0 01-1.232-1.274 3.538 3.538 0 01-.448-1.764c0-.635.149-1.218.448-1.75a3.477 3.477 0 011.218-1.274 2.996 2.996 0 011.624-.476 3.19 3.19 0 011.638.434c.494.289.882.691 1.162 1.204.28.504.42 1.078.42 1.722 0 .177-.024.345-.07.504l-5.46-.014c.018.392.14.761.364 1.106.224.345.513.621.868.826.354.205.737.308 1.148.308.466 0 .886-.084 1.26-.252.373-.168.676-.373.91-.616l.63.63zm-.63-2.842c-.075-.607-.322-1.106-.742-1.498a2.065 2.065 0 00-1.498-.602c-.383 0-.742.098-1.078.294a2.453 2.453 0 00-.84.77 2.333 2.333 0 00-.392 1.036h4.55zm2.795 2.1c.187.271.434.504.742.7.308.187.644.28 1.008.28.476 0 .84-.103 1.092-.308.252-.215.378-.485.378-.812a.768.768 0 00-.392-.7c-.252-.159-.634-.313-1.148-.462-.457-.14-.826-.271-1.106-.392a2.029 2.029 0 01-.7-.56c-.196-.252-.294-.574-.294-.966 0-.327.094-.635.28-.924a2.16 2.16 0 01.798-.7 2.513 2.513 0 011.162-.266c.458 0 .873.089 1.246.266.383.177.691.392.924.644l-.7.7a1.723 1.723 0 00-.616-.49 1.727 1.727 0 00-.854-.21c-.373 0-.676.098-.91.294-.233.196-.35.425-.35.686 0 .289.122.509.364.658.243.14.621.285 1.134.434.458.14.826.275 1.106.406.29.131.532.327.728.588.206.252.308.583.308.994 0 .373-.098.714-.294 1.022-.196.308-.48.555-.854.742-.373.177-.807.266-1.302.266-.55 0-1.036-.112-1.456-.336a2.99 2.99 0 01-.994-.854l.7-.7zm5.246-4.97h1.26v-2.24h.98v2.24h1.82v.91h-1.82v3.99c0 .336.075.574.224.714.159.131.387.196.686.196h.91v.91h-.952c-.588 0-1.045-.149-1.372-.448-.317-.299-.476-.756-.476-1.372v-3.99h-1.26v-.91zm9.309 7.854c.234.252.537.462.91.63.383.177.803.266 1.26.266.42 0 .803-.107 1.148-.322.355-.215.635-.509.84-.882.215-.373.322-.789.322-1.246v-.77c-.196.289-.49.537-.882.742-.382.205-.835.308-1.358.308-.578 0-1.11-.149-1.596-.448a3.245 3.245 0 01-1.134-1.218 3.479 3.479 0 01-.42-1.694c0-.616.14-1.181.42-1.694.28-.513.658-.919 1.134-1.218a2.987 2.987 0 011.596-.448c.523 0 .976.103 1.358.308.392.205.686.453.882.742v-.91h.98v6.3c0 .616-.149 1.181-.448 1.694a3.243 3.243 0 01-1.19 1.218 3.177 3.177 0 01-1.652.448c-.616 0-1.166-.117-1.652-.35-.485-.224-.868-.499-1.148-.826l.63-.63zm2.24-2.184c.411 0 .789-.107 1.134-.322.346-.215.616-.509.812-.882a2.64 2.64 0 00.294-1.246 2.64 2.64 0 00-.294-1.246 2.245 2.245 0 00-.812-.882 2.102 2.102 0 00-1.134-.322c-.392 0-.756.107-1.092.322a2.333 2.333 0 00-.784.882 2.64 2.64 0 00-.294 1.246c0 .457.098.873.294 1.246.196.373.458.667.784.882.336.215.7.322 1.092.322zm6.441-1.75c0 .392.084.742.252 1.05.168.308.397.551.686.728.29.168.607.252.952.252a1.93 1.93 0 001.022-.28 2.07 2.07 0 00.728-.798 2.4 2.4 0 00.28-1.162v-3.71h.98V670h-.98v-.91a2.673 2.673 0 01-.882.742 2.63 2.63 0 01-1.288.308c-.513 0-.98-.121-1.4-.364a2.735 2.735 0 01-.98-1.05 3.26 3.26 0 01-.35-1.526v-3.92h.98v3.92zm12.88 1.792c-.299.317-.691.588-1.176.812a3.83 3.83 0 01-1.624.336 3.256 3.256 0 01-1.68-.462 3.583 3.583 0 01-1.232-1.274 3.538 3.538 0 01-.448-1.764c0-.635.149-1.218.448-1.75a3.477 3.477 0 011.218-1.274 2.996 2.996 0 011.624-.476 3.19 3.19 0 011.638.434c.495.289.882.691 1.162 1.204.28.504.42 1.078.42 1.722 0 .177-.023.345-.07.504l-5.46-.014c.019.392.14.761.364 1.106.224.345.513.621.868.826.355.205.737.308 1.148.308.467 0 .887-.084 1.26-.252.373-.168.677-.373.91-.616l.63.63zm-.63-2.842c-.075-.607-.322-1.106-.742-1.498a2.065 2.065 0 00-1.498-.602c-.383 0-.742.098-1.078.294a2.453 2.453 0 00-.84.77 2.344 2.344 0 00-.392 1.036h4.55zm2.796 2.1c.186.271.434.504.742.7.308.187.644.28 1.008.28.476 0 .84-.103 1.092-.308.252-.215.378-.485.378-.812a.77.77 0 00-.392-.7c-.252-.159-.635-.313-1.148-.462-.458-.14-.826-.271-1.106-.392a2.02 2.02 0 01-.7-.56c-.196-.252-.294-.574-.294-.966 0-.327.093-.635.28-.924a2.16 2.16 0 01.798-.7 2.508 2.508 0 011.162-.266c.457 0 .872.089 1.246.266.382.177.69.392.924.644l-.7.7a1.74 1.74 0 00-.616-.49 1.73 1.73 0 00-.854-.21c-.374 0-.677.098-.91.294-.234.196-.35.425-.35.686 0 .289.121.509.364.658.242.14.62.285 1.134.434.457.14.826.275 1.106.406.289.131.532.327.728.588.205.252.308.583.308.994 0 .373-.098.714-.294 1.022a2.093 2.093 0 01-.854.742c-.374.177-.808.266-1.302.266-.551 0-1.036-.112-1.456-.336a2.981 2.981 0 01-.994-.854l.7-.7zm6.015 0c.187.271.434.504.742.7.308.187.644.28 1.008.28.476 0 .84-.103 1.092-.308.252-.215.378-.485.378-.812a.77.77 0 00-.392-.7c-.252-.159-.635-.313-1.148-.462-.457-.14-.826-.271-1.106-.392a2.02 2.02 0 01-.7-.56c-.196-.252-.294-.574-.294-.966 0-.327.093-.635.28-.924a2.16 2.16 0 01.798-.7 2.51 2.51 0 011.162-.266c.457 0 .873.089 1.246.266.383.177.691.392.924.644l-.7.7a1.732 1.732 0 00-.616-.49 1.73 1.73 0 00-.854-.21c-.373 0-.677.098-.91.294-.233.196-.35.425-.35.686 0 .289.121.509.364.658.243.14.621.285 1.134.434.457.14.826.275 1.106.406.289.131.532.327.728.588.205.252.308.583.308.994 0 .373-.098.714-.294 1.022a2.093 2.093 0 01-.854.742c-.373.177-.807.266-1.302.266-.551 0-1.036-.112-1.456-.336a2.99 2.99 0 01-.994-.854l.7-.7zm8.95-7.21a.61.61 0 01.182-.448.612.612 0 01.448-.182c.178 0 .327.061.448.182a.606.606 0 01.182.448c0 .177-.06.327-.182.448a.609.609 0 01-.448.182.612.612 0 01-.448-.182.61.61 0 01-.182-.448zm1.12 2.24V670h-.98v-6.72h.98zm2.317 4.97c.187.271.434.504.742.7.308.187.644.28 1.008.28.476 0 .84-.103 1.092-.308.252-.215.378-.485.378-.812a.77.77 0 00-.392-.7c-.252-.159-.635-.313-1.148-.462-.457-.14-.826-.271-1.106-.392a2.02 2.02 0 01-.7-.56c-.196-.252-.294-.574-.294-.966 0-.327.093-.635.28-.924a2.16 2.16 0 01.798-.7 2.51 2.51 0 011.162-.266c.457 0 .873.089 1.246.266.383.177.691.392.924.644l-.7.7a1.732 1.732 0 00-.616-.49 1.73 1.73 0 00-.854-.21c-.373 0-.677.098-.91.294-.233.196-.35.425-.35.686 0 .289.121.509.364.658.243.14.621.285 1.134.434.457.14.826.275 1.106.406.289.131.532.327.728.588.205.252.308.583.308.994 0 .373-.098.714-.294 1.022a2.093 2.093 0 01-.854.742c-.373.177-.807.266-1.302.266-.551 0-1.036-.112-1.456-.336a2.99 2.99 0 01-.994-.854l.7-.7zm8.39-4.97h1.05v-1.26c0-.625.159-1.106.476-1.442.327-.345.775-.518 1.344-.518.355 0 .681.07.98.21v.91a2.125 2.125 0 00-.91-.21c-.289 0-.513.089-.672.266-.159.177-.238.439-.238.784v1.26h3.99V670h-.98v-5.81h-3.01V670h-.98v-5.81h-1.05v-.91zm4.9-2.24a.61.61 0 01.182-.448.61.61 0 01.448-.182.61.61 0 01.448.182.61.61 0 01.182.448.61.61 0 01-.182.448.61.61 0 01-.448.182.61.61 0 01-.448-.182.61.61 0 01-.182-.448zm4.341 3.22a2.67 2.67 0 01.882-.784 2.452 2.452 0 011.288-.336c.532 0 1.003.117 1.414.35.42.233.742.569.966 1.008.233.429.35.933.35 1.512V670h-.98v-3.99c0-.588-.173-1.059-.518-1.414-.336-.364-.77-.546-1.302-.546-.392 0-.752.098-1.078.294a2.03 2.03 0 00-.756.784 2.444 2.444 0 00-.266 1.162V670h-.98v-6.72h.98v.98zm12.811 4.732c-.299.317-.691.588-1.176.812a3.833 3.833 0 01-1.624.336 3.25 3.25 0 01-1.68-.462 3.574 3.574 0 01-1.232-1.274 3.538 3.538 0 01-.448-1.764c0-.635.149-1.218.448-1.75a3.477 3.477 0 011.218-1.274 2.996 2.996 0 011.624-.476 3.19 3.19 0 011.638.434c.494.289.882.691 1.162 1.204.28.504.42 1.078.42 1.722 0 .177-.024.345-.07.504l-5.46-.014c.018.392.14.761.364 1.106.224.345.513.621.868.826.354.205.737.308 1.148.308.466 0 .886-.084 1.26-.252.373-.168.676-.373.91-.616l.63.63zm-.63-2.842c-.075-.607-.322-1.106-.742-1.498a2.065 2.065 0 00-1.498-.602c-.383 0-.742.098-1.078.294a2.453 2.453 0 00-.84.77 2.333 2.333 0 00-.392 1.036h4.55zm5.17-2.87h1.05v-1.26c0-.625.158-1.106.476-1.442.326-.345.774-.518 1.344-.518h.98v.91h-.91c-.29 0-.514.089-.672.266-.159.177-.238.439-.238.784v1.26h1.61v.91h-1.61V670h-.98v-5.81h-1.05v-.91zm8.124 6.86a3.332 3.332 0 01-1.722-.462 3.547 3.547 0 01-1.246-1.274 3.457 3.457 0 01-.462-1.764c0-.644.154-1.232.462-1.764a3.438 3.438 0 011.246-1.26 3.26 3.26 0 011.722-.476c.626 0 1.2.159 1.722.476a3.43 3.43 0 011.246 1.26c.308.532.462 1.12.462 1.764 0 .644-.154 1.232-.462 1.764a3.539 3.539 0 01-1.246 1.274 3.327 3.327 0 01-1.722.462zm0-.91c.439 0 .845-.112 1.218-.336a2.61 2.61 0 001.232-2.254c0-.476-.112-.91-.336-1.302a2.474 2.474 0 00-.896-.938 2.256 2.256 0 00-1.218-.35c-.438 0-.844.117-1.218.35a2.481 2.481 0 00-.896.938 2.578 2.578 0 00-.336 1.302 2.619 2.619 0 001.232 2.254c.374.224.78.336 1.218.336zm6.161-5.04c.178-.289.444-.537.798-.742.364-.205.798-.308 1.302-.308h.42v.98h-.42c-.373 0-.723.089-1.05.266a2.033 2.033 0 00-.77.77c-.186.327-.28.705-.28 1.134V670h-.98v-6.72h.98v.91zm7.698.07a2.67 2.67 0 01.882-.784 2.452 2.452 0 011.288-.336c.532 0 1.003.117 1.414.35.42.233.742.569.966 1.008.233.429.35.933.35 1.512V670h-.98v-3.99c0-.588-.173-1.059-.518-1.414-.336-.364-.77-.546-1.302-.546-.392 0-.752.098-1.078.294a2.03 2.03 0 00-.756.784 2.444 2.444 0 00-.266 1.162V670h-.98v-6.72h.98v.98zm10.081 5.88c-.626 0-1.2-.154-1.722-.462a3.539 3.539 0 01-1.246-1.274 3.457 3.457 0 01-.462-1.764c0-.644.154-1.232.462-1.764a3.43 3.43 0 011.246-1.26 3.255 3.255 0 011.722-.476 3.26 3.26 0 011.722.476c.522.308.938.728 1.246 1.26.308.532.462 1.12.462 1.764 0 .644-.154 1.232-.462 1.764a3.547 3.547 0 01-1.246 1.274 3.332 3.332 0 01-1.722.462zm0-.91c.438 0 .844-.112 1.218-.336a2.619 2.619 0 001.232-2.254c0-.476-.112-.91-.336-1.302a2.481 2.481 0 00-.896-.938 2.261 2.261 0 00-1.218-.35c-.439 0-.845.117-1.218.35a2.474 2.474 0 00-.896.938 2.578 2.578 0 00-.336 1.302 2.61 2.61 0 001.232 2.254c.373.224.779.336 1.218.336zm5.321-5.95l1.75 5.18 1.68-5.18h.84l1.68 5.18 1.75-5.18h1.05l-2.31 6.72h-.91l-1.68-5.11-1.68 5.11h-.91l-2.31-6.72h1.05zm9.176 6.16c0-.215.065-.383.196-.504a.679.679 0 01.504-.196c.214 0 .382.065.504.196.13.121.196.289.196.504a.686.686 0 01-.196.504c-.122.131-.29.196-.504.196a.679.679 0 01-.504-.196.682.682 0 01-.196-.504z"/>
        <path fill="#fff" d="M16 578c0-6.627 5.373-12 12-12h319c6.627 0 12 5.373 12 12v24c0 6.627-5.373 12-12 12H28c-6.627 0-12-5.373-12-12v-24z"/>
        <path fill="#F1F3F5" fill-rule="evenodd" d="M347 567H28c-6.075 0-11 4.925-11 11v24c0 6.075 4.925 11 11 11h319c6.075 0 11-4.925 11-11v-24c0-6.075-4.925-11-11-11zm-319-1c-6.627 0-12 5.373-12 12v24c0 6.627 5.373 12 12 12h319c6.627 0 12-5.373 12-12v-24c0-6.627-5.373-12-12-12H28z" clip-rule="evenodd" style="mix-blend-mode:multiply"/>
        <path fill="#25272E" d="M33.1 593.6c.347.44.82.82 1.42 1.14.6.307 1.293.46 2.08.46.867 0 1.547-.2 2.04-.6.507-.413.76-.913.76-1.5 0-.427-.133-.773-.4-1.04a2.717 2.717 0 00-.98-.64c-.387-.16-.927-.333-1.62-.52-.947-.28-1.707-.547-2.28-.8a4.08 4.08 0 01-1.5-1.22c-.413-.547-.62-1.273-.62-2.18 0-1 .34-1.847 1.02-2.54.68-.693 1.573-1.113 2.68-1.26v-2h2v1.94c.747.12 1.42.347 2.02.68.613.32 1.107.68 1.48 1.08l-1.5 1.5c-.307-.36-.713-.667-1.22-.92-.493-.253-1.053-.38-1.68-.38-.813 0-1.453.187-1.92.56-.453.36-.68.807-.68 1.34 0 .427.127.773.38 1.04.267.267.593.48.98.64.4.16.947.333 1.64.52.947.28 1.707.553 2.28.82.573.253 1.067.653 1.48 1.2.427.547.64 1.273.64 2.18 0 1.04-.36 1.933-1.08 2.68-.72.733-1.66 1.173-2.82 1.32v2h-2v-1.96c-.92-.107-1.733-.353-2.44-.74-.707-.387-1.26-.82-1.66-1.3l1.5-1.5zm14.506-5.7c.214-.067.514-.1.9-.1.88 0 1.687.213 2.42.64.734.413 1.314.98 1.74 1.7.427.72.64 1.507.64 2.36s-.22 1.64-.66 2.36a4.7 4.7 0 01-1.78 1.72c-.76.413-1.613.62-2.56.62-.946 0-1.8-.207-2.56-.62-.76-.427-1.36-1-1.8-1.72a4.546 4.546 0 01-.64-2.36c0-.52.094-1.053.28-1.6.2-.56.44-1.06.72-1.5l4.1-6.4h2.4l-3.2 4.9zm-2.1 4.6c0 .493.12.947.36 1.36.254.413.594.74 1.02.98.427.24.9.36 1.42.36.52 0 .994-.12 1.42-.36.427-.24.76-.567 1-.98.254-.413.38-.867.38-1.36 0-.493-.126-.947-.38-1.36a2.619 2.619 0 00-1-.98c-.426-.24-.9-.36-1.42-.36-.52 0-.993.12-1.42.36a2.77 2.77 0 00-1.02.98 2.66 2.66 0 00-.36 1.36zm9.697.5c0-.853.233-1.573.7-2.16a4.349 4.349 0 011.7-1.34 3.362 3.362 0 01-1.28-1.14c-.346-.52-.52-1.14-.52-1.86 0-.667.18-1.28.54-1.84.36-.573.873-1.027 1.54-1.36.667-.333 1.44-.5 2.32-.5.88 0 1.653.167 2.32.5.667.333 1.18.787 1.54 1.36.36.56.54 1.173.54 1.84 0 .72-.173 1.34-.52 1.86a3.36 3.36 0 01-1.28 1.14c.667.293 1.234.74 1.7 1.34.467.587.7 1.307.7 2.16 0 .773-.207 1.48-.62 2.12-.4.64-.98 1.147-1.74 1.52s-1.64.56-2.64.56c-1 0-1.88-.187-2.64-.56-.76-.373-1.346-.88-1.76-1.52-.4-.64-.6-1.347-.6-2.12zm2.8-6.3c0 .56.194 1.02.58 1.38.4.347.94.52 1.62.52.68 0 1.213-.173 1.6-.52.4-.36.6-.82.6-1.38 0-.56-.2-1.013-.6-1.36-.386-.36-.92-.54-1.6-.54s-1.22.18-1.62.54c-.386.347-.58.8-.58 1.36zm-.6 6.2c0 .667.247 1.22.74 1.66.493.427 1.18.64 2.06.64.88 0 1.567-.213 2.06-.64.494-.44.74-.993.74-1.66 0-.667-.246-1.213-.74-1.64-.493-.44-1.18-.66-2.06-.66-.88 0-1.567.22-2.06.66-.493.427-.74.973-.74 1.64zm11.972 2.08l-1.14 4.26h-1.54l.68-4.26h2zm8.115 2.22c-1.08 0-2.06-.28-2.94-.84-.88-.573-1.58-1.4-2.1-2.48-.507-1.093-.76-2.387-.76-3.88 0-1.493.253-2.78.76-3.86.52-1.093 1.22-1.92 2.1-2.48.88-.573 1.86-.86 2.94-.86 1.08 0 2.06.287 2.94.86.88.56 1.573 1.387 2.08 2.48.52 1.08.78 2.367.78 3.86 0 1.493-.26 2.787-.78 3.88-.507 1.08-1.2 1.907-2.08 2.48-.88.56-1.86.84-2.94.84zm3.6-7.2c0-1.12-.167-2.067-.5-2.84-.32-.787-.754-1.373-1.3-1.76-.547-.4-1.147-.6-1.8-.6s-1.253.2-1.8.6c-.547.387-.987.973-1.32 1.76-.32.773-.48 1.72-.48 2.84 0 1.12.16 2.073.48 2.86.333.773.773 1.36 1.32 1.76.547.387 1.147.58 1.8.58s1.253-.193 1.8-.58c.546-.4.98-.987 1.3-1.76.333-.787.5-1.74.5-2.86zm10.208 7.2c-1.08 0-2.06-.28-2.94-.84-.88-.573-1.58-1.4-2.1-2.48-.506-1.093-.76-2.387-.76-3.88 0-1.493.254-2.78.76-3.86.52-1.093 1.22-1.92 2.1-2.48.88-.573 1.86-.86 2.94-.86 1.08 0 2.06.287 2.94.86.88.56 1.574 1.387 2.08 2.48.52 1.08.78 2.367.78 3.86 0 1.493-.26 2.787-.78 3.88-.506 1.08-1.2 1.907-2.08 2.48-.88.56-1.86.84-2.94.84zm3.6-7.2c0-1.12-.166-2.067-.5-2.84-.32-.787-.753-1.373-1.3-1.76-.546-.4-1.146-.6-1.8-.6-.653 0-1.253.2-1.8.6-.546.387-.986.973-1.32 1.76-.32.773-.48 1.72-.48 2.84 0 1.12.16 2.073.48 2.86.334.773.774 1.36 1.32 1.76.547.387 1.147.58 1.8.58.654 0 1.254-.193 1.8-.58.547-.4.98-.987 1.3-1.76.334-.787.5-1.74.5-2.86zm10.209 7.2c-1.08 0-2.06-.28-2.94-.84-.88-.573-1.58-1.4-2.1-2.48-.507-1.093-.76-2.387-.76-3.88 0-1.493.253-2.78.76-3.86.52-1.093 1.22-1.92 2.1-2.48.88-.573 1.86-.86 2.94-.86 1.08 0 2.06.287 2.94.86.88.56 1.573 1.387 2.08 2.48.52 1.08.78 2.367.78 3.86 0 1.493-.26 2.787-.78 3.88-.507 1.08-1.2 1.907-2.08 2.48-.88.56-1.86.84-2.94.84zm3.6-7.2c0-1.12-.167-2.067-.5-2.84-.32-.787-.753-1.373-1.3-1.76-.547-.4-1.147-.6-1.8-.6s-1.253.2-1.8.6c-.547.387-.987.973-1.32 1.76-.32.773-.48 1.72-.48 2.84 0 1.12.16 2.073.48 2.86.333.773.773 1.36 1.32 1.76.547.387 1.147.58 1.8.58s1.253-.193 1.8-.58c.547-.4.98-.987 1.3-1.76.333-.787.5-1.74.5-2.86z"/>
      </g>
    </g>
    <g>
      <path fill="#000" fill-rule="evenodd" d="M121 800.5a2.5 2.5 0 012.5-2.5h129a2.5 2.5 0 110 5h-129a2.5 2.5 0 01-2.5-2.5z" clip-rule="evenodd"/>
    </g>
  </g>
  <defs>
    <filter id="filter0_b" width="407" height="120" x="-16" y="-16" color-interpolation-filters="sRGB" filterUnits="userSpaceOnUse">
      <feFlood flood-opacity="0" result="BackgroundImageFix"/>
      <feGaussianBlur in="BackgroundImage" stdDeviation="8"/>
      <feComposite in2="SourceAlpha" operator="in" result="effect1_backgroundBlur"/>
      <feBlend in="SourceGraphic" in2="effect1_backgroundBlur" result="shape"/>
    </filter>
    <filter id="filter1_d" width="543" height="446" x="-84" y="450" color-interpolation-filters="sRGB" filterUnits="userSpaceOnUse">
      <feFlood flood-opacity="0" result="BackgroundImageFix"/>
      <feColorMatrix in="SourceAlpha" values="0 0 0 0 0 0 0 0 0 0 0 0 0 0 0 0 0 0 127 0"/>
      <feMorphology in="SourceAlpha" operator="dilate" radius="4" result="effect1_dropShadow"/>
      <feOffset/>
      <feGaussianBlur stdDeviation="40"/>
      <feColorMatrix values="0 0 0 0 0.4056 0 0 0 0 0.500104 0 0 0 0 0.52 0 0 0 0.04 0"/>
      <feBlend in2="BackgroundImageFix" mode="multiply" result="effect1_dropShadow"/>
      <feBlend in="SourceGraphic" in2="effect1_dropShadow" result="shape"/>
    </filter>
    <linearGradient id="paint0_linear" x1="111.5" x2="207.708" y1="113.817" y2="598.993" gradientUnits="userSpaceOnUse">
      <stop stop-color="#E4F0F0" stop-opacity="0"/>
      <stop offset="1" stop-color="#E4F0F0"/>
    </linearGradient>
    <clipPath id="clip0">
      <path fill="#fff" d="M0 0h375v812H0z"/>
    </clipPath>
  </defs>
</svg>
