<svg xmlns="http://www.w3.org/2000/svg" xmlns:xlink="http://www.w3.org/1999/xlink" width="375" height="812" fill="none" viewBox="0 0 375 812">
  <g clip-path="url(#clip0)">
    <path fill="#fff" d="M0 0h375v812H0z"/>
    <path fill="#619EFF" d="M184.141 222.332a28.91 28.91 0 003.372-2.968 1.974 1.974 0 00.542-1.579 1.94 1.94 0 00-.857-1.412l-6.08-4.042a2.177 2.177 0 00-3.34 1.389c-.094.469-.03.955.181 1.383l3.22 6.561a1.91 1.91 0 001.294 1.027 1.958 1.958 0 001.668-.359z"/>
    <path fill="#A9C0C4" d="M45.973 91.69a28.853 28.853 0 00-3.303 3.045 1.975 1.975 0 00-.506 1.591 1.938 1.938 0 00.89 1.391l6.171 3.901a2.178 2.178 0 003.307-1.465c.083-.47.008-.955-.213-1.378l-3.37-6.486a1.912 1.912 0 00-1.317-.996 1.953 1.953 0 00-1.66.397z"/>
    <path fill="#FFC499" d="M92.303 346.571a28.816 28.816 0 00-2.805 3.509 1.97 1.97 0 00-.26 1.649 1.93 1.93 0 001.09 1.241l6.69 2.924a2.185 2.185 0 003.047-1.948 2.162 2.162 0 00-.418-1.33l-4.311-5.903a1.91 1.91 0 00-1.453-.785 1.949 1.949 0 00-1.58.643z"/>
    <path fill="#FF8086" d="M18.935 306.052a28.883 28.883 0 00-2.804 3.508 1.98 1.98 0 00-.26 1.65 1.945 1.945 0 001.09 1.241l6.69 2.923a2.18 2.18 0 003.048-1.948 2.165 2.165 0 00-.42-1.33l-4.31-5.902a1.927 1.927 0 00-1.453-.786 1.963 1.963 0 00-1.58.644z"/>
    <path fill="#4FBDB7" d="M193.935 38.052a28.908 28.908 0 00-2.804 3.508 1.97 1.97 0 00-.26 1.65 1.941 1.941 0 001.089 1.24l6.69 2.924a2.176 2.176 0 002.57-.636 2.18 2.18 0 00.478-1.312 2.165 2.165 0 00-.418-1.33l-4.312-5.902a1.903 1.903 0 00-1.452-.786 1.954 1.954 0 00-1.581.644z"/>
    <path fill="#FF8086" d="M67.897 245.052a28.83 28.83 0 002.064 3.99 1.974 1.974 0 001.4.909 1.942 1.942 0 001.577-.491l5.394-4.921a2.185 2.185 0 00-.54-3.577 2.161 2.161 0 00-1.385-.158l-7.146 1.536a1.909 1.909 0 00-1.308 1.007 1.95 1.95 0 00-.056 1.705zM142.442 106.789a28.866 28.866 0 00-.739-4.43 1.988 1.988 0 00-.384-.765 1.989 1.989 0 00-.671-.53 1.942 1.942 0 00-1.651-.017l-6.643 3.029a2.181 2.181 0 00-.584 3.57c.348.327.794.529 1.269.576l7.273.731a1.92 1.92 0 001.554-.557 1.963 1.963 0 00.576-1.607z"/>
    <path fill="#619EFF" d="M309.745 153.859a28.83 28.83 0 00-2.442-3.769 1.977 1.977 0 00-1.483-.768 1.935 1.935 0 00-1.522.642l-4.887 5.423c-.32.355-.513.806-.551 1.283a2.176 2.176 0 002.83 2.247l6.962-2.225a1.912 1.912 0 001.204-1.13 1.953 1.953 0 00-.111-1.703zM203.771 289.335a28.78 28.78 0 00.089 4.491 1.975 1.975 0 00.856 1.434 1.946 1.946 0 001.631.257l7.012-2.034a2.185 2.185 0 001.096-3.447 2.165 2.165 0 00-1.173-.754l-7.089-1.778a1.918 1.918 0 00-1.619.325 1.953 1.953 0 00-.803 1.506zM93.831 775.949c.122-1.495.127-2.997.016-4.492a1.977 1.977 0 00-.822-1.454 1.948 1.948 0 00-1.625-.294l-7.058 1.869a2.177 2.177 0 00-1.617 2.096 2.164 2.164 0 001.596 2.106l7.046 1.943a1.916 1.916 0 001.626-.288 1.948 1.948 0 00.838-1.486z"/>
    <path fill="#FFC499" d="M189.809 137.797a28.816 28.816 0 003.618-2.663 1.962 1.962 0 00.677-1.526 1.926 1.926 0 00-.731-1.48l-5.705-4.556a2.186 2.186 0 00-2.647-.051 2.178 2.178 0 00-.741 2.537l2.636 6.817a1.927 1.927 0 001.2 1.135 1.95 1.95 0 001.693-.213z"/>
    <path fill="#FF8086" d="M121.009 278.795a28.833 28.833 0 00-.961-4.388 1.98 1.98 0 00-1.118-1.24 1.947 1.947 0 00-1.65.065l-6.483 3.358a2.174 2.174 0 00-1.123 2.397c.101.468.354.889.718 1.198.364.309.82.489 1.297.511l7.3.366a1.907 1.907 0 001.525-.634 1.959 1.959 0 00.495-1.633zM209.973 758.154a28.763 28.763 0 00-.96-4.388 1.982 1.982 0 00-1.118-1.24 1.93 1.93 0 00-1.65.066l-6.483 3.357a2.177 2.177 0 00-1.124 2.397c.102.468.355.889.719 1.198.364.309.82.489 1.297.512l7.3.365a1.907 1.907 0 001.524-.634 1.944 1.944 0 00.495-1.633z"/>
    <path fill="#4FBDB7" d="M98.547 117.209a28.84 28.84 0 00-3.867 2.285 1.983 1.983 0 00-.829 1.45 1.944 1.944 0 00.578 1.546l5.217 5.108a2.177 2.177 0 003.622-2.131l-1.936-7.048a1.914 1.914 0 00-1.079-1.25 1.95 1.95 0 00-1.706.04z"/>
    <path fill="#FF8086" d="M73.588 353.996a28.767 28.767 0 00-3.596-2.692 1.975 1.975 0 00-1.657-.207 1.94 1.94 0 00-1.205 1.128l-2.71 6.78a2.184 2.184 0 002.044 2.984c.478-.004.94-.166 1.316-.461l5.762-4.496a1.914 1.914 0 00.74-1.477 1.953 1.953 0 00-.694-1.559z"/>
    <path fill="#4FBDB7" d="M135.995 204.558a28.897 28.897 0 00-4.333-1.185 1.97 1.97 0 00-2.138 1.082c-.122.258-.186.54-.187.825l-.033 7.301a2.177 2.177 0 004.051 1.115l3.711-6.297a1.907 1.907 0 00.146-1.645 1.948 1.948 0 00-1.217-1.196z"/>
    <path fill="#A9C0C4" d="M36.002 259.546a28.77 28.77 0 00-4.332-1.184 1.96 1.96 0 00-1.618.415 1.935 1.935 0 00-.707 1.492l-.033 7.301a2.176 2.176 0 001.602 2.107 2.166 2.166 0 002.45-.992l3.71-6.298a1.903 1.903 0 00.145-1.645 1.951 1.951 0 00-1.217-1.196z"/>
    <path fill="#FFC499" d="M169.284 322.999a28.91 28.91 0 00-1.636-4.184 1.983 1.983 0 00-1.299-1.049 1.928 1.928 0 00-1.619.323l-5.877 4.332a2.179 2.179 0 001.524 3.916l7.267-.783a1.906 1.906 0 001.407-.865 1.948 1.948 0 00.233-1.69z"/>
    <path fill="#FF8086" d="M224.268 363.026a28.853 28.853 0 00-1.636-4.183 1.97 1.97 0 00-2.144-1.069c-.28.055-.544.172-.774.342l-5.877 4.332a2.18 2.18 0 00.164 3.614c.408.248.886.354 1.36.302l7.268-.783a1.91 1.91 0 001.406-.865 1.958 1.958 0 00.233-1.69zM47.49 190.324a28.877 28.877 0 00-.053 4.492 1.971 1.971 0 001.586 1.795c.28.053.57.044.846-.027l7.073-1.81a2.178 2.178 0 00.056-4.202l-7.03-2.002a1.915 1.915 0 00-1.628.275 1.953 1.953 0 00-.85 1.479z"/>
    <path fill="#619EFF" d="M153.281 195.672a28.91 28.91 0 00-3.372 2.968 1.974 1.974 0 00-.543 1.579 1.942 1.942 0 00.858 1.412l6.08 4.041a2.172 2.172 0 002.641-.179 2.172 2.172 0 00.518-2.592l-3.22-6.561a1.91 1.91 0 00-1.294-1.027 1.958 1.958 0 00-1.668.359z"/>
    <path fill="#FFC499" d="M89.921 324.514c-1.2.9-2.327 1.893-3.372 2.968a1.975 1.975 0 00-.542 1.579 1.933 1.933 0 00.857 1.411l6.08 4.042a2.182 2.182 0 003.34-1.389c.094-.468.03-.954-.18-1.382l-3.22-6.562a1.91 1.91 0 00-1.294-1.026 1.958 1.958 0 00-1.669.359z"/>
    <path fill="#4FBDB7" d="M143.486 379.954a28.846 28.846 0 002.805-3.508 1.967 1.967 0 00-.146-2.392 1.95 1.95 0 00-.683-.499l-6.691-2.923a2.183 2.183 0 00-3.047 1.948c-.011.478.136.945.418 1.33l4.311 5.902a1.916 1.916 0 001.453.786 1.95 1.95 0 001.58-.644z"/>
    <path fill="#FF8086" d="M55.525 33.954a28.862 28.862 0 00-2.064-3.99 1.976 1.976 0 00-1.4-.909 1.94 1.94 0 00-1.578.49l-5.393 4.922a2.174 2.174 0 00-.464 2.606 2.176 2.176 0 002.389 1.13l7.145-1.537a1.913 1.913 0 001.31-1.007 1.954 1.954 0 00.055-1.705zM194.979 311.216c.132 1.494.379 2.976.74 4.431a1.97 1.97 0 001.055 1.295 1.942 1.942 0 001.651.017l6.643-3.029a2.175 2.175 0 001.242-2.338 2.173 2.173 0 00-1.927-1.808l-7.273-.731a1.92 1.92 0 00-1.555.557 1.962 1.962 0 00-.576 1.606z"/>
    <path fill="#619EFF" d="M27.677 264.147a28.875 28.875 0 002.442 3.769 1.978 1.978 0 001.483.768 1.946 1.946 0 001.521-.642l4.888-5.423a2.174 2.174 0 00.209-2.639 2.175 2.175 0 00-2.488-.891l-6.962 2.225a1.9 1.9 0 00-1.205 1.13 1.954 1.954 0 00.111 1.703z"/>
    <path fill="#4FBDB7" d="M86.458 221.725a28.85 28.85 0 00-.023 4.492 1.978 1.978 0 00.82 1.455 1.948 1.948 0 001.624.297l7.06-1.858a2.176 2.176 0 001.621-2.093 2.169 2.169 0 00-1.592-2.109l-7.043-1.954a1.913 1.913 0 00-1.627.285 1.948 1.948 0 00-.84 1.485z"/>
    <path fill="#A9C0C4" d="M56 164.331a28.837 28.837 0 00-.024 4.491 1.974 1.974 0 00.82 1.455 1.934 1.934 0 001.624.297l7.061-1.857a2.18 2.18 0 001.182-3.419 2.163 2.163 0 00-1.154-.783l-7.043-1.955a1.916 1.916 0 00-1.626.285 1.959 1.959 0 00-.84 1.486z"/>
    <path fill="#619EFF" d="M133.651 128.671a28.903 28.903 0 00-.089-4.491 1.97 1.97 0 00-1.642-1.745 1.947 1.947 0 00-.845.054l-7.012 2.034a2.176 2.176 0 00.077 4.201l7.089 1.778a1.918 1.918 0 001.619-.326 1.954 1.954 0 00.803-1.505z"/>
    <path fill="#FFC499" d="M167.605 13.824a28.847 28.847 0 00-3.618 2.663 1.984 1.984 0 00-.677 1.526 1.93 1.93 0 00.731 1.48l5.705 4.556a2.175 2.175 0 002.647.05 2.174 2.174 0 00.741-2.536l-2.636-6.817a1.923 1.923 0 00-1.2-1.135 1.957 1.957 0 00-1.693.213zM147.613 280.207a28.816 28.816 0 00-3.618 2.663 1.968 1.968 0 00-.678 1.526 1.942 1.942 0 00.732 1.48l5.705 4.556a2.181 2.181 0 003.448-1.093 2.166 2.166 0 00-.06-1.393l-2.637-6.817a1.904 1.904 0 00-1.199-1.135 1.95 1.95 0 00-1.693.213z"/>
    <path fill="#FF8086" d="M216.413 139.211a28.86 28.86 0 00.961 4.388 1.966 1.966 0 001.95 1.392 1.96 1.96 0 00.818-.217l6.483-3.358a2.179 2.179 0 00-.892-4.107l-7.3-.365a1.907 1.907 0 00-1.525.634 1.961 1.961 0 00-.495 1.633zM80.644 367.861a28.831 28.831 0 00-3.618 2.663 1.97 1.97 0 00-.478 2.348c.127.256.308.481.532.659l5.705 4.555a2.178 2.178 0 003.388-2.486l-2.636-6.817a1.92 1.92 0 00-1.2-1.135 1.96 1.96 0 00-1.693.213z"/>
    <path fill="#4FBDB7" d="M201.427 213.446c1.412.507 2.86.903 4.333 1.185a1.956 1.956 0 002.325-1.908l.033-7.301a2.18 2.18 0 00-4.052-1.114l-3.71 6.297a1.914 1.914 0 00-.146 1.645 1.948 1.948 0 001.217 1.196z"/>
    <path fill="#619EFF" d="M21.93 624.58a28.906 28.906 0 003.334 3.009c.23.175.495.298.777.36a1.956 1.956 0 002.158-1.016l3.317-6.504a2.175 2.175 0 00-.481-2.603 2.175 2.175 0 00-2.634-.217l-6.149 3.952a1.9 1.9 0 00-.87 1.403 1.95 1.95 0 00.547 1.616zM123.168 516.22a28.917 28.917 0 00-1.249-4.315 1.966 1.966 0 00-2.038-1.259c-.284.03-.557.122-.802.27l-6.247 3.779a2.177 2.177 0 00-.962 2.466 2.172 2.172 0 002.124 1.573l7.308-.118a1.911 1.911 0 001.48-.733 1.954 1.954 0 00.386-1.663zM48.95 500.417a28.85 28.85 0 00-4.025 1.994 1.98 1.98 0 00-.932 1.385 1.938 1.938 0 00.462 1.585l4.828 5.478c.316.358.741.602 1.21.694a2.179 2.179 0 002.374-1.171c.213-.429.277-.914.184-1.382l-1.412-7.172a1.91 1.91 0 00-.984-1.326 1.957 1.957 0 00-1.704-.085zM278.782 501.209a28.89 28.89 0 003.618-2.663 1.974 1.974 0 00.677-1.526 1.926 1.926 0 00-.731-1.48l-5.705-4.556a2.186 2.186 0 00-2.647-.051 2.18 2.18 0 00-.801 1.144 2.16 2.16 0 00.06 1.393l2.636 6.817a1.92 1.92 0 001.2 1.135 1.95 1.95 0 001.693-.213zM214.167 547.959c.18 1.488.476 2.961.885 4.404a1.978 1.978 0 001.096 1.259 1.94 1.94 0 001.651-.037l6.54-3.244a2.182 2.182 0 00.467-3.587 2.157 2.157 0 00-1.287-.535l-7.293-.492a1.91 1.91 0 00-1.535.607 1.957 1.957 0 00-.524 1.625zM-9.86 348.209c1.423.472 2.881.832 4.36 1.076a1.958 1.958 0 001.607-.455 1.941 1.941 0 00.67-1.509l-.15-7.3a2.173 2.173 0 00-1.653-2.066 2.167 2.167 0 00-2.424 1.053l-3.552 6.388a1.907 1.907 0 00-.105 1.648 1.95 1.95 0 001.246 1.165zM274.417 326.165a28.91 28.91 0 00-1.636-4.184 1.983 1.983 0 00-1.299-1.049 1.928 1.928 0 00-1.619.323l-5.877 4.332a2.179 2.179 0 001.524 3.916l7.267-.783a1.906 1.906 0 001.407-.865 1.948 1.948 0 00.233-1.69zM267.944 450.203a28.842 28.842 0 00-1.148-4.343 1.978 1.978 0 00-1.17-1.191 1.947 1.947 0 00-1.646.136l-6.333 3.633a2.17 2.17 0 00-.923 1.047 2.18 2.18 0 00.672 2.561c.378.293.841.453 1.318.456l7.309.053a1.923 1.923 0 001.496-.699 1.945 1.945 0 00.425-1.653zM375.487 136.954a28.934 28.934 0 002.804-3.508 1.975 1.975 0 00.26-1.65 1.94 1.94 0 00-1.089-1.241l-6.69-2.923a2.175 2.175 0 00-2.57.636 2.178 2.178 0 00-.06 2.642l4.312 5.902a1.903 1.903 0 001.452.786 1.95 1.95 0 001.581-.644zM347.283 69.797a28.887 28.887 0 00-4.361-1.077 1.974 1.974 0 00-1.607.456 1.95 1.95 0 00-.67 1.51l.15 7.299a2.172 2.172 0 001.654 2.066 2.166 2.166 0 002.424-1.053l3.552-6.388a1.915 1.915 0 00.104-1.648 1.952 1.952 0 00-1.246-1.165z"/>
    <path fill="#FFC499" d="M168.138 95.005a28.884 28.884 0 001.636 4.184 1.978 1.978 0 001.299 1.05 1.928 1.928 0 001.619-.324l5.877-4.332a2.177 2.177 0 00.734-2.543 2.166 2.166 0 00-2.258-1.373l-7.267.783a1.907 1.907 0 00-1.407.865 1.963 1.963 0 00-.233 1.69z"/>
    <g>
      <path fill="#FFC499" d="M247.501 93.49a28.905 28.905 0 003.371-2.968 1.961 1.961 0 00.543-1.58 1.938 1.938 0 00-.857-1.41l-6.081-4.042a2.173 2.173 0 00-2.64.18 2.164 2.164 0 00-.518 2.591l3.219 6.561a1.92 1.92 0 001.294 1.027 1.953 1.953 0 001.669-.36zM141.935 609.05a28.934 28.934 0 00-2.804 3.508 1.975 1.975 0 00-.26 1.65 1.947 1.947 0 001.089 1.241l6.69 2.923a2.175 2.175 0 002.57-.636 2.178 2.178 0 00.06-2.642l-4.312-5.902a1.903 1.903 0 00-1.452-.786 1.964 1.964 0 00-1.581.644zM232.01 595.904a28.764 28.764 0 003.055 3.293c.213.195.466.341.741.428.275.086.566.111.852.073a1.937 1.937 0 001.388-.894l3.881-6.184a2.18 2.18 0 00-1.476-3.303 2.162 2.162 0 00-1.377.218l-6.475 3.391a1.903 1.903 0 00-.992 1.32 1.944 1.944 0 00.403 1.658zM169.817 404.18a28.806 28.806 0 003.617-2.663 1.967 1.967 0 00.478-2.348 1.941 1.941 0 00-.531-.659l-5.705-4.555a2.186 2.186 0 00-2.647-.051 2.167 2.167 0 00-.741 2.537l2.636 6.817a1.915 1.915 0 001.2 1.135 1.961 1.961 0 001.693-.213zM353.783 395.852a29.008 29.008 0 003.971-2.099 1.966 1.966 0 00.82-2.252 1.94 1.94 0 00-.428-.73l-4.969-5.349a2.176 2.176 0 00-2.61-.441 2.165 2.165 0 00-1.108 2.399l1.599 7.132a1.923 1.923 0 001.019 1.299 1.967 1.967 0 001.706.041zM294.07 667.25c.179 1.488.475 2.961.884 4.404a1.978 1.978 0 001.096 1.259 1.941 1.941 0 001.651-.037l6.54-3.244a2.178 2.178 0 00-.82-4.122l-7.293-.492a1.912 1.912 0 00-1.535.607 1.956 1.956 0 00-.523 1.625zM354.815 240.529a28.66 28.66 0 003.803 2.39c.256.134.538.209.827.221a1.954 1.954 0 001.533-.637 1.95 1.95 0 00.418-.735l2.148-6.978a2.175 2.175 0 00-.923-2.481 2.163 2.163 0 00-2.631.24l-5.377 4.951a1.909 1.909 0 00-.616 1.532 1.956 1.956 0 00.818 1.497zM245.119 71.433a28.82 28.82 0 002.805-3.509 1.983 1.983 0 00.26-1.65 1.94 1.94 0 00-1.09-1.24l-6.69-2.924a2.173 2.173 0 00-2.569.636 2.172 2.172 0 00-.06 2.642l4.311 5.902a1.916 1.916 0 001.453.786 1.955 1.955 0 001.58-.643z"/>
    </g>
    <path fill="#FF8086" d="M113.154 54.978a28.893 28.893 0 001.636 4.183 1.967 1.967 0 002.144 1.069c.28-.056.544-.172.774-.342l5.877-4.332a2.177 2.177 0 00.734-2.543 2.176 2.176 0 00-2.259-1.373l-7.267.782a1.913 1.913 0 00-1.406.866 1.949 1.949 0 00-.233 1.69z"/>
    <path fill="#619EFF" d="M63.005 91.841a28.879 28.879 0 001.636 4.184 1.976 1.976 0 001.299 1.05 1.939 1.939 0 001.62-.324l5.876-4.332a2.174 2.174 0 00.734-2.543 2.165 2.165 0 00-2.258-1.373l-7.267.783a1.911 1.911 0 00-1.407.865 1.955 1.955 0 00-.233 1.69z"/>
    <g>
      <path fill="#A9C0C4" d="M23.453 520.835a28.846 28.846 0 001.14 4.344 1.972 1.972 0 002.006 1.311 1.94 1.94 0 00.808-.251l6.34-3.622a2.173 2.173 0 001.023-2.44 2.175 2.175 0 00-2.084-1.626l-7.308-.065a1.908 1.908 0 00-1.498.697 1.954 1.954 0 00-.427 1.652zM235.416 605.316a28.863 28.863 0 003.144-3.208 1.967 1.967 0 00.096-2.394 1.95 1.95 0 00-.63-.565l-6.361-3.584a2.176 2.176 0 00-2.62.374 2.173 2.173 0 00-.326 2.622l3.694 6.307a1.909 1.909 0 001.366.929 1.953 1.953 0 001.637-.481zM250.72 197.039c.124-1.495.132-2.997.023-4.492a1.969 1.969 0 00-1.599-1.785 1.945 1.945 0 00-.845.033l-7.061 1.857a2.18 2.18 0 00-1.181 3.419c.287.382.693.657 1.153.783l7.043 1.955a1.915 1.915 0 001.627-.285 1.963 1.963 0 00.84-1.485zM281.423 253.673c.124-1.494.132-2.996.023-4.491a1.969 1.969 0 00-1.599-1.785 1.944 1.944 0 00-.845.032l-7.061 1.858a2.177 2.177 0 00-.028 4.202l7.043 1.955a1.914 1.914 0 001.626-.285 1.966 1.966 0 00.841-1.486zM148.599 662.365a28.848 28.848 0 003.978-2.086 1.964 1.964 0 00.827-2.248 1.957 1.957 0 00-.426-.732l-4.952-5.365a2.175 2.175 0 00-3.724 1.945l1.576 7.137c.061.279.184.541.359.767.176.225.4.409.656.537a1.954 1.954 0 001.706.045zM368.862 648.583a28.91 28.91 0 00-1.636-4.184 1.983 1.983 0 00-1.299-1.049 1.928 1.928 0 00-1.619.323l-5.877 4.332a2.172 2.172 0 00-.797 1.146 2.185 2.185 0 00.96 2.467c.409.248.887.355 1.361.303l7.267-.783a1.915 1.915 0 001.407-.865 1.952 1.952 0 00.233-1.69zM291.449 326.314a28.855 28.855 0 003.303-3.045 1.963 1.963 0 00-.383-2.983l-6.172-3.9a2.178 2.178 0 00-3.094 2.843l3.37 6.486a1.911 1.911 0 001.317.996 1.958 1.958 0 001.659-.397zM238.875 300.795a28.845 28.845 0 003.868-2.285 1.985 1.985 0 00.828-1.45 1.962 1.962 0 00-.116-.838 1.953 1.953 0 00-.462-.709l-5.217-5.107a2.179 2.179 0 00-3.541.739c-.18.443-.208.932-.081 1.392l1.936 7.048a1.914 1.914 0 001.079 1.25 1.95 1.95 0 001.706-.04zM301.42 158.458c1.411.507 2.86.903 4.332 1.184a1.963 1.963 0 002.138-1.082c.122-.258.186-.539.187-.825l.033-7.301a2.177 2.177 0 00-4.051-1.115l-3.711 6.297a1.917 1.917 0 00-.146 1.646 1.965 1.965 0 001.218 1.196z"/>
    </g>
    <g>
      <path fill="#FF8086" d="M171.898 455.052a28.746 28.746 0 002.064 3.99 1.973 1.973 0 001.401.909 1.938 1.938 0 001.576-.491l5.394-4.921a2.176 2.176 0 00.464-2.606 2.176 2.176 0 00-1.004-.971 2.16 2.16 0 00-1.385-.158l-7.146 1.536a1.912 1.912 0 00-1.308 1.007 1.949 1.949 0 00-.056 1.705zM281.897 384.052a28.746 28.746 0 002.064 3.99 1.973 1.973 0 001.401.909 1.95 1.95 0 001.577-.491l5.393-4.921a2.176 2.176 0 00.464-2.606 2.176 2.176 0 00-1.004-.971 2.16 2.16 0 00-1.385-.158l-7.146 1.536a1.912 1.912 0 00-1.308 1.007 1.949 1.949 0 00-.056 1.705zM99.935 711.052a28.883 28.883 0 00-2.804 3.508 1.98 1.98 0 00-.26 1.65 1.945 1.945 0 001.09 1.241l6.689 2.923a2.175 2.175 0 002.57-.636 2.178 2.178 0 00.06-2.642l-4.312-5.902a1.892 1.892 0 00-.636-.557 1.929 1.929 0 00-.816-.229 1.964 1.964 0 00-1.58.644zM84.273 422.143a28.842 28.842 0 004.17 1.67 1.971 1.971 0 002.247-.832c.15-.243.246-.515.28-.799l.862-7.25a2.176 2.176 0 00-3.899-1.568l-4.402 5.835a1.907 1.907 0 00-.332 1.618 1.957 1.957 0 001.074 1.326zM230.196 462.309a28.905 28.905 0 003.617-2.663 1.967 1.967 0 00.478-2.348 1.941 1.941 0 00-.531-.659l-5.706-4.555a2.178 2.178 0 00-3.387 2.486l2.636 6.817a1.923 1.923 0 001.2 1.134 1.961 1.961 0 001.693-.212zM351.26 246.855a28.777 28.777 0 00-4.352 1.111 1.982 1.982 0 00-1.201 1.16 1.945 1.945 0 00.123 1.647l3.579 6.363a2.173 2.173 0 002.434 1.04 2.169 2.169 0 001.639-2.073l.114-7.308a1.916 1.916 0 00-.686-1.502 1.95 1.95 0 00-1.65-.438zM164.305 537.684a28.71 28.71 0 00-.96-4.388 1.97 1.97 0 00-1.95-1.392 1.927 1.927 0 00-.818.217l-6.483 3.358a2.174 2.174 0 00-1.124 2.396c.102.468.355.889.719 1.198.364.309.82.489 1.297.512l7.3.366a1.907 1.907 0 001.525-.634 1.95 1.95 0 00.494-1.633zM59.322 622.814a28.854 28.854 0 00-.432 4.471 1.972 1.972 0 00.684 1.523 1.938 1.938 0 001.59.444l7.201-1.206a2.178 2.178 0 00.411-4.182l-6.836-2.588a1.914 1.914 0 00-1.645.136 1.942 1.942 0 00-.973 1.402zM256.778 50.143a28.837 28.837 0 003.617-2.663 1.974 1.974 0 00.678-1.526 1.938 1.938 0 00-.731-1.48l-5.706-4.556a2.182 2.182 0 00-3.448 1.093 2.16 2.16 0 00.061 1.393l2.636 6.816a1.915 1.915 0 001.2 1.135 1.955 1.955 0 001.693-.212zM280.021 446.18a29.006 29.006 0 00-4.487-.208 1.962 1.962 0 00-1.85 1.524 1.963 1.963 0 00-.002.846l1.566 7.132a2.184 2.184 0 003.367 1.321c.393-.272.685-.666.83-1.12l2.243-6.957c.088-.271.114-.559.077-.843a1.928 1.928 0 00-.295-.794 1.953 1.953 0 00-1.449-.901zM18.747 420.997a28.88 28.88 0 00-4.487-.208 1.97 1.97 0 00-1.487.759 1.935 1.935 0 00-.364 1.611l1.566 7.131a2.179 2.179 0 003.367 1.321c.393-.272.684-.665.83-1.12l2.242-6.956a1.912 1.912 0 00-.217-1.637 1.953 1.953 0 00-1.45-.901zM335.08 569.62c1.36.633 2.766 1.16 4.207 1.574a1.976 1.976 0 001.649-.266 1.937 1.937 0 00.84-1.421l.698-7.268a2.165 2.165 0 00-.321-1.358 2.175 2.175 0 00-3.612-.121l-4.269 5.933a1.908 1.908 0 00-.295 1.625 1.958 1.958 0 001.103 1.302zM79.112 486.264a28.883 28.883 0 00-3.53 2.777 1.982 1.982 0 00-.63 1.547 1.94 1.94 0 00.778 1.456l5.848 4.373a2.178 2.178 0 003.307-2.593l-2.852-6.729a1.913 1.913 0 00-1.235-1.097 1.953 1.953 0 00-1.686.266zM318.486 111.954a28.846 28.846 0 002.805-3.508 1.967 1.967 0 00-.146-2.392 1.95 1.95 0 00-.683-.499l-6.691-2.923a2.183 2.183 0 00-3.047 1.948c-.011.478.136.945.418 1.33l4.311 5.902a1.916 1.916 0 001.453.786 1.95 1.95 0 001.58-.644zM269.28 173.713a28.894 28.894 0 00-2.063-3.989 1.977 1.977 0 00-1.401-.909 1.939 1.939 0 00-1.577.49l-5.393 4.922a2.182 2.182 0 00.539 3.576c.432.205.919.26 1.385.159l7.146-1.536a1.906 1.906 0 001.309-1.007 1.951 1.951 0 00.055-1.706zM375.524 402.954a28.746 28.746 0 00-2.064-3.99 1.973 1.973 0 00-1.401-.909 1.94 1.94 0 00-1.577.49l-5.393 4.922a2.176 2.176 0 00-.464 2.606c.219.425.572.766 1.004.971.431.204.918.26 1.385.158l7.145-1.536a1.914 1.914 0 001.309-1.007 1.952 1.952 0 00.056-1.705zM253.149-4.137a28.836 28.836 0 00-4.17-1.67 1.975 1.975 0 00-1.654.229 1.938 1.938 0 00-.872 1.402l-.863 7.25a2.177 2.177 0 003.898 1.568l4.403-5.835a1.912 1.912 0 00.331-1.618 1.954 1.954 0 00-1.073-1.327zM263.834 64.01c1.127.99 2.329 1.89 3.596 2.692a1.969 1.969 0 002.385-.222c.209-.195.372-.434.477-.7l2.71-6.779a2.178 2.178 0 00-3.36-2.523l-5.762 4.496a1.907 1.907 0 00-.739 1.477 1.953 1.953 0 00.693 1.559zM289.932 227.682c.134-1.494.152-2.996.053-4.492a1.97 1.97 0 00-1.586-1.795 1.933 1.933 0 00-.846.027l-7.073 1.81a2.179 2.179 0 00-.056 4.202l7.029 2.001a1.902 1.902 0 001.629-.274 1.956 1.956 0 00.85-1.479z"/>
    </g>
    <path fill="url(#paint0_linear)" d="M0 146h375v666H0z"/>
    <g>
      <path fill="#000" fill-rule="evenodd" d="M121 800.5a2.5 2.5 0 012.5-2.5h129a2.5 2.5 0 110 5h-129a2.5 2.5 0 01-2.5-2.5z" clip-rule="evenodd"/>
    </g>
    <g>
      <g filter="url(#filter0_d)">
        <circle cx="331" cy="736" r="28" fill="#25272E"/>
      </g>
      <path fill="#fff" d="M344.525 737.022c-.624.546-7.781 7.782-7.781 7.782-.887.775-2.275.146-2.275-1.032v-5.274h-14.548c-1.349 0-2.442-1.123-2.442-2.508 0-1.386 1.093-2.509 2.442-2.509h14.548v-5.273c0-1.178 1.388-1.808 2.275-1.032 0 0 7.157 7.235 7.781 7.782a1.37 1.37 0 010 2.064z"/>
    </g>
    <g filter="url(#filter1_b)">
      <path fill="#fff" fill-opacity=".95" d="M0 0h375v88H0z"/>
      <path stroke="#000" d="M338.663 17.799h16.666c1.196 0 2.167.97 2.167 2.166v5.979a2.167 2.167 0 01-2.167 2.167h-16.666a2.167 2.167 0 01-2.167-2.167v-5.979c0-1.196.97-2.166 2.167-2.166z" opacity=".35"/>
      <path fill="#000" d="M358.995 20.959v3.992a2.165 2.165 0 000-3.992" opacity=".4"/>
      <path fill="#000" d="M337.996 20.628c0-.736.597-1.333 1.333-1.333h15.333c.737 0 1.334.597 1.334 1.333v4.653c0 .736-.597 1.333-1.334 1.333h-15.333a1.333 1.333 0 01-1.333-1.333v-4.653z"/>
      <path fill="#000" fill-rule="evenodd" d="M323.327 19.57c2.216 0 4.347.85 5.953 2.374.12.117.314.116.433-.004l1.156-1.164a.32.32 0 00-.003-.455c-4.215-4.032-10.864-4.032-15.079 0a.32.32 0 00-.003.455l1.156 1.164c.119.12.312.121.433.004a8.65 8.65 0 015.954-2.374zm0 3.788c1.217 0 2.391.452 3.294 1.268a.31.31 0 00.433-.006l1.155-1.165a.324.324 0 00-.005-.458 7.169 7.169 0 00-9.752 0 .32.32 0 00-.004.458l1.154 1.165a.31.31 0 00.433.006 4.912 4.912 0 013.292-1.268zm2.313 2.55a.32.32 0 01-.094.23l-1.998 2.011a.31.31 0 01-.443 0l-1.998-2.012a.315.315 0 01.01-.456 3.426 3.426 0 014.419 0c.065.058.102.14.104.226zM309.663 17.633h-1a1 1 0 00-1 .998v8.65a1 1 0 001 .998h1c.553 0 1-.447 1-.998v-8.65a.999.999 0 00-1-.998zm-5.666 2.329h1a1 1 0 011 .998v6.321a1 1 0 01-1 .998h-1a1 1 0 01-1-.998V20.96a1 1 0 011-.998zm-3.667 2.329h-1a1 1 0 00-1 .998v3.992a1 1 0 001 .998h1c.553 0 1-.447 1-.998V23.29a.999.999 0 00-1-.998zm-4.666 1.996h-1a1 1 0 00-1 .998v1.996a1 1 0 001 .998h1a1 1 0 001-.998v-1.996a1 1 0 00-1-.998z" clip-rule="evenodd"/>
      <g>
        <path fill="#000" d="M33.164 20.495v.029h1.773v-.03c0-1.076.747-1.801 1.853-1.801 1.04 0 1.801.674 1.801 1.604 0 .747-.358 1.296-1.801 2.761l-3.523 3.604v1.31h7.338V26.37H35.86v-.125l2.212-2.22c1.795-1.772 2.373-2.71 2.373-3.844 0-1.765-1.508-3.04-3.596-3.04-2.168 0-3.684 1.377-3.684 3.355zm10.613 6.357c.696 0 1.172-.498 1.172-1.157 0-.667-.476-1.157-1.172-1.157-.688 0-1.172.49-1.172 1.157 0 .659.484 1.157 1.172 1.157zm0-5.493c.696 0 1.172-.49 1.172-1.15 0-.666-.476-1.157-1.172-1.157-.688 0-1.172.49-1.172 1.157 0 .66.484 1.15 1.172 1.15zm7.083 6.877c2.527 0 4.028-2.05 4.028-5.544 0-3.508-1.523-5.552-4.028-5.552-2.512 0-4.036 2.044-4.036 5.537 0 3.509 1.502 5.56 4.036 5.56zm0-1.567c-1.34 0-2.124-1.392-2.124-3.992 0-2.578.798-3.962 2.124-3.962s2.117 1.377 2.117 3.962c0 2.6-.777 3.992-2.117 3.992zm5.962 1.304H58.8l4.519-8.958v-1.611h-7.354v1.59h5.45v.116l-4.593 8.863z"/>
      </g>
      <g>
        <path fill="#25272E" d="M351 75.5a9.5 9.5 0 009.5-9.5 9.5 9.5 0 00-9.5-9.5 9.5 9.5 0 00-9.5 9.5 9.5 9.5 0 009.5 9.5zm0 1.5c-6.075 0-11-4.925-11-11s4.925-11 11-11 11 4.925 11 11-4.925 11-11 11z"/>
        <path fill="#25272E" d="M349.81 67.573c0-2.03 2.38-2.03 2.38-3.52a1.136 1.136 0 00-.807-1.008 1.14 1.14 0 00-.453-.042 1.719 1.719 0 00-1.68 1.15l-1.75-.77a3.56 3.56 0 013.5-2.38c2.07 0 3.36 1.32 3.36 2.79 0 2.59-2.52 2.59-2.52 4.41h-1.89a2.067 2.067 0 01-.14-.63zm-.14 2.52a1.085 1.085 0 01.33-.782 1.083 1.083 0 01.79-.308 1.119 1.119 0 11-1.12 1.09z"/>
        <g>
          <path fill="#25272E" fill-rule="evenodd" d="M27.002 57.36l-8.157 7.831c-.46.44-.46 1.176 0 1.619l8.157 7.83a1.292 1.292 0 101.79-1.865l-6.832-6.559a.299.299 0 010-.433l6.833-6.56a1.293 1.293 0 00-1.79-1.864z" clip-rule="evenodd"/>
        </g>
      </g>
      <g>
        <circle cx="141.5" cy="63.5" r="2.5" fill="#03948C"/>
        <circle cx="154.5" cy="63.5" r="2.5" fill="#03948C"/>
        <circle cx="167.5" cy="63.5" r="2.5" fill="#03948C"/>
        <circle cx="180.5" cy="63.5" r="4" fill="#03948C"/>
        <circle cx="193.5" cy="63.5" r="2.5" fill="#CEE1E5"/>
        <circle cx="206.5" cy="63.5" r="2.5" fill="#CEE1E5"/>
        <circle cx="219.5" cy="63.5" r="2.5" fill="#CEE1E5"/>
        <circle cx="232.5" cy="63.5" r="2.5" fill="#CEE1E5"/>
      </g>
    </g>
    <g>
      <path fill="#000" fill-rule="evenodd" d="M121 800.5a2.5 2.5 0 012.5-2.5h129a2.5 2.5 0 110 5h-129a2.5 2.5 0 01-2.5-2.5z" clip-rule="evenodd"/>
    </g>
    <g>
      <g filter="url(#filter2_d)">
        <rect width="343" height="196" x="16" y="304" fill="#fff" rx="24"/>
        <path fill="#03948C" d="M122.201 424.1s1.4 1.7 4.3 2.1v1.8h2.6v-1.8c2.2-.5 3.8-2.1 3.8-4.2 0-4.9-7-3.8-7-6.2 0-.8.6-1.4 2.1-1.4 1.6 0 2.6 1.2 2.6 1.2l2-2s-1.4-1.5-3.5-1.8V410h-2.6v1.8c-2.3.6-3.7 2-3.7 4 0 4.9 7 3.8 7 6.2 0 .9-.7 1.6-2.3 1.6-2.1 0-3.3-1.5-3.3-1.5l-2 2zM140.048 440.44s4.32 5.28 12.72 5.28c7.68 0 12.72-5.04 12.72-11.52 0-6.48-4.8-11.28-11.76-11.28-2.88 0-4.8 1.2-4.8 1.2l.24-6h14.16v-6.72h-20.4l-1.2 19.68 5.04.72s1.92-2.64 5.52-2.64c3.6 0 5.76 2.16 5.76 5.04s-2.16 5.04-6 5.04c-4.32 0-7.2-3.6-7.2-3.6l-4.8 4.8zm42.955-1.44c-3.6 0-7.2-3.6-7.2-10.8 0-7.2 3.6-10.8 7.2-10.8s7.2 3.6 7.2 10.8c0 7.2-3.6 10.8-7.2 10.8zm0 6.72c7.68 0 14.4-6.72 14.4-17.52s-6.72-17.52-14.4-17.52c-7.68 0-14.4 6.72-14.4 17.52s6.72 17.52 14.4 17.52zm21.354-.72h19.44v-6.72h-6V411.4h-6s-1.68 3.84-6.96 4.56v4.56h5.76v17.76h-6.24V445z"/>
        <path fill="#70747D" d="M238.34 435.64l-4.8 14.72h-1.04l4.8-14.72h1.04zm2.404 4.64c.202-.309.485-.571.848-.784.373-.224.81-.336 1.312-.336.597 0 1.109.133 1.536.4.426.256.741.576.944.96.224-.384.56-.704 1.008-.96.458-.267 1.002-.4 1.632-.4.874 0 1.584.288 2.128.864.554.576.832 1.381.832 2.416V447h-1.12v-4.56c0-.715-.176-1.264-.528-1.648-.352-.395-.816-.592-1.392-.592-.374 0-.72.107-1.04.32-.32.203-.576.501-.768.896-.182.384-.272.832-.272 1.344V447h-1.12v-4.56c0-.704-.176-1.253-.528-1.648-.352-.395-.816-.592-1.392-.592-.374 0-.72.107-1.04.32-.32.203-.576.501-.768.896-.182.384-.272.832-.272 1.344V447h-1.12v-7.68h1.12v.96zm16.162 6.88a3.804 3.804 0 01-1.968-.528 4.047 4.047 0 01-1.424-1.456 3.951 3.951 0 01-.528-2.016c0-.736.176-1.408.528-2.016a3.918 3.918 0 011.424-1.44 3.716 3.716 0 011.968-.544c.714 0 1.37.181 1.968.544a3.926 3.926 0 011.424 1.44c.352.608.528 1.28.528 2.016s-.176 1.408-.528 2.016a4.056 4.056 0 01-1.424 1.456 3.81 3.81 0 01-1.968.528zm0-1.04c.501 0 .965-.128 1.392-.384a3 3 0 001.024-1.072c.256-.459.384-.96.384-1.504s-.128-1.04-.384-1.488a2.833 2.833 0 00-1.024-1.072 2.576 2.576 0 00-1.392-.4 2.57 2.57 0 00-1.392.4 2.825 2.825 0 00-1.024 1.072 2.946 2.946 0 00-.384 1.488 2.992 2.992 0 001.408 2.576c.426.256.89.384 1.392.384z"/>
        <path fill="#25272E" d="M146.748 345.6c-.64.747-1.493 1.387-2.56 1.92-1.053.52-2.233.78-3.54.78-1.4 0-2.686-.327-3.86-.98-1.16-.667-2.073-1.553-2.74-2.66-.666-1.12-1-2.34-1-3.66a6.93 6.93 0 011-3.64 7.292 7.292 0 012.74-2.66c1.174-.667 2.46-1 3.86-1 1.28 0 2.427.273 3.44.82 1.027.533 1.847 1.193 2.46 1.98l-2 2c-.426-.56-.98-1.033-1.66-1.42a4.448 4.448 0 00-2.24-.58c-.826 0-1.586.2-2.28.6-.68.4-1.22.947-1.62 1.64-.4.68-.6 1.433-.6 2.26 0 .827.2 1.587.6 2.28.4.68.94 1.22 1.62 1.62.694.4 1.454.6 2.28.6.654 0 1.247-.107 1.78-.32.547-.213.987-.473 1.32-.78v-1.7h-2.6v-2.4h5.6v5.3zm1.999-2.5c0-.92.227-1.767.68-2.54a5.085 5.085 0 011.9-1.86c.8-.467 1.673-.7 2.62-.7.947 0 1.82.233 2.62.7a4.932 4.932 0 011.88 1.86c.467.773.7 1.62.7 2.54 0 .92-.233 1.773-.7 2.56a5.137 5.137 0 01-4.5 2.54c-.947 0-1.82-.227-2.62-.68a5.302 5.302 0 01-1.9-1.86 5.044 5.044 0 01-.68-2.56zm5.2 2.6c.707 0 1.3-.247 1.78-.74s.72-1.113.72-1.86c0-.747-.24-1.367-.72-1.86-.48-.493-1.073-.74-1.78-.74-.707 0-1.3.247-1.78.74s-.72 1.113-.72 1.86c0 .747.24 1.367.72 1.86.48.493 1.073.74 1.78.74zm6.597-2.6c0-.92.226-1.767.68-2.54a5.078 5.078 0 011.9-1.86c.8-.467 1.673-.7 2.62-.7.946 0 1.82.233 2.62.7a4.94 4.94 0 011.88 1.86c.466.773.7 1.62.7 2.54 0 .92-.234 1.773-.7 2.56a5.145 5.145 0 01-1.88 1.86c-.8.453-1.674.68-2.62.68-.947 0-1.82-.227-2.62-.68a5.295 5.295 0 01-1.9-1.86 5.034 5.034 0 01-.68-2.56zm5.2 2.6c.706 0 1.3-.247 1.78-.74s.72-1.113.72-1.86c0-.747-.24-1.367-.72-1.86-.48-.493-1.074-.74-1.78-.74-.707 0-1.3.247-1.78.74s-.72 1.113-.72 1.86c0 .747.24 1.367.72 1.86.48.493 1.073.74 1.78.74zm14.097.9c-.307.44-.727.82-1.26 1.14-.534.307-1.147.46-1.84.46-.774 0-1.5-.22-2.18-.66-.667-.44-1.207-1.047-1.62-1.82-.4-.773-.6-1.647-.6-2.62 0-.973.2-1.847.6-2.62.413-.773.953-1.38 1.62-1.82a3.94 3.94 0 012.18-.66c.693 0 1.306.16 1.84.48.533.307.953.68 1.26 1.12h.1V334h2.7v14h-2.7v-1.4h-.1zm-2.3-.9c.706 0 1.3-.247 1.78-.74s.72-1.113.72-1.86c0-.747-.24-1.367-.72-1.86-.48-.493-1.074-.74-1.78-.74-.707 0-1.3.247-1.78.74s-.72 1.113-.72 1.86c0 .747.24 1.367.72 1.86.48.493 1.073.74 1.78.74zm15.111-6.1h.1c.307-.44.707-.813 1.2-1.12a3.12 3.12 0 011.7-.48c.667 0 1.274.173 1.82.52.547.333.98.813 1.3 1.44.32.613.48 1.327.48 2.14v5.9h-2.7v-5.5c0-.6-.16-1.067-.48-1.4-.32-.333-.76-.5-1.32-.5-.6 0-1.1.207-1.5.62-.4.413-.6.94-.6 1.58v5.2h-2.7v-9.8h2.7v1.4zm17.995 7.46c-.453.32-1.047.593-1.78.82-.733.213-1.54.32-2.42.32-.947 0-1.82-.227-2.62-.68a5.302 5.302 0 01-1.9-1.86 5.044 5.044 0 01-.68-2.56c0-.92.227-1.767.68-2.54a5.181 5.181 0 011.86-1.86c.787-.467 1.64-.7 2.56-.7.88 0 1.693.22 2.44.66.76.44 1.36 1.04 1.8 1.8.44.747.66 1.56.66 2.44 0 .44-.033.84-.1 1.2h-7.1c.16.493.453.9.88 1.22.44.32 1.013.48 1.72.48.56 0 1.06-.06 1.5-.18.453-.133.82-.287 1.1-.46l1.4 1.9zm-2.2-4.96c-.16-.48-.44-.88-.84-1.2a2.02 2.02 0 00-1.36-.5c-.52 0-.98.167-1.38.5-.387.32-.66.72-.82 1.2h4.4zm6.306-3.9l1.8 5.8h.1l1.9-5.8h2.2l1.9 5.8h.1l1.8-5.8h2.9l-3.44 9.8h-2.46l-1.86-5.7h-.08l-1.86 5.7h-2.46l-3.44-9.8h2.9zm14.491 6.5c.306.307.686.567 1.14.78.453.213.94.32 1.46.32.8 0 1.2-.233 1.2-.7 0-.187-.127-.34-.38-.46-.24-.133-.627-.287-1.16-.46a19.963 19.963 0 01-1.74-.68 3.789 3.789 0 01-1.22-.94c-.334-.413-.5-.933-.5-1.56 0-.547.153-1.047.46-1.5.306-.453.753-.813 1.34-1.08.6-.28 1.3-.42 2.1-.42.813 0 1.546.147 2.2.44.666.293 1.2.647 1.6 1.06l-1.6 1.7c-.24-.227-.554-.413-.94-.56a3.265 3.265 0 00-1.26-.24c-.334 0-.587.06-.76.18-.16.12-.24.26-.24.42 0 .187.12.347.36.48.253.12.646.267 1.18.44.693.24 1.273.473 1.74.7.466.213.866.527 1.2.94.346.4.52.913.52 1.54 0 .573-.16 1.1-.48 1.58-.307.467-.774.84-1.4 1.12-.614.267-1.354.4-2.22.4-.88 0-1.687-.173-2.42-.52-.734-.347-1.327-.773-1.78-1.28l1.6-1.7zm12.001-10.7l-.5 9.7h-2.2l-.5-9.7h3.2zm-3.2 12.6c0-.453.154-.833.46-1.14.307-.307.687-.46 1.14-.46.454 0 .834.153 1.14.46.307.307.46.687.46 1.14 0 .453-.153.833-.46 1.14-.306.307-.686.46-1.14.46-.453 0-.833-.153-1.14-.46a1.552 1.552 0 01-.46-1.14zM47.195 365.8h1.36l3.36 6h.08l3.36-6h1.36l-4.16 7.28V377h-1.2v-3.92l-4.16-7.28zm13.195 11.36c-.715 0-1.37-.176-1.968-.528a4.053 4.053 0 01-1.424-1.456 3.951 3.951 0 01-.528-2.016c0-.736.176-1.408.528-2.016a3.924 3.924 0 011.424-1.44 3.717 3.717 0 011.968-.544c.715 0 1.37.181 1.968.544a3.924 3.924 0 011.424 1.44c.352.608.528 1.28.528 2.016s-.176 1.408-.528 2.016a4.053 4.053 0 01-1.424 1.456 3.806 3.806 0 01-1.968.528zm0-1.04c.501 0 .965-.128 1.392-.384a2.995 2.995 0 001.408-2.576c0-.544-.128-1.04-.384-1.488a2.827 2.827 0 00-1.024-1.072c-.427-.267-.89-.4-1.392-.4-.501 0-.965.133-1.392.4a2.827 2.827 0 00-1.024 1.072 2.946 2.946 0 00-.384 1.488 2.995 2.995 0 001.408 2.576c.427.256.89.384 1.392.384zm7.041-2.32c0 .448.096.848.288 1.2.192.352.454.629.784.832.33.192.694.288 1.088.288.427 0 .816-.107 1.168-.32a2.37 2.37 0 00.832-.912c.214-.395.32-.837.32-1.328v-4.24h1.12V377h-1.12v-1.04c-.245.331-.581.613-1.008.848-.426.235-.917.352-1.472.352-.586 0-1.12-.139-1.6-.416a3.117 3.117 0 01-1.12-1.2c-.266-.512-.4-1.093-.4-1.744v-4.48h1.12v4.48zm9.36-3.44c.202-.331.506-.613.912-.848.416-.235.912-.352 1.488-.352h.48v1.12h-.48c-.427 0-.827.101-1.2.304a2.326 2.326 0 00-.88.88c-.214.373-.32.805-.32 1.296V377h-1.12v-7.68h1.12v1.04zm6.877-1.04h1.2v-1.44c0-.715.18-1.264.544-1.648.373-.395.885-.592 1.535-.592h1.12v1.04h-1.04c-.33 0-.586.101-.767.304-.182.203-.273.501-.273.896v1.44h1.84v1.04h-1.84V377h-1.12v-6.64h-1.2v-1.04zm10.564 6.64c-.245.331-.58.613-1.007.848-.427.235-.918.352-1.472.352a3.01 3.01 0 01-1.392-.32 2.588 2.588 0 01-.977-.832c-.234-.352-.352-.715-.352-1.088 0-.651.193-1.184.577-1.6.394-.416.949-.656 1.663-.72l2.96-.256c0-.373-.085-.725-.255-1.056a1.888 1.888 0 00-.689-.784 1.653 1.653 0 00-.975-.304c-.448 0-.86.053-1.233.16-.373.107-.682.24-.927.4l-.72-.72c.32-.245.73-.453 1.231-.624a5.077 5.077 0 011.648-.256c.576 0 1.094.133 1.553.4.469.256.832.608 1.088 1.056.266.448.4.949.4 1.504V377h-1.12v-1.04zm-2.64-2.4c-.469.043-.826.187-1.072.432a1.258 1.258 0 00-.367.928c0 .341.138.629.415.864.288.224.683.336 1.184.336.747 0 1.345-.203 1.793-.608.458-.416.688-.992.688-1.728v-.48l-2.64.256zm6.964-3.28c.203-.309.486-.571.848-.784.374-.224.811-.336 1.312-.336.598 0 1.11.133 1.536.4.427.256.742.576.944.96.224-.384.56-.704 1.008-.96.459-.267 1.003-.4 1.632-.4.875 0 1.584.288 2.128.864.555.576.832 1.381.832 2.416V377h-1.12v-4.56c0-.715-.176-1.264-.528-1.648-.352-.395-.816-.592-1.392-.592-.373 0-.72.107-1.04.32-.32.203-.576.501-.768.896-.181.384-.272.832-.272 1.344V377h-1.12v-4.56c0-.704-.176-1.253-.528-1.648-.352-.395-.816-.592-1.392-.592-.373 0-.72.107-1.04.32-.32.203-.576.501-.768.896-.181.384-.272.832-.272 1.344V377h-1.12v-7.68h1.12v.96zm12.642-3.52c0-.203.069-.373.208-.512a.695.695 0 01.512-.208c.203 0 .373.069.512.208a.695.695 0 01.208.512.695.695 0 01-.208.512.695.695 0 01-.512.208.695.695 0 01-.512-.208.695.695 0 01-.208-.512zm1.28 2.56V377h-1.12v-7.68h1.12zm3.768-3.52V377h-1.12v-11.2h1.12zm2.883 13.52c.352 0 .64-.101.864-.304.235-.192.427-.491.576-.896l.4-1.12-3.12-7.68h1.2l2.48 6.24 2.48-6.24h1.2l-3.52 8.8c-.32.811-.661 1.387-1.024 1.728-.362.341-.821.512-1.376.512h-.96v-1.04h.8zm16.725-3.44c-.266.352-.629.656-1.088.912a3.24 3.24 0 01-1.552.368 3.641 3.641 0 01-1.888-.512 3.886 3.886 0 01-1.376-1.44c-.33-.608-.496-1.291-.496-2.048 0-.757.166-1.44.496-2.048a3.76 3.76 0 011.376-1.424 3.555 3.555 0 011.888-.528c.576 0 1.094.128 1.552.384.459.245.822.544 1.088.896v-1.12h1.12v11.04h-1.12v-4.48zm-2.64.24c.448 0 .875-.128 1.28-.384.416-.267.747-.624.992-1.072.246-.459.368-.96.368-1.504a3.04 3.04 0 00-.368-1.488 2.748 2.748 0 00-.992-1.072 2.289 2.289 0 00-1.28-.4c-.48 0-.922.128-1.328.384a2.591 2.591 0 00-.96 1.04c-.234.448-.352.96-.352 1.536 0 .576.118 1.088.352 1.536.235.448.555.8.96 1.056.406.245.848.368 1.328.368zm7.436-2.32c0 .448.096.848.288 1.2.192.352.453.629.784.832.331.192.693.288 1.088.288.427 0 .816-.107 1.168-.32.352-.224.629-.528.832-.912.213-.395.32-.837.32-1.328v-4.24h1.12V377h-1.12v-1.04c-.245.331-.581.613-1.008.848-.427.235-.917.352-1.472.352-.587 0-1.12-.139-1.6-.416a3.118 3.118 0 01-1.12-1.2c-.267-.512-.4-1.093-.4-1.744v-4.48h1.12v4.48zm12.879 2.16c-.245.331-.581.613-1.008.848-.426.235-.917.352-1.472.352a3.01 3.01 0 01-1.392-.32 2.59 2.59 0 01-.976-.832c-.234-.352-.352-.715-.352-1.088 0-.651.192-1.184.576-1.6.395-.416.95-.656 1.664-.72l2.96-.256c0-.373-.085-.725-.256-1.056a1.885 1.885 0 00-.688-.784 1.652 1.652 0 00-.976-.304c-.448 0-.858.053-1.232.16-.373.107-.682.24-.928.4l-.72-.72c.32-.245.731-.453 1.232-.624a5.08 5.08 0 011.648-.256c.576 0 1.094.133 1.552.4.47.256.832.608 1.088 1.056.267.448.4.949.4 1.504V377h-1.12v-1.04zm-2.64-2.4c-.469.043-.826.187-1.072.432a1.26 1.26 0 00-.368.928c0 .341.139.629.416.864.288.224.683.336 1.184.336.747 0 1.344-.203 1.792-.608.459-.416.688-.992.688-1.728v-.48l-2.64.256zm7.044-7.76V377h-1.12v-11.2h1.12zm2.484.96c0-.203.069-.373.208-.512a.695.695 0 01.512-.208c.203 0 .373.069.512.208a.695.695 0 01.208.512.695.695 0 01-.208.512.695.695 0 01-.512.208.695.695 0 01-.512-.208.695.695 0 01-.208-.512zm1.28 2.56V377h-1.12v-7.68h1.12zm1.767 0h1.2v-1.44c0-.715.182-1.264.544-1.648.374-.395.886-.592 1.536-.592.406 0 .779.08 1.12.24v1.04a2.427 2.427 0 00-1.04-.24c-.33 0-.586.101-.768.304-.181.203-.272.501-.272.896v1.44h4.56V377h-1.12v-6.64h-3.44V377h-1.12v-6.64h-1.2v-1.04zm5.6-2.56c0-.203.07-.373.208-.512a.696.696 0 01.512-.208c.203 0 .374.069.512.208a.695.695 0 01.208.512.695.695 0 01-.208.512.693.693 0 01-.512.208.696.696 0 01-.512-.208.698.698 0 01-.208-.512zm10.321 9.088c-.341.363-.789.672-1.344.928a4.377 4.377 0 01-1.856.384 3.717 3.717 0 01-1.92-.528 4.094 4.094 0 01-1.408-1.456 4.05 4.05 0 01-.512-2.016c0-.725.171-1.392.512-2a3.969 3.969 0 011.392-1.456 3.42 3.42 0 011.856-.544c.683 0 1.307.165 1.872.496a3.51 3.51 0 011.328 1.376c.32.576.48 1.232.48 1.968 0 .203-.027.395-.08.576l-6.24-.016c.021.448.16.869.416 1.264a2.9 2.9 0 00.992.944c.405.235.843.352 1.312.352.533 0 1.013-.096 1.44-.288a3.306 3.306 0 001.04-.704l.72.72zm-.72-3.248c-.085-.693-.368-1.264-.848-1.712a2.356 2.356 0 00-1.712-.688c-.437 0-.848.112-1.232.336a2.803 2.803 0 00-.96.88 2.68 2.68 0 00-.448 1.184h5.2zm3.195 2.4c.213.309.496.576.848.8.352.213.736.32 1.152.32.544 0 .96-.117 1.248-.352.288-.245.432-.555.432-.928a.878.878 0 00-.448-.8c-.288-.181-.725-.357-1.312-.528-.523-.16-.944-.309-1.264-.448a2.314 2.314 0 01-.8-.64c-.224-.288-.336-.656-.336-1.104 0-.373.107-.725.32-1.056.224-.331.528-.597.912-.8a2.86 2.86 0 011.328-.304c.523 0 .997.101 1.424.304.437.203.789.448 1.056.736l-.8.8a1.971 1.971 0 00-.704-.56 1.974 1.974 0 00-.976-.24c-.427 0-.773.112-1.04.336-.267.224-.4.485-.4.784a.83.83 0 00.416.752c.277.16.709.325 1.296.496.523.16.944.315 1.264.464.331.149.608.373.832.672.235.288.352.667.352 1.136 0 .427-.112.816-.336 1.168-.224.352-.549.635-.976.848-.427.203-.923.304-1.488.304-.629 0-1.184-.128-1.664-.384-.48-.267-.859-.592-1.136-.976l.8-.8zm9.589-5.68h1.2v-1.44c0-.715.181-1.264.544-1.648.373-.395.885-.592 1.536-.592h1.12v1.04h-1.04c-.331 0-.587.101-.768.304-.182.203-.272.501-.272.896v1.44h1.84v1.04h-1.84V377h-1.12v-6.64h-1.2v-1.04zm9.285 7.84a3.804 3.804 0 01-1.968-.528 4.047 4.047 0 01-1.424-1.456 3.951 3.951 0 01-.528-2.016c0-.736.176-1.408.528-2.016a3.918 3.918 0 011.424-1.44 3.716 3.716 0 011.968-.544c.714 0 1.37.181 1.968.544a3.926 3.926 0 011.424 1.44c.352.608.528 1.28.528 2.016s-.176 1.408-.528 2.016a4.056 4.056 0 01-1.424 1.456 3.81 3.81 0 01-1.968.528zm0-1.04c.501 0 .965-.128 1.392-.384a3 3 0 001.024-1.072c.256-.459.384-.96.384-1.504s-.128-1.04-.384-1.488a2.833 2.833 0 00-1.024-1.072 2.576 2.576 0 00-1.392-.4 2.57 2.57 0 00-1.392.4 2.825 2.825 0 00-1.024 1.072 2.946 2.946 0 00-.384 1.488 2.992 2.992 0 001.408 2.576c.426.256.89.384 1.392.384zm7.041-5.76c.203-.331.507-.613.912-.848.416-.235.912-.352 1.488-.352h.48v1.12h-.48c-.427 0-.827.101-1.2.304a2.323 2.323 0 00-.88.88c-.213.373-.32.805-.32 1.296V377h-1.12v-7.68h1.12v1.04zm8.797-.08c.203-.309.485-.571.848-.784.373-.224.811-.336 1.312-.336.597 0 1.109.133 1.536.4.427.256.741.576.944.96.224-.384.56-.704 1.008-.96.459-.267 1.003-.4 1.632-.4.875 0 1.584.288 2.128.864.555.576.832 1.381.832 2.416V377h-1.12v-4.56c0-.715-.176-1.264-.528-1.648-.352-.395-.816-.592-1.392-.592-.373 0-.72.107-1.04.32-.32.203-.576.501-.768.896-.181.384-.272.832-.272 1.344V377h-1.12v-4.56c0-.704-.176-1.253-.528-1.648-.352-.395-.816-.592-1.392-.592-.373 0-.72.107-1.04.32-.32.203-.576.501-.768.896-.181.384-.272.832-.272 1.344V377h-1.12v-7.68h1.12v.96zm16.162 6.88a3.804 3.804 0 01-1.968-.528 4.047 4.047 0 01-1.424-1.456 3.951 3.951 0 01-.528-2.016c0-.736.176-1.408.528-2.016a3.918 3.918 0 011.424-1.44 3.716 3.716 0 011.968-.544c.714 0 1.37.181 1.968.544a3.926 3.926 0 011.424 1.44c.352.608.528 1.28.528 2.016s-.176 1.408-.528 2.016a4.056 4.056 0 01-1.424 1.456 3.81 3.81 0 01-1.968.528zm0-1.04c.501 0 .965-.128 1.392-.384a3 3 0 001.024-1.072c.256-.459.384-.96.384-1.504s-.128-1.04-.384-1.488a2.833 2.833 0 00-1.024-1.072 2.576 2.576 0 00-1.392-.4 2.57 2.57 0 00-1.392.4 2.825 2.825 0 00-1.024 1.072 2.946 2.946 0 00-.384 1.488 2.992 2.992 0 001.408 2.576c.426.256.89.384 1.392.384zm7.041-5.68a3.052 3.052 0 011.008-.896c.427-.256.917-.384 1.472-.384.608 0 1.147.133 1.616.4.48.267.848.651 1.104 1.152.267.491.4 1.067.4 1.728V377h-1.12v-4.56c0-.672-.197-1.211-.592-1.616-.384-.416-.88-.624-1.488-.624-.448 0-.859.112-1.232.336a2.32 2.32 0 00-.864.896c-.203.384-.304.827-.304 1.328V377h-1.12v-7.68h1.12v1.12zm7.205-1.12h1.44v-2.56h1.12v2.56h2.08v1.04h-2.08v4.56c0 .384.085.656.256.816.181.149.443.224.784.224h1.04V377h-1.088c-.672 0-1.195-.171-1.568-.512-.363-.341-.544-.864-.544-1.568v-4.56h-1.44v-1.04zm7.766 1.12a3.052 3.052 0 011.008-.896c.426-.256.917-.384 1.472-.384.608 0 1.146.133 1.616.4.48.267.848.651 1.104 1.152.266.491.4 1.067.4 1.728V377h-1.12v-4.56c0-.672-.198-1.211-.592-1.616-.384-.416-.88-.624-1.488-.624-.448 0-.859.112-1.232.336a2.32 2.32 0 00-.864.896c-.203.384-.304.827-.304 1.328V377h-1.12v-11.2h1.12v4.64zm9.359-4.64V377h-1.12v-11.2h1.12zm2.884 13.52c.352 0 .64-.101.864-.304.234-.192.426-.491.576-.896l.4-1.12-3.12-7.68h1.2l2.48 6.24 2.48-6.24h1.2l-3.52 8.8c-.32.811-.662 1.387-1.024 1.728-.363.341-.822.512-1.376.512h-.96v-1.04h.8zm10.965-4.32c.213.309.496.576.848.8.352.213.736.32 1.152.32.544 0 .96-.117 1.248-.352.288-.245.432-.555.432-.928a.88.88 0 00-.448-.8c-.288-.181-.726-.357-1.312-.528-.523-.16-.944-.309-1.264-.448a2.305 2.305 0 01-.8-.64c-.224-.288-.336-.656-.336-1.104 0-.373.106-.725.32-1.056.224-.331.528-.597.912-.8a2.857 2.857 0 011.328-.304c.522 0 .997.101 1.424.304.437.203.789.448 1.056.736l-.8.8a1.98 1.98 0 00-.704-.56 1.977 1.977 0 00-.976-.24c-.427 0-.774.112-1.04.336-.267.224-.4.485-.4.784 0 .331.138.581.416.752.277.16.709.325 1.296.496.522.16.944.315 1.264.464.33.149.608.373.832.672.234.288.352.667.352 1.136 0 .427-.112.816-.336 1.168-.224.352-.55.635-.976.848-.427.203-.923.304-1.488.304-.63 0-1.184-.128-1.664-.384-.48-.267-.859-.592-1.136-.976l.8-.8zm11.435.96c-.246.331-.582.613-1.008.848-.427.235-.918.352-1.472.352a3.01 3.01 0 01-1.392-.32 2.582 2.582 0 01-.976-.832 1.936 1.936 0 01-.352-1.088c0-.651.192-1.184.576-1.6.394-.416.949-.656 1.664-.72l2.96-.256a2.28 2.28 0 00-.256-1.056 1.892 1.892 0 00-.688-.784 1.654 1.654 0 00-.976-.304 4.46 4.46 0 00-1.232.16c-.374.107-.683.24-.928.4l-.72-.72c.32-.245.73-.453 1.232-.624a5.072 5.072 0 011.648-.256c.576 0 1.093.133 1.552.4.469.256.832.608 1.088 1.056.266.448.4.949.4 1.504V377h-1.12v-1.04zm-2.64-2.4c-.47.043-.827.187-1.072.432-.246.245-.368.555-.368.928 0 .341.138.629.416.864.288.224.682.336 1.184.336.746 0 1.344-.203 1.792-.608.458-.416.688-.992.688-1.728v-.48l-2.64.256zm5.847-4.24l2.48 6.16 2.48-6.16h1.2l-3.12 7.68h-1.12l-3.12-7.68h1.2zm7.524-2.56c0-.203.069-.373.208-.512a.695.695 0 01.512-.208c.203 0 .373.069.512.208a.695.695 0 01.208.512.695.695 0 01-.208.512.695.695 0 01-.512.208.695.695 0 01-.512-.208.695.695 0 01-.208-.512zm1.28 2.56V377h-1.12v-7.68h1.12zm3.688 1.12a3.052 3.052 0 011.008-.896c.426-.256.917-.384 1.472-.384.608 0 1.146.133 1.616.4.48.267.848.651 1.104 1.152.266.491.4 1.067.4 1.728V377h-1.12v-4.56c0-.672-.198-1.211-.592-1.616-.384-.416-.88-.624-1.488-.624-.448 0-.859.112-1.232.336a2.32 2.32 0 00-.864.896c-.203.384-.304.827-.304 1.328V377h-1.12v-7.68h1.12v1.12zm8.641 7.856c.266.288.613.528 1.04.72.437.203.917.304 1.44.304.48 0 .917-.123 1.312-.368.405-.245.725-.581.96-1.008.245-.427.368-.901.368-1.424v-.88c-.224.331-.56.613-1.008.848-.438.235-.955.352-1.552.352-.662 0-1.27-.171-1.824-.512a3.698 3.698 0 01-1.296-1.392 3.978 3.978 0 01-.48-1.936c0-.704.16-1.349.48-1.936a3.698 3.698 0 011.296-1.392 3.413 3.413 0 011.824-.512c.597 0 1.114.117 1.552.352.448.235.784.517 1.008.848v-1.04h1.12v7.2c0 .704-.171 1.349-.512 1.936a3.702 3.702 0 01-1.36 1.392 3.641 3.641 0 01-1.888.512c-.704 0-1.334-.133-1.888-.4-.555-.256-.992-.571-1.312-.944l.72-.72zm2.56-2.496c.469 0 .901-.123 1.296-.368.394-.245.704-.581.928-1.008.224-.427.336-.901.336-1.424 0-.523-.112-.997-.336-1.424a2.566 2.566 0 00-.928-1.008 2.412 2.412 0 00-1.296-.368c-.448 0-.864.123-1.248.368a2.644 2.644 0 00-.896 1.008 3.016 3.016 0 00-.336 1.424c0 .523.112.997.336 1.424.224.427.522.763.896 1.008.384.245.8.368 1.248.368zm6.321-.8c.213.309.496.576.848.8.352.213.736.32 1.152.32.544 0 .96-.117 1.248-.352.288-.245.432-.555.432-.928a.878.878 0 00-.448-.8c-.288-.181-.725-.357-1.312-.528-.523-.16-.944-.309-1.264-.448a2.314 2.314 0 01-.8-.64c-.224-.288-.336-.656-.336-1.104 0-.373.107-.725.32-1.056.224-.331.528-.597.912-.8a2.86 2.86 0 011.328-.304c.523 0 .997.101 1.424.304.437.203.789.448 1.056.736l-.8.8a1.971 1.971 0 00-.704-.56 1.974 1.974 0 00-.976-.24c-.427 0-.773.112-1.04.336-.267.224-.4.485-.4.784a.83.83 0 00.416.752c.277.16.709.325 1.296.496.523.16.944.315 1.264.464.331.149.608.373.832.672.235.288.352.667.352 1.136 0 .427-.112.816-.336 1.168-.224.352-.549.635-.976.848-.427.203-.923.304-1.488.304-.629 0-1.184-.128-1.664-.384-.48-.267-.859-.592-1.136-.976l.8-.8z"/>
        <path fill="#03948C" d="M131.724 472h7.07v-1.47h-5.53v-2.87h4.27v-1.47h-4.27v-2.52h5.39v-1.47h-6.93v9.8zm8.056-1.12s.91 1.26 2.66 1.26c1.61 0 2.59-.98 2.59-2.1 0-2.38-3.57-1.82-3.57-2.94 0-.35.35-.7 1.05-.7.91 0 1.47.56 1.47.56l.91-.91s-.77-.91-2.38-.91c-1.54 0-2.45.91-2.45 1.96 0 2.38 3.57 1.82 3.57 2.94 0 .42-.42.84-1.19.84-1.05 0-1.75-.91-1.75-.91l-.91.91zm7.414-.98c0 1.47.77 2.24 2.1 2.24.63 0 1.05-.21 1.05-.21v-1.33s-.35.21-.77.21c-.63 0-.98-.35-.98-1.05v-3.15h1.54v-1.33h-1.54v-2.24h-1.26v1.47c0 .56-.21.77-.63.77h-.77v1.33h1.26v3.29zm4.893 2.1h1.4v-6.72h-1.4V472zm-.14-8.82c0 .49.42.84.84.84s.84-.35.84-.84-.42-.84-.84-.84-.84.35-.84.84zm3.57 8.82h1.4v-3.71c0-1.12.7-1.82 1.61-1.82.77 0 1.4.56 1.4 1.54V472h1.4v-3.71c0-1.12.7-1.82 1.61-1.82.77 0 1.4.56 1.4 1.54V472h1.4v-3.99c0-1.75-1.12-2.87-2.45-2.87-1.68 0-2.31 1.12-2.31 1.12s-.63-1.12-2.1-1.12c-1.4 0-1.96 1.12-1.96 1.12v-.98h-1.4V472zm16.102 0h1.4v-4.27c0-1.47-1.12-2.59-2.8-2.59-1.75 0-2.66 1.26-2.66 1.26l.91.91s.7-.91 1.75-.91c.84 0 1.4.56 1.4 1.26l-2.45.42c-1.19.21-1.96.98-1.96 2.1 0 1.05.91 1.96 2.24 1.96 1.47 0 2.17-1.12 2.17-1.12v.98zm0-3.01c0 1.12-.84 1.96-1.89 1.96-.7 0-1.12-.42-1.12-.91 0-.42.35-.784 1.05-.91l1.96-.35v.21zm3.916.91c0 1.47.77 2.24 2.1 2.24.63 0 1.05-.21 1.05-.21v-1.33s-.35.21-.77.21c-.63 0-.98-.35-.98-1.05v-3.15h1.54v-1.33h-1.54v-2.24h-1.26v1.47c0 .56-.21.77-.63.77h-.77v1.33h1.26v3.29zm9.797 0s-.77.91-1.96.91c-1.12 0-1.96-.77-2.1-1.68h5.18s.07-.28.07-.7c0-1.89-1.4-3.29-3.29-3.29-1.89 0-3.43 1.54-3.43 3.5s1.54 3.5 3.5 3.5 2.87-1.26 2.87-1.26l-.84-.98zm-4.06-1.96c.28-.91.91-1.54 1.96-1.54.98 0 1.61.63 1.82 1.54h-3.78zm11.824 4.06h1.4v-9.8h-1.4v4.06s-.7-1.12-2.31-1.12c-1.68 0-3.15 1.47-3.15 3.5 0 2.03 1.47 3.5 3.15 3.5 1.61 0 2.31-1.12 2.31-1.12v.98zm-2.03-1.19c-1.12 0-2.03-.91-2.03-2.17 0-1.26.91-2.17 2.03-2.17 1.12 0 2.03.91 2.03 2.17 0 1.26-.91 2.17-2.03 2.17zm7.776.07s.91 1.26 2.66 1.26c1.61 0 2.59-.98 2.59-2.1 0-2.38-3.57-1.82-3.57-2.94 0-.35.35-.7 1.05-.7.91 0 1.47.56 1.47.56l.91-.91s-.77-.91-2.38-.91c-1.54 0-2.45.91-2.45 1.96 0 2.38 3.57 1.82 3.57 2.94 0 .42-.42.84-1.19.84-1.05 0-1.75-.91-1.75-.91l-.91.91zm10.634 1.12h1.4v-4.27c0-1.47-1.12-2.59-2.8-2.59-1.75 0-2.66 1.26-2.66 1.26l.91.91s.7-.91 1.75-.91c.84 0 1.4.56 1.4 1.26l-2.45.42c-1.19.21-1.96.98-1.96 2.1 0 1.05.91 1.96 2.24 1.96 1.47 0 2.17-1.12 2.17-1.12v.98zm0-3.01c0 1.12-.84 1.96-1.89 1.96-.7 0-1.12-.42-1.12-.91 0-.42.35-.784 1.05-.91l1.96-.35v.21zm5.037 3.01h1.54l2.66-6.72h-1.54l-1.89 4.97-1.89-4.97h-1.54l2.66 6.72zm5.387 0h1.4v-6.72h-1.4V472zm-.14-8.82c0 .49.42.84.84.84s.84-.35.84-.84-.42-.84-.84-.84-.84.35-.84.84zm3.57 8.82h1.4v-3.64c0-1.12.77-1.89 1.82-1.89.91 0 1.54.63 1.54 1.61V472h1.4v-3.92c0-1.82-1.12-2.94-2.66-2.94-1.4 0-2.1 1.12-2.1 1.12v-.98h-1.4V472zm7.911 1.54s.98 1.4 2.87 1.4c2.03 0 3.5-1.47 3.5-3.5v-6.16h-1.4v.91s-.7-1.05-2.17-1.05c-1.61 0-3.01 1.4-3.01 3.36s1.4 3.36 3.01 3.36c1.47 0 2.17-1.05 2.17-1.05v.63c0 1.33-.84 2.17-2.1 2.17-1.19 0-1.89-.98-1.89-.98l-.98.91zm3.08-3.01c-1.05 0-1.89-.84-1.89-2.03s.84-2.03 1.89-2.03c1.05 0 1.89.84 1.89 2.03s-.84 2.03-1.89 2.03zm4.621.35s.91 1.26 2.66 1.26c1.61 0 2.59-.98 2.59-2.1 0-2.38-3.57-1.82-3.57-2.94 0-.35.35-.7 1.05-.7.91 0 1.47.56 1.47.56l.91-.91s-.77-.91-2.38-.91c-1.54 0-2.45.91-2.45 1.96 0 2.38 3.57 1.82 3.57 2.94 0 .42-.42.84-1.19.84-1.05 0-1.75-.91-1.75-.91l-.91.91z"/>
      </g>
      <g filter="url(#filter3_d)">
        <rect width="343" height="129" x="16" y="547" fill="#fff" rx="24"/>
        <g filter="url(#filter4_d)">
          <circle cx="243.645" cy="548" r="24" fill="#fff"/>
        </g>
        <path fill="url(#pattern0)" d="M226.786 531.141h33.721v33.721h-33.721z"/>
        <g filter="url(#filter5_d)">
          <circle cx="205.098" cy="548" r="24" fill="#fff"/>
        </g>
        <path fill="#7D3F98" d="M198.444 535.738c.95 0 1.822.317 2.534 1.03l4.12 4.119 4.119-4.119c.713-.713 1.584-1.03 2.534-1.03.872 0 1.822.317 2.535 1.03l5.07 5.07c1.426 1.426 1.426 3.644 0 5.069l-14.258 14.18-14.259-14.259c-1.426-1.426-1.426-3.644 0-5.07l5.07-5.069a3.735 3.735 0 012.535-.951z"/>
        <g>
          <g filter="url(#filter6_d)">
            <circle cx="166.547" cy="548" r="24" fill="#fff"/>
          </g>
          <path fill="url(#pattern1)" d="M151.219 532.674h30.656v30.656h-30.656z"/>
        </g>
        <g>
          <g filter="url(#filter7_d)">
            <circle cx="128" cy="548" r="24" fill="#fff"/>
          </g>
          <path fill="url(#pattern2)" d="M109.605 529.605h36.787v36.787h-36.787z"/>
        </g>
        <g>
          <path fill="#25272E" d="M88.7 603.2h4.2v10.44h1.92V617H92.9v3h-3.6v-3h-7.92v-3.84l7.32-9.96zm.6 4.68l-4.2 5.76h4.2v-5.76zm14.276 12.48a6.463 6.463 0 01-3.6-1.08c-1.088-.72-1.96-1.744-2.616-3.072-.656-1.328-.984-2.864-.984-4.608 0-1.744.328-3.28.984-4.608.656-1.328 1.528-2.352 2.616-3.072a6.463 6.463 0 013.6-1.08c1.296 0 2.488.36 3.576 1.08 1.104.72 1.984 1.744 2.64 3.072.656 1.328.984 2.864.984 4.608 0 1.744-.328 3.28-.984 4.608-.656 1.328-1.536 2.352-2.64 3.072a6.347 6.347 0 01-3.576 1.08zm0-3.36c.624 0 1.208-.208 1.752-.624.56-.416 1.008-1.024 1.344-1.824.336-.816.504-1.8.504-2.952s-.168-2.128-.504-2.928c-.336-.816-.784-1.432-1.344-1.848-.544-.416-1.128-.624-1.752-.624-.624 0-1.216.208-1.776.624-.544.416-.984 1.032-1.32 1.848-.336.8-.504 1.776-.504 2.928s.168 2.136.504 2.952c.336.8.776 1.408 1.32 1.824.56.416 1.152.624 1.776.624z"/>
          <path fill="#70747D" d="M57.048 642.09a2.688 2.688 0 01-.882.742 2.633 2.633 0 01-1.288.308c-.448 0-.854-.093-1.218-.28a2.264 2.264 0 01-.854-.728 1.694 1.694 0 01-.308-.952c0-.569.168-1.036.504-1.4.345-.364.83-.574 1.456-.63l2.59-.224c0-.327-.075-.635-.224-.924a1.656 1.656 0 00-.602-.686 1.45 1.45 0 00-.854-.266c-.392 0-.751.047-1.078.14-.326.093-.597.21-.812.35l-.63-.63c.28-.215.64-.397 1.078-.546.439-.149.92-.224 1.442-.224.504 0 .957.117 1.358.35.41.224.728.532.952.924.233.392.35.831.35 1.316V643h-.98v-.91zm-2.31-2.1c-.41.037-.723.163-.938.378a1.1 1.1 0 00-.322.812c0 .299.121.551.364.756.252.196.598.294 1.036.294.654 0 1.176-.177 1.568-.532.401-.364.602-.868.602-1.512v-.42l-2.31.224zm5.117-3.71l2.17 5.39 2.17-5.39h1.05l-2.73 6.72h-.98l-2.73-6.72h1.05zm10.783 5.81a2.688 2.688 0 01-.882.742 2.633 2.633 0 01-1.288.308c-.448 0-.854-.093-1.218-.28a2.264 2.264 0 01-.854-.728 1.695 1.695 0 01-.308-.952c0-.569.168-1.036.504-1.4.345-.364.83-.574 1.456-.63l2.59-.224c0-.327-.075-.635-.224-.924a1.656 1.656 0 00-.602-.686 1.45 1.45 0 00-.854-.266c-.392 0-.751.047-1.078.14a2.98 2.98 0 00-.812.35l-.63-.63c.28-.215.64-.397 1.078-.546.439-.149.92-.224 1.442-.224.504 0 .957.117 1.358.35.41.224.728.532.952.924.233.392.35.831.35 1.316V643h-.98v-.91zm-2.31-2.1c-.41.037-.723.163-.938.378a1.1 1.1 0 00-.322.812c0 .299.121.551.364.756.252.196.597.294 1.036.294.653 0 1.176-.177 1.568-.532.401-.364.602-.868.602-1.512v-.42l-2.31.224zm4.973-5.95c0-.177.061-.327.182-.448a.61.61 0 01.448-.182.61.61 0 01.448.182.609.609 0 01.182.448c0 .177-.06.327-.182.448a.61.61 0 01-.448.182.61.61 0 01-.448-.182.609.609 0 01-.182-.448zm1.12 2.24V643h-.98v-6.72h.98zm3.297-3.08v9.8h-.98v-9.8h.98zm6.373 8.89a2.686 2.686 0 01-.882.742 2.632 2.632 0 01-1.288.308c-.448 0-.854-.093-1.218-.28a2.264 2.264 0 01-.854-.728 1.695 1.695 0 01-.308-.952c0-.569.168-1.036.504-1.4.346-.364.83-.574 1.456-.63l2.59-.224c0-.327-.075-.635-.224-.924a1.655 1.655 0 00-.602-.686 1.45 1.45 0 00-.854-.266c-.392 0-.751.047-1.078.14-.326.093-.597.21-.812.35l-.63-.63c.28-.215.64-.397 1.078-.546a4.46 4.46 0 011.442-.224c.504 0 .957.117 1.358.35.41.224.728.532.952.924.233.392.35.831.35 1.316V643h-.98v-.91zm-2.31-2.1c-.41.037-.723.163-.938.378a1.101 1.101 0 00-.322.812c0 .299.121.551.364.756.252.196.597.294 1.036.294.653 0 1.176-.177 1.568-.532.401-.364.602-.868.602-1.512v-.42l-2.31.224zm6.163-2.73c.234-.308.551-.569.952-.784a2.738 2.738 0 011.358-.336c.598 0 1.148.154 1.652.462.504.299.901.714 1.19 1.246.3.532.448 1.129.448 1.792s-.149 1.26-.448 1.792c-.289.532-.686.952-1.19 1.26a3.179 3.179 0 01-1.652.448 2.83 2.83 0 01-1.358-.322 3.012 3.012 0 01-.952-.798v.98h-.98v-9.8h.98v4.06zm2.31 4.97a2.2 2.2 0 001.162-.322c.355-.224.635-.532.84-.924.206-.392.308-.84.308-1.344 0-.504-.102-.952-.308-1.344a2.267 2.267 0 00-.84-.91 2.134 2.134 0 00-1.162-.336c-.392 0-.77.117-1.134.35a2.45 2.45 0 00-.854.938 2.665 2.665 0 00-.322 1.302c0 .476.108.915.322 1.316.215.392.5.705.854.938.364.224.742.336 1.134.336zm6.085-9.03v9.8h-.98v-9.8h.98zm7.983 8.792c-.298.317-.69.588-1.176.812a3.827 3.827 0 01-1.624.336 3.254 3.254 0 01-1.68-.462 3.58 3.58 0 01-1.232-1.274 3.542 3.542 0 01-.448-1.764c0-.635.15-1.218.448-1.75a3.477 3.477 0 011.218-1.274 2.997 2.997 0 011.624-.476c.598 0 1.144.145 1.638.434.495.289.882.691 1.162 1.204.28.504.42 1.078.42 1.722 0 .177-.023.345-.07.504l-5.46-.014c.019.392.14.761.364 1.106.224.345.514.621.868.826.355.205.738.308 1.148.308.467 0 .887-.084 1.26-.252a2.87 2.87 0 00.91-.616l.63.63zm-.63-2.842c-.074-.607-.322-1.106-.742-1.498a2.064 2.064 0 00-1.498-.602c-.382 0-.742.098-1.078.294a2.452 2.452 0 00-.84.77 2.346 2.346 0 00-.392 1.036h4.55zm6.85-1.89c.234-.308.551-.569.952-.784a2.74 2.74 0 011.358-.336c.598 0 1.148.154 1.652.462.504.299.901.714 1.19 1.246.299.532.448 1.129.448 1.792s-.149 1.26-.448 1.792a3.287 3.287 0 01-1.19 1.26 3.177 3.177 0 01-1.652.448c-.504 0-.956-.107-1.358-.322a3.023 3.023 0 01-.952-.798v3.92h-.98v-9.66h.98v.98zm2.31 4.97c.42 0 .808-.107 1.162-.322.355-.224.635-.532.84-.924.206-.392.308-.84.308-1.344 0-.504-.102-.952-.308-1.344a2.263 2.263 0 00-.84-.91 2.132 2.132 0 00-1.162-.336c-.392 0-.77.117-1.134.35a2.457 2.457 0 00-.854.938 2.673 2.673 0 00-.322 1.302c0 .476.108.915.322 1.316.215.392.5.705.854.938.364.224.742.336 1.134.336zm6.087-9.03v9.8h-.98v-9.8h.98zm6.373 8.89a2.694 2.694 0 01-.882.742 2.633 2.633 0 01-1.288.308c-.448 0-.854-.093-1.218-.28a2.261 2.261 0 01-.854-.728 1.697 1.697 0 01-.308-.952c0-.569.168-1.036.504-1.4.345-.364.831-.574 1.456-.63l2.59-.224c0-.327-.075-.635-.224-.924a1.658 1.658 0 00-.602-.686 1.451 1.451 0 00-.854-.266 3.93 3.93 0 00-1.078.14 2.98 2.98 0 00-.812.35l-.63-.63c.28-.215.639-.397 1.078-.546a4.459 4.459 0 011.442-.224c.504 0 .957.117 1.358.35.411.224.728.532.952.924.233.392.35.831.35 1.316V643h-.98v-.91zm-2.31-2.1c-.411.037-.723.163-.938.378a1.1 1.1 0 00-.322.812c0 .299.121.551.364.756.252.196.597.294 1.036.294.653 0 1.176-.177 1.568-.532.401-.364.602-.868.602-1.512v-.42l-2.31.224zm6.093-2.73a2.69 2.69 0 01.882-.784 2.454 2.454 0 011.288-.336c.532 0 1.003.117 1.414.35.42.233.742.569.966 1.008.233.429.35.933.35 1.512V643h-.98v-3.99c0-.588-.173-1.059-.518-1.414-.336-.364-.77-.546-1.302-.546-.392 0-.751.098-1.078.294a2.044 2.044 0 00-.756.784 2.456 2.456 0 00-.266 1.162V643h-.98v-6.72h.98v.98zm7.211 3.99c.187.271.434.504.742.7.308.187.644.28 1.008.28.476 0 .84-.103 1.092-.308.252-.215.378-.485.378-.812a.768.768 0 00-.392-.7c-.252-.159-.634-.313-1.148-.462-.457-.14-.826-.271-1.106-.392a2.029 2.029 0 01-.7-.56c-.196-.252-.294-.574-.294-.966 0-.327.094-.635.28-.924a2.16 2.16 0 01.798-.7 2.513 2.513 0 011.162-.266c.458 0 .873.089 1.246.266.383.177.691.392.924.644l-.7.7a1.723 1.723 0 00-.616-.49 1.727 1.727 0 00-.854-.21c-.373 0-.676.098-.91.294-.233.196-.35.425-.35.686 0 .289.122.509.364.658.243.14.621.285 1.134.434.458.14.826.275 1.106.406.29.131.532.327.728.588.206.252.308.583.308.994 0 .373-.098.714-.294 1.022-.196.308-.48.555-.854.742-.373.177-.807.266-1.302.266-.55 0-1.036-.112-1.456-.336a2.99 2.99 0 01-.994-.854l.7-.7z"/>
        </g>
        <g>
          <path fill="#70747D" d="M228.549 633.2v9.8h-.98v-9.8h.98zm5.253 9.94a3.332 3.332 0 01-1.722-.462 3.547 3.547 0 01-1.246-1.274 3.457 3.457 0 01-.462-1.764c0-.644.154-1.232.462-1.764a3.438 3.438 0 011.246-1.26 3.26 3.26 0 011.722-.476c.626 0 1.2.159 1.722.476a3.43 3.43 0 011.246 1.26c.308.532.462 1.12.462 1.764 0 .644-.154 1.232-.462 1.764a3.539 3.539 0 01-1.246 1.274 3.327 3.327 0 01-1.722.462zm0-.91c.439 0 .845-.112 1.218-.336a2.61 2.61 0 001.232-2.254c0-.476-.112-.91-.336-1.302a2.474 2.474 0 00-.896-.938 2.256 2.256 0 00-1.218-.35c-.438 0-.844.117-1.218.35a2.481 2.481 0 00-.896.938 2.578 2.578 0 00-.336 1.302 2.619 2.619 0 001.232 2.254c.374.224.78.336 1.218.336zm5.321-5.95l1.75 5.18 1.68-5.18h.84l1.68 5.18 1.75-5.18h1.05l-2.31 6.72h-.91l-1.68-5.11-1.68 5.11h-.91l-2.31-6.72h1.05zm15.757 5.712c-.299.317-.691.588-1.176.812a3.83 3.83 0 01-1.624.336 3.256 3.256 0 01-1.68-.462 3.583 3.583 0 01-1.232-1.274 3.538 3.538 0 01-.448-1.764c0-.635.149-1.218.448-1.75a3.477 3.477 0 011.218-1.274 2.996 2.996 0 011.624-.476 3.19 3.19 0 011.638.434c.495.289.882.691 1.162 1.204.28.504.42 1.078.42 1.722 0 .177-.023.345-.07.504l-5.46-.014c.019.392.14.761.364 1.106.224.345.513.621.868.826.355.205.737.308 1.148.308.467 0 .887-.084 1.26-.252.373-.168.677-.373.91-.616l.63.63zm-.63-2.842c-.075-.607-.322-1.106-.742-1.498a2.065 2.065 0 00-1.498-.602c-.383 0-.742.098-1.078.294a2.453 2.453 0 00-.84.77 2.344 2.344 0 00-.392 1.036h4.55zm2.795 2.1c.187.271.434.504.742.7.308.187.644.28 1.008.28.476 0 .84-.103 1.092-.308.252-.215.378-.485.378-.812a.768.768 0 00-.392-.7c-.252-.159-.634-.313-1.148-.462-.457-.14-.826-.271-1.106-.392a2.029 2.029 0 01-.7-.56c-.196-.252-.294-.574-.294-.966 0-.327.094-.635.28-.924a2.16 2.16 0 01.798-.7 2.513 2.513 0 011.162-.266c.458 0 .873.089 1.246.266.383.177.691.392.924.644l-.7.7a1.723 1.723 0 00-.616-.49 1.727 1.727 0 00-.854-.21c-.373 0-.676.098-.91.294-.233.196-.35.425-.35.686 0 .289.122.509.364.658.243.14.621.285 1.134.434.458.14.826.275 1.106.406.29.131.532.327.728.588.206.252.308.583.308.994 0 .373-.098.714-.294 1.022-.196.308-.48.555-.854.742-.373.177-.807.266-1.302.266-.55 0-1.036-.112-1.456-.336a2.99 2.99 0 01-.994-.854l.7-.7zm5.246-4.97h1.26v-2.24h.98v2.24h1.82v.91h-1.82v3.99c0 .336.075.574.224.714.159.131.387.196.686.196h.91v.91h-.952c-.588 0-1.045-.149-1.372-.448-.317-.299-.476-.756-.476-1.372v-3.99h-1.26v-.91zm9.87.98c.233-.308.55-.569.952-.784a2.737 2.737 0 011.358-.336 3.11 3.11 0 011.652.462c.504.299.9.714 1.19 1.246.298.532.448 1.129.448 1.792s-.15 1.26-.448 1.792c-.29.532-.686.952-1.19 1.26a3.18 3.18 0 01-1.652.448c-.504 0-.957-.107-1.358-.322a3 3 0 01-.952-.798v3.92h-.98v-9.66h.98v.98zm2.31 4.97a2.2 2.2 0 001.162-.322c.354-.224.634-.532.84-.924.205-.392.308-.84.308-1.344 0-.504-.103-.952-.308-1.344a2.277 2.277 0 00-.84-.91 2.135 2.135 0 00-1.162-.336c-.392 0-.77.117-1.134.35-.355.224-.64.537-.854.938a2.662 2.662 0 00-.322 1.302c0 .476.107.915.322 1.316.214.392.499.705.854.938.364.224.742.336 1.134.336zm6.016-5.04c.177-.289.443-.537.798-.742.364-.205.798-.308 1.302-.308h.42v.98h-.42c-.374 0-.724.089-1.05.266a2.026 2.026 0 00-.77.77c-.187.327-.28.705-.28 1.134V643h-.98v-6.72h.98v.91zm9.379 4.802c-.298.317-.69.588-1.176.812a3.827 3.827 0 01-1.624.336 3.256 3.256 0 01-1.68-.462 3.583 3.583 0 01-1.232-1.274 3.548 3.548 0 01-.448-1.764 3.52 3.52 0 011.666-3.024 2.998 2.998 0 011.624-.476c.598 0 1.144.145 1.638.434.495.289.882.691 1.162 1.204.28.504.42 1.078.42 1.722 0 .177-.023.345-.07.504l-5.46-.014c.019.392.14.761.364 1.106.224.345.514.621.868.826.355.205.738.308 1.148.308.467 0 .887-.084 1.26-.252a2.87 2.87 0 00.91-.616l.63.63zm-.63-2.842c-.074-.607-.322-1.106-.742-1.498a2.064 2.064 0 00-1.498-.602c-.382 0-.742.098-1.078.294a2.453 2.453 0 00-.84.77 2.357 2.357 0 00-.392 1.036h4.55zm3.706-2.03a2.19 2.19 0 01.742-.686c.326-.196.709-.294 1.148-.294.522 0 .97.117 1.344.35.373.224.648.504.826.84.196-.336.49-.616.882-.84.401-.233.877-.35 1.428-.35.765 0 1.386.252 1.862.756.485.504.728 1.209.728 2.114V643h-.98v-3.99c0-.625-.154-1.106-.462-1.442-.308-.345-.714-.518-1.218-.518-.327 0-.63.093-.91.28-.28.177-.504.439-.672.784-.159.336-.238.728-.238 1.176V643h-.98v-3.99c0-.616-.154-1.097-.462-1.442-.308-.345-.714-.518-1.218-.518-.327 0-.63.093-.91.28-.28.177-.504.439-.672.784-.159.336-.238.728-.238 1.176V643h-.98v-6.72h.98v.84zm11.061-3.08a.61.61 0 01.182-.448.612.612 0 01.448-.182c.178 0 .327.061.448.182a.606.606 0 01.182.448c0 .177-.06.327-.182.448a.609.609 0 01-.448.182.612.612 0 01-.448-.182.61.61 0 01-.182-.448zm1.12 2.24V643h-.98v-6.72h.98zm3.227 3.92c0 .392.084.742.252 1.05.168.308.397.551.686.728.289.168.607.252.952.252.373 0 .714-.093 1.022-.28a2.07 2.07 0 00.728-.798 2.4 2.4 0 00.28-1.162v-3.71h.98V643h-.98v-.91a2.694 2.694 0 01-.882.742 2.633 2.633 0 01-1.288.308c-.513 0-.98-.121-1.4-.364a2.728 2.728 0 01-.98-1.05 3.26 3.26 0 01-.35-1.526v-3.92h.98v3.92zm8.189-3.08c.178-.271.425-.499.742-.686.327-.196.71-.294 1.148-.294.523 0 .971.117 1.344.35.374.224.649.504.826.84.196-.336.49-.616.882-.84.402-.233.878-.35 1.428-.35.766 0 1.386.252 1.862.756.486.504.728 1.209.728 2.114V643h-.98v-3.99c0-.625-.154-1.106-.462-1.442-.308-.345-.714-.518-1.218-.518-.326 0-.63.093-.91.28-.28.177-.504.439-.672.784-.158.336-.238.728-.238 1.176V643h-.98v-3.99c0-.616-.154-1.097-.462-1.442-.308-.345-.714-.518-1.218-.518-.326 0-.63.093-.91.28-.28.177-.504.439-.672.784-.158.336-.238.728-.238 1.176V643h-.98v-6.72h.98v.84z"/>
          <path fill="#25272E" d="M253.88 615.32c.432.496.992.92 1.68 1.272a4.932 4.932 0 002.28.528c.912 0 1.6-.176 2.064-.528.464-.352.696-.816.696-1.392 0-.528-.248-.936-.744-1.224-.496-.304-1.28-.632-2.352-.984-1.12-.384-2.032-.744-2.736-1.08-.688-.352-1.288-.864-1.8-1.536s-.768-1.544-.768-2.616c0-1.184.384-2.184 1.152-3 .784-.832 1.88-1.432 3.288-1.8v-2.16h3.12v2.16a6.5 6.5 0 012.352.792c.736.4 1.352.856 1.848 1.368l-2.4 2.4a4.675 4.675 0 00-1.368-1.008 3.689 3.689 0 00-1.752-.432c-.864 0-1.504.152-1.92.456-.4.304-.6.712-.6 1.224 0 .528.248.944.744 1.248.496.288 1.28.608 2.352.96 1.12.384 2.024.752 2.712 1.104.704.336 1.312.84 1.824 1.512s.768 1.544.768 2.616c0 1.232-.424 2.304-1.272 3.216-.848.912-1.944 1.52-3.288 1.824v2.16h-3.12v-2.16c-1.136-.16-2.152-.472-3.048-.936-.896-.48-1.6-1.008-2.112-1.584l2.4-2.4zm11.879-9.84c.864-.112 1.592-.384 2.184-.816.592-.432 1.024-.92 1.296-1.464h3V620h-3.6v-12.24h-2.88v-2.28zm9.352 14.52c0-1.456.248-2.688.744-3.696.512-1.024 1.112-1.84 1.8-2.448.688-.608 1.576-1.28 2.664-2.016.704-.48 1.248-.864 1.632-1.152.384-.304.696-.648.936-1.032.256-.384.384-.816.384-1.296 0-.608-.224-1.12-.672-1.536-.448-.416-1.024-.624-1.728-.624-.672 0-1.256.2-1.752.6a3.687 3.687 0 00-1.128 1.44l-2.88-1.44c.432-1.104 1.152-2.04 2.16-2.808 1.024-.768 2.304-1.152 3.84-1.152 1.168 0 2.2.232 3.096.696.896.448 1.584 1.08 2.064 1.896.48.8.72 1.696.72 2.688 0 .928-.192 1.744-.576 2.448a5.894 5.894 0 01-1.368 1.728c-.544.464-1.264 1-2.16 1.608-.8.544-1.44 1.016-1.92 1.416a5.757 5.757 0 00-1.176 1.32h7.2V620h-11.88zm13.804 0c0-1.456.248-2.688.744-3.696.512-1.024 1.112-1.84 1.8-2.448.688-.608 1.576-1.28 2.664-2.016.704-.48 1.248-.864 1.632-1.152.384-.304.696-.648.936-1.032.256-.384.384-.816.384-1.296 0-.608-.224-1.12-.672-1.536-.448-.416-1.024-.624-1.728-.624-.672 0-1.256.2-1.752.6a3.687 3.687 0 00-1.128 1.44l-2.88-1.44c.432-1.104 1.152-2.04 2.16-2.808 1.024-.768 2.304-1.152 3.84-1.152 1.168 0 2.2.232 3.096.696.896.448 1.584 1.08 2.064 1.896.48.8.72 1.696.72 2.688 0 .928-.192 1.744-.576 2.448a5.894 5.894 0 01-1.368 1.728c-.544.464-1.264 1-2.16 1.608-.8.544-1.44 1.016-1.92 1.416a5.757 5.757 0 00-1.176 1.32h7.2V620h-11.88z"/>
        </g>
        <g>
          <path fill="#F1F3F5" fill-rule="evenodd" d="M186 652v-56h1v56h-1z" clip-rule="evenodd" style="mix-blend-mode:multiply"/>
        </g>
      </g>
    </g>
    <g>
      <path fill="#000" fill-rule="evenodd" d="M121 800.5a2.5 2.5 0 012.5-2.5h129a2.5 2.5 0 110 5h-129a2.5 2.5 0 01-2.5-2.5z" clip-rule="evenodd"/>
    </g>
  </g>
  <defs>
    <filter id="filter0_d" width="88" height="88" x="287" y="692" color-interpolation-filters="sRGB" filterUnits="userSpaceOnUse">
      <feFlood flood-opacity="0" result="BackgroundImageFix"/>
      <feColorMatrix in="SourceAlpha" values="0 0 0 0 0 0 0 0 0 0 0 0 0 0 0 0 0 0 127 0"/>
      <feOffset/>
      <feGaussianBlur stdDeviation="8"/>
      <feColorMatrix values="0 0 0 0 0.121569 0 0 0 0 0.145098 0 0 0 0 0.2 0 0 0 0.08 0"/>
      <feBlend in2="BackgroundImageFix" mode="multiply" result="effect1_dropShadow"/>
      <feBlend in="SourceGraphic" in2="effect1_dropShadow" result="shape"/>
    </filter>
    <filter id="filter1_b" width="407" height="120" x="-16" y="-16" color-interpolation-filters="sRGB" filterUnits="userSpaceOnUse">
      <feFlood flood-opacity="0" result="BackgroundImageFix"/>
      <feGaussianBlur in="BackgroundImage" stdDeviation="8"/>
      <feComposite in2="SourceAlpha" operator="in" result="effect1_backgroundBlur"/>
      <feBlend in="SourceGraphic" in2="effect1_backgroundBlur" result="shape"/>
    </filter>
    <filter id="filter2_d" width="511" height="364" x="-68" y="220" color-interpolation-filters="sRGB" filterUnits="userSpaceOnUse">
      <feFlood flood-opacity="0" result="BackgroundImageFix"/>
      <feColorMatrix in="SourceAlpha" values="0 0 0 0 0 0 0 0 0 0 0 0 0 0 0 0 0 0 127 0"/>
      <feMorphology in="SourceAlpha" operator="dilate" radius="4" result="effect1_dropShadow"/>
      <feOffset/>
      <feGaussianBlur stdDeviation="40"/>
      <feColorMatrix values="0 0 0 0 0.4056 0 0 0 0 0.500104 0 0 0 0 0.52 0 0 0 0.04 0"/>
      <feBlend in2="BackgroundImageFix" mode="multiply" result="effect1_dropShadow"/>
      <feBlend in="SourceGraphic" in2="effect1_dropShadow" result="shape"/>
    </filter>
    <filter id="filter3_d" width="512" height="320" x="-69" y="440" color-interpolation-filters="sRGB" filterUnits="userSpaceOnUse">
      <feFlood flood-opacity="0" result="BackgroundImageFix"/>
      <feColorMatrix in="SourceAlpha" values="0 0 0 0 0 0 0 0 0 0 0 0 0 0 0 0 0 0 127 0"/>
      <feMorphology in="SourceAlpha" operator="dilate" radius="4" result="effect1_dropShadow"/>
      <feOffset/>
      <feGaussianBlur stdDeviation="40"/>
      <feColorMatrix values="0 0 0 0 0.4056 0 0 0 0 0.500104 0 0 0 0 0.52 0 0 0 0.04 0"/>
      <feBlend in2="BackgroundImageFix" mode="multiply" result="effect1_dropShadow"/>
      <feBlend in="SourceGraphic" in2="effect1_dropShadow" result="shape"/>
    </filter>
    <filter id="filter4_d" width="80" height="80" x="203.645" y="508" color-interpolation-filters="sRGB" filterUnits="userSpaceOnUse">
      <feFlood flood-opacity="0" result="BackgroundImageFix"/>
      <feColorMatrix in="SourceAlpha" values="0 0 0 0 0 0 0 0 0 0 0 0 0 0 0 0 0 0 127 0"/>
      <feOffset/>
      <feGaussianBlur stdDeviation="8"/>
      <feColorMatrix values="0 0 0 0 0.121569 0 0 0 0 0.145098 0 0 0 0 0.2 0 0 0 0.08 0"/>
      <feBlend in2="BackgroundImageFix" mode="multiply" result="effect1_dropShadow"/>
      <feBlend in="SourceGraphic" in2="effect1_dropShadow" result="shape"/>
    </filter>
    <filter id="filter5_d" width="80" height="80" x="165.098" y="508" color-interpolation-filters="sRGB" filterUnits="userSpaceOnUse">
      <feFlood flood-opacity="0" result="BackgroundImageFix"/>
      <feColorMatrix in="SourceAlpha" values="0 0 0 0 0 0 0 0 0 0 0 0 0 0 0 0 0 0 127 0"/>
      <feOffset/>
      <feGaussianBlur stdDeviation="8"/>
      <feColorMatrix values="0 0 0 0 0.121569 0 0 0 0 0.145098 0 0 0 0 0.2 0 0 0 0.08 0"/>
      <feBlend in2="BackgroundImageFix" mode="multiply" result="effect1_dropShadow"/>
      <feBlend in="SourceGraphic" in2="effect1_dropShadow" result="shape"/>
    </filter>
    <filter id="filter6_d" width="80" height="80" x="126.547" y="508" color-interpolation-filters="sRGB" filterUnits="userSpaceOnUse">
      <feFlood flood-opacity="0" result="BackgroundImageFix"/>
      <feColorMatrix in="SourceAlpha" values="0 0 0 0 0 0 0 0 0 0 0 0 0 0 0 0 0 0 127 0"/>
      <feOffset/>
      <feGaussianBlur stdDeviation="8"/>
      <feColorMatrix values="0 0 0 0 0.121569 0 0 0 0 0.145098 0 0 0 0 0.2 0 0 0 0.08 0"/>
      <feBlend in2="BackgroundImageFix" mode="multiply" result="effect1_dropShadow"/>
      <feBlend in="SourceGraphic" in2="effect1_dropShadow" result="shape"/>
    </filter>
    <filter id="filter7_d" width="80" height="80" x="88" y="508" color-interpolation-filters="sRGB" filterUnits="userSpaceOnUse">
      <feFlood flood-opacity="0" result="BackgroundImageFix"/>
      <feColorMatrix in="SourceAlpha" values="0 0 0 0 0 0 0 0 0 0 0 0 0 0 0 0 0 0 127 0"/>
      <feOffset/>
      <feGaussianBlur stdDeviation="8"/>
      <feColorMatrix values="0 0 0 0 0.121569 0 0 0 0 0.145098 0 0 0 0 0.2 0 0 0 0.08 0"/>
      <feBlend in2="BackgroundImageFix" mode="multiply" result="effect1_dropShadow"/>
      <feBlend in="SourceGraphic" in2="effect1_dropShadow" result="shape"/>
    </filter>
    <pattern id="pattern0" width="1" height="1" patternContentUnits="objectBoundingBox">
      <use transform="scale(.00195)" xlink:href="#image0"/>
    </pattern>
    <pattern id="pattern1" width="1" height="1" patternContentUnits="objectBoundingBox">
      <use transform="scale(.00195)" xlink:href="#image1"/>
    </pattern>
    <pattern id="pattern2" width="1" height="1" patternContentUnits="objectBoundingBox">
      <use transform="scale(.00071)" xlink:href="#image2"/>
    </pattern>
    <linearGradient id="paint0_linear" x1="111.5" x2="274.278" y1="166.859" y2="789.307" gradientUnits="userSpaceOnUse">
      <stop stop-color="#fff" stop-opacity=".53"/>
      <stop offset="1" stop-color="#E4F0F0"/>
    </linearGradient>
    <clipPath id="clip0">
      <path fill="#fff" d="M0 0h375v812H0z"/>
    </clipPath>
  </defs>
</svg>
