<svg xmlns="http://www.w3.org/2000/svg" width="375" height="812" fill="none" viewBox="0 0 375 812">
  <g class="08-he" clip-path="url(#clip0)">
    <path fill="#fff" d="M0 0h375v812H0z"/>
    <path fill="url(#paint0_linear)" d="M0 110h375v702H0z" class="Rectangle 480"/>
    <g class="iOS/Home Bar/Black">
      <path fill="#000" fill-rule="evenodd" d="M121 800.5a2.5 2.5 0 012.5-2.5h129a2.5 2.5 0 110 5h-129a2.5 2.5 0 01-2.5-2.5z" class="Rectangle" clip-rule="evenodd"/>
    </g>
    <g class="Frame 1279">
      <g class="Text">
        <path fill="#25272E" d="M20.9 366h2.9l2.84-9.1h.12l2.84 9.1h2.9l4.6-14H34l-2.9 9.4H31l-2.9-9.4h-2.8l-2.9 9.4h-.1l-2.9-9.4h-3.1l4.6 14zm17.516 0h2.7v-5.2c0-1.3.9-2.2 2.1-2.2 1.1 0 1.8.7 1.8 1.9v5.5h2.7v-5.9c0-2.5-1.6-4.1-3.6-4.1-1.9 0-2.9 1.6-2.9 1.6h-.1V352h-2.7v14zm17.392 0h2.7v-6.1c0-2.2-1.7-3.9-4.2-3.9-2.6 0-4 1.9-4 1.9l1.6 1.6s.8-1.1 2.2-1.1c1 0 1.6.6 1.7 1.3l-3.1.56c-1.8.32-2.9 1.54-2.9 3.14s1.2 2.8 3 2.8c1.9 0 2.9-1.4 2.9-1.4h.1v1.2zm0-4.2c0 1.3-.9 2.2-2.1 2.2-.8 0-1.2-.4-1.2-1 0-.5.4-.88 1.1-1l2.2-.4v.2zm5.905.8c0 2.3 1.3 3.6 3.3 3.6 1 0 1.8-.3 1.8-.3v-2.5s-.5.2-1.1.2c-.8 0-1.3-.5-1.3-1.4v-3.3h2.2v-2.5h-2.2v-3h-2.4v1.8c0 .8-.4 1.2-1.1 1.2h-.9v2.5h1.7v3.7zm6.308-6.3l1.6.9 2.8-4.3-2.3-1.3-2.1 4.7zm5.095 8.1s1.5 1.8 4.2 1.8 4.1-1.4 4.1-3.1c0-3.2-5-3-5-4.1 0-.3.3-.6 1-.6 1.4 0 2.2.8 2.2.8l1.6-1.7s-1.3-1.5-3.8-1.5-3.9 1.4-3.9 3c0 3.2 5 3 5 4.1 0 .4-.3.7-1.2.7-1.6 0-2.6-1.1-2.6-1.1l-1.6 1.7zm13.31 5.5s.8.3 1.8.3c1.8 0 2.98-1.2 3.8-3.4l4-10.6h-2.9l-2.2 6.5h-.1l-2.3-6.5h-2.9l3.8 9.7-.2.5c-.28.7-.8 1.2-1.7 1.2-.6 0-1.1-.2-1.1-.2v2.5zm15.396-6.2c-1.4 0-2.5-1.1-2.5-2.6s1.1-2.6 2.5-2.6 2.5 1.1 2.5 2.6-1.1 2.6-2.5 2.6zm-5.2-2.6c0 2.8 2.3 5.1 5.2 5.1 2.9 0 5.2-2.3 5.2-5.1s-2.3-5.1-5.2-5.1c-2.9 0-5.2 2.3-5.2 5.1zm12.397 1c0 2.5 1.6 4.1 3.6 4.1 1.9 0 2.9-1.6 2.9-1.6h.1v1.4h2.7v-9.8h-2.7v5.2c0 1.3-.9 2.2-2.1 2.2-1.1 0-1.8-.7-1.8-1.9v-5.5h-2.7v5.9zm11.894 3.9h2.7v-4.6c0-1.6 1-2.6 2.3-2.6.6 0 .9.1.9.1V356h-.2c-1.9 0-2.9 1.6-2.9 1.6h-.1v-1.4h-2.7v9.8zm12.207-3.4c0 2.3 1.3 3.6 3.3 3.6 1 0 1.8-.3 1.8-.3v-2.5s-.5.2-1.1.2c-.8 0-1.3-.5-1.3-1.4v-3.3h2.2v-2.5h-2.2v-3h-2.4v1.8c0 .8-.4 1.2-1.1 1.2h-.9v2.5h1.7v3.7zm11.612 1.1c-1.4 0-2.5-1.1-2.5-2.6s1.1-2.6 2.5-2.6 2.5 1.1 2.5 2.6-1.1 2.6-2.5 2.6zm-5.2-2.6c0 2.8 2.3 5.1 5.2 5.1 2.9 0 5.2-2.3 5.2-5.1s-2.3-5.1-5.2-5.1c-2.9 0-5.2 2.3-5.2 5.1zm12.397 9.1h2.7v-5.6h.1s1 1.6 3.1 1.6c2.3 0 4.4-2.1 4.4-5.1 0-3-2.1-5.1-4.4-5.1-2.1 0-3.1 1.6-3.1 1.6h-.1v-1.4h-2.7v14zm5.1-6.5c-1.4 0-2.5-1.1-2.5-2.6s1.1-2.6 2.5-2.6 2.5 1.1 2.5 2.6-1.1 2.6-2.5 2.6zm11.404 6.5h2.7v-5.6h.1s1 1.6 3.1 1.6c2.3 0 4.4-2.1 4.4-5.1 0-3-2.1-5.1-4.4-5.1-2.1 0-3.1 1.6-3.1 1.6h-.1v-1.4h-2.7v14zm5.1-6.5c-1.4 0-2.5-1.1-2.5-2.6s1.1-2.6 2.5-2.6 2.5 1.1 2.5 2.6-1.1 2.6-2.5 2.6zm7.205 2.3h2.7v-4.6c0-1.6 1-2.6 2.3-2.6.6 0 .9.1.9.1V356h-.2c-1.9 0-2.9 1.6-2.9 1.6h-.1v-1.4h-2.7v9.8zm7.597 0h2.7v-9.8h-2.7v9.8zm-.2-12.6c0 .8.7 1.5 1.54 1.5.86 0 1.56-.7 1.56-1.5s-.7-1.5-1.54-1.5c-.86 0-1.56.7-1.56 1.5zm10.093 10.3c-1.4 0-2.5-1.1-2.5-2.6s1.1-2.6 2.5-2.6 2.5 1.1 2.5 2.6-1.1 2.6-2.5 2.6zm-5.2-2.6c0 2.8 2.3 5.1 5.2 5.1 2.9 0 5.2-2.3 5.2-5.1s-2.3-5.1-5.2-5.1c-2.9 0-5.2 2.3-5.2 5.1zm12.397 4.9h2.7v-4.6c0-1.6 1-2.6 2.3-2.6.6 0 .9.1.9.1V356h-.2c-1.9 0-2.9 1.6-2.9 1.6h-.1v-1.4h-2.7v9.8zm7.598 0h2.7v-9.8h-2.7v9.8zm-.2-12.6c0 .8.7 1.5 1.54 1.5.86 0 1.56-.7 1.56-1.5s-.7-1.5-1.54-1.5c-.86 0-1.56.7-1.56 1.5zm6.293 9.2c0 2.3 1.3 3.6 3.3 3.6 1 0 1.8-.3 1.8-.3v-2.5s-.5.2-1.1.2c-.8 0-1.3-.5-1.3-1.4v-3.3h2.2v-2.5h-2.2v-3h-2.4v1.8c0 .8-.4 1.2-1.1 1.2h-.9v2.5h1.7v3.7zm6.412 7.3s.8.3 1.8.3c1.8 0 2.98-1.2 3.8-3.4l4-10.6h-2.9l-2.2 6.5h-.1l-2.3-6.5h-2.9l3.8 9.7-.2.5c-.28.7-.8 1.2-1.7 1.2-.6 0-1.1-.2-1.1-.2v2.5zm15.895-8.2c0-2.4 3.9-2.4 3.9-5.8 0-2.2-1.9-4.1-5-4.1-4 0-5.1 3.3-5.1 3.3l2.6 1.2s.7-1.6 2.5-1.6c1.1 0 1.8.7 1.8 1.4 0 1.6-3.5 2-3.5 4.7 0 .5.2.9.2.9h2.6zm-3 2.9c0 .9.7 1.6 1.6 1.6.9 0 1.6-.7 1.6-1.6 0-.9-.7-1.6-1.6-1.6-.9 0-1.6.7-1.6 1.6z" class="Step Title"/>
        <path fill="#25272E" d="M16.72 397.48s1.2 1.68 3.76 1.68c2.4 0 3.76-1.36 3.76-3.2 0-4-6.08-2.4-6.08-5.28 0-1.008.864-1.92 2.4-1.92 1.664 0 2.48 1.12 2.48 1.12l.8-.8s-1.136-1.44-3.28-1.44c-2.224 0-3.6 1.408-3.6 3.04 0 4 6.08 2.4 6.08 5.28 0 1.2-.88 2.08-2.56 2.08-2.08 0-3.04-1.376-3.04-1.376l-.72.816zm9.607 4.88h1.12v-4.48s.88 1.28 2.64 1.28c2.08 0 3.76-1.68 3.76-4 0-2.32-1.68-4-3.76-4-1.76 0-2.64 1.28-2.64 1.28v-1.12h-1.12v11.04zm3.76-4.24c-1.36 0-2.64-1.28-2.64-2.96s1.28-2.96 2.64-2.96c1.44 0 2.64 1.2 2.64 2.96s-1.2 2.96-2.64 2.96zm11.515-1.28s-.863 1.28-2.48 1.28c-1.44 0-2.64-1.2-2.72-2.56l6.24.016s.08-.256.08-.576c0-2.24-1.6-3.84-3.68-3.84-2 0-3.76 1.76-3.76 4s1.76 4 3.84 4 3.2-1.6 3.2-1.6l-.72-.72zm-5.2-2.24c.16-1.28 1.28-2.4 2.64-2.4s2.4 1.04 2.56 2.4h-5.2zm8.316 4.4h1.12v-4.24c0-1.52 1.04-2.56 2.4-2.56 1.2 0 2.08.88 2.08 2.24V399h1.12v-4.56c0-2-1.28-3.28-3.12-3.28-1.68 0-2.48 1.28-2.48 1.28v-1.12h-1.12V399zm15.12 0h1.12v-11.2h-1.12v4.64s-.88-1.28-2.64-1.28c-2.08 0-3.76 1.68-3.76 4 0 2.32 1.68 4 3.76 4 1.76 0 2.64-1.28 2.64-1.28V399zm-2.64-.88c-1.44 0-2.64-1.2-2.64-2.96s1.2-2.96 2.64-2.96c1.36 0 2.64 1.28 2.64 2.96s-1.28 2.96-2.64 2.96zm6.234-9.36c0 .4.32.72.72.72.4 0 .72-.32.72-.72 0-.4-.32-.72-.72-.72-.4 0-.72.32-.72.72zm.16 10.24h1.12v-7.68h-1.12V399zm3.688 0h1.12v-4.24c0-1.52 1.04-2.56 2.4-2.56 1.2 0 2.08.88 2.08 2.24V399H74v-4.56c0-2-1.28-3.28-3.12-3.28-1.68 0-2.48 1.28-2.48 1.28v-1.12h-1.12V399zm9.041 1.76s1.04 1.6 3.2 1.6c2.08 0 3.76-1.68 3.76-3.84v-7.2h-1.12v1.04s-.72-1.2-2.56-1.2c-2 0-3.6 1.68-3.6 3.84s1.6 3.84 3.6 3.84c1.84 0 2.56-1.2 2.56-1.2v.88c0 1.6-1.2 2.8-2.64 2.8-1.6 0-2.48-1.28-2.48-1.28l-.72.72zm3.28-2.96c-1.36 0-2.48-1.2-2.48-2.8 0-1.6 1.12-2.8 2.48-2.8 1.44 0 2.56 1.2 2.56 2.8 0 1.6-1.12 2.8-2.56 2.8zm9.6 1.2h1.12v-4.24c0-1.6.96-2.56 2.08-2.56s1.92.8 1.92 2.24V399h1.12v-4.24c0-1.6.96-2.56 2.08-2.56s1.92.784 1.92 2.24V399h1.121v-4.56c0-2.144-1.28-3.28-2.96-3.28-1.92 0-2.64 1.36-2.64 1.36s-.64-1.36-2.48-1.36c-1.52 0-2.16 1.12-2.16 1.12v-.96h-1.12V399zm17.283.16c2.16 0 3.92-1.76 3.92-4s-1.76-4-3.92-4-3.92 1.76-3.92 4 1.76 4 3.92 4zm0-1.04c-1.52 0-2.8-1.296-2.8-2.96 0-1.68 1.28-2.96 2.8-2.96 1.52 0 2.8 1.28 2.8 2.96s-1.28 2.96-2.8 2.96zm5.921.88h1.12v-4.24c0-1.52 1.12-2.48 2.4-2.48h.48v-1.12h-.32c-1.76 0-2.56 1.2-2.56 1.2v-1.04h-1.12V399zm11.119-2.16s-.864 1.28-2.48 1.28c-1.44 0-2.64-1.2-2.72-2.56l6.24.016s.08-.256.08-.576c0-2.24-1.6-3.84-3.68-3.84-2 0-3.76 1.76-3.76 4s1.76 4 3.84 4 3.2-1.6 3.2-1.6l-.72-.72zm-5.2-2.24c.16-1.28 1.28-2.4 2.64-2.4s2.4 1.04 2.56 2.4h-5.2zm11.675 1.2c0 2 1.36 3.36 3.12 3.36 1.68 0 2.48-1.2 2.48-1.2V399h1.12v-7.68h-1.12v4.24c0 1.52-1.04 2.56-2.32 2.56-1.2 0-2.16-.96-2.16-2.32v-4.48h-1.12v4.48zm9.359 6.56h1.12v-4.48s.88 1.28 2.64 1.28c2.08 0 3.76-1.68 3.76-4 0-2.32-1.68-4-3.76-4-1.76 0-2.64 1.28-2.64 1.28v-1.12h-1.12v11.04zm3.76-4.24c-1.36 0-2.64-1.28-2.64-2.96s1.28-2.96 2.64-2.96c1.44 0 2.64 1.2 2.64 2.96s-1.2 2.96-2.64 2.96zm9.515.88h1.12v-6.64h1.84v-1.04h-1.84v-1.44c0-.8.4-1.2 1.04-1.2.56 0 1.04.24 1.04.24v-1.04s-.48-.24-1.12-.24c-1.28 0-2.08.8-2.08 2.24v1.44h-1.2v1.04h1.2V399zm4.725 0h1.12v-4.24c0-1.52 1.12-2.48 2.4-2.48h.48v-1.12h-.32c-1.76 0-2.56 1.2-2.56 1.2v-1.04h-1.12V399zm8.72.16c2.16 0 3.92-1.76 3.92-4s-1.76-4-3.92-4-3.92 1.76-3.92 4 1.76 4 3.92 4zm0-1.04c-1.52 0-2.8-1.296-2.8-2.96 0-1.68 1.28-2.96 2.8-2.96 1.52 0 2.8 1.28 2.8 2.96s-1.28 2.96-2.8 2.96zm5.921.88h1.12v-4.24c0-1.52 1.04-2.56 2.4-2.56 1.2 0 2.08.88 2.08 2.24V399h1.12v-4.56c0-2-1.28-3.28-3.12-3.28-1.68 0-2.48 1.28-2.48 1.28v-1.12h-1.12V399zm9.765-2.08c0 1.44.8 2.24 2.112 2.24.608 0 1.088-.24 1.088-.24v-1.04s-.48.24-1.04.24c-.64 0-1.04-.4-1.04-1.2v-4.56h1.68v-1.04h-1.68v-2.56h-1.04v1.76c0 .56-.24.8-.64.8h-.88v1.04h1.44v4.56zm14.165-.08s-.88 1.28-2.4 1.28c-1.44 0-2.72-1.28-2.72-2.96s1.28-2.96 2.72-2.96c1.52 0 2.32 1.28 2.32 1.28l.8-.8s-1.12-1.52-3.12-1.52c-2.08 0-3.84 1.76-3.84 4s1.76 4 3.84 4c2 0 3.2-1.6 3.2-1.6l-.8-.72zm7.194 2.16h1.12v-4.88c0-1.68-1.28-2.96-3.04-2.96-1.84 0-2.88 1.44-2.88 1.44l.72.72s.8-1.12 2.16-1.12c1.12 0 1.92.8 1.92 1.92l-2.96.48c-1.44.24-2.24 1.04-2.24 2.32 0 1.12 1.12 2.24 2.72 2.24 1.68 0 2.48-1.2 2.48-1.2V399zm0-3.44c0 1.52-1.04 2.56-2.48 2.56-1.04 0-1.6-.56-1.6-1.2 0-.72.48-1.184 1.44-1.36l2.64-.48v.48zm3.673 3.44h1.12v-4.24c0-1.52 1.04-2.56 2.4-2.56 1.2 0 2.08.88 2.08 2.24V399h1.12v-4.56c0-2-1.28-3.28-3.12-3.28-1.68 0-2.48 1.28-2.48 1.28v-1.12h-1.12V399zm12.64 3.36h1.12v-4.48s.88 1.28 2.64 1.28c2.08 0 3.76-1.68 3.76-4 0-2.32-1.68-4-3.76-4-1.76 0-2.64 1.28-2.64 1.28v-1.12h-1.12v11.04zm3.76-4.24c-1.36 0-2.64-1.28-2.64-2.96s1.28-2.96 2.64-2.96c1.44 0 2.64 1.2 2.64 2.96s-1.2 2.96-2.64 2.96zm5.756.88h1.12v-4.24c0-1.52 1.12-2.48 2.4-2.48h.48v-1.12h-.32c-1.76 0-2.56 1.2-2.56 1.2v-1.04h-1.12V399zm8.719.16c2.16 0 3.92-1.76 3.92-4s-1.76-4-3.92-4-3.92 1.76-3.92 4 1.76 4 3.92 4zm0-1.04c-1.52 0-2.8-1.296-2.8-2.96 0-1.68 1.28-2.96 2.8-2.96 1.52 0 2.8 1.28 2.8 2.96s-1.28 2.96-2.8 2.96zm6.562-1.2c0 1.44.8 2.24 2.112 2.24.608 0 1.088-.24 1.088-.24v-1.04s-.48.24-1.04.24c-.64 0-1.04-.4-1.04-1.2v-4.56h1.68v-1.04h-1.68v-2.56h-1.041v1.76c0 .56-.239.8-.639.8h-.88v1.04h1.44v4.56zm10.729-.08s-.864 1.28-2.48 1.28c-1.44 0-2.64-1.2-2.72-2.56l6.24.016s.08-.256.08-.576c0-2.24-1.6-3.84-3.68-3.84-2 0-3.76 1.76-3.76 4s1.76 4 3.84 4 3.2-1.6 3.2-1.6l-.72-.72zm-5.2-2.24c.16-1.28 1.28-2.4 2.64-2.4s2.4 1.04 2.56 2.4h-5.2zm13.995 2.24s-.88 1.28-2.4 1.28c-1.44 0-2.72-1.28-2.72-2.96s1.28-2.96 2.72-2.96c1.52 0 2.32 1.28 2.32 1.28l.8-.8s-1.12-1.52-3.12-1.52c-2.08 0-3.84 1.76-3.84 4s1.76 4 3.84 4c2 0 3.2-1.6 3.2-1.6l-.8-.72zm3.194.08c0 1.44.8 2.24 2.112 2.24.608 0 1.088-.24 1.088-.24v-1.04s-.48.24-1.04.24c-.64 0-1.04-.4-1.04-1.2v-4.56h1.68v-1.04h-1.68v-2.56h-1.04v1.76c0 .56-.24.8-.64.8h-.88v1.04h1.44v4.56zm7.613 5.28s.4.16.96.16c1.12 0 1.76-.64 2.4-2.24l3.52-8.8h-1.2l-2.48 6.24-2.48-6.24h-1.2l3.12 7.68-.4 1.12c-.288.8-.72 1.2-1.44 1.2-.4 0-.8-.16-.8-.16v1.04zm11.764-3.04c2.16 0 3.92-1.76 3.92-4s-1.76-4-3.92-4-3.92 1.76-3.92 4 1.76 4 3.92 4zm0-1.04c-1.52 0-2.8-1.296-2.8-2.96 0-1.68 1.28-2.96 2.8-2.96 1.52 0 2.8 1.28 2.8 2.96s-1.28 2.96-2.8 2.96zm5.921-2.32c0 2 1.36 3.36 3.12 3.36 1.68 0 2.48-1.2 2.48-1.2V399h1.12v-7.68h-1.12v4.24c0 1.52-1.04 2.56-2.32 2.56-1.2 0-2.16-.96-2.16-2.32v-4.48h-1.12v4.48zm13.119 3.2h1.12v-6.64h1.84v-1.04h-1.84v-1.44c0-.8.4-1.2 1.04-1.2.56 0 1.04.24 1.04.24v-1.04s-.48-.24-1.12-.24c-1.28 0-2.08.8-2.08 2.24v1.44h-1.2v1.04h1.2V399zm4.725 0h1.12v-4.24c0-1.52 1.12-2.48 2.4-2.48h.48v-1.12h-.32c-1.76 0-2.56 1.2-2.56 1.2v-1.04h-1.12V399zm8.719.16c2.16 0 3.92-1.76 3.92-4s-1.76-4-3.92-4-3.92 1.76-3.92 4 1.76 4 3.92 4zm0-1.04c-1.52 0-2.8-1.296-2.8-2.96 0-1.68 1.28-2.96 2.8-2.96 1.52 0 2.8 1.28 2.8 2.96s-1.28 2.96-2.8 2.96zm5.921.88h1.12v-4.24c0-1.6.96-2.56 2.08-2.56s1.92.8 1.92 2.24V399h1.12v-4.24c0-1.6.96-2.56 2.08-2.56s1.92.784 1.92 2.24V399h1.12v-4.56c0-2.144-1.28-3.28-2.96-3.28-1.92 0-2.64 1.36-2.64 1.36s-.64-1.36-2.48-1.36c-1.52 0-2.16 1.12-2.16 1.12v-.96h-1.12V399zM16.56 421.8s.88 1.36 2.8 1.36c1.76 0 2.8-1.04 2.8-2.32 0-2.72-4.16-1.84-4.16-3.52 0-.56.56-1.12 1.44-1.12 1.12 0 1.68.8 1.68.8l.8-.8s-.88-1.04-2.48-1.04c-1.52 0-2.56 1.04-2.56 2.16 0 2.64 4.16 1.76 4.16 3.52 0 .72-.56 1.28-1.68 1.28-1.28 0-2-1.12-2-1.12l-.8.8zm7.675 1.2h1.12v-2.16l1.52-1.6 2.72 3.76h1.28l-3.28-4.56 2.96-3.12h-1.36l-3.84 4.08v-7.6h-1.12V423zm7.516 3.2s.4.16.96.16c1.12 0 1.76-.64 2.4-2.24l3.52-8.8h-1.2l-2.48 6.24-2.48-6.24h-1.2l3.12 7.68-.4 1.12c-.288.8-.72 1.2-1.44 1.2-.4 0-.8-.16-.8-.16v1.04zm7.844-7.44h4.88v-1.04h-4.88v1.04zm6.953 4.24h1.12v-4.24c0-1.52 1.04-2.56 2.4-2.56 1.2 0 2.08.88 2.08 2.24V423h1.12v-4.56c0-2-1.28-3.28-3.12-3.28-1.68 0-2.48 1.28-2.48 1.28v-4.64h-1.12V423zm9.119-10.24c0 .4.32.72.72.72.4 0 .72-.32.72-.72 0-.4-.32-.72-.72-.72-.4 0-.72.32-.72.72zm.16 10.24h1.12v-7.68h-1.12V423zm3.447 1.76s1.04 1.6 3.2 1.6c2.08 0 3.76-1.68 3.76-3.84v-7.2h-1.12v1.04s-.72-1.2-2.56-1.2c-2 0-3.6 1.68-3.6 3.84s1.6 3.84 3.6 3.84c1.84 0 2.56-1.2 2.56-1.2v.88c0 1.6-1.2 2.8-2.64 2.8-1.6 0-2.48-1.28-2.48-1.28l-.72.72zm3.28-2.96c-1.36 0-2.48-1.2-2.48-2.8 0-1.6 1.12-2.8 2.48-2.8 1.44 0 2.56 1.2 2.56 2.8 0 1.6-1.12 2.8-2.56 2.8zm6.322 1.2h1.12v-4.24c0-1.52 1.04-2.56 2.4-2.56 1.2 0 2.08.88 2.08 2.24V423h1.12v-4.56c0-2-1.28-3.28-3.12-3.28-1.68 0-2.48 1.28-2.48 1.28v-4.64h-1.12V423zm12.638 0h1.12v-4.24c0-1.6.96-2.56 2.08-2.56s1.92.8 1.92 2.24V423h1.12v-4.24c0-1.6.96-2.56 2.08-2.56s1.92.784 1.92 2.24V423h1.12v-4.56c0-2.144-1.28-3.28-2.96-3.28-1.92 0-2.64 1.36-2.64 1.36s-.64-1.36-2.48-1.36c-1.52 0-2.16 1.12-2.16 1.12v-.96h-1.12V423zm19.682-2.16s-.864 1.28-2.48 1.28c-1.44 0-2.64-1.2-2.72-2.56l6.24.016s.08-.256.08-.576c0-2.24-1.6-3.84-3.68-3.84-2 0-3.76 1.76-3.76 4s1.76 4 3.84 4 3.2-1.6 3.2-1.6l-.72-.72zm-5.2-2.24c.16-1.28 1.28-2.4 2.64-2.4s2.4 1.04 2.56 2.4h-5.2zm14.155 4.4h1.12v-11.2h-1.12v4.64s-.88-1.28-2.64-1.28c-2.08 0-3.76 1.68-3.76 4 0 2.32 1.68 4 3.76 4 1.76 0 2.64-1.28 2.64-1.28V423zm-2.64-.88c-1.44 0-2.64-1.2-2.64-2.96s1.2-2.96 2.64-2.96c1.36 0 2.64 1.28 2.64 2.96s-1.28 2.96-2.64 2.96zm6.234-9.36c0 .4.32.72.72.72.4 0 .72-.32.72-.72 0-.4-.32-.72-.72-.72-.4 0-.72.32-.72.72zm.16 10.24h1.12v-7.68h-1.12V423zm9.368-2.16s-.88 1.28-2.4 1.28c-1.44 0-2.72-1.28-2.72-2.96s1.28-2.96 2.72-2.96c1.52 0 2.32 1.28 2.32 1.28l.8-.8s-1.12-1.52-3.12-1.52c-2.08 0-3.84 1.76-3.84 4s1.76 4 3.84 4c2 0 3.2-1.6 3.2-1.6l-.8-.72zm7.194 2.16h1.12v-4.88c0-1.68-1.28-2.96-3.04-2.96-1.84 0-2.88 1.44-2.88 1.44l.72.72s.8-1.12 2.16-1.12c1.12 0 1.92.8 1.92 1.92l-2.96.48c-1.44.24-2.24 1.04-2.24 2.32 0 1.12 1.12 2.24 2.72 2.24 1.68 0 2.48-1.2 2.48-1.2V423zm0-3.44c0 1.52-1.04 2.56-2.48 2.56-1.04 0-1.6-.56-1.6-1.2 0-.72.48-1.184 1.44-1.36l2.64-.48v.48zm3.752 3.44h1.12v-11.2h-1.12V423zm7.204 0h1.12v-1.12s.88 1.28 2.64 1.28c2.08 0 3.76-1.68 3.76-4 0-2.32-1.68-4-3.76-4-1.76 0-2.64 1.28-2.64 1.28v-4.64h-1.12V423zm3.76-.88c-1.36 0-2.64-1.28-2.64-2.96s1.28-2.96 2.64-2.96c1.44 0 2.64 1.2 2.64 2.96s-1.2 2.96-2.64 2.96zm5.593-9.36c0 .4.32.72.72.72.4 0 .72-.32.72-.72 0-.4-.32-.72-.72-.72-.4 0-.72.32-.72.72zm.16 10.24h1.12v-7.68h-1.12V423zm3.768 0h1.12v-11.2h-1.12V423zm3.844 0h1.12v-11.2h-1.12V423zm3.043-1.2s.88 1.36 2.8 1.36c1.76 0 2.8-1.04 2.8-2.32 0-2.72-4.16-1.84-4.16-3.52 0-.56.56-1.12 1.44-1.12 1.12 0 1.68.8 1.68.8l.8-.8s-.88-1.04-2.48-1.04c-1.52 0-2.56 1.04-2.56 2.16 0 2.64 4.16 1.76 4.16 3.52 0 .72-.56 1.28-1.68 1.28-1.28 0-2-1.12-2-1.12l-.8.8zm10.795-9.04c0 .4.32.72.72.72.4 0 .72-.32.72-.72 0-.4-.32-.72-.72-.72-.4 0-.72.32-.72.72zm.16 10.24h1.12v-7.68h-1.12V423zm3.687 0h1.12v-4.24c0-1.52 1.04-2.56 2.4-2.56 1.2 0 2.08.88 2.08 2.24V423h1.12v-4.56c0-2-1.28-3.28-3.12-3.28-1.68 0-2.48 1.28-2.48 1.28v-1.12h-1.12V423zm17.281 0h1.12v-4.88c0-1.68-1.28-2.96-3.04-2.96-1.84 0-2.88 1.44-2.88 1.44l.72.72s.8-1.12 2.16-1.12c1.12 0 1.92.8 1.92 1.92l-2.96.48c-1.44.24-2.24 1.04-2.24 2.32 0 1.12 1.12 2.24 2.72 2.24 1.68 0 2.48-1.2 2.48-1.2V423zm0-3.44c0 1.52-1.04 2.56-2.48 2.56-1.04 0-1.6-.56-1.6-1.2 0-.72.48-1.184 1.44-1.36l2.64-.48v.48zm8.319 3.44h1.04l1.92-5.84 1.92 5.84h1.04l2.64-7.68h-1.2l-2 5.92-1.92-5.92h-.96l-1.92 5.92-2-5.92h-1.2l2.64 7.68zm13.448.16c2.16 0 3.92-1.76 3.92-4s-1.76-4-3.92-4-3.92 1.76-3.92 4 1.76 4 3.92 4zm0-1.04c-1.52 0-2.8-1.296-2.8-2.96 0-1.68 1.28-2.96 2.8-2.96 1.52 0 2.8 1.28 2.8 2.96s-1.28 2.96-2.8 2.96zm5.921.88h1.12v-4.24c0-1.52 1.12-2.48 2.4-2.48h.48v-1.12h-.32c-1.76 0-2.56 1.2-2.56 1.2v-1.04h-1.12V423zm4.796-1.2s.88 1.36 2.8 1.36c1.76 0 2.8-1.04 2.8-2.32 0-2.72-4.16-1.84-4.16-3.52 0-.56.56-1.12 1.44-1.12 1.12 0 1.68.8 1.68.8l.8-.8s-.88-1.04-2.48-1.04c-1.52 0-2.56 1.04-2.56 2.16 0 2.64 4.16 1.76 4.16 3.52 0 .72-.56 1.28-1.68 1.28-1.28 0-2-1.12-2-1.12l-.8.8zm8.235-.88c0 1.44.8 2.24 2.112 2.24.608 0 1.088-.24 1.088-.24v-1.04s-.48.24-1.04.24c-.64 0-1.04-.4-1.04-1.2v-4.56h1.68v-1.04h-1.68v-2.56h-1.041v1.76c0 .56-.239.8-.639.8h-.88v1.04h1.44v4.56zm14.165-.08s-.88 1.28-2.4 1.28c-1.44 0-2.72-1.28-2.72-2.96s1.28-2.96 2.72-2.96c1.52 0 2.32 1.28 2.32 1.28l.8-.8s-1.12-1.52-3.12-1.52c-2.08 0-3.84 1.76-3.84 4s1.76 4 3.84 4c2 0 3.2-1.6 3.2-1.6l-.8-.72zm7.194 2.16h1.12v-4.88c0-1.68-1.28-2.96-3.04-2.96-1.84 0-2.88 1.44-2.88 1.44l.72.72s.8-1.12 2.16-1.12c1.12 0 1.92.8 1.92 1.92l-2.96.48c-1.44.24-2.24 1.04-2.24 2.32 0 1.12 1.12 2.24 2.72 2.24 1.68 0 2.48-1.2 2.48-1.2V423zm0-3.44c0 1.52-1.04 2.56-2.48 2.56-1.04 0-1.6-.56-1.6-1.2 0-.72.48-1.184 1.44-1.36l2.64-.48v.48zm2.952 2.24s.88 1.36 2.8 1.36c1.76 0 2.8-1.04 2.8-2.32 0-2.72-4.16-1.84-4.16-3.52 0-.56.56-1.12 1.44-1.12 1.12 0 1.68.8 1.68.8l.8-.8s-.88-1.04-2.48-1.04c-1.52 0-2.56 1.04-2.56 2.16 0 2.64 4.16 1.76 4.16 3.52 0 .72-.56 1.28-1.68 1.28-1.28 0-2-1.12-2-1.12l-.8.8zm13.355-.96s-.864 1.28-2.48 1.28c-1.44 0-2.64-1.2-2.72-2.56l6.24.016s.08-.256.08-.576c0-2.24-1.6-3.84-3.68-3.84-2 0-3.76 1.76-3.76 4s1.76 4 3.84 4 3.2-1.6 3.2-1.6l-.72-.72zm-5.2-2.24c.16-1.28 1.28-2.4 2.64-2.4s2.4 1.04 2.56 2.4h-5.2zm10.955 3.2s.88 1.36 2.8 1.36c1.76 0 2.8-1.04 2.8-2.32 0-2.72-4.16-1.84-4.16-3.52 0-.56.56-1.12 1.44-1.12 1.12 0 1.68.8 1.68.8l.8-.8s-.88-1.04-2.48-1.04c-1.52 0-2.56 1.04-2.56 2.16 0 2.64 4.16 1.76 4.16 3.52 0 .72-.56 1.28-1.68 1.28-1.28 0-2-1.12-2-1.12l-.8.8zm13.275-.96s-.88 1.28-2.4 1.28c-1.44 0-2.72-1.28-2.72-2.96s1.28-2.96 2.72-2.96c1.52 0 2.32 1.28 2.32 1.28l.8-.8s-1.12-1.52-3.12-1.52c-2.08 0-3.84 1.76-3.84 4s1.76 4 3.84 4c2 0 3.2-1.6 3.2-1.6l-.8-.72zm8.158 0s-.864 1.28-2.48 1.28c-1.44 0-2.64-1.2-2.72-2.56l6.24.016s.08-.256.08-.576c0-2.24-1.6-3.84-3.68-3.84-2 0-3.76 1.76-3.76 4s1.76 4 3.84 4 3.2-1.6 3.2-1.6l-.72-.72zm-5.2-2.24c.16-1.28 1.28-2.4 2.64-2.4s2.4 1.04 2.56 2.4h-5.2zm8.315 4.4h1.12v-4.24c0-1.52 1.04-2.56 2.4-2.56 1.2 0 2.08.88 2.08 2.24V423h1.12v-4.56c0-2-1.28-3.28-3.12-3.28-1.68 0-2.48 1.28-2.48 1.28v-1.12h-1.12V423zm13.921 0h1.12v-4.88c0-1.68-1.28-2.96-3.04-2.96-1.84 0-2.88 1.44-2.88 1.44l.72.72s.8-1.12 2.16-1.12c1.12 0 1.92.8 1.92 1.92l-2.96.48c-1.44.24-2.24 1.04-2.24 2.32 0 1.12 1.12 2.24 2.72 2.24 1.68 0 2.48-1.2 2.48-1.2V423zm0-3.44c0 1.52-1.04 2.56-2.48 2.56-1.04 0-1.6-.56-1.6-1.2 0-.72.48-1.184 1.44-1.36l2.64-.48v.48zm3.673 3.44h1.12v-4.24c0-1.52 1.12-2.48 2.4-2.48h.48v-1.12h-.32c-1.76 0-2.56 1.2-2.56 1.2v-1.04h-1.12V423zm5.355-10.24c0 .4.32.72.72.72.4 0 .72-.32.72-.72 0-.4-.32-.72-.72-.72-.4 0-.72.32-.72.72zm.16 10.24h1.12v-7.68h-1.12V423zm7.048.16c2.16 0 3.92-1.76 3.92-4s-1.76-4-3.92-4-3.92 1.76-3.92 4 1.76 4 3.92 4zm0-1.04c-1.52 0-2.8-1.296-2.8-2.96 0-1.68 1.28-2.96 2.8-2.96 1.52 0 2.8 1.28 2.8 2.96s-1.28 2.96-2.8 2.96z" class="Step Description"/>
      </g>
      <g class="Frame 806">
        <g class="Frame 808">
          <path fill="#fff" d="M16.5 478c0-8.837 7.163-16 16-16h310c8.837 0 16 7.163 16 16v56h-342v-56z"/>
          <g class="Low Prem">
            <circle cx="44.5" cy="498" r="12" fill="#F0FAFA" stroke="#678085" stroke-dasharray="1 4" stroke-linecap="round" stroke-width="1.5" class="Ellipse 102"/>
            <circle cx="44.5" cy="498" r="2" fill="#678085" class="Ellipse 101" opacity=".8"/>
          </g>
          <g class="Frame 1335">
            <path fill="#1F2533" d="M82.18 479.8v2.24h-5.84v2.64h4.56v2.24h-4.56V491h-2.4v-11.2h8.24zm1.122 1.12c0-.32.122-.597.368-.832.245-.245.538-.368.88-.368.33 0 .618.123.864.368.245.235.368.512.368.832 0 .32-.123.603-.368.848a1.227 1.227 0 01-.88.352c-.33 0-.619-.117-.864-.352a1.164 1.164 0 01-.368-.848zm2.32 2.24V491h-2.16v-7.84h2.16zm4.234 1.12h.08c.246-.352.566-.651.96-.896a2.494 2.494 0 011.36-.384c.534 0 1.019.139 1.456.416.438.267.784.651 1.04 1.152.256.491.384 1.061.384 1.712V491h-2.16v-4.4c0-.48-.128-.853-.384-1.12-.256-.267-.608-.4-1.056-.4a1.6 1.6 0 00-1.2.496c-.32.331-.48.752-.48 1.264V491h-2.16v-7.84h2.16v1.12zm12.876 5.6a3.218 3.218 0 01-1.008.912c-.427.245-.917.368-1.472.368-.619 0-1.2-.176-1.744-.528-.533-.352-.965-.837-1.296-1.456-.32-.619-.48-1.317-.48-2.096 0-.779.16-1.477.48-2.096.33-.619.763-1.104 1.296-1.456a3.154 3.154 0 011.744-.528c.555 0 1.045.128 1.472.384.427.245.763.544 1.008.896h.08v-4.48h2.16V491h-2.16v-1.12h-.08zm-1.84-.72c.565 0 1.04-.197 1.424-.592.384-.395.576-.891.576-1.488s-.192-1.093-.576-1.488a1.907 1.907 0 00-1.424-.592c-.565 0-1.04.197-1.424.592-.384.395-.576.891-.576 1.488s.192 1.093.576 1.488c.384.395.859.592 1.424.592zm14.249.88a3.19 3.19 0 01-.976.8 2.78 2.78 0 01-1.344.32c-.714 0-1.296-.208-1.744-.624-.437-.427-.656-.965-.656-1.616 0-.661.208-1.227.624-1.696.427-.469.992-.741 1.696-.816l2.48-.24a1.512 1.512 0 00-.432-.864 1.23 1.23 0 00-.928-.384 3.8 3.8 0 00-1.008.128c-.309.075-.56.165-.752.272l-1.28-1.28c.342-.288.79-.533 1.344-.736a5.373 5.373 0 011.856-.304c.651 0 1.232.139 1.744.416.512.267.907.64 1.184 1.12.288.469.432.997.432 1.584V491h-2.16v-.96h-.08zm-1.68-2.288c-.266.011-.48.101-.64.272a.822.822 0 00-.24.576c0 .245.08.443.24.592.171.139.411.208.72.208.502 0 .907-.133 1.216-.4.31-.267.464-.651.464-1.152v-.16l-1.76.064zm11.694-7.952V491h-2.16v-11.2h2.16zm1.686 7.28c0-.736.182-1.413.544-2.032a4.08 4.08 0 011.52-1.488 4.09 4.09 0 012.096-.56c.758 0 1.456.187 2.096.56.64.363 1.142.859 1.504 1.488.374.619.56 1.296.56 2.032s-.186 1.419-.56 2.048a4.097 4.097 0 01-1.504 1.488 4.174 4.174 0 01-2.096.544 4.176 4.176 0 01-2.096-.544 4.235 4.235 0 01-1.52-1.488 4.037 4.037 0 01-.544-2.048zm4.16 2.08c.566 0 1.04-.197 1.424-.592.384-.395.576-.891.576-1.488s-.192-1.093-.576-1.488a1.905 1.905 0 00-1.424-.592c-.565 0-1.04.197-1.424.592-.384.395-.576.891-.576 1.488s.192 1.093.576 1.488c.384.395.859.592 1.424.592zm6.958-6l1.44 4.64h.08l1.52-4.64h1.76l1.52 4.64h.08l1.44-4.64h2.32l-2.752 7.84h-1.968l-1.488-4.56h-.064l-1.488 4.56h-1.968l-2.752-7.84h2.32zm16.647 1.12h.08c.203-.352.486-.651.848-.896.374-.256.811-.384 1.312-.384.555 0 1.03.133 1.424.4.395.256.694.576.896.96h.08a3.285 3.285 0 011.056-.96c.448-.267.95-.4 1.504-.4.512 0 .971.128 1.376.384.416.256.742.619.976 1.088.246.469.368 1.019.368 1.648V491h-2.16v-4.56c0-.437-.112-.773-.336-1.008-.224-.235-.538-.352-.944-.352-.448 0-.816.149-1.104.448-.277.288-.416.672-.416 1.152V491h-2.16v-4.56c0-.437-.112-.773-.336-1.008-.224-.235-.538-.352-.944-.352-.448 0-.816.149-1.104.448-.277.288-.416.672-.416 1.152V491h-2.16v-7.84h2.16v1.12zm11.517 2.8c0-.736.181-1.413.544-2.032a4.073 4.073 0 011.52-1.488 4.088 4.088 0 012.096-.56 4.09 4.09 0 012.096.56c.64.363 1.141.859 1.504 1.488.373.619.56 1.296.56 2.032s-.187 1.419-.56 2.048a4.105 4.105 0 01-1.504 1.488 4.176 4.176 0 01-2.096.544 4.174 4.174 0 01-2.096-.544 4.228 4.228 0 01-1.52-1.488 4.027 4.027 0 01-.544-2.048zm4.16 2.08c.565 0 1.04-.197 1.424-.592.384-.395.576-.891.576-1.488s-.192-1.093-.576-1.488a1.907 1.907 0 00-1.424-.592c-.566 0-1.04.197-1.424.592-.384.395-.576.891-.576 1.488s.192 1.093.576 1.488c.384.395.858.592 1.424.592zm7.917-4.88h.08c.245-.352.565-.651.96-.896a2.494 2.494 0 011.36-.384c.533 0 1.019.139 1.456.416a2.81 2.81 0 011.04 1.152c.256.491.384 1.061.384 1.712V491h-2.16v-4.4c0-.48-.128-.853-.384-1.12-.256-.267-.608-.4-1.056-.4a1.6 1.6 0 00-1.2.496c-.32.331-.48.752-.48 1.264V491h-2.16v-7.84h2.16v1.12zm6.479-.96h1.36v-2.4h2.16v2.4h1.92v2h-1.92v2.704c0 .352.091.613.272.784.182.171.438.256.768.256h.88V491h-1.44c-.821 0-1.466-.229-1.936-.688-.469-.459-.704-1.136-.704-2.032v-2.96h-1.36v-2zm9.367.96h.08c.245-.352.565-.651.96-.896a2.492 2.492 0 011.36-.384c.533 0 1.018.139 1.456.416a2.81 2.81 0 011.04 1.152c.256.491.384 1.061.384 1.712V491h-2.16v-4.4c0-.48-.128-.853-.384-1.12-.256-.267-.608-.4-1.056-.4a1.6 1.6 0 00-1.2.496c-.32.331-.48.752-.48 1.264V491h-2.16v-11.2h2.16v4.48zm9.593-4.48V491h-2.16v-11.2h2.16zm2.567 12.48c.65 0 1.104-.32 1.36-.96l.16-.4-3.04-7.76h2.32l1.84 5.2h.08l1.76-5.2h2.32l-3.2 8.48c-.342.907-.758 1.584-1.248 2.032-.491.459-1.088.688-1.792.688h-1.44v-2.08h.88zm13.291-8h.08a3.052 3.052 0 011.008-.896c.427-.256.917-.384 1.472-.384.619 0 1.195.176 1.728.528.544.352.976.837 1.296 1.456.331.619.496 1.317.496 2.096 0 .779-.165 1.477-.496 2.096a3.736 3.736 0 01-1.296 1.456 3.076 3.076 0 01-1.728.528c-.555 0-1.045-.123-1.472-.368a3.218 3.218 0 01-1.008-.912h-.08v4.48h-2.16v-11.2h2.16v1.12zm1.92 4.88c.565 0 1.04-.197 1.424-.592.384-.395.576-.891.576-1.488s-.192-1.093-.576-1.488a1.907 1.907 0 00-1.424-.592c-.565 0-1.04.197-1.424.592-.384.395-.576.891-.576 1.488s.192 1.093.576 1.488c.384.395.859.592 1.424.592zm7.924-5.12h.08c.149-.245.389-.453.72-.624.33-.171.746-.256 1.248-.256h.512v2.08h-.72c-.534 0-.976.192-1.328.576-.342.373-.512.875-.512 1.504V491h-2.16v-7.84h2.16v.88zm10.801 6.208c-.362.256-.837.475-1.423.656a6.902 6.902 0 01-1.936.256 4.174 4.174 0 01-2.096-.544 4.228 4.228 0 01-1.52-1.488 4.027 4.027 0 01-.544-2.048c0-.736.181-1.413.544-2.032a4.145 4.145 0 011.488-1.488 3.945 3.945 0 012.048-.56c.704 0 1.354.176 1.952.528a3.886 3.886 0 011.44 1.44c.352.597.528 1.248.528 1.952 0 .352-.027.672-.08.96h-5.68c.128.395.362.72.704.976.352.256.81.384 1.376.384.448 0 .848-.048 1.2-.144a3.65 3.65 0 00.88-.368l1.119 1.52zm-1.759-3.968a2.027 2.027 0 00-.672-.96c-.31-.267-.672-.4-1.088-.4-.416 0-.784.133-1.104.4-.31.256-.528.576-.656.96h3.52zm6.005-2h.08c.202-.352.485-.651.848-.896.373-.256.81-.384 1.312-.384.554 0 1.029.133 1.424.4.394.256.693.576.896.96h.08a3.265 3.265 0 011.056-.96 2.88 2.88 0 011.504-.4c.512 0 .97.128 1.376.384.416.256.741.619.976 1.088.245.469.368 1.019.368 1.648V491h-2.16v-4.56c0-.437-.112-.773-.336-1.008-.224-.235-.539-.352-.944-.352-.448 0-.816.149-1.104.448-.278.288-.416.672-.416 1.152V491h-2.16v-4.56c0-.437-.112-.773-.336-1.008-.224-.235-.539-.352-.944-.352-.448 0-.816.149-1.104.448-.278.288-.416.672-.416 1.152V491h-2.16v-7.84h2.16v1.12zm11.836-3.36c0-.32.122-.597.368-.832a1.2 1.2 0 01.88-.368c.33 0 .618.123.864.368.245.235.368.512.368.832 0 .32-.123.603-.368.848a1.229 1.229 0 01-.88.352c-.331 0-.619-.117-.864-.352a1.162 1.162 0 01-.368-.848zm2.32 2.24V491h-2.16v-7.84h2.16zm4.234 4.4c0 .48.128.853.384 1.12.256.267.608.4 1.056.4a1.6 1.6 0 001.2-.496c.32-.331.48-.752.48-1.264v-4.16h2.16V491h-2.16v-1.12h-.08a3.347 3.347 0 01-.976.912 2.498 2.498 0 01-1.344.368 2.74 2.74 0 01-1.456-.4 2.942 2.942 0 01-1.04-1.152c-.256-.501-.384-1.077-.384-1.728v-4.72h2.16v4.4zm9.516-3.28h.08c.202-.352.485-.651.848-.896.373-.256.81-.384 1.312-.384.554 0 1.029.133 1.424.4.394.256.693.576.896.96h.08a3.265 3.265 0 011.056-.96 2.88 2.88 0 011.504-.4c.512 0 .97.128 1.376.384.416.256.741.619.976 1.088.245.469.368 1.019.368 1.648V491h-2.16v-4.56c0-.437-.112-.773-.336-1.008-.224-.235-.539-.352-.944-.352-.448 0-.816.149-1.104.448-.278.288-.416.672-.416 1.152V491h-2.16v-4.56c0-.437-.112-.773-.336-1.008-.224-.235-.539-.352-.944-.352-.448 0-.816.149-1.104.448-.278.288-.416.672-.416 1.152V491h-2.16v-7.84h2.16v1.12z" class="Find a low monthly premium"/>
            <path fill="#70747D" d="M77.68 504.2c.597 0 1.134.135 1.61.406.485.271.863.639 1.134 1.106.27.467.406.989.406 1.568 0 .579-.135 1.101-.406 1.568-.27.467-.649.835-1.134 1.106a3.196 3.196 0 01-1.61.406h-2.66V514h-1.05v-9.8h3.71zm0 5.18c.635 0 1.143-.191 1.526-.574.383-.392.574-.901.574-1.526 0-.635-.191-1.143-.574-1.526-.383-.383-.891-.574-1.526-.574h-2.66v4.2h2.66zm8.682 3.71a2.686 2.686 0 01-.882.742 2.632 2.632 0 01-1.288.308c-.448 0-.854-.093-1.218-.28a2.264 2.264 0 01-.854-.728 1.695 1.695 0 01-.308-.952c0-.569.168-1.036.504-1.4.345-.364.83-.574 1.456-.63l2.59-.224c0-.327-.075-.635-.224-.924a1.655 1.655 0 00-.602-.686 1.45 1.45 0 00-.854-.266c-.392 0-.752.047-1.078.14-.327.093-.598.21-.812.35l-.63-.63c.28-.215.639-.397 1.078-.546a4.46 4.46 0 011.442-.224c.504 0 .956.117 1.358.35.41.224.728.532.952.924.233.392.35.831.35 1.316V514h-.98v-.91zm-2.31-2.1c-.411.037-.724.163-.938.378a1.101 1.101 0 00-.322.812c0 .299.121.551.364.756.252.196.597.294 1.036.294.653 0 1.176-.177 1.568-.532.401-.364.602-.868.602-1.512v-.42l-2.31.224zm5.186 5.04c.308 0 .56-.089.756-.266.206-.168.374-.429.504-.784l.35-.98-2.73-6.72h1.05l2.17 5.46 2.17-5.46h1.05l-3.08 7.7c-.28.709-.578 1.213-.896 1.512-.317.299-.718.448-1.204.448h-.84v-.91h.7zm12.465-1.89c-.626 0-1.2-.154-1.722-.462a3.541 3.541 0 01-1.246-1.274 3.457 3.457 0 01-.462-1.764c0-.644.154-1.232.462-1.764a3.433 3.433 0 011.246-1.26 3.257 3.257 0 011.722-.476 3.26 3.26 0 011.722.476c.522.308.938.728 1.246 1.26.308.532.462 1.12.462 1.764 0 .644-.154 1.232-.462 1.764a3.547 3.547 0 01-1.246 1.274 3.332 3.332 0 01-1.722.462zm0-.91c.438 0 .844-.112 1.218-.336a2.619 2.619 0 001.232-2.254c0-.476-.112-.91-.336-1.302a2.481 2.481 0 00-.896-.938 2.261 2.261 0 00-1.218-.35c-.439 0-.845.117-1.218.35a2.475 2.475 0 00-.896.938 2.578 2.578 0 00-.336 1.302 2.611 2.611 0 001.232 2.254c.373.224.779.336 1.218.336zm6.161-2.03c0 .392.084.742.252 1.05a1.9 1.9 0 00.686.728c.289.168.606.252.952.252.373 0 .714-.093 1.022-.28.308-.196.55-.462.728-.798.186-.345.28-.733.28-1.162v-3.71h.98V514h-.98v-.91a2.694 2.694 0 01-.882.742 2.635 2.635 0 01-1.288.308c-.514 0-.98-.121-1.4-.364a2.72 2.72 0 01-.98-1.05c-.234-.448-.35-.957-.35-1.526v-3.92h.98v3.92zm6.509-3.92h1.26v-2.24h.98v2.24h1.82v.91h-1.82v3.99c0 .336.075.574.224.714.159.131.387.196.686.196h.91v.91h-.952c-.588 0-1.045-.149-1.372-.448-.317-.299-.476-.756-.476-1.372v-3.99h-1.26v-.91zm11.83 6.86c-.626 0-1.2-.154-1.722-.462a3.539 3.539 0 01-1.246-1.274 3.457 3.457 0 01-.462-1.764c0-.644.154-1.232.462-1.764a3.43 3.43 0 011.246-1.26 3.255 3.255 0 011.722-.476 3.26 3.26 0 011.722.476c.522.308.938.728 1.246 1.26.308.532.462 1.12.462 1.764 0 .644-.154 1.232-.462 1.764a3.547 3.547 0 01-1.246 1.274 3.332 3.332 0 01-1.722.462zm0-.91c.438 0 .844-.112 1.218-.336a2.619 2.619 0 001.232-2.254c0-.476-.112-.91-.336-1.302a2.481 2.481 0 00-.896-.938 2.261 2.261 0 00-1.218-.35c-.439 0-.845.117-1.218.35a2.474 2.474 0 00-.896.938 2.578 2.578 0 00-.336 1.302 2.61 2.61 0 001.232 2.254c.373.224.779.336 1.218.336zm4.481-5.95h1.05v-1.26c0-.625.158-1.106.476-1.442.326-.345.774-.518 1.344-.518h.98v.91h-.91c-.29 0-.514.089-.672.266-.159.177-.238.439-.238.784v1.26h1.61v.91h-1.61V514h-.98v-5.81h-1.05v-.91zm9.309.98c.233-.308.55-.569.952-.784a2.737 2.737 0 011.358-.336 3.11 3.11 0 011.652.462c.504.299.9.714 1.19 1.246.298.532.448 1.129.448 1.792s-.15 1.26-.448 1.792c-.29.532-.686.952-1.19 1.26a3.18 3.18 0 01-1.652.448c-.504 0-.957-.107-1.358-.322a3 3 0 01-.952-.798v3.92h-.98v-9.66h.98v.98zm2.31 4.97a2.2 2.2 0 001.162-.322c.354-.224.634-.532.84-.924.205-.392.308-.84.308-1.344 0-.504-.103-.952-.308-1.344a2.277 2.277 0 00-.84-.91 2.135 2.135 0 00-1.162-.336c-.392 0-.77.117-1.134.35-.355.224-.64.537-.854.938a2.662 2.662 0 00-.322 1.302c0 .476.107.915.322 1.316.214.392.499.705.854.938.364.224.742.336 1.134.336zm7.976.91c-.626 0-1.2-.154-1.722-.462a3.539 3.539 0 01-1.246-1.274 3.457 3.457 0 01-.462-1.764c0-.644.154-1.232.462-1.764a3.43 3.43 0 011.246-1.26 3.255 3.255 0 011.722-.476 3.26 3.26 0 011.722.476c.522.308.938.728 1.246 1.26.308.532.462 1.12.462 1.764 0 .644-.154 1.232-.462 1.764a3.547 3.547 0 01-1.246 1.274 3.332 3.332 0 01-1.722.462zm0-.91c.438 0 .844-.112 1.218-.336a2.619 2.619 0 001.232-2.254c0-.476-.112-.91-.336-1.302a2.481 2.481 0 00-.896-.938 2.261 2.261 0 00-1.218-.35c-.439 0-.845.117-1.218.35a2.474 2.474 0 00-.896.938 2.578 2.578 0 00-.336 1.302 2.61 2.61 0 001.232 2.254c.373.224.779.336 1.218.336zm10.851-.49a4.029 4.029 0 01-1.218.994 3.19 3.19 0 01-1.582.406 3.256 3.256 0 01-1.68-.462 3.583 3.583 0 01-1.232-1.274 3.538 3.538 0 01-.448-1.764c0-.644.149-1.232.448-1.764a3.471 3.471 0 011.232-1.26 3.186 3.186 0 011.68-.476c.569 0 1.092.131 1.568.392.476.252.863.565 1.162.938l-.7.7a2.774 2.774 0 00-.854-.784 2.112 2.112 0 00-1.176-.336c-.42 0-.812.117-1.176.35a2.516 2.516 0 00-.882.938 2.662 2.662 0 00-.322 1.302c0 .476.107.915.322 1.316.224.392.518.705.882.938.364.224.756.336 1.176.336.439 0 .84-.107 1.204-.322.364-.224.663-.49.896-.798l.7.63zm2.585-8.54v6.65l3.36-3.57h1.19l-2.59 2.73 2.87 3.99h-1.12l-2.38-3.29-1.33 1.4V514h-.98v-9.8h.98zm11.62 8.792c-.299.317-.691.588-1.176.812a3.83 3.83 0 01-1.624.336 3.256 3.256 0 01-1.68-.462 3.583 3.583 0 01-1.232-1.274 3.538 3.538 0 01-.448-1.764c0-.635.149-1.218.448-1.75a3.477 3.477 0 011.218-1.274 2.996 2.996 0 011.624-.476 3.19 3.19 0 011.638.434c.495.289.882.691 1.162 1.204.28.504.42 1.078.42 1.722 0 .177-.023.345-.07.504l-5.46-.014c.019.392.14.761.364 1.106.224.345.513.621.868.826.355.205.737.308 1.148.308.467 0 .887-.084 1.26-.252.373-.168.677-.373.91-.616l.63.63zm-.63-2.842c-.075-.607-.322-1.106-.742-1.498a2.065 2.065 0 00-1.498-.602c-.383 0-.742.098-1.078.294a2.453 2.453 0 00-.84.77 2.344 2.344 0 00-.392 1.036h4.55zm2.026-2.87h1.26v-2.24h.98v2.24h1.82v.91h-1.82v3.99c0 .336.074.574.224.714.158.131.387.196.686.196h.91v.91h-.952c-.588 0-1.046-.149-1.372-.448-.318-.299-.476-.756-.476-1.372v-3.99h-1.26v-.91zm8.189 0h1.05v-1.26c0-.625.159-1.106.476-1.442.327-.345.775-.518 1.344-.518h.98v.91h-.91c-.289 0-.513.089-.672.266-.159.177-.238.439-.238.784v1.26h1.61v.91h-1.61V514h-.98v-5.81h-1.05v-.91zm8.124 6.86a3.332 3.332 0 01-1.722-.462 3.547 3.547 0 01-1.246-1.274 3.457 3.457 0 01-.462-1.764c0-.644.154-1.232.462-1.764a3.438 3.438 0 011.246-1.26 3.26 3.26 0 011.722-.476c.626 0 1.2.159 1.722.476a3.43 3.43 0 011.246 1.26c.308.532.462 1.12.462 1.764 0 .644-.154 1.232-.462 1.764a3.539 3.539 0 01-1.246 1.274 3.327 3.327 0 01-1.722.462zm0-.91c.439 0 .845-.112 1.218-.336a2.61 2.61 0 001.232-2.254c0-.476-.112-.91-.336-1.302a2.474 2.474 0 00-.896-.938 2.256 2.256 0 00-1.218-.35c-.438 0-.844.117-1.218.35a2.481 2.481 0 00-.896.938 2.578 2.578 0 00-.336 1.302 2.619 2.619 0 001.232 2.254c.374.224.78.336 1.218.336zm6.161-5.04c.178-.289.444-.537.798-.742.364-.205.798-.308 1.302-.308h.42v.98h-.42c-.373 0-.723.089-1.05.266a2.033 2.033 0 00-.77.77c-.186.327-.28.705-.28 1.134V514h-.98v-6.72h.98v.91zm7.698-.07a2.19 2.19 0 01.742-.686c.326-.196.709-.294 1.148-.294.522 0 .97.117 1.344.35.373.224.648.504.826.84.196-.336.49-.616.882-.84.401-.233.877-.35 1.428-.35.765 0 1.386.252 1.862.756.485.504.728 1.209.728 2.114V514h-.98v-3.99c0-.625-.154-1.106-.462-1.442-.308-.345-.714-.518-1.218-.518-.327 0-.63.093-.91.28-.28.177-.504.439-.672.784-.159.336-.238.728-.238 1.176V514h-.98v-3.99c0-.616-.154-1.097-.462-1.442-.308-.345-.714-.518-1.218-.518-.327 0-.63.093-.91.28-.28.177-.504.439-.672.784-.159.336-.238.728-.238 1.176V514h-.98v-6.72h.98v.84zm14.141 6.02a3.332 3.332 0 01-1.722-.462 3.547 3.547 0 01-1.246-1.274 3.457 3.457 0 01-.462-1.764c0-.644.154-1.232.462-1.764a3.438 3.438 0 011.246-1.26 3.26 3.26 0 011.722-.476c.626 0 1.2.159 1.722.476a3.43 3.43 0 011.246 1.26c.308.532.462 1.12.462 1.764 0 .644-.154 1.232-.462 1.764a3.539 3.539 0 01-1.246 1.274 3.327 3.327 0 01-1.722.462zm0-.91c.439 0 .845-.112 1.218-.336a2.61 2.61 0 001.232-2.254c0-.476-.112-.91-.336-1.302a2.474 2.474 0 00-.896-.938 2.256 2.256 0 00-1.218-.35c-.438 0-.844.117-1.218.35a2.481 2.481 0 00-.896.938 2.578 2.578 0 00-.336 1.302 2.619 2.619 0 001.232 2.254c.374.224.78.336 1.218.336zm5.251-.98c.187.271.434.504.742.7.308.187.644.28 1.008.28.476 0 .84-.103 1.092-.308.252-.215.378-.485.378-.812a.768.768 0 00-.392-.7c-.252-.159-.634-.313-1.148-.462-.457-.14-.826-.271-1.106-.392a2.029 2.029 0 01-.7-.56c-.196-.252-.294-.574-.294-.966 0-.327.094-.635.28-.924a2.16 2.16 0 01.798-.7 2.513 2.513 0 011.162-.266c.458 0 .873.089 1.246.266.383.177.691.392.924.644l-.7.7a1.723 1.723 0 00-.616-.49 1.727 1.727 0 00-.854-.21c-.373 0-.676.098-.91.294-.233.196-.35.425-.35.686 0 .289.122.509.364.658.243.14.621.285 1.134.434.458.14.826.275 1.106.406.29.131.532.327.728.588.206.252.308.583.308.994 0 .373-.098.714-.294 1.022-.196.308-.48.555-.854.742-.373.177-.807.266-1.302.266-.55 0-1.036-.112-1.456-.336a2.99 2.99 0 01-.994-.854l.7-.7zm5.246-4.97h1.26v-2.24h.98v2.24h1.82v.91h-1.82v3.99c0 .336.075.574.224.714.159.131.387.196.686.196h.91v.91h-.952c-.588 0-1.045-.149-1.372-.448-.317-.299-.476-.756-.476-1.372v-3.99h-1.26v-.91zm9.94.98a2.67 2.67 0 01.882-.784 2.452 2.452 0 011.288-.336c.532 0 1.003.117 1.414.35.42.233.742.569.966 1.008.233.429.35.933.35 1.512V514h-.98v-3.99c0-.588-.173-1.059-.518-1.414-.336-.364-.77-.546-1.302-.546-.392 0-.752.098-1.078.294a2.03 2.03 0 00-.756.784 2.444 2.444 0 00-.266 1.162V514h-.98v-9.8h.98v4.06zm12.809 4.732c-.299.317-.691.588-1.176.812a3.83 3.83 0 01-1.624.336 3.256 3.256 0 01-1.68-.462 3.583 3.583 0 01-1.232-1.274 3.538 3.538 0 01-.448-1.764c0-.635.149-1.218.448-1.75a3.477 3.477 0 011.218-1.274 2.996 2.996 0 011.624-.476 3.19 3.19 0 011.638.434c.495.289.882.691 1.162 1.204.28.504.42 1.078.42 1.722 0 .177-.023.345-.07.504l-5.46-.014c.019.392.14.761.364 1.106.224.345.513.621.868.826.355.205.737.308 1.148.308.467 0 .887-.084 1.26-.252.373-.168.677-.373.91-.616l.63.63zm-.63-2.842c-.075-.607-.322-1.106-.742-1.498a2.065 2.065 0 00-1.498-.602c-.383 0-.742.098-1.078.294a2.453 2.453 0 00-.84.77 2.344 2.344 0 00-.392 1.036h4.55zm6.786 2.94a2.694 2.694 0 01-.882.742 2.635 2.635 0 01-1.288.308c-.448 0-.854-.093-1.218-.28a2.261 2.261 0 01-.854-.728 1.69 1.69 0 01-.308-.952c0-.569.168-1.036.504-1.4.345-.364.83-.574 1.456-.63l2.59-.224c0-.327-.075-.635-.224-.924a1.658 1.658 0 00-.602-.686 1.451 1.451 0 00-.854-.266c-.392 0-.752.047-1.078.14-.327.093-.598.21-.812.35l-.63-.63c.28-.215.639-.397 1.078-.546a4.454 4.454 0 011.442-.224c.504 0 .956.117 1.358.35.41.224.728.532.952.924.233.392.35.831.35 1.316V514h-.98v-.91zm-2.31-2.1c-.411.037-.724.163-.938.378a1.1 1.1 0 00-.322.812c0 .299.121.551.364.756.252.196.597.294 1.036.294.653 0 1.176-.177 1.568-.532.401-.364.602-.868.602-1.512v-.42l-2.31.224zm6.163-6.79v9.8h-.98v-9.8h.98zm1.613 3.08h1.26v-2.24h.98v2.24h1.82v.91h-1.82v3.99c0 .336.075.574.224.714.159.131.388.196.686.196h.91v.91h-.952c-.588 0-1.045-.149-1.372-.448-.317-.299-.476-.756-.476-1.372v-3.99h-1.26v-.91zm6.795.98a2.69 2.69 0 01.882-.784 2.454 2.454 0 011.288-.336c.532 0 1.003.117 1.414.35.42.233.742.569.966 1.008.233.429.35.933.35 1.512V514h-.98v-3.99c0-.588-.173-1.059-.518-1.414-.336-.364-.77-.546-1.302-.546-.392 0-.751.098-1.078.294a2.044 2.044 0 00-.756.784 2.456 2.456 0 00-.266 1.162V514h-.98v-9.8h.98v4.06zm12.81 4.48a4.054 4.054 0 01-1.218.994 3.194 3.194 0 01-1.582.406 3.25 3.25 0 01-1.68-.462 3.574 3.574 0 01-1.232-1.274 3.538 3.538 0 01-.448-1.764c0-.644.149-1.232.448-1.764a3.463 3.463 0 011.232-1.26 3.181 3.181 0 011.68-.476c.569 0 1.092.131 1.568.392.476.252.863.565 1.162.938l-.7.7a2.785 2.785 0 00-.854-.784 2.117 2.117 0 00-1.176-.336c-.42 0-.812.117-1.176.35a2.516 2.516 0 00-.882.938 2.662 2.662 0 00-.322 1.302c0 .476.107.915.322 1.316.224.392.518.705.882.938.364.224.756.336 1.176.336.438 0 .84-.107 1.204-.322.364-.224.662-.49.896-.798l.7.63zm5.595.35a2.694 2.694 0 01-.882.742 2.635 2.635 0 01-1.288.308c-.448 0-.854-.093-1.218-.28a2.261 2.261 0 01-.854-.728 1.69 1.69 0 01-.308-.952c0-.569.168-1.036.504-1.4.345-.364.83-.574 1.456-.63l2.59-.224c0-.327-.075-.635-.224-.924a1.658 1.658 0 00-.602-.686 1.451 1.451 0 00-.854-.266c-.392 0-.752.047-1.078.14-.327.093-.598.21-.812.35l-.63-.63c.28-.215.639-.397 1.078-.546a4.454 4.454 0 011.442-.224c.504 0 .956.117 1.358.35.41.224.728.532.952.924.233.392.35.831.35 1.316V514h-.98v-.91zm-2.31-2.1c-.411.037-.724.163-.938.378a1.1 1.1 0 00-.322.812c0 .299.121.551.364.756.252.196.597.294 1.036.294.653 0 1.176-.177 1.568-.532.401-.364.602-.868.602-1.512v-.42l-2.31.224zm6.093-2.8c.177-.289.443-.537.798-.742.364-.205.798-.308 1.302-.308h.42v.98h-.42c-.373 0-.723.089-1.05.266a2.033 2.033 0 00-.77.77c-.187.327-.28.705-.28 1.134V514h-.98v-6.72h.98v.91zm9.379 4.802c-.298.317-.69.588-1.176.812a3.827 3.827 0 01-1.624.336 3.256 3.256 0 01-1.68-.462 3.583 3.583 0 01-1.232-1.274 3.548 3.548 0 01-.448-1.764 3.52 3.52 0 011.666-3.024 2.998 2.998 0 011.624-.476c.598 0 1.144.145 1.638.434.495.289.882.691 1.162 1.204.28.504.42 1.078.42 1.722 0 .177-.023.345-.07.504l-5.46-.014c.019.392.14.761.364 1.106.224.345.514.621.868.826.355.205.738.308 1.148.308.467 0 .887-.084 1.26-.252a2.87 2.87 0 00.91-.616l.63.63zm-.63-2.842c-.074-.607-.322-1.106-.742-1.498a2.064 2.064 0 00-1.498-.602c-.382 0-.742.098-1.078.294a2.453 2.453 0 00-.84.77 2.357 2.357 0 00-.392 1.036h4.55z" class="Pay out of pocket for most healthcare"/>
          </g>
        </g>
        <g class="Frame 813">
          <path fill="#fff" d="M17 538h341v72H17v-72z"/>
          <g class="Balance">
            <circle cx="45" cy="574" r="12" fill="#F0FAFA" class="Ellipse 102_2"/>
            <circle cx="45" cy="574" r="9" fill="#F0FAFA" stroke="#678085" stroke-dasharray="1 4" stroke-linecap="round" stroke-width="1.5" class="Ellipse 103"/>
            <circle cx="45" cy="574" r="3" fill="#678085" class="Ellipse 101_2" opacity=".8"/>
          </g>
          <g class="Frame 1335_2">
            <path fill="#1F2533" d="M78.16 555.8c.725 0 1.36.133 1.904.4.544.267.96.629 1.248 1.088a2.6 2.6 0 01.448 1.472c0 .576-.15 1.061-.448 1.456a2.538 2.538 0 01-1.072.864 3.172 3.172 0 011.472.976c.405.459.608 1.04.608 1.744a2.97 2.97 0 01-.464 1.616c-.31.491-.757.88-1.344 1.168-.576.277-1.253.416-2.032.416h-5.04v-11.2h4.72zm-.16 4.32c.395 0 .704-.101.928-.304.235-.213.352-.485.352-.816 0-.331-.117-.597-.352-.8-.224-.213-.533-.32-.928-.32h-2.16v2.24H78zm.32 4.8c.47 0 .837-.123 1.104-.368.277-.256.416-.587.416-.992s-.139-.731-.416-.976c-.267-.256-.635-.384-1.104-.384h-2.48v2.72h2.48zm10.087 1.12c-.245.309-.57.576-.976.8-.395.213-.843.32-1.344.32-.715 0-1.296-.208-1.744-.624-.438-.427-.656-.965-.656-1.616 0-.661.208-1.227.624-1.696.426-.469.992-.741 1.696-.816l2.48-.24a1.52 1.52 0 00-.432-.864 1.231 1.231 0 00-.928-.384c-.363 0-.699.043-1.008.128-.31.075-.56.165-.752.272l-1.28-1.28c.341-.288.79-.533 1.344-.736a5.368 5.368 0 011.856-.304c.65 0 1.232.139 1.744.416.512.267.906.64 1.184 1.12.288.469.432.997.432 1.584V567h-2.16v-.96h-.08zm-1.68-2.288c-.267.011-.48.101-.64.272a.822.822 0 00-.24.576c0 .245.08.443.24.592.17.139.41.208.72.208.501 0 .906-.133 1.216-.4.31-.267.464-.651.464-1.152v-.16l-1.76.064zm8.006-7.952V567h-2.16v-11.2h2.16zm6.486 10.24a3.19 3.19 0 01-.976.8c-.394.213-.842.32-1.344.32-.714 0-1.296-.208-1.744-.624-.437-.427-.656-.965-.656-1.616 0-.661.208-1.227.624-1.696.427-.469.992-.741 1.696-.816l2.48-.24a1.512 1.512 0 00-.432-.864 1.23 1.23 0 00-.928-.384c-.362 0-.698.043-1.008.128-.309.075-.56.165-.752.272l-1.28-1.28c.342-.288.79-.533 1.344-.736A5.368 5.368 0 01100.1 559c.651 0 1.232.139 1.744.416.512.267.907.64 1.184 1.12.288.469.432.997.432 1.584V567h-2.16v-.96h-.08zm-1.68-2.288c-.266.011-.48.101-.64.272a.822.822 0 00-.24.576c0 .245.08.443.24.592.171.139.411.208.72.208.502 0 .907-.133 1.216-.4.31-.267.464-.651.464-1.152v-.16l-1.76.064zm7.927-3.472h.08c.245-.352.565-.651.96-.896a2.492 2.492 0 011.36-.384c.533 0 1.018.139 1.456.416a2.81 2.81 0 011.04 1.152c.256.491.384 1.061.384 1.712V567h-2.16v-4.4c0-.48-.128-.853-.384-1.12-.256-.267-.608-.4-1.056-.4a1.6 1.6 0 00-1.2.496c-.32.331-.48.752-.48 1.264V567h-2.16v-7.84h2.16v1.12zm14.315 5.28c-.32.448-.762.827-1.328 1.136-.565.309-1.216.464-1.952.464a4.176 4.176 0 01-2.096-.544 4.235 4.235 0 01-1.52-1.488 4.037 4.037 0 01-.544-2.048c0-.736.182-1.413.544-2.032a4.08 4.08 0 011.52-1.488 4.09 4.09 0 012.096-.56c.736 0 1.387.155 1.952.464.566.309 1.008.688 1.328 1.136l-1.36 1.36a2.602 2.602 0 00-.832-.672 2.126 2.126 0 00-1.088-.288c-.565 0-1.04.197-1.424.592-.384.395-.576.891-.576 1.488s.192 1.093.576 1.488c.384.395.859.592 1.424.592.395 0 .758-.091 1.088-.272.342-.192.619-.421.832-.688l1.36 1.36zm8.236.688c-.362.256-.837.475-1.423.656a6.902 6.902 0 01-1.936.256 4.174 4.174 0 01-2.096-.544 4.228 4.228 0 01-1.52-1.488 4.027 4.027 0 01-.544-2.048c0-.736.181-1.413.544-2.032a4.145 4.145 0 011.488-1.488 3.945 3.945 0 012.048-.56c.704 0 1.354.176 1.952.528a3.886 3.886 0 011.44 1.44c.352.597.528 1.248.528 1.952 0 .352-.027.672-.08.96h-5.68c.128.395.362.72.704.976.352.256.81.384 1.376.384.448 0 .848-.048 1.2-.144a3.65 3.65 0 00.88-.368l1.119 1.52zm-1.759-3.968a2.027 2.027 0 00-.672-.96c-.31-.267-.672-.4-1.088-.4-.416 0-.784.133-1.104.4-.31.256-.528.576-.656.96h3.52zm7.052.8c0-.736.181-1.413.544-2.032a4.073 4.073 0 011.52-1.488 4.09 4.09 0 012.096-.56 4.09 4.09 0 012.096.56c.64.363 1.141.859 1.504 1.488.373.619.56 1.296.56 2.032s-.187 1.419-.56 2.048a4.105 4.105 0 01-1.504 1.488 4.176 4.176 0 01-2.096.544 4.176 4.176 0 01-2.096-.544 4.228 4.228 0 01-1.52-1.488 4.027 4.027 0 01-.544-2.048zm4.16 2.08c.565 0 1.04-.197 1.424-.592.384-.395.576-.891.576-1.488s-.192-1.093-.576-1.488a1.907 1.907 0 00-1.424-.592c-.565 0-1.04.197-1.424.592-.384.395-.576.891-.576 1.488s.192 1.093.576 1.488c.384.395.859.592 1.424.592zm7.918-1.6c0 .48.128.853.384 1.12.256.267.608.4 1.056.4a1.6 1.6 0 001.2-.496c.32-.331.48-.752.48-1.264v-4.16h2.16V567h-2.16v-1.12h-.08a3.36 3.36 0 01-.976.912 2.498 2.498 0 01-1.344.368 2.737 2.737 0 01-1.456-.4 2.934 2.934 0 01-1.04-1.152c-.256-.501-.384-1.077-.384-1.728v-4.72h2.16v4.4zm6.635-4.24h1.36v-2.4h2.16v2.4h1.92v2h-1.92v2.704c0 .352.091.613.272.784.181.171.437.256.768.256h.88V567h-1.44c-.821 0-1.467-.229-1.936-.688-.469-.459-.704-1.136-.704-2.032v-2.96h-1.36v-2zm12.974.96h.08c.203-.352.485-.651.848-.896.373-.256.811-.384 1.312-.384.555 0 1.029.133 1.424.4.395.256.693.576.896.96h.08a3.285 3.285 0 011.056-.96 2.88 2.88 0 011.504-.4c.512 0 .971.128 1.376.384.416.256.741.619.976 1.088.245.469.368 1.019.368 1.648V567h-2.16v-4.56c0-.437-.112-.773-.336-1.008-.224-.235-.539-.352-.944-.352-.448 0-.816.149-1.104.448-.277.288-.416.672-.416 1.152V567h-2.16v-4.56c0-.437-.112-.773-.336-1.008-.224-.235-.539-.352-.944-.352-.448 0-.816.149-1.104.448-.277.288-.416.672-.416 1.152V567h-2.16v-7.84h2.16v1.12zm12.24 8c.651 0 1.104-.32 1.36-.96l.16-.4-3.04-7.76h2.32l1.84 5.2h.08l1.76-5.2h2.32l-3.2 8.48c-.341.907-.757 1.584-1.248 2.032-.491.459-1.088.688-1.792.688h-1.44v-2.08h.88zm10.411-8.96h1.2v-.8c0-.907.235-1.611.704-2.112.48-.512 1.125-.768 1.936-.768.459 0 .885.08 1.28.24v2a1.649 1.649 0 00-.72-.16c-.32 0-.576.101-.768.304-.181.192-.272.464-.272.816v.48h5.04V567h-2.16v-5.68h-2.88V567h-2.16v-5.68h-1.2v-2zm6.08-2.4c0-.32.123-.597.368-.832.245-.245.539-.368.88-.368.331 0 .619.123.864.368.245.235.368.512.368.832 0 .32-.123.603-.368.848a1.227 1.227 0 01-.88.352c-.331 0-.619-.117-.864-.352a1.166 1.166 0 01-.368-.848zm6.644 3.36h.08c.245-.352.565-.651.96-.896a2.494 2.494 0 011.36-.384c.533 0 1.019.139 1.456.416a2.81 2.81 0 011.04 1.152c.256.491.384 1.061.384 1.712V567h-2.16v-4.4c0-.48-.128-.853-.384-1.12-.256-.267-.608-.4-1.056-.4a1.6 1.6 0 00-1.2.496c-.32.331-.48.752-.48 1.264V567h-2.16v-7.84h2.16v1.12zm11.676 5.76a3.214 3.214 0 01-.976.8c-.395.213-.843.32-1.344.32-.715 0-1.296-.208-1.744-.624-.438-.427-.656-.965-.656-1.616 0-.661.208-1.227.624-1.696.426-.469.992-.741 1.696-.816l2.48-.24a1.524 1.524 0 00-.432-.864 1.232 1.232 0 00-.928-.384 3.79 3.79 0 00-1.008.128c-.31.075-.56.165-.752.272l-1.28-1.28c.341-.288.789-.533 1.344-.736.554-.203 1.173-.304 1.856-.304.65 0 1.232.139 1.744.416.512.267.906.64 1.184 1.12.288.469.432.997.432 1.584V567h-2.16v-.96h-.08zm-1.68-2.288c-.267.011-.48.101-.64.272a.822.822 0 00-.24.576c0 .245.08.443.24.592.17.139.41.208.72.208.501 0 .906-.133 1.216-.4.309-.267.464-.651.464-1.152v-.16l-1.76.064zm7.926-3.472h.08c.245-.352.565-.651.96-.896a2.492 2.492 0 011.36-.384c.533 0 1.018.139 1.456.416a2.81 2.81 0 011.04 1.152c.256.491.384 1.061.384 1.712V567h-2.16v-4.4c0-.48-.128-.853-.384-1.12-.256-.267-.608-.4-1.056-.4a1.6 1.6 0 00-1.2.496c-.32.331-.48.752-.48 1.264V567h-2.16v-7.84h2.16v1.12zm14.315 5.28c-.32.448-.762.827-1.328 1.136-.565.309-1.216.464-1.952.464a4.176 4.176 0 01-2.096-.544 4.235 4.235 0 01-1.52-1.488 4.037 4.037 0 01-.544-2.048c0-.736.182-1.413.544-2.032a4.08 4.08 0 011.52-1.488 4.09 4.09 0 012.096-.56c.736 0 1.387.155 1.952.464.566.309 1.008.688 1.328 1.136l-1.36 1.36a2.602 2.602 0 00-.832-.672 2.126 2.126 0 00-1.088-.288c-.565 0-1.04.197-1.424.592-.384.395-.576.891-.576 1.488s.192 1.093.576 1.488c.384.395.859.592 1.424.592.395 0 .758-.091 1.088-.272.342-.192.619-.421.832-.688l1.36 1.36zm1.193-8.64c0-.32.123-.597.368-.832.245-.245.539-.368.88-.368.331 0 .619.123.864.368.245.235.368.512.368.832 0 .32-.123.603-.368.848a1.227 1.227 0 01-.88.352c-.331 0-.619-.117-.864-.352a1.166 1.166 0 01-.368-.848zm2.32 2.24V567h-2.16v-7.84h2.16zm6.394 6.88a3.19 3.19 0 01-.976.8 2.78 2.78 0 01-1.344.32c-.714 0-1.296-.208-1.744-.624-.437-.427-.656-.965-.656-1.616 0-.661.208-1.227.624-1.696.427-.469.992-.741 1.696-.816l2.48-.24a1.512 1.512 0 00-.432-.864 1.23 1.23 0 00-.928-.384 3.8 3.8 0 00-1.008.128c-.309.075-.56.165-.752.272l-1.28-1.28c.342-.288.79-.533 1.344-.736a5.373 5.373 0 011.856-.304c.651 0 1.232.139 1.744.416.512.267.907.64 1.184 1.12.288.469.432.997.432 1.584V567h-2.16v-.96h-.08zm-1.68-2.288c-.266.011-.48.101-.64.272a.822.822 0 00-.24.576c0 .245.08.443.24.592.171.139.411.208.72.208.502 0 .907-.133 1.216-.4.31-.267.464-.651.464-1.152v-.16l-1.76.064zm8.007-7.952V567h-2.16v-11.2h2.16zm8.013 4.24h.08c.15-.245.39-.453.72-.624.331-.171.747-.256 1.248-.256h.512v2.08h-.72c-.533 0-.976.192-1.328.576-.341.373-.512.875-.512 1.504V567h-2.16v-7.84h2.16v.88zm3.758-3.12c0-.32.123-.597.368-.832.246-.245.539-.368.88-.368.331 0 .619.123.864.368.246.235.368.512.368.832 0 .32-.122.603-.368.848a1.226 1.226 0 01-.88.352 1.21 1.21 0 01-.864-.352 1.166 1.166 0 01-.368-.848zm2.32 2.24V567h-2.16v-7.84h2.16zm2.555 5.2c.245.245.549.453.912.624.362.171.752.256 1.168.256.64 0 .96-.187.96-.56 0-.149-.102-.272-.304-.368-.192-.107-.502-.229-.928-.368a15.83 15.83 0 01-1.392-.544 3.02 3.02 0 01-.976-.752c-.267-.331-.4-.747-.4-1.248 0-.437.122-.837.368-1.2.245-.363.602-.651 1.072-.864.48-.224 1.04-.336 1.68-.336.65 0 1.237.117 1.76.352.533.235.96.517 1.28.848l-1.28 1.36a2.238 2.238 0 00-.752-.448 2.615 2.615 0 00-1.008-.192c-.267 0-.47.048-.608.144-.128.096-.192.208-.192.336 0 .149.096.277.288.384.202.096.517.213.944.352.554.192 1.018.379 1.392.56.373.171.693.421.96.752.277.32.416.731.416 1.232 0 .459-.128.88-.384 1.264-.246.373-.619.672-1.12.896-.491.213-1.083.32-1.776.32-.704 0-1.35-.139-1.936-.416-.587-.277-1.062-.619-1.424-1.024l1.28-1.36zm9.041-8.56v6.56l2.8-3.2h2.56l-2.88 3.28 3.04 4.56h-2.48l-2-3.04-1.04 1.2V567h-2.16v-11.2h2.16z" class="Balance out my financial risk"/>
            <path fill="#70747D" d="M77.25 580.2c.523 0 .99.112 1.4.336.42.224.747.527.98.91a2.4 2.4 0 01.35 1.274c0 .504-.112.929-.336 1.274-.215.345-.476.597-.784.756a2.88 2.88 0 011.134.938c.317.411.476.915.476 1.512 0 .532-.126 1.013-.378 1.442-.243.42-.593.751-1.05.994-.457.243-.985.364-1.582.364h-3.99v-9.8h3.78zm0 4.116c.523 0 .933-.14 1.232-.42.299-.289.448-.681.448-1.176 0-.457-.15-.826-.448-1.106-.299-.289-.71-.434-1.232-.434h-2.73v3.136h2.73zm.21 4.704c.588 0 1.06-.168 1.414-.504.364-.345.546-.784.546-1.316 0-.355-.084-.681-.252-.98a1.797 1.797 0 00-.686-.714 1.966 1.966 0 00-1.022-.266h-2.94v3.78h2.94zm9.03.07a2.686 2.686 0 01-.881.742 2.632 2.632 0 01-1.288.308c-.448 0-.855-.093-1.218-.28a2.264 2.264 0 01-.854-.728 1.695 1.695 0 01-.308-.952c0-.569.168-1.036.504-1.4.345-.364.83-.574 1.456-.63l2.59-.224c0-.327-.075-.635-.225-.924a1.655 1.655 0 00-.602-.686 1.45 1.45 0 00-.853-.266c-.393 0-.752.047-1.079.14-.326.093-.597.21-.811.35l-.63-.63c.28-.215.639-.397 1.078-.546a4.46 4.46 0 011.442-.224c.503 0 .956.117 1.357.35.411.224.728.532.953.924.233.392.35.831.35 1.316V590h-.98v-.91zm-2.31-2.1c-.41.037-.723.163-.938.378a1.101 1.101 0 00-.322.812c0 .299.122.551.364.756.252.196.598.294 1.036.294.654 0 1.177-.177 1.569-.532.4-.364.602-.868.602-1.512v-.42l-2.31.224zm6.164-6.79v9.8h-.98v-9.8h.98zm6.373 8.89a2.688 2.688 0 01-.882.742 2.633 2.633 0 01-1.288.308c-.448 0-.854-.093-1.218-.28a2.264 2.264 0 01-.854-.728 1.695 1.695 0 01-.308-.952c0-.569.168-1.036.504-1.4.345-.364.83-.574 1.456-.63l2.59-.224c0-.327-.075-.635-.224-.924a1.656 1.656 0 00-.602-.686 1.45 1.45 0 00-.854-.266c-.392 0-.751.047-1.078.14a2.98 2.98 0 00-.812.35l-.63-.63c.28-.215.64-.397 1.078-.546.439-.149.92-.224 1.442-.224.504 0 .957.117 1.358.35.41.224.728.532.952.924.233.392.35.831.35 1.316V590h-.98v-.91zm-2.31-2.1c-.41.037-.723.163-.938.378a1.1 1.1 0 00-.322.812c0 .299.121.551.364.756.252.196.597.294 1.036.294.653 0 1.176-.177 1.568-.532.401-.364.602-.868.602-1.512v-.42l-2.31.224zm6.093-2.73a2.69 2.69 0 01.882-.784 2.457 2.457 0 011.288-.336c.532 0 1.004.117 1.414.35.42.233.742.569.966 1.008.234.429.35.933.35 1.512V590h-.98v-3.99c0-.588-.172-1.059-.518-1.414-.336-.364-.77-.546-1.302-.546-.392 0-.751.098-1.078.294a2.044 2.044 0 00-.756.784 2.456 2.456 0 00-.266 1.162V590h-.98v-6.72h.98v.98zm12.811 4.48a4.029 4.029 0 01-1.218.994 3.188 3.188 0 01-1.582.406 3.256 3.256 0 01-1.68-.462 3.583 3.583 0 01-1.232-1.274 3.548 3.548 0 01-.448-1.764c0-.644.15-1.232.448-1.764a3.471 3.471 0 011.232-1.26 3.186 3.186 0 011.68-.476c.57 0 1.092.131 1.568.392.476.252.864.565 1.162.938l-.7.7a2.763 2.763 0 00-.854-.784 2.112 2.112 0 00-1.176-.336c-.42 0-.812.117-1.176.35a2.516 2.516 0 00-.882.938 2.673 2.673 0 00-.322 1.302c0 .476.108.915.322 1.316.224.392.518.705.882.938.364.224.756.336 1.176.336.439 0 .84-.107 1.204-.322.364-.224.663-.49.896-.798l.7.63zm7.069.252c-.299.317-.691.588-1.176.812a3.83 3.83 0 01-1.624.336 3.256 3.256 0 01-1.68-.462 3.583 3.583 0 01-1.232-1.274 3.538 3.538 0 01-.448-1.764c0-.635.149-1.218.448-1.75a3.477 3.477 0 011.218-1.274 2.996 2.996 0 011.624-.476 3.19 3.19 0 011.638.434c.495.289.882.691 1.162 1.204.28.504.42 1.078.42 1.722 0 .177-.023.345-.07.504l-5.46-.014c.019.392.14.761.364 1.106.224.345.513.621.868.826.355.205.737.308 1.148.308.467 0 .887-.084 1.26-.252.373-.168.677-.373.91-.616l.63.63zm-.63-2.842c-.075-.607-.322-1.106-.742-1.498a2.065 2.065 0 00-1.498-.602c-.383 0-.742.098-1.078.294a2.453 2.453 0 00-.84.77 2.344 2.344 0 00-.392 1.036h4.55zm6.85-2.03c.177-.271.425-.499.742-.686.327-.196.709-.294 1.148-.294.523 0 .971.117 1.344.35.373.224.649.504.826.84.196-.336.49-.616.882-.84.401-.233.877-.35 1.428-.35.765 0 1.386.252 1.862.756.485.504.728 1.209.728 2.114V590h-.98v-3.99c0-.625-.154-1.106-.462-1.442-.308-.345-.714-.518-1.218-.518-.327 0-.63.093-.91.28-.28.177-.504.439-.672.784-.159.336-.238.728-.238 1.176V590h-.98v-3.99c0-.616-.154-1.097-.462-1.442-.308-.345-.714-.518-1.218-.518-.327 0-.63.093-.91.28-.28.177-.504.439-.672.784-.159.336-.238.728-.238 1.176V590h-.98v-6.72h.98v.84zm14.142 6.02c-.626 0-1.2-.154-1.722-.462a3.539 3.539 0 01-1.246-1.274 3.457 3.457 0 01-.462-1.764c0-.644.154-1.232.462-1.764a3.43 3.43 0 011.246-1.26 3.255 3.255 0 011.722-.476 3.26 3.26 0 011.722.476c.522.308.938.728 1.246 1.26.308.532.462 1.12.462 1.764 0 .644-.154 1.232-.462 1.764a3.547 3.547 0 01-1.246 1.274 3.332 3.332 0 01-1.722.462zm0-.91c.438 0 .844-.112 1.218-.336a2.619 2.619 0 001.232-2.254c0-.476-.112-.91-.336-1.302a2.481 2.481 0 00-.896-.938 2.261 2.261 0 00-1.218-.35c-.439 0-.845.117-1.218.35a2.474 2.474 0 00-.896.938 2.578 2.578 0 00-.336 1.302 2.61 2.61 0 001.232 2.254c.373.224.779.336 1.218.336zm6.161-4.97a2.67 2.67 0 01.882-.784 2.452 2.452 0 011.288-.336c.532 0 1.003.117 1.414.35.42.233.742.569.966 1.008.233.429.35.933.35 1.512V590h-.98v-3.99c0-.588-.173-1.059-.518-1.414-.336-.364-.77-.546-1.302-.546-.392 0-.752.098-1.078.294a2.03 2.03 0 00-.756.784 2.444 2.444 0 00-.266 1.162V590h-.98v-6.72h.98v.98zm6.304-.98h1.26v-2.24h.98v2.24h1.82v.91h-1.82v3.99c0 .336.075.574.224.714.159.131.387.196.686.196h.91v.91h-.952c-.588 0-1.045-.149-1.372-.448-.317-.299-.476-.756-.476-1.372v-3.99h-1.26v-.91zm6.795.98a2.69 2.69 0 01.882-.784 2.454 2.454 0 011.288-.336c.532 0 1.003.117 1.414.35.42.233.742.569.966 1.008.233.429.35.933.35 1.512V590h-.98v-3.99c0-.588-.173-1.059-.518-1.414-.336-.364-.77-.546-1.302-.546-.392 0-.751.098-1.078.294a2.044 2.044 0 00-.756.784 2.456 2.456 0 00-.266 1.162V590h-.98v-9.8h.98v4.06zm8.189-4.06v9.8h-.98v-9.8h.98zm2.524 11.83c.308 0 .56-.089.756-.266.205-.168.373-.429.504-.784l.35-.98-2.73-6.72h1.05l2.17 5.46 2.17-5.46h1.05l-3.08 7.7c-.28.709-.579 1.213-.896 1.512-.318.299-.719.448-1.204.448h-.84v-.91h.7zm13.584-2.94a2.694 2.694 0 01-.882.742 2.633 2.633 0 01-1.288.308c-.448 0-.854-.093-1.218-.28a2.261 2.261 0 01-.854-.728 1.697 1.697 0 01-.308-.952c0-.569.168-1.036.504-1.4.345-.364.831-.574 1.456-.63l2.59-.224c0-.327-.075-.635-.224-.924a1.658 1.658 0 00-.602-.686 1.451 1.451 0 00-.854-.266 3.93 3.93 0 00-1.078.14 2.98 2.98 0 00-.812.35l-.63-.63c.28-.215.639-.397 1.078-.546a4.459 4.459 0 011.442-.224c.504 0 .957.117 1.358.35.411.224.728.532.952.924.233.392.35.831.35 1.316V590h-.98v-.91zm-2.31-2.1c-.411.037-.723.163-.938.378a1.1 1.1 0 00-.322.812c0 .299.121.551.364.756.252.196.597.294 1.036.294.653 0 1.176-.177 1.568-.532.401-.364.602-.868.602-1.512v-.42l-2.31.224zm6.093-2.73a2.69 2.69 0 01.882-.784 2.457 2.457 0 011.288-.336c.532 0 1.004.117 1.414.35.42.233.742.569.966 1.008.234.429.35.933.35 1.512V590h-.98v-3.99c0-.588-.172-1.059-.518-1.414-.336-.364-.77-.546-1.302-.546-.392 0-.751.098-1.078.294a2.044 2.044 0 00-.756.784 2.456 2.456 0 00-.266 1.162V590h-.98v-6.72h.98v.98zm12.252 4.76a3.023 3.023 0 01-.952.798 2.832 2.832 0 01-1.358.322 3.177 3.177 0 01-1.652-.448 3.39 3.39 0 01-1.204-1.26c-.29-.532-.434-1.129-.434-1.792s.144-1.26.434-1.792c.298-.532.7-.947 1.204-1.246a3.107 3.107 0 011.652-.462c.504 0 .956.112 1.358.336.401.215.718.476.952.784v-4.06h.98v9.8h-.98v-.98zm-2.31.21c.392 0 .765-.112 1.12-.336.364-.233.653-.546.868-.938.214-.401.322-.84.322-1.316 0-.476-.108-.91-.322-1.302a2.414 2.414 0 00-.868-.938 2.01 2.01 0 00-1.12-.35c-.42 0-.808.112-1.162.336a2.263 2.263 0 00-.84.91c-.206.392-.308.84-.308 1.344 0 .504.102.952.308 1.344.205.392.485.7.84.924.354.215.742.322 1.162.322zm9.719-5.11a2.19 2.19 0 01.742-.686c.326-.196.709-.294 1.148-.294.522 0 .97.117 1.344.35.373.224.648.504.826.84.196-.336.49-.616.882-.84.401-.233.877-.35 1.428-.35.765 0 1.386.252 1.862.756.485.504.728 1.209.728 2.114V590h-.98v-3.99c0-.625-.154-1.106-.462-1.442-.308-.345-.714-.518-1.218-.518-.327 0-.63.093-.91.28-.28.177-.504.439-.672.784-.159.336-.238.728-.238 1.176V590h-.98v-3.99c0-.616-.154-1.097-.462-1.442-.308-.345-.714-.518-1.218-.518-.327 0-.63.093-.91.28-.28.177-.504.439-.672.784-.159.336-.238.728-.238 1.176V590h-.98v-6.72h.98v.84zm15.261 4.97a2.673 2.673 0 01-.882.742 2.63 2.63 0 01-1.288.308c-.448 0-.854-.093-1.218-.28a2.269 2.269 0 01-.854-.728 1.697 1.697 0 01-.308-.952c0-.569.168-1.036.504-1.4.346-.364.831-.574 1.456-.63l2.59-.224c0-.327-.074-.635-.224-.924a1.651 1.651 0 00-.602-.686 1.45 1.45 0 00-.854-.266 3.93 3.93 0 00-1.078.14c-.326.093-.597.21-.812.35l-.63-.63c.28-.215.64-.397 1.078-.546.439-.149.92-.224 1.442-.224.504 0 .957.117 1.358.35.411.224.728.532.952.924.234.392.35.831.35 1.316V590h-.98v-.91zm-2.31-2.1c-.41.037-.723.163-.938.378a1.103 1.103 0 00-.322.812c0 .299.122.551.364.756.252.196.598.294 1.036.294.654 0 1.176-.177 1.568-.532.402-.364.602-.868.602-1.512v-.42l-2.31.224zm4.414-3.71h1.19l1.75 2.45 1.75-2.45h1.19l-2.31 3.22 2.52 3.5h-1.19l-1.96-2.73-1.96 2.73h-1.19l2.52-3.5-2.31-3.22zm14.357 5.81a2.694 2.694 0 01-.882.742 2.633 2.633 0 01-1.288.308c-.448 0-.854-.093-1.218-.28a2.261 2.261 0 01-.854-.728 1.697 1.697 0 01-.308-.952c0-.569.168-1.036.504-1.4.345-.364.831-.574 1.456-.63l2.59-.224c0-.327-.075-.635-.224-.924a1.658 1.658 0 00-.602-.686 1.451 1.451 0 00-.854-.266 3.93 3.93 0 00-1.078.14 2.98 2.98 0 00-.812.35l-.63-.63c.28-.215.639-.397 1.078-.546a4.459 4.459 0 011.442-.224c.504 0 .957.117 1.358.35.411.224.728.532.952.924.233.392.35.831.35 1.316V590h-.98v-.91zm-2.31-2.1c-.411.037-.723.163-.938.378a1.1 1.1 0 00-.322.812c0 .299.121.551.364.756.252.196.597.294 1.036.294.653 0 1.176-.177 1.568-.532.401-.364.602-.868.602-1.512v-.42l-2.31.224zm6.093-2.73a2.69 2.69 0 01.882-.784 2.457 2.457 0 011.288-.336c.532 0 1.004.117 1.414.35.42.233.742.569.966 1.008.234.429.35.933.35 1.512V590h-.98v-3.99c0-.588-.172-1.059-.518-1.414-.336-.364-.77-.546-1.302-.546-.392 0-.751.098-1.078.294a2.044 2.044 0 00-.756.784 2.456 2.456 0 00-.266 1.162V590h-.98v-6.72h.98v.98zm8.122 0a2.67 2.67 0 01.882-.784 2.452 2.452 0 011.288-.336c.532 0 1.003.117 1.414.35.42.233.742.569.966 1.008.233.429.35.933.35 1.512V590h-.98v-3.99c0-.588-.173-1.059-.518-1.414-.336-.364-.77-.546-1.302-.546-.392 0-.752.098-1.078.294a2.03 2.03 0 00-.756.784 2.444 2.444 0 00-.266 1.162V590h-.98v-6.72h.98v.98zm8.121 2.94c0 .392.084.742.252 1.05a1.9 1.9 0 00.686.728c.289.168.606.252.952.252.373 0 .714-.093 1.022-.28.308-.196.55-.462.728-.798.186-.345.28-.733.28-1.162v-3.71h.98V590h-.98v-.91a2.694 2.694 0 01-.882.742 2.635 2.635 0 01-1.288.308c-.514 0-.98-.121-1.4-.364a2.72 2.72 0 01-.98-1.05c-.234-.448-.35-.957-.35-1.526v-3.92h.98v3.92zm11.269 1.89a2.694 2.694 0 01-.882.742 2.633 2.633 0 01-1.288.308c-.448 0-.854-.093-1.218-.28a2.261 2.261 0 01-.854-.728 1.697 1.697 0 01-.308-.952c0-.569.168-1.036.504-1.4.345-.364.831-.574 1.456-.63l2.59-.224c0-.327-.075-.635-.224-.924a1.658 1.658 0 00-.602-.686 1.451 1.451 0 00-.854-.266 3.93 3.93 0 00-1.078.14 2.98 2.98 0 00-.812.35l-.63-.63c.28-.215.639-.397 1.078-.546a4.459 4.459 0 011.442-.224c.504 0 .957.117 1.358.35.411.224.728.532.952.924.233.392.35.831.35 1.316V590h-.98v-.91zm-2.31-2.1c-.411.037-.723.163-.938.378a1.1 1.1 0 00-.322.812c0 .299.121.551.364.756.252.196.597.294 1.036.294.653 0 1.176-.177 1.568-.532.401-.364.602-.868.602-1.512v-.42l-2.31.224zm6.163-6.79v9.8h-.98v-9.8h.98zm5.528 8.05c.187.271.434.504.742.7.308.187.644.28 1.008.28.476 0 .84-.103 1.092-.308.252-.215.378-.485.378-.812a.768.768 0 00-.392-.7c-.252-.159-.634-.313-1.148-.462-.457-.14-.826-.271-1.106-.392a2.029 2.029 0 01-.7-.56c-.196-.252-.294-.574-.294-.966 0-.327.094-.635.28-.924a2.16 2.16 0 01.798-.7 2.513 2.513 0 011.162-.266c.458 0 .873.089 1.246.266.383.177.691.392.924.644l-.7.7a1.723 1.723 0 00-.616-.49 1.727 1.727 0 00-.854-.21c-.373 0-.676.098-.91.294-.233.196-.35.425-.35.686 0 .289.122.509.364.658.243.14.621.285 1.134.434.458.14.826.275 1.106.406.29.131.532.327.728.588.206.252.308.583.308.994 0 .373-.098.714-.294 1.022-.196.308-.48.555-.854.742-.373.177-.807.266-1.302.266-.55 0-1.036-.112-1.456-.336a2.99 2.99 0 01-.994-.854l.7-.7zm6.926-3.99c.233-.308.55-.569.952-.784a2.737 2.737 0 011.358-.336 3.11 3.11 0 011.652.462c.504.299.9.714 1.19 1.246.298.532.448 1.129.448 1.792s-.15 1.26-.448 1.792c-.29.532-.686.952-1.19 1.26a3.18 3.18 0 01-1.652.448c-.504 0-.957-.107-1.358-.322a3 3 0 01-.952-.798v3.92h-.98v-9.66h.98v.98zm2.31 4.97a2.2 2.2 0 001.162-.322c.354-.224.634-.532.84-.924.205-.392.308-.84.308-1.344 0-.504-.103-.952-.308-1.344a2.277 2.277 0 00-.84-.91 2.135 2.135 0 00-1.162-.336c-.392 0-.77.117-1.134.35-.355.224-.64.537-.854.938a2.662 2.662 0 00-.322 1.302c0 .476.107.915.322 1.316.214.392.499.705.854.938.364.224.742.336 1.134.336zm10.706-.238c-.299.317-.691.588-1.176.812a3.83 3.83 0 01-1.624.336 3.256 3.256 0 01-1.68-.462 3.583 3.583 0 01-1.232-1.274 3.538 3.538 0 01-.448-1.764c0-.635.149-1.218.448-1.75a3.477 3.477 0 011.218-1.274 2.996 2.996 0 011.624-.476 3.19 3.19 0 011.638.434c.495.289.882.691 1.162 1.204.28.504.42 1.078.42 1.722 0 .177-.023.345-.07.504l-5.46-.014c.019.392.14.761.364 1.106.224.345.513.621.868.826.355.205.737.308 1.148.308.467 0 .887-.084 1.26-.252.373-.168.677-.373.91-.616l.63.63zm-.63-2.842c-.075-.607-.322-1.106-.742-1.498a2.065 2.065 0 00-1.498-.602c-.383 0-.742.098-1.078.294a2.453 2.453 0 00-.84.77 2.344 2.344 0 00-.392 1.036h4.55zm3.706-1.89a2.67 2.67 0 01.882-.784 2.452 2.452 0 011.288-.336c.532 0 1.003.117 1.414.35.42.233.742.569.966 1.008.233.429.35.933.35 1.512V590h-.98v-3.99c0-.588-.173-1.059-.518-1.414-.336-.364-.77-.546-1.302-.546-.392 0-.752.098-1.078.294a2.03 2.03 0 00-.756.784 2.444 2.444 0 00-.266 1.162V590h-.98v-6.72h.98v.98zm12.251 4.76a3.023 3.023 0 01-.952.798 2.832 2.832 0 01-1.358.322 3.177 3.177 0 01-1.652-.448 3.39 3.39 0 01-1.204-1.26c-.29-.532-.434-1.129-.434-1.792s.144-1.26.434-1.792c.298-.532.7-.947 1.204-1.246a3.107 3.107 0 011.652-.462c.504 0 .956.112 1.358.336.401.215.718.476.952.784v-4.06h.98v9.8h-.98v-.98zm-2.31.21c.392 0 .765-.112 1.12-.336.364-.233.653-.546.868-.938.214-.401.322-.84.322-1.316 0-.476-.108-.91-.322-1.302a2.414 2.414 0 00-.868-.938 2.01 2.01 0 00-1.12-.35c-.42 0-.808.112-1.162.336a2.263 2.263 0 00-.84.91c-.206.392-.308.84-.308 1.344 0 .504.102.952.308 1.344.205.392.485.7.84.924.354.215.742.322 1.162.322zm5.454-8.19a.61.61 0 01.182-.448.612.612 0 01.448-.182c.178 0 .327.061.448.182a.606.606 0 01.182.448c0 .177-.06.327-.182.448a.609.609 0 01-.448.182.612.612 0 01-.448-.182.61.61 0 01-.182-.448zm1.12 2.24V590h-.98v-6.72h.98zm3.227.98a2.67 2.67 0 01.882-.784 2.452 2.452 0 011.288-.336c.532 0 1.003.117 1.414.35.42.233.742.569.966 1.008.233.429.35.933.35 1.512V590h-.98v-3.99c0-.588-.173-1.059-.518-1.414-.336-.364-.77-.546-1.302-.546-.392 0-.752.098-1.078.294a2.03 2.03 0 00-.756.784 2.444 2.444 0 00-.266 1.162V590h-.98v-6.72h.98v.98zm7.561 6.874c.233.252.537.462.91.63.383.177.803.266 1.26.266.42 0 .803-.107 1.148-.322.355-.215.635-.509.84-.882.215-.373.322-.789.322-1.246v-.77c-.196.289-.49.537-.882.742-.383.205-.835.308-1.358.308a2.983 2.983 0 01-1.596-.448 3.245 3.245 0 01-1.134-1.218 3.479 3.479 0 01-.42-1.694c0-.616.14-1.181.42-1.694.28-.513.658-.919 1.134-1.218a2.983 2.983 0 011.596-.448c.523 0 .975.103 1.358.308.392.205.686.453.882.742v-.91h.98v6.3c0 .616-.149 1.181-.448 1.694a3.243 3.243 0 01-1.19 1.218 3.18 3.18 0 01-1.652.448c-.616 0-1.167-.117-1.652-.35-.485-.224-.868-.499-1.148-.826l.63-.63zm2.24-2.184c.411 0 .789-.107 1.134-.322.345-.215.616-.509.812-.882a2.64 2.64 0 00.294-1.246 2.64 2.64 0 00-.294-1.246 2.252 2.252 0 00-.812-.882 2.102 2.102 0 00-1.134-.322c-.392 0-.756.107-1.092.322a2.325 2.325 0 00-.784.882 2.64 2.64 0 00-.294 1.246c0 .457.098.873.294 1.246.196.373.457.667.784.882.336.215.7.322 1.092.322z" class="Balance monthly and max annual spending"/>
          </g>
        </g>
        <g class="Frame 812">
          <path fill="#fff" d="M16.5 614h342v56c0 8.837-7.163 16-16 16h-310c-8.837 0-16-7.163-16-16v-56z"/>
          <g class="Deduct" clip-path="url(#clip1)">
            <circle cx="44.5" cy="650" r="12" fill="#F0FAFA" class="Ellipse 102_3"/>
            <circle cx="44.5" cy="650" r="8" fill="#F0FAFA" stroke="#678085" stroke-dasharray="1 4" stroke-linecap="round" stroke-width="1.5" class="Ellipse 103_2"/>
            <circle cx="44.5" cy="650" r="4" fill="#678085" class="Ellipse 101_3" opacity=".8"/>
          </g>
          <g class="Frame 1335_3">
            <path fill="#1F2533" d="M82.18 631.8v2.24h-5.84v2.64h4.56v2.24h-4.56V643h-2.4v-11.2h8.24zm1.122 1.12c0-.32.122-.597.368-.832.245-.245.538-.368.88-.368.33 0 .618.123.864.368.245.235.368.512.368.832 0 .32-.123.603-.368.848a1.227 1.227 0 01-.88.352c-.33 0-.619-.117-.864-.352a1.164 1.164 0 01-.368-.848zm2.32 2.24V643h-2.16v-7.84h2.16zm4.234 1.12h.08c.246-.352.566-.651.96-.896a2.494 2.494 0 011.36-.384c.534 0 1.019.139 1.456.416.438.267.784.651 1.04 1.152.256.491.384 1.061.384 1.712V643h-2.16v-4.4c0-.48-.128-.853-.384-1.12-.256-.267-.608-.4-1.056-.4a1.6 1.6 0 00-1.2.496c-.32.331-.48.752-.48 1.264V643h-2.16v-7.84h2.16v1.12zm12.876 5.6a3.218 3.218 0 01-1.008.912c-.427.245-.917.368-1.472.368-.619 0-1.2-.176-1.744-.528-.533-.352-.965-.837-1.296-1.456-.32-.619-.48-1.317-.48-2.096 0-.779.16-1.477.48-2.096.33-.619.763-1.104 1.296-1.456a3.154 3.154 0 011.744-.528c.555 0 1.045.128 1.472.384.427.245.763.544 1.008.896h.08v-4.48h2.16V643h-2.16v-1.12h-.08zm-1.84-.72c.565 0 1.04-.197 1.424-.592.384-.395.576-.891.576-1.488s-.192-1.093-.576-1.488a1.907 1.907 0 00-1.424-.592c-.565 0-1.04.197-1.424.592-.384.395-.576.891-.576 1.488s.192 1.093.576 1.488c.384.395.859.592 1.424.592zm14.249.88a3.19 3.19 0 01-.976.8 2.78 2.78 0 01-1.344.32c-.714 0-1.296-.208-1.744-.624-.437-.427-.656-.965-.656-1.616 0-.661.208-1.227.624-1.696.427-.469.992-.741 1.696-.816l2.48-.24a1.512 1.512 0 00-.432-.864 1.23 1.23 0 00-.928-.384 3.8 3.8 0 00-1.008.128c-.309.075-.56.165-.752.272l-1.28-1.28c.342-.288.79-.533 1.344-.736a5.373 5.373 0 011.856-.304c.651 0 1.232.139 1.744.416.512.267.907.64 1.184 1.12.288.469.432.997.432 1.584V643h-2.16v-.96h-.08zm-1.68-2.288c-.266.011-.48.101-.64.272a.822.822 0 00-.24.576c0 .245.08.443.24.592.171.139.411.208.72.208.502 0 .907-.133 1.216-.4.31-.267.464-.651.464-1.152v-.16l-1.76.064zm11.694-7.952V643h-2.16v-11.2h2.16zm1.686 7.28c0-.736.182-1.413.544-2.032a4.08 4.08 0 011.52-1.488 4.09 4.09 0 012.096-.56c.758 0 1.456.187 2.096.56.64.363 1.142.859 1.504 1.488.374.619.56 1.296.56 2.032s-.186 1.419-.56 2.048a4.097 4.097 0 01-1.504 1.488 4.174 4.174 0 01-2.096.544 4.176 4.176 0 01-2.096-.544 4.235 4.235 0 01-1.52-1.488 4.037 4.037 0 01-.544-2.048zm4.16 2.08c.566 0 1.04-.197 1.424-.592.384-.395.576-.891.576-1.488s-.192-1.093-.576-1.488a1.905 1.905 0 00-1.424-.592c-.565 0-1.04.197-1.424.592-.384.395-.576.891-.576 1.488s.192 1.093.576 1.488c.384.395.859.592 1.424.592zm6.958-6l1.44 4.64h.08l1.52-4.64h1.76l1.52 4.64h.08l1.44-4.64h2.32l-2.752 7.84h-1.968l-1.488-4.56h-.064l-1.488 4.56h-1.968l-2.752-7.84h2.32zm14.575 9.12c.65 0 1.104-.32 1.36-.96l.16-.4-3.04-7.76h2.32l1.84 5.2h.08l1.76-5.2h2.32l-3.2 8.48c-.342.907-.758 1.584-1.248 2.032-.491.459-1.088.688-1.792.688h-1.44v-2.08h.88zm14.796-2.032c-.363.256-.837.475-1.424.656a6.902 6.902 0 01-1.936.256 4.176 4.176 0 01-2.096-.544 4.228 4.228 0 01-1.52-1.488 4.027 4.027 0 01-.544-2.048c0-.736.181-1.413.544-2.032a4.145 4.145 0 011.488-1.488 3.945 3.945 0 012.048-.56c.704 0 1.355.176 1.952.528a3.886 3.886 0 011.44 1.44c.352.597.528 1.248.528 1.952 0 .352-.027.672-.08.96h-5.68c.128.395.363.72.704.976.352.256.811.384 1.376.384.448 0 .848-.048 1.2-.144.363-.107.656-.229.88-.368l1.12 1.52zm-1.76-3.968a2.027 2.027 0 00-.672-.96 1.612 1.612 0 00-1.088-.4c-.416 0-.784.133-1.104.4a2.075 2.075 0 00-.656.96h3.52zm8.165 3.76a3.202 3.202 0 01-.976.8c-.395.213-.843.32-1.344.32-.715 0-1.296-.208-1.744-.624-.437-.427-.656-.965-.656-1.616 0-.661.208-1.227.624-1.696.427-.469.992-.741 1.696-.816l2.48-.24a1.524 1.524 0 00-.432-.864 1.231 1.231 0 00-.928-.384 3.79 3.79 0 00-1.008.128c-.309.075-.56.165-.752.272l-1.28-1.28c.341-.288.789-.533 1.344-.736a5.369 5.369 0 011.856-.304c.651 0 1.232.139 1.744.416.512.267.907.64 1.184 1.12.288.469.432.997.432 1.584V643h-2.16v-.96h-.08zm-1.68-2.288c-.267.011-.48.101-.64.272a.822.822 0 00-.24.576c0 .245.08.443.24.592.171.139.411.208.72.208.501 0 .907-.133 1.216-.4.309-.267.464-.651.464-1.152v-.16l-1.76.064zm7.926-3.712h.08c.15-.245.39-.453.72-.624.331-.171.747-.256 1.248-.256h.512v2.08h-.72c-.533 0-.976.192-1.328.576-.341.373-.512.875-.512 1.504V643h-2.16v-7.84h2.16v.88zm6.158-4.24V643h-2.16v-11.2h2.16zm2.567 12.48c.65 0 1.104-.32 1.36-.96l.16-.4-3.04-7.76h2.32l1.84 5.2h.08l1.76-5.2h2.32l-3.2 8.48c-.342.907-.758 1.584-1.248 2.032-.491.459-1.088.688-1.792.688h-1.44v-2.08h.88zm16.651-2.4a3.218 3.218 0 01-1.008.912c-.427.245-.917.368-1.472.368-.619 0-1.2-.176-1.744-.528-.533-.352-.965-.837-1.296-1.456-.32-.619-.48-1.317-.48-2.096 0-.779.16-1.477.48-2.096.331-.619.763-1.104 1.296-1.456a3.153 3.153 0 011.744-.528c.555 0 1.045.128 1.472.384.427.245.763.544 1.008.896h.08v-4.48h2.16V643h-2.16v-1.12h-.08zm-1.84-.72c.565 0 1.04-.197 1.424-.592.384-.395.576-.891.576-1.488s-.192-1.093-.576-1.488a1.907 1.907 0 00-1.424-.592c-.565 0-1.04.197-1.424.592-.384.395-.576.891-.576 1.488s.192 1.093.576 1.488c.384.395.859.592 1.424.592zm13.282 1.088c-.363.256-.838.475-1.424.656a6.902 6.902 0 01-1.936.256 4.174 4.174 0 01-2.096-.544 4.228 4.228 0 01-1.52-1.488 4.027 4.027 0 01-.544-2.048c0-.736.181-1.413.544-2.032a4.145 4.145 0 011.488-1.488 3.945 3.945 0 012.048-.56c.704 0 1.354.176 1.952.528a3.886 3.886 0 011.44 1.44c.352.597.528 1.248.528 1.952 0 .352-.027.672-.08.96h-5.68c.128.395.362.72.704.976.352.256.81.384 1.376.384.448 0 .848-.048 1.2-.144a3.65 3.65 0 00.88-.368l1.12 1.52zm-1.76-3.968a2.027 2.027 0 00-.672-.96c-.31-.267-.672-.4-1.088-.4-.416 0-.784.133-1.104.4-.31.256-.528.576-.656.96h3.52zm9.365 3.6a3.24 3.24 0 01-1.008.912c-.427.245-.918.368-1.472.368-.619 0-1.2-.176-1.744-.528-.534-.352-.966-.837-1.296-1.456-.32-.619-.48-1.317-.48-2.096 0-.779.16-1.477.48-2.096.33-.619.762-1.104 1.296-1.456a3.153 3.153 0 011.744-.528c.554 0 1.045.128 1.472.384.426.245.762.544 1.008.896h.08v-4.48h2.16V643h-2.16v-1.12h-.08zm-1.84-.72c.565 0 1.04-.197 1.424-.592.384-.395.576-.891.576-1.488s-.192-1.093-.576-1.488a1.907 1.907 0 00-1.424-.592c-.566 0-1.04.197-1.424.592-.384.395-.576.891-.576 1.488s.192 1.093.576 1.488c.384.395.858.592 1.424.592zm8.402-1.6c0 .48.128.853.384 1.12.256.267.608.4 1.056.4a1.6 1.6 0 001.2-.496c.32-.331.48-.752.48-1.264v-4.16h2.16V643h-2.16v-1.12h-.08a3.36 3.36 0 01-.976.912 2.498 2.498 0 01-1.344.368 2.737 2.737 0 01-1.456-.4 2.934 2.934 0 01-1.04-1.152c-.256-.501-.384-1.077-.384-1.728v-4.72h2.16v4.4zm14.315 2c-.32.448-.762.827-1.328 1.136-.565.309-1.216.464-1.952.464a4.176 4.176 0 01-2.096-.544 4.235 4.235 0 01-1.52-1.488 4.037 4.037 0 01-.544-2.048c0-.736.182-1.413.544-2.032a4.08 4.08 0 011.52-1.488 4.09 4.09 0 012.096-.56c.736 0 1.387.155 1.952.464.566.309 1.008.688 1.328 1.136l-1.36 1.36a2.602 2.602 0 00-.832-.672 2.126 2.126 0 00-1.088-.288c-.565 0-1.04.197-1.424.592-.384.395-.576.891-.576 1.488s.192 1.093.576 1.488c.384.395.859.592 1.424.592.395 0 .758-.091 1.088-.272.342-.192.619-.421.832-.688l1.36 1.36zm.633-6.24h1.36v-2.4h2.16v2.4h1.92v2h-1.92v2.704c0 .352.09.613.272.784.181.171.437.256.768.256h.88V643h-1.44c-.822 0-1.467-.229-1.936-.688-.47-.459-.704-1.136-.704-2.032v-2.96h-1.36v-2zm6.966-2.4c0-.32.123-.597.368-.832.245-.245.539-.368.88-.368.331 0 .619.123.864.368.245.235.368.512.368.832 0 .32-.123.603-.368.848a1.227 1.227 0 01-.88.352c-.331 0-.619-.117-.864-.352a1.166 1.166 0 01-.368-.848zm2.32 2.24V643h-2.16v-7.84h2.16zm4.314 1.12h.08a3.072 3.072 0 011.008-.896c.427-.256.918-.384 1.472-.384.619 0 1.195.176 1.728.528.544.352.976.837 1.296 1.456.331.619.496 1.317.496 2.096 0 .779-.165 1.477-.496 2.096a3.736 3.736 0 01-1.296 1.456 3.076 3.076 0 01-1.728.528c-.554 0-1.045-.123-1.472-.368a3.24 3.24 0 01-1.008-.912h-.08V643h-2.16v-11.2h2.16v4.48zm1.92 4.88c.566 0 1.04-.197 1.424-.592.384-.395.576-.891.576-1.488s-.192-1.093-.576-1.488a1.905 1.905 0 00-1.424-.592c-.565 0-1.04.197-1.424.592-.384.395-.576.891-.576 1.488s.192 1.093.576 1.488c.384.395.859.592 1.424.592zm8.002-9.36V643h-2.16v-11.2h2.16zm9.206 10.448c-.362.256-.837.475-1.423.656a6.902 6.902 0 01-1.936.256 4.174 4.174 0 01-2.096-.544 4.228 4.228 0 01-1.52-1.488 4.027 4.027 0 01-.544-2.048c0-.736.181-1.413.544-2.032a4.145 4.145 0 011.488-1.488 3.945 3.945 0 012.048-.56c.704 0 1.354.176 1.952.528a3.886 3.886 0 011.44 1.44c.352.597.528 1.248.528 1.952 0 .352-.027.672-.08.96h-5.68c.128.395.362.72.704.976.352.256.81.384 1.376.384.448 0 .848-.048 1.2-.144a3.65 3.65 0 00.88-.368l1.119 1.52zm-1.759-3.968a2.027 2.027 0 00-.672-.96c-.31-.267-.672-.4-1.088-.4-.416 0-.784.133-1.104.4-.31.256-.528.576-.656.96h3.52z" class="Find a low yearly deductible"/>
            <path fill="#70747D" d="M73.76 663.956c.261.336.62.621 1.078.854.457.233.985.35 1.582.35.719 0 1.27-.168 1.652-.504.392-.336.588-.775.588-1.316 0-.364-.103-.658-.308-.882a1.967 1.967 0 00-.77-.532 11.076 11.076 0 00-1.26-.434 12.928 12.928 0 01-1.568-.546 2.815 2.815 0 01-1.008-.812c-.27-.355-.406-.826-.406-1.414 0-.476.126-.915.378-1.316.261-.411.63-.737 1.106-.98.485-.243 1.04-.364 1.666-.364.616 0 1.171.121 1.666.364.495.243.896.541 1.204.896l-.7.7a2.72 2.72 0 00-.896-.686 2.7 2.7 0 00-1.274-.294c-.43 0-.803.079-1.12.238-.317.149-.56.355-.728.616a1.458 1.458 0 00-.252.826c0 .364.103.663.308.896.205.224.457.401.756.532.308.121.733.261 1.274.42.644.187 1.162.373 1.554.56.401.177.737.443 1.008.798.28.355.42.826.42 1.414 0 .541-.13 1.027-.392 1.456-.261.42-.64.751-1.134.994-.495.233-1.083.35-1.764.35-.737 0-1.39-.14-1.96-.42-.56-.289-1.003-.639-1.33-1.05l.63-.714zm8.756-3.696c.233-.308.55-.569.952-.784a2.738 2.738 0 011.358-.336c.597 0 1.148.154 1.652.462.504.299.9.714 1.19 1.246.299.532.448 1.129.448 1.792s-.15 1.26-.448 1.792c-.29.532-.686.952-1.19 1.26a3.179 3.179 0 01-1.652.448 2.83 2.83 0 01-1.358-.322 3.012 3.012 0 01-.952-.798v3.92h-.98v-9.66h.98v.98zm2.31 4.97a2.2 2.2 0 001.162-.322c.355-.224.635-.532.84-.924.205-.392.308-.84.308-1.344 0-.504-.103-.952-.308-1.344a2.267 2.267 0 00-.84-.91 2.134 2.134 0 00-1.162-.336c-.392 0-.77.117-1.134.35a2.45 2.45 0 00-.854.938 2.665 2.665 0 00-.322 1.302c0 .476.107.915.322 1.316.215.392.5.705.854.938.364.224.742.336 1.134.336zm10.706-.238c-.298.317-.69.588-1.176.812a3.83 3.83 0 01-1.624.336 3.254 3.254 0 01-1.68-.462 3.58 3.58 0 01-1.232-1.274 3.541 3.541 0 01-.448-1.764c0-.635.15-1.218.448-1.75a3.477 3.477 0 011.218-1.274 2.996 2.996 0 011.624-.476c.597 0 1.143.145 1.638.434.495.289.882.691 1.162 1.204.28.504.42 1.078.42 1.722 0 .177-.023.345-.07.504l-5.46-.014c.019.392.14.761.364 1.106.224.345.514.621.868.826.355.205.737.308 1.148.308.467 0 .887-.084 1.26-.252.373-.168.677-.373.91-.616l.63.63zm-.63-2.842c-.075-.607-.322-1.106-.742-1.498a2.065 2.065 0 00-1.498-.602c-.383 0-.742.098-1.078.294a2.453 2.453 0 00-.84.77 2.344 2.344 0 00-.392 1.036h4.55zm3.706-1.89c.215-.308.508-.569.882-.784a2.453 2.453 0 011.288-.336c.532 0 1.003.117 1.414.35.42.233.742.569.966 1.008.233.429.35.933.35 1.512V666h-.98v-3.99c0-.588-.173-1.059-.518-1.414-.336-.364-.77-.546-1.302-.546-.392 0-.751.098-1.078.294a2.04 2.04 0 00-.756.784 2.452 2.452 0 00-.266 1.162V666h-.98v-6.72h.98v.98zm12.251 4.76a3.012 3.012 0 01-.952.798 2.829 2.829 0 01-1.358.322 3.18 3.18 0 01-1.652-.448 3.398 3.398 0 01-1.204-1.26 3.692 3.692 0 01-.434-1.792c0-.663.145-1.26.434-1.792.299-.532.7-.947 1.204-1.246a3.11 3.11 0 011.652-.462c.504 0 .957.112 1.358.336.401.215.719.476.952.784v-4.06h.98v9.8h-.98v-.98zm-2.31.21c.392 0 .765-.112 1.12-.336.364-.233.653-.546.868-.938.215-.401.322-.84.322-1.316 0-.476-.107-.91-.322-1.302a2.414 2.414 0 00-.868-.938 2.01 2.01 0 00-1.12-.35c-.42 0-.807.112-1.162.336a2.263 2.263 0 00-.84.91c-.205.392-.308.84-.308 1.344 0 .504.103.952.308 1.344.205.392.485.7.84.924a2.2 2.2 0 001.162.322zm9.719-5.11c.177-.271.425-.499.742-.686.327-.196.709-.294 1.148-.294.523 0 .971.117 1.344.35.373.224.649.504.826.84.196-.336.49-.616.882-.84.401-.233.877-.35 1.428-.35.765 0 1.386.252 1.862.756.485.504.728 1.209.728 2.114V666h-.98v-3.99c0-.625-.154-1.106-.462-1.442-.308-.345-.714-.518-1.218-.518-.327 0-.63.093-.91.28-.28.177-.504.439-.672.784-.159.336-.238.728-.238 1.176V666h-.98v-3.99c0-.616-.154-1.097-.462-1.442-.308-.345-.714-.518-1.218-.518-.327 0-.63.093-.91.28-.28.177-.504.439-.672.784-.159.336-.238.728-.238 1.176V666h-.98v-6.72h.98v.84zm14.142 6.02c-.626 0-1.2-.154-1.722-.462a3.539 3.539 0 01-1.246-1.274 3.457 3.457 0 01-.462-1.764c0-.644.154-1.232.462-1.764a3.43 3.43 0 011.246-1.26 3.255 3.255 0 011.722-.476 3.26 3.26 0 011.722.476c.522.308.938.728 1.246 1.26.308.532.462 1.12.462 1.764 0 .644-.154 1.232-.462 1.764a3.547 3.547 0 01-1.246 1.274 3.332 3.332 0 01-1.722.462zm0-.91c.438 0 .844-.112 1.218-.336a2.619 2.619 0 001.232-2.254c0-.476-.112-.91-.336-1.302a2.481 2.481 0 00-.896-.938 2.261 2.261 0 00-1.218-.35c-.439 0-.845.117-1.218.35a2.474 2.474 0 00-.896.938 2.578 2.578 0 00-.336 1.302 2.61 2.61 0 001.232 2.254c.373.224.779.336 1.218.336zm6.161-5.04c.177-.289.443-.537.798-.742.364-.205.798-.308 1.302-.308h.42v.98h-.42c-.374 0-.724.089-1.05.266a2.026 2.026 0 00-.77.77c-.187.327-.28.705-.28 1.134V666h-.98v-6.72h.98v.91zm9.379 4.802c-.299.317-.691.588-1.176.812a3.83 3.83 0 01-1.624.336 3.256 3.256 0 01-1.68-.462 3.583 3.583 0 01-1.232-1.274 3.538 3.538 0 01-.448-1.764c0-.635.149-1.218.448-1.75a3.477 3.477 0 011.218-1.274 2.996 2.996 0 011.624-.476 3.19 3.19 0 011.638.434c.495.289.882.691 1.162 1.204.28.504.42 1.078.42 1.722 0 .177-.023.345-.07.504l-5.46-.014c.019.392.14.761.364 1.106.224.345.513.621.868.826.355.205.737.308 1.148.308.467 0 .887-.084 1.26-.252.373-.168.677-.373.91-.616l.63.63zm-.63-2.842c-.075-.607-.322-1.106-.742-1.498a2.065 2.065 0 00-1.498-.602c-.383 0-.742.098-1.078.294a2.453 2.453 0 00-.84.77 2.344 2.344 0 00-.392 1.036h4.55zm6.85-2.03c.178-.271.425-.499.742-.686.327-.196.71-.294 1.148-.294.523 0 .971.117 1.344.35.374.224.649.504.826.84.196-.336.49-.616.882-.84.402-.233.878-.35 1.428-.35.766 0 1.386.252 1.862.756.486.504.728 1.209.728 2.114V666h-.98v-3.99c0-.625-.154-1.106-.462-1.442-.308-.345-.714-.518-1.218-.518-.326 0-.63.093-.91.28-.28.177-.504.439-.672.784-.158.336-.238.728-.238 1.176V666h-.98v-3.99c0-.616-.154-1.097-.462-1.442-.308-.345-.714-.518-1.218-.518-.326 0-.63.093-.91.28-.28.177-.504.439-.672.784-.158.336-.238.728-.238 1.176V666h-.98v-6.72h.98v.84zm14.142 6.02a3.332 3.332 0 01-1.722-.462 3.539 3.539 0 01-1.246-1.274 3.457 3.457 0 01-.462-1.764c0-.644.154-1.232.462-1.764a3.43 3.43 0 011.246-1.26 3.26 3.26 0 011.722-.476 3.26 3.26 0 011.722.476 3.43 3.43 0 011.246 1.26c.308.532.462 1.12.462 1.764 0 .644-.154 1.232-.462 1.764a3.539 3.539 0 01-1.246 1.274 3.332 3.332 0 01-1.722.462zm0-.91c.439 0 .845-.112 1.218-.336a2.619 2.619 0 001.232-2.254c0-.476-.112-.91-.336-1.302a2.481 2.481 0 00-.896-.938 2.256 2.256 0 00-1.218-.35c-.439 0-.845.117-1.218.35a2.481 2.481 0 00-.896.938 2.578 2.578 0 00-.336 1.302 2.619 2.619 0 001.232 2.254c.373.224.779.336 1.218.336zm6.161-4.97a2.69 2.69 0 01.882-.784 2.454 2.454 0 011.288-.336c.532 0 1.003.117 1.414.35.42.233.742.569.966 1.008.233.429.35.933.35 1.512V666h-.98v-3.99c0-.588-.173-1.059-.518-1.414-.336-.364-.77-.546-1.302-.546-.392 0-.751.098-1.078.294a2.044 2.044 0 00-.756.784 2.456 2.456 0 00-.266 1.162V666h-.98v-6.72h.98v.98zm6.304-.98h1.26v-2.24h.98v2.24h1.82v.91h-1.82v3.99c0 .336.075.574.224.714.159.131.388.196.686.196h.91v.91h-.952c-.588 0-1.045-.149-1.372-.448-.317-.299-.476-.756-.476-1.372v-3.99h-1.26v-.91zm6.795.98a2.69 2.69 0 01.882-.784 2.457 2.457 0 011.288-.336c.532 0 1.004.117 1.414.35.42.233.742.569.966 1.008.234.429.35.933.35 1.512V666h-.98v-3.99c0-.588-.172-1.059-.518-1.414-.336-.364-.77-.546-1.302-.546-.392 0-.751.098-1.078.294a2.044 2.044 0 00-.756.784 2.456 2.456 0 00-.266 1.162V666h-.98v-9.8h.98v4.06zm8.19-4.06v9.8h-.98v-9.8h.98zm2.523 11.83c.308 0 .56-.089.756-.266.205-.168.373-.429.504-.784l.35-.98-2.73-6.72h1.05l2.17 5.46 2.17-5.46h1.05l-3.08 7.7c-.28.709-.579 1.213-.896 1.512-.317.299-.719.448-1.204.448h-.84v-.91h.7zm8.824-8.75h1.05v-1.26c0-.625.159-1.106.476-1.442.327-.345.775-.518 1.344-.518h.98v.91h-.91c-.289 0-.513.089-.672.266-.158.177-.238.439-.238.784v1.26h1.61v.91h-1.61V666h-.98v-5.81h-1.05v-.91zm8.125 6.86c-.626 0-1.2-.154-1.722-.462a3.539 3.539 0 01-1.246-1.274 3.457 3.457 0 01-.462-1.764c0-.644.154-1.232.462-1.764a3.43 3.43 0 011.246-1.26 3.255 3.255 0 011.722-.476 3.26 3.26 0 011.722.476c.522.308.938.728 1.246 1.26.308.532.462 1.12.462 1.764 0 .644-.154 1.232-.462 1.764a3.547 3.547 0 01-1.246 1.274 3.332 3.332 0 01-1.722.462zm0-.91c.438 0 .844-.112 1.218-.336a2.619 2.619 0 001.232-2.254c0-.476-.112-.91-.336-1.302a2.481 2.481 0 00-.896-.938 2.261 2.261 0 00-1.218-.35c-.439 0-.845.117-1.218.35a2.474 2.474 0 00-.896.938 2.578 2.578 0 00-.336 1.302 2.61 2.61 0 001.232 2.254c.373.224.779.336 1.218.336zm6.161-5.04c.177-.289.443-.537.798-.742.364-.205.798-.308 1.302-.308h.42v.98h-.42c-.373 0-.723.089-1.05.266a2.033 2.033 0 00-.77.77c-.187.327-.28.705-.28 1.134V666h-.98v-6.72h.98v.91zm7.697 0c.178-.289.444-.537.798-.742.364-.205.798-.308 1.302-.308h.42v.98h-.42c-.373 0-.723.089-1.05.266a2.033 2.033 0 00-.77.77c-.186.327-.28.705-.28 1.134V666h-.98v-6.72h.98v.91zm6.65 5.95c-.626 0-1.2-.154-1.722-.462a3.539 3.539 0 01-1.246-1.274 3.457 3.457 0 01-.462-1.764c0-.644.154-1.232.462-1.764a3.43 3.43 0 011.246-1.26 3.255 3.255 0 011.722-.476 3.26 3.26 0 011.722.476c.522.308.938.728 1.246 1.26.308.532.462 1.12.462 1.764 0 .644-.154 1.232-.462 1.764a3.547 3.547 0 01-1.246 1.274 3.332 3.332 0 01-1.722.462zm0-.91c.438 0 .844-.112 1.218-.336a2.619 2.619 0 001.232-2.254c0-.476-.112-.91-.336-1.302a2.481 2.481 0 00-.896-.938 2.261 2.261 0 00-1.218-.35c-.439 0-.845.117-1.218.35a2.474 2.474 0 00-.896.938 2.578 2.578 0 00-.336 1.302 2.61 2.61 0 001.232 2.254c.373.224.779.336 1.218.336zm6.231-4.97c.233-.308.55-.569.952-.784a2.737 2.737 0 011.358-.336 3.11 3.11 0 011.652.462c.504.299.9.714 1.19 1.246.298.532.448 1.129.448 1.792s-.15 1.26-.448 1.792c-.29.532-.686.952-1.19 1.26a3.18 3.18 0 01-1.652.448c-.504 0-.957-.107-1.358-.322a3 3 0 01-.952-.798v.98h-.98v-9.8h.98v4.06zm2.31 4.97a2.2 2.2 0 001.162-.322c.354-.224.634-.532.84-.924.205-.392.308-.84.308-1.344 0-.504-.103-.952-.308-1.344a2.277 2.277 0 00-.84-.91 2.135 2.135 0 00-1.162-.336c-.392 0-.77.117-1.134.35-.355.224-.64.537-.854.938a2.662 2.662 0 00-.322 1.302c0 .476.107.915.322 1.316.214.392.499.705.854.938.364.224.742.336 1.134.336zm6.014-2.03c0 .392.084.742.252 1.05.168.308.397.551.686.728.29.168.607.252.952.252a1.93 1.93 0 001.022-.28 2.07 2.07 0 00.728-.798 2.4 2.4 0 00.28-1.162v-3.71h.98V666h-.98v-.91a2.673 2.673 0 01-.882.742 2.63 2.63 0 01-1.288.308c-.513 0-.98-.121-1.4-.364a2.735 2.735 0 01-.98-1.05 3.26 3.26 0 01-.35-1.526v-3.92h.98v3.92zm7.28 1.05c.186.271.434.504.742.7.308.187.644.28 1.008.28.476 0 .84-.103 1.092-.308.252-.215.378-.485.378-.812a.77.77 0 00-.392-.7c-.252-.159-.635-.313-1.148-.462-.458-.14-.826-.271-1.106-.392a2.02 2.02 0 01-.7-.56c-.196-.252-.294-.574-.294-.966 0-.327.093-.635.28-.924a2.16 2.16 0 01.798-.7 2.508 2.508 0 011.162-.266c.457 0 .872.089 1.246.266.382.177.69.392.924.644l-.7.7a1.74 1.74 0 00-.616-.49 1.73 1.73 0 00-.854-.21c-.374 0-.677.098-.91.294-.234.196-.35.425-.35.686 0 .289.121.509.364.658.242.14.62.285 1.134.434.457.14.826.275 1.106.406.289.131.532.327.728.588.205.252.308.583.308.994 0 .373-.098.714-.294 1.022a2.093 2.093 0 01-.854.742c-.374.177-.808.266-1.302.266-.551 0-1.036-.112-1.456-.336a2.981 2.981 0 01-.994-.854l.7-.7zm5.245-4.97h1.26v-2.24h.98v2.24h1.82v.91h-1.82v3.99c0 .336.075.574.224.714.159.131.388.196.686.196h.91v.91h-.952c-.588 0-1.045-.149-1.372-.448-.317-.299-.476-.756-.476-1.372v-3.99h-1.26v-.91zm14.56 5.46a4.054 4.054 0 01-1.218.994 3.194 3.194 0 01-1.582.406 3.25 3.25 0 01-1.68-.462 3.574 3.574 0 01-1.232-1.274 3.538 3.538 0 01-.448-1.764c0-.644.149-1.232.448-1.764a3.463 3.463 0 011.232-1.26 3.181 3.181 0 011.68-.476c.569 0 1.092.131 1.568.392.476.252.863.565 1.162.938l-.7.7a2.785 2.785 0 00-.854-.784 2.117 2.117 0 00-1.176-.336c-.42 0-.812.117-1.176.35a2.516 2.516 0 00-.882.938 2.662 2.662 0 00-.322 1.302c0 .476.107.915.322 1.316.224.392.518.705.882.938.364.224.756.336 1.176.336.438 0 .84-.107 1.204-.322.364-.224.662-.49.896-.798l.7.63zm4.338 1.4a3.332 3.332 0 01-1.722-.462 3.539 3.539 0 01-1.246-1.274 3.457 3.457 0 01-.462-1.764c0-.644.154-1.232.462-1.764a3.43 3.43 0 011.246-1.26 3.26 3.26 0 011.722-.476 3.26 3.26 0 011.722.476 3.43 3.43 0 011.246 1.26c.308.532.462 1.12.462 1.764 0 .644-.154 1.232-.462 1.764a3.539 3.539 0 01-1.246 1.274 3.332 3.332 0 01-1.722.462zm0-.91c.439 0 .845-.112 1.218-.336a2.619 2.619 0 001.232-2.254c0-.476-.112-.91-.336-1.302a2.481 2.481 0 00-.896-.938 2.256 2.256 0 00-1.218-.35c-.439 0-.845.117-1.218.35a2.481 2.481 0 00-.896.938 2.578 2.578 0 00-.336 1.302 2.619 2.619 0 001.232 2.254c.373.224.779.336 1.218.336zm5.321-5.95l2.17 5.39 2.17-5.39h1.05l-2.73 6.72h-.98l-2.73-6.72h1.05zm12.394 5.712c-.299.317-.691.588-1.176.812a3.833 3.833 0 01-1.624.336 3.25 3.25 0 01-1.68-.462 3.574 3.574 0 01-1.232-1.274 3.538 3.538 0 01-.448-1.764c0-.635.149-1.218.448-1.75a3.477 3.477 0 011.218-1.274 2.996 2.996 0 011.624-.476 3.19 3.19 0 011.638.434c.494.289.882.691 1.162 1.204.28.504.42 1.078.42 1.722 0 .177-.024.345-.07.504l-5.46-.014c.018.392.14.761.364 1.106.224.345.513.621.868.826.354.205.737.308 1.148.308.466 0 .886-.084 1.26-.252.373-.168.676-.373.91-.616l.63.63zm-.63-2.842c-.075-.607-.322-1.106-.742-1.498a2.065 2.065 0 00-1.498-.602c-.383 0-.742.098-1.078.294a2.453 2.453 0 00-.84.77 2.333 2.333 0 00-.392 1.036h4.55zm3.705-1.96c.177-.289.443-.537.798-.742.364-.205.798-.308 1.302-.308h.42v.98h-.42c-.373 0-.723.089-1.05.266a2.033 2.033 0 00-.77.77c-.187.327-.28.705-.28 1.134V666h-.98v-6.72h.98v.91zm7.906 4.9a2.673 2.673 0 01-.882.742 2.63 2.63 0 01-1.288.308c-.448 0-.854-.093-1.218-.28a2.269 2.269 0 01-.854-.728 1.697 1.697 0 01-.308-.952c0-.569.168-1.036.504-1.4.346-.364.831-.574 1.456-.63l2.59-.224c0-.327-.074-.635-.224-.924a1.651 1.651 0 00-.602-.686 1.45 1.45 0 00-.854-.266 3.93 3.93 0 00-1.078.14c-.326.093-.597.21-.812.35l-.63-.63c.28-.215.64-.397 1.078-.546.439-.149.92-.224 1.442-.224.504 0 .957.117 1.358.35.411.224.728.532.952.924.234.392.35.831.35 1.316V666h-.98v-.91zm-2.31-2.1c-.41.037-.723.163-.938.378a1.103 1.103 0 00-.322.812c0 .299.122.551.364.756.252.196.598.294 1.036.294.654 0 1.176-.177 1.568-.532.402-.364.602-.868.602-1.512v-.42l-2.31.224zm5.534 4.144c.233.252.536.462.91.63a2.96 2.96 0 001.26.266c.42 0 .802-.107 1.148-.322.354-.215.634-.509.84-.882.214-.373.322-.789.322-1.246v-.77c-.196.289-.49.537-.882.742-.383.205-.836.308-1.358.308a2.983 2.983 0 01-1.596-.448 3.245 3.245 0 01-1.134-1.218 3.479 3.479 0 01-.42-1.694c0-.616.14-1.181.42-1.694.28-.513.658-.919 1.134-1.218a2.983 2.983 0 011.596-.448c.522 0 .975.103 1.358.308.392.205.686.453.882.742v-.91h.98v6.3c0 .616-.15 1.181-.448 1.694a3.25 3.25 0 01-2.842 1.666c-.616 0-1.167-.117-1.652-.35-.486-.224-.868-.499-1.148-.826l.63-.63zm2.24-2.184c.41 0 .788-.107 1.134-.322.345-.215.616-.509.812-.882a2.64 2.64 0 00.294-1.246 2.64 2.64 0 00-.294-1.246 2.252 2.252 0 00-.812-.882 2.107 2.107 0 00-1.134-.322c-.392 0-.756.107-1.092.322a2.325 2.325 0 00-.784.882 2.64 2.64 0 00-.294 1.246c0 .457.098.873.294 1.246.196.373.457.667.784.882.336.215.7.322 1.092.322zm11.131.042c-.299.317-.691.588-1.176.812a3.833 3.833 0 01-1.624.336 3.25 3.25 0 01-1.68-.462 3.574 3.574 0 01-1.232-1.274 3.538 3.538 0 01-.448-1.764c0-.635.149-1.218.448-1.75a3.477 3.477 0 011.218-1.274 2.996 2.996 0 011.624-.476 3.19 3.19 0 011.638.434c.494.289.882.691 1.162 1.204.28.504.42 1.078.42 1.722 0 .177-.024.345-.07.504l-5.46-.014c.018.392.14.761.364 1.106.224.345.513.621.868.826.354.205.737.308 1.148.308.466 0 .886-.084 1.26-.252.373-.168.676-.373.91-.616l.63.63zm-.63-2.842c-.075-.607-.322-1.106-.742-1.498a2.065 2.065 0 00-1.498-.602c-.383 0-.742.098-1.078.294a2.453 2.453 0 00-.84.77 2.333 2.333 0 00-.392 1.036h4.55z" class="Spend more monthly for robust coverage"/>
          </g>
        </g>
      </g>
      <g class="Frame 1278">
        <g class="Standard/Secondary" style="mix-blend-mode:multiply">
          <rect width="80" height="40" x="279" y="718" fill="#F1F3F5" rx="20" style="mix-blend-mode:multiply"/>
          <path fill="#25272E" d="M305.164 740.28c.278.352.656.656 1.136.912.48.245 1.035.368 1.664.368.694 0 1.238-.16 1.632-.48.406-.331.608-.731.608-1.2 0-.341-.106-.619-.32-.832a2.176 2.176 0 00-.784-.512 11.004 11.004 0 00-1.296-.416c-.757-.224-1.365-.437-1.824-.64a3.274 3.274 0 01-1.2-.976c-.33-.437-.496-1.019-.496-1.744 0-.565.155-1.083.464-1.552.31-.48.752-.859 1.328-1.136.587-.288 1.27-.432 2.048-.432.758 0 1.44.139 2.048.416.619.277 1.11.619 1.472 1.024l-1.2 1.2a3.047 3.047 0 00-.976-.736 2.892 2.892 0 00-1.344-.304c-.65 0-1.162.149-1.536.448-.362.288-.544.645-.544 1.072 0 .341.102.619.304.832.214.213.475.384.784.512.32.128.758.267 1.312.416.758.224 1.366.443 1.824.656.459.203.854.523 1.184.96.342.437.512 1.019.512 1.744 0 .587-.165 1.131-.496 1.632-.32.501-.784.901-1.392 1.2-.608.299-1.312.448-2.112.448-.885 0-1.674-.16-2.368-.48-.693-.331-1.237-.731-1.632-1.2l1.2-1.2zm10.245-8.48v7.04l3.28-3.52h2l-2.96 3.12 3.2 4.56h-1.84l-2.4-3.44-1.28 1.36V743h-1.6v-11.2h1.6zm6.553 1.12c0-.267.096-.491.288-.672.203-.192.427-.288.672-.288.245 0 .464.096.656.288a.864.864 0 01.304.672.913.913 0 01-.304.688.931.931 0 01-.656.272.988.988 0 01-.672-.272.938.938 0 01-.288-.688zm1.76 2.4V743h-1.6v-7.68h1.6zm3.92 1.12c.245-.352.597-.651 1.056-.896.459-.256.987-.384 1.584-.384.64 0 1.232.176 1.776.528.555.341.997.816 1.328 1.424.331.608.496 1.291.496 2.048 0 .757-.165 1.44-.496 2.048a3.844 3.844 0 01-1.328 1.44 3.281 3.281 0 01-1.776.512c-.597 0-1.125-.123-1.584-.368-.459-.256-.811-.56-1.056-.912v4.48h-1.6v-11.04h1.6v1.12zm2.32 5.2c.427 0 .816-.107 1.168-.32.352-.213.629-.507.832-.88.213-.384.32-.811.32-1.28s-.107-.891-.32-1.264a2.251 2.251 0 00-.832-.896 2.212 2.212 0 00-1.168-.32c-.427 0-.816.107-1.168.32a2.362 2.362 0 00-.848.896 2.602 2.602 0 00-.304 1.264c0 .469.101.896.304 1.28.213.373.496.667.848.88.352.213.741.32 1.168.32z" class="Label"/>
        </g>
        <g class="iOS/Home Bar/Black_2">
          <path fill="#000" fill-rule="evenodd" d="M121 800.5a2.5 2.5 0 012.5-2.5h129a2.5 2.5 0 110 5h-129a2.5 2.5 0 01-2.5-2.5z" class="Rectangle_2" clip-rule="evenodd"/>
        </g>
      </g>
    </g>
    <g class="Cluster">
      <g class="Battery">
        <path stroke="#000" d="M336.496 19.965c0-1.196.97-2.166 2.167-2.166h16.666c1.196 0 2.167.97 2.167 2.166v5.979a2.167 2.167 0 01-2.167 2.167h-16.666a2.167 2.167 0 01-2.167-2.167v-5.979z" class="Rectangle_3" opacity=".35"/>
        <path fill="#000" d="M358.996 20.959v3.992a2.167 2.167 0 001.328-1.996c0-.871-.524-1.658-1.328-1.996z" class="Combined Shape" opacity=".4"/>
        <path fill="#000" d="M337.996 20.628c0-.736.597-1.333 1.333-1.333h15.333c.737 0 1.334.597 1.334 1.333v4.653c0 .736-.597 1.333-1.334 1.333h-15.333a1.333 1.333 0 01-1.333-1.333v-4.653z" class="Rectangle_4"/>
      </g>
      <path fill="#000" fill-rule="evenodd" d="M323.327 19.57c2.216 0 4.347.85 5.953 2.374a.308.308 0 00.433-.004l1.156-1.164a.32.32 0 00-.003-.455c-4.215-4.032-10.864-4.032-15.079 0a.32.32 0 00-.003.455l1.156 1.164c.119.12.312.121.433.004a8.65 8.65 0 015.954-2.374zm0 3.788c1.217 0 2.391.452 3.294 1.268a.31.31 0 00.433-.006l1.155-1.165a.32.32 0 00.093-.23.318.318 0 00-.098-.228 7.169 7.169 0 00-9.752 0 .32.32 0 00-.004.458l1.154 1.165a.31.31 0 00.433.006 4.913 4.913 0 013.292-1.268zm2.313 2.55a.311.311 0 01-.094.23l-1.997 2.011a.314.314 0 01-.444 0l-1.997-2.012a.312.312 0 01.009-.456 3.426 3.426 0 014.419 0c.065.058.102.14.104.226z" class="Wifi" clip-rule="evenodd"/>
      <path fill="#000" fill-rule="evenodd" d="M309.663 17.633h-1a1 1 0 00-1 .998v8.65a1 1 0 001 .998h1c.553 0 1-.447 1-.998v-8.65a.999.999 0 00-1-.998zm-5.666 2.329h1a1 1 0 011 .998v6.321a1 1 0 01-1 .998h-1a1 1 0 01-1-.998V20.96a1 1 0 011-.998zm-3.667 2.329h-1a1 1 0 00-1 .998v3.992a1 1 0 001 .998h1c.553 0 1-.447 1-.998V23.29a.999.999 0 00-1-.998zm-4.666 1.996h-1a1 1 0 00-1 .998v1.996a1 1 0 001 .998h1a1 1 0 001-.998v-1.996a1 1 0 00-1-.998z" class="Mobile Signal" clip-rule="evenodd"/>
    </g>
    <g class="Time Style">
      <path fill="#000" d="M33.842 20.539v.021h1.772v-.029c0-1.047.82-1.823 1.92-1.823 1.047 0 1.83.695 1.83 1.567 0 .79-.33 1.333-1.53 2.556l-3.89 3.867v1.275h7.427v-1.546h-4.907v-.036l2.615-2.586c1.384-1.399 2.13-2.35 2.13-3.61 0-1.715-1.508-3.004-3.617-3.004-2.19 0-3.75 1.4-3.75 3.348zm9.888 5.888a1.04 1.04 0 001.047-1.054 1.04 1.04 0 00-1.047-1.055c-.593 0-1.055.461-1.055 1.055 0 .593.462 1.054 1.055 1.054zm0-5.288c.586 0 1.047-.469 1.047-1.055a1.04 1.04 0 00-1.047-1.054c-.593 0-1.055.461-1.055 1.054 0 .586.462 1.055 1.055 1.055zm6.49 7.046c2.585 0 4.123-2.131 4.123-5.515s-1.553-5.479-4.124-5.479c-2.578 0-4.138 2.11-4.138 5.486 0 3.391 1.545 5.508 4.138 5.508zm0-1.545c-1.407 0-2.235-1.48-2.235-3.97 0-2.446.843-3.933 2.234-3.933 1.385 0 2.212 1.472 2.212 3.94 0 2.49-.813 3.963-2.212 3.963zm5.53 1.333h1.977l4.519-8.994v-1.575h-7.354v1.545h5.494v.037l-4.637 8.987z" class="9:41"/>
    </g>
    <g class=".Navigation primitives/L12/Native/Nav bar (black)">
      <g class="Right">
        <g class="Navigation UI/Secondary/Native/Help">
          <g class="Vector">
            <path fill="#25272E" d="M351 75.5a9.5 9.5 0 009.5-9.5 9.5 9.5 0 00-9.5-9.5 9.5 9.5 0 00-9.5 9.5 9.5 9.5 0 009.5 9.5zm0 1.5c-6.075 0-11-4.925-11-11s4.925-11 11-11 11 4.925 11 11-4.925 11-11 11z"/>
            <path fill="#25272E" d="M349.81 67.573c0-2.03 2.38-2.03 2.38-3.52a1.136 1.136 0 00-.807-1.008 1.14 1.14 0 00-.453-.042 1.719 1.719 0 00-1.68 1.15l-1.75-.77a3.56 3.56 0 013.5-2.38c2.07 0 3.36 1.32 3.36 2.79 0 2.59-2.52 2.59-2.52 4.41h-1.89a2.067 2.067 0 01-.14-.63zm-.14 2.52a1.085 1.085 0 01.33-.782 1.083 1.083 0 01.79-.308 1.119 1.119 0 11-1.12 1.09z"/>
          </g>
        </g>
      </g>
      <g class="Left">
        <g class="Navigation UI/Secondary/Native/Back">
          <path fill="#25272E" fill-rule="evenodd" d="M27.002 57.36l-8.157 7.831c-.46.44-.46 1.176 0 1.619l8.157 7.83a1.292 1.292 0 101.79-1.865l-6.832-6.559a.299.299 0 010-.433l6.833-6.56a1.293 1.293 0 00-1.79-1.864z" class="Back" clip-rule="evenodd"/>
        </g>
      </g>
    </g>
    <g class="Explorer Step Dot/Complete">
      <circle cx="141.5" cy="63.5" r="2.5" fill="#03948C" class="Dot"/>
    </g>
    <g class="Explorer Step Dot/Complete_2">
      <circle cx="154.5" cy="63.5" r="2.5" fill="#03948C" class="Dot_2"/>
    </g>
    <g class="Explorer Step Dot/Complete_3">
      <circle cx="167.5" cy="63.5" r="2.5" fill="#03948C" class="Dot_3"/>
    </g>
    <g class="Explorer Step Dot/Complete_4">
      <circle cx="180.5" cy="63.5" r="2.5" fill="#03948C" class="Dot_4"/>
    </g>
    <g class="Explorer Step Dot/Current">
      <circle cx="193.5" cy="63.5" r="4" fill="#03948C" class="Grande Dot"/>
    </g>
    <g class="Explorer Step Dot/Upcoming">
      <circle cx="206.5" cy="63.5" r="2.5" fill="#CEE1E5" class="Dot_5"/>
    </g>
    <g class="Explorer Step Dot/Upcoming_2">
      <circle cx="219.5" cy="63.5" r="2.5" fill="#CEE1E5" class="Dot_6"/>
    </g>
    <g class="Explorer Step Dot/Upcoming_3">
      <circle cx="232.5" cy="63.5" r="2.5" fill="#CEE1E5" class="Dot_7"/>
    </g>
  </g>
  <defs>
    <clipPath id="clip0" class="clip0">
      <path fill="#fff" d="M0 0h375v812H0z"/>
    </clipPath>
    <clipPath id="clip1" class="clip1">
      <path fill="#fff" d="M0 0h24v24H0z" transform="translate(32.5 638)"/>
    </clipPath>
    <linearGradient id="paint0_linear" x1="111.5" x2="291.075" y1="131.987" y2="783.45" class="paint0_linear" gradientUnits="userSpaceOnUse">
      <stop stop-color="#E4F0F0" stop-opacity="0"/>
      <stop offset="1" stop-color="#E4F0F0"/>
    </linearGradient>
  </defs>
</svg>
