<svg xmlns="http://www.w3.org/2000/svg" width="375" height="812" fill="none" viewBox="0 0 375 812">
  <g class="09-he" clip-path="url(#clip0)">
    <path fill="#fff" d="M0 0h375v812H0z"/>
    <path fill="url(#paint0_linear)" d="M0 98h375v714H0z" class="Rectangle 480"/>
    <g class="Frame 1279">
      <g class="Text">
        <path fill="#25272E" d="M20.8 324v5.5h6V324h3v14h-3v-5.7h-6v5.7h-3v-14h3zm11.506 9.1c0-.92.226-1.767.68-2.54a5.082 5.082 0 011.9-1.86c.8-.467 1.673-.7 2.62-.7.946 0 1.82.233 2.62.7a4.935 4.935 0 011.88 1.86c.466.773.7 1.62.7 2.54a4.93 4.93 0 01-.7 2.56 5.14 5.14 0 01-1.88 1.86c-.8.453-1.674.68-2.62.68-.947 0-1.82-.227-2.62-.68a5.3 5.3 0 01-1.9-1.86 5.04 5.04 0 01-.68-2.56zm5.2 2.6c.706 0 1.3-.247 1.78-.74s.72-1.113.72-1.86c0-.747-.24-1.367-.72-1.86-.48-.493-1.074-.74-1.78-.74-.707 0-1.3.247-1.78.74s-.72 1.113-.72 1.86c0 .747.24 1.367.72 1.86.48.493 1.073.74 1.78.74zm8.696-7.5l1.8 5.8h.1l1.9-5.8h2.2l1.9 5.8h.1l1.8-5.8h2.9l-3.44 9.8h-2.46l-1.86-5.7h-.08l-1.86 5.7h-2.46l-3.44-9.8h2.9zm17.51 4.9c0-.92.226-1.767.68-2.54a5.083 5.083 0 011.9-1.86c.8-.467 1.673-.7 2.62-.7.946 0 1.82.233 2.62.7a4.934 4.934 0 011.88 1.86c.466.773.7 1.62.7 2.54a4.93 4.93 0 01-.7 2.56 5.14 5.14 0 01-1.88 1.86c-.8.453-1.674.68-2.62.68-.947 0-1.82-.227-2.62-.68a5.3 5.3 0 01-1.9-1.86 5.04 5.04 0 01-.68-2.56zm5.2 2.6c.706 0 1.3-.247 1.78-.74s.72-1.113.72-1.86c0-.747-.24-1.367-.72-1.86-.48-.493-1.074-.74-1.78-.74-.707 0-1.3.247-1.78.74s-.72 1.113-.72 1.86c0 .747.24 1.367.72 1.86.48.493 1.073.74 1.78.74zm6.297-7.3h1.5v-1c0-1.133.293-2.013.88-2.64.6-.64 1.406-.96 2.42-.96h1.8v2.6h-1.1c-.4 0-.72.127-.96.38-.227.24-.34.58-.34 1.02v.6h2.2v2.5h-2.2v7.1h-2.7v-7.1h-1.5v-2.5zm7.402 0h1.7v-3h2.7v3h2.4v2.5h-2.4v3.38c0 .44.113.767.34.98.227.213.547.32.96.32h1.1V338h-1.8c-1.027 0-1.833-.287-2.42-.86s-.88-1.42-.88-2.54v-3.7h-1.7v-2.5zm17.512 8.66c-.453.32-1.046.593-1.78.82-.733.213-1.54.32-2.42.32-.946 0-1.82-.227-2.62-.68a5.3 5.3 0 01-1.9-1.86 5.04 5.04 0 01-.68-2.56c0-.92.227-1.767.68-2.54a5.176 5.176 0 011.86-1.86c.787-.467 1.64-.7 2.56-.7.88 0 1.694.22 2.44.66.76.44 1.36 1.04 1.8 1.8.44.747.66 1.56.66 2.44 0 .44-.033.84-.1 1.2h-7.1c.16.493.454.9.88 1.22.44.32 1.014.48 1.72.48.56 0 1.06-.06 1.5-.18.454-.133.82-.287 1.1-.46l1.4 1.9zm-2.2-4.96c-.16-.48-.44-.88-.84-1.2-.386-.333-.84-.5-1.36-.5-.52 0-.98.167-1.38.5-.386.32-.66.72-.82 1.2h4.4zm7.507-2.5h.1c.306-.44.706-.813 1.2-1.12a3.115 3.115 0 011.7-.48c.666 0 1.273.173 1.82.52.546.333.98.813 1.3 1.44.32.613.48 1.327.48 2.14v5.9h-2.7v-5.5c0-.6-.16-1.067-.48-1.4-.32-.333-.76-.5-1.32-.5-.6 0-1.1.207-1.5.62-.4.413-.6.94-.6 1.58v5.2h-2.7v-9.8h2.7v1.4zm14.913-1.4l1.8 5.8h.1l1.9-5.8h2.2l1.9 5.8h.1l1.8-5.8h2.9l-3.44 9.8h-2.46l-1.86-5.7h-.08l-1.86 5.7h-2.46l-3.44-9.8h2.9zm13.691-2.8c0-.4.153-.747.46-1.04.306-.307.673-.46 1.1-.46.413 0 .773.153 1.08.46.306.293.46.64.46 1.04s-.154.753-.46 1.06c-.307.293-.674.44-1.1.44-.414 0-.774-.147-1.08-.44-.307-.307-.46-.66-.46-1.06zm2.9 2.8v9.8h-2.7v-9.8h2.7zm5.393-4.2v14h-2.7v-14h2.7zm5.507 0v14h-2.7v-14h2.7zm7.427 15.6c.813 0 1.38-.4 1.7-1.2l.2-.5-3.8-9.7h2.9l2.3 6.5h.1l2.2-6.5h2.9l-4 10.6c-.427 1.133-.947 1.98-1.56 2.54-.613.573-1.36.86-2.24.86h-1.8v-2.6h1.1zm9.095-6.5c0-.92.227-1.767.68-2.54a5.085 5.085 0 011.9-1.86c.8-.467 1.674-.7 2.62-.7.947 0 1.82.233 2.62.7a4.932 4.932 0 011.88 1.86c.467.773.7 1.62.7 2.54 0 .92-.233 1.773-.7 2.56a5.137 5.137 0 01-4.5 2.54c-.946 0-1.82-.227-2.62-.68a5.302 5.302 0 01-1.9-1.86 5.044 5.044 0 01-.68-2.56zm5.2 2.6c.707 0 1.3-.247 1.78-.74s.72-1.113.72-1.86c0-.747-.24-1.367-.72-1.86-.48-.493-1.073-.74-1.78-.74-.706 0-1.3.247-1.78.74s-.72 1.113-.72 1.86c0 .747.24 1.367.72 1.86.48.493 1.074.74 1.78.74zm9.897-2c0 .6.16 1.067.48 1.4.32.333.76.5 1.32.5.6 0 1.1-.207 1.5-.62.4-.413.6-.94.6-1.58v-5.2h2.7v9.8h-2.7v-1.4h-.1c-.307.44-.713.82-1.22 1.14a3.112 3.112 0 01-1.68.46 3.43 3.43 0 01-1.82-.5 3.682 3.682 0 01-1.3-1.44c-.32-.627-.48-1.347-.48-2.16v-5.9h2.7v5.5zm16.504-4.1h.1c.307-.44.707-.813 1.2-1.12a3.118 3.118 0 011.7-.48c.667 0 1.273.173 1.82.52.547.333.98.813 1.3 1.44.32.613.48 1.327.48 2.14v5.9h-2.7v-5.5c0-.6-.16-1.067-.48-1.4-.32-.333-.76-.5-1.32-.5-.6 0-1.1.207-1.5.62-.4.413-.6.94-.6 1.58v5.2h-2.7v-9.8h2.7v1.4zm17.995 7.46c-.454.32-1.047.593-1.78.82-.734.213-1.54.32-2.42.32-.947 0-1.82-.227-2.62-.68a5.295 5.295 0 01-1.9-1.86 5.034 5.034 0 01-.68-2.56c0-.92.226-1.767.68-2.54a5.166 5.166 0 011.86-1.86c.786-.467 1.64-.7 2.56-.7.88 0 1.693.22 2.44.66.76.44 1.36 1.04 1.8 1.8.44.747.66 1.56.66 2.44 0 .44-.034.84-.1 1.2h-7.1c.16.493.453.9.88 1.22.44.32 1.013.48 1.72.48.56 0 1.06-.06 1.5-.18.453-.133.82-.287 1.1-.46l1.4 1.9zm-2.2-4.96c-.16-.48-.44-.88-.84-1.2a2.02 2.02 0 00-1.36-.5c-.52 0-.98.167-1.38.5-.387.32-.66.72-.82 1.2h4.4zm13.606 4.96c-.454.32-1.047.593-1.78.82-.734.213-1.54.32-2.42.32-.947 0-1.82-.227-2.62-.68a5.295 5.295 0 01-1.9-1.86 5.034 5.034 0 01-.68-2.56c0-.92.226-1.767.68-2.54a5.166 5.166 0 011.86-1.86c.786-.467 1.64-.7 2.56-.7.88 0 1.693.22 2.44.66.76.44 1.36 1.04 1.8 1.8.44.747.66 1.56.66 2.44 0 .44-.034.84-.1 1.2h-7.1c.16.493.453.9.88 1.22.44.32 1.013.48 1.72.48.56 0 1.06-.06 1.5-.18.453-.133.82-.287 1.1-.46l1.4 1.9zm-2.2-4.96c-.16-.48-.44-.88-.84-1.2a2.02 2.02 0 00-1.36-.5c-.52 0-.98.167-1.38.5-.387.32-.66.72-.82 1.2h4.4zm11.706 4.5c-.307.44-.727.82-1.26 1.14-.533.307-1.147.46-1.84.46-.773 0-1.5-.22-2.18-.66-.667-.44-1.207-1.047-1.62-1.82-.4-.773-.6-1.647-.6-2.62 0-.973.2-1.847.6-2.62.413-.773.953-1.38 1.62-1.82.68-.44 1.407-.66 2.18-.66.693 0 1.307.16 1.84.48.533.307.953.68 1.26 1.12h.1V324h2.7v14h-2.7v-1.4h-.1zm-2.3-.9c.707 0 1.3-.247 1.78-.74s.72-1.113.72-1.86c0-.747-.24-1.367-.72-1.86-.48-.493-1.073-.74-1.78-.74-.707 0-1.3.247-1.78.74s-.72 1.113-.72 1.86c0 .747.24 1.367.72 1.86.48.493 1.073.74 1.78.74zm15.212-6.1h.1c.306-.44.706-.813 1.2-1.12a3.115 3.115 0 011.7-.48c.666 0 1.273.173 1.82.52.546.333.98.813 1.3 1.44.32.613.48 1.327.48 2.14v5.9h-2.7v-5.5c0-.6-.16-1.067-.48-1.4-.32-.333-.76-.5-1.32-.5-.6 0-1.1.207-1.5.62-.4.413-.6.94-.6 1.58v5.2h-2.7v-14h2.7v5.6zm17.992 7.46c-.453.32-1.047.593-1.78.82-.733.213-1.54.32-2.42.32-.947 0-1.82-.227-2.62-.68a5.302 5.302 0 01-1.9-1.86 5.044 5.044 0 01-.68-2.56c0-.92.227-1.767.68-2.54a5.181 5.181 0 011.86-1.86c.787-.467 1.64-.7 2.56-.7.88 0 1.693.22 2.44.66.76.44 1.36 1.04 1.8 1.8.44.747.66 1.56.66 2.44 0 .44-.033.84-.1 1.2h-7.1c.16.493.453.9.88 1.22.44.32 1.013.48 1.72.48.56 0 1.06-.06 1.5-.18.453-.133.82-.287 1.1-.46l1.4 1.9zm-2.2-4.96c-.16-.48-.44-.88-.84-1.2a2.02 2.02 0 00-1.36-.5c-.52 0-.98.167-1.38.5-.387.32-.66.72-.82 1.2h4.4zm10.206 4.7c-.306.387-.713.72-1.22 1-.493.267-1.053.4-1.68.4-.893 0-1.62-.26-2.18-.78-.546-.533-.82-1.207-.82-2.02 0-.827.26-1.533.78-2.12.534-.587 1.24-.927 2.12-1.02l3.1-.3c-.053-.4-.233-.76-.54-1.08-.306-.32-.693-.48-1.16-.48-.453 0-.873.053-1.26.16a3.8 3.8 0 00-.94.34l-1.6-1.6c.427-.36.987-.667 1.68-.92.694-.253 1.467-.38 2.32-.38.814 0 1.54.173 2.18.52.64.333 1.134.8 1.48 1.4.36.587.54 1.247.54 1.98v6.1h-2.7v-1.2h-.1zm-2.1-2.86c-.333.013-.6.127-.8.34-.2.213-.3.453-.3.72 0 .307.1.553.3.74.214.173.514.26.9.26.627 0 1.134-.167 1.52-.5.387-.333.58-.813.58-1.44v-.2l-2.2.08zm10.008-9.94v14h-2.7v-14h2.7zm1.808 4.4h1.7v-3h2.7v3h2.4v2.5h-2.4v3.38c0 .44.113.767.34.98.227.213.547.32.96.32h1.1V338h-1.8c-1.027 0-1.833-.287-2.42-.86s-.88-1.42-.88-2.54v-3.7h-1.7v-2.5zm11.708 1.2h.1c.306-.44.706-.813 1.2-1.12a3.115 3.115 0 011.7-.48c.666 0 1.273.173 1.82.52.546.333.98.813 1.3 1.44.32.613.48 1.327.48 2.14v5.9h-2.7v-5.5c0-.6-.16-1.067-.48-1.4-.32-.333-.76-.5-1.32-.5-.6 0-1.1.207-1.5.62-.4.413-.6.94-.6 1.58v5.2h-2.7v-14h2.7v5.6zm22.501 6.6c-.4.56-.953 1.033-1.66 1.42-.706.387-1.52.58-2.44.58-.946 0-1.82-.227-2.62-.68a5.302 5.302 0 01-1.9-1.86 5.044 5.044 0 01-.68-2.56c0-.92.227-1.767.68-2.54a5.085 5.085 0 011.9-1.86c.8-.467 1.674-.7 2.62-.7.92 0 1.734.193 2.44.58.707.387 1.26.86 1.66 1.42l-1.7 1.7a3.275 3.275 0 00-1.04-.84 2.658 2.658 0 00-1.36-.36c-.706 0-1.3.247-1.78.74s-.72 1.113-.72 1.86c0 .747.24 1.367.72 1.86.48.493 1.074.74 1.78.74.494 0 .947-.113 1.36-.34.427-.24.774-.527 1.04-.86l1.7 1.7zm7.091.6c-.307.387-.713.72-1.22 1-.493.267-1.053.4-1.68.4-.893 0-1.62-.26-2.18-.78-.547-.533-.82-1.207-.82-2.02 0-.827.26-1.533.78-2.12.533-.587 1.24-.927 2.12-1.02l3.1-.3c-.053-.4-.233-.76-.54-1.08-.307-.32-.693-.48-1.16-.48-.453 0-.873.053-1.26.16-.387.093-.7.207-.94.34l-1.6-1.6c.427-.36.987-.667 1.68-.92s1.467-.38 2.32-.38c.813 0 1.54.173 2.18.52.64.333 1.133.8 1.48 1.4.36.587.54 1.247.54 1.98v6.1h-2.7v-1.2h-.1zm-2.1-2.86c-.333.013-.6.127-.8.34-.2.213-.3.453-.3.72 0 .307.1.553.3.74.213.173.513.26.9.26.627 0 1.133-.167 1.52-.5.387-.333.58-.813.58-1.44v-.2l-2.2.08zm9.908-4.64h.1c.186-.307.486-.567.9-.78.413-.213.933-.32 1.56-.32h.64v2.6h-.9c-.667 0-1.22.24-1.66.72-.427.467-.64 1.093-.64 1.88v4.6h-2.7v-9.8h2.7v1.1zm13.502 7.76c-.453.32-1.047.593-1.78.82-.733.213-1.54.32-2.42.32-.947 0-1.82-.227-2.62-.68a5.302 5.302 0 01-1.9-1.86 5.044 5.044 0 01-.68-2.56c0-.92.227-1.767.68-2.54a5.181 5.181 0 011.86-1.86c.787-.467 1.64-.7 2.56-.7.88 0 1.693.22 2.44.66.76.44 1.36 1.04 1.8 1.8.44.747.66 1.56.66 2.44 0 .44-.033.84-.1 1.2h-7.1c.16.493.453.9.88 1.22.44.32 1.013.48 1.72.48.56 0 1.06-.06 1.5-.18.453-.133.82-.287 1.1-.46l1.4 1.9zm-2.2-4.96c-.16-.48-.44-.88-.84-1.2a2.02 2.02 0 00-1.36-.5c-.52 0-.98.167-1.38.5-.387.32-.66.72-.82 1.2h4.4zM20 357.6h.1a4.04 4.04 0 011.2-1.12A3.118 3.118 0 0123 356c.667 0 1.273.173 1.82.52.547.333.98.813 1.3 1.44.32.613.48 1.327.48 2.14v5.9h-2.7v-5.5c0-.6-.16-1.067-.48-1.4-.32-.333-.76-.5-1.32-.5-.6 0-1.1.207-1.5.62-.4.413-.6.94-.6 1.58v5.2h-2.7v-9.8H20v1.4zm17.995 7.46c-.454.32-1.047.593-1.78.82-.734.213-1.54.32-2.42.32-.947 0-1.82-.227-2.62-.68a5.3 5.3 0 01-1.9-1.86 5.04 5.04 0 01-.68-2.56c0-.92.226-1.767.68-2.54a5.176 5.176 0 011.86-1.86c.786-.467 1.64-.7 2.56-.7.88 0 1.693.22 2.44.66.76.44 1.36 1.04 1.8 1.8.44.747.66 1.56.66 2.44 0 .44-.034.84-.1 1.2h-7.1c.16.493.453.9.88 1.22.44.32 1.013.48 1.72.48.56 0 1.06-.06 1.5-.18.453-.133.82-.287 1.1-.46l1.4 1.9zm-2.2-4.96c-.16-.48-.44-.88-.84-1.2-.387-.333-.84-.5-1.36-.5-.52 0-.98.167-1.38.5-.387.32-.66.72-.82 1.2h4.4zm3.41-3.9h3.1l1.86 3h.08l1.86-3h3.1l-3.3 4.8 3.5 5h-3.1l-2.06-3.2h-.08l-2.06 3.2h-3.1l3.5-5-3.3-4.8zm10.496.2h1.7v-3h2.7v3h2.4v2.5h-2.4v3.38c0 .44.113.767.34.98.226.213.546.32.96.32h1.1V366h-1.8c-1.027 0-1.834-.287-2.42-.86-.587-.573-.88-1.42-.88-2.54v-3.7h-1.7v-2.5zm13.626 11.2c.814 0 1.38-.4 1.7-1.2l.2-.5-3.8-9.7h2.9l2.3 6.5h.1l2.2-6.5h2.9l-4 10.6c-.426 1.133-.946 1.98-1.56 2.54-.613.573-1.36.86-2.24.86h-1.8v-2.6h1.1zm18.496-2.54c-.454.32-1.047.593-1.78.82-.734.213-1.54.32-2.42.32-.947 0-1.82-.227-2.62-.68a5.3 5.3 0 01-1.9-1.86 5.04 5.04 0 01-.68-2.56c0-.92.226-1.767.68-2.54a5.175 5.175 0 011.86-1.86c.786-.467 1.64-.7 2.56-.7.88 0 1.693.22 2.44.66.76.44 1.36 1.04 1.8 1.8.44.747.66 1.56.66 2.44 0 .44-.034.84-.1 1.2h-7.1c.16.493.453.9.88 1.22.44.32 1.013.48 1.72.48.56 0 1.06-.06 1.5-.18.453-.133.82-.287 1.1-.46l1.4 1.9zm-2.2-4.96c-.16-.48-.44-.88-.84-1.2a2.02 2.02 0 00-1.36-.5c-.52 0-.98.167-1.38.5-.387.32-.66.72-.82 1.2h4.4zm10.206 4.7c-.307.387-.713.72-1.22 1-.493.267-1.053.4-1.68.4-.893 0-1.62-.26-2.18-.78-.547-.533-.82-1.207-.82-2.02 0-.827.26-1.533.78-2.12.533-.587 1.24-.927 2.12-1.02l3.1-.3a1.9 1.9 0 00-.54-1.08c-.307-.32-.693-.48-1.16-.48-.453 0-.873.053-1.26.16a3.79 3.79 0 00-.94.34l-1.6-1.6c.427-.36.987-.667 1.68-.92s1.467-.38 2.32-.38c.813 0 1.54.173 2.18.52.64.333 1.133.8 1.48 1.4.36.587.54 1.247.54 1.98v6.1h-2.7v-1.2h-.1zm-2.1-2.86c-.333.013-.6.127-.8.34-.2.213-.3.453-.3.72 0 .307.1.553.3.74.213.173.513.26.9.26.627 0 1.133-.167 1.52-.5.387-.333.58-.813.58-1.44v-.2l-2.2.08zm9.908-4.64h.1c.186-.307.486-.567.9-.78.413-.213.933-.32 1.56-.32h.64v2.6h-.9c-.667 0-1.22.24-1.66.72-.427.467-.64 1.093-.64 1.88v4.6h-2.7v-9.8h2.7v1.1zm7.397 4.4c-.133-.28-.2-.58-.2-.9 0-.667.18-1.213.54-1.64.36-.44.874-.893 1.54-1.36.494-.347.854-.64 1.08-.88.227-.24.34-.513.34-.82 0-.373-.166-.7-.5-.98-.333-.28-.766-.42-1.3-.42-.586 0-1.093.16-1.52.48-.426.307-.753.68-.98 1.12l-2.6-1.2c.36-.92.974-1.7 1.84-2.34.867-.64 1.954-.96 3.26-.96 1 0 1.88.187 2.64.56.76.373 1.34.873 1.74 1.5a3.63 3.63 0 01.62 2.04c0 .573-.106 1.073-.32 1.5-.2.413-.446.76-.74 1.04-.293.267-.673.573-1.14.92-.573.413-1 .787-1.28 1.12-.28.32-.42.727-.42 1.22h-2.6zm-.4 2.9c0-.453.154-.833.46-1.14.307-.307.687-.46 1.14-.46.454 0 .834.153 1.14.46.307.307.46.687.46 1.14 0 .453-.153.833-.46 1.14-.306.307-.686.46-1.14.46-.453 0-.833-.153-1.14-.46a1.552 1.552 0 01-.46-1.14z" class="Step Title"/>
        <path fill="#25272E" d="M19.84 399h1.2v-10.08h3.52v-1.12h-8.24v1.12h3.52V399zm6.082 0h1.12v-4.24c0-1.52 1.04-2.56 2.4-2.56 1.2 0 2.08.88 2.08 2.24V399h1.12v-4.56c0-2-1.28-3.28-3.12-3.28-1.68 0-2.48 1.28-2.48 1.28v-4.64h-1.12V399zm9.12-10.24c0 .4.32.72.72.72.4 0 .72-.32.72-.72 0-.4-.32-.72-.72-.72-.4 0-.72.32-.72.72zm.16 10.24h1.12v-7.68h-1.12V399zm2.967-1.2s.88 1.36 2.8 1.36c1.76 0 2.8-1.04 2.8-2.32 0-2.72-4.16-1.84-4.16-3.52 0-.56.56-1.12 1.44-1.12 1.12 0 1.68.8 1.68.8l.8-.8s-.88-1.04-2.48-1.04c-1.52 0-2.56 1.04-2.56 2.16 0 2.64 4.16 1.76 4.16 3.52 0 .72-.56 1.28-1.68 1.28-1.28 0-2-1.12-2-1.12l-.8.8zm10.795-9.04c0 .4.32.72.72.72.4 0 .72-.32.72-.72 0-.4-.32-.72-.72-.72-.4 0-.72.32-.72.72zm.16 10.24h1.12v-7.68h-1.12V399zm2.967-1.2s.88 1.36 2.8 1.36c1.76 0 2.8-1.04 2.8-2.32 0-2.72-4.16-1.84-4.16-3.52 0-.56.56-1.12 1.44-1.12 1.12 0 1.68.8 1.68.8l.8-.8s-.88-1.04-2.48-1.04c-1.52 0-2.56 1.04-2.56 2.16 0 2.64 4.16 1.76 4.16 3.52 0 .72-.56 1.28-1.68 1.28-1.28 0-2-1.12-2-1.12l-.8.8zm10.795-9.04c0 .4.32.72.72.72.4 0 .72-.32.72-.72 0-.4-.32-.72-.72-.72-.4 0-.72.32-.72.72zm-1.76 13.36s.4.24.96.24c1.36 0 2.08-.72 2.08-2.24v-8.8h-1.12v8.8c0 .8-.4 1.2-1.04 1.2-.48 0-.88-.24-.88-.24v1.04zm5.607-6.32c0 2 1.36 3.36 3.12 3.36 1.68 0 2.48-1.2 2.48-1.2V399h1.12v-7.68h-1.12v4.24c0 1.52-1.04 2.56-2.32 2.56-1.2 0-2.16-.96-2.16-2.32v-4.48h-1.12v4.48zm8.64 2s.88 1.36 2.8 1.36c1.76 0 2.8-1.04 2.8-2.32 0-2.72-4.16-1.84-4.16-3.52 0-.56.56-1.12 1.44-1.12 1.12 0 1.68.8 1.68.8l.8-.8s-.88-1.04-2.48-1.04c-1.52 0-2.56 1.04-2.56 2.16 0 2.64 4.16 1.76 4.16 3.52 0 .72-.56 1.28-1.68 1.28-1.28 0-2-1.12-2-1.12l-.8.8zm8.234-.88c0 1.44.8 2.24 2.112 2.24.609 0 1.089-.24 1.089-.24v-1.04s-.48.24-1.04.24c-.64 0-1.04-.4-1.04-1.2v-4.56h1.68v-1.04h-1.68v-2.56h-1.04v1.76c0 .56-.24.8-.64.8h-.88v1.04h1.44v4.56zm8.886 2.08h1.12v-6.64h1.84v-1.04h-1.84v-1.44c0-.8.4-1.2 1.04-1.2.56 0 1.04.24 1.04.24v-1.04s-.48-.24-1.12-.24c-1.28 0-2.08.8-2.08 2.24v1.44h-1.2v1.04h1.2V399zm8.085.16c2.16 0 3.92-1.76 3.92-4s-1.76-4-3.92-4-3.92 1.76-3.92 4 1.76 4 3.92 4zm0-1.04c-1.52 0-2.8-1.296-2.8-2.96 0-1.68 1.28-2.96 2.8-2.96 1.52 0 2.8 1.28 2.8 2.96s-1.28 2.96-2.8 2.96zm5.921.88h1.12v-4.24c0-1.52 1.12-2.48 2.4-2.48h.48v-1.12h-.32c-1.76 0-2.56 1.2-2.56 1.2v-1.04h-1.12V399zm8.562 0h1.12v-4.24c0-1.52 1.12-2.48 2.4-2.48h.48v-1.12h-.32c-1.76 0-2.56 1.2-2.56 1.2v-1.04h-1.12V399zm11.12-2.16s-.864 1.28-2.48 1.28c-1.44 0-2.64-1.2-2.72-2.56l6.24.016s.08-.256.08-.576c0-2.24-1.6-3.84-3.68-3.84-2 0-3.76 1.76-3.76 4s1.76 4 3.84 4 3.2-1.6 3.2-1.6l-.72-.72zm-5.2-2.24c.16-1.28 1.28-2.4 2.64-2.4s2.4 1.04 2.56 2.4h-5.2zm13.995 2.24s-.88 1.28-2.4 1.28c-1.44 0-2.72-1.28-2.72-2.96s1.28-2.96 2.72-2.96c1.52 0 2.32 1.28 2.32 1.28l.8-.8s-1.12-1.52-3.12-1.52c-2.08 0-3.84 1.76-3.84 4s1.76 4 3.84 4c2 0 3.2-1.6 3.2-1.6l-.8-.72zm5.758 2.32c2.16 0 3.92-1.76 3.92-4s-1.76-4-3.92-4-3.92 1.76-3.92 4 1.76 4 3.92 4zm0-1.04c-1.52 0-2.8-1.296-2.8-2.96 0-1.68 1.28-2.96 2.8-2.96 1.52 0 2.8 1.28 2.8 2.96s-1.28 2.96-2.8 2.96zm5.921.88h1.12v-4.24c0-1.6.96-2.56 2.08-2.56s1.92.8 1.92 2.24V399h1.12v-4.24c0-1.6.96-2.56 2.08-2.56s1.92.784 1.92 2.24V399h1.12v-4.56c0-2.144-1.28-3.28-2.96-3.28-1.92 0-2.64 1.36-2.64 1.36s-.64-1.36-2.48-1.36c-1.52 0-2.16 1.12-2.16 1.12v-.96h-1.12V399zm13.922 0h1.12v-4.24c0-1.6.96-2.56 2.08-2.56s1.92.8 1.92 2.24V399h1.12v-4.24c0-1.6.96-2.56 2.08-2.56s1.92.784 1.92 2.24V399h1.12v-4.56c0-2.144-1.28-3.28-2.96-3.28-1.92 0-2.64 1.36-2.64 1.36s-.64-1.36-2.48-1.36c-1.52 0-2.16 1.12-2.16 1.12v-.96h-1.12V399zm19.682-2.16s-.864 1.28-2.48 1.28c-1.44 0-2.64-1.2-2.72-2.56l6.24.016s.08-.256.08-.576c0-2.24-1.6-3.84-3.68-3.84-2 0-3.76 1.76-3.76 4s1.76 4 3.84 4 3.2-1.6 3.2-1.6l-.72-.72zm-5.2-2.24c.16-1.28 1.28-2.4 2.64-2.4s2.4 1.04 2.56 2.4h-5.2zm8.315 4.4h1.12v-4.24c0-1.52 1.04-2.56 2.4-2.56 1.2 0 2.08.88 2.08 2.24V399h1.12v-4.56c0-2-1.28-3.28-3.12-3.28-1.68 0-2.48 1.28-2.48 1.28v-1.12h-1.12V399zm15.121 0h1.12v-11.2h-1.12v4.64s-.88-1.28-2.64-1.28c-2.08 0-3.76 1.68-3.76 4 0 2.32 1.68 4 3.76 4 1.76 0 2.64-1.28 2.64-1.28V399zm-2.64-.88c-1.44 0-2.64-1.2-2.64-2.96s1.2-2.96 2.64-2.96c1.36 0 2.64 1.28 2.64 2.96s-1.28 2.96-2.64 2.96zm11.034.88h1.12v-4.88c0-1.68-1.28-2.96-3.04-2.96-1.84 0-2.88 1.44-2.88 1.44l.72.72s.8-1.12 2.16-1.12c1.12 0 1.92.8 1.92 1.92l-2.96.48c-1.44.24-2.24 1.04-2.24 2.32 0 1.12 1.12 2.24 2.72 2.24 1.68 0 2.48-1.2 2.48-1.2V399zm0-3.44c0 1.52-1.04 2.56-2.48 2.56-1.04 0-1.6-.56-1.6-1.2 0-.72.48-1.184 1.44-1.36l2.64-.48v.48zm4.156 1.36c0 1.44.8 2.24 2.112 2.24.608 0 1.088-.24 1.088-.24v-1.04s-.48.24-1.04.24c-.64 0-1.04-.4-1.04-1.2v-4.56h1.68v-1.04h-1.68v-2.56h-1.04v1.76c0 .56-.24.8-.64.8h-.88v1.04h1.44v4.56zm4.966-8.16c0 .4.32.72.72.72.4 0 .72-.32.72-.72 0-.4-.32-.72-.72-.72-.4 0-.72.32-.72.72zm.16 10.24h1.12v-7.68h-1.12V399zm7.047.16c2.16 0 3.92-1.76 3.92-4s-1.76-4-3.92-4-3.92 1.76-3.92 4 1.76 4 3.92 4zm0-1.04c-1.52 0-2.8-1.296-2.8-2.96 0-1.68 1.28-2.96 2.8-2.96 1.52 0 2.8 1.28 2.8 2.96s-1.28 2.96-2.8 2.96zm5.921.88h1.12v-4.24c0-1.52 1.04-2.56 2.4-2.56 1.2 0 2.08.88 2.08 2.24V399h1.12v-4.56c0-2-1.28-3.28-3.12-3.28-1.68 0-2.48 1.28-2.48 1.28v-1.12h-1.12V399zm12.641 3.36h1.12v-4.48s.88 1.28 2.64 1.28c2.08 0 3.76-1.68 3.76-4 0-2.32-1.68-4-3.76-4-1.76 0-2.64 1.28-2.64 1.28v-1.12h-1.12v11.04zm3.76-4.24c-1.36 0-2.64-1.28-2.64-2.96s1.28-2.96 2.64-2.96c1.44 0 2.64 1.2 2.64 2.96s-1.2 2.96-2.64 2.96zm5.756-2.32c0 2 1.36 3.36 3.12 3.36 1.68 0 2.48-1.2 2.48-1.2V399h1.12v-7.68h-1.12v4.24c0 1.52-1.04 2.56-2.32 2.56-1.2 0-2.16-.96-2.16-2.32v-4.48h-1.12v4.48zm9.359 3.2h1.12v-4.24c0-1.52 1.12-2.48 2.4-2.48h.48v-1.12h-.32c-1.76 0-2.56 1.2-2.56 1.2v-1.04h-1.12V399zm5.516 3.36h1.12v-4.48s.88 1.28 2.64 1.28c2.08 0 3.76-1.68 3.76-4 0-2.32-1.68-4-3.76-4-1.76 0-2.64 1.28-2.64 1.28v-1.12h-1.12v11.04zm3.76-4.24c-1.36 0-2.64-1.28-2.64-2.96s1.28-2.96 2.64-2.96c1.44 0 2.64 1.2 2.64 2.96s-1.2 2.96-2.64 2.96zm9.115 1.04c2.16 0 3.92-1.76 3.92-4s-1.76-4-3.92-4-3.92 1.76-3.92 4 1.76 4 3.92 4zm0-1.04c-1.52 0-2.8-1.296-2.8-2.96 0-1.68 1.28-2.96 2.8-2.96 1.52 0 2.8 1.28 2.8 2.96s-1.28 2.96-2.8 2.96zm5.202-.32s.88 1.36 2.8 1.36c1.76 0 2.8-1.04 2.8-2.32 0-2.72-4.16-1.84-4.16-3.52 0-.56.56-1.12 1.44-1.12 1.12 0 1.68.8 1.68.8l.8-.8s-.88-1.04-2.48-1.04c-1.52 0-2.56 1.04-2.56 2.16 0 2.64 4.16 1.76 4.16 3.52 0 .72-.56 1.28-1.68 1.28-1.28 0-2-1.12-2-1.12l-.8.8zm13.355-.96s-.864 1.28-2.48 1.28c-1.44 0-2.64-1.2-2.72-2.56l6.239.016s.081-.256.081-.576c0-2.24-1.6-3.84-3.68-3.84-2 0-3.76 1.76-3.76 4s1.76 4 3.84 4 3.2-1.6 3.2-1.6l-.72-.72zm-5.2-2.24c.159-1.28 1.28-2.4 2.64-2.4s2.4 1.04 2.56 2.4h-5.2zm7.595 3.2s.88 1.36 2.8 1.36c1.76 0 2.8-1.04 2.8-2.32 0-2.72-4.16-1.84-4.16-3.52 0-.56.56-1.12 1.44-1.12 1.12 0 1.68.8 1.68.8l.8-.8s-.88-1.04-2.48-1.04c-1.52 0-2.56 1.04-2.56 2.16 0 2.64 4.16 1.76 4.16 3.52 0 .72-.56 1.28-1.68 1.28-1.28 0-2-1.12-2-1.12l-.8.8zm15.594 1.2h1.12v-4.88c0-1.68-1.28-2.96-3.04-2.96-1.84 0-2.88 1.44-2.88 1.44l.72.72s.8-1.12 2.16-1.12c1.12 0 1.92.8 1.92 1.92l-2.96.48c-1.44.24-2.24 1.04-2.24 2.32 0 1.12 1.12 2.24 2.72 2.24 1.68 0 2.48-1.2 2.48-1.2V399zm0-3.44c0 1.52-1.04 2.56-2.48 2.56-1.04 0-1.6-.56-1.6-1.2 0-.72.48-1.184 1.44-1.36l2.64-.48v.48zm3.672 3.44h1.12v-4.24c0-1.52 1.04-2.56 2.4-2.56 1.2 0 2.08.88 2.08 2.24V399h1.12v-4.56c0-2-1.28-3.28-3.12-3.28-1.68 0-2.48 1.28-2.48 1.28v-1.12h-1.12V399zm15.122 0h1.12v-11.2h-1.12v4.64s-.88-1.28-2.64-1.28c-2.08 0-3.76 1.68-3.76 4 0 2.32 1.68 4 3.76 4 1.76 0 2.64-1.28 2.64-1.28V399zm-2.64-.88c-1.44 0-2.64-1.2-2.64-2.96s1.2-2.96 2.64-2.96c1.36 0 2.64 1.28 2.64 2.96s-1.28 2.96-2.64 2.96zM18.88 423h1.04l1.92-5.84 1.92 5.84h1.04l2.64-7.68h-1.2l-2 5.92-1.92-5.92h-.96l-1.92 5.92-2-5.92h-1.2l2.64 7.68zm13.448.16c2.16 0 3.92-1.76 3.92-4s-1.76-4-3.92-4-3.92 1.76-3.92 4 1.76 4 3.92 4zm0-1.04c-1.52 0-2.8-1.296-2.8-2.96 0-1.68 1.28-2.96 2.8-2.96 1.52 0 2.8 1.28 2.8 2.96s-1.28 2.96-2.8 2.96zm5.92.88h1.12v-4.24c0-1.52 1.04-2.56 2.4-2.56 1.2 0 2.08.88 2.08 2.24V423h1.12v-4.56c0-2-1.28-3.28-3.12-3.28-1.68 0-2.48 1.28-2.48 1.28v-1.12h-1.12V423zm8.402-8.4l.72.4 1.84-2.88-1.12-.64-1.44 3.12zm4.88 6.32c0 1.44.8 2.24 2.111 2.24.608 0 1.088-.24 1.088-.24v-1.04s-.48.24-1.04.24c-.64 0-1.04-.4-1.04-1.2v-4.56h1.68v-1.04h-1.68v-2.56h-1.04v1.76c0 .56-.24.8-.64.8h-.88v1.04h1.44v4.56zm8.564 2.08h1.12v-11.2h-1.12V423zm3.604-10.24c0 .4.32.72.72.72.4 0 .72-.32.72-.72 0-.4-.32-.72-.72-.72-.4 0-.72.32-.72.72zm.16 10.24h1.12v-7.68h-1.12V423zm3.688 0h1.12v-4.24c0-1.6.96-2.56 2.08-2.56s1.92.8 1.92 2.24V423h1.12v-4.24c0-1.6.96-2.56 2.08-2.56s1.92.784 1.92 2.24V423h1.12v-4.56c0-2.144-1.28-3.28-2.96-3.28-1.92 0-2.64 1.36-2.64 1.36s-.64-1.36-2.48-1.36c-1.52 0-2.16 1.12-2.16 1.12v-.96h-1.12V423zm13.761-10.24c0 .4.32.72.72.72.4 0 .72-.32.72-.72 0-.4-.32-.72-.72-.72-.4 0-.72.32-.72.72zm.16 10.24h1.12v-7.68h-1.12V423zm4.328-2.08c0 1.44.8 2.24 2.112 2.24.608 0 1.088-.24 1.088-.24v-1.04s-.48.24-1.04.24c-.64 0-1.04-.4-1.04-1.2v-4.56h1.68v-1.04h-1.68v-2.56h-1.04v1.76c0 .56-.24.8-.64.8h-.88v1.04h1.44v4.56zm7.612 5.28s.4.16.96.16c1.12 0 1.76-.64 2.4-2.24l3.521-8.8h-1.2l-2.48 6.24-2.48-6.24h-1.2l3.12 7.68-.4 1.12c-.288.8-.72 1.2-1.44 1.2-.4 0-.8-.16-.8-.16v1.04zm11.764-3.04c2.16 0 3.92-1.76 3.92-4s-1.76-4-3.92-4-3.92 1.76-3.92 4 1.76 4 3.92 4zm0-1.04c-1.52 0-2.8-1.296-2.8-2.96 0-1.68 1.28-2.96 2.8-2.96 1.52 0 2.8 1.28 2.8 2.96s-1.28 2.96-2.8 2.96zm5.922-2.32c0 2 1.36 3.36 3.12 3.36 1.68 0 2.48-1.2 2.48-1.2V423h1.119v-7.68h-1.119v4.24c0 1.52-1.04 2.56-2.32 2.56-1.2 0-2.16-.96-2.16-2.32v-4.48h-1.12v4.48zm9.359 3.2h1.12v-4.24c0-1.52 1.12-2.48 2.4-2.48h.48v-1.12h-.32c-1.76 0-2.56 1.2-2.56 1.2v-1.04h-1.12V423zm13.202 0h1.12v-4.88c0-1.68-1.28-2.96-3.04-2.96-1.84 0-2.88 1.44-2.88 1.44l.72.72s.8-1.12 2.16-1.12c1.12 0 1.92.8 1.92 1.92l-2.96.48c-1.44.24-2.24 1.04-2.24 2.32 0 1.12 1.12 2.24 2.72 2.24 1.68 0 2.48-1.2 2.48-1.2V423zm0-3.44c0 1.52-1.04 2.56-2.48 2.56-1.04 0-1.6-.56-1.6-1.2 0-.72.48-1.184 1.44-1.36l2.64-.48v.48zm9.353 1.28s-.88 1.28-2.4 1.28c-1.44 0-2.72-1.28-2.72-2.96s1.28-2.96 2.72-2.96c1.52 0 2.32 1.28 2.32 1.28l.8-.8s-1.12-1.52-3.12-1.52c-2.08 0-3.84 1.76-3.84 4s1.76 4 3.84 4c2 0 3.2-1.6 3.2-1.6l-.8-.72zm3.194.08c0 1.44.8 2.24 2.112 2.24.608 0 1.088-.24 1.088-.24v-1.04s-.48.24-1.04.24c-.64 0-1.04-.4-1.04-1.2v-4.56h1.68v-1.04h-1.68v-2.56h-1.04v1.76c0 .56-.24.8-.64.8h-.88v1.04h1.44v4.56zm4.97-1.12c0 2 1.36 3.36 3.12 3.36 1.68 0 2.48-1.2 2.48-1.2V423h1.12v-7.68h-1.12v4.24c0 1.52-1.04 2.56-2.32 2.56-1.2 0-2.16-.96-2.16-2.32v-4.48h-1.12v4.48zm13.999 3.2h1.12v-4.88c0-1.68-1.28-2.96-3.04-2.96-1.84 0-2.88 1.44-2.88 1.44l.72.72s.8-1.12 2.16-1.12c1.12 0 1.92.8 1.92 1.92l-2.96.48c-1.44.24-2.24 1.04-2.24 2.32 0 1.12 1.12 2.24 2.72 2.24 1.68 0 2.48-1.2 2.48-1.2V423zm0-3.44c0 1.52-1.04 2.56-2.48 2.56-1.04 0-1.6-.56-1.6-1.2 0-.72.48-1.184 1.44-1.36l2.64-.48v.48zm3.753 3.44h1.12v-11.2h-1.12V423zm7.123-3.2c0 2 1.36 3.36 3.12 3.36 1.68 0 2.48-1.2 2.48-1.2V423h1.12v-7.68h-1.12v4.24c0 1.52-1.04 2.56-2.32 2.56-1.2 0-2.16-.96-2.16-2.32v-4.48h-1.12v4.48zm8.639 2s.88 1.36 2.8 1.36c1.76 0 2.8-1.04 2.8-2.32 0-2.72-4.16-1.84-4.16-3.52 0-.56.56-1.12 1.44-1.12 1.12 0 1.68.8 1.68.8l.8-.8s-.88-1.04-2.48-1.04c-1.52 0-2.56 1.04-2.56 2.16 0 2.64 4.16 1.76 4.16 3.52 0 .72-.56 1.28-1.68 1.28-1.28 0-2-1.12-2-1.12l-.8.8zm12.235 1.2h1.12v-4.88c0-1.68-1.28-2.96-3.04-2.96-1.84 0-2.88 1.44-2.88 1.44l.72.72s.8-1.12 2.16-1.12c1.12 0 1.92.8 1.92 1.92l-2.96.48c-1.44.24-2.24 1.04-2.24 2.32 0 1.12 1.12 2.24 2.72 2.24 1.68 0 2.48-1.2 2.48-1.2V423zm0-3.44c0 1.52-1.04 2.56-2.48 2.56-1.04 0-1.6-.56-1.6-1.2 0-.72.48-1.184 1.44-1.36l2.64-.48v.48zm3.433 5.2s1.04 1.6 3.2 1.6c2.08 0 3.759-1.68 3.759-3.84v-7.2h-1.119v1.04s-.72-1.2-2.56-1.2c-2 0-3.6 1.68-3.6 3.84s1.6 3.84 3.6 3.84c1.84 0 2.56-1.2 2.56-1.2v.88c0 1.6-1.2 2.8-2.64 2.8-1.6 0-2.48-1.28-2.48-1.28l-.72.72zm3.28-2.96c-1.36 0-2.48-1.2-2.48-2.8 0-1.6 1.12-2.8 2.48-2.8 1.44 0 2.56 1.2 2.56 2.8 0 1.6-1.12 2.8-2.56 2.8zm12.001-.96s-.864 1.28-2.48 1.28c-1.44 0-2.64-1.2-2.72-2.56l6.24.016s.08-.256.08-.576c0-2.24-1.6-3.84-3.68-3.84-2 0-3.76 1.76-3.76 4s1.76 4 3.84 4 3.2-1.6 3.2-1.6l-.72-.72zm-5.2-2.24c.16-1.28 1.28-2.4 2.64-2.4s2.4 1.04 2.56 2.4h-5.2zm11.514-5.84c0 .4.32.72.72.72.4 0 .72-.32.72-.72 0-.4-.32-.72-.72-.72-.4 0-.72.32-.72.72zm.16 10.24h1.12v-7.68h-1.12V423zm3.688 0h1.12v-4.24c0-1.52 1.04-2.56 2.4-2.56 1.2 0 2.08.88 2.08 2.24V423h1.12v-4.56c0-2-1.28-3.28-3.12-3.28-1.68 0-2.48 1.28-2.48 1.28v-1.12h-1.12V423zm17.28 0h1.12v-4.88c0-1.68-1.28-2.96-3.04-2.96-1.84 0-2.88 1.44-2.88 1.44l.72.72s.8-1.12 2.16-1.12c1.12 0 1.92.8 1.92 1.92l-2.96.48c-1.44.24-2.24 1.04-2.24 2.32 0 1.12 1.12 2.24 2.72 2.24 1.68 0 2.48-1.2 2.48-1.2V423zm0-3.44c0 1.52-1.04 2.56-2.48 2.56-1.04 0-1.6-.56-1.6-1.2 0-.72.48-1.184 1.44-1.36l2.64-.48v.48zm3.673 3.44h1.12v-4.24c0-1.52 1.04-2.56 2.4-2.56 1.2 0 2.08.88 2.08 2.24V423h1.12v-4.56c0-2-1.28-3.28-3.12-3.28-1.68 0-2.48 1.28-2.48 1.28v-1.12h-1.12V423zm8.565 3.2s.4.16.96.16c1.12 0 1.76-.64 2.4-2.24l3.52-8.8h-1.2l-2.48 6.24-2.48-6.24h-1.2l3.12 7.68-.4 1.12c-.288.8-.72 1.2-1.44 1.2-.4 0-.8-.16-.8-.16v1.04zm12.738-3.2h1.04l1.92-5.84 1.92 5.84h1.04l2.64-7.68h-1.2l-2 5.92-1.92-5.92h-.96l-1.92 5.92-2-5.92h-1.2l2.64 7.68zm14.727 0h1.12v-4.88c0-1.68-1.28-2.96-3.04-2.96-1.84 0-2.88 1.44-2.88 1.44l.72.72s.8-1.12 2.16-1.12c1.12 0 1.92.8 1.92 1.92l-2.96.48c-1.44.24-2.24 1.04-2.24 2.32 0 1.12 1.12 2.24 2.72 2.24 1.68 0 2.48-1.2 2.48-1.2V423zm0-3.44c0 1.52-1.04 2.56-2.48 2.56-1.04 0-1.6-.56-1.6-1.2 0-.72.48-1.184 1.44-1.36l2.64-.48v.48zm2.957 6.64s.4.16.96.16c1.12 0 1.76-.64 2.4-2.24l3.52-8.8h-1.2l-2.48 6.24-2.48-6.24h-1.2l3.12 7.68-.4 1.12c-.288.8-.72 1.2-1.44 1.2-.4 0-.8-.16-.8-.16v1.04z" class="Step Description"/>
      </g>
      <g class="Frame 806">
        <g class="Frame 808">
          <path fill="#fff" d="M16.5 478c0-8.837 7.163-16 16-16h310c8.837 0 16 7.163 16 16v56h-342v-56z"/>
          <g class="Frame 1336" clip-path="url(#clip1)">
            <g class="Frame 1339" clip-path="url(#clip2)">
              <path fill="#fff" d="M32.5 486h24v24h-24z"/>
              <g class="Heavy">
                <circle cx="35.5" cy="489" r="3" fill="#E4F0F0" class="Ellipse 94"/>
                <circle cx="35.5" cy="498" r="3" fill="#E4F0F0" class="Ellipse 99"/>
                <circle cx="35.5" cy="507" r="3" fill="#E4F0F0" class="Ellipse 102"/>
                <circle cx="53.5" cy="489" r="3" fill="#E4F0F0" class="Ellipse 95"/>
                <circle cx="53.5" cy="498" r="3" fill="#E4F0F0" class="Ellipse 100"/>
                <circle cx="53.5" cy="507" r="3" fill="#E4F0F0" class="Ellipse 103"/>
                <circle cx="44.5" cy="489" r="3" fill="#E4F0F0" class="Ellipse 98"/>
                <circle cx="44.5" cy="498" r="3" fill="#678085" class="Ellipse 101" opacity=".8"/>
                <circle cx="44.5" cy="507" r="3" fill="#E4F0F0" class="Ellipse 104"/>
              </g>
            </g>
          </g>
          <g class="Frame 1335">
            <path fill="#1F2533" d="M78.9 479.8c.79 0 1.477.16 2.064.48a3.27 3.27 0 011.376 1.312c.32.565.48 1.221.48 1.968 0 .843-.187 1.541-.56 2.096-.373.555-.827.949-1.36 1.184l2.32 4.16h-2.64l-2-3.68h-2.24V491h-2.4v-11.2h4.96zm-.08 5.28c.437 0 .8-.144 1.088-.432.288-.288.432-.651.432-1.088 0-.437-.144-.8-.432-1.088-.288-.288-.65-.432-1.088-.432h-2.48v3.04h2.48zm10.321 4.96c-.245.309-.57.576-.976.8-.394.213-.842.32-1.344.32-.714 0-1.296-.208-1.744-.624-.437-.427-.656-.965-.656-1.616 0-.661.208-1.227.624-1.696.427-.469.992-.741 1.696-.816l2.48-.24a1.52 1.52 0 00-.432-.864 1.231 1.231 0 00-.928-.384c-.362 0-.698.043-1.008.128-.31.075-.56.165-.752.272l-1.28-1.28c.342-.288.79-.533 1.344-.736a5.368 5.368 0 011.856-.304c.65 0 1.232.139 1.744.416.512.267.907.64 1.184 1.12.288.469.432.997.432 1.584V491h-2.16v-.96h-.08zm-1.68-2.288c-.266.011-.48.101-.64.272a.822.822 0 00-.24.576c0 .245.08.443.24.592.17.139.41.208.72.208.502 0 .907-.133 1.216-.4.31-.267.464-.651.464-1.152v-.16l-1.76.064zm7.927-3.712h.08c.149-.245.389-.453.72-.624.33-.171.746-.256 1.248-.256h.511v2.08h-.72c-.533 0-.976.192-1.328.576-.34.373-.511.875-.511 1.504V491h-2.16v-7.84h2.16v.88zm10.801 6.208c-.362.256-.837.475-1.424.656a6.897 6.897 0 01-1.936.256 4.176 4.176 0 01-2.096-.544 4.229 4.229 0 01-1.52-1.488 4.03 4.03 0 01-.544-2.048c0-.736.182-1.413.544-2.032a4.154 4.154 0 011.488-1.488 3.948 3.948 0 012.048-.56c.704 0 1.355.176 1.952.528a3.886 3.886 0 011.44 1.44c.352.597.528 1.248.528 1.952 0 .352-.026.672-.08.96h-5.68c.128.395.363.72.704.976.352.256.811.384 1.376.384.448 0 .848-.048 1.2-.144.363-.107.656-.229.88-.368l1.12 1.52zm-1.76-3.968a2.027 2.027 0 00-.672-.96 1.612 1.612 0 00-1.088-.4c-.416 0-.784.133-1.104.4a2.075 2.075 0 00-.656.96h3.52zm6.085-6.48V491h-2.16v-11.2h2.16zm2.567 12.48c.65 0 1.104-.32 1.36-.96l.16-.4-3.04-7.76h2.32l1.84 5.2h.08l1.76-5.2h2.32l-3.2 8.48c-.342.907-.758 1.584-1.248 2.032-.491.459-1.088.688-1.792.688h-1.44v-2.08h.88z" class="Rarely"/>
            <path fill="#70747D" d="M77.68 504.2c.597 0 1.134.135 1.61.406.485.271.863.639 1.134 1.106.27.467.406.989.406 1.568 0 .579-.135 1.101-.406 1.568-.27.467-.649.835-1.134 1.106a3.196 3.196 0 01-1.61.406h-2.66V514h-1.05v-9.8h3.71zm0 5.18c.635 0 1.143-.191 1.526-.574.383-.392.574-.901.574-1.526 0-.635-.191-1.143-.574-1.526-.383-.383-.891-.574-1.526-.574h-2.66v4.2h2.66zm5.752-1.19c.177-.289.443-.537.798-.742.364-.205.798-.308 1.302-.308h.42v.98h-.42c-.373 0-.723.089-1.05.266a2.03 2.03 0 00-.77.77c-.187.327-.28.705-.28 1.134V514h-.98v-6.72h.98v.91zm9.38 4.802c-.3.317-.691.588-1.177.812a3.83 3.83 0 01-1.624.336 3.254 3.254 0 01-1.68-.462 3.58 3.58 0 01-1.231-1.274 3.541 3.541 0 01-.448-1.764c0-.635.149-1.218.448-1.75a3.477 3.477 0 011.218-1.274 2.996 2.996 0 011.624-.476c.597 0 1.143.145 1.638.434.494.289.882.691 1.162 1.204.28.504.42 1.078.42 1.722 0 .177-.024.345-.07.504l-5.46-.014c.018.392.14.761.364 1.106.224.345.513.621.868.826.354.205.737.308 1.147.308.467 0 .887-.084 1.26-.252.374-.168.677-.373.91-.616l.63.63zm-.63-2.842c-.075-.607-.323-1.106-.743-1.498a2.065 2.065 0 00-1.497-.602c-.383 0-.742.098-1.078.294a2.453 2.453 0 00-.84.77 2.344 2.344 0 00-.392 1.036h4.55zm2.865-2.87l2.17 5.39 2.17-5.39h1.05l-2.73 6.72h-.98l-2.73-6.72h1.05zm12.393 5.712c-.298.317-.69.588-1.176.812a3.827 3.827 0 01-1.624.336 3.256 3.256 0 01-1.68-.462 3.583 3.583 0 01-1.232-1.274 3.548 3.548 0 01-.448-1.764 3.52 3.52 0 011.666-3.024 2.998 2.998 0 011.624-.476c.598 0 1.144.145 1.638.434.495.289.882.691 1.162 1.204.28.504.42 1.078.42 1.722 0 .177-.023.345-.07.504l-5.46-.014c.019.392.14.761.364 1.106.224.345.514.621.868.826.355.205.738.308 1.148.308.467 0 .887-.084 1.26-.252a2.87 2.87 0 00.91-.616l.63.63zm-.63-2.842c-.074-.607-.322-1.106-.742-1.498a2.064 2.064 0 00-1.498-.602c-.382 0-.742.098-1.078.294a2.453 2.453 0 00-.84.77 2.357 2.357 0 00-.392 1.036h4.55zm3.706-1.89a2.69 2.69 0 01.882-.784 2.454 2.454 0 011.288-.336c.532 0 1.003.117 1.414.35.42.233.742.569.966 1.008.233.429.35.933.35 1.512V514h-.98v-3.99c0-.588-.173-1.059-.518-1.414-.336-.364-.77-.546-1.302-.546-.392 0-.751.098-1.078.294a2.044 2.044 0 00-.756.784 2.456 2.456 0 00-.266 1.162V514h-.98v-6.72h.98v.98zm6.304-.98h1.26v-2.24h.98v2.24h1.82v.91h-1.82v3.99c0 .336.075.574.224.714.159.131.388.196.686.196h.91v.91h-.952c-.588 0-1.045-.149-1.372-.448-.317-.299-.476-.756-.476-1.372v-3.99h-1.26v-.91zm5.605-2.24a.61.61 0 01.182-.448.612.612 0 01.448-.182c.178 0 .327.061.448.182a.606.606 0 01.182.448c0 .177-.06.327-.182.448a.609.609 0 01-.448.182.612.612 0 01-.448-.182.61.61 0 01-.182-.448zm1.12 2.24V514h-.98v-6.72h.98zm2.387 0l2.17 5.39 2.17-5.39h1.05l-2.73 6.72h-.98l-2.73-6.72h1.05zm12.393 5.712c-.299.317-.691.588-1.176.812a3.83 3.83 0 01-1.624.336 3.256 3.256 0 01-1.68-.462 3.583 3.583 0 01-1.232-1.274 3.538 3.538 0 01-.448-1.764c0-.635.149-1.218.448-1.75a3.477 3.477 0 011.218-1.274 2.996 2.996 0 011.624-.476 3.19 3.19 0 011.638.434c.495.289.882.691 1.162 1.204.28.504.42 1.078.42 1.722 0 .177-.023.345-.07.504l-5.46-.014c.019.392.14.761.364 1.106.224.345.513.621.868.826.355.205.737.308 1.148.308.467 0 .887-.084 1.26-.252.373-.168.677-.373.91-.616l.63.63zm-.63-2.842c-.075-.607-.322-1.106-.742-1.498a2.065 2.065 0 00-1.498-.602c-.383 0-.742.098-1.078.294a2.453 2.453 0 00-.84.77 2.344 2.344 0 00-.392 1.036h4.55zm11.54 2.59a4.029 4.029 0 01-1.218.994 3.188 3.188 0 01-1.582.406 3.256 3.256 0 01-1.68-.462 3.583 3.583 0 01-1.232-1.274 3.548 3.548 0 01-.448-1.764c0-.644.15-1.232.448-1.764a3.471 3.471 0 011.232-1.26 3.186 3.186 0 011.68-.476c.57 0 1.092.131 1.568.392.476.252.864.565 1.162.938l-.7.7a2.763 2.763 0 00-.854-.784 2.112 2.112 0 00-1.176-.336c-.42 0-.812.117-1.176.35a2.516 2.516 0 00-.882.938 2.673 2.673 0 00-.322 1.302c0 .476.108.915.322 1.316.224.392.518.705.882.938.364.224.756.336 1.176.336.439 0 .84-.107 1.204-.322.364-.224.663-.49.896-.798l.7.63zm5.595.35a2.673 2.673 0 01-.882.742 2.63 2.63 0 01-1.288.308c-.448 0-.854-.093-1.218-.28a2.269 2.269 0 01-.854-.728 1.697 1.697 0 01-.308-.952c0-.569.168-1.036.504-1.4.346-.364.831-.574 1.456-.63l2.59-.224c0-.327-.074-.635-.224-.924a1.651 1.651 0 00-.602-.686 1.45 1.45 0 00-.854-.266 3.93 3.93 0 00-1.078.14c-.326.093-.597.21-.812.35l-.63-.63c.28-.215.64-.397 1.078-.546.439-.149.92-.224 1.442-.224.504 0 .957.117 1.358.35.411.224.728.532.952.924.234.392.35.831.35 1.316V514h-.98v-.91zm-2.31-2.1c-.41.037-.723.163-.938.378a1.103 1.103 0 00-.322.812c0 .299.122.551.364.756.252.196.598.294 1.036.294.654 0 1.176-.177 1.568-.532.402-.364.602-.868.602-1.512v-.42l-2.31.224zm6.094-2.8c.177-.289.443-.537.798-.742.364-.205.798-.308 1.302-.308h.42v.98h-.42c-.374 0-.724.089-1.05.266a2.026 2.026 0 00-.77.77c-.187.327-.28.705-.28 1.134V514h-.98v-6.72h.98v.91zm9.379 4.802c-.299.317-.691.588-1.176.812a3.83 3.83 0 01-1.624.336 3.256 3.256 0 01-1.68-.462 3.583 3.583 0 01-1.232-1.274 3.538 3.538 0 01-.448-1.764c0-.635.149-1.218.448-1.75a3.477 3.477 0 011.218-1.274 2.996 2.996 0 011.624-.476 3.19 3.19 0 011.638.434c.495.289.882.691 1.162 1.204.28.504.42 1.078.42 1.722 0 .177-.023.345-.07.504l-5.46-.014c.019.392.14.761.364 1.106.224.345.513.621.868.826.355.205.737.308 1.148.308.467 0 .887-.084 1.26-.252.373-.168.677-.373.91-.616l.63.63zm-.63-2.842c-.075-.607-.322-1.106-.742-1.498a2.065 2.065 0 00-1.498-.602c-.383 0-.742.098-1.078.294a2.453 2.453 0 00-.84.77 2.344 2.344 0 00-.392 1.036h4.55zm9.93 2.94a2.673 2.673 0 01-.882.742 2.63 2.63 0 01-1.288.308c-.448 0-.854-.093-1.218-.28a2.269 2.269 0 01-.854-.728 1.697 1.697 0 01-.308-.952c0-.569.168-1.036.504-1.4.346-.364.831-.574 1.456-.63l2.59-.224c0-.327-.074-.635-.224-.924a1.651 1.651 0 00-.602-.686 1.45 1.45 0 00-.854-.266 3.93 3.93 0 00-1.078.14c-.326.093-.597.21-.812.35l-.63-.63c.28-.215.64-.397 1.078-.546.439-.149.92-.224 1.442-.224.504 0 .957.117 1.358.35.411.224.728.532.952.924.234.392.35.831.35 1.316V514h-.98v-.91zm-2.31-2.1c-.41.037-.723.163-.938.378a1.103 1.103 0 00-.322.812c0 .299.122.551.364.756.252.196.598.294 1.036.294.654 0 1.176-.177 1.568-.532.402-.364.602-.868.602-1.512v-.42l-2.31.224zm6.094-2.73a2.67 2.67 0 01.882-.784 2.452 2.452 0 011.288-.336c.532 0 1.003.117 1.414.35.42.233.742.569.966 1.008.233.429.35.933.35 1.512V514h-.98v-3.99c0-.588-.173-1.059-.518-1.414-.336-.364-.77-.546-1.302-.546-.392 0-.752.098-1.078.294a2.03 2.03 0 00-.756.784 2.444 2.444 0 00-.266 1.162V514h-.98v-6.72h.98v.98zm12.251 4.76a3.023 3.023 0 01-.952.798 2.832 2.832 0 01-1.358.322 3.177 3.177 0 01-1.652-.448 3.39 3.39 0 01-1.204-1.26c-.29-.532-.434-1.129-.434-1.792s.144-1.26.434-1.792c.298-.532.7-.947 1.204-1.246a3.107 3.107 0 011.652-.462c.504 0 .956.112 1.358.336.401.215.718.476.952.784v-4.06h.98v9.8h-.98v-.98zm-2.31.21c.392 0 .765-.112 1.12-.336.364-.233.653-.546.868-.938.214-.401.322-.84.322-1.316 0-.476-.108-.91-.322-1.302a2.414 2.414 0 00-.868-.938 2.01 2.01 0 00-1.12-.35c-.42 0-.808.112-1.162.336a2.263 2.263 0 00-.84.91c-.206.392-.308.84-.308 1.344 0 .504.102.952.308 1.344.205.392.485.7.84.924.354.215.742.322 1.162.322zm9.719-4.97a2.67 2.67 0 01.882-.784 2.452 2.452 0 011.288-.336c.532 0 1.003.117 1.414.35.42.233.742.569.966 1.008.233.429.35.933.35 1.512V514h-.98v-3.99c0-.588-.173-1.059-.518-1.414-.336-.364-.77-.546-1.302-.546-.392 0-.752.098-1.078.294a2.03 2.03 0 00-.756.784 2.444 2.444 0 00-.266 1.162V514h-.98v-6.72h.98v.98zm10.081 5.88c-.626 0-1.2-.154-1.722-.462a3.539 3.539 0 01-1.246-1.274 3.457 3.457 0 01-.462-1.764c0-.644.154-1.232.462-1.764a3.43 3.43 0 011.246-1.26 3.255 3.255 0 011.722-.476 3.26 3.26 0 011.722.476c.522.308.938.728 1.246 1.26.308.532.462 1.12.462 1.764 0 .644-.154 1.232-.462 1.764a3.547 3.547 0 01-1.246 1.274 3.332 3.332 0 01-1.722.462zm0-.91c.438 0 .844-.112 1.218-.336a2.619 2.619 0 001.232-2.254c0-.476-.112-.91-.336-1.302a2.481 2.481 0 00-.896-.938 2.261 2.261 0 00-1.218-.35c-.439 0-.845.117-1.218.35a2.474 2.474 0 00-.896.938 2.578 2.578 0 00-.336 1.302 2.61 2.61 0 001.232 2.254c.373.224.779.336 1.218.336zm4.481-5.95h1.26v-2.24h.98v2.24h1.82v.91h-1.82v3.99c0 .336.075.574.224.714.159.131.387.196.686.196h.91v.91h-.952c-.588 0-1.045-.149-1.372-.448-.317-.299-.476-.756-.476-1.372v-3.99h-1.26v-.91zm9.869.84c.178-.271.425-.499.742-.686.327-.196.71-.294 1.148-.294.523 0 .971.117 1.344.35.374.224.649.504.826.84.196-.336.49-.616.882-.84.402-.233.878-.35 1.428-.35.766 0 1.386.252 1.862.756.486.504.728 1.209.728 2.114V514h-.98v-3.99c0-.625-.154-1.106-.462-1.442-.308-.345-.714-.518-1.218-.518-.326 0-.63.093-.91.28-.28.177-.504.439-.672.784-.158.336-.238.728-.238 1.176V514h-.98v-3.99c0-.616-.154-1.097-.462-1.442-.308-.345-.714-.518-1.218-.518-.326 0-.63.093-.91.28-.28.177-.504.439-.672.784-.158.336-.238.728-.238 1.176V514h-.98v-6.72h.98v.84zm12.182 3.08c0 .392.084.742.252 1.05.168.308.397.551.686.728.289.168.607.252.952.252.373 0 .714-.093 1.022-.28a2.07 2.07 0 00.728-.798 2.4 2.4 0 00.28-1.162v-3.71h.98V514h-.98v-.91a2.694 2.694 0 01-.882.742 2.633 2.633 0 01-1.288.308c-.513 0-.98-.121-1.4-.364a2.728 2.728 0 01-.98-1.05 3.26 3.26 0 01-.35-1.526v-3.92h.98v3.92zm12.879 1.54a4.029 4.029 0 01-1.218.994 3.188 3.188 0 01-1.582.406 3.256 3.256 0 01-1.68-.462 3.583 3.583 0 01-1.232-1.274 3.548 3.548 0 01-.448-1.764c0-.644.15-1.232.448-1.764a3.471 3.471 0 011.232-1.26 3.186 3.186 0 011.68-.476c.57 0 1.092.131 1.568.392.476.252.864.565 1.162.938l-.7.7a2.763 2.763 0 00-.854-.784 2.112 2.112 0 00-1.176-.336c-.42 0-.812.117-1.176.35a2.516 2.516 0 00-.882.938 2.673 2.673 0 00-.322 1.302c0 .476.108.915.322 1.316.224.392.518.705.882.938.364.224.756.336 1.176.336.439 0 .84-.107 1.204-.322.364-.224.663-.49.896-.798l.7.63zm2.586-4.48a2.67 2.67 0 01.882-.784 2.452 2.452 0 011.288-.336c.532 0 1.003.117 1.414.35.42.233.742.569.966 1.008.233.429.35.933.35 1.512V514h-.98v-3.99c0-.588-.173-1.059-.518-1.414-.336-.364-.77-.546-1.302-.546-.392 0-.752.098-1.078.294a2.03 2.03 0 00-.756.784 2.444 2.444 0 00-.266 1.162V514h-.98v-9.8h.98v4.06zm15.954 4.732c-.299.317-.691.588-1.176.812a3.833 3.833 0 01-1.624.336 3.25 3.25 0 01-1.68-.462 3.574 3.574 0 01-1.232-1.274 3.538 3.538 0 01-.448-1.764c0-.635.149-1.218.448-1.75a3.477 3.477 0 011.218-1.274 2.996 2.996 0 011.624-.476 3.19 3.19 0 011.638.434c.494.289.882.691 1.162 1.204.28.504.42 1.078.42 1.722 0 .177-.024.345-.07.504l-5.46-.014c.018.392.14.761.364 1.106.224.345.513.621.868.826.354.205.737.308 1.148.308.466 0 .886-.084 1.26-.252.373-.168.676-.373.91-.616l.63.63zm-.63-2.842c-.075-.607-.322-1.106-.742-1.498a2.065 2.065 0 00-1.498-.602c-.383 0-.742.098-1.078.294a2.453 2.453 0 00-.84.77 2.333 2.333 0 00-.392 1.036h4.55zm3.775-5.95v9.8h-.98v-9.8h.98zm2.383 8.05c.187.271.434.504.742.7.308.187.644.28 1.008.28.476 0 .84-.103 1.092-.308.252-.215.378-.485.378-.812a.768.768 0 00-.392-.7c-.252-.159-.634-.313-1.148-.462-.457-.14-.826-.271-1.106-.392a2.029 2.029 0 01-.7-.56c-.196-.252-.294-.574-.294-.966 0-.327.094-.635.28-.924a2.16 2.16 0 01.798-.7 2.513 2.513 0 011.162-.266c.458 0 .873.089 1.246.266.383.177.691.392.924.644l-.7.7a1.723 1.723 0 00-.616-.49 1.727 1.727 0 00-.854-.21c-.373 0-.676.098-.91.294-.233.196-.35.425-.35.686 0 .289.122.509.364.658.243.14.621.285 1.134.434.458.14.826.275 1.106.406.29.131.532.327.728.588.206.252.308.583.308.994 0 .373-.098.714-.294 1.022-.196.308-.48.555-.854.742-.373.177-.807.266-1.302.266-.55 0-1.036-.112-1.456-.336a2.99 2.99 0 01-.994-.854l.7-.7zm11.616.742c-.299.317-.691.588-1.176.812a3.83 3.83 0 01-1.624.336 3.256 3.256 0 01-1.68-.462 3.583 3.583 0 01-1.232-1.274 3.538 3.538 0 01-.448-1.764c0-.635.149-1.218.448-1.75a3.477 3.477 0 011.218-1.274 2.996 2.996 0 011.624-.476 3.19 3.19 0 011.638.434c.495.289.882.691 1.162 1.204.28.504.42 1.078.42 1.722 0 .177-.023.345-.07.504l-5.46-.014c.019.392.14.761.364 1.106.224.345.513.621.868.826.355.205.737.308 1.148.308.467 0 .887-.084 1.26-.252.373-.168.677-.373.91-.616l.63.63zm-.63-2.842c-.075-.607-.322-1.106-.742-1.498a2.065 2.065 0 00-1.498-.602c-.383 0-.742.098-1.078.294a2.453 2.453 0 00-.84.77 2.344 2.344 0 00-.392 1.036h4.55z" class="Preventive care and not much else"/>
          </g>
        </g>
        <g class="Frame 811">
          <path fill="#fff" d="M17 538h341v72H17v-72z"/>
          <g class="Frame 1336_2">
            <g class="Frame 1339_2">
              <path fill="#fff" d="M33 562h24v24H33z"/>
              <g class="Heavy_2">
                <circle cx="36" cy="565" r="3" fill="#E4F0F0" class="Ellipse 94_2"/>
                <circle cx="36" cy="574" r="3" fill="#678085" class="Ellipse 99_2" opacity=".8"/>
                <circle cx="36" cy="583" r="3" fill="#E4F0F0" class="Ellipse 102_2"/>
                <circle cx="54" cy="565" r="3" fill="#E4F0F0" class="Ellipse 95_2"/>
                <circle cx="54" cy="574" r="3" fill="#678085" class="Ellipse 100_2" opacity=".8"/>
                <circle cx="54" cy="583" r="3" fill="#E4F0F0" class="Ellipse 103_2"/>
                <circle cx="45" cy="565" r="3" fill="#678085" class="Ellipse 98_2" opacity=".8"/>
                <circle cx="45" cy="574" r="3" fill="#E4F0F0" class="Ellipse 101_2"/>
                <circle cx="45" cy="583" r="3" fill="#678085" class="Ellipse 104_2" opacity=".8"/>
              </g>
            </g>
          </g>
          <g class="Frame 1335_2">
            <path fill="#1F2533" d="M73.92 563.88a3.69 3.69 0 001.12.848c.459.235.965.352 1.52.352.608 0 1.067-.117 1.376-.352a1.11 1.11 0 00.464-.928c0-.352-.165-.624-.496-.816-.33-.203-.853-.421-1.568-.656a17.606 17.606 0 01-1.824-.72 3.525 3.525 0 01-1.2-1.024c-.341-.448-.512-1.029-.512-1.744 0-.597.165-1.141.496-1.632.33-.501.805-.901 1.424-1.2.619-.299 1.339-.448 2.16-.448.81 0 1.541.149 2.192.448.65.288 1.173.645 1.568 1.072l-1.6 1.6a3.104 3.104 0 00-.912-.672 2.46 2.46 0 00-1.168-.288c-.576 0-1.003.101-1.28.304a.973.973 0 00-.4.816c0 .352.165.629.496.832.33.192.853.405 1.568.64.747.256 1.35.501 1.808.736.47.224.875.56 1.216 1.008.341.448.512 1.029.512 1.744 0 .619-.176 1.189-.528 1.712-.341.523-.832.944-1.472 1.264-.64.309-1.387.464-2.24.464-.939 0-1.787-.171-2.544-.512-.747-.341-1.339-.757-1.776-1.248l1.6-1.6zm8-.8c0-.736.18-1.413.543-2.032a4.075 4.075 0 011.52-1.488 4.09 4.09 0 012.096-.56 4.09 4.09 0 012.096.56c.64.363 1.142.859 1.504 1.488a3.86 3.86 0 01.56 2.032c0 .736-.186 1.419-.56 2.048a4.103 4.103 0 01-1.504 1.488 4.176 4.176 0 01-2.096.544 4.175 4.175 0 01-2.096-.544 4.23 4.23 0 01-1.52-1.488 4.03 4.03 0 01-.544-2.048zm4.16 2.08c.565 0 1.04-.197 1.423-.592.384-.395.576-.891.576-1.488s-.192-1.093-.576-1.488A1.907 1.907 0 0086.08 561c-.565 0-1.04.197-1.424.592-.384.395-.576.891-.576 1.488s.192 1.093.576 1.488c.384.395.859.592 1.424.592zm7.917-4.88h.08c.203-.352.485-.651.848-.896.373-.256.81-.384 1.312-.384.555 0 1.03.133 1.424.4.394.256.693.576.896.96h.08a3.277 3.277 0 011.056-.96c.448-.267.949-.4 1.504-.4.512 0 .971.128 1.376.384.416.256.741.619.976 1.088.245.469.368 1.019.368 1.648V567h-2.16v-4.56c0-.437-.112-.773-.336-1.008-.224-.235-.539-.352-.944-.352-.448 0-.816.149-1.104.448-.278.288-.416.672-.416 1.152V567h-2.16v-4.56c0-.437-.112-.773-.336-1.008-.224-.235-.539-.352-.944-.352-.448 0-.816.149-1.104.448-.278.288-.416.672-.416 1.152V567h-2.16v-7.84h2.16v1.12zm19.036 5.968c-.363.256-.837.475-1.424.656a6.902 6.902 0 01-1.936.256 4.176 4.176 0 01-2.096-.544 4.228 4.228 0 01-1.52-1.488 4.027 4.027 0 01-.544-2.048c0-.736.181-1.413.544-2.032a4.145 4.145 0 011.488-1.488 3.945 3.945 0 012.048-.56c.704 0 1.355.176 1.952.528a3.886 3.886 0 011.44 1.44c.352.597.528 1.248.528 1.952 0 .352-.027.672-.08.96h-5.68c.128.395.363.72.704.976.352.256.811.384 1.376.384.448 0 .848-.048 1.2-.144.363-.107.656-.229.88-.368l1.12 1.52zm-1.76-3.968a2.027 2.027 0 00-.672-.96 1.612 1.612 0 00-1.088-.4c-.416 0-.784.133-1.104.4a2.075 2.075 0 00-.656.96h3.52zm3.125-2.96h1.36v-2.4h2.16v2.4h1.92v2h-1.92v2.704c0 .352.091.613.272.784.181.171.437.256.768.256h.88V567h-1.44c-.821 0-1.467-.229-1.936-.688-.469-.459-.704-1.136-.704-2.032v-2.96h-1.36v-2zm6.966-2.4c0-.32.123-.597.368-.832.246-.245.539-.368.88-.368.331 0 .619.123.864.368.246.235.368.512.368.832 0 .32-.122.603-.368.848a1.226 1.226 0 01-.88.352 1.21 1.21 0 01-.864-.352 1.166 1.166 0 01-.368-.848zm2.32 2.24V567h-2.16v-7.84h2.16zm4.235 1.12h.08c.202-.352.485-.651.848-.896.373-.256.81-.384 1.312-.384.554 0 1.029.133 1.424.4.394.256.693.576.896.96h.08a3.265 3.265 0 011.056-.96 2.88 2.88 0 011.504-.4c.512 0 .97.128 1.376.384.416.256.741.619.976 1.088.245.469.368 1.019.368 1.648V567h-2.16v-4.56c0-.437-.112-.773-.336-1.008-.224-.235-.539-.352-.944-.352-.448 0-.816.149-1.104.448-.278.288-.416.672-.416 1.152V567h-2.16v-4.56c0-.437-.112-.773-.336-1.008-.224-.235-.539-.352-.944-.352-.448 0-.816.149-1.104.448-.278.288-.416.672-.416 1.152V567h-2.16v-7.84h2.16v1.12zm19.036 5.968c-.363.256-.837.475-1.424.656a6.902 6.902 0 01-1.936.256 4.176 4.176 0 01-2.096-.544 4.228 4.228 0 01-1.52-1.488 4.027 4.027 0 01-.544-2.048c0-.736.181-1.413.544-2.032a4.145 4.145 0 011.488-1.488 3.945 3.945 0 012.048-.56c.704 0 1.355.176 1.952.528a3.886 3.886 0 011.44 1.44c.352.597.528 1.248.528 1.952 0 .352-.027.672-.08.96h-5.68c.128.395.363.72.704.976.352.256.811.384 1.376.384.448 0 .848-.048 1.2-.144.363-.107.656-.229.88-.368l1.12 1.52zm-1.76-3.968a2.027 2.027 0 00-.672-.96 1.612 1.612 0 00-1.088-.4c-.416 0-.784.133-1.104.4a2.075 2.075 0 00-.656.96h3.52zm4.325 2.08c.245.245.549.453.912.624.363.171.752.256 1.168.256.64 0 .96-.187.96-.56 0-.149-.101-.272-.304-.368-.192-.107-.501-.229-.928-.368a15.83 15.83 0 01-1.392-.544 3.031 3.031 0 01-.976-.752c-.267-.331-.4-.747-.4-1.248a2.1 2.1 0 01.368-1.2c.245-.363.603-.651 1.072-.864.48-.224 1.04-.336 1.68-.336.651 0 1.237.117 1.76.352.533.235.96.517 1.28.848l-1.28 1.36a2.238 2.238 0 00-.752-.448 2.608 2.608 0 00-1.008-.192c-.267 0-.469.048-.608.144-.128.096-.192.208-.192.336 0 .149.096.277.288.384.203.096.517.213.944.352.555.192 1.019.379 1.392.56.373.171.693.421.96.752.277.32.416.731.416 1.232 0 .459-.128.88-.384 1.264-.245.373-.619.672-1.12.896-.491.213-1.083.32-1.776.32a4.478 4.478 0 01-1.936-.416c-.587-.277-1.061-.619-1.424-1.024l1.28-1.36z" class="Sometimes"/>
            <path fill="#70747D" d="M77.18 580.2c.597 0 1.134.135 1.61.406.485.271.863.639 1.134 1.106.27.467.406.989.406 1.568 0 .579-.135 1.101-.406 1.568-.27.467-.649.835-1.134 1.106a3.196 3.196 0 01-1.61.406h-2.66V590h-1.05v-9.8h3.71zm0 5.18c.635 0 1.143-.191 1.526-.574.383-.392.574-.901.574-1.526 0-.635-.191-1.143-.574-1.526-.383-.383-.891-.574-1.526-.574h-2.66v4.2h2.66zm5.752-1.19c.177-.289.443-.537.798-.742.364-.205.798-.308 1.302-.308h.42v.98h-.42c-.373 0-.723.089-1.05.266a2.03 2.03 0 00-.77.77c-.187.327-.28.705-.28 1.134V590h-.98v-6.72h.98v.91zm9.38 4.802c-.3.317-.691.588-1.177.812a3.83 3.83 0 01-1.624.336 3.254 3.254 0 01-1.68-.462 3.58 3.58 0 01-1.231-1.274 3.541 3.541 0 01-.448-1.764c0-.635.149-1.218.448-1.75a3.477 3.477 0 011.218-1.274 2.996 2.996 0 011.624-.476c.597 0 1.143.145 1.638.434.494.289.882.691 1.162 1.204.28.504.42 1.078.42 1.722 0 .177-.024.345-.07.504l-5.46-.014c.018.392.14.761.364 1.106.224.345.513.621.868.826.354.205.737.308 1.147.308.467 0 .887-.084 1.26-.252.374-.168.677-.373.91-.616l.63.63zm-.63-2.842c-.075-.607-.323-1.106-.743-1.498a2.065 2.065 0 00-1.497-.602c-.383 0-.742.098-1.078.294a2.453 2.453 0 00-.84.77 2.344 2.344 0 00-.392 1.036h4.55zm2.795 2.1c.187.271.434.504.742.7.308.187.644.28 1.008.28.476 0 .84-.103 1.092-.308.252-.215.378-.485.378-.812a.77.77 0 00-.392-.7c-.252-.159-.635-.313-1.148-.462-.457-.14-.826-.271-1.106-.392a2.022 2.022 0 01-.7-.56c-.196-.252-.294-.574-.294-.966 0-.327.093-.635.28-.924a2.16 2.16 0 01.798-.7 2.51 2.51 0 011.162-.266c.457 0 .873.089 1.246.266.383.177.69.392.924.644l-.7.7a1.732 1.732 0 00-.616-.49 1.729 1.729 0 00-.854-.21c-.373 0-.677.098-.91.294-.233.196-.35.425-.35.686 0 .289.121.509.364.658.243.14.62.285 1.134.434.457.14.826.275 1.106.406.29.131.532.327.728.588.205.252.308.583.308.994 0 .373-.098.714-.294 1.022-.196.308-.48.555-.854.742-.373.177-.807.266-1.302.266-.55 0-1.036-.112-1.456-.336a2.988 2.988 0 01-.994-.854l.7-.7zm11.616.49a4.054 4.054 0 01-1.218.994 3.194 3.194 0 01-1.582.406 3.25 3.25 0 01-1.68-.462 3.574 3.574 0 01-1.232-1.274 3.538 3.538 0 01-.448-1.764c0-.644.149-1.232.448-1.764a3.463 3.463 0 011.232-1.26 3.181 3.181 0 011.68-.476c.569 0 1.092.131 1.568.392.476.252.863.565 1.162.938l-.7.7a2.785 2.785 0 00-.854-.784 2.117 2.117 0 00-1.176-.336c-.42 0-.812.117-1.176.35a2.516 2.516 0 00-.882.938 2.662 2.662 0 00-.322 1.302c0 .476.107.915.322 1.316.224.392.518.705.882.938.364.224.756.336 1.176.336.438 0 .84-.107 1.204-.322.364-.224.662-.49.896-.798l.7.63zm2.515-4.55c.177-.289.443-.537.798-.742.364-.205.798-.308 1.302-.308h.42v.98h-.42c-.374 0-.724.089-1.05.266a2.026 2.026 0 00-.77.77c-.187.327-.28.705-.28 1.134V590h-.98v-6.72h.98v.91zm3.706-3.15a.61.61 0 01.182-.448.61.61 0 01.448-.182.61.61 0 01.448.182.61.61 0 01.182.448.61.61 0 01-.182.448.61.61 0 01-.448.182.61.61 0 01-.448-.182.61.61 0 01-.182-.448zm1.12 2.24V590h-.98v-6.72h.98zm3.227.98c.233-.308.55-.569.952-.784a2.737 2.737 0 011.358-.336 3.11 3.11 0 011.652.462c.504.299.9.714 1.19 1.246.298.532.448 1.129.448 1.792s-.15 1.26-.448 1.792c-.29.532-.686.952-1.19 1.26a3.18 3.18 0 01-1.652.448c-.504 0-.957-.107-1.358-.322a3 3 0 01-.952-.798v3.92h-.98v-9.66h.98v.98zm2.31 4.97a2.2 2.2 0 001.162-.322c.354-.224.634-.532.84-.924.205-.392.308-.84.308-1.344 0-.504-.103-.952-.308-1.344a2.277 2.277 0 00-.84-.91 2.135 2.135 0 00-1.162-.336c-.392 0-.77.117-1.134.35-.355.224-.64.537-.854.938a2.662 2.662 0 00-.322 1.302c0 .476.107.915.322 1.316.214.392.499.705.854.938.364.224.742.336 1.134.336zm4.336-5.95h1.26v-2.24h.98v2.24h1.82v.91h-1.82v3.99c0 .336.074.574.224.714.158.131.387.196.686.196h.91v.91h-.952c-.588 0-1.046-.149-1.372-.448-.318-.299-.476-.756-.476-1.372v-3.99h-1.26v-.91zm5.605-2.24c0-.177.06-.327.182-.448a.609.609 0 01.448-.182c.177 0 .326.061.448.182a.61.61 0 01.182.448.61.61 0 01-.182.448.612.612 0 01-.448.182.609.609 0 01-.448-.182.606.606 0 01-.182-.448zm1.12 2.24V590h-.98v-6.72h.98zm5.186 6.86a3.332 3.332 0 01-1.722-.462 3.547 3.547 0 01-1.246-1.274 3.457 3.457 0 01-.462-1.764c0-.644.154-1.232.462-1.764a3.438 3.438 0 011.246-1.26 3.26 3.26 0 011.722-.476c.626 0 1.2.159 1.722.476a3.43 3.43 0 011.246 1.26c.308.532.462 1.12.462 1.764 0 .644-.154 1.232-.462 1.764a3.539 3.539 0 01-1.246 1.274 3.327 3.327 0 01-1.722.462zm0-.91c.439 0 .845-.112 1.218-.336a2.61 2.61 0 001.232-2.254c0-.476-.112-.91-.336-1.302a2.474 2.474 0 00-.896-.938 2.256 2.256 0 00-1.218-.35c-.438 0-.844.117-1.218.35a2.481 2.481 0 00-.896.938 2.578 2.578 0 00-.336 1.302 2.619 2.619 0 001.232 2.254c.374.224.78.336 1.218.336zm6.161-4.97a2.69 2.69 0 01.882-.784 2.457 2.457 0 011.288-.336c.532 0 1.004.117 1.414.35.42.233.742.569.966 1.008.234.429.35.933.35 1.512V590h-.98v-3.99c0-.588-.172-1.059-.518-1.414-.336-.364-.77-.546-1.302-.546-.392 0-.751.098-1.078.294a2.044 2.044 0 00-.756.784 2.456 2.456 0 00-.266 1.162V590h-.98v-6.72h.98v.98zm7.211 3.99c.187.271.434.504.742.7.308.187.644.28 1.008.28.476 0 .84-.103 1.092-.308.252-.215.378-.485.378-.812a.768.768 0 00-.392-.7c-.252-.159-.634-.313-1.148-.462-.457-.14-.826-.271-1.106-.392a2.029 2.029 0 01-.7-.56c-.196-.252-.294-.574-.294-.966 0-.327.094-.635.28-.924a2.16 2.16 0 01.798-.7 2.513 2.513 0 011.162-.266c.458 0 .873.089 1.246.266.383.177.691.392.924.644l-.7.7a1.723 1.723 0 00-.616-.49 1.727 1.727 0 00-.854-.21c-.373 0-.676.098-.91.294-.233.196-.35.425-.35.686 0 .289.122.509.364.658.243.14.621.285 1.134.434.458.14.826.275 1.106.406.29.131.532.327.728.588.206.252.308.583.308.994 0 .373-.098.714-.294 1.022-.196.308-.48.555-.854.742-.373.177-.807.266-1.302.266-.55 0-1.036-.112-1.456-.336a2.99 2.99 0 01-.994-.854l.7-.7zm5.736-4.41c0-.215.065-.383.196-.504a.682.682 0 01.504-.196c.215 0 .383.065.504.196.131.121.196.289.196.504a.682.682 0 01-.196.504c-.121.131-.289.196-.504.196a.682.682 0 01-.504-.196.682.682 0 01-.196-.504zm1.33 5.46l-1.61 2.52-.63-.35 1.26-2.73.98.56zm10.211-.28a3.023 3.023 0 01-.952.798 2.832 2.832 0 01-1.358.322 3.177 3.177 0 01-1.652-.448 3.39 3.39 0 01-1.204-1.26c-.29-.532-.434-1.129-.434-1.792s.144-1.26.434-1.792c.298-.532.7-.947 1.204-1.246a3.107 3.107 0 011.652-.462c.504 0 .956.112 1.358.336.401.215.718.476.952.784v-4.06h.98v9.8h-.98v-.98zm-2.31.21c.392 0 .765-.112 1.12-.336.364-.233.653-.546.868-.938.214-.401.322-.84.322-1.316 0-.476-.108-.91-.322-1.302a2.414 2.414 0 00-.868-.938 2.01 2.01 0 00-1.12-.35c-.42 0-.808.112-1.162.336a2.263 2.263 0 00-.84.91c-.206.392-.308.84-.308 1.344 0 .504.102.952.308 1.344.205.392.485.7.84.924.354.215.742.322 1.162.322zm8.534.91a3.332 3.332 0 01-1.722-.462 3.547 3.547 0 01-1.246-1.274 3.457 3.457 0 01-.462-1.764c0-.644.154-1.232.462-1.764a3.438 3.438 0 011.246-1.26 3.26 3.26 0 011.722-.476c.626 0 1.2.159 1.722.476a3.43 3.43 0 011.246 1.26c.308.532.462 1.12.462 1.764 0 .644-.154 1.232-.462 1.764a3.539 3.539 0 01-1.246 1.274 3.327 3.327 0 01-1.722.462zm0-.91c.439 0 .845-.112 1.218-.336a2.61 2.61 0 001.232-2.254c0-.476-.112-.91-.336-1.302a2.474 2.474 0 00-.896-.938 2.256 2.256 0 00-1.218-.35c-.438 0-.844.117-1.218.35a2.481 2.481 0 00-.896.938 2.578 2.578 0 00-.336 1.302 2.619 2.619 0 001.232 2.254c.374.224.78.336 1.218.336zm10.851-.49a4.029 4.029 0 01-1.218.994 3.188 3.188 0 01-1.582.406 3.256 3.256 0 01-1.68-.462 3.583 3.583 0 01-1.232-1.274 3.548 3.548 0 01-.448-1.764c0-.644.15-1.232.448-1.764a3.471 3.471 0 011.232-1.26 3.186 3.186 0 011.68-.476c.57 0 1.092.131 1.568.392.476.252.864.565 1.162.938l-.7.7a2.763 2.763 0 00-.854-.784 2.112 2.112 0 00-1.176-.336c-.42 0-.812.117-1.176.35a2.516 2.516 0 00-.882.938 2.673 2.673 0 00-.322 1.302c0 .476.108.915.322 1.316.224.392.518.705.882.938.364.224.756.336 1.176.336.439 0 .84-.107 1.204-.322.364-.224.663-.49.896-.798l.7.63zm.835-5.46h1.26v-2.24h.98v2.24h1.82v.91h-1.82v3.99c0 .336.075.574.224.714.159.131.388.196.686.196h.91v.91h-.952c-.588 0-1.045-.149-1.372-.448-.317-.299-.476-.756-.476-1.372v-3.99h-1.26v-.91zm8.549 6.86c-.626 0-1.2-.154-1.722-.462a3.539 3.539 0 01-1.246-1.274 3.457 3.457 0 01-.462-1.764c0-.644.154-1.232.462-1.764a3.43 3.43 0 011.246-1.26 3.255 3.255 0 011.722-.476 3.26 3.26 0 011.722.476c.522.308.938.728 1.246 1.26.308.532.462 1.12.462 1.764 0 .644-.154 1.232-.462 1.764a3.547 3.547 0 01-1.246 1.274 3.332 3.332 0 01-1.722.462zm0-.91c.438 0 .844-.112 1.218-.336a2.619 2.619 0 001.232-2.254c0-.476-.112-.91-.336-1.302a2.481 2.481 0 00-.896-.938 2.261 2.261 0 00-1.218-.35c-.439 0-.845.117-1.218.35a2.474 2.474 0 00-.896.938 2.578 2.578 0 00-.336 1.302 2.61 2.61 0 001.232 2.254c.373.224.779.336 1.218.336zm6.161-5.04c.177-.289.443-.537.798-.742.364-.205.798-.308 1.302-.308h.42v.98h-.42c-.374 0-.724.089-1.05.266a2.026 2.026 0 00-.77.77c-.187.327-.28.705-.28 1.134V590h-.98v-6.72h.98v.91zm3.916 4.06c.187.271.434.504.742.7.308.187.644.28 1.008.28.476 0 .84-.103 1.092-.308.252-.215.378-.485.378-.812a.77.77 0 00-.392-.7c-.252-.159-.635-.313-1.148-.462-.457-.14-.826-.271-1.106-.392a2.02 2.02 0 01-.7-.56c-.196-.252-.294-.574-.294-.966 0-.327.093-.635.28-.924a2.16 2.16 0 01.798-.7 2.51 2.51 0 011.162-.266c.457 0 .873.089 1.246.266.383.177.691.392.924.644l-.7.7a1.732 1.732 0 00-.616-.49 1.73 1.73 0 00-.854-.21c-.373 0-.677.098-.91.294-.233.196-.35.425-.35.686 0 .289.121.509.364.658.243.14.621.285 1.134.434.457.14.826.275 1.106.406.289.131.532.327.728.588.205.252.308.583.308.994 0 .373-.098.714-.294 1.022a2.093 2.093 0 01-.854.742c-.373.177-.807.266-1.302.266-.551 0-1.036-.112-1.456-.336a2.99 2.99 0 01-.994-.854l.7-.7zm12.03 1.89a3.332 3.332 0 01-1.722-.462 3.539 3.539 0 01-1.246-1.274 3.457 3.457 0 01-.462-1.764c0-.644.154-1.232.462-1.764a3.43 3.43 0 011.246-1.26 3.26 3.26 0 011.722-.476 3.26 3.26 0 011.722.476 3.43 3.43 0 011.246 1.26c.308.532.462 1.12.462 1.764 0 .644-.154 1.232-.462 1.764a3.539 3.539 0 01-1.246 1.274 3.332 3.332 0 01-1.722.462zm0-.91c.439 0 .845-.112 1.218-.336a2.619 2.619 0 001.232-2.254c0-.476-.112-.91-.336-1.302a2.481 2.481 0 00-.896-.938 2.256 2.256 0 00-1.218-.35c-.439 0-.845.117-1.218.35a2.481 2.481 0 00-.896.938 2.578 2.578 0 00-.336 1.302 2.619 2.619 0 001.232 2.254c.373.224.779.336 1.218.336zm6.161-5.04c.177-.289.443-.537.798-.742.364-.205.798-.308 1.302-.308h.42v.98h-.42c-.373 0-.723.089-1.05.266a2.033 2.033 0 00-.77.77c-.187.327-.28.705-.28 1.134V590h-.98v-6.72h.98v.91zm6.787 4.06c.187.271.434.504.742.7.308.187.644.28 1.008.28.476 0 .84-.103 1.092-.308.252-.215.378-.485.378-.812a.768.768 0 00-.392-.7c-.252-.159-.634-.313-1.148-.462-.457-.14-.826-.271-1.106-.392a2.029 2.029 0 01-.7-.56c-.196-.252-.294-.574-.294-.966 0-.327.094-.635.28-.924a2.16 2.16 0 01.798-.7 2.513 2.513 0 011.162-.266c.458 0 .873.089 1.246.266.383.177.691.392.924.644l-.7.7a1.723 1.723 0 00-.616-.49 1.727 1.727 0 00-.854-.21c-.373 0-.676.098-.91.294-.233.196-.35.425-.35.686 0 .289.122.509.364.658.243.14.621.285 1.134.434.458.14.826.275 1.106.406.29.131.532.327.728.588.206.252.308.583.308.994 0 .373-.098.714-.294 1.022-.196.308-.48.555-.854.742-.373.177-.807.266-1.302.266-.55 0-1.036-.112-1.456-.336a2.99 2.99 0 01-.994-.854l.7-.7zm6.926-3.99c.233-.308.551-.569.952-.784a2.737 2.737 0 011.358-.336 3.11 3.11 0 011.652.462c.504.299.901.714 1.19 1.246.299.532.448 1.129.448 1.792s-.149 1.26-.448 1.792a3.287 3.287 0 01-1.19 1.26 3.18 3.18 0 01-1.652.448c-.504 0-.957-.107-1.358-.322a3.012 3.012 0 01-.952-.798v3.92h-.98v-9.66h.98v.98zm2.31 4.97a2.2 2.2 0 001.162-.322c.355-.224.635-.532.84-.924.205-.392.308-.84.308-1.344 0-.504-.103-.952-.308-1.344a2.263 2.263 0 00-.84-.91 2.135 2.135 0 00-1.162-.336c-.392 0-.77.117-1.134.35a2.45 2.45 0 00-.854.938 2.662 2.662 0 00-.322 1.302c0 .476.107.915.322 1.316.215.392.499.705.854.938.364.224.742.336 1.134.336zm10.706-.238c-.298.317-.69.588-1.176.812a3.827 3.827 0 01-1.624.336 3.256 3.256 0 01-1.68-.462 3.583 3.583 0 01-1.232-1.274 3.548 3.548 0 01-.448-1.764 3.52 3.52 0 011.666-3.024 2.998 2.998 0 011.624-.476c.598 0 1.144.145 1.638.434.495.289.882.691 1.162 1.204.28.504.42 1.078.42 1.722 0 .177-.023.345-.07.504l-5.46-.014c.019.392.14.761.364 1.106.224.345.514.621.868.826.355.205.738.308 1.148.308.467 0 .887-.084 1.26-.252a2.87 2.87 0 00.91-.616l.63.63zm-.63-2.842c-.074-.607-.322-1.106-.742-1.498a2.064 2.064 0 00-1.498-.602c-.382 0-.742.098-1.078.294a2.453 2.453 0 00-.84.77 2.357 2.357 0 00-.392 1.036h4.55zm8.396 2.59a4.054 4.054 0 01-1.218.994 3.194 3.194 0 01-1.582.406 3.25 3.25 0 01-1.68-.462 3.574 3.574 0 01-1.232-1.274 3.538 3.538 0 01-.448-1.764c0-.644.149-1.232.448-1.764a3.463 3.463 0 011.232-1.26 3.181 3.181 0 011.68-.476c.569 0 1.092.131 1.568.392.476.252.863.565 1.162.938l-.7.7a2.785 2.785 0 00-.854-.784 2.117 2.117 0 00-1.176-.336c-.42 0-.812.117-1.176.35a2.516 2.516 0 00-.882.938 2.662 2.662 0 00-.322 1.302c0 .476.107.915.322 1.316.224.392.518.705.882.938.364.224.756.336 1.176.336.438 0 .84-.107 1.204-.322.364-.224.662-.49.896-.798l.7.63zm1.395-7.7a.61.61 0 01.182-.448.61.61 0 01.448-.182.61.61 0 01.448.182.61.61 0 01.182.448.61.61 0 01-.182.448.61.61 0 01-.448.182.61.61 0 01-.448-.182.61.61 0 01-.182-.448zm1.12 2.24V590h-.98v-6.72h.98zm6.306 5.81a2.673 2.673 0 01-.882.742 2.63 2.63 0 01-1.288.308c-.448 0-.854-.093-1.218-.28a2.269 2.269 0 01-.854-.728 1.697 1.697 0 01-.308-.952c0-.569.168-1.036.504-1.4.346-.364.831-.574 1.456-.63l2.59-.224c0-.327-.074-.635-.224-.924a1.651 1.651 0 00-.602-.686 1.45 1.45 0 00-.854-.266 3.93 3.93 0 00-1.078.14c-.326.093-.597.21-.812.35l-.63-.63c.28-.215.64-.397 1.078-.546.439-.149.92-.224 1.442-.224.504 0 .957.117 1.358.35.411.224.728.532.952.924.234.392.35.831.35 1.316V590h-.98v-.91zm-2.31-2.1c-.41.037-.723.163-.938.378a1.103 1.103 0 00-.322.812c0 .299.122.551.364.756.252.196.598.294 1.036.294.654 0 1.176-.177 1.568-.532.402-.364.602-.868.602-1.512v-.42l-2.31.224zm6.164-6.79v9.8h-.98v-9.8h.98zm2.173.84a.61.61 0 01.182-.448.61.61 0 01.448-.182.61.61 0 01.448.182.61.61 0 01.182.448.61.61 0 01-.182.448.61.61 0 01-.448.182.61.61 0 01-.448-.182.61.61 0 01-.182-.448zm1.12 2.24V590h-.98v-6.72h.98zm2.317 4.97c.186.271.434.504.742.7.308.187.644.28 1.008.28.476 0 .84-.103 1.092-.308.252-.215.378-.485.378-.812a.77.77 0 00-.392-.7c-.252-.159-.635-.313-1.148-.462-.458-.14-.826-.271-1.106-.392a2.02 2.02 0 01-.7-.56c-.196-.252-.294-.574-.294-.966 0-.327.093-.635.28-.924a2.16 2.16 0 01.798-.7 2.508 2.508 0 011.162-.266c.457 0 .872.089 1.246.266.382.177.69.392.924.644l-.7.7a1.74 1.74 0 00-.616-.49 1.73 1.73 0 00-.854-.21c-.374 0-.677.098-.91.294-.234.196-.35.425-.35.686 0 .289.121.509.364.658.242.14.62.285 1.134.434.457.14.826.275 1.106.406.289.131.532.327.728.588.205.252.308.583.308.994 0 .373-.098.714-.294 1.022a2.093 2.093 0 01-.854.742c-.374.177-.808.266-1.302.266-.551 0-1.036-.112-1.456-.336a2.981 2.981 0 01-.994-.854l.7-.7zm5.245-4.97h1.26v-2.24h.98v2.24h1.82v.91h-1.82v3.99c0 .336.075.574.224.714.159.131.388.196.686.196h.91v.91h-.952c-.588 0-1.045-.149-1.372-.448-.317-.299-.476-.756-.476-1.372v-3.99h-1.26v-.91zm5.815 4.97c.187.271.434.504.742.7.308.187.644.28 1.008.28.476 0 .84-.103 1.092-.308.252-.215.378-.485.378-.812a.77.77 0 00-.392-.7c-.252-.159-.635-.313-1.148-.462-.457-.14-.826-.271-1.106-.392a2.02 2.02 0 01-.7-.56c-.196-.252-.294-.574-.294-.966 0-.327.093-.635.28-.924a2.16 2.16 0 01.798-.7 2.51 2.51 0 011.162-.266c.457 0 .873.089 1.246.266.383.177.691.392.924.644l-.7.7a1.732 1.732 0 00-.616-.49 1.73 1.73 0 00-.854-.21c-.373 0-.677.098-.91.294-.233.196-.35.425-.35.686 0 .289.121.509.364.658.243.14.621.285 1.134.434.457.14.826.275 1.106.406.289.131.532.327.728.588.205.252.308.583.308.994 0 .373-.098.714-.294 1.022a2.093 2.093 0 01-.854.742c-.373.177-.807.266-1.302.266-.551 0-1.036-.112-1.456-.336a2.99 2.99 0 01-.994-.854l.7-.7zm8.957-4.97l2.17 5.39 2.17-5.39h1.05l-2.73 6.72h-.98l-2.73-6.72h1.05zm6.583-2.24a.61.61 0 01.182-.448.61.61 0 01.448-.182.61.61 0 01.448.182.61.61 0 01.182.448.61.61 0 01-.182.448.61.61 0 01-.448.182.61.61 0 01-.448-.182.61.61 0 01-.182-.448zm1.12 2.24V590h-.98v-6.72h.98zm2.317 4.97c.186.271.434.504.742.7.308.187.644.28 1.008.28.476 0 .84-.103 1.092-.308.252-.215.378-.485.378-.812a.77.77 0 00-.392-.7c-.252-.159-.635-.313-1.148-.462-.458-.14-.826-.271-1.106-.392a2.02 2.02 0 01-.7-.56c-.196-.252-.294-.574-.294-.966 0-.327.093-.635.28-.924a2.16 2.16 0 01.798-.7 2.508 2.508 0 011.162-.266c.457 0 .872.089 1.246.266.382.177.69.392.924.644l-.7.7a1.74 1.74 0 00-.616-.49 1.73 1.73 0 00-.854-.21c-.374 0-.677.098-.91.294-.234.196-.35.425-.35.686 0 .289.121.509.364.658.242.14.62.285 1.134.434.457.14.826.275 1.106.406.289.131.532.327.728.588.205.252.308.583.308.994 0 .373-.098.714-.294 1.022a2.093 2.093 0 01-.854.742c-.374.177-.808.266-1.302.266-.551 0-1.036-.112-1.456-.336a2.981 2.981 0 01-.994-.854l.7-.7zm5.805-7.21a.61.61 0 01.182-.448.612.612 0 01.448-.182c.178 0 .327.061.448.182a.606.606 0 01.182.448c0 .177-.06.327-.182.448a.609.609 0 01-.448.182.612.612 0 01-.448-.182.61.61 0 01-.182-.448zm1.12 2.24V590h-.98v-6.72h.98zm1.547 0h1.26v-2.24h.98v2.24h1.82v.91h-1.82v3.99c0 .336.075.574.224.714.159.131.387.196.686.196h.91v.91h-.952c-.588 0-1.045-.149-1.372-.448-.317-.299-.476-.756-.476-1.372v-3.99h-1.26v-.91zm5.815 4.97c.186.271.434.504.742.7.308.187.644.28 1.008.28.476 0 .84-.103 1.092-.308.252-.215.378-.485.378-.812a.77.77 0 00-.392-.7c-.252-.159-.635-.313-1.148-.462-.458-.14-.826-.271-1.106-.392a2.02 2.02 0 01-.7-.56c-.196-.252-.294-.574-.294-.966 0-.327.093-.635.28-.924a2.16 2.16 0 01.798-.7 2.508 2.508 0 011.162-.266c.457 0 .872.089 1.246.266.382.177.69.392.924.644l-.7.7a1.74 1.74 0 00-.616-.49 1.73 1.73 0 00-.854-.21c-.374 0-.677.098-.91.294-.234.196-.35.425-.35.686 0 .289.121.509.364.658.242.14.62.285 1.134.434.457.14.826.275 1.106.406.289.131.532.327.728.588.205.252.308.583.308.994 0 .373-.098.714-.294 1.022a2.093 2.093 0 01-.854.742c-.374.177-.808.266-1.302.266-.551 0-1.036-.112-1.456-.336a2.981 2.981 0 01-.994-.854l.7-.7z" class="Prescriptions; doctors or specialists visits"/>
          </g>
        </g>
        <g class="Frame 812">
          <path fill="#fff" d="M16.5 614h342v56c0 8.837-7.163 16-16 16h-310c-8.837 0-16-7.163-16-16v-56z"/>
          <g class="Frame 1336_3" clip-path="url(#clip3)">
            <g class="Frame 1339_3" clip-path="url(#clip4)">
              <path fill="#fff" d="M32.5 638h24v24h-24z"/>
              <g class="Heavy_3">
                <circle cx="35.5" cy="641" r="3" fill="#678085" class="Ellipse 94_3" opacity=".8"/>
                <circle cx="35.5" cy="650" r="3" fill="#678085" class="Ellipse 99_3" opacity=".8"/>
                <circle cx="35.5" cy="659" r="3" fill="#678085" class="Ellipse 102_3" opacity=".8"/>
                <circle cx="53.5" cy="641" r="3" fill="#678085" class="Ellipse 95_3" opacity=".8"/>
                <circle cx="53.5" cy="650" r="3" fill="#678085" class="Ellipse 100_3" opacity=".8"/>
                <circle cx="53.5" cy="659" r="3" fill="#678085" class="Ellipse 103_3" opacity=".8"/>
                <circle cx="44.5" cy="641" r="3" fill="#678085" class="Ellipse 98_3" opacity=".8"/>
                <circle cx="44.5" cy="650" r="3" fill="#678085" class="Ellipse 101_3" opacity=".8"/>
                <circle cx="44.5" cy="659" r="3" fill="#678085" class="Ellipse 104_3" opacity=".8"/>
              </g>
            </g>
          </g>
          <g class="Frame 1335_3">
            <path fill="#1F2533" d="M75.3 631.8l2.928 8.24h.064l2.928-8.24h2.56L79.62 643H76.9l-4.16-11.2h2.56zm15.843 10.448c-.363.256-.838.475-1.424.656a6.9 6.9 0 01-1.936.256 4.176 4.176 0 01-2.097-.544 4.23 4.23 0 01-1.52-1.488 4.03 4.03 0 01-.543-2.048c0-.736.18-1.413.543-2.032a4.15 4.15 0 011.489-1.488 3.946 3.946 0 012.047-.56c.704 0 1.355.176 1.953.528a3.886 3.886 0 011.44 1.44c.352.597.528 1.248.528 1.952 0 .352-.027.672-.08.96h-5.68c.127.395.362.72.704.976.352.256.81.384 1.376.384.448 0 .847-.048 1.2-.144.362-.107.656-.229.88-.368l1.12 1.52zm-1.76-3.968a2.027 2.027 0 00-.672-.96c-.31-.267-.672-.4-1.088-.4-.416 0-.785.133-1.105.4-.309.256-.528.576-.656.96h3.52zm6.005-2.24h.08c.149-.245.389-.453.72-.624.33-.171.746-.256 1.248-.256h.511v2.08h-.72c-.533 0-.976.192-1.328.576-.34.373-.511.875-.511 1.504V643h-2.16v-7.84h2.16v.88zm4.63 8.24c.651 0 1.104-.32 1.36-.96l.16-.4-3.04-7.76h2.32l1.84 5.2h.08l1.76-5.2h2.32l-3.2 8.48c-.341.907-.757 1.584-1.248 2.032-.491.459-1.088.688-1.792.688h-1.44v-2.08h.88zm10.651-5.2c0-.736.182-1.413.544-2.032a4.08 4.08 0 011.52-1.488 4.09 4.09 0 012.096-.56c.758 0 1.456.187 2.096.56.64.363 1.142.859 1.504 1.488.374.619.56 1.296.56 2.032s-.186 1.419-.56 2.048a4.097 4.097 0 01-1.504 1.488 4.174 4.174 0 01-2.096.544 4.176 4.176 0 01-2.096-.544 4.235 4.235 0 01-1.52-1.488 4.037 4.037 0 01-.544-2.048zm4.16 2.08c.566 0 1.04-.197 1.424-.592.384-.395.576-.891.576-1.488s-.192-1.093-.576-1.488a1.905 1.905 0 00-1.424-.592c-.565 0-1.04.197-1.424.592-.384.395-.576.891-.576 1.488s.192 1.093.576 1.488c.384.395.859.592 1.424.592zm5.038-5.84h1.2v-.8c0-.907.235-1.611.704-2.112.48-.512 1.125-.768 1.936-.768h1.44v2.08h-.88c-.32 0-.576.101-.768.304-.181.192-.272.464-.272.816v.48h1.76v2h-1.76V643h-2.16v-5.68h-1.2v-2zm5.922 0h1.36v-2.4h2.16v2.4h1.92v2h-1.92v2.704c0 .352.09.613.272.784.181.171.437.256.768.256h.88V643h-1.44c-.822 0-1.467-.229-1.936-.688-.47-.459-.704-1.136-.704-2.032v-2.96h-1.36v-2zm14.01 6.928c-.363.256-.838.475-1.424.656a6.902 6.902 0 01-1.936.256 4.174 4.174 0 01-2.096-.544 4.228 4.228 0 01-1.52-1.488 4.027 4.027 0 01-.544-2.048c0-.736.181-1.413.544-2.032a4.145 4.145 0 011.488-1.488 3.945 3.945 0 012.048-.56c.704 0 1.354.176 1.952.528a3.886 3.886 0 011.44 1.44c.352.597.528 1.248.528 1.952 0 .352-.027.672-.08.96h-5.68c.128.395.362.72.704.976.352.256.81.384 1.376.384.448 0 .848-.048 1.2-.144a3.65 3.65 0 00.88-.368l1.12 1.52zm-1.76-3.968a2.027 2.027 0 00-.672-.96c-.31-.267-.672-.4-1.088-.4-.416 0-.784.133-1.104.4-.31.256-.528.576-.656.96h3.52zm6.005-2h.08c.245-.352.565-.651.96-.896a2.492 2.492 0 011.36-.384c.533 0 1.018.139 1.456.416a2.81 2.81 0 011.04 1.152c.256.491.384 1.061.384 1.712V643h-2.16v-4.4c0-.48-.128-.853-.384-1.12-.256-.267-.608-.4-1.056-.4a1.6 1.6 0 00-1.2.496c-.32.331-.48.752-.48 1.264V643h-2.16v-7.84h2.16v1.12z" class="Very often"/>
            <path fill="#70747D" d="M80.62 656.2v.98h-5.6v3.36h4.48v.98h-4.48V666h-1.05v-9.8h6.65zm2.033 3.99c.177-.289.443-.537.798-.742.364-.205.798-.308 1.302-.308h.42v.98h-.42c-.374 0-.724.089-1.05.266a2.03 2.03 0 00-.77.77c-.187.327-.28.705-.28 1.134V666h-.98v-6.72h.98v.91zm9.38 4.802c-.3.317-.692.588-1.177.812a3.83 3.83 0 01-1.624.336 3.254 3.254 0 01-1.68-.462 3.58 3.58 0 01-1.232-1.274 3.541 3.541 0 01-.448-1.764c0-.635.15-1.218.448-1.75a3.477 3.477 0 011.218-1.274 2.996 2.996 0 011.624-.476c.597 0 1.143.145 1.638.434.495.289.882.691 1.162 1.204.28.504.42 1.078.42 1.722 0 .177-.023.345-.07.504l-5.46-.014c.019.392.14.761.364 1.106.224.345.514.621.868.826.355.205.737.308 1.148.308.467 0 .887-.084 1.26-.252.373-.168.677-.373.91-.616l.63.63zm-.63-2.842c-.076-.607-.323-1.106-.743-1.498a2.065 2.065 0 00-1.498-.602c-.383 0-.742.098-1.078.294a2.453 2.453 0 00-.84.77 2.344 2.344 0 00-.392 1.036h4.55zm7.835 2.87c-.234.308-.55.574-.952.798a2.83 2.83 0 01-1.358.322 3.179 3.179 0 01-1.652-.448 3.396 3.396 0 01-1.204-1.26 3.688 3.688 0 01-.434-1.792c0-.663.144-1.26.434-1.792a3.29 3.29 0 011.204-1.246 3.109 3.109 0 011.652-.462c.504 0 .957.112 1.358.336.401.215.718.476.952.784v-.98h.98v9.66h-.98v-3.92zm-2.31.21c.392 0 .765-.112 1.12-.336.364-.233.653-.546.868-.938.215-.401.322-.84.322-1.316 0-.476-.108-.91-.322-1.302a2.412 2.412 0 00-.868-.938 2.008 2.008 0 00-1.12-.35c-.42 0-.807.112-1.162.336a2.267 2.267 0 00-.84.91c-.206.392-.308.84-.308 1.344 0 .504.103.952.308 1.344.205.392.485.7.84.924a2.2 2.2 0 001.162.322zm6.506-2.03c0 .392.084.742.252 1.05.168.308.397.551.686.728.289.168.607.252.952.252.373 0 .714-.093 1.022-.28a2.07 2.07 0 00.728-.798 2.4 2.4 0 00.28-1.162v-3.71h.98V666h-.98v-.91a2.694 2.694 0 01-.882.742 2.633 2.633 0 01-1.288.308c-.513 0-.98-.121-1.4-.364a2.728 2.728 0 01-.98-1.05 3.26 3.26 0 01-.35-1.526v-3.92h.98v3.92zm12.879 1.792c-.298.317-.69.588-1.176.812a3.827 3.827 0 01-1.624.336 3.256 3.256 0 01-1.68-.462 3.583 3.583 0 01-1.232-1.274 3.548 3.548 0 01-.448-1.764 3.52 3.52 0 011.666-3.024 2.998 2.998 0 011.624-.476c.598 0 1.144.145 1.638.434.495.289.882.691 1.162 1.204.28.504.42 1.078.42 1.722 0 .177-.023.345-.07.504l-5.46-.014c.019.392.14.761.364 1.106.224.345.514.621.868.826.355.205.738.308 1.148.308.467 0 .887-.084 1.26-.252a2.87 2.87 0 00.91-.616l.63.63zm-.63-2.842c-.074-.607-.322-1.106-.742-1.498a2.064 2.064 0 00-1.498-.602c-.382 0-.742.098-1.078.294a2.453 2.453 0 00-.84.77 2.357 2.357 0 00-.392 1.036h4.55zm3.706-1.89a2.69 2.69 0 01.882-.784 2.454 2.454 0 011.288-.336c.532 0 1.003.117 1.414.35.42.233.742.569.966 1.008.233.429.35.933.35 1.512V666h-.98v-3.99c0-.588-.173-1.059-.518-1.414-.336-.364-.77-.546-1.302-.546-.392 0-.751.098-1.078.294a2.044 2.044 0 00-.756.784 2.456 2.456 0 00-.266 1.162V666h-.98v-6.72h.98v.98zm6.304-.98h1.26v-2.24h.98v2.24h1.82v.91h-1.82v3.99c0 .336.075.574.224.714.159.131.388.196.686.196h.91v.91h-.952c-.588 0-1.045-.149-1.372-.448-.317-.299-.476-.756-.476-1.372v-3.99h-1.26v-.91zm12.95 5.81a2.694 2.694 0 01-.882.742 2.633 2.633 0 01-1.288.308c-.448 0-.854-.093-1.218-.28a2.261 2.261 0 01-.854-.728 1.697 1.697 0 01-.308-.952c0-.569.168-1.036.504-1.4.345-.364.831-.574 1.456-.63l2.59-.224c0-.327-.075-.635-.224-.924a1.658 1.658 0 00-.602-.686 1.451 1.451 0 00-.854-.266 3.93 3.93 0 00-1.078.14 2.98 2.98 0 00-.812.35l-.63-.63c.28-.215.639-.397 1.078-.546a4.459 4.459 0 011.442-.224c.504 0 .957.117 1.358.35.411.224.728.532.952.924.233.392.35.831.35 1.316V666h-.98v-.91zm-2.31-2.1c-.411.037-.723.163-.938.378a1.1 1.1 0 00-.322.812c0 .299.121.551.364.756.252.196.597.294 1.036.294.653 0 1.176-.177 1.568-.532.401-.364.602-.868.602-1.512v-.42l-2.31.224zm6.093-2.73a2.69 2.69 0 01.882-.784 2.457 2.457 0 011.288-.336c.532 0 1.004.117 1.414.35.42.233.742.569.966 1.008.234.429.35.933.35 1.512V666h-.98v-3.99c0-.588-.172-1.059-.518-1.414-.336-.364-.77-.546-1.302-.546-.392 0-.751.098-1.078.294a2.044 2.044 0 00-.756.784 2.456 2.456 0 00-.266 1.162V666h-.98v-6.72h.98v.98zm12.251 4.76a3 3 0 01-.952.798 2.829 2.829 0 01-1.358.322 3.18 3.18 0 01-1.652-.448 3.398 3.398 0 01-1.204-1.26 3.692 3.692 0 01-.434-1.792c0-.663.145-1.26.434-1.792.299-.532.7-.947 1.204-1.246a3.11 3.11 0 011.652-.462c.504 0 .957.112 1.358.336.402.215.719.476.952.784v-4.06h.98v9.8h-.98v-.98zm-2.31.21c.392 0 .766-.112 1.12-.336.364-.233.654-.546.868-.938.215-.401.322-.84.322-1.316 0-.476-.107-.91-.322-1.302a2.406 2.406 0 00-.868-.938 2.007 2.007 0 00-1.12-.35c-.42 0-.807.112-1.162.336a2.277 2.277 0 00-.84.91c-.205.392-.308.84-.308 1.344 0 .504.103.952.308 1.344.206.392.486.7.84.924a2.2 2.2 0 001.162.322zm9.585-9.17l-4.2 12.88h-.91l4.2-12.88h.91zm4.063 10.08a3.332 3.332 0 01-1.722-.462 3.539 3.539 0 01-1.246-1.274 3.457 3.457 0 01-.462-1.764c0-.644.154-1.232.462-1.764a3.43 3.43 0 011.246-1.26 3.26 3.26 0 011.722-.476 3.26 3.26 0 011.722.476 3.43 3.43 0 011.246 1.26c.308.532.462 1.12.462 1.764 0 .644-.154 1.232-.462 1.764a3.539 3.539 0 01-1.246 1.274 3.332 3.332 0 01-1.722.462zm0-.91c.439 0 .845-.112 1.218-.336a2.619 2.619 0 001.232-2.254c0-.476-.112-.91-.336-1.302a2.481 2.481 0 00-.896-.938 2.256 2.256 0 00-1.218-.35c-.439 0-.845.117-1.218.35a2.481 2.481 0 00-.896.938 2.578 2.578 0 00-.336 1.302 2.619 2.619 0 001.232 2.254c.373.224.779.336 1.218.336zm6.161-5.04c.178-.289.444-.537.798-.742.364-.205.798-.308 1.302-.308h.42v.98h-.42c-.373 0-.723.089-1.05.266a2.033 2.033 0 00-.77.77c-.186.327-.28.705-.28 1.134V666h-.98v-6.72h.98v.91zm7.697-.07c.178-.271.425-.499.742-.686.327-.196.71-.294 1.148-.294.523 0 .971.117 1.344.35.374.224.649.504.826.84.196-.336.49-.616.882-.84.402-.233.878-.35 1.428-.35.766 0 1.386.252 1.862.756.486.504.728 1.209.728 2.114V666h-.98v-3.99c0-.625-.154-1.106-.462-1.442-.308-.345-.714-.518-1.218-.518-.326 0-.63.093-.91.28-.28.177-.504.439-.672.784-.158.336-.238.728-.238 1.176V666h-.98v-3.99c0-.616-.154-1.097-.462-1.442-.308-.345-.714-.518-1.218-.518-.326 0-.63.093-.91.28-.28.177-.504.439-.672.784-.158.336-.238.728-.238 1.176V666h-.98v-6.72h.98v.84zm15.262 4.97a2.694 2.694 0 01-.882.742 2.633 2.633 0 01-1.288.308c-.448 0-.854-.093-1.218-.28a2.261 2.261 0 01-.854-.728 1.697 1.697 0 01-.308-.952c0-.569.168-1.036.504-1.4.345-.364.831-.574 1.456-.63l2.59-.224c0-.327-.075-.635-.224-.924a1.658 1.658 0 00-.602-.686 1.451 1.451 0 00-.854-.266 3.93 3.93 0 00-1.078.14 2.98 2.98 0 00-.812.35l-.63-.63c.28-.215.639-.397 1.078-.546a4.459 4.459 0 011.442-.224c.504 0 .957.117 1.358.35.411.224.728.532.952.924.233.392.35.831.35 1.316V666h-.98v-.91zm-2.31-2.1c-.411.037-.723.163-.938.378a1.1 1.1 0 00-.322.812c0 .299.121.551.364.756.252.196.597.294 1.036.294.653 0 1.176-.177 1.568-.532.401-.364.602-.868.602-1.512v-.42l-2.31.224zm4.973-5.95a.61.61 0 01.182-.448.612.612 0 01.448-.182c.178 0 .327.061.448.182a.606.606 0 01.182.448c0 .177-.06.327-.182.448a.609.609 0 01-.448.182.612.612 0 01-.448-.182.61.61 0 01-.182-.448zm-.77 10.99c.29 0 .514-.089.672-.266.159-.177.238-.439.238-.784v-7.7h.98v7.7c0 1.307-.606 1.96-1.82 1.96h-.84v-.91h.77zm7.077-1.89a3.332 3.332 0 01-1.722-.462 3.539 3.539 0 01-1.246-1.274 3.457 3.457 0 01-.462-1.764c0-.644.154-1.232.462-1.764a3.43 3.43 0 011.246-1.26 3.26 3.26 0 011.722-.476 3.26 3.26 0 011.722.476 3.43 3.43 0 011.246 1.26c.308.532.462 1.12.462 1.764 0 .644-.154 1.232-.462 1.764a3.539 3.539 0 01-1.246 1.274 3.332 3.332 0 01-1.722.462zm0-.91c.439 0 .845-.112 1.218-.336a2.619 2.619 0 001.232-2.254c0-.476-.112-.91-.336-1.302a2.481 2.481 0 00-.896-.938 2.256 2.256 0 00-1.218-.35c-.439 0-.845.117-1.218.35a2.481 2.481 0 00-.896.938 2.578 2.578 0 00-.336 1.302 2.619 2.619 0 001.232 2.254c.373.224.779.336 1.218.336zm6.161-5.04c.177-.289.443-.537.798-.742.364-.205.798-.308 1.302-.308h.42v.98h-.42c-.373 0-.723.089-1.05.266a2.033 2.033 0 00-.77.77c-.187.327-.28.705-.28 1.134V666h-.98v-6.72h.98v.91zm7.767.07a2.69 2.69 0 01.882-.784 2.457 2.457 0 011.288-.336c.532 0 1.004.117 1.414.35.42.233.742.569.966 1.008.234.429.35.933.35 1.512V666h-.98v-3.99c0-.588-.172-1.059-.518-1.414-.336-.364-.77-.546-1.302-.546-.392 0-.751.098-1.078.294a2.044 2.044 0 00-.756.784 2.456 2.456 0 00-.266 1.162V666h-.98v-9.8h.98v4.06zm10.08 5.88c-.626 0-1.2-.154-1.722-.462a3.539 3.539 0 01-1.246-1.274 3.457 3.457 0 01-.462-1.764c0-.644.154-1.232.462-1.764a3.43 3.43 0 011.246-1.26 3.255 3.255 0 011.722-.476 3.26 3.26 0 011.722.476c.522.308.938.728 1.246 1.26.308.532.462 1.12.462 1.764 0 .644-.154 1.232-.462 1.764a3.547 3.547 0 01-1.246 1.274 3.332 3.332 0 01-1.722.462zm0-.91c.438 0 .844-.112 1.218-.336a2.619 2.619 0 001.232-2.254c0-.476-.112-.91-.336-1.302a2.481 2.481 0 00-.896-.938 2.261 2.261 0 00-1.218-.35c-.439 0-.845.117-1.218.35a2.474 2.474 0 00-.896.938 2.578 2.578 0 00-.336 1.302 2.61 2.61 0 001.232 2.254c.373.224.779.336 1.218.336zm5.251-.98c.186.271.434.504.742.7.308.187.644.28 1.008.28.476 0 .84-.103 1.092-.308.252-.215.378-.485.378-.812a.77.77 0 00-.392-.7c-.252-.159-.635-.313-1.148-.462-.458-.14-.826-.271-1.106-.392a2.02 2.02 0 01-.7-.56c-.196-.252-.294-.574-.294-.966 0-.327.093-.635.28-.924a2.16 2.16 0 01.798-.7 2.508 2.508 0 011.162-.266c.457 0 .872.089 1.246.266.382.177.69.392.924.644l-.7.7a1.74 1.74 0 00-.616-.49 1.73 1.73 0 00-.854-.21c-.374 0-.677.098-.91.294-.234.196-.35.425-.35.686 0 .289.121.509.364.658.242.14.62.285 1.134.434.457.14.826.275 1.106.406.289.131.532.327.728.588.205.252.308.583.308.994 0 .373-.098.714-.294 1.022a2.093 2.093 0 01-.854.742c-.374.177-.808.266-1.302.266-.551 0-1.036-.112-1.456-.336a2.981 2.981 0 01-.994-.854l.7-.7zm6.925-3.99c.234-.308.551-.569.952-.784a2.74 2.74 0 011.358-.336c.598 0 1.148.154 1.652.462.504.299.901.714 1.19 1.246.299.532.448 1.129.448 1.792s-.149 1.26-.448 1.792a3.287 3.287 0 01-1.19 1.26 3.177 3.177 0 01-1.652.448c-.504 0-.956-.107-1.358-.322a3.023 3.023 0 01-.952-.798v3.92h-.98v-9.66h.98v.98zm2.31 4.97c.42 0 .808-.107 1.162-.322.355-.224.635-.532.84-.924.206-.392.308-.84.308-1.344 0-.504-.102-.952-.308-1.344a2.263 2.263 0 00-.84-.91 2.132 2.132 0 00-1.162-.336c-.392 0-.77.117-1.134.35a2.457 2.457 0 00-.854.938 2.673 2.673 0 00-.322 1.302c0 .476.108.915.322 1.316.215.392.5.705.854.938.364.224.742.336 1.134.336zm4.897-8.19c0-.177.06-.327.182-.448a.609.609 0 01.448-.182c.177 0 .326.061.448.182a.61.61 0 01.182.448.61.61 0 01-.182.448.612.612 0 01-.448.182.609.609 0 01-.448-.182.606.606 0 01-.182-.448zm1.12 2.24V666h-.98v-6.72h.98zm1.546 0h1.26v-2.24h.98v2.24h1.82v.91h-1.82v3.99c0 .336.075.574.224.714.159.131.388.196.686.196h.91v.91h-.952c-.588 0-1.045-.149-1.372-.448-.317-.299-.476-.756-.476-1.372v-3.99h-1.26v-.91zm9.668 5.81a2.673 2.673 0 01-.882.742 2.63 2.63 0 01-1.288.308c-.448 0-.854-.093-1.218-.28a2.269 2.269 0 01-.854-.728 1.697 1.697 0 01-.308-.952c0-.569.168-1.036.504-1.4.346-.364.831-.574 1.456-.63l2.59-.224c0-.327-.074-.635-.224-.924a1.651 1.651 0 00-.602-.686 1.45 1.45 0 00-.854-.266 3.93 3.93 0 00-1.078.14c-.326.093-.597.21-.812.35l-.63-.63c.28-.215.64-.397 1.078-.546.439-.149.92-.224 1.442-.224.504 0 .957.117 1.358.35.411.224.728.532.952.924.234.392.35.831.35 1.316V666h-.98v-.91zm-2.31-2.1c-.41.037-.723.163-.938.378a1.103 1.103 0 00-.322.812c0 .299.122.551.364.756.252.196.598.294 1.036.294.654 0 1.176-.177 1.568-.532.402-.364.602-.868.602-1.512v-.42l-2.31.224zm6.164-6.79v9.8h-.98v-9.8h.98zm5.324 3.08l2.17 5.39 2.17-5.39h1.05l-2.73 6.72h-.98l-2.73-6.72h1.05zm6.583-2.24a.61.61 0 01.182-.448.612.612 0 01.448-.182c.178 0 .327.061.448.182a.606.606 0 01.182.448c0 .177-.06.327-.182.448a.609.609 0 01-.448.182.612.612 0 01-.448-.182.61.61 0 01-.182-.448zm1.12 2.24V666h-.98v-6.72h.98zm2.317 4.97c.187.271.434.504.742.7.308.187.644.28 1.008.28.476 0 .84-.103 1.092-.308.252-.215.378-.485.378-.812a.77.77 0 00-.392-.7c-.252-.159-.635-.313-1.148-.462-.457-.14-.826-.271-1.106-.392a2.02 2.02 0 01-.7-.56c-.196-.252-.294-.574-.294-.966 0-.327.093-.635.28-.924a2.16 2.16 0 01.798-.7 2.51 2.51 0 011.162-.266c.457 0 .873.089 1.246.266.383.177.691.392.924.644l-.7.7a1.732 1.732 0 00-.616-.49 1.73 1.73 0 00-.854-.21c-.373 0-.677.098-.91.294-.233.196-.35.425-.35.686 0 .289.121.509.364.658.243.14.621.285 1.134.434.457.14.826.275 1.106.406.289.131.532.327.728.588.205.252.308.583.308.994 0 .373-.098.714-.294 1.022a2.093 2.093 0 01-.854.742c-.373.177-.807.266-1.302.266-.551 0-1.036-.112-1.456-.336a2.99 2.99 0 01-.994-.854l.7-.7zm5.806-7.21c0-.177.06-.327.182-.448a.609.609 0 01.448-.182c.177 0 .326.061.448.182a.61.61 0 01.182.448.61.61 0 01-.182.448.612.612 0 01-.448.182.609.609 0 01-.448-.182.606.606 0 01-.182-.448zm1.12 2.24V666h-.98v-6.72h.98zm1.546 0h1.26v-2.24h.98v2.24h1.82v.91h-1.82v3.99c0 .336.075.574.224.714.159.131.387.196.686.196h.91v.91h-.952c-.588 0-1.045-.149-1.372-.448-.317-.299-.476-.756-.476-1.372v-3.99h-1.26v-.91zm5.815 4.97c.187.271.434.504.742.7.308.187.644.28 1.008.28.476 0 .84-.103 1.092-.308.252-.215.378-.485.378-.812a.77.77 0 00-.392-.7c-.252-.159-.635-.313-1.148-.462-.457-.14-.826-.271-1.106-.392a2.02 2.02 0 01-.7-.56c-.196-.252-.294-.574-.294-.966 0-.327.093-.635.28-.924a2.16 2.16 0 01.798-.7 2.51 2.51 0 011.162-.266c.457 0 .873.089 1.246.266.383.177.691.392.924.644l-.7.7a1.732 1.732 0 00-.616-.49 1.73 1.73 0 00-.854-.21c-.373 0-.677.098-.91.294-.233.196-.35.425-.35.686 0 .289.121.509.364.658.243.14.621.285 1.134.434.457.14.826.275 1.106.406.289.131.532.327.728.588.205.252.308.583.308.994 0 .373-.098.714-.294 1.022a2.093 2.093 0 01-.854.742c-.373.177-.807.266-1.302.266-.551 0-1.036-.112-1.456-.336a2.99 2.99 0 01-.994-.854l.7-.7z" class="Frequent and/or major hospital visits"/>
          </g>
        </g>
      </g>
      <g class="Frame 1278">
        <g class="Standard/Secondary" style="mix-blend-mode:multiply">
          <rect width="80" height="40" x="279" y="718" fill="#F1F3F5" rx="20" style="mix-blend-mode:multiply"/>
          <path fill="#25272E" d="M305.164 740.28c.278.352.656.656 1.136.912.48.245 1.035.368 1.664.368.694 0 1.238-.16 1.632-.48.406-.331.608-.731.608-1.2 0-.341-.106-.619-.32-.832a2.176 2.176 0 00-.784-.512 11.004 11.004 0 00-1.296-.416c-.757-.224-1.365-.437-1.824-.64a3.274 3.274 0 01-1.2-.976c-.33-.437-.496-1.019-.496-1.744 0-.565.155-1.083.464-1.552.31-.48.752-.859 1.328-1.136.587-.288 1.27-.432 2.048-.432.758 0 1.44.139 2.048.416.619.277 1.11.619 1.472 1.024l-1.2 1.2a3.047 3.047 0 00-.976-.736 2.892 2.892 0 00-1.344-.304c-.65 0-1.162.149-1.536.448-.362.288-.544.645-.544 1.072 0 .341.102.619.304.832.214.213.475.384.784.512.32.128.758.267 1.312.416.758.224 1.366.443 1.824.656.459.203.854.523 1.184.96.342.437.512 1.019.512 1.744 0 .587-.165 1.131-.496 1.632-.32.501-.784.901-1.392 1.2-.608.299-1.312.448-2.112.448-.885 0-1.674-.16-2.368-.48-.693-.331-1.237-.731-1.632-1.2l1.2-1.2zm10.245-8.48v7.04l3.28-3.52h2l-2.96 3.12 3.2 4.56h-1.84l-2.4-3.44-1.28 1.36V743h-1.6v-11.2h1.6zm6.553 1.12c0-.267.096-.491.288-.672.203-.192.427-.288.672-.288.245 0 .464.096.656.288a.864.864 0 01.304.672.913.913 0 01-.304.688.931.931 0 01-.656.272.988.988 0 01-.672-.272.938.938 0 01-.288-.688zm1.76 2.4V743h-1.6v-7.68h1.6zm3.92 1.12c.245-.352.597-.651 1.056-.896.459-.256.987-.384 1.584-.384.64 0 1.232.176 1.776.528.555.341.997.816 1.328 1.424.331.608.496 1.291.496 2.048 0 .757-.165 1.44-.496 2.048a3.844 3.844 0 01-1.328 1.44 3.281 3.281 0 01-1.776.512c-.597 0-1.125-.123-1.584-.368-.459-.256-.811-.56-1.056-.912v4.48h-1.6v-11.04h1.6v1.12zm2.32 5.2c.427 0 .816-.107 1.168-.32.352-.213.629-.507.832-.88.213-.384.32-.811.32-1.28s-.107-.891-.32-1.264a2.251 2.251 0 00-.832-.896 2.212 2.212 0 00-1.168-.32c-.427 0-.816.107-1.168.32a2.362 2.362 0 00-.848.896 2.602 2.602 0 00-.304 1.264c0 .469.101.896.304 1.28.213.373.496.667.848.88.352.213.741.32 1.168.32z" class="Label"/>
        </g>
        <g class="iOS/Home Bar/Black">
          <path fill="#000" fill-rule="evenodd" d="M121 800.5a2.5 2.5 0 012.5-2.5h129a2.5 2.5 0 110 5h-129a2.5 2.5 0 01-2.5-2.5z" class="Rectangle" clip-rule="evenodd"/>
        </g>
      </g>
    </g>
    <g class="Cluster">
      <g class="Battery">
        <path stroke="#000" d="M336.496 19.965c0-1.196.97-2.166 2.167-2.166h16.666c1.196 0 2.167.97 2.167 2.166v5.979a2.167 2.167 0 01-2.167 2.167h-16.666a2.167 2.167 0 01-2.167-2.167v-5.979z" class="Rectangle_2" opacity=".35"/>
        <path fill="#000" d="M358.996 20.959v3.992a2.167 2.167 0 001.328-1.996c0-.871-.524-1.658-1.328-1.996z" class="Combined Shape" opacity=".4"/>
        <path fill="#000" d="M337.996 20.628c0-.736.597-1.333 1.333-1.333h15.333c.737 0 1.334.597 1.334 1.333v4.653c0 .736-.597 1.333-1.334 1.333h-15.333a1.333 1.333 0 01-1.333-1.333v-4.653z" class="Rectangle_3"/>
      </g>
      <path fill="#000" fill-rule="evenodd" d="M323.327 19.57c2.216 0 4.347.85 5.953 2.374a.308.308 0 00.433-.004l1.156-1.164a.32.32 0 00-.003-.455c-4.215-4.032-10.864-4.032-15.079 0a.32.32 0 00-.003.455l1.156 1.164c.119.12.312.121.433.004a8.65 8.65 0 015.954-2.374zm0 3.788c1.217 0 2.391.452 3.294 1.268a.31.31 0 00.433-.006l1.155-1.165a.32.32 0 00.093-.23.318.318 0 00-.098-.228 7.169 7.169 0 00-9.752 0 .32.32 0 00-.004.458l1.154 1.165a.31.31 0 00.433.006 4.913 4.913 0 013.292-1.268zm2.313 2.55a.311.311 0 01-.094.23l-1.997 2.011a.314.314 0 01-.444 0l-1.997-2.012a.312.312 0 01.009-.456 3.426 3.426 0 014.419 0c.065.058.102.14.104.226z" class="Wifi" clip-rule="evenodd"/>
      <path fill="#000" fill-rule="evenodd" d="M309.663 17.633h-1a1 1 0 00-1 .998v8.65a1 1 0 001 .998h1c.553 0 1-.447 1-.998v-8.65a.999.999 0 00-1-.998zm-5.666 2.329h1a1 1 0 011 .998v6.321a1 1 0 01-1 .998h-1a1 1 0 01-1-.998V20.96a1 1 0 011-.998zm-3.667 2.329h-1a1 1 0 00-1 .998v3.992a1 1 0 001 .998h1c.553 0 1-.447 1-.998V23.29a.999.999 0 00-1-.998zm-4.666 1.996h-1a1 1 0 00-1 .998v1.996a1 1 0 001 .998h1a1 1 0 001-.998v-1.996a1 1 0 00-1-.998z" class="Mobile Signal" clip-rule="evenodd"/>
    </g>
    <g class="Time Style">
      <path fill="#000" d="M33.842 20.539v.021h1.772v-.029c0-1.047.82-1.823 1.92-1.823 1.047 0 1.83.695 1.83 1.567 0 .79-.33 1.333-1.53 2.556l-3.89 3.867v1.275h7.427v-1.546h-4.907v-.036l2.615-2.586c1.384-1.399 2.131-2.35 2.131-3.61 0-1.715-1.509-3.004-3.618-3.004-2.19 0-3.75 1.4-3.75 3.348zm9.888 5.888a1.04 1.04 0 001.047-1.054 1.04 1.04 0 00-1.047-1.055c-.593 0-1.055.461-1.055 1.055 0 .593.462 1.054 1.055 1.054zm0-5.288c.586 0 1.047-.469 1.047-1.055a1.04 1.04 0 00-1.047-1.054c-.593 0-1.055.461-1.055 1.054 0 .586.462 1.055 1.055 1.055zm6.49 7.046c2.585 0 4.123-2.131 4.123-5.515s-1.553-5.479-4.124-5.479c-2.578 0-4.138 2.11-4.138 5.486 0 3.391 1.546 5.508 4.138 5.508zm0-1.545c-1.407 0-2.234-1.48-2.234-3.97 0-2.446.842-3.933 2.233-3.933 1.385 0 2.212 1.472 2.212 3.94 0 2.49-.813 3.963-2.212 3.963zm5.53 1.333h1.977l4.52-8.994v-1.575h-7.354v1.545h5.493v.037l-4.637 8.987z" class="9:41"/>
    </g>
    <g class=".Navigation primitives/L12/Native/Nav bar (black)">
      <g class="Right">
        <g class="Navigation UI/Secondary/Native/Help">
          <g class="Vector">
            <path fill="#25272E" d="M351 75.5a9.5 9.5 0 009.5-9.5 9.5 9.5 0 00-9.5-9.5 9.5 9.5 0 00-9.5 9.5 9.5 9.5 0 009.5 9.5zm0 1.5c-6.075 0-11-4.925-11-11s4.925-11 11-11 11 4.925 11 11-4.925 11-11 11z"/>
            <path fill="#25272E" d="M349.81 67.573c0-2.03 2.38-2.03 2.38-3.52a1.136 1.136 0 00-.807-1.008 1.14 1.14 0 00-.453-.042 1.719 1.719 0 00-1.68 1.15l-1.75-.77a3.56 3.56 0 013.5-2.38c2.07 0 3.36 1.32 3.36 2.79 0 2.59-2.52 2.59-2.52 4.41h-1.89a2.067 2.067 0 01-.14-.63zm-.14 2.52a1.085 1.085 0 01.33-.782 1.083 1.083 0 01.79-.308 1.119 1.119 0 11-1.12 1.09z"/>
          </g>
        </g>
      </g>
      <g class="Left">
        <g class="Navigation UI/Secondary/Native/Back">
          <path fill="#25272E" fill-rule="evenodd" d="M27.002 57.36l-8.157 7.831c-.46.44-.46 1.176 0 1.619l8.157 7.83a1.292 1.292 0 101.79-1.865l-6.832-6.559a.299.299 0 010-.433l6.833-6.56a1.293 1.293 0 00-1.79-1.864z" class="Back" clip-rule="evenodd"/>
        </g>
      </g>
    </g>
    <g class="Explorer Step Dot/Complete">
      <circle cx="141.5" cy="63.5" r="2.5" fill="#03948C" class="Dot"/>
    </g>
    <g class="Explorer Step Dot/Complete_2">
      <circle cx="154.5" cy="63.5" r="2.5" fill="#03948C" class="Dot_2"/>
    </g>
    <g class="Explorer Step Dot/Complete_3">
      <circle cx="167.5" cy="63.5" r="2.5" fill="#03948C" class="Dot_3"/>
    </g>
    <g class="Explorer Step Dot/Complete_4">
      <circle cx="180.5" cy="63.5" r="2.5" fill="#03948C" class="Dot_4"/>
    </g>
    <g class="Explorer Step Dot/Complete_5">
      <circle cx="193.5" cy="63.5" r="2.5" fill="#03948C" class="Dot_5"/>
    </g>
    <g class="Explorer Step Dot/Current">
      <circle cx="206.5" cy="63.5" r="4" fill="#03948C" class="Grande Dot"/>
    </g>
    <g class="Explorer Step Dot/Upcoming">
      <circle cx="219.5" cy="63.5" r="2.5" fill="#CEE1E5" class="Dot_6"/>
    </g>
    <g class="Explorer Step Dot/Upcoming_2">
      <circle cx="232.5" cy="63.5" r="2.5" fill="#CEE1E5" class="Dot_7"/>
    </g>
  </g>
  <defs>
    <clipPath id="clip0" class="clip0">
      <path fill="#fff" d="M0 0h375v812H0z"/>
    </clipPath>
    <clipPath id="clip1" class="clip1">
      <path fill="#fff" d="M0 0h24v24H0z" transform="translate(32.5 486)"/>
    </clipPath>
    <clipPath id="clip2" class="clip2">
      <path fill="#fff" d="M0 0h24v24H0z" transform="translate(32.5 486)"/>
    </clipPath>
    <clipPath id="clip3" class="clip3">
      <path fill="#fff" d="M0 0h24v24H0z" transform="translate(32.5 638)"/>
    </clipPath>
    <clipPath id="clip4" class="clip4">
      <path fill="#fff" d="M0 0h24v24H0z" transform="translate(32.5 638)"/>
    </clipPath>
    <linearGradient id="paint0_linear" x1="111.5" x2="296.815" y1="120.362" y2="781.352" class="paint0_linear" gradientUnits="userSpaceOnUse">
      <stop stop-color="#E4F0F0" stop-opacity="0"/>
      <stop offset="1" stop-color="#E4F0F0"/>
    </linearGradient>
  </defs>
</svg>
