<svg xmlns="http://www.w3.org/2000/svg" width="375" height="812" fill="none" viewBox="0 0 375 812">
  <g clip-path="url(#clip0)">
    <path fill="#fff" d="M0 0h375v812H0z"/>
    <path fill="url(#paint0_linear)" d="M0 98h375v621H0z"/>
    <path fill="#25272E" d="M24.9 504l5.4 14h-3.2l-1.2-3.2h-5.4l-1.2 3.2h-3.2l5.4-14h3.4zm-1.66 3.5h-.08l-1.66 4.6h3.4l-1.66-4.6zm11.155 1.8h.1c.186-.307.486-.567.9-.78.413-.213.933-.32 1.56-.32h.64v2.6h-.9c-.667 0-1.22.24-1.66.72-.427.467-.64 1.093-.64 1.88v4.6h-2.7v-9.8h2.7v1.1zm13.502 7.76c-.453.32-1.047.593-1.78.82-.733.213-1.54.32-2.42.32-.947 0-1.82-.227-2.62-.68a5.3 5.3 0 01-1.9-1.86 5.04 5.04 0 01-.68-2.56c0-.92.227-1.767.68-2.54a5.175 5.175 0 011.86-1.86c.787-.467 1.64-.7 2.56-.7.88 0 1.693.22 2.44.66.76.44 1.36 1.04 1.8 1.8.44.747.66 1.56.66 2.44 0 .44-.033.84-.1 1.2h-7.1c.16.493.453.9.88 1.22.44.32 1.013.48 1.72.48.56 0 1.06-.06 1.5-.18.453-.133.82-.287 1.1-.46l1.4 1.9zm-2.2-4.96c-.16-.48-.44-.88-.84-1.2a2.02 2.02 0 00-1.36-.5c-.52 0-.98.167-1.38.5-.387.32-.66.72-.82 1.2h4.4zm8.515-3.7h1.7v-3h2.7v3h2.4v2.5h-2.4v3.38c0 .44.114.767.34.98.227.213.547.32.96.32h1.1V518h-1.8c-1.026 0-1.833-.287-2.42-.86-.586-.573-.88-1.42-.88-2.54v-3.7h-1.7v-2.5zm11.708 1.2h.1a4.04 4.04 0 011.2-1.12 3.118 3.118 0 011.7-.48c.667 0 1.274.173 1.82.52.547.333.98.813 1.3 1.44.32.613.48 1.327.48 2.14v5.9h-2.7v-5.5c0-.6-.16-1.067-.48-1.4-.32-.333-.76-.5-1.32-.5-.6 0-1.1.207-1.5.62-.4.413-.6.94-.6 1.58v5.2h-2.7v-14h2.7v5.6zm17.992 7.46c-.453.32-1.046.593-1.78.82-.733.213-1.54.32-2.42.32-.946 0-1.82-.227-2.62-.68a5.3 5.3 0 01-1.9-1.86 5.04 5.04 0 01-.68-2.56c0-.92.227-1.767.68-2.54a5.176 5.176 0 011.86-1.86c.787-.467 1.64-.7 2.56-.7.88 0 1.694.22 2.44.66.76.44 1.36 1.04 1.8 1.8.44.747.66 1.56.66 2.44 0 .44-.033.84-.1 1.2h-7.1c.16.493.454.9.88 1.22.44.32 1.014.48 1.72.48.56 0 1.06-.06 1.5-.18.454-.133.82-.287 1.1-.46l1.4 1.9zm-2.2-4.96c-.16-.48-.44-.88-.84-1.2a2.02 2.02 0 00-1.36-.5c-.52 0-.98.167-1.38.5-.386.32-.66.72-.82 1.2h4.4zm7.507-2.8h.1c.186-.307.486-.567.9-.78.413-.213.933-.32 1.56-.32h.64v2.6h-.9c-.667 0-1.22.24-1.66.72-.427.467-.64 1.093-.64 1.88v4.6h-2.7v-9.8h2.7v1.1zm13.502 7.76c-.453.32-1.047.593-1.78.82-.733.213-1.54.32-2.42.32-.947 0-1.82-.227-2.62-.68a5.3 5.3 0 01-1.9-1.86 5.04 5.04 0 01-.68-2.56c0-.92.227-1.767.68-2.54a5.176 5.176 0 011.86-1.86c.787-.467 1.64-.7 2.56-.7.88 0 1.693.22 2.44.66.76.44 1.36 1.04 1.8 1.8.44.747.66 1.56.66 2.44 0 .44-.033.84-.1 1.2h-7.1c.16.493.453.9.88 1.22.44.32 1.013.48 1.72.48.56 0 1.06-.06 1.5-.18.453-.133.82-.287 1.1-.46l1.4 1.9zm-2.2-4.96c-.16-.48-.44-.88-.84-1.2a2.02 2.02 0 00-1.36-.5c-.52 0-.98.167-1.38.5-.387.32-.66.72-.82 1.2h4.4zm12.116-2.5h.1c.306-.44.726-.813 1.26-1.12.533-.32 1.146-.48 1.84-.48.773 0 1.493.22 2.16.66.68.44 1.22 1.047 1.62 1.82.413.773.62 1.647.62 2.62 0 .973-.207 1.847-.62 2.62-.4.773-.94 1.38-1.62 1.82-.667.44-1.387.66-2.16.66-.694 0-1.307-.153-1.84-.46-.534-.32-.954-.7-1.26-1.14h-.1v5.6h-2.7v-14h2.7v1.4zm2.4 6.1c.706 0 1.3-.247 1.78-.74s.72-1.113.72-1.86c0-.747-.24-1.367-.72-1.86-.48-.493-1.074-.74-1.78-.74-.707 0-1.3.247-1.78.74s-.72 1.113-.72 1.86c0 .747.24 1.367.72 1.86.48.493 1.073.74 1.78.74zm9.904-6.4h.1c.187-.307.487-.567.9-.78.414-.213.934-.32 1.56-.32h.64v2.6h-.9c-.666 0-1.22.24-1.66.72-.426.467-.64 1.093-.64 1.88v4.6h-2.7v-9.8h2.7v1.1zm13.503 7.76c-.454.32-1.047.593-1.78.82-.734.213-1.54.32-2.42.32-.947 0-1.82-.227-2.62-.68a5.295 5.295 0 01-1.9-1.86 5.034 5.034 0 01-.68-2.56c0-.92.226-1.767.68-2.54a5.166 5.166 0 011.86-1.86c.786-.467 1.64-.7 2.56-.7.88 0 1.693.22 2.44.66.76.44 1.36 1.04 1.8 1.8.44.747.66 1.56.66 2.44 0 .44-.034.84-.1 1.2h-7.1c.16.493.453.9.88 1.22.44.32 1.013.48 1.72.48.56 0 1.06-.06 1.5-.18.453-.133.82-.287 1.1-.46l1.4 1.9zm-2.2-4.96c-.16-.48-.44-.88-.84-1.2a2.02 2.02 0 00-1.36-.5c-.52 0-.98.167-1.38.5-.387.32-.66.72-.82 1.2h4.4zm5.406 2.6a4 4 0 001.14.78c.453.213.94.32 1.46.32.8 0 1.2-.233 1.2-.7 0-.187-.127-.34-.38-.46-.24-.133-.627-.287-1.16-.46a20.22 20.22 0 01-1.74-.68 3.8 3.8 0 01-1.22-.94c-.333-.413-.5-.933-.5-1.56 0-.547.153-1.047.46-1.5.307-.453.753-.813 1.34-1.08.6-.28 1.3-.42 2.1-.42.813 0 1.547.147 2.2.44.667.293 1.2.647 1.6 1.06l-1.6 1.7c-.24-.227-.553-.413-.94-.56a3.265 3.265 0 00-1.26-.24c-.333 0-.587.06-.76.18-.16.12-.24.26-.24.42 0 .187.12.347.36.48.253.12.647.267 1.18.44.693.24 1.273.473 1.74.7a3.27 3.27 0 011.2.94c.347.4.52.913.52 1.54 0 .573-.16 1.1-.48 1.58-.307.467-.773.84-1.4 1.12-.613.267-1.353.4-2.22.4-.88 0-1.687-.173-2.42-.52-.733-.347-1.327-.773-1.78-1.28l1.6-1.7zm17.202 1.5c-.4.56-.954 1.033-1.66 1.42-.707.387-1.52.58-2.44.58-.947 0-1.82-.227-2.62-.68a5.295 5.295 0 01-1.9-1.86 5.034 5.034 0 01-.68-2.56c0-.92.226-1.767.68-2.54a5.078 5.078 0 011.9-1.86c.8-.467 1.673-.7 2.62-.7.92 0 1.733.193 2.44.58.706.387 1.26.86 1.66 1.42l-1.7 1.7a3.298 3.298 0 00-1.04-.84 2.663 2.663 0 00-1.36-.36c-.707 0-1.3.247-1.78.74s-.72 1.113-.72 1.86c0 .747.24 1.367.72 1.86.48.493 1.073.74 1.78.74.493 0 .946-.113 1.36-.34.426-.24.773-.527 1.04-.86l1.7 1.7zm4.39-6.9h.1c.187-.307.487-.567.9-.78.414-.213.934-.32 1.56-.32h.64v2.6h-.9c-.666 0-1.22.24-1.66.72-.426.467-.64 1.093-.64 1.88v4.6h-2.7v-9.8h2.7v1.1zm4.698-3.9c0-.4.153-.747.46-1.04a1.5 1.5 0 011.1-.46c.413 0 .773.153 1.08.46.307.293.46.64.46 1.04s-.153.753-.46 1.06c-.307.293-.673.44-1.1.44-.413 0-.773-.147-1.08-.44-.307-.307-.46-.66-.46-1.06zm2.9 2.8v9.8h-2.7v-9.8h2.7zm5.293 1.4h.1c.306-.44.726-.813 1.26-1.12.533-.32 1.146-.48 1.84-.48.773 0 1.493.22 2.16.66.68.44 1.22 1.047 1.62 1.82.413.773.62 1.647.62 2.62 0 .973-.207 1.847-.62 2.62-.4.773-.94 1.38-1.62 1.82-.667.44-1.387.66-2.16.66-.694 0-1.307-.153-1.84-.46-.534-.32-.954-.7-1.26-1.14h-.1v5.6h-2.7v-14h2.7v1.4zm2.4 6.1c.706 0 1.3-.247 1.78-.74s.72-1.113.72-1.86c0-.747-.24-1.367-.72-1.86-.48-.493-1.074-.74-1.78-.74-.707 0-1.3.247-1.78.74s-.72 1.113-.72 1.86c0 .747.24 1.367.72 1.86.48.493 1.073.74 1.78.74zm6.305-7.3h1.7v-3h2.7v3h2.4v2.5h-2.4v3.38c0 .44.113.767.339.98.227.213.547.32.961.32h1.1V518h-1.8c-1.027 0-1.834-.287-2.42-.86-.587-.573-.88-1.42-.88-2.54v-3.7h-1.7v-2.5zm8.707-3c0-.4.154-.747.46-1.04.307-.307.674-.46 1.1-.46.414 0 .774.153 1.08.46.307.293.46.64.46 1.04s-.153.753-.46 1.06c-.306.293-.673.44-1.1.44-.413 0-.773-.147-1.08-.44-.306-.307-.46-.66-.46-1.06zm2.9 2.8v9.8h-2.7v-9.8h2.7zm1.993 4.9c0-.92.227-1.767.68-2.54a5.085 5.085 0 011.9-1.86c.8-.467 1.674-.7 2.62-.7.947 0 1.82.233 2.62.7a4.932 4.932 0 011.88 1.86c.467.773.7 1.62.7 2.54 0 .92-.233 1.773-.7 2.56a5.137 5.137 0 01-4.5 2.54c-.946 0-1.82-.227-2.62-.68a5.302 5.302 0 01-1.9-1.86 5.044 5.044 0 01-.68-2.56zm5.2 2.6c.707 0 1.3-.247 1.78-.74s.72-1.113.72-1.86c0-.747-.24-1.367-.72-1.86-.48-.493-1.073-.74-1.78-.74-.706 0-1.3.247-1.78.74s-.72 1.113-.72 1.86c0 .747.24 1.367.72 1.86.48.493 1.074.74 1.78.74zm9.897-6.1h.1c.307-.44.707-.813 1.2-1.12a3.118 3.118 0 011.7-.48c.667 0 1.273.173 1.82.52.547.333.98.813 1.3 1.44.32.613.48 1.327.48 2.14v5.9h-2.7v-5.5c0-.6-.16-1.067-.48-1.4-.32-.333-.76-.5-1.32-.5-.6 0-1.1.207-1.5.62-.4.413-.6.94-.6 1.58v5.2h-2.7v-9.8h2.7v1.4zm9.795 5.1c.306.307.686.567 1.14.78.453.213.94.32 1.46.32.8 0 1.2-.233 1.2-.7 0-.187-.127-.34-.38-.46-.24-.133-.627-.287-1.16-.46a19.963 19.963 0 01-1.74-.68 3.789 3.789 0 01-1.22-.94c-.334-.413-.5-.933-.5-1.56 0-.547.153-1.047.46-1.5.306-.453.753-.813 1.34-1.08.6-.28 1.3-.42 2.1-.42.813 0 1.546.147 2.2.44.666.293 1.2.647 1.6 1.06l-1.6 1.7c-.24-.227-.554-.413-.94-.56a3.265 3.265 0 00-1.26-.24c-.334 0-.587.06-.76.18-.16.12-.24.26-.24.42 0 .187.12.347.36.48.253.12.646.267 1.18.44.693.24 1.273.473 1.74.7.466.213.866.527 1.2.94.346.4.52.913.52 1.54 0 .573-.16 1.1-.48 1.58-.307.467-.774.84-1.4 1.12-.614.267-1.354.4-2.22.4-.88 0-1.687-.173-2.42-.52-.734-.347-1.327-.773-1.78-1.28l1.6-1.7zm13.22 4.9c.813 0 1.38-.4 1.7-1.2l.2-.5-3.8-9.7h2.9l2.3 6.5h.1l2.2-6.5h2.9l-4 10.6c-.427 1.133-.947 1.98-1.56 2.54-.613.573-1.36.86-2.24.86h-1.8v-2.6h1.1zm9.095-6.5c0-.92.227-1.767.68-2.54a5.085 5.085 0 011.9-1.86c.8-.467 1.674-.7 2.62-.7.947 0 1.82.233 2.62.7a4.932 4.932 0 011.88 1.86c.467.773.7 1.62.7 2.54 0 .92-.233 1.773-.7 2.56a5.137 5.137 0 01-4.5 2.54c-.946 0-1.82-.227-2.62-.68a5.302 5.302 0 01-1.9-1.86 5.044 5.044 0 01-.68-2.56zm5.2 2.6c.707 0 1.3-.247 1.78-.74s.72-1.113.72-1.86c0-.747-.24-1.367-.72-1.86-.48-.493-1.073-.74-1.78-.74-.706 0-1.3.247-1.78.74s-.72 1.113-.72 1.86c0 .747.24 1.367.72 1.86.48.493 1.074.74 1.78.74zm9.897-2c0 .6.16 1.067.48 1.4.32.333.76.5 1.32.5.6 0 1.1-.207 1.5-.62.4-.413.6-.94.6-1.58v-5.2h2.7v9.8h-2.7v-1.4h-.1a4.17 4.17 0 01-1.22 1.14 3.112 3.112 0 01-1.68.46 3.433 3.433 0 01-1.82-.5 3.69 3.69 0 01-1.3-1.44c-.32-.627-.48-1.347-.48-2.16v-5.9h2.7v5.5zM20 537.6h.1a4.04 4.04 0 011.2-1.12A3.118 3.118 0 0123 536c.667 0 1.273.173 1.82.52.547.333.98.813 1.3 1.44.32.613.48 1.327.48 2.14v5.9h-2.7v-5.5c0-.6-.16-1.067-.48-1.4-.32-.333-.76-.5-1.32-.5-.6 0-1.1.207-1.5.62-.4.413-.6.94-.6 1.58v5.2h-2.7v-9.8H20v1.4zm17.995 7.46c-.454.32-1.047.593-1.78.82-.734.213-1.54.32-2.42.32-.947 0-1.82-.227-2.62-.68a5.3 5.3 0 01-1.9-1.86 5.04 5.04 0 01-.68-2.56c0-.92.226-1.767.68-2.54a5.176 5.176 0 011.86-1.86c.786-.467 1.64-.7 2.56-.7.88 0 1.693.22 2.44.66.76.44 1.36 1.04 1.8 1.8.44.747.66 1.56.66 2.44 0 .44-.034.84-.1 1.2h-7.1c.16.493.453.9.88 1.22.44.32 1.013.48 1.72.48.56 0 1.06-.06 1.5-.18.453-.133.82-.287 1.1-.46l1.4 1.9zm-2.2-4.96c-.16-.48-.44-.88-.84-1.2-.387-.333-.84-.5-1.36-.5-.52 0-.98.167-1.38.5-.387.32-.66.72-.82 1.2h4.4zm13.606 4.96c-.454.32-1.047.593-1.78.82-.734.213-1.54.32-2.42.32-.947 0-1.82-.227-2.62-.68a5.3 5.3 0 01-1.9-1.86 5.04 5.04 0 01-.68-2.56c0-.92.226-1.767.68-2.54a5.175 5.175 0 011.86-1.86c.786-.467 1.64-.7 2.56-.7.88 0 1.693.22 2.44.66.76.44 1.36 1.04 1.8 1.8.44.747.66 1.56.66 2.44 0 .44-.034.84-.1 1.2h-7.1c.16.493.453.9.88 1.22.44.32 1.013.48 1.72.48.56 0 1.06-.06 1.5-.18.453-.133.82-.287 1.1-.46l1.4 1.9zm-2.2-4.96c-.16-.48-.44-.88-.84-1.2a2.02 2.02 0 00-1.36-.5c-.52 0-.98.167-1.38.5-.387.32-.66.72-.82 1.2h4.4zm11.706 4.5c-.307.44-.727.82-1.26 1.14-.533.307-1.147.46-1.84.46-.773 0-1.5-.22-2.18-.66-.667-.44-1.207-1.047-1.62-1.82-.4-.773-.6-1.647-.6-2.62 0-.973.2-1.847.6-2.62.413-.773.953-1.38 1.62-1.82.68-.44 1.407-.66 2.18-.66.693 0 1.307.16 1.84.48.533.307.953.68 1.26 1.12h.1V532h2.7v14h-2.7v-1.4h-.1zm-2.3-.9c.707 0 1.3-.247 1.78-.74s.72-1.113.72-1.86c0-.747-.24-1.367-.72-1.86-.48-.493-1.073-.74-1.78-.74-.707 0-1.3.247-1.78.74s-.72 1.113-.72 1.86c0 .747.24 1.367.72 1.86.48.493 1.073.74 1.78.74zm21.112.5c-.4.56-.954 1.033-1.66 1.42-.707.387-1.52.58-2.44.58-.947 0-1.82-.227-2.62-.68a5.3 5.3 0 01-1.9-1.86 5.04 5.04 0 01-.68-2.56c0-.92.226-1.767.68-2.54a5.082 5.082 0 011.9-1.86c.8-.467 1.673-.7 2.62-.7.92 0 1.733.193 2.44.58.706.387 1.26.86 1.66 1.42l-1.7 1.7a3.288 3.288 0 00-1.04-.84 2.66 2.66 0 00-1.36-.36c-.707 0-1.3.247-1.78.74s-.72 1.113-.72 1.86c0 .747.24 1.367.72 1.86.48.493 1.073.74 1.78.74.493 0 .946-.113 1.36-.34.426-.24.773-.527 1.04-.86l1.7 1.7zm.895-3.1c0-.92.227-1.767.68-2.54a5.082 5.082 0 011.9-1.86c.8-.467 1.673-.7 2.62-.7.947 0 1.82.233 2.62.7a4.935 4.935 0 011.88 1.86c.467.773.7 1.62.7 2.54a4.93 4.93 0 01-.7 2.56 5.14 5.14 0 01-1.88 1.86c-.8.453-1.673.68-2.62.68-.947 0-1.82-.227-2.62-.68a5.3 5.3 0 01-1.9-1.86 5.04 5.04 0 01-.68-2.56zm5.2 2.6c.707 0 1.3-.247 1.78-.74s.72-1.113.72-1.86c0-.747-.24-1.367-.72-1.86-.48-.493-1.073-.74-1.78-.74-.707 0-1.3.247-1.78.74s-.72 1.113-.72 1.86c0 .747.24 1.367.72 1.86.48.493 1.073.74 1.78.74zm8.697-7.5l2.26 6.6h.08l2.26-6.6h2.9l-3.7 9.8h-3l-3.7-9.8h2.9zm17.495 8.86c-.453.32-1.046.593-1.78.82-.733.213-1.54.32-2.42.32-.946 0-1.82-.227-2.62-.68a5.302 5.302 0 01-1.9-1.86 5.044 5.044 0 01-.68-2.56c0-.92.227-1.767.68-2.54a5.181 5.181 0 011.86-1.86c.787-.467 1.64-.7 2.56-.7.88 0 1.694.22 2.44.66.76.44 1.36 1.04 1.8 1.8.44.747.66 1.56.66 2.44 0 .44-.033.84-.1 1.2h-7.1c.16.493.454.9.88 1.22.44.32 1.014.48 1.72.48.56 0 1.06-.06 1.5-.18.454-.133.82-.287 1.1-.46l1.4 1.9zm-2.2-4.96c-.16-.48-.44-.88-.84-1.2-.386-.333-.84-.5-1.36-.5-.52 0-.98.167-1.38.5-.386.32-.66.72-.82 1.2h4.4zm7.507-2.8h.1c.186-.307.486-.567.899-.78.414-.213.934-.32 1.561-.32h.64v2.6h-.9c-.667 0-1.22.24-1.66.72-.427.467-.64 1.093-.64 1.88v4.6h-2.7v-9.8h2.7v1.1zm13.502 7.76c-.453.32-1.047.593-1.78.82-.733.213-1.54.32-2.42.32-.947 0-1.82-.227-2.62-.68a5.302 5.302 0 01-1.9-1.86 5.044 5.044 0 01-.68-2.56c0-.92.227-1.767.68-2.54a5.181 5.181 0 011.86-1.86c.787-.467 1.64-.7 2.56-.7.88 0 1.693.22 2.44.66.76.44 1.36 1.04 1.8 1.8.44.747.66 1.56.66 2.44 0 .44-.033.84-.1 1.2h-7.1c.16.493.453.9.88 1.22.44.32 1.013.48 1.72.48.56 0 1.06-.06 1.5-.18.453-.133.82-.287 1.1-.46l1.4 1.9zm-2.2-4.96c-.16-.48-.44-.88-.84-1.2a2.02 2.02 0 00-1.36-.5c-.52 0-.98.167-1.38.5-.387.32-.66.72-.82 1.2h4.4zm11.706 4.5c-.307.44-.727.82-1.26 1.14-.533.307-1.147.46-1.84.46-.773 0-1.5-.22-2.18-.66-.667-.44-1.207-1.047-1.62-1.82-.4-.773-.6-1.647-.6-2.62 0-.973.2-1.847.6-2.62.413-.773.953-1.38 1.62-1.82.68-.44 1.407-.66 2.18-.66.693 0 1.307.16 1.84.48.533.307.953.68 1.26 1.12h.1V532h2.7v14h-2.7v-1.4h-.1zm-2.3-.9c.707 0 1.3-.247 1.78-.74s.72-1.113.72-1.86c0-.747-.24-1.367-.72-1.86-.48-.493-1.073-.74-1.78-.74-.707 0-1.3.247-1.78.74s-.72 1.113-.72 1.86c0 .747.24 1.367.72 1.86.48.493 1.073.74 1.78.74zm10.302-2c-.133-.28-.2-.58-.2-.9 0-.667.18-1.213.54-1.64.36-.44.874-.893 1.54-1.36.494-.347.854-.64 1.08-.88.227-.24.34-.513.34-.82 0-.373-.166-.7-.5-.98-.333-.28-.766-.42-1.3-.42-.586 0-1.093.16-1.52.48-.426.307-.753.68-.98 1.12l-2.6-1.2c.36-.92.974-1.7 1.84-2.34.867-.64 1.954-.96 3.26-.96 1 0 1.88.187 2.64.56.76.373 1.34.873 1.74 1.5a3.63 3.63 0 01.62 2.04c0 .573-.106 1.073-.32 1.5-.2.413-.446.76-.74 1.04-.293.267-.673.573-1.14.92-.573.413-1 .787-1.28 1.12-.28.32-.42.727-.42 1.22h-2.6zm-.4 2.9c0-.453.154-.833.46-1.14.307-.307.687-.46 1.14-.46.454 0 .834.153 1.14.46.307.307.46.687.46 1.14 0 .453-.153.833-.46 1.14-.306.307-.686.46-1.14.46-.453 0-.833-.153-1.14-.46a1.552 1.552 0 01-.46-1.14z"/>
    <g filter="url(#filter0_d)">
      <path fill="#fff" d="M0 648.79c0-22.21 0-33.315 4.39-41.768a39 39 0 0116.632-16.631C29.475 586 40.58 586 62.79 586h249.42c22.21 0 33.315 0 41.768 4.391a38.999 38.999 0 0116.631 16.631C375 615.475 375 626.58 375 648.79V812H0V648.79z"/>
    </g>
    <path fill="#E6E8EB" fill-rule="evenodd" d="M163 600.5a2.5 2.5 0 012.5-2.5h43a2.5 2.5 0 110 5h-43a2.5 2.5 0 01-2.5-2.5z" clip-rule="evenodd"/>
    <path fill="#fff" d="M16 664c0-7.542 0-11.314 2.343-13.657S24.457 648 32 648h311c7.542 0 11.314 0 13.657 2.343S359 656.458 359 664v8c0 7.542 0 11.314-2.343 13.657S350.542 688 343 688H32c-7.543 0-11.314 0-13.657-2.343S16 679.542 16 672v-8z"/>
    <path fill="#F1F3F5" fill-rule="evenodd" d="M343 649H32c-3.8 0-6.549.002-8.645.284-2.067.278-3.35.811-4.305 1.766-.955.955-1.488 2.237-1.766 4.305C17.002 657.451 17 660.2 17 664v8c0 3.8.002 6.549.284 8.645.278 2.068.811 3.35 1.766 4.305.955.955 2.238 1.488 4.305 1.766 2.096.282 4.846.284 8.645.284h311c3.799 0 6.549-.002 8.645-.284 2.068-.278 3.35-.811 4.305-1.766.955-.955 1.488-2.237 1.766-4.305.282-2.096.284-4.845.284-8.645v-8c0-3.8-.002-6.549-.284-8.645-.278-2.068-.811-3.35-1.766-4.305-.955-.955-2.237-1.488-4.305-1.766-2.096-.282-4.846-.284-8.645-.284zm-324.657 1.343C16 652.686 16 656.458 16 664v8c0 7.542 0 11.314 2.343 13.657S24.457 688 32 688h311c7.542 0 11.314 0 13.657-2.343S359 679.542 359 672v-8c0-7.542 0-11.314-2.343-13.657S350.542 648 343 648H32c-7.543 0-11.314 0-13.657 2.343z" clip-rule="evenodd" style="mix-blend-mode:multiply"/>
    <path fill="#70747D" d="M29.44 670.664c.299.384.71.709 1.232.976.523.267 1.125.4 1.808.4.821 0 1.45-.192 1.888-.576.448-.384.672-.885.672-1.504 0-.416-.117-.752-.352-1.008a2.249 2.249 0 00-.88-.608 12.648 12.648 0 00-1.44-.496c-.736-.213-1.333-.421-1.792-.624a3.217 3.217 0 01-1.152-.928c-.31-.405-.464-.944-.464-1.616 0-.544.144-1.045.432-1.504.299-.469.72-.843 1.264-1.12.555-.277 1.19-.416 1.904-.416.704 0 1.339.139 1.904.416.565.277 1.024.619 1.376 1.024l-.8.8a3.108 3.108 0 00-1.024-.784 3.085 3.085 0 00-1.456-.336c-.49 0-.917.091-1.28.272a1.94 1.94 0 00-.832.704 1.668 1.668 0 00-.288.944c0 .416.117.757.352 1.024.235.256.523.459.864.608.352.139.837.299 1.456.48.736.213 1.328.427 1.776.64.459.203.843.507 1.152.912.32.405.48.944.48 1.616 0 .619-.15 1.173-.448 1.664-.299.48-.73.859-1.296 1.136-.565.267-1.237.4-2.016.4-.843 0-1.59-.16-2.24-.48-.64-.331-1.147-.731-1.52-1.2l.72-.816zm15.367 1.184c-.342.363-.79.672-1.344.928a4.377 4.377 0 01-1.856.384 3.719 3.719 0 01-1.92-.528 4.097 4.097 0 01-1.408-1.456 4.047 4.047 0 01-.512-2.016c0-.725.17-1.392.512-2a3.969 3.969 0 011.392-1.456 3.418 3.418 0 011.856-.544c.682 0 1.306.165 1.872.496a3.507 3.507 0 011.328 1.376c.32.576.48 1.232.48 1.968 0 .203-.027.395-.08.576l-6.24-.016c.021.448.16.869.416 1.264s.587.709.992.944a2.57 2.57 0 001.312.352c.533 0 1.013-.096 1.44-.288a3.307 3.307 0 001.04-.704l.72.72zm-.72-3.248c-.086-.693-.368-1.264-.848-1.712a2.357 2.357 0 00-1.712-.688c-.438 0-.848.112-1.232.336a2.803 2.803 0 00-.96.88 2.678 2.678 0 00-.448 1.184h5.2zm7.755 3.36c-.245.331-.581.613-1.008.848-.427.235-.918.352-1.472.352a3.01 3.01 0 01-1.392-.32 2.587 2.587 0 01-.976-.832c-.235-.352-.352-.715-.352-1.088 0-.651.192-1.184.576-1.6.394-.416.95-.656 1.664-.72l2.96-.256c0-.373-.085-.725-.256-1.056a1.888 1.888 0 00-.688-.784 1.653 1.653 0 00-.976-.304c-.448 0-.859.053-1.232.16-.373.107-.683.24-.928.4l-.72-.72c.32-.245.73-.453 1.232-.624a5.076 5.076 0 011.648-.256c.576 0 1.093.133 1.552.4.47.256.832.608 1.088 1.056.267.448.4.949.4 1.504V673h-1.12v-1.04zm-2.64-2.4c-.47.043-.827.187-1.072.432a1.258 1.258 0 00-.368.928c0 .341.139.629.416.864.288.224.683.336 1.184.336.746 0 1.344-.203 1.792-.608.458-.416.688-.992.688-1.728v-.48l-2.64.256zm6.964-3.2c.202-.331.506-.613.912-.848.416-.235.912-.352 1.488-.352h.48v1.12h-.48c-.427 0-.827.101-1.2.304a2.326 2.326 0 00-.88.88c-.214.373-.32.805-.32 1.296V673h-1.12v-7.68h1.12v1.04zm10.719 5.2a4.604 4.604 0 01-1.392 1.136 3.654 3.654 0 01-1.808.464 3.719 3.719 0 01-1.92-.528 4.097 4.097 0 01-1.408-1.456 4.048 4.048 0 01-.512-2.016c0-.736.17-1.408.512-2.016a3.964 3.964 0 011.408-1.44 3.633 3.633 0 011.92-.544c.65 0 1.248.149 1.792.448.544.288.987.645 1.328 1.072l-.8.8a3.162 3.162 0 00-.976-.896 2.415 2.415 0 00-1.344-.384c-.48 0-.928.133-1.344.4a2.87 2.87 0 00-1.008 1.072 3.047 3.047 0 00-.368 1.488c0 .544.123 1.045.368 1.504.256.448.592.805 1.008 1.072.416.256.864.384 1.344.384.501 0 .96-.123 1.376-.368.416-.256.757-.56 1.024-.912l.8.72zm2.954-5.12a3.058 3.058 0 011.008-.896c.427-.256.918-.384 1.472-.384.608 0 1.147.133 1.616.4.48.267.848.651 1.104 1.152.267.491.4 1.067.4 1.728V673h-1.12v-4.56c0-.672-.197-1.211-.592-1.616-.384-.416-.88-.624-1.488-.624a2.35 2.35 0 00-1.232.336c-.362.213-.65.512-.864.896-.202.384-.304.827-.304 1.328V673h-1.12v-11.2h1.12v4.64zm16.394 5.52c-.246.331-.582.613-1.008.848-.427.235-.918.352-1.472.352a3.01 3.01 0 01-1.392-.32 2.588 2.588 0 01-.977-.832c-.234-.352-.352-.715-.352-1.088 0-.651.193-1.184.577-1.6.394-.416.949-.656 1.663-.72l2.96-.256c0-.373-.085-.725-.255-1.056a1.888 1.888 0 00-.689-.784 1.653 1.653 0 00-.975-.304c-.448 0-.86.053-1.233.16-.373.107-.682.24-.927.4l-.72-.72c.32-.245.73-.453 1.231-.624a5.077 5.077 0 011.648-.256c.576 0 1.094.133 1.553.4.469.256.832.608 1.088 1.056.266.448.4.949.4 1.504V673h-1.12v-1.04zm-2.64-2.4c-.47.043-.827.187-1.073.432a1.258 1.258 0 00-.367.928c0 .341.138.629.415.864.288.224.683.336 1.184.336.747 0 1.345-.203 1.793-.608.458-.416.688-.992.688-1.728v-.48l-2.64.256zm10.557-3.28c.203-.309.485-.571.848-.784.373-.224.81-.336 1.312-.336.597 0 1.11.133 1.536.4.427.256.741.576.944.96.224-.384.56-.704 1.008-.96.459-.267 1.003-.4 1.632-.4.875 0 1.584.288 2.128.864.555.576.832 1.381.832 2.416V673h-1.12v-4.56c0-.715-.176-1.264-.528-1.648-.352-.395-.816-.592-1.392-.592-.373 0-.72.107-1.04.32-.32.203-.576.501-.768.896-.181.384-.272.832-.272 1.344V673h-1.12v-4.56c0-.704-.176-1.253-.528-1.648-.352-.395-.816-.592-1.392-.592-.373 0-.72.107-1.04.32-.32.203-.576.501-.768.896-.181.384-.272.832-.272 1.344V673h-1.12v-7.68h1.12v.96zm19.282 5.568c-.341.363-.789.672-1.344.928a4.377 4.377 0 01-1.856.384 3.717 3.717 0 01-1.92-.528 4.094 4.094 0 01-1.408-1.456 4.05 4.05 0 01-.512-2.016c0-.725.171-1.392.512-2a3.969 3.969 0 011.392-1.456 3.42 3.42 0 011.856-.544c.683 0 1.307.165 1.872.496a3.51 3.51 0 011.328 1.376c.32.576.48 1.232.48 1.968 0 .203-.027.395-.08.576l-6.24-.016c.021.448.16.869.416 1.264a2.9 2.9 0 00.992.944c.405.235.843.352 1.312.352.533 0 1.013-.096 1.44-.288a3.306 3.306 0 001.04-.704l.72.72zm-.72-3.248c-.085-.693-.368-1.264-.848-1.712a2.356 2.356 0 00-1.712-.688c-.437 0-.848.112-1.232.336a2.803 2.803 0 00-.96.88 2.68 2.68 0 00-.448 1.184h5.2zm8.955 3.28c-.267.352-.629.656-1.088.912a3.243 3.243 0 01-1.552.368 3.639 3.639 0 01-1.888-.512 3.878 3.878 0 01-1.376-1.44c-.331-.608-.496-1.291-.496-2.048 0-.757.165-1.44.496-2.048.341-.608.8-1.083 1.376-1.424a3.552 3.552 0 011.888-.528 3.13 3.13 0 011.552.384c.459.245.821.544 1.088.896v-4.64h1.12V673h-1.12v-1.12zm-2.64.24c.448 0 .875-.128 1.28-.384.416-.267.747-.624.992-1.072.245-.459.368-.96.368-1.504a3.05 3.05 0 00-.368-1.488 2.748 2.748 0 00-.992-1.072 2.289 2.289 0 00-1.28-.4c-.48 0-.923.128-1.328.384a2.591 2.591 0 00-.96 1.04c-.235.448-.352.96-.352 1.536 0 .576.117 1.088.352 1.536.235.448.555.8.96 1.056a2.52 2.52 0 001.328.368zm6.234-9.36c0-.203.069-.373.208-.512a.693.693 0 01.512-.208c.202 0 .373.069.512.208a.698.698 0 01.208.512c0 .203-.07.373-.208.512a.696.696 0 01-.512.208.693.693 0 01-.512-.208.695.695 0 01-.208-.512zm1.28 2.56V673h-1.12v-7.68h1.12zm9.047 6.24a4.611 4.611 0 01-1.392 1.136 3.654 3.654 0 01-1.808.464 3.717 3.717 0 01-1.92-.528 4.094 4.094 0 01-1.408-1.456 4.05 4.05 0 01-.512-2.016c0-.736.171-1.408.512-2.016a3.961 3.961 0 011.408-1.44 3.631 3.631 0 011.92-.544c.651 0 1.248.149 1.792.448a4.16 4.16 0 011.328 1.072l-.8.8a3.162 3.162 0 00-.976-.896 2.417 2.417 0 00-1.344-.384c-.48 0-.928.133-1.344.4a2.87 2.87 0 00-1.008 1.072 3.05 3.05 0 00-.368 1.488c0 .544.123 1.045.368 1.504.256.448.592.805 1.008 1.072.416.256.864.384 1.344.384.501 0 .96-.123 1.376-.368a3.7 3.7 0 001.024-.912l.8.72zm6.395.4c-.246.331-.582.613-1.008.848-.427.235-.918.352-1.472.352a3.01 3.01 0 01-1.392-.32 2.582 2.582 0 01-.976-.832 1.936 1.936 0 01-.352-1.088c0-.651.192-1.184.576-1.6.394-.416.949-.656 1.664-.72l2.96-.256a2.28 2.28 0 00-.256-1.056 1.892 1.892 0 00-.688-.784 1.655 1.655 0 00-.977-.304c-.447 0-.858.053-1.231.16-.374.107-.683.24-.928.4l-.72-.72c.32-.245.73-.453 1.231-.624a5.08 5.08 0 011.648-.256 3.03 3.03 0 011.553.4c.469.256.832.608 1.088 1.056.266.448.4.949.4 1.504V673h-1.12v-1.04zm-2.64-2.4c-.47.043-.827.187-1.072.432-.246.245-.368.555-.368.928 0 .341.138.629.416.864.288.224.682.336 1.184.336.746 0 1.344-.203 1.792-.608.458-.416.688-.992.688-1.728v-.48l-2.64.256zm4.887-4.24h1.44v-2.56h1.12v2.56h2.08v1.04h-2.08v4.56c0 .384.085.656.256.816.181.149.443.224.784.224h1.04V673h-1.088c-.672 0-1.195-.171-1.568-.512-.363-.341-.544-.864-.544-1.568v-4.56h-1.44v-1.04zm6.406-2.56c0-.203.069-.373.208-.512a.693.693 0 01.512-.208c.202 0 .373.069.512.208a.698.698 0 01.208.512c0 .203-.07.373-.208.512a.696.696 0 01-.512.208.693.693 0 01-.512-.208.695.695 0 01-.208-.512zm1.28 2.56V673h-1.12v-7.68h1.12zm5.927 7.84a3.804 3.804 0 01-1.968-.528 4.056 4.056 0 01-1.424-1.456 3.951 3.951 0 01-.528-2.016c0-.736.176-1.408.528-2.016a3.926 3.926 0 011.424-1.44 3.716 3.716 0 011.968-.544c.715 0 1.371.181 1.968.544a3.926 3.926 0 011.424 1.44c.352.608.528 1.28.528 2.016s-.176 1.408-.528 2.016a4.056 4.056 0 01-1.424 1.456 3.804 3.804 0 01-1.968.528zm0-1.04c.501 0 .965-.128 1.392-.384a2.992 2.992 0 001.408-2.576c0-.544-.128-1.04-.384-1.488a2.825 2.825 0 00-1.024-1.072 2.576 2.576 0 00-1.392-.4c-.501 0-.965.133-1.392.4a2.825 2.825 0 00-1.024 1.072 2.946 2.946 0 00-.384 1.488 2.992 2.992 0 001.408 2.576c.427.256.891.384 1.392.384zm7.041-5.68a3.072 3.072 0 011.008-.896c.427-.256.918-.384 1.472-.384.608 0 1.147.133 1.616.4.48.267.848.651 1.104 1.152.267.491.4 1.067.4 1.728V673h-1.12v-4.56c0-.672-.197-1.211-.592-1.616-.384-.416-.88-.624-1.488-.624-.448 0-.858.112-1.232.336-.362.213-.65.512-.864.896-.202.384-.304.827-.304 1.328V673h-1.12v-7.68h1.12v1.12z" opacity=".7"/>
    <g>
      <path fill="#25272E" d="M21.32 626.2a3.4 3.4 0 011.68.42c.504.28.896.663 1.176 1.148.29.476.434 1.003.434 1.582 0 .579-.145 1.111-.434 1.596-.28.476-.672.854-1.176 1.134a3.4 3.4 0 01-1.68.42h-2.38v3.5H17.4v-9.8h3.92zm0 4.9a1.723 1.723 0 001.75-1.75c0-.495-.168-.91-.504-1.246a1.693 1.693 0 00-1.246-.504h-2.38v3.5h2.38zm6.029-.91c.186-.252.434-.467.742-.644a2.175 2.175 0 011.078-.266h.56v1.26h-.56c-.327 0-.63.089-.91.266-.28.168-.504.411-.672.728a2.227 2.227 0 00-.238 1.036V636h-1.4v-6.72h1.4v.91zm9.458 4.858c-.28.308-.667.569-1.162.784-.495.205-1.064.308-1.708.308a3.533 3.533 0 01-1.778-.462 3.4 3.4 0 01-1.26-1.26 3.532 3.532 0 01-.462-1.778c0-.644.154-1.232.462-1.764a3.433 3.433 0 011.246-1.26 3.258 3.258 0 011.722-.476c.625 0 1.185.145 1.68.434.504.28.896.672 1.176 1.176.29.495.434 1.055.434 1.68 0 .261-.023.495-.07.7h-5.18c.075.467.308.863.7 1.19.392.327.859.49 1.4.49.392 0 .756-.07 1.092-.21.345-.149.635-.327.868-.532l.84.98zm-1.12-3.108c-.112-.467-.327-.84-.644-1.12-.308-.28-.7-.42-1.176-.42-.504 0-.92.14-1.246.42-.327.271-.565.644-.714 1.12h3.78zm3.284 2.03c.205.252.462.467.77.644s.635.266.98.266c.364 0 .653-.084.868-.252.215-.168.322-.364.322-.588 0-.205-.103-.359-.308-.462-.196-.112-.523-.238-.98-.378a9.127 9.127 0 01-1.176-.42 2.25 2.25 0 01-.784-.616c-.215-.271-.322-.625-.322-1.064 0-.355.098-.681.294-.98.196-.299.48-.537.854-.714.373-.177.807-.266 1.302-.266.523 0 .99.089 1.4.266.42.177.747.392.98.644l-.91.91a1.979 1.979 0 00-.644-.392 2.01 2.01 0 00-.826-.168c-.327 0-.583.07-.77.21-.187.14-.28.303-.28.49 0 .205.098.364.294.476.205.103.537.224.994.364.476.14.863.28 1.162.42.308.14.57.345.784.616.224.271.336.625.336 1.064 0 .373-.107.723-.322 1.05-.205.317-.504.574-.896.77-.392.187-.85.28-1.372.28-.57 0-1.087-.121-1.554-.364a3.433 3.433 0 01-1.106-.896l.91-.91zm11.754.77c-.299.392-.7.723-1.204.994a3.41 3.41 0 01-1.666.406 3.533 3.533 0 01-1.778-.462 3.4 3.4 0 01-1.26-1.26 3.532 3.532 0 01-.462-1.778c0-.644.154-1.232.462-1.764a3.373 3.373 0 011.26-1.274 3.533 3.533 0 011.778-.462c.616 0 1.167.131 1.652.392.485.252.868.565 1.148.938l-.98.91a2.503 2.503 0 00-.77-.644 2.07 2.07 0 00-1.05-.266c-.392 0-.751.093-1.078.28a2.04 2.04 0 00-.756.784 2.28 2.28 0 00-.266 1.106c0 .411.089.784.266 1.12.187.327.439.583.756.77.327.187.686.28 1.078.28s.751-.093 1.078-.28a2.97 2.97 0 00.812-.7l.98.91zm2.723-4.55c.187-.252.434-.467.742-.644a2.175 2.175 0 011.078-.266h.56v1.26h-.56c-.326 0-.63.089-.91.266-.28.168-.504.411-.672.728a2.227 2.227 0 00-.238 1.036V636h-1.4v-6.72h1.4v.91zm3.575-3.01c0-.233.084-.429.252-.588a.837.837 0 01.588-.252.79.79 0 01.574.252.759.759 0 01.266.588.801.801 0 01-.266.602.812.812 0 01-.574.238.86.86 0 01-.588-.238.822.822 0 01-.252-.602zm1.54 2.1V636h-1.4v-6.72h1.4zm3.43.98c.215-.308.523-.569.924-.784.402-.224.864-.336 1.386-.336.56 0 1.078.154 1.554.462.486.299.873.714 1.162 1.246.29.532.434 1.129.434 1.792s-.144 1.26-.434 1.792c-.29.532-.676.952-1.162 1.26a2.866 2.866 0 01-1.554.448c-.522 0-.984-.107-1.386-.322-.401-.224-.71-.49-.924-.798v3.92h-1.4v-9.66h1.4v.98zm2.03 4.55c.374 0 .714-.093 1.022-.28.308-.187.55-.443.728-.77.187-.336.28-.709.28-1.12a2.19 2.19 0 00-.28-1.106 1.972 1.972 0 00-.728-.784 1.931 1.931 0 00-1.022-.28 1.93 1.93 0 00-1.022.28 2.073 2.073 0 00-.742.784 2.28 2.28 0 00-.266 1.106c0 .411.089.784.266 1.12a2.1 2.1 0 00.742.77c.308.187.649.28 1.022.28zm4.405-5.53h1.26v-2.24h1.4v2.24h1.75v1.33h-1.75v3.15c0 .336.08.574.238.714.159.131.406.196.742.196h.77V636h-1.05c-1.4 0-2.1-.7-2.1-2.1v-3.29h-1.26v-1.33zm6.013-2.1c0-.233.084-.429.252-.588a.837.837 0 01.588-.252.79.79 0 01.574.252.759.759 0 01.266.588.801.801 0 01-.266.602.812.812 0 01-.574.238.86.86 0 01-.588-.238.822.822 0 01-.252-.602zm1.54 2.1V636h-1.4v-6.72h1.4zm1.61 3.36c0-.644.154-1.232.462-1.764a3.373 3.373 0 011.26-1.274 3.533 3.533 0 011.778-.462c.644 0 1.232.154 1.764.462.542.308.966.733 1.274 1.274.308.532.462 1.12.462 1.764 0 .644-.154 1.237-.462 1.778a3.37 3.37 0 01-1.274 1.26 3.457 3.457 0 01-1.764.462 3.533 3.533 0 01-1.778-.462 3.4 3.4 0 01-1.26-1.26 3.532 3.532 0 01-.462-1.778zm3.5 2.17c.392 0 .747-.093 1.064-.28.327-.187.579-.443.756-.77.187-.336.28-.709.28-1.12a2.19 2.19 0 00-.28-1.106 1.915 1.915 0 00-.756-.784 2.056 2.056 0 00-1.064-.28c-.392 0-.751.093-1.078.28-.317.187-.57.448-.756.784a2.28 2.28 0 00-.266 1.106c0 .411.089.784.266 1.12.187.327.439.583.756.77.327.187.686.28 1.078.28zm6.441-4.55c.215-.308.504-.569.868-.784a2.303 2.303 0 011.232-.336c.514 0 .971.121 1.372.364.402.233.714.574.938 1.022.234.439.35.957.35 1.554V636h-1.4v-3.92c0-.485-.144-.873-.434-1.162-.28-.299-.648-.448-1.106-.448-.532 0-.97.177-1.316.532-.336.345-.504.798-.504 1.358V636h-1.4v-6.72h1.4v.98z"/>
    </g>
    <g>
      <path fill="#CDCED1" d="M346.912 674.032a1.327 1.327 0 01-1.876 1.878l-4.111-4.104a6.583 6.583 0 01-7.938-.508 6.6 6.6 0 01-2.166-3.739 6.617 6.617 0 01.609-4.279 6.595 6.595 0 013.123-2.984 6.59 6.59 0 017.925 1.932 6.605 6.605 0 011.403 4.087 6.474 6.474 0 01-1.08 3.6l4.111 4.117zm-6.348-9.898a3.916 3.916 0 00-6.028-.601 3.932 3.932 0 00.581 6.041 3.917 3.917 0 002.174.668h.013a3.909 3.909 0 003.92-3.927 3.93 3.93 0 00-.66-2.181z"/>
    </g>
    <g style="mix-blend-mode:multiply">
      <rect width="80" height="40" x="279" y="718" fill="#F1F3F5" rx="20" style="mix-blend-mode:multiply"/>
      <path fill="#25272E" d="M305.164 740.28c.278.352.656.656 1.136.912.48.245 1.035.368 1.664.368.694 0 1.238-.16 1.632-.48.406-.331.608-.731.608-1.2 0-.341-.106-.619-.32-.832a2.176 2.176 0 00-.784-.512 11.004 11.004 0 00-1.296-.416c-.757-.224-1.365-.437-1.824-.64a3.274 3.274 0 01-1.2-.976c-.33-.437-.496-1.019-.496-1.744 0-.565.155-1.083.464-1.552.31-.48.752-.859 1.328-1.136.587-.288 1.27-.432 2.048-.432.758 0 1.44.139 2.048.416.619.277 1.11.619 1.472 1.024l-1.2 1.2a3.047 3.047 0 00-.976-.736 2.892 2.892 0 00-1.344-.304c-.65 0-1.162.149-1.536.448-.362.288-.544.645-.544 1.072 0 .341.102.619.304.832.214.213.475.384.784.512.32.128.758.267 1.312.416.758.224 1.366.443 1.824.656.459.203.854.523 1.184.96.342.437.512 1.019.512 1.744 0 .587-.165 1.131-.496 1.632-.32.501-.784.901-1.392 1.2-.608.299-1.312.448-2.112.448-.885 0-1.674-.16-2.368-.48-.693-.331-1.237-.731-1.632-1.2l1.2-1.2zm10.245-8.48v7.04l3.28-3.52h2l-2.96 3.12 3.2 4.56h-1.84l-2.4-3.44-1.28 1.36V743h-1.6v-11.2h1.6zm6.553 1.12c0-.267.096-.491.288-.672.203-.192.427-.288.672-.288.245 0 .464.096.656.288a.864.864 0 01.304.672.913.913 0 01-.304.688.931.931 0 01-.656.272.988.988 0 01-.672-.272.938.938 0 01-.288-.688zm1.76 2.4V743h-1.6v-7.68h1.6zm3.92 1.12c.245-.352.597-.651 1.056-.896.459-.256.987-.384 1.584-.384.64 0 1.232.176 1.776.528.555.341.997.816 1.328 1.424.331.608.496 1.291.496 2.048 0 .757-.165 1.44-.496 2.048a3.844 3.844 0 01-1.328 1.44 3.281 3.281 0 01-1.776.512c-.597 0-1.125-.123-1.584-.368-.459-.256-.811-.56-1.056-.912v4.48h-1.6v-11.04h1.6v1.12zm2.32 5.2c.427 0 .816-.107 1.168-.32.352-.213.629-.507.832-.88.213-.384.32-.811.32-1.28s-.107-.891-.32-1.264a2.251 2.251 0 00-.832-.896 2.212 2.212 0 00-1.168-.32c-.427 0-.816.107-1.168.32a2.362 2.362 0 00-.848.896 2.602 2.602 0 00-.304 1.264c0 .469.101.896.304 1.28.213.373.496.667.848.88.352.213.741.32 1.168.32z"/>
    </g>
    <g filter="url(#filter1_b)">
      <path fill="#fff" fill-opacity=".95" d="M0 0h375v88H0z"/>
      <path stroke="#000" d="M338.663 17.799h16.666c1.196 0 2.167.97 2.167 2.166v5.979a2.167 2.167 0 01-2.167 2.167h-16.666a2.167 2.167 0 01-2.167-2.167v-5.979c0-1.196.97-2.166 2.167-2.166z" opacity=".35"/>
      <path fill="#000" d="M358.996 20.959v3.992a2.167 2.167 0 001.328-1.996c0-.871-.524-1.658-1.328-1.996" opacity=".4"/>
      <path fill="#000" d="M337.996 20.628c0-.736.597-1.333 1.333-1.333h15.333c.737 0 1.334.597 1.334 1.333v4.653c0 .736-.597 1.333-1.334 1.333h-15.333a1.333 1.333 0 01-1.333-1.333v-4.653z"/>
      <path fill="#000" fill-rule="evenodd" d="M323.327 19.57c2.216 0 4.347.85 5.953 2.374a.308.308 0 00.433-.004l1.156-1.164a.32.32 0 00-.003-.455c-4.215-4.032-10.864-4.032-15.079 0a.32.32 0 00-.003.455l1.156 1.164c.119.12.312.121.433.004a8.65 8.65 0 015.954-2.374zm0 3.788c1.217 0 2.391.452 3.294 1.268a.31.31 0 00.433-.006l1.155-1.165a.32.32 0 00.093-.23.318.318 0 00-.098-.228 7.169 7.169 0 00-9.752 0 .32.32 0 00-.004.458l1.154 1.165a.31.31 0 00.433.006 4.912 4.912 0 013.292-1.268zm2.313 2.55a.311.311 0 01-.094.23l-1.997 2.011a.314.314 0 01-.444 0l-1.997-2.012a.312.312 0 01.009-.456 3.426 3.426 0 014.419 0c.065.058.102.14.104.226zM309.663 17.633h-1a1 1 0 00-1 .998v8.65a1 1 0 001 .998h1c.553 0 1-.447 1-.998v-8.65a.999.999 0 00-1-.998zm-5.666 2.329h1a1 1 0 011 .998v6.321a1 1 0 01-1 .998h-1a1 1 0 01-1-.998V20.96a1 1 0 011-.998zm-3.667 2.329h-1a1 1 0 00-1 .998v3.992a1 1 0 001 .998h1c.553 0 1-.447 1-.998V23.29a.999.999 0 00-1-.998zm-4.666 1.996h-1a1 1 0 00-1 .998v1.996a1 1 0 001 .998h1a1 1 0 001-.998v-1.996a1 1 0 00-1-.998z" clip-rule="evenodd"/>
      <g>
        <path fill="#000" d="M33.164 20.495v.029h1.773v-.03c0-1.076.747-1.801 1.853-1.801 1.04 0 1.802.674 1.802 1.604 0 .747-.36 1.296-1.802 2.761l-3.523 3.604v1.31h7.339V26.37h-4.747v-.125l2.212-2.22c1.795-1.772 2.373-2.71 2.373-3.844 0-1.765-1.508-3.04-3.596-3.04-2.168 0-3.684 1.377-3.684 3.355zm10.613 6.357c.696 0 1.172-.498 1.172-1.157 0-.667-.476-1.157-1.172-1.157-.688 0-1.172.49-1.172 1.157 0 .659.484 1.157 1.172 1.157zm0-5.493c.696 0 1.172-.49 1.172-1.15 0-.666-.476-1.157-1.172-1.157-.688 0-1.172.49-1.172 1.157 0 .66.484 1.15 1.172 1.15zm7.083 6.877c2.527 0 4.029-2.05 4.029-5.544 0-3.508-1.524-5.552-4.029-5.552-2.512 0-4.035 2.044-4.035 5.537 0 3.509 1.501 5.56 4.035 5.56zm0-1.567c-1.34 0-2.124-1.392-2.124-3.992 0-2.578.798-3.962 2.124-3.962s2.117 1.377 2.117 3.962c0 2.6-.776 3.992-2.117 3.992zm5.962 1.304H58.8l4.519-8.958v-1.611h-7.354v1.59h5.45v.116l-4.593 8.863z"/>
      </g>
      <g>
        <path fill="#25272E" d="M351 75.5a9.5 9.5 0 009.5-9.5 9.5 9.5 0 00-9.5-9.5 9.5 9.5 0 00-9.5 9.5 9.5 9.5 0 009.5 9.5zm0 1.5c-6.075 0-11-4.925-11-11s4.925-11 11-11 11 4.925 11 11-4.925 11-11 11z"/>
        <path fill="#25272E" d="M349.81 67.573c0-2.03 2.38-2.03 2.38-3.52a1.136 1.136 0 00-.807-1.008 1.14 1.14 0 00-.453-.042 1.719 1.719 0 00-1.68 1.15l-1.75-.77a3.56 3.56 0 013.5-2.38c2.07 0 3.36 1.32 3.36 2.79 0 2.59-2.52 2.59-2.52 4.41h-1.89a2.067 2.067 0 01-.14-.63zm-.14 2.52a1.085 1.085 0 01.33-.782 1.083 1.083 0 01.79-.308 1.119 1.119 0 11-1.12 1.09z"/>
        <g>
          <path fill="#25272E" fill-rule="evenodd" d="M27.002 57.36l-8.157 7.831c-.46.44-.46 1.176 0 1.619l8.157 7.83a1.292 1.292 0 101.79-1.865l-6.832-6.559a.299.299 0 010-.433l6.833-6.56a1.293 1.293 0 00-1.79-1.864z" clip-rule="evenodd"/>
        </g>
      </g>
      <g>
        <circle cx="141.5" cy="63.5" r="2.5" fill="#03948C"/>
        <circle cx="154.5" cy="63.5" r="2.5" fill="#03948C"/>
        <circle cx="167.5" cy="63.5" r="2.5" fill="#03948C"/>
        <circle cx="180.5" cy="63.5" r="2.5" fill="#03948C"/>
        <circle cx="193.5" cy="63.5" r="2.5" fill="#03948C"/>
        <circle cx="206.5" cy="63.5" r="2.5" fill="#03948C"/>
        <circle cx="219.5" cy="63.5" r="4" fill="#03948C"/>
        <circle cx="232.5" cy="63.5" r="2.5" fill="#CEE1E5"/>
      </g>
    </g>
    <g>
      <path fill="#000" fill-rule="evenodd" d="M121 800.5a2.5 2.5 0 012.5-2.5h129a2.5 2.5 0 110 5h-129a2.5 2.5 0 01-2.5-2.5z" clip-rule="evenodd"/>
    </g>
  </g>
  <defs>
    <filter id="filter0_d" width="447" height="298" x="-36" y="550" color-interpolation-filters="sRGB" filterUnits="userSpaceOnUse">
      <feFlood flood-opacity="0" result="BackgroundImageFix"/>
      <feColorMatrix in="SourceAlpha" values="0 0 0 0 0 0 0 0 0 0 0 0 0 0 0 0 0 0 127 0"/>
      <feMorphology in="SourceAlpha" operator="dilate" radius="4" result="effect1_dropShadow"/>
      <feOffset/>
      <feGaussianBlur stdDeviation="16"/>
      <feColorMatrix values="0 0 0 0 0.4056 0 0 0 0 0.500104 0 0 0 0 0.52 0 0 0 0.12 0"/>
      <feBlend in2="BackgroundImageFix" mode="multiply" result="effect1_dropShadow"/>
      <feBlend in="SourceGraphic" in2="effect1_dropShadow" result="shape"/>
    </filter>
    <filter id="filter1_b" width="407" height="120" x="-16" y="-16" color-interpolation-filters="sRGB" filterUnits="userSpaceOnUse">
      <feFlood flood-opacity="0" result="BackgroundImageFix"/>
      <feGaussianBlur in="BackgroundImage" stdDeviation="8"/>
      <feComposite in2="SourceAlpha" operator="in" result="effect1_backgroundBlur"/>
      <feBlend in="SourceGraphic" in2="effect1_backgroundBlur" result="shape"/>
    </filter>
    <linearGradient id="paint0_linear" x1="111.5" x2="254.217" y1="117.45" y2="702.732" gradientUnits="userSpaceOnUse">
      <stop stop-color="#E4F0F0" stop-opacity="0"/>
      <stop offset="1" stop-color="#E4F0F0"/>
    </linearGradient>
    <clipPath id="clip0">
      <path fill="#fff" d="M0 0h375v812H0z"/>
    </clipPath>
  </defs>
</svg>
