<svg width="375" height="812" viewBox="0 0 375 812" fill="none" xmlns="http://www.w3.org/2000/svg">
<g clip-path="url(#clip0)">
<rect width="375" height="812" fill="white"/>
<rect y="98" width="375" height="621" fill="url(#paint0_linear)"/>
<path d="M24.9 504L30.3 518H27.1L25.9 514.8H20.5L19.3 518H16.1L21.5 504H24.9ZM23.24 507.5H23.16L21.5 512.1H24.9L23.24 507.5ZM34.3945 509.3H34.4945C34.6812 508.993 34.9812 508.733 35.3945 508.52C35.8079 508.307 36.3279 508.2 36.9545 508.2H37.5945V510.8H36.6945C36.0279 510.8 35.4745 511.04 35.0345 511.52C34.6079 511.987 34.3945 512.613 34.3945 513.4V518H31.6945V508.2H34.3945V509.3ZM47.8969 517.06C47.4435 517.38 46.8502 517.653 46.1169 517.88C45.3835 518.093 44.5769 518.2 43.6969 518.2C42.7502 518.2 41.8769 517.973 41.0769 517.52C40.2769 517.053 39.6435 516.433 39.1769 515.66C38.7235 514.873 38.4969 514.02 38.4969 513.1C38.4969 512.18 38.7235 511.333 39.1769 510.56C39.6435 509.773 40.2635 509.153 41.0369 508.7C41.8235 508.233 42.6769 508 43.5969 508C44.4769 508 45.2902 508.22 46.0369 508.66C46.7969 509.1 47.3969 509.7 47.8369 510.46C48.2769 511.207 48.4969 512.02 48.4969 512.9C48.4969 513.34 48.4635 513.74 48.3969 514.1H41.2969C41.4569 514.593 41.7502 515 42.1769 515.32C42.6169 515.64 43.1902 515.8 43.8969 515.8C44.4569 515.8 44.9569 515.74 45.3969 515.62C45.8502 515.487 46.2169 515.333 46.4969 515.16L47.8969 517.06ZM45.6969 512.1C45.5369 511.62 45.2569 511.22 44.8569 510.9C44.4702 510.567 44.0169 510.4 43.4969 510.4C42.9769 510.4 42.5169 510.567 42.1169 510.9C41.7302 511.22 41.4569 511.62 41.2969 512.1H45.6969ZM54.2125 508.4H55.9125V505.4H58.6125V508.4H61.0125V510.9H58.6125V514.28C58.6125 514.72 58.7258 515.047 58.9525 515.26C59.1792 515.473 59.4992 515.58 59.9125 515.58H61.0125V518H59.2125C58.1858 518 57.3792 517.713 56.7925 517.14C56.2058 516.567 55.9125 515.72 55.9125 514.6V510.9H54.2125V508.4ZM65.9203 509.6H66.0203C66.327 509.16 66.727 508.787 67.2203 508.48C67.727 508.16 68.2936 508 68.9203 508C69.587 508 70.1936 508.173 70.7403 508.52C71.287 508.853 71.7203 509.333 72.0403 509.96C72.3603 510.573 72.5203 511.287 72.5203 512.1V518H69.8203V512.5C69.8203 511.9 69.6603 511.433 69.3403 511.1C69.0203 510.767 68.5803 510.6 68.0203 510.6C67.4203 510.6 66.9203 510.807 66.5203 511.22C66.1203 511.633 65.9203 512.16 65.9203 512.8V518H63.2203V504H65.9203V509.6ZM83.9125 517.06C83.4592 517.38 82.8658 517.653 82.1325 517.88C81.3992 518.093 80.5925 518.2 79.7125 518.2C78.7658 518.2 77.8925 517.973 77.0925 517.52C76.2925 517.053 75.6592 516.433 75.1925 515.66C74.7392 514.873 74.5125 514.02 74.5125 513.1C74.5125 512.18 74.7392 511.333 75.1925 510.56C75.6592 509.773 76.2792 509.153 77.0525 508.7C77.8392 508.233 78.6925 508 79.6125 508C80.4925 508 81.3058 508.22 82.0525 508.66C82.8125 509.1 83.4125 509.7 83.8525 510.46C84.2925 511.207 84.5125 512.02 84.5125 512.9C84.5125 513.34 84.4792 513.74 84.4125 514.1H77.3125C77.4725 514.593 77.7658 515 78.1925 515.32C78.6325 515.64 79.2058 515.8 79.9125 515.8C80.4725 515.8 80.9725 515.74 81.4125 515.62C81.8658 515.487 82.2325 515.333 82.5125 515.16L83.9125 517.06ZM81.7125 512.1C81.5525 511.62 81.2725 511.22 80.8725 510.9C80.4858 510.567 80.0325 510.4 79.5125 510.4C78.9925 510.4 78.5325 510.567 78.1325 510.9C77.7458 511.22 77.4725 511.62 77.3125 512.1H81.7125ZM89.2188 509.3H89.3188C89.5054 508.993 89.8054 508.733 90.2188 508.52C90.6321 508.307 91.1521 508.2 91.7788 508.2H92.4188V510.8H91.5188C90.8521 510.8 90.2988 511.04 89.8588 511.52C89.4321 511.987 89.2188 512.613 89.2188 513.4V518H86.5188V508.2H89.2188V509.3ZM102.721 517.06C102.268 517.38 101.674 517.653 100.941 517.88C100.208 518.093 99.4011 518.2 98.5211 518.2C97.5744 518.2 96.7011 517.973 95.9011 517.52C95.1011 517.053 94.4678 516.433 94.0011 515.66C93.5478 514.873 93.3211 514.02 93.3211 513.1C93.3211 512.18 93.5478 511.333 94.0011 510.56C94.4678 509.773 95.0878 509.153 95.8611 508.7C96.6478 508.233 97.5011 508 98.4211 508C99.3011 508 100.114 508.22 100.861 508.66C101.621 509.1 102.221 509.7 102.661 510.46C103.101 511.207 103.321 512.02 103.321 512.9C103.321 513.34 103.288 513.74 103.221 514.1H96.1211C96.2811 514.593 96.5744 515 97.0011 515.32C97.4411 515.64 98.0144 515.8 98.7211 515.8C99.2811 515.8 99.7811 515.74 100.221 515.62C100.674 515.487 101.041 515.333 101.321 515.16L102.721 517.06ZM100.521 512.1C100.361 511.62 100.081 511.22 99.6811 510.9C99.2944 510.567 98.8411 510.4 98.3211 510.4C97.8011 510.4 97.3411 510.567 96.9411 510.9C96.5544 511.22 96.2811 511.62 96.1211 512.1H100.521ZM112.637 509.6H112.737C113.043 509.16 113.463 508.787 113.997 508.48C114.53 508.16 115.143 508 115.837 508C116.61 508 117.33 508.22 117.997 508.66C118.677 509.1 119.217 509.707 119.617 510.48C120.03 511.253 120.237 512.127 120.237 513.1C120.237 514.073 120.03 514.947 119.617 515.72C119.217 516.493 118.677 517.1 117.997 517.54C117.33 517.98 116.61 518.2 115.837 518.2C115.143 518.2 114.53 518.047 113.997 517.74C113.463 517.42 113.043 517.04 112.737 516.6H112.637V522.2H109.937V508.2H112.637V509.6ZM115.037 515.7C115.743 515.7 116.337 515.453 116.817 514.96C117.297 514.467 117.537 513.847 117.537 513.1C117.537 512.353 117.297 511.733 116.817 511.24C116.337 510.747 115.743 510.5 115.037 510.5C114.33 510.5 113.737 510.747 113.257 511.24C112.777 511.733 112.537 512.353 112.537 513.1C112.537 513.847 112.777 514.467 113.257 514.96C113.737 515.453 114.33 515.7 115.037 515.7ZM124.941 509.3H125.041C125.228 508.993 125.528 508.733 125.941 508.52C126.355 508.307 126.875 508.2 127.501 508.2H128.141V510.8H127.241C126.575 510.8 126.021 511.04 125.581 511.52C125.155 511.987 124.941 512.613 124.941 513.4V518H122.241V508.2H124.941V509.3ZM138.444 517.06C137.99 517.38 137.397 517.653 136.664 517.88C135.93 518.093 135.124 518.2 134.244 518.2C133.297 518.2 132.424 517.973 131.624 517.52C130.824 517.053 130.19 516.433 129.724 515.66C129.27 514.873 129.044 514.02 129.044 513.1C129.044 512.18 129.27 511.333 129.724 510.56C130.19 509.773 130.81 509.153 131.584 508.7C132.37 508.233 133.224 508 134.144 508C135.024 508 135.837 508.22 136.584 508.66C137.344 509.1 137.944 509.7 138.384 510.46C138.824 511.207 139.044 512.02 139.044 512.9C139.044 513.34 139.01 513.74 138.944 514.1H131.844C132.004 514.593 132.297 515 132.724 515.32C133.164 515.64 133.737 515.8 134.444 515.8C135.004 515.8 135.504 515.74 135.944 515.62C136.397 515.487 136.764 515.333 137.044 515.16L138.444 517.06ZM136.244 512.1C136.084 511.62 135.804 511.22 135.404 510.9C135.017 510.567 134.564 510.4 134.044 510.4C133.524 510.4 133.064 510.567 132.664 510.9C132.277 511.22 132.004 511.62 131.844 512.1H136.244ZM141.65 514.7C141.957 515.007 142.337 515.267 142.79 515.48C143.243 515.693 143.73 515.8 144.25 515.8C145.05 515.8 145.45 515.567 145.45 515.1C145.45 514.913 145.323 514.76 145.07 514.64C144.83 514.507 144.443 514.353 143.91 514.18C143.217 513.94 142.637 513.713 142.17 513.5C141.703 513.273 141.297 512.96 140.95 512.56C140.617 512.147 140.45 511.627 140.45 511C140.45 510.453 140.603 509.953 140.91 509.5C141.217 509.047 141.663 508.687 142.25 508.42C142.85 508.14 143.55 508 144.35 508C145.163 508 145.897 508.147 146.55 508.44C147.217 508.733 147.75 509.087 148.15 509.5L146.55 511.2C146.31 510.973 145.997 510.787 145.61 510.64C145.223 510.48 144.803 510.4 144.35 510.4C144.017 510.4 143.763 510.46 143.59 510.58C143.43 510.7 143.35 510.84 143.35 511C143.35 511.187 143.47 511.347 143.71 511.48C143.963 511.6 144.357 511.747 144.89 511.92C145.583 512.16 146.163 512.393 146.63 512.62C147.097 512.833 147.497 513.147 147.83 513.56C148.177 513.96 148.35 514.473 148.35 515.1C148.35 515.673 148.19 516.2 147.87 516.68C147.563 517.147 147.097 517.52 146.47 517.8C145.857 518.067 145.117 518.2 144.25 518.2C143.37 518.2 142.563 518.027 141.83 517.68C141.097 517.333 140.503 516.907 140.05 516.4L141.65 514.7ZM158.852 516.2C158.452 516.76 157.898 517.233 157.192 517.62C156.485 518.007 155.672 518.2 154.752 518.2C153.805 518.2 152.932 517.973 152.132 517.52C151.332 517.053 150.698 516.433 150.232 515.66C149.778 514.873 149.552 514.02 149.552 513.1C149.552 512.18 149.778 511.333 150.232 510.56C150.698 509.773 151.332 509.153 152.132 508.7C152.932 508.233 153.805 508 154.752 508C155.672 508 156.485 508.193 157.192 508.58C157.898 508.967 158.452 509.44 158.852 510L157.152 511.7C156.885 511.367 156.538 511.087 156.112 510.86C155.698 510.62 155.245 510.5 154.752 510.5C154.045 510.5 153.452 510.747 152.972 511.24C152.492 511.733 152.252 512.353 152.252 513.1C152.252 513.847 152.492 514.467 152.972 514.96C153.452 515.453 154.045 515.7 154.752 515.7C155.245 515.7 155.698 515.587 156.112 515.36C156.538 515.12 156.885 514.833 157.152 514.5L158.852 516.2ZM163.242 509.3H163.342C163.529 508.993 163.829 508.733 164.242 508.52C164.656 508.307 165.176 508.2 165.802 508.2H166.442V510.8H165.542C164.876 510.8 164.322 511.04 163.882 511.52C163.456 511.987 163.242 512.613 163.242 513.4V518H160.542V508.2H163.242V509.3ZM167.94 505.4C167.94 505 168.093 504.653 168.4 504.36C168.707 504.053 169.073 503.9 169.5 503.9C169.913 503.9 170.273 504.053 170.58 504.36C170.887 504.653 171.04 505 171.04 505.4C171.04 505.8 170.887 506.153 170.58 506.46C170.273 506.753 169.907 506.9 169.48 506.9C169.067 506.9 168.707 506.753 168.4 506.46C168.093 506.153 167.94 505.8 167.94 505.4ZM170.84 508.2V518H168.14V508.2H170.84ZM176.133 509.6H176.233C176.539 509.16 176.959 508.787 177.493 508.48C178.026 508.16 178.639 508 179.333 508C180.106 508 180.826 508.22 181.493 508.66C182.173 509.1 182.713 509.707 183.113 510.48C183.526 511.253 183.733 512.127 183.733 513.1C183.733 514.073 183.526 514.947 183.113 515.72C182.713 516.493 182.173 517.1 181.493 517.54C180.826 517.98 180.106 518.2 179.333 518.2C178.639 518.2 178.026 518.047 177.493 517.74C176.959 517.42 176.539 517.04 176.233 516.6H176.133V522.2H173.433V508.2H176.133V509.6ZM178.533 515.7C179.239 515.7 179.833 515.453 180.313 514.96C180.793 514.467 181.033 513.847 181.033 513.1C181.033 512.353 180.793 511.733 180.313 511.24C179.833 510.747 179.239 510.5 178.533 510.5C177.826 510.5 177.233 510.747 176.753 511.24C176.273 511.733 176.033 512.353 176.033 513.1C176.033 513.847 176.273 514.467 176.753 514.96C177.233 515.453 177.826 515.7 178.533 515.7ZM184.838 508.4H186.538V505.4H189.238V508.4H191.638V510.9H189.238V514.28C189.238 514.72 189.351 515.047 189.577 515.26C189.804 515.473 190.124 515.58 190.538 515.58H191.638V518H189.838C188.811 518 188.004 517.713 187.418 517.14C186.831 516.567 186.538 515.72 186.538 514.6V510.9H184.838V508.4ZM193.545 505.4C193.545 505 193.699 504.653 194.005 504.36C194.312 504.053 194.679 503.9 195.105 503.9C195.519 503.9 195.879 504.053 196.185 504.36C196.492 504.653 196.645 505 196.645 505.4C196.645 505.8 196.492 506.153 196.185 506.46C195.879 506.753 195.512 506.9 195.085 506.9C194.672 506.9 194.312 506.753 194.005 506.46C193.699 506.153 193.545 505.8 193.545 505.4ZM196.445 508.2V518H193.745V508.2H196.445ZM198.438 513.1C198.438 512.18 198.665 511.333 199.118 510.56C199.585 509.773 200.218 509.153 201.018 508.7C201.818 508.233 202.692 508 203.638 508C204.585 508 205.458 508.233 206.258 508.7C207.058 509.153 207.685 509.773 208.138 510.56C208.605 511.333 208.838 512.18 208.838 513.1C208.838 514.02 208.605 514.873 208.138 515.66C207.685 516.433 207.058 517.053 206.258 517.52C205.458 517.973 204.585 518.2 203.638 518.2C202.692 518.2 201.818 517.973 201.018 517.52C200.218 517.053 199.585 516.433 199.118 515.66C198.665 514.873 198.438 514.02 198.438 513.1ZM203.638 515.7C204.345 515.7 204.938 515.453 205.418 514.96C205.898 514.467 206.138 513.847 206.138 513.1C206.138 512.353 205.898 511.733 205.418 511.24C204.938 510.747 204.345 510.5 203.638 510.5C202.932 510.5 202.338 510.747 201.858 511.24C201.378 511.733 201.138 512.353 201.138 513.1C201.138 513.847 201.378 514.467 201.858 514.96C202.338 515.453 202.932 515.7 203.638 515.7ZM213.535 509.6H213.635C213.942 509.16 214.342 508.787 214.835 508.48C215.342 508.16 215.908 508 216.535 508C217.202 508 217.808 508.173 218.355 508.52C218.902 508.853 219.335 509.333 219.655 509.96C219.975 510.573 220.135 511.287 220.135 512.1V518H217.435V512.5C217.435 511.9 217.275 511.433 216.955 511.1C216.635 510.767 216.195 510.6 215.635 510.6C215.035 510.6 214.535 510.807 214.135 511.22C213.735 511.633 213.535 512.16 213.535 512.8V518H210.835V508.2H213.535V509.6ZM223.33 514.7C223.636 515.007 224.016 515.267 224.47 515.48C224.923 515.693 225.41 515.8 225.93 515.8C226.73 515.8 227.13 515.567 227.13 515.1C227.13 514.913 227.003 514.76 226.75 514.64C226.51 514.507 226.123 514.353 225.59 514.18C224.896 513.94 224.316 513.713 223.85 513.5C223.383 513.273 222.976 512.96 222.63 512.56C222.296 512.147 222.13 511.627 222.13 511C222.13 510.453 222.283 509.953 222.59 509.5C222.896 509.047 223.343 508.687 223.93 508.42C224.53 508.14 225.23 508 226.03 508C226.843 508 227.576 508.147 228.23 508.44C228.896 508.733 229.43 509.087 229.83 509.5L228.23 511.2C227.99 510.973 227.676 510.787 227.29 510.64C226.903 510.48 226.483 510.4 226.03 510.4C225.696 510.4 225.443 510.46 225.27 510.58C225.11 510.7 225.03 510.84 225.03 511C225.03 511.187 225.15 511.347 225.39 511.48C225.643 511.6 226.036 511.747 226.57 511.92C227.263 512.16 227.843 512.393 228.31 512.62C228.776 512.833 229.176 513.147 229.51 513.56C229.856 513.96 230.03 514.473 230.03 515.1C230.03 515.673 229.87 516.2 229.55 516.68C229.243 517.147 228.776 517.52 228.15 517.8C227.536 518.067 226.796 518.2 225.93 518.2C225.05 518.2 224.243 518.027 223.51 517.68C222.776 517.333 222.183 516.907 221.73 516.4L223.33 514.7ZM236.55 519.6C237.363 519.6 237.93 519.2 238.25 518.4L238.45 517.9L234.65 508.2H237.55L239.85 514.7H239.95L242.15 508.2H245.05L241.05 518.8C240.623 519.933 240.103 520.78 239.49 521.34C238.877 521.913 238.13 522.2 237.25 522.2H235.45V519.6H236.55ZM245.645 513.1C245.645 512.18 245.872 511.333 246.325 510.56C246.792 509.773 247.425 509.153 248.225 508.7C249.025 508.233 249.899 508 250.845 508C251.792 508 252.665 508.233 253.465 508.7C254.265 509.153 254.892 509.773 255.345 510.56C255.812 511.333 256.045 512.18 256.045 513.1C256.045 514.02 255.812 514.873 255.345 515.66C254.892 516.433 254.265 517.053 253.465 517.52C252.665 517.973 251.792 518.2 250.845 518.2C249.899 518.2 249.025 517.973 248.225 517.52C247.425 517.053 246.792 516.433 246.325 515.66C245.872 514.873 245.645 514.02 245.645 513.1ZM250.845 515.7C251.552 515.7 252.145 515.453 252.625 514.96C253.105 514.467 253.345 513.847 253.345 513.1C253.345 512.353 253.105 511.733 252.625 511.24C252.145 510.747 251.552 510.5 250.845 510.5C250.139 510.5 249.545 510.747 249.065 511.24C248.585 511.733 248.345 512.353 248.345 513.1C248.345 513.847 248.585 514.467 249.065 514.96C249.545 515.453 250.139 515.7 250.845 515.7ZM260.742 513.7C260.742 514.3 260.902 514.767 261.222 515.1C261.542 515.433 261.982 515.6 262.542 515.6C263.142 515.6 263.642 515.393 264.042 514.98C264.442 514.567 264.642 514.04 264.642 513.4V508.2H267.342V518H264.642V516.6H264.542C264.236 517.04 263.829 517.42 263.322 517.74C262.829 518.047 262.269 518.2 261.642 518.2C260.976 518.2 260.369 518.033 259.822 517.7C259.276 517.353 258.842 516.873 258.522 516.26C258.202 515.633 258.042 514.913 258.042 514.1V508.2H260.742V513.7ZM20 537.6H20.1C20.4067 537.16 20.8067 536.787 21.3 536.48C21.8067 536.16 22.3733 536 23 536C23.6667 536 24.2733 536.173 24.82 536.52C25.3667 536.853 25.8 537.333 26.12 537.96C26.44 538.573 26.6 539.287 26.6 540.1V546H23.9V540.5C23.9 539.9 23.74 539.433 23.42 539.1C23.1 538.767 22.66 538.6 22.1 538.6C21.5 538.6 21 538.807 20.6 539.22C20.2 539.633 20 540.16 20 540.8V546H17.3V536.2H20V537.6ZM37.9945 545.06C37.5412 545.38 36.9479 545.653 36.2145 545.88C35.4812 546.093 34.6745 546.2 33.7945 546.2C32.8479 546.2 31.9745 545.973 31.1745 545.52C30.3745 545.053 29.7412 544.433 29.2745 543.66C28.8212 542.873 28.5945 542.02 28.5945 541.1C28.5945 540.18 28.8212 539.333 29.2745 538.56C29.7412 537.773 30.3612 537.153 31.1345 536.7C31.9212 536.233 32.7745 536 33.6945 536C34.5745 536 35.3879 536.22 36.1345 536.66C36.8945 537.1 37.4945 537.7 37.9345 538.46C38.3745 539.207 38.5945 540.02 38.5945 540.9C38.5945 541.34 38.5612 541.74 38.4945 542.1H31.3945C31.5545 542.593 31.8479 543 32.2745 543.32C32.7145 543.64 33.2879 543.8 33.9945 543.8C34.5545 543.8 35.0545 543.74 35.4945 543.62C35.9479 543.487 36.3145 543.333 36.5945 543.16L37.9945 545.06ZM35.7945 540.1C35.6345 539.62 35.3545 539.22 34.9545 538.9C34.5679 538.567 34.1145 538.4 33.5945 538.4C33.0745 538.4 32.6145 538.567 32.2145 538.9C31.8279 539.22 31.5545 539.62 31.3945 540.1H35.7945ZM49.4008 545.06C48.9474 545.38 48.3541 545.653 47.6208 545.88C46.8874 546.093 46.0808 546.2 45.2008 546.2C44.2541 546.2 43.3808 545.973 42.5808 545.52C41.7808 545.053 41.1474 544.433 40.6808 543.66C40.2274 542.873 40.0008 542.02 40.0008 541.1C40.0008 540.18 40.2274 539.333 40.6808 538.56C41.1474 537.773 41.7674 537.153 42.5408 536.7C43.3274 536.233 44.1808 536 45.1008 536C45.9808 536 46.7941 536.22 47.5408 536.66C48.3008 537.1 48.9008 537.7 49.3408 538.46C49.7808 539.207 50.0008 540.02 50.0008 540.9C50.0008 541.34 49.9674 541.74 49.9008 542.1H42.8008C42.9608 542.593 43.2541 543 43.6808 543.32C44.1208 543.64 44.6941 543.8 45.4008 543.8C45.9608 543.8 46.4608 543.74 46.9008 543.62C47.3541 543.487 47.7208 543.333 48.0008 543.16L49.4008 545.06ZM47.2008 540.1C47.0408 539.62 46.7608 539.22 46.3608 538.9C45.9741 538.567 45.5208 538.4 45.0008 538.4C44.4808 538.4 44.0208 538.567 43.6208 538.9C43.2341 539.22 42.9608 539.62 42.8008 540.1H47.2008ZM58.907 544.6C58.6004 545.04 58.1804 545.42 57.647 545.74C57.1137 546.047 56.5004 546.2 55.807 546.2C55.0337 546.2 54.307 545.98 53.627 545.54C52.9604 545.1 52.4204 544.493 52.007 543.72C51.607 542.947 51.407 542.073 51.407 541.1C51.407 540.127 51.607 539.253 52.007 538.48C52.4204 537.707 52.9604 537.1 53.627 536.66C54.307 536.22 55.0337 536 55.807 536C56.5004 536 57.1137 536.16 57.647 536.48C58.1804 536.787 58.6004 537.16 58.907 537.6H59.007V532H61.707V546H59.007V544.6H58.907ZM56.607 543.7C57.3137 543.7 57.907 543.453 58.387 542.96C58.867 542.467 59.107 541.847 59.107 541.1C59.107 540.353 58.867 539.733 58.387 539.24C57.907 538.747 57.3137 538.5 56.607 538.5C55.9004 538.5 55.307 538.747 54.827 539.24C54.347 539.733 54.107 540.353 54.107 541.1C54.107 541.847 54.347 542.467 54.827 542.96C55.307 543.453 55.9004 543.7 56.607 543.7ZM77.7188 544.2C77.3188 544.76 76.7654 545.233 76.0588 545.62C75.3521 546.007 74.5388 546.2 73.6188 546.2C72.6721 546.2 71.7988 545.973 70.9988 545.52C70.1988 545.053 69.5654 544.433 69.0988 543.66C68.6454 542.873 68.4188 542.02 68.4188 541.1C68.4188 540.18 68.6454 539.333 69.0988 538.56C69.5654 537.773 70.1988 537.153 70.9988 536.7C71.7988 536.233 72.6721 536 73.6188 536C74.5388 536 75.3521 536.193 76.0588 536.58C76.7654 536.967 77.3188 537.44 77.7188 538L76.0188 539.7C75.7521 539.367 75.4054 539.087 74.9788 538.86C74.5654 538.62 74.1121 538.5 73.6188 538.5C72.9121 538.5 72.3188 538.747 71.8388 539.24C71.3588 539.733 71.1188 540.353 71.1188 541.1C71.1188 541.847 71.3588 542.467 71.8388 542.96C72.3188 543.453 72.9121 543.7 73.6188 543.7C74.1121 543.7 74.5654 543.587 74.9788 543.36C75.4054 543.12 75.7521 542.833 76.0188 542.5L77.7188 544.2ZM78.6141 541.1C78.6141 540.18 78.8407 539.333 79.2941 538.56C79.7607 537.773 80.3941 537.153 81.1941 536.7C81.9941 536.233 82.8674 536 83.8141 536C84.7607 536 85.6341 536.233 86.4341 536.7C87.2341 537.153 87.8607 537.773 88.3141 538.56C88.7807 539.333 89.0141 540.18 89.0141 541.1C89.0141 542.02 88.7807 542.873 88.3141 543.66C87.8607 544.433 87.2341 545.053 86.4341 545.52C85.6341 545.973 84.7607 546.2 83.8141 546.2C82.8674 546.2 81.9941 545.973 81.1941 545.52C80.3941 545.053 79.7607 544.433 79.2941 543.66C78.8407 542.873 78.6141 542.02 78.6141 541.1ZM83.8141 543.7C84.5207 543.7 85.1141 543.453 85.5941 542.96C86.0741 542.467 86.3141 541.847 86.3141 541.1C86.3141 540.353 86.0741 539.733 85.5941 539.24C85.1141 538.747 84.5207 538.5 83.8141 538.5C83.1074 538.5 82.5141 538.747 82.0341 539.24C81.5541 539.733 81.3141 540.353 81.3141 541.1C81.3141 541.847 81.5541 542.467 82.0341 542.96C82.5141 543.453 83.1074 543.7 83.8141 543.7ZM92.5109 536.2L94.7709 542.8H94.8509L97.1109 536.2H100.011L96.3109 546H93.3109L89.6109 536.2H92.5109ZM110.006 545.06C109.553 545.38 108.96 545.653 108.226 545.88C107.493 546.093 106.686 546.2 105.806 546.2C104.86 546.2 103.986 545.973 103.186 545.52C102.386 545.053 101.753 544.433 101.286 543.66C100.833 542.873 100.606 542.02 100.606 541.1C100.606 540.18 100.833 539.333 101.286 538.56C101.753 537.773 102.373 537.153 103.146 536.7C103.933 536.233 104.786 536 105.706 536C106.586 536 107.4 536.22 108.146 536.66C108.906 537.1 109.506 537.7 109.946 538.46C110.386 539.207 110.606 540.02 110.606 540.9C110.606 541.34 110.573 541.74 110.506 542.1H103.406C103.566 542.593 103.86 543 104.286 543.32C104.726 543.64 105.3 543.8 106.006 543.8C106.566 543.8 107.066 543.74 107.506 543.62C107.96 543.487 108.326 543.333 108.606 543.16L110.006 545.06ZM107.806 540.1C107.646 539.62 107.366 539.22 106.966 538.9C106.58 538.567 106.126 538.4 105.606 538.4C105.086 538.4 104.626 538.567 104.226 538.9C103.84 539.22 103.566 539.62 103.406 540.1H107.806ZM115.313 537.3H115.413C115.599 536.993 115.899 536.733 116.312 536.52C116.726 536.307 117.246 536.2 117.873 536.2H118.513V538.8H117.613C116.946 538.8 116.393 539.04 115.953 539.52C115.526 539.987 115.313 540.613 115.313 541.4V546H112.613V536.2H115.313V537.3ZM128.815 545.06C128.362 545.38 127.768 545.653 127.035 545.88C126.302 546.093 125.495 546.2 124.615 546.2C123.668 546.2 122.795 545.973 121.995 545.52C121.195 545.053 120.562 544.433 120.095 543.66C119.642 542.873 119.415 542.02 119.415 541.1C119.415 540.18 119.642 539.333 120.095 538.56C120.562 537.773 121.182 537.153 121.955 536.7C122.742 536.233 123.595 536 124.515 536C125.395 536 126.208 536.22 126.955 536.66C127.715 537.1 128.315 537.7 128.755 538.46C129.195 539.207 129.415 540.02 129.415 540.9C129.415 541.34 129.382 541.74 129.315 542.1H122.215C122.375 542.593 122.668 543 123.095 543.32C123.535 543.64 124.108 543.8 124.815 543.8C125.375 543.8 125.875 543.74 126.315 543.62C126.768 543.487 127.135 543.333 127.415 543.16L128.815 545.06ZM126.615 540.1C126.455 539.62 126.175 539.22 125.775 538.9C125.388 538.567 124.935 538.4 124.415 538.4C123.895 538.4 123.435 538.567 123.035 538.9C122.648 539.22 122.375 539.62 122.215 540.1H126.615ZM138.321 544.6C138.014 545.04 137.594 545.42 137.061 545.74C136.528 546.047 135.914 546.2 135.221 546.2C134.448 546.2 133.721 545.98 133.041 545.54C132.374 545.1 131.834 544.493 131.421 543.72C131.021 542.947 130.821 542.073 130.821 541.1C130.821 540.127 131.021 539.253 131.421 538.48C131.834 537.707 132.374 537.1 133.041 536.66C133.721 536.22 134.448 536 135.221 536C135.914 536 136.528 536.16 137.061 536.48C137.594 536.787 138.014 537.16 138.321 537.6H138.421V532H141.121V546H138.421V544.6H138.321ZM136.021 543.7C136.728 543.7 137.321 543.453 137.801 542.96C138.281 542.467 138.521 541.847 138.521 541.1C138.521 540.353 138.281 539.733 137.801 539.24C137.321 538.747 136.728 538.5 136.021 538.5C135.314 538.5 134.721 538.747 134.241 539.24C133.761 539.733 133.521 540.353 133.521 541.1C133.521 541.847 133.761 542.467 134.241 542.96C134.721 543.453 135.314 543.7 136.021 543.7ZM146.323 541.7C146.19 541.42 146.123 541.12 146.123 540.8C146.123 540.133 146.303 539.587 146.663 539.16C147.023 538.72 147.537 538.267 148.203 537.8C148.697 537.453 149.057 537.16 149.283 536.92C149.51 536.68 149.623 536.407 149.623 536.1C149.623 535.727 149.457 535.4 149.123 535.12C148.79 534.84 148.357 534.7 147.823 534.7C147.237 534.7 146.73 534.86 146.303 535.18C145.877 535.487 145.55 535.86 145.323 536.3L142.723 535.1C143.083 534.18 143.697 533.4 144.563 532.76C145.43 532.12 146.517 531.8 147.823 531.8C148.823 531.8 149.703 531.987 150.463 532.36C151.223 532.733 151.803 533.233 152.203 533.86C152.617 534.487 152.823 535.167 152.823 535.9C152.823 536.473 152.717 536.973 152.503 537.4C152.303 537.813 152.057 538.16 151.763 538.44C151.47 538.707 151.09 539.013 150.623 539.36C150.05 539.773 149.623 540.147 149.343 540.48C149.063 540.8 148.923 541.207 148.923 541.7H146.323ZM145.923 544.6C145.923 544.147 146.077 543.767 146.383 543.46C146.69 543.153 147.07 543 147.523 543C147.977 543 148.357 543.153 148.663 543.46C148.97 543.767 149.123 544.147 149.123 544.6C149.123 545.053 148.97 545.433 148.663 545.74C148.357 546.047 147.977 546.2 147.523 546.2C147.07 546.2 146.69 546.047 146.383 545.74C146.077 545.433 145.923 545.053 145.923 544.6Z" fill="#25272E"/>
<g filter="url(#filter0_d)">
<path d="M0 648.79C0 626.58 0 615.475 4.39088 607.022C8.09102 599.899 13.8989 594.091 21.022 590.391C29.4748 586 40.5799 586 62.79 586H312.21C334.42 586 345.525 586 353.978 590.391C361.101 594.091 366.909 599.899 370.609 607.022C375 615.475 375 626.58 375 648.79V812H0V648.79Z" fill="white"/>
</g>
<path fill-rule="evenodd" clip-rule="evenodd" d="M163 600.5C163 599.119 164.119 598 165.5 598H208.5C209.881 598 211 599.119 211 600.5V600.5C211 601.881 209.881 603 208.5 603H165.5C164.119 603 163 601.881 163 600.5V600.5Z" fill="#E6E8EB"/>
<path d="M16 664C16 656.458 16 652.686 18.3431 650.343C20.6863 648 24.4575 648 32 648H343C350.542 648 354.314 648 356.657 650.343C359 652.686 359 656.458 359 664V672C359 679.542 359 683.314 356.657 685.657C354.314 688 350.542 688 343 688H32C24.4575 688 20.6863 688 18.3431 685.657C16 683.314 16 679.542 16 672V664Z" fill="white"/>
<path fill-rule="evenodd" clip-rule="evenodd" d="M343 649H32C28.2005 649 25.4515 649.002 23.3551 649.284C21.2875 649.562 20.0051 650.095 19.0503 651.05C18.0954 652.005 17.562 653.287 17.284 655.355C17.0021 657.451 17 660.2 17 664V672C17 675.8 17.0021 678.549 17.284 680.645C17.562 682.713 18.0954 683.995 19.0503 684.95C20.0051 685.905 21.2875 686.438 23.3551 686.716C25.4515 686.998 28.2005 687 32 687H343C346.799 687 349.549 686.998 351.645 686.716C353.713 686.438 354.995 685.905 355.95 684.95C356.905 683.995 357.438 682.713 357.716 680.645C357.998 678.549 358 675.8 358 672V664C358 660.2 357.998 657.451 357.716 655.355C357.438 653.287 356.905 652.005 355.95 651.05C354.995 650.095 353.713 649.562 351.645 649.284C349.549 649.002 346.799 649 343 649ZM18.3431 650.343C16 652.686 16 656.458 16 664V672C16 679.542 16 683.314 18.3431 685.657C20.6863 688 24.4575 688 32 688H343C350.542 688 354.314 688 356.657 685.657C359 683.314 359 679.542 359 672V664C359 656.458 359 652.686 356.657 650.343C354.314 648 350.542 648 343 648H32C24.4575 648 20.6863 648 18.3431 650.343Z" fill="#F1F3F5" style="mix-blend-mode:multiply"/>
<path opacity="0.7" d="M29.44 670.664C29.7387 671.048 30.1493 671.373 30.672 671.64C31.1947 671.907 31.7973 672.04 32.48 672.04C33.3013 672.04 33.9307 671.848 34.368 671.464C34.816 671.08 35.04 670.579 35.04 669.96C35.04 669.544 34.9227 669.208 34.688 668.952C34.4533 668.685 34.16 668.483 33.808 668.344C33.4667 668.195 32.9867 668.029 32.368 667.848C31.632 667.635 31.0347 667.427 30.576 667.224C30.128 667.011 29.744 666.701 29.424 666.296C29.1147 665.891 28.96 665.352 28.96 664.68C28.96 664.136 29.104 663.635 29.392 663.176C29.6907 662.707 30.112 662.333 30.656 662.056C31.2107 661.779 31.8453 661.64 32.56 661.64C33.264 661.64 33.8987 661.779 34.464 662.056C35.0293 662.333 35.488 662.675 35.84 663.08L35.04 663.88C34.784 663.571 34.4427 663.309 34.016 663.096C33.5893 662.872 33.104 662.76 32.56 662.76C32.0693 662.76 31.6427 662.851 31.28 663.032C30.9173 663.203 30.64 663.437 30.448 663.736C30.256 664.024 30.16 664.339 30.16 664.68C30.16 665.096 30.2773 665.437 30.512 665.704C30.7467 665.96 31.0347 666.163 31.376 666.312C31.728 666.451 32.2133 666.611 32.832 666.792C33.568 667.005 34.16 667.219 34.608 667.432C35.0667 667.635 35.4507 667.939 35.76 668.344C36.08 668.749 36.24 669.288 36.24 669.96C36.24 670.579 36.0907 671.133 35.792 671.624C35.4933 672.104 35.0613 672.483 34.496 672.76C33.9307 673.027 33.2587 673.16 32.48 673.16C31.6373 673.16 30.8907 673 30.24 672.68C29.6 672.349 29.0933 671.949 28.72 671.48L29.44 670.664ZM44.8069 671.848C44.4655 672.211 44.0175 672.52 43.4629 672.776C42.9082 673.032 42.2895 673.16 41.6069 673.16C40.9242 673.16 40.2842 672.984 39.6869 672.632C39.1002 672.269 38.6309 671.784 38.2789 671.176C37.9375 670.568 37.7669 669.896 37.7669 669.16C37.7669 668.435 37.9375 667.768 38.2789 667.16C38.6309 666.541 39.0949 666.056 39.6709 665.704C40.2469 665.341 40.8655 665.16 41.5269 665.16C42.2095 665.16 42.8335 665.325 43.3989 665.656C43.9642 665.987 44.4069 666.445 44.7269 667.032C45.0469 667.608 45.2069 668.264 45.2069 669C45.2069 669.203 45.1802 669.395 45.1269 669.576L38.8869 669.56C38.9082 670.008 39.0469 670.429 39.3029 670.824C39.5589 671.219 39.8895 671.533 40.2949 671.768C40.7002 672.003 41.1375 672.12 41.6069 672.12C42.1402 672.12 42.6202 672.024 43.0469 671.832C43.4735 671.64 43.8202 671.405 44.0869 671.128L44.8069 671.848ZM44.0869 668.6C44.0015 667.907 43.7189 667.336 43.2389 666.888C42.7695 666.429 42.1989 666.2 41.5269 666.2C41.0895 666.2 40.6789 666.312 40.2949 666.536C39.9109 666.749 39.5909 667.043 39.3349 667.416C39.0895 667.779 38.9402 668.173 38.8869 668.6H44.0869ZM51.8419 671.96C51.5965 672.291 51.2605 672.573 50.8339 672.808C50.4072 673.043 49.9165 673.16 49.3619 673.16C48.8499 673.16 48.3859 673.053 47.9699 672.84C47.5539 672.627 47.2285 672.349 46.9939 672.008C46.7592 671.656 46.6419 671.293 46.6419 670.92C46.6419 670.269 46.8339 669.736 47.2179 669.32C47.6125 668.904 48.1672 668.664 48.8819 668.6L51.8419 668.344C51.8419 667.971 51.7565 667.619 51.5859 667.288C51.4259 666.957 51.1965 666.696 50.8979 666.504C50.6099 666.301 50.2845 666.2 49.9219 666.2C49.4739 666.2 49.0632 666.253 48.6899 666.36C48.3165 666.467 48.0072 666.6 47.7619 666.76L47.0419 666.04C47.3619 665.795 47.7725 665.587 48.2739 665.416C48.7752 665.245 49.3245 665.16 49.9219 665.16C50.4979 665.16 51.0152 665.293 51.4739 665.56C51.9432 665.816 52.3059 666.168 52.5619 666.616C52.8285 667.064 52.9619 667.565 52.9619 668.12V673H51.8419V671.96ZM49.2019 669.56C48.7325 669.603 48.3752 669.747 48.1299 669.992C47.8845 670.237 47.7619 670.547 47.7619 670.92C47.7619 671.261 47.9005 671.549 48.1779 671.784C48.4659 672.008 48.8605 672.12 49.3619 672.12C50.1085 672.12 50.7059 671.917 51.1539 671.512C51.6125 671.096 51.8419 670.52 51.8419 669.784V669.304L49.2019 669.56ZM56.1656 666.36C56.3683 666.029 56.6723 665.747 57.0776 665.512C57.4936 665.277 57.9896 665.16 58.5656 665.16H59.0456V666.28H58.5656C58.139 666.28 57.739 666.381 57.3656 666.584C57.003 666.787 56.7096 667.08 56.4856 667.464C56.2723 667.837 56.1656 668.269 56.1656 668.76V673H55.0456V665.32H56.1656V666.36ZM66.885 671.56C66.5223 672.008 66.0583 672.387 65.493 672.696C64.9383 673.005 64.3357 673.16 63.685 673.16C63.0023 673.16 62.3623 672.984 61.765 672.632C61.1783 672.269 60.709 671.784 60.357 671.176C60.0157 670.568 59.845 669.896 59.845 669.16C59.845 668.424 60.0157 667.752 60.357 667.144C60.709 666.536 61.1783 666.056 61.765 665.704C62.3623 665.341 63.0023 665.16 63.685 665.16C64.3357 665.16 64.933 665.309 65.477 665.608C66.021 665.896 66.4637 666.253 66.805 666.68L66.005 667.48C65.7597 667.128 65.4343 666.829 65.029 666.584C64.6343 666.328 64.1863 666.2 63.685 666.2C63.205 666.2 62.757 666.333 62.341 666.6C61.925 666.856 61.589 667.213 61.333 667.672C61.0877 668.12 60.965 668.616 60.965 669.16C60.965 669.704 61.0877 670.205 61.333 670.664C61.589 671.112 61.925 671.469 62.341 671.736C62.757 671.992 63.205 672.12 63.685 672.12C64.1863 672.12 64.645 671.997 65.061 671.752C65.477 671.496 65.8183 671.192 66.085 670.84L66.885 671.56ZM69.8394 666.44C70.0847 666.088 70.4207 665.789 70.8474 665.544C71.274 665.288 71.7647 665.16 72.3194 665.16C72.9274 665.16 73.466 665.293 73.9354 665.56C74.4154 665.827 74.7834 666.211 75.0394 666.712C75.306 667.203 75.4394 667.779 75.4394 668.44V673H74.3194V668.44C74.3194 667.768 74.122 667.229 73.7274 666.824C73.3434 666.408 72.8474 666.2 72.2394 666.2C71.7914 666.2 71.3807 666.312 71.0074 666.536C70.6447 666.749 70.3567 667.048 70.1434 667.432C69.9407 667.816 69.8394 668.259 69.8394 668.76V673H68.7194V661.8H69.8394V666.44ZM86.2325 671.96C85.9872 672.291 85.6512 672.573 85.2245 672.808C84.7978 673.043 84.3072 673.16 83.7525 673.16C83.2405 673.16 82.7765 673.053 82.3605 672.84C81.9445 672.627 81.6192 672.349 81.3845 672.008C81.1498 671.656 81.0325 671.293 81.0325 670.92C81.0325 670.269 81.2245 669.736 81.6085 669.32C82.0032 668.904 82.5578 668.664 83.2725 668.6L86.2325 668.344C86.2325 667.971 86.1472 667.619 85.9765 667.288C85.8165 666.957 85.5872 666.696 85.2885 666.504C85.0005 666.301 84.6752 666.2 84.3125 666.2C83.8645 666.2 83.4538 666.253 83.0805 666.36C82.7072 666.467 82.3978 666.6 82.1525 666.76L81.4325 666.04C81.7525 665.795 82.1632 665.587 82.6645 665.416C83.1658 665.245 83.7152 665.16 84.3125 665.16C84.8885 665.16 85.4058 665.293 85.8645 665.56C86.3338 665.816 86.6965 666.168 86.9525 666.616C87.2192 667.064 87.3525 667.565 87.3525 668.12V673H86.2325V671.96ZM83.5925 669.56C83.1232 669.603 82.7658 669.747 82.5205 669.992C82.2752 670.237 82.1525 670.547 82.1525 670.92C82.1525 671.261 82.2912 671.549 82.5685 671.784C82.8565 672.008 83.2512 672.12 83.7525 672.12C84.4992 672.12 85.0965 671.917 85.5445 671.512C86.0032 671.096 86.2325 670.52 86.2325 669.784V669.304L83.5925 669.56ZM94.15 666.28C94.3527 665.971 94.6353 665.709 94.998 665.496C95.3713 665.272 95.8087 665.16 96.31 665.16C96.9073 665.16 97.4193 665.293 97.846 665.56C98.2727 665.816 98.5873 666.136 98.79 666.52C99.014 666.136 99.35 665.816 99.798 665.56C100.257 665.293 100.801 665.16 101.43 665.16C102.305 665.16 103.014 665.448 103.558 666.024C104.113 666.6 104.39 667.405 104.39 668.44V673H103.27V668.44C103.27 667.725 103.094 667.176 102.742 666.792C102.39 666.397 101.926 666.2 101.35 666.2C100.977 666.2 100.63 666.307 100.31 666.52C99.99 666.723 99.734 667.021 99.542 667.416C99.3607 667.8 99.27 668.248 99.27 668.76V673H98.15V668.44C98.15 667.736 97.974 667.187 97.622 666.792C97.27 666.397 96.806 666.2 96.23 666.2C95.8567 666.2 95.51 666.307 95.19 666.52C94.87 666.723 94.614 667.021 94.422 667.416C94.2407 667.8 94.15 668.248 94.15 668.76V673H93.03V665.32H94.15V666.28ZM113.432 671.848C113.091 672.211 112.643 672.52 112.088 672.776C111.533 673.032 110.915 673.16 110.232 673.16C109.549 673.16 108.909 672.984 108.312 672.632C107.725 672.269 107.256 671.784 106.904 671.176C106.563 670.568 106.392 669.896 106.392 669.16C106.392 668.435 106.563 667.768 106.904 667.16C107.256 666.541 107.72 666.056 108.296 665.704C108.872 665.341 109.491 665.16 110.152 665.16C110.835 665.16 111.459 665.325 112.024 665.656C112.589 665.987 113.032 666.445 113.352 667.032C113.672 667.608 113.832 668.264 113.832 669C113.832 669.203 113.805 669.395 113.752 669.576L107.512 669.56C107.533 670.008 107.672 670.429 107.928 670.824C108.184 671.219 108.515 671.533 108.92 671.768C109.325 672.003 109.763 672.12 110.232 672.12C110.765 672.12 111.245 672.024 111.672 671.832C112.099 671.64 112.445 671.405 112.712 671.128L113.432 671.848ZM112.712 668.6C112.627 667.907 112.344 667.336 111.864 666.888C111.395 666.429 110.824 666.2 110.152 666.2C109.715 666.2 109.304 666.312 108.92 666.536C108.536 666.749 108.216 667.043 107.96 667.416C107.715 667.779 107.565 668.173 107.512 668.6H112.712ZM121.667 671.88C121.4 672.232 121.038 672.536 120.579 672.792C120.12 673.037 119.603 673.16 119.027 673.16C118.344 673.16 117.715 672.989 117.139 672.648C116.563 672.296 116.104 671.816 115.763 671.208C115.432 670.6 115.267 669.917 115.267 669.16C115.267 668.403 115.432 667.72 115.763 667.112C116.104 666.504 116.563 666.029 117.139 665.688C117.715 665.336 118.344 665.16 119.027 665.16C119.603 665.16 120.12 665.288 120.579 665.544C121.038 665.789 121.4 666.088 121.667 666.44V661.8H122.787V673H121.667V671.88ZM119.027 672.12C119.475 672.12 119.902 671.992 120.307 671.736C120.723 671.469 121.054 671.112 121.299 670.664C121.544 670.205 121.667 669.704 121.667 669.16C121.667 668.616 121.544 668.12 121.299 667.672C121.054 667.213 120.723 666.856 120.307 666.6C119.902 666.333 119.475 666.2 119.027 666.2C118.547 666.2 118.104 666.328 117.699 666.584C117.294 666.829 116.974 667.176 116.739 667.624C116.504 668.072 116.387 668.584 116.387 669.16C116.387 669.736 116.504 670.248 116.739 670.696C116.974 671.144 117.294 671.496 117.699 671.752C118.104 671.997 118.547 672.12 119.027 672.12ZM125.261 662.76C125.261 662.557 125.33 662.387 125.469 662.248C125.607 662.109 125.778 662.04 125.981 662.04C126.183 662.04 126.354 662.109 126.493 662.248C126.631 662.387 126.701 662.557 126.701 662.76C126.701 662.963 126.631 663.133 126.493 663.272C126.354 663.411 126.183 663.48 125.981 663.48C125.778 663.48 125.607 663.411 125.469 663.272C125.33 663.133 125.261 662.963 125.261 662.76ZM126.541 665.32V673H125.421V665.32H126.541ZM135.588 671.56C135.225 672.008 134.761 672.387 134.196 672.696C133.641 673.005 133.039 673.16 132.388 673.16C131.705 673.16 131.065 672.984 130.468 672.632C129.881 672.269 129.412 671.784 129.06 671.176C128.719 670.568 128.548 669.896 128.548 669.16C128.548 668.424 128.719 667.752 129.06 667.144C129.412 666.536 129.881 666.056 130.468 665.704C131.065 665.341 131.705 665.16 132.388 665.16C133.039 665.16 133.636 665.309 134.18 665.608C134.724 665.896 135.167 666.253 135.508 666.68L134.708 667.48C134.463 667.128 134.137 666.829 133.732 666.584C133.337 666.328 132.889 666.2 132.388 666.2C131.908 666.2 131.46 666.333 131.044 666.6C130.628 666.856 130.292 667.213 130.036 667.672C129.791 668.12 129.668 668.616 129.668 669.16C129.668 669.704 129.791 670.205 130.036 670.664C130.292 671.112 130.628 671.469 131.044 671.736C131.46 671.992 131.908 672.12 132.388 672.12C132.889 672.12 133.348 671.997 133.764 671.752C134.18 671.496 134.521 671.192 134.788 670.84L135.588 671.56ZM141.983 671.96C141.737 672.291 141.401 672.573 140.975 672.808C140.548 673.043 140.057 673.16 139.503 673.16C138.991 673.16 138.527 673.053 138.111 672.84C137.695 672.627 137.369 672.349 137.135 672.008C136.9 671.656 136.783 671.293 136.783 670.92C136.783 670.269 136.975 669.736 137.359 669.32C137.753 668.904 138.308 668.664 139.023 668.6L141.983 668.344C141.983 667.971 141.897 667.619 141.727 667.288C141.567 666.957 141.337 666.696 141.039 666.504C140.751 666.301 140.425 666.2 140.062 666.2C139.615 666.2 139.204 666.253 138.831 666.36C138.457 666.467 138.148 666.6 137.903 666.76L137.183 666.04C137.503 665.795 137.913 665.587 138.414 665.416C138.916 665.245 139.465 665.16 140.062 665.16C140.639 665.16 141.156 665.293 141.615 665.56C142.084 665.816 142.447 666.168 142.703 666.616C142.969 667.064 143.103 667.565 143.103 668.12V673H141.983V671.96ZM139.343 669.56C138.873 669.603 138.516 669.747 138.271 669.992C138.025 670.237 137.903 670.547 137.903 670.92C137.903 671.261 138.041 671.549 138.319 671.784C138.607 672.008 139.001 672.12 139.503 672.12C140.249 672.12 140.847 671.917 141.295 671.512C141.753 671.096 141.983 670.52 141.983 669.784V669.304L139.343 669.56ZM144.23 665.32H145.67V662.76H146.79V665.32H148.87V666.36H146.79V670.92C146.79 671.304 146.875 671.576 147.046 671.736C147.227 671.885 147.489 671.96 147.83 671.96H148.87V673H147.782C147.11 673 146.587 672.829 146.214 672.488C145.851 672.147 145.67 671.624 145.67 670.92V666.36H144.23V665.32ZM150.636 662.76C150.636 662.557 150.705 662.387 150.844 662.248C150.982 662.109 151.153 662.04 151.356 662.04C151.558 662.04 151.729 662.109 151.868 662.248C152.006 662.387 152.076 662.557 152.076 662.76C152.076 662.963 152.006 663.133 151.868 663.272C151.729 663.411 151.558 663.48 151.356 663.48C151.153 663.48 150.982 663.411 150.844 663.272C150.705 663.133 150.636 662.963 150.636 662.76ZM151.916 665.32V673H150.796V665.32H151.916ZM157.843 673.16C157.128 673.16 156.472 672.984 155.875 672.632C155.278 672.269 154.803 671.784 154.451 671.176C154.099 670.568 153.923 669.896 153.923 669.16C153.923 668.424 154.099 667.752 154.451 667.144C154.803 666.536 155.278 666.056 155.875 665.704C156.472 665.341 157.128 665.16 157.843 665.16C158.558 665.16 159.214 665.341 159.811 665.704C160.408 666.056 160.883 666.536 161.235 667.144C161.587 667.752 161.763 668.424 161.763 669.16C161.763 669.896 161.587 670.568 161.235 671.176C160.883 671.784 160.408 672.269 159.811 672.632C159.214 672.984 158.558 673.16 157.843 673.16ZM157.843 672.12C158.344 672.12 158.808 671.992 159.235 671.736C159.662 671.469 160.003 671.112 160.259 670.664C160.515 670.205 160.643 669.704 160.643 669.16C160.643 668.616 160.515 668.12 160.259 667.672C160.003 667.213 159.662 666.856 159.235 666.6C158.808 666.333 158.344 666.2 157.843 666.2C157.342 666.2 156.878 666.333 156.451 666.6C156.024 666.856 155.683 667.213 155.427 667.672C155.171 668.12 155.043 668.616 155.043 669.16C155.043 669.704 155.171 670.205 155.427 670.664C155.683 671.112 156.024 671.469 156.451 671.736C156.878 671.992 157.342 672.12 157.843 672.12ZM164.884 666.44C165.13 666.088 165.466 665.789 165.892 665.544C166.319 665.288 166.81 665.16 167.364 665.16C167.972 665.16 168.511 665.293 168.98 665.56C169.46 665.827 169.828 666.211 170.084 666.712C170.351 667.203 170.484 667.779 170.484 668.44V673H169.364V668.44C169.364 667.768 169.167 667.229 168.772 666.824C168.388 666.408 167.892 666.2 167.284 666.2C166.836 666.2 166.426 666.312 166.052 666.536C165.69 666.749 165.402 667.048 165.188 667.432C164.986 667.816 164.884 668.259 164.884 668.76V673H163.764V665.32H164.884V666.44Z" fill="#70747D"/>
<path d="M21.32 626.2C21.936 626.2 22.496 626.34 23 626.62C23.504 626.9 23.896 627.283 24.176 627.768C24.4653 628.244 24.61 628.771 24.61 629.35C24.61 629.929 24.4653 630.461 24.176 630.946C23.896 631.422 23.504 631.8 23 632.08C22.496 632.36 21.936 632.5 21.32 632.5H18.94V636H17.4V626.2H21.32ZM21.32 631.1C21.8147 631.1 22.23 630.932 22.566 630.596C22.902 630.251 23.07 629.835 23.07 629.35C23.07 628.855 22.902 628.44 22.566 628.104C22.23 627.768 21.8147 627.6 21.32 627.6H18.94V631.1H21.32ZM27.3488 630.19C27.5354 629.938 27.7828 629.723 28.0908 629.546C28.4081 629.369 28.7674 629.28 29.1688 629.28H29.7288V630.54H29.1688C28.8421 630.54 28.5388 630.629 28.2588 630.806C27.9788 630.974 27.7548 631.217 27.5868 631.534C27.4281 631.842 27.3488 632.187 27.3488 632.57V636H25.9488V629.28H27.3488V630.19ZM36.807 635.048C36.527 635.356 36.1396 635.617 35.645 635.832C35.1503 636.037 34.581 636.14 33.937 636.14C33.293 636.14 32.7003 635.986 32.159 635.678C31.627 635.37 31.207 634.95 30.899 634.418C30.591 633.877 30.437 633.284 30.437 632.64C30.437 631.996 30.591 631.408 30.899 630.876C31.207 630.344 31.6223 629.924 32.145 629.616C32.6676 629.299 33.2416 629.14 33.867 629.14C34.4923 629.14 35.0523 629.285 35.547 629.574C36.051 629.854 36.443 630.246 36.723 630.75C37.0123 631.245 37.157 631.805 37.157 632.43C37.157 632.691 37.1336 632.925 37.087 633.13H31.907C31.9816 633.597 32.215 633.993 32.607 634.32C32.999 634.647 33.4656 634.81 34.007 634.81C34.399 634.81 34.763 634.74 35.099 634.6C35.4443 634.451 35.7336 634.273 35.967 634.068L36.807 635.048ZM35.687 631.94C35.575 631.473 35.3603 631.1 35.043 630.82C34.735 630.54 34.343 630.4 33.867 630.4C33.363 630.4 32.9476 630.54 32.621 630.82C32.2943 631.091 32.0563 631.464 31.907 631.94H35.687ZM38.9709 633.97C39.1763 634.222 39.4329 634.437 39.7409 634.614C40.0489 634.791 40.3756 634.88 40.7209 634.88C41.0849 634.88 41.3743 634.796 41.5889 634.628C41.8036 634.46 41.9109 634.264 41.9109 634.04C41.9109 633.835 41.8083 633.681 41.6029 633.578C41.4069 633.466 41.0803 633.34 40.6229 633.2C40.1469 633.06 39.7549 632.92 39.4469 632.78C39.1483 632.64 38.8869 632.435 38.6629 632.164C38.4483 631.893 38.3409 631.539 38.3409 631.1C38.3409 630.745 38.4389 630.419 38.6349 630.12C38.8309 629.821 39.1156 629.583 39.4889 629.406C39.8623 629.229 40.2963 629.14 40.7909 629.14C41.3136 629.14 41.7803 629.229 42.1909 629.406C42.6109 629.583 42.9376 629.798 43.1709 630.05L42.2609 630.96C42.0929 630.801 41.8783 630.671 41.6169 630.568C41.3649 630.456 41.0896 630.4 40.7909 630.4C40.4643 630.4 40.2076 630.47 40.0209 630.61C39.8343 630.75 39.7409 630.913 39.7409 631.1C39.7409 631.305 39.8389 631.464 40.0349 631.576C40.2403 631.679 40.5716 631.8 41.0289 631.94C41.5049 632.08 41.8923 632.22 42.1909 632.36C42.4989 632.5 42.7603 632.705 42.9749 632.976C43.1989 633.247 43.3109 633.601 43.3109 634.04C43.3109 634.413 43.2036 634.763 42.9889 635.09C42.7836 635.407 42.4849 635.664 42.0929 635.86C41.7009 636.047 41.2436 636.14 40.7209 636.14C40.1516 636.14 39.6336 636.019 39.1669 635.776C38.7096 635.533 38.3409 635.235 38.0609 634.88L38.9709 633.97ZM50.7249 634.74C50.4263 635.132 50.0249 635.463 49.5209 635.734C49.0263 636.005 48.4709 636.14 47.8549 636.14C47.2109 636.14 46.6183 635.986 46.0769 635.678C45.5449 635.37 45.1249 634.95 44.8169 634.418C44.5089 633.877 44.3549 633.284 44.3549 632.64C44.3549 631.996 44.5089 631.408 44.8169 630.876C45.1249 630.335 45.5449 629.91 46.0769 629.602C46.6183 629.294 47.2109 629.14 47.8549 629.14C48.4709 629.14 49.0216 629.271 49.5069 629.532C49.9923 629.784 50.3749 630.097 50.6549 630.47L49.6749 631.38C49.4789 631.128 49.2223 630.913 48.9049 630.736C48.5969 630.559 48.2469 630.47 47.8549 630.47C47.4629 630.47 47.1036 630.563 46.7769 630.75C46.4596 630.937 46.2076 631.198 46.0209 631.534C45.8436 631.861 45.7549 632.229 45.7549 632.64C45.7549 633.051 45.8436 633.424 46.0209 633.76C46.2076 634.087 46.4596 634.343 46.7769 634.53C47.1036 634.717 47.4629 634.81 47.8549 634.81C48.2469 634.81 48.6063 634.717 48.9329 634.53C49.2596 634.334 49.5303 634.101 49.7449 633.83L50.7249 634.74ZM53.4484 630.19C53.635 629.938 53.8824 629.723 54.1904 629.546C54.5077 629.369 54.867 629.28 55.2684 629.28H55.8284V630.54H55.2684C54.9417 630.54 54.6384 630.629 54.3584 630.806C54.0784 630.974 53.8544 631.217 53.6864 631.534C53.5277 631.842 53.4484 632.187 53.4484 632.57V636H52.0484V629.28H53.4484V630.19ZM57.0233 627.18C57.0233 626.947 57.1073 626.751 57.2753 626.592C57.4526 626.424 57.6486 626.34 57.8633 626.34C58.0779 626.34 58.2693 626.424 58.4373 626.592C58.6146 626.751 58.7033 626.947 58.7033 627.18C58.7033 627.413 58.6146 627.614 58.4373 627.782C58.2693 627.941 58.0779 628.02 57.8633 628.02C57.6486 628.02 57.4526 627.941 57.2753 627.782C57.1073 627.614 57.0233 627.413 57.0233 627.18ZM58.5633 629.28V636H57.1633V629.28H58.5633ZM61.9933 630.26C62.2079 629.952 62.5159 629.691 62.9173 629.476C63.3186 629.252 63.7806 629.14 64.3033 629.14C64.8633 629.14 65.3813 629.294 65.8573 629.602C66.3426 629.901 66.7299 630.316 67.0193 630.848C67.3086 631.38 67.4533 631.977 67.4533 632.64C67.4533 633.303 67.3086 633.9 67.0193 634.432C66.7299 634.964 66.3426 635.384 65.8573 635.692C65.3813 635.991 64.8633 636.14 64.3033 636.14C63.7806 636.14 63.3186 636.033 62.9173 635.818C62.5159 635.594 62.2079 635.328 61.9933 635.02V638.94H60.5933V629.28H61.9933V630.26ZM64.0233 634.81C64.3966 634.81 64.7373 634.717 65.0453 634.53C65.3533 634.343 65.5959 634.087 65.7733 633.76C65.9599 633.424 66.0533 633.051 66.0533 632.64C66.0533 632.229 65.9599 631.861 65.7733 631.534C65.5959 631.198 65.3533 630.937 65.0453 630.75C64.7373 630.563 64.3966 630.47 64.0233 630.47C63.6499 630.47 63.3093 630.563 63.0013 630.75C62.6933 630.937 62.4459 631.198 62.2593 631.534C62.0819 631.861 61.9933 632.229 61.9933 632.64C61.9933 633.051 62.0819 633.424 62.2593 633.76C62.4459 634.087 62.6933 634.343 63.0013 634.53C63.3093 634.717 63.6499 634.81 64.0233 634.81ZM68.4278 629.28H69.6878V627.04H71.0878V629.28H72.8378V630.61H71.0878V633.76C71.0878 634.096 71.1671 634.334 71.3258 634.474C71.4845 634.605 71.7318 634.67 72.0678 634.67H72.8378V636H71.7878C70.3878 636 69.6878 635.3 69.6878 633.9V630.61H68.4278V629.28ZM74.4413 627.18C74.4413 626.947 74.5253 626.751 74.6933 626.592C74.8706 626.424 75.0666 626.34 75.2812 626.34C75.4959 626.34 75.6873 626.424 75.8553 626.592C76.0326 626.751 76.1213 626.947 76.1213 627.18C76.1213 627.413 76.0326 627.614 75.8553 627.782C75.6873 627.941 75.4959 628.02 75.2812 628.02C75.0666 628.02 74.8706 627.941 74.6933 627.782C74.5253 627.614 74.4413 627.413 74.4413 627.18ZM75.9813 629.28V636H74.5813V629.28H75.9813ZM77.5913 632.64C77.5913 631.996 77.7453 631.408 78.0533 630.876C78.3613 630.335 78.7813 629.91 79.3133 629.602C79.8546 629.294 80.4473 629.14 81.0913 629.14C81.7353 629.14 82.3233 629.294 82.8553 629.602C83.3966 629.91 83.8213 630.335 84.1293 630.876C84.4373 631.408 84.5913 631.996 84.5913 632.64C84.5913 633.284 84.4373 633.877 84.1293 634.418C83.8213 634.95 83.3966 635.37 82.8553 635.678C82.3233 635.986 81.7353 636.14 81.0913 636.14C80.4473 636.14 79.8546 635.986 79.3133 635.678C78.7813 635.37 78.3613 634.95 78.0533 634.418C77.7453 633.877 77.5913 633.284 77.5913 632.64ZM81.0913 634.81C81.4833 634.81 81.8379 634.717 82.1553 634.53C82.4819 634.343 82.7339 634.087 82.9113 633.76C83.0979 633.424 83.1913 633.051 83.1913 632.64C83.1913 632.229 83.0979 631.861 82.9113 631.534C82.7339 631.198 82.4819 630.937 82.1553 630.75C81.8379 630.563 81.4833 630.47 81.0913 630.47C80.6993 630.47 80.3399 630.563 80.0133 630.75C79.6959 630.937 79.4439 631.198 79.2573 631.534C79.0799 631.861 78.9913 632.229 78.9913 632.64C78.9913 633.051 79.0799 633.424 79.2573 633.76C79.4439 634.087 79.6959 634.343 80.0133 634.53C80.3399 634.717 80.6993 634.81 81.0913 634.81ZM87.5323 630.26C87.747 629.952 88.0363 629.691 88.4003 629.476C88.7643 629.252 89.175 629.14 89.6323 629.14C90.1457 629.14 90.603 629.261 91.0043 629.504C91.4057 629.737 91.7183 630.078 91.9423 630.526C92.1757 630.965 92.2923 631.483 92.2923 632.08V636H90.8923V632.08C90.8923 631.595 90.7477 631.207 90.4583 630.918C90.1783 630.619 89.8097 630.47 89.3523 630.47C88.8203 630.47 88.3817 630.647 88.0363 631.002C87.7003 631.347 87.5323 631.8 87.5323 632.36V636H86.1323V629.28H87.5323V630.26Z" fill="#25272E"/>
<path d="M346.911 674.032C347.16 674.281 347.299 674.619 347.299 674.971C347.299 675.323 347.16 675.661 346.911 675.91C346.662 676.159 346.325 676.299 345.973 676.299C345.621 676.299 345.284 676.159 345.035 675.91L340.924 671.806C339.765 672.573 338.39 672.956 336.997 672.894C335.519 672.828 334.106 672.266 332.986 671.298C331.865 670.331 331.103 669.014 330.82 667.559C330.538 666.105 330.753 664.598 331.429 663.28C332.106 661.963 333.206 660.911 334.552 660.296C335.898 659.68 337.411 659.536 338.849 659.887C340.286 660.237 341.564 661.062 342.477 662.228C343.389 663.394 343.884 664.833 343.88 666.315C343.884 667.597 343.507 668.85 342.8 669.915L346.911 674.032ZM340.563 664.134C340.133 663.489 339.522 662.985 338.806 662.688C338.09 662.39 337.303 662.312 336.543 662.462C335.783 662.613 335.084 662.985 334.535 663.533C333.986 664.081 333.612 664.78 333.459 665.541C333.306 666.302 333.382 667.091 333.677 667.809C333.972 668.527 334.473 669.141 335.116 669.574C335.759 670.007 336.515 670.239 337.29 670.242H337.303C337.818 670.244 338.329 670.143 338.806 669.947C339.282 669.75 339.715 669.461 340.079 669.096C340.443 668.731 340.732 668.298 340.928 667.82C341.125 667.343 341.225 666.831 341.223 666.315C341.223 665.539 340.994 664.78 340.563 664.134Z" fill="#CDCED1"/>
<g style="mix-blend-mode:multiply">
<rect x="279" y="718" width="80" height="40" rx="20" fill="#F1F3F5" style="mix-blend-mode:multiply"/>
<path d="M305.164 740.28C305.442 740.632 305.82 740.936 306.3 741.192C306.78 741.437 307.335 741.56 307.964 741.56C308.658 741.56 309.202 741.4 309.596 741.08C310.002 740.749 310.204 740.349 310.204 739.88C310.204 739.539 310.098 739.261 309.884 739.048C309.682 738.835 309.42 738.664 309.1 738.536C308.791 738.408 308.359 738.269 307.804 738.12C307.047 737.896 306.439 737.683 305.98 737.48C305.522 737.267 305.122 736.941 304.78 736.504C304.45 736.067 304.284 735.485 304.284 734.76C304.284 734.195 304.439 733.677 304.748 733.208C305.058 732.728 305.5 732.349 306.076 732.072C306.663 731.784 307.346 731.64 308.124 731.64C308.882 731.64 309.564 731.779 310.172 732.056C310.791 732.333 311.282 732.675 311.644 733.08L310.444 734.28C310.199 733.992 309.874 733.747 309.468 733.544C309.074 733.341 308.626 733.24 308.124 733.24C307.474 733.24 306.962 733.389 306.588 733.688C306.226 733.976 306.044 734.333 306.044 734.76C306.044 735.101 306.146 735.379 306.348 735.592C306.562 735.805 306.823 735.976 307.132 736.104C307.452 736.232 307.89 736.371 308.444 736.52C309.202 736.744 309.81 736.963 310.268 737.176C310.727 737.379 311.122 737.699 311.452 738.136C311.794 738.573 311.964 739.155 311.964 739.88C311.964 740.467 311.799 741.011 311.468 741.512C311.148 742.013 310.684 742.413 310.076 742.712C309.468 743.011 308.764 743.16 307.964 743.16C307.079 743.16 306.29 743 305.596 742.68C304.903 742.349 304.359 741.949 303.964 741.48L305.164 740.28ZM315.409 731.8V738.84L318.689 735.32H320.689L317.729 738.44L320.929 743H319.089L316.689 739.56L315.409 740.92V743H313.809V731.8H315.409ZM321.962 732.92C321.962 732.653 322.058 732.429 322.25 732.248C322.453 732.056 322.677 731.96 322.922 731.96C323.167 731.96 323.386 732.056 323.578 732.248C323.781 732.429 323.882 732.653 323.882 732.92C323.882 733.187 323.781 733.416 323.578 733.608C323.386 733.789 323.167 733.88 322.922 733.88C322.677 733.88 322.453 733.789 322.25 733.608C322.058 733.416 321.962 733.187 321.962 732.92ZM323.722 735.32V743H322.122V735.32H323.722ZM327.642 736.44C327.887 736.088 328.239 735.789 328.698 735.544C329.157 735.288 329.685 735.16 330.282 735.16C330.922 735.16 331.514 735.336 332.058 735.688C332.613 736.029 333.055 736.504 333.386 737.112C333.717 737.72 333.882 738.403 333.882 739.16C333.882 739.917 333.717 740.6 333.386 741.208C333.055 741.816 332.613 742.296 332.058 742.648C331.514 742.989 330.922 743.16 330.282 743.16C329.685 743.16 329.157 743.037 328.698 742.792C328.239 742.536 327.887 742.232 327.642 741.88V746.36H326.042V735.32H327.642V736.44ZM329.962 741.64C330.389 741.64 330.778 741.533 331.13 741.32C331.482 741.107 331.759 740.813 331.962 740.44C332.175 740.056 332.282 739.629 332.282 739.16C332.282 738.691 332.175 738.269 331.962 737.896C331.759 737.512 331.482 737.213 331.13 737C330.778 736.787 330.389 736.68 329.962 736.68C329.535 736.68 329.146 736.787 328.794 737C328.442 737.213 328.159 737.512 327.946 737.896C327.743 738.269 327.642 738.691 327.642 739.16C327.642 739.629 327.743 740.056 327.946 740.44C328.159 740.813 328.442 741.107 328.794 741.32C329.146 741.533 329.535 741.64 329.962 741.64Z" fill="#25272E"/>
</g>
<g filter="url(#filter1_b)">
<rect width="375" height="88" fill="white" fill-opacity="0.95"/>
<path opacity="0.35" d="M338.663 17.7988H355.329C356.525 17.7988 357.496 18.7689 357.496 19.9655V25.9439C357.496 27.1405 356.525 28.1106 355.329 28.1106H338.663C337.466 28.1106 336.496 27.1405 336.496 25.9439V19.9655C336.496 18.7689 337.466 17.7988 338.663 17.7988Z" stroke="black"/>
<path opacity="0.4" d="M358.996 20.959V24.9514C359.801 24.6132 360.324 23.8267 360.324 22.9552C360.324 22.0837 359.801 21.2971 358.996 20.959" fill="black"/>
<path d="M337.996 20.6283C337.996 19.8919 338.593 19.2949 339.329 19.2949H354.662C355.399 19.2949 355.996 19.8919 355.996 20.6283V25.281C355.996 26.0173 355.399 26.6143 354.662 26.6143H339.329C338.593 26.6143 337.996 26.0173 337.996 25.281V20.6283Z" fill="black"/>
<path fill-rule="evenodd" clip-rule="evenodd" d="M323.328 19.5699C325.544 19.57 327.675 20.4198 329.281 21.9437C329.402 22.0613 329.595 22.0598 329.714 21.9404L330.87 20.7759C330.93 20.7153 330.964 20.6332 330.963 20.5478C330.963 20.4624 330.928 20.3807 330.867 20.3208C326.652 16.2889 320.003 16.2889 315.788 20.3208C315.727 20.3806 315.692 20.4623 315.691 20.5477C315.691 20.6331 315.724 20.7153 315.785 20.7759L316.941 21.9404C317.06 22.06 317.253 22.0615 317.374 21.9437C318.98 20.4197 321.112 19.5699 323.328 19.5699ZM323.328 23.3583C324.545 23.3582 325.719 23.8099 326.622 24.6256C326.744 24.7413 326.936 24.7388 327.055 24.6199L328.21 23.4555C328.27 23.3944 328.304 23.3115 328.303 23.2254C328.302 23.1393 328.267 23.0572 328.205 22.9973C325.457 20.4458 321.201 20.4458 318.453 22.9973C318.391 23.0572 318.355 23.1394 318.355 23.2255C318.354 23.3116 318.388 23.3945 318.449 23.4555L319.603 24.6199C319.722 24.7388 319.914 24.7413 320.036 24.6256C320.938 23.8104 322.111 23.3588 323.328 23.3583ZM325.641 25.9073C325.643 25.9936 325.609 26.0769 325.547 26.1374L323.549 28.1492C323.491 28.2083 323.411 28.2416 323.328 28.2416C323.245 28.2416 323.165 28.2083 323.106 28.1492L321.109 26.1374C321.047 26.0768 321.013 25.9935 321.015 25.9072C321.017 25.8209 321.054 25.7391 321.118 25.6812C322.394 24.6044 324.262 24.6044 325.537 25.6812C325.602 25.7391 325.639 25.8209 325.641 25.9073Z" fill="black"/>
<path fill-rule="evenodd" clip-rule="evenodd" d="M309.664 17.6328H308.664C308.111 17.6328 307.664 18.0797 307.664 18.6309V27.2811C307.664 27.8323 308.111 28.2792 308.664 28.2792H309.664C310.216 28.2792 310.664 27.8323 310.664 27.2811V18.6309C310.664 18.0797 310.216 17.6328 309.664 17.6328ZM303.997 19.9617H304.997C305.549 19.9617 305.997 20.4086 305.997 20.9598V27.2811C305.997 27.8323 305.549 28.2792 304.997 28.2792H303.997C303.445 28.2792 302.997 27.8323 302.997 27.2811V20.9598C302.997 20.4086 303.445 19.9617 303.997 19.9617ZM300.331 22.2906H299.331C298.778 22.2906 298.331 22.7375 298.331 23.2887V27.2811C298.331 27.8323 298.778 28.2792 299.331 28.2792H300.331C300.883 28.2792 301.331 27.8323 301.331 27.2811V23.2887C301.331 22.7375 300.883 22.2906 300.331 22.2906ZM295.664 24.2868H294.664C294.112 24.2868 293.664 24.7337 293.664 25.2849V27.2811C293.664 27.8323 294.112 28.2792 294.664 28.2792H295.664C296.216 28.2792 296.664 27.8323 296.664 27.2811V25.2849C296.664 24.7337 296.216 24.2868 295.664 24.2868Z" fill="black"/>
<path d="M33.1637 20.4946V20.5239H34.9362V20.4946C34.9362 19.418 35.6833 18.6929 36.7892 18.6929C37.8293 18.6929 38.591 19.3667 38.591 20.2969C38.591 21.0439 38.2321 21.5933 36.7892 23.0581L33.2663 26.6616V27.9727H40.6052V26.3687H35.8591V26.2441L38.071 24.0249C39.8654 22.2524 40.444 21.3149 40.444 20.1797C40.444 18.4146 38.9352 17.1401 36.8478 17.1401C34.6799 17.1401 33.1637 18.5171 33.1637 20.4946ZM43.7768 26.8521C44.4726 26.8521 44.9487 26.354 44.9487 25.6948C44.9487 25.0283 44.4726 24.5376 43.7768 24.5376C43.0884 24.5376 42.605 25.0283 42.605 25.6948C42.605 26.354 43.0884 26.8521 43.7768 26.8521ZM43.7768 21.3589C44.4726 21.3589 44.9487 20.8682 44.9487 20.209C44.9487 19.5425 44.4726 19.0518 43.7768 19.0518C43.0884 19.0518 42.605 19.5425 42.605 20.209C42.605 20.8682 43.0884 21.3589 43.7768 21.3589ZM50.8596 28.2363C53.3865 28.2363 54.888 26.1855 54.888 22.6919C54.888 19.1836 53.3645 17.1401 50.8596 17.1401C48.3474 17.1401 46.824 19.1836 46.824 22.6772C46.824 26.1855 48.3255 28.2363 50.8596 28.2363ZM50.8596 26.6689C49.5193 26.6689 48.7356 25.2773 48.7356 22.6772C48.7356 20.0991 49.534 18.7148 50.8596 18.7148C52.1853 18.7148 52.9763 20.0918 52.9763 22.6772C52.9763 25.2773 52.2 26.6689 50.8596 26.6689ZM56.8218 27.9727H58.7994L63.3184 19.0151V17.4038H55.9649V18.9932H61.4141V19.1104L56.8218 27.9727Z" fill="black"/>
<path d="M351 75.5C356.247 75.5 360.5 71.2467 360.5 66C360.5 60.7533 356.247 56.5 351 56.5C345.753 56.5 341.5 60.7533 341.5 66C341.5 71.2467 345.753 75.5 351 75.5ZM351 77C344.925 77 340 72.0751 340 66C340 59.9249 344.925 55 351 55C357.075 55 362 59.9249 362 66C362 72.0751 357.075 77 351 77Z" fill="#25272E"/>
<path d="M349.81 67.5728C349.81 65.5428 352.19 65.5428 352.19 64.0528C352.179 63.9001 352.137 63.7513 352.067 63.6151C351.997 63.479 351.9 63.3583 351.783 63.2603C351.665 63.1623 351.529 63.089 351.383 63.0448C351.236 63.0005 351.082 62.9862 350.93 63.0028C350.564 62.9907 350.204 63.0957 349.902 63.3025C349.599 63.5093 349.371 63.8072 349.25 64.1528L347.5 63.3828C347.752 62.6638 348.228 62.0445 348.858 61.6161C349.488 61.1877 350.239 60.9727 351 61.0028C353.07 61.0028 354.36 62.3228 354.36 63.7928C354.36 66.3828 351.84 66.3828 351.84 68.2028H349.95C349.871 68.0014 349.823 67.7888 349.81 67.5728ZM349.67 70.0928C349.67 69.9471 349.699 69.8028 349.756 69.6686C349.812 69.5344 349.895 69.4128 350 69.3112C350.104 69.2096 350.228 69.1299 350.364 69.077C350.499 69.024 350.644 68.9988 350.79 69.0028C351.013 69.0028 351.23 69.0694 351.415 69.1938C351.6 69.3182 351.743 69.495 351.827 69.7014C351.911 69.9078 351.931 70.1345 351.886 70.3525C351.84 70.5706 351.73 70.77 351.571 70.9254C351.411 71.0808 351.209 71.185 350.99 71.2248C350.77 71.2645 350.544 71.238 350.34 71.1487C350.136 71.0593 349.963 70.911 349.844 70.723C349.725 70.5349 349.664 70.3155 349.67 70.0928Z" fill="#25272E"/>
<path fill-rule="evenodd" clip-rule="evenodd" d="M27.0023 57.3592L18.8447 65.1911C18.3851 65.6317 18.3851 66.3672 18.8447 66.8096L27.0023 74.6397C27.5026 75.1201 28.2924 75.1201 28.7927 74.6397C29.3219 74.1313 29.3219 73.2845 28.7927 72.7751L21.9605 66.2161C21.8365 66.0976 21.8365 65.9013 21.9605 65.7828L28.7927 59.2237C29.3219 58.7153 29.3219 57.8685 28.7927 57.3592C28.5421 57.1203 28.22 57 27.898 57C27.575 57 27.2529 57.1203 27.0023 57.3592Z" fill="#25272E"/>
<circle cx="141.5" cy="63.5" r="2.5" fill="#03948C"/>
<circle cx="154.5" cy="63.5" r="2.5" fill="#03948C"/>
<circle cx="167.5" cy="63.5" r="2.5" fill="#03948C"/>
<circle cx="180.5" cy="63.5" r="2.5" fill="#03948C"/>
<circle cx="193.5" cy="63.5" r="2.5" fill="#03948C"/>
<circle cx="206.5" cy="63.5" r="2.5" fill="#03948C"/>
<circle cx="219.5" cy="63.5" r="4" fill="#03948C"/>
<circle cx="232.5" cy="63.5" r="2.5" fill="#CEE1E5"/>
</g>
<path fill-rule="evenodd" clip-rule="evenodd" d="M121 800.5C121 799.119 122.119 798 123.5 798H252.5C253.881 798 255 799.119 255 800.5V800.5C255 801.881 253.881 803 252.5 803H123.5C122.119 803 121 801.881 121 800.5V800.5Z" fill="black"/>
</g>
<defs>
<filter id="filter0_d" x="-36" y="550" width="447" height="298" filterUnits="userSpaceOnUse" color-interpolation-filters="sRGB">
<feFlood flood-opacity="0" result="BackgroundImageFix"/>
<feColorMatrix in="SourceAlpha" type="matrix" values="0 0 0 0 0 0 0 0 0 0 0 0 0 0 0 0 0 0 127 0"/>
<feMorphology radius="4" operator="dilate" in="SourceAlpha" result="effect1_dropShadow"/>
<feOffset/>
<feGaussianBlur stdDeviation="16"/>
<feColorMatrix type="matrix" values="0 0 0 0 0.4056 0 0 0 0 0.500104 0 0 0 0 0.52 0 0 0 0.12 0"/>
<feBlend mode="multiply" in2="BackgroundImageFix" result="effect1_dropShadow"/>
<feBlend mode="normal" in="SourceGraphic" in2="effect1_dropShadow" result="shape"/>
</filter>
<filter id="filter1_b" x="-16" y="-16" width="407" height="120" filterUnits="userSpaceOnUse" color-interpolation-filters="sRGB">
<feFlood flood-opacity="0" result="BackgroundImageFix"/>
<feGaussianBlur in="BackgroundImage" stdDeviation="8"/>
<feComposite in2="SourceAlpha" operator="in" result="effect1_backgroundBlur"/>
<feBlend mode="normal" in="SourceGraphic" in2="effect1_backgroundBlur" result="shape"/>
</filter>
<linearGradient id="paint0_linear" x1="111.5" y1="117.45" x2="254.217" y2="702.732" gradientUnits="userSpaceOnUse">
<stop stop-color="#E4F0F0" stop-opacity="0"/>
<stop offset="1" stop-color="#E4F0F0"/>
</linearGradient>
<clipPath id="clip0">
<rect width="375" height="812" fill="white"/>
</clipPath>
</defs>
</svg>
