<svg xmlns="http://www.w3.org/2000/svg" width="375" height="812" fill="none" viewBox="0 0 375 812">
  <g class="11-he" clip-path="url(#clip0)">
    <path fill="#fff" d="M0 0h375v812H0z"/>
    <path fill="url(#paint0_linear)" d="M0 98h375v714H0z" class="Rectangle 480"/>
    <g class="Frame 1279">
      <g class="Frame 1278">
        <g class="Rectangle 481" filter="url(#filter0_d)">
          <path fill="#fff" d="M0 176.79c0-22.21 0-33.315 4.39-41.768a39 39 0 0116.632-16.631C29.475 114 40.58 114 62.79 114h249.42c22.21 0 33.315 0 41.768 4.391a38.999 38.999 0 0116.631 16.631C375 143.475 375 154.58 375 176.79V521H0V176.79z"/>
        </g>
        <path fill="#E6E8EB" fill-rule="evenodd" d="M163 128.5a2.5 2.5 0 012.5-2.5h43a2.5 2.5 0 110 5h-43a2.5 2.5 0 01-2.5-2.5z" class="Rectangle" clip-rule="evenodd"/>
        <g class="Frame 1206">
          <g class="Text Fields/Standard/Empty">
            <g class="Field Input (standard)">
              <path fill="#fff" d="M16 192c0-7.542 0-11.314 2.343-13.657S24.457 176 32 176h311c7.542 0 11.314 0 13.657 2.343S359 184.458 359 192v8c0 7.542 0 11.314-2.343 13.657S350.542 216 343 216H32c-7.543 0-11.314 0-13.657-2.343S16 207.542 16 200v-8z" class="Input container"/>
              <path fill="#1169F5" fill-rule="evenodd" d="M343 177H32c-3.8 0-6.549.002-8.645.284-2.067.278-3.35.811-4.305 1.766-.955.955-1.488 2.237-1.766 4.305C17.002 185.451 17 188.2 17 192v8c0 3.8.002 6.549.284 8.645.278 2.068.811 3.35 1.766 4.305.955.955 2.238 1.488 4.305 1.766 2.096.282 4.846.284 8.645.284h311c3.799 0 6.549-.002 8.645-.284 2.068-.278 3.35-.811 4.305-1.766.955-.955 1.488-2.237 1.766-4.305.282-2.096.284-4.845.284-8.645v-8c0-3.8-.002-6.549-.284-8.645-.278-2.068-.811-3.35-1.766-4.305-.955-.955-2.237-1.488-4.305-1.766-2.096-.282-4.846-.284-8.645-.284zm-324.657 1.343C16 180.686 16 184.458 16 192v8c0 7.542 0 11.314 2.343 13.657S24.457 216 32 216h311c7.542 0 11.314 0 13.657-2.343S359 207.542 359 200v-8c0-7.542 0-11.314-2.343-13.657S350.542 176 343 176H32c-7.543 0-11.314 0-13.657 2.343z" class="Input container (Stroke)" clip-rule="evenodd"/>
              <path fill="#25272E" d="M34.08 189.8l4.64 11.2h-1.28l-1.28-3.12h-5.28L29.6 201h-1.28l4.64-11.2h1.12zm-.56 1.68l-2.16 5.28h4.32l-2.16-5.28zm12.647 8.4c-.267.352-.63.656-1.088.912a3.242 3.242 0 01-1.552.368 3.64 3.64 0 01-1.888-.512 3.88 3.88 0 01-1.376-1.44c-.33-.608-.496-1.291-.496-2.048 0-.757.165-1.44.496-2.048.341-.608.8-1.083 1.376-1.424a3.553 3.553 0 011.888-.528 3.13 3.13 0 011.552.384c.459.245.821.544 1.088.896v-4.64h1.12V201h-1.12v-1.12zm-2.64.24a2.36 2.36 0 001.28-.384c.416-.267.746-.624.992-1.072a3.14 3.14 0 00.368-1.504c0-.544-.123-1.04-.368-1.488a2.751 2.751 0 00-.992-1.072 2.29 2.29 0 00-1.28-.4c-.48 0-.923.128-1.328.384a2.586 2.586 0 00-.96 1.04c-.235.448-.352.96-.352 1.536 0 .576.117 1.088.352 1.536.235.448.555.8.96 1.056a2.52 2.52 0 001.328.368zm12.234-.24c-.267.352-.63.656-1.088.912a3.242 3.242 0 01-1.552.368 3.64 3.64 0 01-1.888-.512 3.881 3.881 0 01-1.376-1.44c-.331-.608-.496-1.291-.496-2.048 0-.757.165-1.44.496-2.048.341-.608.8-1.083 1.376-1.424a3.553 3.553 0 011.888-.528 3.13 3.13 0 011.552.384c.458.245.821.544 1.088.896v-4.64h1.12V201h-1.12v-1.12zm-2.64.24a2.36 2.36 0 001.28-.384c.416-.267.746-.624.992-1.072.245-.459.368-.96.368-1.504s-.123-1.04-.368-1.488a2.75 2.75 0 00-.992-1.072 2.29 2.29 0 00-1.28-.4c-.48 0-.923.128-1.328.384a2.587 2.587 0 00-.96 1.04c-.235.448-.352.96-.352 1.536 0 .576.117 1.088.352 1.536.234.448.554.8.96 1.056a2.52 2.52 0 001.328.368zm12.873-.272c-.341.363-.789.672-1.344.928a4.377 4.377 0 01-1.856.384 3.719 3.719 0 01-1.92-.528 4.097 4.097 0 01-1.408-1.456 4.047 4.047 0 01-.512-2.016c0-.725.171-1.392.512-2a3.969 3.969 0 011.392-1.456 3.418 3.418 0 011.856-.544c.683 0 1.307.165 1.872.496a3.507 3.507 0 011.328 1.376c.32.576.48 1.232.48 1.968 0 .203-.026.395-.08.576l-6.24-.016c.022.448.16.869.416 1.264s.587.709.992.944a2.57 2.57 0 001.312.352c.534 0 1.014-.096 1.44-.288a3.307 3.307 0 001.04-.704l.72.72zm-.72-3.248c-.085-.693-.368-1.264-.848-1.712a2.357 2.357 0 00-1.712-.688c-.437 0-.848.112-1.232.336a2.803 2.803 0 00-.96.88 2.678 2.678 0 00-.448 1.184h5.2zm4.235-2.24c.203-.331.507-.613.912-.848.416-.235.912-.352 1.488-.352h.48v1.12h-.48c-.426 0-.826.101-1.2.304a2.325 2.325 0 00-.88.88c-.213.373-.32.805-.32 1.296V201h-1.12v-7.68h1.12v1.04z" class="Text (NO ICON)"/>
            </g>
            <g class="Field Label">
              <path fill="#25272E" d="M21.32 154.2a3.4 3.4 0 011.68.42c.504.28.896.663 1.176 1.148.29.476.434 1.003.434 1.582 0 .579-.145 1.111-.434 1.596-.28.476-.672.854-1.176 1.134a3.4 3.4 0 01-1.68.42h-2.38v3.5H17.4v-9.8h3.92zm0 4.9a1.723 1.723 0 001.75-1.75c0-.495-.168-.91-.504-1.246a1.693 1.693 0 00-1.246-.504h-2.38v3.5h2.38zm6.029-.91c.186-.252.434-.467.742-.644a2.175 2.175 0 011.078-.266h.56v1.26h-.56c-.327 0-.63.089-.91.266-.28.168-.504.411-.672.728a2.227 2.227 0 00-.238 1.036V164h-1.4v-6.72h1.4v.91zm9.458 4.858c-.28.308-.667.569-1.162.784-.495.205-1.064.308-1.708.308a3.533 3.533 0 01-1.778-.462 3.4 3.4 0 01-1.26-1.26 3.532 3.532 0 01-.462-1.778c0-.644.154-1.232.462-1.764a3.433 3.433 0 011.246-1.26 3.258 3.258 0 011.722-.476c.625 0 1.185.145 1.68.434.504.28.896.672 1.176 1.176.29.495.434 1.055.434 1.68 0 .261-.023.495-.07.7h-5.18c.075.467.308.863.7 1.19.392.327.859.49 1.4.49.392 0 .756-.07 1.092-.21.345-.149.635-.327.868-.532l.84.98zm-1.12-3.108c-.112-.467-.327-.84-.644-1.12-.308-.28-.7-.42-1.176-.42-.504 0-.92.14-1.246.42-.327.271-.565.644-.714 1.12h3.78zm3.284 2.03c.205.252.462.467.77.644s.635.266.98.266c.364 0 .653-.084.868-.252.215-.168.322-.364.322-.588 0-.205-.103-.359-.308-.462-.196-.112-.523-.238-.98-.378a9.127 9.127 0 01-1.176-.42 2.25 2.25 0 01-.784-.616c-.215-.271-.322-.625-.322-1.064 0-.355.098-.681.294-.98.196-.299.48-.537.854-.714.373-.177.807-.266 1.302-.266.523 0 .99.089 1.4.266.42.177.747.392.98.644l-.91.91a1.979 1.979 0 00-.644-.392 2.01 2.01 0 00-.826-.168c-.327 0-.583.07-.77.21-.187.14-.28.303-.28.49 0 .205.098.364.294.476.205.103.537.224.994.364.476.14.863.28 1.162.42.308.14.57.345.784.616.224.271.336.625.336 1.064 0 .373-.107.723-.322 1.05-.205.317-.504.574-.896.77-.392.187-.85.28-1.372.28-.57 0-1.087-.121-1.554-.364a3.433 3.433 0 01-1.106-.896l.91-.91zm11.754.77c-.299.392-.7.723-1.204.994a3.41 3.41 0 01-1.666.406 3.533 3.533 0 01-1.778-.462 3.4 3.4 0 01-1.26-1.26 3.532 3.532 0 01-.462-1.778c0-.644.154-1.232.462-1.764a3.373 3.373 0 011.26-1.274 3.533 3.533 0 011.778-.462c.616 0 1.167.131 1.652.392.485.252.868.565 1.148.938l-.98.91a2.503 2.503 0 00-.77-.644 2.07 2.07 0 00-1.05-.266c-.392 0-.751.093-1.078.28a2.04 2.04 0 00-.756.784 2.28 2.28 0 00-.266 1.106c0 .411.089.784.266 1.12.187.327.439.583.756.77.327.187.686.28 1.078.28s.751-.093 1.078-.28a2.97 2.97 0 00.812-.7l.98.91zm2.723-4.55c.187-.252.434-.467.742-.644a2.175 2.175 0 011.078-.266h.56v1.26h-.56c-.326 0-.63.089-.91.266-.28.168-.504.411-.672.728a2.227 2.227 0 00-.238 1.036V164h-1.4v-6.72h1.4v.91zm3.575-3.01c0-.233.084-.429.252-.588a.837.837 0 01.588-.252.79.79 0 01.574.252.759.759 0 01.266.588.801.801 0 01-.266.602.812.812 0 01-.574.238.86.86 0 01-.588-.238.822.822 0 01-.252-.602zm1.54 2.1V164h-1.4v-6.72h1.4zm3.43.98c.215-.308.523-.569.924-.784.402-.224.864-.336 1.386-.336.56 0 1.078.154 1.554.462.486.299.873.714 1.162 1.246.29.532.434 1.129.434 1.792s-.144 1.26-.434 1.792c-.29.532-.676.952-1.162 1.26a2.866 2.866 0 01-1.554.448c-.522 0-.984-.107-1.386-.322-.401-.224-.71-.49-.924-.798v3.92h-1.4v-9.66h1.4v.98zm2.03 4.55c.374 0 .714-.093 1.022-.28.308-.187.55-.443.728-.77.187-.336.28-.709.28-1.12a2.19 2.19 0 00-.28-1.106 1.972 1.972 0 00-.728-.784 1.931 1.931 0 00-1.022-.28 1.93 1.93 0 00-1.022.28 2.073 2.073 0 00-.742.784 2.28 2.28 0 00-.266 1.106c0 .411.089.784.266 1.12a2.1 2.1 0 00.742.77c.308.187.649.28 1.022.28zm4.405-5.53h1.26v-2.24h1.4v2.24h1.75v1.33h-1.75v3.15c0 .336.08.574.238.714.159.131.406.196.742.196h.77V164h-1.05c-1.4 0-2.1-.7-2.1-2.1v-3.29h-1.26v-1.33zm6.013-2.1c0-.233.084-.429.252-.588a.837.837 0 01.588-.252.79.79 0 01.574.252.759.759 0 01.266.588.801.801 0 01-.266.602.812.812 0 01-.574.238.86.86 0 01-.588-.238.822.822 0 01-.252-.602zm1.54 2.1V164h-1.4v-6.72h1.4zm1.61 3.36c0-.644.154-1.232.462-1.764a3.373 3.373 0 011.26-1.274 3.533 3.533 0 011.778-.462c.644 0 1.232.154 1.764.462.542.308.966.733 1.274 1.274.308.532.462 1.12.462 1.764 0 .644-.154 1.237-.462 1.778a3.37 3.37 0 01-1.274 1.26 3.457 3.457 0 01-1.764.462 3.533 3.533 0 01-1.778-.462 3.4 3.4 0 01-1.26-1.26 3.532 3.532 0 01-.462-1.778zm3.5 2.17c.392 0 .747-.093 1.064-.28.327-.187.579-.443.756-.77.187-.336.28-.709.28-1.12a2.19 2.19 0 00-.28-1.106 1.915 1.915 0 00-.756-.784 2.056 2.056 0 00-1.064-.28c-.392 0-.751.093-1.078.28-.317.187-.57.448-.756.784a2.28 2.28 0 00-.266 1.106c0 .411.089.784.266 1.12.187.327.439.583.756.77.327.187.686.28 1.078.28zm6.441-4.55c.215-.308.504-.569.868-.784a2.303 2.303 0 011.232-.336c.514 0 .971.121 1.372.364.402.233.714.574.938 1.022.234.439.35.957.35 1.554V164h-1.4v-3.92c0-.485-.144-.873-.434-1.162-.28-.299-.648-.448-1.106-.448-.532 0-.97.177-1.316.532-.336.345-.504.798-.504 1.358V164h-1.4v-6.72h1.4v.98z" class="Field form label"/>
            </g>
          </g>
          <g class="Iconography/Glyphs/Large/Search">
            <path fill="#CDCED1" d="M346.912 202.032a1.327 1.327 0 01-1.876 1.878l-4.111-4.104a6.583 6.583 0 01-7.938-.508 6.6 6.6 0 01-2.166-3.739 6.617 6.617 0 01.609-4.279 6.595 6.595 0 013.123-2.984 6.59 6.59 0 017.925 1.932 6.605 6.605 0 011.403 4.087 6.474 6.474 0 01-1.08 3.6l4.111 4.117zm-6.348-9.898a3.916 3.916 0 00-6.028-.601 3.932 3.932 0 00.581 6.041 3.917 3.917 0 002.174.668h.013a3.909 3.909 0 003.92-3.927 3.93 3.93 0 00-.66-2.181z" class="Vector"/>
          </g>
        </g>
        <path stroke="#1169F5" stroke-width=".5" d="M74.25 181v30" class="Line 7"/>
        <g class="Results">
          <g class="Frame 1223">
            <g class="Frame 1225">
              <path fill="#25272E" d="M23.12 237.8l4.32 11.2h-2.56l-.96-2.56H19.6l-.96 2.56h-2.56l4.32-11.2h2.72zm-1.328 2.8h-.064l-1.328 3.68h2.72l-1.328-3.68zm12.284 7.28a3.225 3.225 0 01-1.008.912c-.427.245-.918.368-1.472.368-.619 0-1.2-.176-1.744-.528-.534-.352-.966-.837-1.296-1.456-.32-.619-.48-1.317-.48-2.096 0-.779.16-1.477.48-2.096.33-.619.762-1.104 1.296-1.456a3.154 3.154 0 011.744-.528c.554 0 1.045.128 1.472.384.426.245.762.544 1.008.896h.08v-4.48h2.16V249h-2.16v-1.12h-.08zm-1.84-.72c.565 0 1.04-.197 1.424-.592.384-.395.576-.891.576-1.488s-.192-1.093-.576-1.488a1.906 1.906 0 00-1.424-.592c-.566 0-1.04.197-1.424.592-.384.395-.576.891-.576 1.488s.192 1.093.576 1.488c.384.395.858.592 1.424.592zm11.762.72a3.225 3.225 0 01-1.008.912c-.427.245-.918.368-1.473.368-.618 0-1.2-.176-1.744-.528-.533-.352-.965-.837-1.296-1.456-.32-.619-.48-1.317-.48-2.096 0-.779.16-1.477.48-2.096.331-.619.763-1.104 1.297-1.456a3.154 3.154 0 011.743-.528c.555 0 1.046.128 1.472.384.427.245.763.544 1.009.896h.08v-4.48h2.16V249h-2.16v-1.12h-.08zm-1.84-.72c.565 0 1.04-.197 1.423-.592.384-.395.576-.891.576-1.488s-.191-1.093-.575-1.488a1.907 1.907 0 00-1.425-.592c-.565 0-1.04.197-1.423.592-.385.395-.577.891-.577 1.488s.193 1.093.577 1.488c.383.395.858.592 1.423.592zm13.281 1.088c-.362.256-.837.475-1.424.656a6.9 6.9 0 01-1.936.256 4.175 4.175 0 01-2.096-.544 4.23 4.23 0 01-1.52-1.488 4.03 4.03 0 01-.544-2.048c0-.736.182-1.413.544-2.032a4.15 4.15 0 011.488-1.488A3.946 3.946 0 0152 241c.704 0 1.355.176 1.952.528a3.886 3.886 0 011.44 1.44c.352.597.528 1.248.528 1.952 0 .352-.026.672-.08.96h-5.68c.128.395.363.72.704.976.352.256.811.384 1.376.384.448 0 .848-.048 1.2-.144a3.64 3.64 0 00.88-.368l1.12 1.52zm-1.76-3.968a2.027 2.027 0 00-.672-.96c-.309-.267-.672-.4-1.088-.4-.416 0-.784.133-1.104.4-.309.256-.528.576-.656.96h3.52zm6.005-2.24h.08c.15-.245.39-.453.72-.624.331-.171.747-.256 1.248-.256h.512v2.08h-.72c-.533 0-.976.192-1.328.576-.341.373-.512.875-.512 1.504V249h-2.16v-7.84h2.16v.88zm8.239 6c-.246.309-.571.576-.977.8-.394.213-.842.32-1.343.32-.715 0-1.296-.208-1.744-.624-.438-.427-.657-.965-.657-1.616 0-.661.209-1.227.625-1.696.426-.469.992-.741 1.695-.816l2.48-.24a1.52 1.52 0 00-.431-.864 1.231 1.231 0 00-.928-.384c-.363 0-.7.043-1.008.128-.31.075-.56.165-.753.272l-1.28-1.28c.342-.288.79-.533 1.345-.736a5.369 5.369 0 011.855-.304c.651 0 1.232.139 1.744.416.512.267.907.64 1.184 1.12.288.469.432.997.432 1.584V249h-2.16v-.96h-.08zm-1.68-2.288c-.267.011-.48.101-.64.272a.822.822 0 00-.24.576c0 .245.08.443.24.592.17.139.41.208.72.208.5 0 .906-.133 1.216-.4.309-.267.463-.651.463-1.152v-.16l-1.76.064zm8.006-7.952V249h-2.16v-11.2h2.16zm4.406 0V249h-2.16v-11.2h2.16z" class="Adderall"/>
              <path fill="#70747D" d="M290.121 269.97c.261.336.607.621 1.036.854.439.224.933.336 1.484.336.7 0 1.26-.205 1.68-.616.42-.411.63-.952.63-1.624 0-.663-.21-1.199-.63-1.61-.411-.42-.947-.63-1.61-.63-.485 0-.915.103-1.288.308a2.694 2.694 0 00-.882.742h-.77l.35-5.53h5.25v.98h-4.34l-.21 3.08c.215-.159.485-.289.812-.392a3.307 3.307 0 011.078-.168c.616 0 1.176.145 1.68.434.504.28.896.667 1.176 1.162.289.485.434 1.027.434 1.624 0 .625-.14 1.185-.42 1.68-.28.485-.677.863-1.19 1.134-.504.271-1.087.406-1.75.406-.709 0-1.344-.14-1.904-.42-.551-.289-.989-.639-1.316-1.05l.7-.7zm11.061.28c.187.271.434.504.742.7.308.187.644.28 1.008.28.476 0 .84-.103 1.092-.308.252-.215.378-.485.378-.812a.768.768 0 00-.392-.7c-.252-.159-.634-.313-1.148-.462-.457-.14-.826-.271-1.106-.392a2.029 2.029 0 01-.7-.56c-.196-.252-.294-.574-.294-.966 0-.327.094-.635.28-.924a2.16 2.16 0 01.798-.7 2.513 2.513 0 011.162-.266c.458 0 .873.089 1.246.266.383.177.691.392.924.644l-.7.7a1.723 1.723 0 00-.616-.49 1.727 1.727 0 00-.854-.21c-.373 0-.676.098-.91.294-.233.196-.35.425-.35.686 0 .289.122.509.364.658.243.14.621.285 1.134.434.458.14.826.275 1.106.406.29.131.532.327.728.588.206.252.308.583.308.994 0 .373-.098.714-.294 1.022-.196.308-.48.555-.854.742-.373.177-.807.266-1.302.266-.55 0-1.036-.112-1.456-.336a2.99 2.99 0 01-.994-.854l.7-.7zm5.246-4.97h1.26v-2.24h.98v2.24h1.82v.91h-1.82v3.99c0 .336.074.574.224.714.158.131.387.196.686.196h.91v.91h-.952c-.588 0-1.046-.149-1.372-.448-.318-.299-.476-.756-.476-1.372v-3.99h-1.26v-.91zm6.725.91c.177-.289.443-.537.798-.742.364-.205.798-.308 1.302-.308h.42v.98h-.42c-.374 0-.724.089-1.05.266a2.026 2.026 0 00-.77.77c-.187.327-.28.705-.28 1.134V272h-.98v-6.72h.98v.91zm9.379 4.802c-.298.317-.69.588-1.176.812a3.827 3.827 0 01-1.624.336 3.256 3.256 0 01-1.68-.462 3.583 3.583 0 01-1.232-1.274 3.548 3.548 0 01-.448-1.764 3.52 3.52 0 011.666-3.024 2.998 2.998 0 011.624-.476c.598 0 1.144.145 1.638.434.495.289.882.691 1.162 1.204.28.504.42 1.078.42 1.722 0 .177-.023.345-.07.504l-5.46-.014c.019.392.14.761.364 1.106.224.345.514.621.868.826.355.205.738.308 1.148.308.467 0 .887-.084 1.26-.252a2.87 2.87 0 00.91-.616l.63.63zm-.63-2.842c-.074-.607-.322-1.106-.742-1.498a2.064 2.064 0 00-1.498-.602c-.382 0-.742.098-1.078.294a2.453 2.453 0 00-.84.77 2.357 2.357 0 00-.392 1.036h4.55zm3.706-1.89a2.67 2.67 0 01.882-.784 2.452 2.452 0 011.288-.336c.532 0 1.003.117 1.414.35.42.233.742.569.966 1.008.233.429.35.933.35 1.512V272h-.98v-3.99c0-.588-.173-1.059-.518-1.414-.336-.364-.77-.546-1.302-.546-.392 0-.752.098-1.078.294a2.03 2.03 0 00-.756.784 2.444 2.444 0 00-.266 1.162V272h-.98v-6.72h.98v.98zm7.561 6.874c.233.252.537.462.91.63.383.177.803.266 1.26.266.42 0 .803-.107 1.148-.322.355-.215.635-.509.84-.882.215-.373.322-.789.322-1.246v-.77c-.196.289-.49.537-.882.742-.383.205-.835.308-1.358.308a2.983 2.983 0 01-1.596-.448 3.245 3.245 0 01-1.134-1.218 3.479 3.479 0 01-.42-1.694c0-.616.14-1.181.42-1.694.28-.513.658-.919 1.134-1.218a2.983 2.983 0 011.596-.448c.523 0 .975.103 1.358.308.392.205.686.453.882.742v-.91h.98v6.3c0 .616-.149 1.181-.448 1.694a3.243 3.243 0 01-1.19 1.218 3.18 3.18 0 01-1.652.448c-.616 0-1.167-.117-1.652-.35-.485-.224-.868-.499-1.148-.826l.63-.63zm2.24-2.184c.411 0 .789-.107 1.134-.322.345-.215.616-.509.812-.882a2.64 2.64 0 00.294-1.246 2.64 2.64 0 00-.294-1.246 2.252 2.252 0 00-.812-.882 2.102 2.102 0 00-1.134-.322c-.392 0-.756.107-1.092.322a2.325 2.325 0 00-.784.882 2.64 2.64 0 00-.294 1.246c0 .457.098.873.294 1.246.196.373.457.667.784.882.336.215.7.322 1.092.322zm4.761-5.67h1.26v-2.24h.98v2.24h1.82v.91h-1.82v3.99c0 .336.075.574.224.714.159.131.387.196.686.196h.91v.91h-.952c-.588 0-1.045-.149-1.372-.448-.317-.299-.476-.756-.476-1.372v-3.99h-1.26v-.91zm6.795.98a2.69 2.69 0 01.882-.784 2.454 2.454 0 011.288-.336c.532 0 1.003.117 1.414.35.42.233.742.569.966 1.008.233.429.35.933.35 1.512V272h-.98v-3.99c0-.588-.173-1.059-.518-1.414-.336-.364-.77-.546-1.302-.546-.392 0-.751.098-1.078.294a2.044 2.044 0 00-.756.784 2.456 2.456 0 00-.266 1.162V272h-.98v-9.8h.98v4.06zm7.209 3.99c.187.271.434.504.742.7.308.187.644.28 1.008.28.476 0 .84-.103 1.092-.308.252-.215.378-.485.378-.812a.768.768 0 00-.392-.7c-.252-.159-.634-.313-1.148-.462-.457-.14-.826-.271-1.106-.392a2.029 2.029 0 01-.7-.56c-.196-.252-.294-.574-.294-.966 0-.327.094-.635.28-.924a2.16 2.16 0 01.798-.7 2.513 2.513 0 011.162-.266c.458 0 .873.089 1.246.266.383.177.691.392.924.644l-.7.7a1.723 1.723 0 00-.616-.49 1.727 1.727 0 00-.854-.21c-.373 0-.676.098-.91.294-.233.196-.35.425-.35.686 0 .289.122.509.364.658.243.14.621.285 1.134.434.458.14.826.275 1.106.406.29.131.532.327.728.588.206.252.308.583.308.994 0 .373-.098.714-.294 1.022-.196.308-.48.555-.854.742-.373.177-.807.266-1.302.266-.55 0-1.036-.112-1.456-.336a2.99 2.99 0 01-.994-.854l.7-.7z" class="5 strengths"/>
              <path fill="#25272E" d="M16.84 267.1c0-.915.224-1.759.672-2.534a4.938 4.938 0 011.834-1.834 4.973 4.973 0 012.534-.672c.915 0 1.76.224 2.534.672a4.938 4.938 0 011.834 1.834c.448.775.672 1.619.672 2.534 0 .915-.224 1.759-.672 2.534a4.938 4.938 0 01-1.834 1.834 4.973 4.973 0 01-2.534.672c-.915 0-1.76-.224-2.534-.672a4.938 4.938 0 01-1.834-1.834 4.973 4.973 0 01-.672-2.534zm5.04 4.06a3.927 3.927 0 003.458-1.988 4.125 4.125 0 00.532-2.072 4.05 4.05 0 00-.532-2.058 3.9 3.9 0 00-3.458-2.002 3.9 3.9 0 00-3.458 2.002 4.05 4.05 0 00-.532 2.058c0 .756.177 1.447.532 2.072a3.927 3.927 0 003.458 1.988zm7.978-4.97c.177-.289.443-.537.798-.742.364-.205.798-.308 1.302-.308h.42v.98h-.42c-.373 0-.723.089-1.05.266a2.03 2.03 0 00-.77.77c-.187.327-.28.705-.28 1.134V272h-.98v-6.72h.98v.91zm7.906 4.9a2.688 2.688 0 01-.882.742 2.633 2.633 0 01-1.288.308c-.448 0-.854-.093-1.218-.28a2.264 2.264 0 01-.854-.728 1.695 1.695 0 01-.308-.952c0-.569.168-1.036.504-1.4.345-.364.83-.574 1.456-.63l2.59-.224c0-.327-.075-.635-.224-.924a1.656 1.656 0 00-.602-.686 1.45 1.45 0 00-.854-.266c-.392 0-.751.047-1.078.14a2.98 2.98 0 00-.812.35l-.63-.63c.28-.215.64-.397 1.078-.546.439-.149.92-.224 1.442-.224.504 0 .957.117 1.358.35.41.224.728.532.952.924.233.392.35.831.35 1.316V272h-.98v-.91zm-2.31-2.1c-.41.037-.723.163-.938.378a1.1 1.1 0 00-.322.812c0 .299.121.551.364.756.252.196.597.294 1.036.294.653 0 1.176-.177 1.568-.532.401-.364.602-.868.602-1.512v-.42l-2.31.224zm6.163-6.79v9.8h-.98v-9.8h.98zm9.518 0c.597 0 1.134.135 1.61.406.485.271.863.639 1.134 1.106.27.467.406.989.406 1.568 0 .579-.135 1.101-.406 1.568-.27.467-.649.835-1.134 1.106a3.196 3.196 0 01-1.61.406h-2.66V272h-1.05v-9.8h3.71zm0 5.18c.635 0 1.143-.191 1.526-.574.383-.392.574-.901.574-1.526 0-.635-.191-1.143-.574-1.526-.383-.383-.891-.574-1.526-.574h-2.66v4.2h2.66zm4.632-4.34c0-.177.06-.327.182-.448a.61.61 0 01.448-.182.61.61 0 01.448.182.609.609 0 01.182.448c0 .177-.06.327-.182.448a.61.61 0 01-.448.182.61.61 0 01-.448-.182.609.609 0 01-.182-.448zm1.12 2.24V272h-.98v-6.72h.98zm3.297-3.08v9.8h-.98v-9.8h.98zm3.363 0v9.8h-.98v-9.8h.98z" class="Oral Pill"/>
            </g>
            <g class="Divider/Hairline">
              <path fill="#F1F3F5" fill-rule="evenodd" d="M359 291H16v-1h343v1z" clip-rule="evenodd" style="mix-blend-mode:multiply"/>
            </g>
            <g class="Frame 1228">
              <path fill="#25272E" d="M23.12 308.8l4.32 11.2h-2.56l-.96-2.56H19.6l-.96 2.56h-2.56l4.32-11.2h2.72zm-1.328 2.8h-.064l-1.328 3.68h2.72l-1.328-3.68zm12.284 7.28a3.225 3.225 0 01-1.008.912c-.427.245-.918.368-1.472.368-.619 0-1.2-.176-1.744-.528-.534-.352-.966-.837-1.296-1.456-.32-.619-.48-1.317-.48-2.096 0-.779.16-1.477.48-2.096.33-.619.762-1.104 1.296-1.456a3.154 3.154 0 011.744-.528c.554 0 1.045.128 1.472.384.426.245.762.544 1.008.896h.08v-4.48h2.16V320h-2.16v-1.12h-.08zm-1.84-.72c.565 0 1.04-.197 1.424-.592.384-.395.576-.891.576-1.488s-.192-1.093-.576-1.488a1.906 1.906 0 00-1.424-.592c-.566 0-1.04.197-1.424.592-.384.395-.576.891-.576 1.488s.192 1.093.576 1.488c.384.395.858.592 1.424.592zm11.762.72a3.225 3.225 0 01-1.008.912c-.427.245-.918.368-1.473.368-.618 0-1.2-.176-1.744-.528-.533-.352-.965-.837-1.296-1.456-.32-.619-.48-1.317-.48-2.096 0-.779.16-1.477.48-2.096.331-.619.763-1.104 1.297-1.456a3.154 3.154 0 011.743-.528c.555 0 1.046.128 1.472.384.427.245.763.544 1.009.896h.08v-4.48h2.16V320h-2.16v-1.12h-.08zm-1.84-.72c.565 0 1.04-.197 1.423-.592.384-.395.576-.891.576-1.488s-.191-1.093-.575-1.488a1.907 1.907 0 00-1.425-.592c-.565 0-1.04.197-1.423.592-.385.395-.577.891-.577 1.488s.193 1.093.577 1.488c.383.395.858.592 1.423.592zm13.281 1.088c-.362.256-.837.475-1.424.656a6.9 6.9 0 01-1.936.256 4.175 4.175 0 01-2.096-.544 4.23 4.23 0 01-1.52-1.488 4.03 4.03 0 01-.544-2.048c0-.736.182-1.413.544-2.032a4.15 4.15 0 011.488-1.488A3.946 3.946 0 0152 312c.704 0 1.355.176 1.952.528a3.886 3.886 0 011.44 1.44c.352.597.528 1.248.528 1.952 0 .352-.026.672-.08.96h-5.68c.128.395.363.72.704.976.352.256.811.384 1.376.384.448 0 .848-.048 1.2-.144a3.64 3.64 0 00.88-.368l1.12 1.52zm-1.76-3.968a2.027 2.027 0 00-.672-.96c-.309-.267-.672-.4-1.088-.4-.416 0-.784.133-1.104.4-.309.256-.528.576-.656.96h3.52zm6.005-2.24h.08c.15-.245.39-.453.72-.624.331-.171.747-.256 1.248-.256h.512v2.08h-.72c-.533 0-.976.192-1.328.576-.341.373-.512.875-.512 1.504V320h-2.16v-7.84h2.16v.88zm8.239 6c-.246.309-.571.576-.977.8-.394.213-.842.32-1.343.32-.715 0-1.296-.208-1.744-.624-.438-.427-.657-.965-.657-1.616 0-.661.209-1.227.625-1.696.426-.469.992-.741 1.695-.816l2.48-.24a1.52 1.52 0 00-.431-.864 1.231 1.231 0 00-.928-.384c-.363 0-.7.043-1.008.128-.31.075-.56.165-.753.272l-1.28-1.28c.342-.288.79-.533 1.345-.736a5.369 5.369 0 011.855-.304c.651 0 1.232.139 1.744.416.512.267.907.64 1.184 1.12.288.469.432.997.432 1.584V320h-2.16v-.96h-.08zm-1.68-2.288c-.267.011-.48.101-.64.272a.822.822 0 00-.24.576c0 .245.08.443.24.592.17.139.41.208.72.208.5 0 .906-.133 1.216-.4.309-.267.463-.651.463-1.152v-.16l-1.76.064zm8.006-7.952V320h-2.16v-11.2h2.16zm4.406 0V320h-2.16v-11.2h2.16zm4.65 0h2.8l2.287 3.68h.064l2.288-3.68h2.8l-3.52 5.36 3.84 5.84h-2.8l-2.608-4.16h-.064L85.784 320h-2.8l3.84-5.84-3.52-5.36zm16.954 0c.79 0 1.478.16 2.064.48a3.265 3.265 0 011.376 1.312c.32.565.48 1.221.48 1.968 0 .843-.186 1.541-.56 2.096-.373.555-.826.949-1.36 1.184l2.32 4.16h-2.64l-2-3.68H97.7V320h-2.4v-11.2h4.96zm-.08 5.28c.438 0 .8-.144 1.088-.432.288-.288.432-.651.432-1.088 0-.437-.144-.8-.432-1.088-.288-.288-.65-.432-1.088-.432h-2.48v3.04h2.48z" class="Adderall XR"/>
              <path fill="#70747D" d="M290.134 340.97c.261.336.616.621 1.064.854.448.224.956.336 1.526.336.709 0 1.269-.177 1.68-.532.42-.364.63-.817.63-1.358a1.64 1.64 0 00-.294-.938 1.917 1.917 0 00-.812-.686c-.346-.177-.747-.266-1.204-.266h-.98v-.98h.98c.588 0 1.05-.159 1.386-.476.336-.317.504-.742.504-1.274a1.45 1.45 0 00-.518-1.148c-.336-.308-.794-.462-1.372-.462-.486 0-.924.112-1.316.336a2.943 2.943 0 00-.924.784l-.7-.77c.298-.373.7-.686 1.204-.938.513-.261 1.092-.392 1.736-.392a3.26 3.26 0 011.526.35c.448.233.793.551 1.036.952.252.392.378.821.378 1.288 0 .551-.145 1.013-.434 1.386a2.37 2.37 0 01-1.036.784c.504.149.933.429 1.288.84.354.411.532.947.532 1.61 0 .495-.136.961-.406 1.4-.271.439-.658.793-1.162 1.064-.495.271-1.069.406-1.722.406-.738 0-1.391-.14-1.96-.42-.56-.289-1.004-.639-1.33-1.05l.7-.7zm11.048.28c.187.271.434.504.742.7.308.187.644.28 1.008.28.476 0 .84-.103 1.092-.308.252-.215.378-.485.378-.812a.768.768 0 00-.392-.7c-.252-.159-.634-.313-1.148-.462-.457-.14-.826-.271-1.106-.392a2.029 2.029 0 01-.7-.56c-.196-.252-.294-.574-.294-.966 0-.327.094-.635.28-.924a2.16 2.16 0 01.798-.7 2.513 2.513 0 011.162-.266c.458 0 .873.089 1.246.266.383.177.691.392.924.644l-.7.7a1.723 1.723 0 00-.616-.49 1.727 1.727 0 00-.854-.21c-.373 0-.676.098-.91.294-.233.196-.35.425-.35.686 0 .289.122.509.364.658.243.14.621.285 1.134.434.458.14.826.275 1.106.406.29.131.532.327.728.588.206.252.308.583.308.994 0 .373-.098.714-.294 1.022-.196.308-.48.555-.854.742-.373.177-.807.266-1.302.266-.55 0-1.036-.112-1.456-.336a2.99 2.99 0 01-.994-.854l.7-.7zm5.246-4.97h1.26v-2.24h.98v2.24h1.82v.91h-1.82v3.99c0 .336.074.574.224.714.158.131.387.196.686.196h.91v.91h-.952c-.588 0-1.046-.149-1.372-.448-.318-.299-.476-.756-.476-1.372v-3.99h-1.26v-.91zm6.725.91c.177-.289.443-.537.798-.742.364-.205.798-.308 1.302-.308h.42v.98h-.42c-.374 0-.724.089-1.05.266a2.026 2.026 0 00-.77.77c-.187.327-.28.705-.28 1.134V343h-.98v-6.72h.98v.91zm9.379 4.802c-.298.317-.69.588-1.176.812a3.827 3.827 0 01-1.624.336 3.256 3.256 0 01-1.68-.462 3.583 3.583 0 01-1.232-1.274 3.548 3.548 0 01-.448-1.764 3.52 3.52 0 011.666-3.024 2.998 2.998 0 011.624-.476c.598 0 1.144.145 1.638.434.495.289.882.691 1.162 1.204.28.504.42 1.078.42 1.722 0 .177-.023.345-.07.504l-5.46-.014c.019.392.14.761.364 1.106.224.345.514.621.868.826.355.205.738.308 1.148.308.467 0 .887-.084 1.26-.252a2.87 2.87 0 00.91-.616l.63.63zm-.63-2.842c-.074-.607-.322-1.106-.742-1.498a2.064 2.064 0 00-1.498-.602c-.382 0-.742.098-1.078.294a2.453 2.453 0 00-.84.77 2.357 2.357 0 00-.392 1.036h4.55zm3.706-1.89a2.67 2.67 0 01.882-.784 2.452 2.452 0 011.288-.336c.532 0 1.003.117 1.414.35.42.233.742.569.966 1.008.233.429.35.933.35 1.512V343h-.98v-3.99c0-.588-.173-1.059-.518-1.414-.336-.364-.77-.546-1.302-.546-.392 0-.752.098-1.078.294a2.03 2.03 0 00-.756.784 2.444 2.444 0 00-.266 1.162V343h-.98v-6.72h.98v.98zm7.561 6.874c.233.252.537.462.91.63.383.177.803.266 1.26.266.42 0 .803-.107 1.148-.322.355-.215.635-.509.84-.882.215-.373.322-.789.322-1.246v-.77c-.196.289-.49.537-.882.742-.383.205-.835.308-1.358.308a2.983 2.983 0 01-1.596-.448 3.245 3.245 0 01-1.134-1.218 3.479 3.479 0 01-.42-1.694c0-.616.14-1.181.42-1.694.28-.513.658-.919 1.134-1.218a2.983 2.983 0 011.596-.448c.523 0 .975.103 1.358.308.392.205.686.453.882.742v-.91h.98v6.3c0 .616-.149 1.181-.448 1.694a3.243 3.243 0 01-1.19 1.218 3.18 3.18 0 01-1.652.448c-.616 0-1.167-.117-1.652-.35-.485-.224-.868-.499-1.148-.826l.63-.63zm2.24-2.184c.411 0 .789-.107 1.134-.322.345-.215.616-.509.812-.882a2.64 2.64 0 00.294-1.246 2.64 2.64 0 00-.294-1.246 2.252 2.252 0 00-.812-.882 2.102 2.102 0 00-1.134-.322c-.392 0-.756.107-1.092.322a2.325 2.325 0 00-.784.882 2.64 2.64 0 00-.294 1.246c0 .457.098.873.294 1.246.196.373.457.667.784.882.336.215.7.322 1.092.322zm4.761-5.67h1.26v-2.24h.98v2.24h1.82v.91h-1.82v3.99c0 .336.075.574.224.714.159.131.387.196.686.196h.91v.91h-.952c-.588 0-1.045-.149-1.372-.448-.317-.299-.476-.756-.476-1.372v-3.99h-1.26v-.91zm6.795.98a2.69 2.69 0 01.882-.784 2.454 2.454 0 011.288-.336c.532 0 1.003.117 1.414.35.42.233.742.569.966 1.008.233.429.35.933.35 1.512V343h-.98v-3.99c0-.588-.173-1.059-.518-1.414-.336-.364-.77-.546-1.302-.546-.392 0-.751.098-1.078.294a2.044 2.044 0 00-.756.784 2.456 2.456 0 00-.266 1.162V343h-.98v-9.8h.98v4.06zm7.209 3.99c.187.271.434.504.742.7.308.187.644.28 1.008.28.476 0 .84-.103 1.092-.308.252-.215.378-.485.378-.812a.768.768 0 00-.392-.7c-.252-.159-.634-.313-1.148-.462-.457-.14-.826-.271-1.106-.392a2.029 2.029 0 01-.7-.56c-.196-.252-.294-.574-.294-.966 0-.327.094-.635.28-.924a2.16 2.16 0 01.798-.7 2.513 2.513 0 011.162-.266c.458 0 .873.089 1.246.266.383.177.691.392.924.644l-.7.7a1.723 1.723 0 00-.616-.49 1.727 1.727 0 00-.854-.21c-.373 0-.676.098-.91.294-.233.196-.35.425-.35.686 0 .289.122.509.364.658.243.14.621.285 1.134.434.458.14.826.275 1.106.406.29.131.532.327.728.588.206.252.308.583.308.994 0 .373-.098.714-.294 1.022-.196.308-.48.555-.854.742-.373.177-.807.266-1.302.266-.55 0-1.036-.112-1.456-.336a2.99 2.99 0 01-.994-.854l.7-.7z" class="3 strengths"/>
              <path fill="#25272E" d="M16.84 338.1c0-.915.224-1.759.672-2.534a4.938 4.938 0 011.834-1.834 4.973 4.973 0 012.534-.672c.915 0 1.76.224 2.534.672a4.938 4.938 0 011.834 1.834c.448.775.672 1.619.672 2.534 0 .915-.224 1.759-.672 2.534a4.938 4.938 0 01-1.834 1.834 4.973 4.973 0 01-2.534.672c-.915 0-1.76-.224-2.534-.672a4.938 4.938 0 01-1.834-1.834 4.973 4.973 0 01-.672-2.534zm5.04 4.06a3.927 3.927 0 003.458-1.988 4.125 4.125 0 00.532-2.072 4.05 4.05 0 00-.532-2.058 3.9 3.9 0 00-3.458-2.002 3.9 3.9 0 00-3.458 2.002 4.05 4.05 0 00-.532 2.058c0 .756.177 1.447.532 2.072a3.927 3.927 0 003.458 1.988zm7.978-4.97c.177-.289.443-.537.798-.742.364-.205.798-.308 1.302-.308h.42v.98h-.42c-.373 0-.723.089-1.05.266a2.03 2.03 0 00-.77.77c-.187.327-.28.705-.28 1.134V343h-.98v-6.72h.98v.91zm7.906 4.9a2.688 2.688 0 01-.882.742 2.633 2.633 0 01-1.288.308c-.448 0-.854-.093-1.218-.28a2.264 2.264 0 01-.854-.728 1.695 1.695 0 01-.308-.952c0-.569.168-1.036.504-1.4.345-.364.83-.574 1.456-.63l2.59-.224c0-.327-.075-.635-.224-.924a1.656 1.656 0 00-.602-.686 1.45 1.45 0 00-.854-.266c-.392 0-.751.047-1.078.14a2.98 2.98 0 00-.812.35l-.63-.63c.28-.215.64-.397 1.078-.546.439-.149.92-.224 1.442-.224.504 0 .957.117 1.358.35.41.224.728.532.952.924.233.392.35.831.35 1.316V343h-.98v-.91zm-2.31-2.1c-.41.037-.723.163-.938.378a1.1 1.1 0 00-.322.812c0 .299.121.551.364.756.252.196.597.294 1.036.294.653 0 1.176-.177 1.568-.532.401-.364.602-.868.602-1.512v-.42l-2.31.224zm6.163-6.79v9.8h-.98v-9.8h.98zm9.518 0c.597 0 1.134.135 1.61.406.485.271.863.639 1.134 1.106.27.467.406.989.406 1.568 0 .579-.135 1.101-.406 1.568-.27.467-.649.835-1.134 1.106a3.196 3.196 0 01-1.61.406h-2.66V343h-1.05v-9.8h3.71zm0 5.18c.635 0 1.143-.191 1.526-.574.383-.392.574-.901.574-1.526 0-.635-.191-1.143-.574-1.526-.383-.383-.891-.574-1.526-.574h-2.66v4.2h2.66zm4.632-4.34c0-.177.06-.327.182-.448a.61.61 0 01.448-.182.61.61 0 01.448.182.609.609 0 01.182.448c0 .177-.06.327-.182.448a.61.61 0 01-.448.182.61.61 0 01-.448-.182.609.609 0 01-.182-.448zm1.12 2.24V343h-.98v-6.72h.98zm3.297-3.08v9.8h-.98v-9.8h.98zm3.363 0v9.8h-.98v-9.8h.98z" class="Oral Pill_2"/>
            </g>
          </g>
        </g>
      </g>
    </g>
    <g class="Cluster">
      <g class="Battery">
        <path stroke="#000" d="M336.496 19.965c0-1.196.97-2.166 2.167-2.166h16.666c1.196 0 2.167.97 2.167 2.166v5.979a2.167 2.167 0 01-2.167 2.167h-16.666a2.167 2.167 0 01-2.167-2.167v-5.979z" class="Rectangle_2" opacity=".35"/>
        <path fill="#000" d="M358.996 20.959v3.992a2.167 2.167 0 001.328-1.996c0-.871-.524-1.658-1.328-1.996z" class="Combined Shape" opacity=".4"/>
        <path fill="#000" d="M337.996 20.628c0-.736.597-1.333 1.333-1.333h15.333c.737 0 1.334.597 1.334 1.333v4.653c0 .736-.597 1.333-1.334 1.333h-15.333a1.333 1.333 0 01-1.333-1.333v-4.653z" class="Rectangle_3"/>
      </g>
      <path fill="#000" fill-rule="evenodd" d="M323.327 19.57c2.216 0 4.347.85 5.953 2.374a.308.308 0 00.433-.004l1.156-1.164a.32.32 0 00-.003-.455c-4.215-4.032-10.864-4.032-15.079 0a.32.32 0 00-.003.455l1.156 1.164c.119.12.312.121.433.004a8.65 8.65 0 015.954-2.374zm0 3.788c1.217 0 2.391.452 3.294 1.268a.31.31 0 00.433-.006l1.155-1.165a.32.32 0 00.093-.23.318.318 0 00-.098-.228 7.169 7.169 0 00-9.752 0 .32.32 0 00-.004.458l1.154 1.165a.31.31 0 00.433.006 4.913 4.913 0 013.292-1.268zm2.313 2.55a.311.311 0 01-.094.23l-1.997 2.011a.314.314 0 01-.444 0l-1.997-2.012a.312.312 0 01.009-.456 3.426 3.426 0 014.419 0c.065.058.102.14.104.226z" class="Wifi" clip-rule="evenodd"/>
      <path fill="#000" fill-rule="evenodd" d="M309.663 17.633h-1a1 1 0 00-1 .998v8.65a1 1 0 001 .998h1c.553 0 1-.447 1-.998v-8.65a.999.999 0 00-1-.998zm-5.666 2.329h1a1 1 0 011 .998v6.321a1 1 0 01-1 .998h-1a1 1 0 01-1-.998V20.96a1 1 0 011-.998zm-3.667 2.329h-1a1 1 0 00-1 .998v3.992a1 1 0 001 .998h1c.553 0 1-.447 1-.998V23.29a.999.999 0 00-1-.998zm-4.666 1.996h-1a1 1 0 00-1 .998v1.996a1 1 0 001 .998h1a1 1 0 001-.998v-1.996a1 1 0 00-1-.998z" class="Mobile Signal" clip-rule="evenodd"/>
    </g>
    <g class="Time Style">
      <path fill="#000" d="M33.842 20.539v.021h1.772v-.029c0-1.047.82-1.823 1.92-1.823 1.047 0 1.83.695 1.83 1.567 0 .79-.33 1.333-1.53 2.556l-3.89 3.867v1.275h7.427v-1.546h-4.907v-.036l2.615-2.586c1.384-1.399 2.131-2.35 2.131-3.61 0-1.715-1.509-3.004-3.618-3.004-2.19 0-3.75 1.4-3.75 3.348zm9.888 5.888a1.04 1.04 0 001.047-1.054 1.04 1.04 0 00-1.047-1.055c-.593 0-1.055.461-1.055 1.055 0 .593.462 1.054 1.055 1.054zm0-5.288c.586 0 1.047-.469 1.047-1.055a1.04 1.04 0 00-1.047-1.054c-.593 0-1.055.461-1.055 1.054 0 .586.462 1.055 1.055 1.055zm6.49 7.046c2.585 0 4.123-2.131 4.123-5.515s-1.553-5.479-4.124-5.479c-2.578 0-4.138 2.11-4.138 5.486 0 3.391 1.546 5.508 4.138 5.508zm0-1.545c-1.407 0-2.234-1.48-2.234-3.97 0-2.446.842-3.933 2.233-3.933 1.385 0 2.212 1.472 2.212 3.94 0 2.49-.813 3.963-2.212 3.963zm5.53 1.333h1.977l4.52-8.994v-1.575h-7.354v1.545h5.493v.037l-4.637 8.987z" class="9:41"/>
    </g>
    <g class=".Navigation primitives/L1–2/Native/Nav bar (black)">
      <g class="Right">
        <g class="Navigation UI/Secondary/Native/Help">
          <g class="Vector_2">
            <path fill="#25272E" d="M351 75.5a9.5 9.5 0 009.5-9.5 9.5 9.5 0 00-9.5-9.5 9.5 9.5 0 00-9.5 9.5 9.5 9.5 0 009.5 9.5zm0 1.5c-6.075 0-11-4.925-11-11s4.925-11 11-11 11 4.925 11 11-4.925 11-11 11z"/>
            <path fill="#25272E" d="M349.81 67.573c0-2.03 2.38-2.03 2.38-3.52a1.136 1.136 0 00-.807-1.008 1.14 1.14 0 00-.453-.042 1.719 1.719 0 00-1.68 1.15l-1.75-.77a3.56 3.56 0 013.5-2.38c2.07 0 3.36 1.32 3.36 2.79 0 2.59-2.52 2.59-2.52 4.41h-1.89a2.067 2.067 0 01-.14-.63zm-.14 2.52a1.085 1.085 0 01.33-.782 1.083 1.083 0 01.79-.308 1.119 1.119 0 11-1.12 1.09z"/>
          </g>
        </g>
      </g>
      <g class="Left">
        <g class="Navigation UI/Secondary/Native/Back">
          <path fill="#25272E" fill-rule="evenodd" d="M27.002 57.36l-8.157 7.831c-.46.44-.46 1.176 0 1.619l8.157 7.83a1.292 1.292 0 101.79-1.865l-6.832-6.559a.299.299 0 010-.433l6.833-6.56a1.293 1.293 0 00-1.79-1.864z" class="Back" clip-rule="evenodd"/>
        </g>
      </g>
    </g>
    <g class="Explorer Step Dot/Complete">
      <circle cx="141.5" cy="63.5" r="2.5" fill="#03948C" class="Dot"/>
    </g>
    <g class="Explorer Step Dot/Complete_2">
      <circle cx="154.5" cy="63.5" r="2.5" fill="#03948C" class="Dot_2"/>
    </g>
    <g class="Explorer Step Dot/Complete_3">
      <circle cx="167.5" cy="63.5" r="2.5" fill="#03948C" class="Dot_3"/>
    </g>
    <g class="Explorer Step Dot/Complete_4">
      <circle cx="180.5" cy="63.5" r="2.5" fill="#03948C" class="Dot_4"/>
    </g>
    <g class="Explorer Step Dot/Complete_5">
      <circle cx="193.5" cy="63.5" r="2.5" fill="#03948C" class="Dot_5"/>
    </g>
    <g class="Explorer Step Dot/Complete_6">
      <circle cx="206.5" cy="63.5" r="2.5" fill="#03948C" class="Dot_6"/>
    </g>
    <g class="Explorer Step Dot/Current">
      <circle cx="219.5" cy="63.5" r="4" fill="#03948C" class="Grande Dot"/>
    </g>
    <g class="Explorer Step Dot/Upcoming">
      <circle cx="232.5" cy="63.5" r="2.5" fill="#CEE1E5" class="Dot_7"/>
    </g>
    <path fill="#D2D5DB" fill-rule="evenodd" d="M0 521h375v291H0V521z" class="background" clip-rule="evenodd"/>
    <g class="Return">
      <g class="Key" filter="url(#filter1_d)">
        <path fill="#ACB4BE" fill-rule="evenodd" d="M284 696a5 5 0 015-5h78a5 5 0 015 5v32a5 5 0 01-5 5h-78a5 5 0 01-5-5v-32z" clip-rule="evenodd"/>
      </g>
      <path fill="#161616" d="M306.922 716h1.359v-5.211c0-1.187.719-1.984 1.813-1.984.336 0 .633.039.742.078v-1.336a3.016 3.016 0 00-.563-.047c-.984 0-1.789.562-2.039 1.445h-.031v-1.367h-1.281V716zm7.727-7.305c1.328 0 2.234.953 2.265 2.383h-4.632c.093-1.422 1.046-2.383 2.367-2.383zm2.234 4.899c-.242.789-1.062 1.289-2.117 1.289-1.5 0-2.484-1.039-2.484-2.641v-.078h6.046v-.531c0-2.547-1.406-4.133-3.656-4.133-2.297 0-3.797 1.711-3.797 4.32 0 2.61 1.492 4.258 3.86 4.258 1.797 0 3.257-1.039 3.492-2.484h-1.344zm3-7.914v1.898h-1.171v1.125h1.171v5.109c0 1.618.594 2.25 2.118 2.25.32 0 .711-.031.875-.07v-1.148a5.82 5.82 0 01-.586.039c-.719 0-1.047-.352-1.047-1.125v-5.055h1.64v-1.125h-1.64v-1.898h-1.36zm11.055 1.898h-1.359v4.891c0 1.445-.836 2.398-2.219 2.398-1.32 0-1.968-.742-1.968-2.125v-5.164h-1.36v5.399c0 1.914 1.071 3.101 2.914 3.101 1.289 0 2.157-.5 2.68-1.469h.031V716h1.281v-8.422zM332.47 716h1.359v-5.211c0-1.187.719-1.984 1.813-1.984.336 0 .633.039.742.078v-1.336a3.013 3.013 0 00-.562-.047c-.985 0-1.79.562-2.04 1.445h-.031v-1.367h-1.281V716zm4.758 0h1.359v-4.891c0-1.445.836-2.398 2.219-2.398 1.328 0 1.969.75 1.969 2.125V716h1.359v-5.398c0-1.914-1.07-3.102-2.922-3.102-1.304 0-2.14.492-2.671 1.445h-.032v-1.367h-1.281V716z" class="return"/>
    </g>
    <g class="Space">
      <g class="Key_2" filter="url(#filter2_d)">
        <path fill="#fff" fill-rule="evenodd" d="M96 696a5 5 0 015-5h172a5 5 0 015 5v32a5 5 0 01-5 5H101a5 5 0 01-5-5v-32z" clip-rule="evenodd"/>
      </g>
      <path fill="#000" d="M168.167 709.93c0 1.125.719 1.867 2.195 2.25l1.477.382c.961.25 1.313.563 1.313 1.157 0 .758-.719 1.234-1.868 1.234-1.148 0-1.843-.461-1.984-1.32h-1.367c.133 1.461 1.445 2.445 3.258 2.445 1.945 0 3.328-1.016 3.328-2.453 0-1.227-.61-1.82-2.313-2.25l-1.281-.32c-.969-.243-1.422-.625-1.422-1.196 0-.734.695-1.226 1.734-1.226 1.032 0 1.719.492 1.805 1.281h1.305c-.055-1.383-1.352-2.406-3.063-2.406-1.828 0-3.117 1-3.117 2.422zm11.555-2.43c-1.164 0-2.234.57-2.726 1.445h-.032v-1.367h-1.289v11.234h1.36v-4.179h.031c.531.922 1.492 1.445 2.687 1.445 2.125 0 3.579-1.719 3.579-4.289 0-2.57-1.461-4.289-3.61-4.289zm-.25 7.367c-1.453 0-2.445-1.242-2.445-3.078 0-1.828.992-3.078 2.445-3.078 1.485 0 2.469 1.219 2.469 3.078 0 1.867-.984 3.078-2.469 3.078zm7.727.031c-1.062 0-1.742-.507-1.742-1.289 0-.812.656-1.273 1.922-1.351l2.203-.141v.68c0 1.211-1.008 2.101-2.383 2.101zm-.289 1.18c1.18 0 2.234-.601 2.711-1.539h.031V716h1.289v-5.781c0-1.657-1.281-2.719-3.273-2.719-1.766 0-3.149 1.086-3.188 2.508h1.305c.164-.797.891-1.297 1.867-1.297 1.242 0 1.93.578 1.93 1.625v.703l-2.36.141c-2.046.125-3.156.976-3.156 2.422 0 1.492 1.133 2.476 2.844 2.476zm12.477-5.758c-.172-1.476-1.445-2.82-3.531-2.82-2.305 0-3.844 1.703-3.844 4.289 0 2.649 1.547 4.289 3.859 4.289 1.922 0 3.305-1.133 3.532-2.773h-1.336c-.235 1.015-1.016 1.562-2.188 1.562-1.469 0-2.484-1.164-2.484-3.078 0-1.859 1-3.078 2.468-3.078 1.266 0 2.016.711 2.188 1.609h1.336zm4.36-1.625c1.328 0 2.234.953 2.265 2.383h-4.633c.094-1.422 1.047-2.383 2.368-2.383zm2.234 4.899c-.242.789-1.063 1.289-2.117 1.289-1.5 0-2.485-1.039-2.485-2.641v-.078h6.047v-.531c0-2.547-1.406-4.133-3.656-4.133-2.297 0-3.797 1.711-3.797 4.32 0 2.61 1.492 4.258 3.86 4.258 1.796 0 3.257-1.039 3.492-2.484h-1.344z" class="space"/>
    </g>
    <g class="123">
      <g class="Key_3" filter="url(#filter3_d)">
        <path fill="#ACB4BE" fill-rule="evenodd" d="M3 696a5 5 0 015-5h77a5 5 0 015 5v32a5 5 0 01-5 5H8a5 5 0 01-5-5v-32z" clip-rule="evenodd"/>
      </g>
      <path fill="#000" d="M37.957 716h1.359v-11.273H37.94l-3 2.156v1.484l2.984-2.148h.032V716zm3.828-8.023v.007h1.36v-.007c0-1.258 1-2.211 2.32-2.211 1.242 0 2.234.867 2.234 1.953 0 .937-.36 1.539-1.875 3.133l-3.969 4.179V716h7.438v-1.25H43.8v-.031l2.851-2.946c1.883-1.945 2.453-2.882 2.453-4.14 0-1.727-1.586-3.094-3.601-3.094-2.125 0-3.719 1.469-3.719 3.438zm11.11 2.82h1.414c1.61 0 2.61.82 2.61 2.148 0 1.18-1.071 2.024-2.563 2.024-1.516 0-2.477-.797-2.602-1.953h-1.351c.101 1.867 1.609 3.172 3.968 3.172 2.211 0 3.977-1.352 3.977-3.29 0-1.586-1.094-2.64-2.797-2.742v-.031c1.406-.25 2.312-1.266 2.312-2.68 0-1.695-1.523-2.906-3.539-2.906-2.117 0-3.539 1.227-3.695 3.141h1.352c.125-1.18.984-1.922 2.28-1.922 1.43 0 2.188.758 2.188 1.875 0 1.14-.906 1.976-2.203 1.976h-1.351v1.188z" class="123_2"/>
    </g>
    <g class="Backspace">
      <g class="Key_4" filter="url(#filter4_d)">
        <path fill="#ACB4BE" fill-rule="evenodd" d="M330 644a5 5 0 015-5h32a5 5 0 015 5v32a5 5 0 01-5 5h-32a5 5 0 01-5-5v-32z" clip-rule="evenodd"/>
      </g>
      <path stroke="#000" d="M361.5 665.933c0 .881-.689 1.567-1.498 1.567h-11.795l-7.5-7.5 7.5-7.5h11.795c.811 0 1.498.689 1.498 1.567v11.866z" class="Path"/>
      <path fill="#000" fill-rule="evenodd" d="M353.5 659.293l-3.182-3.182-.707.707 3.182 3.182-3.182 3.182.707.708 3.182-3.182 3.182 3.182.707-.708-3.182-3.182 3.182-3.182-.707-.707-3.182 3.182z" class="Path_2" clip-rule="evenodd"/>
    </g>
    <g class="m">
      <g class="Key_5" filter="url(#filter5_d)">
        <path fill="#fff" fill-rule="evenodd" d="M284 644a5 5 0 015-5h22a5 5 0 015 5v32a5 5 0 01-5 5h-22a5 5 0 01-5-5v-32z" clip-rule="evenodd"/>
      </g>
      <path fill="#000" d="M291.768 667h1.954v-7.513c0-1.696 1.191-2.965 2.808-2.965 1.516 0 2.515.966 2.515 2.426V667H301v-7.614c0-1.662 1.156-2.864 2.773-2.864 1.618 0 2.55.988 2.55 2.662V667h1.954v-8.266c0-2.403-1.55-3.953-3.942-3.953-1.696 0-3.122.854-3.807 2.291h-.045c-.528-1.46-1.752-2.291-3.392-2.291-1.572 0-2.863.786-3.436 2.078h-.045v-1.965h-1.842V667z" class="l"/>
    </g>
    <g class="n">
      <g class="Key_6" filter="url(#filter6_d)">
        <path fill="#fff" fill-rule="evenodd" d="M246.5 644a5 5 0 015-5h22a5 5 0 015 5v32a5 5 0 01-5 5h-22a5 5 0 01-5-5v-32z" clip-rule="evenodd"/>
      </g>
      <path fill="#000" d="M258.059 667h1.954v-7.03c0-2.078 1.201-3.448 3.189-3.448 1.909 0 2.83 1.078 2.83 3.055V667h1.954v-7.76c0-2.752-1.538-4.459-4.2-4.459-1.875 0-3.077.708-3.841 2.078h-.045v-1.965h-1.841V667z" class="k"/>
    </g>
    <g class="b">
      <g class="Key_7" filter="url(#filter7_d)">
        <path fill="#fff" fill-rule="evenodd" d="M209 644a5 5 0 015-5h22a5 5 0 015 5v32a5 5 0 01-5 5h-22a5 5 0 01-5-5v-32z" clip-rule="evenodd"/>
      </g>
      <path fill="#000" d="M225.685 667.112c3.088 0 5.166-2.459 5.166-6.165 0-3.695-2.078-6.166-5.121-6.166-1.718 0-3.122.753-3.886 2.078h-.045v-6.772h-1.954V667h1.853v-2.044h.045c.786 1.393 2.179 2.156 3.942 2.156zm-.348-10.59c2.122 0 3.515 1.741 3.515 4.425 0 2.695-1.393 4.425-3.515 4.425-2.111 0-3.549-1.797-3.549-4.425 0-2.617 1.438-4.425 3.549-4.425z" class="j"/>
    </g>
    <g class="v">
      <g class="Key_8" filter="url(#filter8_d)">
        <path fill="#fff" fill-rule="evenodd" d="M171.5 644a5 5 0 015-5h22a5 5 0 015 5v32a5 5 0 01-5 5h-22a5 5 0 01-5-5v-32z" clip-rule="evenodd"/>
      </g>
      <path fill="#000" d="M192.958 654.894h-2.033l-3.403 9.995h-.044l-3.392-9.995h-2.044l4.47 12.106h1.976l4.47-12.106z" class="h"/>
    </g>
    <g class="c">
      <g class="Key_9" filter="url(#filter9_d)">
        <path fill="#fff" fill-rule="evenodd" d="M134 644a5 5 0 015-5h22a5 5 0 015 5v32a5 5 0 01-5 5h-22a5 5 0 01-5-5v-32z" clip-rule="evenodd"/>
      </g>
      <path fill="#000" d="M155.379 658.835c-.247-2.122-2.077-4.054-5.076-4.054-3.313 0-5.525 2.448-5.525 6.166 0 3.807 2.223 6.165 5.548 6.165 2.762 0 4.75-1.628 5.076-3.987h-1.921c-.336 1.46-1.46 2.247-3.144 2.247-2.111 0-3.571-1.674-3.571-4.425 0-2.673 1.437-4.425 3.548-4.425 1.82 0 2.898 1.022 3.145 2.313h1.92z" class="g"/>
    </g>
    <g class="x">
      <g class="Key_10" filter="url(#filter10_d)">
        <path fill="#fff" fill-rule="evenodd" d="M96.5 644a5 5 0 015-5h22a5 5 0 015 5v32a5 5 0 01-5 5h-22a5 5 0 01-5-5v-32z" clip-rule="evenodd"/>
      </g>
      <path fill="#000" d="M112.5 662.362l2.931 4.638h2.179l-4.043-6.132 4.099-5.974h-2.179l-2.92 4.57h-.045l-2.953-4.57h-2.179l4.077 6.053-4.144 6.053h2.178l2.954-4.638h.045z" class="f"/>
    </g>
    <g class="z">
      <g class="Key_11" filter="url(#filter11_d)">
        <path fill="#fff" fill-rule="evenodd" d="M59 644a5 5 0 015-5h22a5 5 0 015 5v32a5 5 0 01-5 5H64a5 5 0 01-5-5v-32z" clip-rule="evenodd"/>
      </g>
      <path fill="#000" d="M70.508 667h8.984v-1.617h-6.738v-.034l6.704-9.007v-1.448H70.52v1.617h6.738v.033l-6.75 9.041V667z" class="d"/>
    </g>
    <g class="Shift">
      <g class="Key_12" filter="url(#filter12_d)">
        <path fill="#ACB4BE" fill-rule="evenodd" d="M3 644a5 5 0 015-5h32a5 5 0 015 5v32a5 5 0 01-5 5H8a5 5 0 01-5-5v-32z" clip-rule="evenodd"/>
      </g>
      <path stroke="#000" d="M27.645 661.359l4.411.007c.551.001.679-.315.288-.706l-8.366-8.367a1 1 0 00-1.417.002l-8.332 8.333c-.396.395-.264.709.286.71l4.13.007v4.18c0 1.103.894 1.999 1.997 1.999h5.005a2 2 0 001.998-1.999v-4.166 0z" class="Path 2458" clip-rule="evenodd"/>
    </g>
    <g class="l_2">
      <g class="Key_13" filter="url(#filter13_d)">
        <path fill="#fff" fill-rule="evenodd" d="M321.5 590a5 5 0 015-5h22a5 5 0 015 5v32a5 5 0 01-5 5h-22a5 5 0 01-5-5v-32z" clip-rule="evenodd"/>
      </g>
      <path fill="#000" d="M337.023 613h1.954v-16.913h-1.954V613z" class="l_3"/>
    </g>
    <g class="k_2">
      <g class="Key_14" filter="url(#filter14_d)">
        <path fill="#fff" fill-rule="evenodd" d="M284 590a5 5 0 015-5h22a5 5 0 015 5v32a5 5 0 01-5 5h-22a5 5 0 01-5-5v-32z" clip-rule="evenodd"/>
      </g>
      <path fill="#000" d="M297.63 606.307v-10.22h-1.954V613h1.954v-4.593l1.146-1.078 4.548 5.671h2.269l-5.447-6.873 5.29-5.233h-2.381l-5.425 5.413z" class="k_3"/>
    </g>
    <g class="j_2">
      <g class="Key_15" filter="url(#filter15_d)">
        <path fill="#fff" fill-rule="evenodd" d="M246.5 590a5 5 0 015-5h22a5 5 0 015 5v32a5 5 0 01-5 5h-22a5 5 0 01-5-5v-32z" clip-rule="evenodd"/>
      </g>
      <path fill="#000" d="M263.977 600.894h-1.954v12.735c0 1.37-.483 1.875-1.808 1.875h-.303v1.651h.348c2.572 0 3.717-1.1 3.717-3.56v-12.701zm-.977-1.955c.685 0 1.235-.561 1.235-1.235 0-.685-.55-1.235-1.235-1.235-.674 0-1.235.55-1.235 1.235 0 .674.561 1.235 1.235 1.235z" class="j_3"/>
    </g>
    <g class="h_2">
      <g class="Key_16" filter="url(#filter16_d)">
        <path fill="#fff" fill-rule="evenodd" d="M209 590a5 5 0 015-5h22a5 5 0 015 5v32a5 5 0 01-5 5h-22a5 5 0 01-5-5v-32z" clip-rule="evenodd"/>
      </g>
      <path fill="#000" d="M220.525 613h1.954v-6.963c0-2.122 1.258-3.515 3.302-3.515 1.92 0 2.897 1.168 2.897 3.1V613h1.954v-7.727c0-2.695-1.617-4.492-4.267-4.492-1.853 0-3.089.708-3.841 2.078h-.045v-6.772h-1.954V613z" class="h_3"/>
    </g>
    <g class="g_2">
      <g class="Key_17" filter="url(#filter17_d)">
        <path fill="#fff" fill-rule="evenodd" d="M171.5 590a5 5 0 015-5h22a5 5 0 015 5v32a5 5 0 01-5 5h-22a5 5 0 01-5-5v-32z" clip-rule="evenodd"/>
      </g>
      <path fill="#000" d="M187.186 611.259c-2.112 0-3.493-1.718-3.493-4.357 0-2.651 1.381-4.38 3.493-4.38 2.122 0 3.56 1.774 3.56 4.38 0 2.594-1.438 4.357-3.56 4.357zm.033 6.065c3.403 0 5.481-1.763 5.481-4.661v-11.769h-1.865v1.965h-.033c-.809-1.325-2.235-2.078-3.942-2.078-3.111 0-5.166 2.426-5.166 6.121 0 3.661 2.055 6.098 5.121 6.098 1.696 0 3.122-.764 3.886-2.078h.045v1.898c0 1.719-1.326 2.808-3.414 2.808-1.595 0-2.797-.629-3.089-1.64h-2.033c.281 2.011 2.269 3.336 5.009 3.336z" class="g_3"/>
    </g>
    <g class="f_2">
      <g class="Key_18" filter="url(#filter18_d)">
        <path fill="#fff" fill-rule="evenodd" d="M134 590a5 5 0 015-5h22a5 5 0 015 5v32a5 5 0 01-5 5h-22a5 5 0 01-5-5v-32z" clip-rule="evenodd"/>
      </g>
      <path fill="#000" d="M148.428 613h1.954v-10.489h2.358v-1.617h-2.358v-1.123c.011-1.135.438-1.606 1.449-1.606.303 0 .651.033.909.089v-1.617a5.891 5.891 0 00-1.089-.101c-2.246 0-3.223 1-3.223 3.235v1.123h-1.685v1.617h1.685V613z" class="f_3"/>
    </g>
    <g class="d_2">
      <g class="Key_19" filter="url(#filter19_d)">
        <path fill="#fff" fill-rule="evenodd" d="M96.5 590a5 5 0 015-5h22a5 5 0 015 5v32a5 5 0 01-5 5h-22a5 5 0 01-5-5v-32z" clip-rule="evenodd"/>
      </g>
      <path fill="#000" d="M111.826 613.112c1.752 0 3.133-.763 3.92-2.156h.033V613h1.865v-16.913h-1.955v6.772h-.044c-.742-1.325-2.134-2.078-3.864-2.078-3.01 0-5.143 2.471-5.143 6.166 0 3.695 2.145 6.165 5.188 6.165zm.348-10.59c2.1 0 3.527 1.797 3.527 4.425 0 2.639-1.427 4.425-3.527 4.425-2.122 0-3.537-1.741-3.537-4.425 0-2.673 1.415-4.425 3.537-4.425z" class="d_3"/>
    </g>
    <g class="s">
      <g class="Key_20" filter="url(#filter20_d)">
        <path fill="#fff" fill-rule="evenodd" d="M59.5 590a5 5 0 015-5h22a5 5 0 015 5v32a5 5 0 01-5 5h-22a5 5 0 01-5-5v-32z" clip-rule="evenodd"/>
      </g>
      <path fill="#000" d="M71.098 604.274c0 1.617 1.033 2.684 3.155 3.234l2.123.551c1.381.359 1.887.808 1.887 1.662 0 1.089-1.034 1.774-2.684 1.774-1.651 0-2.65-.662-2.853-1.898h-1.965c.19 2.1 2.077 3.515 4.683 3.515 2.796 0 4.784-1.46 4.784-3.526 0-1.763-.876-2.617-3.324-3.234l-1.842-.461c-1.393-.348-2.044-.898-2.044-1.718 0-1.056 1-1.763 2.493-1.763 1.483 0 2.47.707 2.595 1.841h1.875c-.079-1.987-1.943-3.459-4.402-3.459-2.628 0-4.481 1.438-4.481 3.482z" class="s_2"/>
    </g>
    <g class="a">
      <g class="Key_21" filter="url(#filter21_d)">
        <path fill="#fff" fill-rule="evenodd" d="M22 590a5 5 0 015-5h22a5 5 0 015 5v32a5 5 0 01-5 5H27a5 5 0 01-5-5v-32z" clip-rule="evenodd"/>
      </g>
      <path fill="#000" d="M37.315 611.417c-1.527 0-2.505-.73-2.505-1.854 0-1.167.944-1.83 2.763-1.942l3.167-.203v.978c0 1.74-1.449 3.021-3.425 3.021zm-.416 1.695c1.696 0 3.212-.864 3.897-2.212h.045v2.1h1.853v-8.311c0-2.38-1.842-3.908-4.705-3.908-2.538 0-4.526 1.561-4.582 3.605h1.875c.236-1.145 1.28-1.864 2.684-1.864 1.786 0 2.774.831 2.774 2.336v1.011l-3.391.202c-2.943.179-4.537 1.404-4.537 3.481 0 2.145 1.628 3.56 4.087 3.56z" class="a_2"/>
    </g>
    <g class="p">
      <g class="Key_22" filter="url(#filter22_d)">
        <path fill="#fff" fill-rule="evenodd" d="M340 536a5 5 0 015-5h22a5 5 0 015 5v32a5 5 0 01-5 5h-22a5 5 0 01-5-5v-32z" clip-rule="evenodd"/>
      </g>
      <path fill="#000" d="M356.606 546.781c-1.673 0-3.211.82-3.919 2.078h-.045v-1.965h-1.853v16.149h1.954v-6.008h.045c.764 1.325 2.145 2.077 3.863 2.077 3.055 0 5.144-2.47 5.144-6.165s-2.1-6.166-5.189-6.166zm-.359 10.591c-2.089 0-3.515-1.786-3.515-4.425 0-2.628 1.426-4.425 3.515-4.425 2.134 0 3.549 1.752 3.549 4.425 0 2.684-1.415 4.425-3.549 4.425z" class="p_2"/>
    </g>
    <g class="o">
      <g class="Key_23" filter="url(#filter23_d)">
        <path fill="#fff" fill-rule="evenodd" d="M302.5 536a5 5 0 015-5h22a5 5 0 015 5v32a5 5 0 01-5 5h-22a5 5 0 01-5-5v-32z" clip-rule="evenodd"/>
      </g>
      <path fill="#000" d="M319 559.112c3.403 0 5.582-2.414 5.582-6.165 0-3.762-2.179-6.166-5.582-6.166s-5.582 2.404-5.582 6.166c0 3.751 2.179 6.165 5.582 6.165zm0-1.74c-2.246 0-3.594-1.651-3.594-4.425s1.337-4.425 3.594-4.425c2.257 0 3.594 1.64 3.594 4.425 0 2.774-1.337 4.425-3.594 4.425z" class="o_2"/>
    </g>
    <g class="i">
      <g class="Key_24" filter="url(#filter24_d)">
        <path fill="#fff" fill-rule="evenodd" d="M265 536a5 5 0 015-5h22a5 5 0 015 5v32a5 5 0 01-5 5h-22a5 5 0 01-5-5v-32z" clip-rule="evenodd"/>
      </g>
      <path fill="#000" d="M280.523 559h1.954v-12.106h-1.954V559zm.977-14.061c.685 0 1.235-.561 1.235-1.235 0-.685-.55-1.235-1.235-1.235-.674 0-1.235.55-1.235 1.235 0 .674.561 1.235 1.235 1.235z" class="i_2"/>
    </g>
    <g class="u">
      <g class="Key_25" filter="url(#filter25_d)">
        <path fill="#fff" fill-rule="evenodd" d="M227.5 536a5 5 0 015-5h22a5 5 0 015 5v32a5 5 0 01-5 5h-22a5 5 0 01-5-5v-32z" clip-rule="evenodd"/>
      </g>
      <path fill="#000" d="M248.93 546.894h-1.954v7.03c0 2.077-1.202 3.448-3.189 3.448-1.898 0-2.83-1.067-2.83-3.055v-7.423h-1.955v7.76c0 2.751 1.539 4.458 4.189 4.458 1.853 0 3.1-.718 3.852-2.111h.045V559h1.842v-12.106z" class="u_2"/>
    </g>
    <g class="y">
      <g class="Key_26" filter="url(#filter26_d)">
        <path fill="#fff" fill-rule="evenodd" d="M190 536a5 5 0 015-5h22a5 5 0 015 5v32a5 5 0 01-5 5h-22a5 5 0 01-5-5v-32z" clip-rule="evenodd"/>
      </g>
      <path fill="#000" d="M202.597 563.391c2.145 0 3.111-.842 4.144-3.65l4.739-12.847h-2.055l-3.391 10.118h-.045l-3.392-10.118h-2.077l4.48 12.117-.235.719c-.494 1.46-1.101 1.999-2.224 1.999-.258 0-.573-.022-.797-.067v1.65c.235.045.606.079.853.079z" class="y_2"/>
    </g>
    <g class="t">
      <g class="Key_27" filter="url(#filter27_d)">
        <path fill="#fff" fill-rule="evenodd" d="M152.5 536a5 5 0 015-5h22a5 5 0 015 5v32a5 5 0 01-5 5h-22a5 5 0 01-5-5v-32z" clip-rule="evenodd"/>
      </g>
      <path fill="#000" d="M166.905 544.165v2.729h-1.684v1.617h1.684v7.344c0 2.325.854 3.235 3.044 3.235.46 0 1.022-.045 1.258-.101v-1.651a8.247 8.247 0 01-.843.056c-1.033 0-1.505-.505-1.505-1.617v-7.266h2.359v-1.617h-2.359v-2.729h-1.954z" class="t_2"/>
    </g>
    <g class="r">
      <g class="Key_28" filter="url(#filter28_d)">
        <path fill="#fff" fill-rule="evenodd" d="M115 536a5 5 0 015-5h22a5 5 0 015 5v32a5 5 0 01-5 5h-22a5 5 0 01-5-5v-32z" clip-rule="evenodd"/>
      </g>
      <path fill="#000" d="M128.675 559h1.954v-7.491c0-1.707 1.034-2.852 2.606-2.852.483 0 .91.056 1.067.112v-1.92a4.387 4.387 0 00-.809-.068c-1.415 0-2.572.809-2.931 2.078h-.045v-1.965h-1.842V559z" class="r_2"/>
    </g>
    <g class="e">
      <g class="Key_29" filter="url(#filter29_d)">
        <path fill="#fff" fill-rule="evenodd" d="M77.5 536a5 5 0 015-5h22a5 5 0 015 5v32a5 5 0 01-5 5h-22a5 5 0 01-5-5v-32z" clip-rule="evenodd"/>
      </g>
      <path fill="#000" d="M94.067 548.5c1.91 0 3.212 1.37 3.257 3.425h-6.66c.135-2.044 1.505-3.425 3.403-3.425zm3.212 7.041c-.348 1.134-1.527 1.853-3.043 1.853-2.156 0-3.571-1.494-3.571-3.796v-.112h8.692v-.764c0-3.661-2.022-5.941-5.256-5.941-3.302 0-5.458 2.46-5.458 6.211 0 3.751 2.145 6.12 5.548 6.12 2.583 0 4.683-1.493 5.02-3.571h-1.932z" class="e_2"/>
    </g>
    <g class="w">
      <g class="Key_30" filter="url(#filter30_d)">
        <path fill="#fff" fill-rule="evenodd" d="M40.5 536a5 5 0 015-5h22a5 5 0 015 5v32a5 5 0 01-5 5h-22a5 5 0 01-5-5v-32z" clip-rule="evenodd"/>
      </g>
      <path fill="#000" d="M65.153 546.894h-1.931l-2.46 9.894h-.045l-2.774-9.894h-1.886l-2.774 9.894h-.045l-2.46-9.894h-1.931L52.238 559h1.977l2.762-9.411h.046L59.785 559h1.977l3.391-12.106z" class="w_2"/>
    </g>
    <g class="q">
      <g class="Key_31" filter="url(#filter31_d)">
        <path fill="#fff" fill-rule="evenodd" d="M3 536a5 5 0 015-5h22a5 5 0 015 5v32a5 5 0 01-5 5H8a5 5 0 01-5-5v-32z" clip-rule="evenodd"/>
      </g>
      <path fill="#000" d="M18.36 546.781c-3.088 0-5.166 2.46-5.166 6.166 0 3.695 2.077 6.165 5.12 6.165 1.708 0 3.123-.752 3.887-2.077h.045v6.008H24.2v-16.149h-1.865v1.965h-.033c-.775-1.337-2.19-2.078-3.942-2.078zm.326 10.591c-2.112 0-3.493-1.73-3.493-4.425 0-2.684 1.381-4.425 3.493-4.425 2.11 0 3.56 1.808 3.56 4.425 0 2.628-1.45 4.425-3.56 4.425z" class="q_2"/>
    </g>
    <path fill="#50555C" fill-rule="evenodd" d="M330.833 772.333a.833.833 0 01.83.915v2.295h-.005v.006a.36.36 0 00.003.047l.002.043v.314h.015a5.87 5.87 0 005.646 5.376h.336a5.866 5.866 0 005.647-5.376h.02v-2.777h.006v-.01a.833.833 0 111.664.071v2.046h-.01a7.555 7.555 0 01-6.66 7.506v2.534h3.14v.01h.033a.833.833 0 010 1.666h-8a.833.833 0 010-1.666h.03v-.01h3.147v-2.534a7.546 7.546 0 01-6.677-7.506c0-.02.002-.039.003-.058a.344.344 0 00.003-.046v-1.91a.833.833 0 01.827-.936zm11.16 1.546c0 .504 0 1.034-.026 1.537-.021.454-.09.904-.207 1.343a4.374 4.374 0 01-1.583 2.307 4.327 4.327 0 01-5.36 0 4.336 4.336 0 01-1.584-2.307 6.227 6.227 0 01-.207-1.343c-.029-.503-.026-1.033-.026-1.537v-4.213c0-.5.003-2.71 0-3.083a4.8 4.8 0 01.233-1.344 4.427 4.427 0 018.528 0c.125.439.203.889.233 1.344.03.503 0 2.583 0 3.083v4.213h-.001zm-1.666.787c0 .32-.007.427-.027.747-.011.29-.055.579-.13.86a2.808 2.808 0 01-.99 1.486 2.74 2.74 0 01-3.363 0 2.8 2.8 0 01-.994-1.486 4.178 4.178 0 01-.13-.86 11.64 11.64 0 01-.02-.747c0-4.433-.02-7.72.007-8.073.019-.291.067-.579.143-.86.16-.591.509-1.113.994-1.487a2.74 2.74 0 013.363 0c.483.375.83.897.99 1.487.085.28.138.568.16.86.023.38-.003 3.626-.003 8.073z" class="Dictation" clip-rule="evenodd"/>
    <path fill="#50555C" fill-rule="evenodd" d="M37.75 761c7.318 0 13.25 5.932 13.25 13.25s-5.932 13.25-13.25 13.25-13.25-5.932-13.25-13.25S30.432 761 37.75 761zm0 1.544c6.465 0 11.706 5.242 11.705 11.707 0 6.465-5.242 11.706-11.707 11.705-6.465 0-11.706-5.241-11.706-11.706a11.706 11.706 0 0111.708-11.706zm-4.192 5.959a1.526 1.526 0 00-1.548 1.533 1.548 1.548 0 103.096 0 1.528 1.528 0 00-1.548-1.533zm13.022 8.029c-.705 3.813-4.385 6.996-8.832 6.996-4.41 0-8.069-3.137-8.816-6.906-.151-.941.62-1.163 1.345-.987a25.801 25.801 0 007.473 1.013 25.827 25.827 0 007.456-1.01c.706-.179 1.462.023 1.374.894zm-2.395.53c-.069.027-.139.047-.21.07-.007.003.226-.073.22-.07-2.096.577-4.261.857-6.434.832-2.593 0-4.912-.288-6.508-.862-1.157-.344-.935 1.017-.122 1.435a15.574 15.574 0 006.63 1.398c2.718 0 5.141-.633 6.741-1.451.758-.487.907-1.792-.317-1.352zm-2.235-8.559a1.526 1.526 0 00-1.548 1.533 1.547 1.547 0 103.096 0 1.529 1.529 0 00-1.548-1.533z" class="Emoji" clip-rule="evenodd"/>
    <g class="iOS/Home Bar/Black">
      <path fill="#000" fill-rule="evenodd" d="M121 800.5a2.5 2.5 0 012.5-2.5h129a2.5 2.5 0 110 5h-129a2.5 2.5 0 01-2.5-2.5z" class="Rectangle_4" clip-rule="evenodd"/>
    </g>
  </g>
  <defs>
    <filter id="filter0_d" width="447" height="479" x="-36" y="78" class="filter0_d" color-interpolation-filters="sRGB" filterUnits="userSpaceOnUse">
      <feFlood flood-opacity="0" result="BackgroundImageFix"/>
      <feColorMatrix in="SourceAlpha" values="0 0 0 0 0 0 0 0 0 0 0 0 0 0 0 0 0 0 127 0"/>
      <feMorphology in="SourceAlpha" operator="dilate" radius="4" result="effect1_dropShadow"/>
      <feOffset/>
      <feGaussianBlur stdDeviation="16"/>
      <feColorMatrix values="0 0 0 0 0.4056 0 0 0 0 0.500104 0 0 0 0 0.52 0 0 0 0.12 0"/>
      <feBlend in2="BackgroundImageFix" mode="multiply" result="effect1_dropShadow"/>
      <feBlend in="SourceGraphic" in2="effect1_dropShadow" result="shape"/>
    </filter>
    <filter id="filter1_d" width="88" height="43" x="284" y="691" class="filter1_d" color-interpolation-filters="sRGB" filterUnits="userSpaceOnUse">
      <feFlood flood-opacity="0" result="BackgroundImageFix"/>
      <feColorMatrix in="SourceAlpha" values="0 0 0 0 0 0 0 0 0 0 0 0 0 0 0 0 0 0 127 0"/>
      <feOffset dy="1"/>
      <feColorMatrix values="0 0 0 0 0 0 0 0 0 0 0 0 0 0 0 0 0 0 0.25 0"/>
      <feBlend in2="BackgroundImageFix" result="effect1_dropShadow"/>
      <feBlend in="SourceGraphic" in2="effect1_dropShadow" result="shape"/>
    </filter>
    <filter id="filter2_d" width="182" height="43" x="96" y="691" class="filter2_d" color-interpolation-filters="sRGB" filterUnits="userSpaceOnUse">
      <feFlood flood-opacity="0" result="BackgroundImageFix"/>
      <feColorMatrix in="SourceAlpha" values="0 0 0 0 0 0 0 0 0 0 0 0 0 0 0 0 0 0 127 0"/>
      <feOffset dy="1"/>
      <feColorMatrix values="0 0 0 0 0 0 0 0 0 0 0 0 0 0 0 0 0 0 0.25 0"/>
      <feBlend in2="BackgroundImageFix" result="effect1_dropShadow"/>
      <feBlend in="SourceGraphic" in2="effect1_dropShadow" result="shape"/>
    </filter>
    <filter id="filter3_d" width="87" height="43" x="3" y="691" class="filter3_d" color-interpolation-filters="sRGB" filterUnits="userSpaceOnUse">
      <feFlood flood-opacity="0" result="BackgroundImageFix"/>
      <feColorMatrix in="SourceAlpha" values="0 0 0 0 0 0 0 0 0 0 0 0 0 0 0 0 0 0 127 0"/>
      <feOffset dy="1"/>
      <feColorMatrix values="0 0 0 0 0 0 0 0 0 0 0 0 0 0 0 0 0 0 0.25 0"/>
      <feBlend in2="BackgroundImageFix" result="effect1_dropShadow"/>
      <feBlend in="SourceGraphic" in2="effect1_dropShadow" result="shape"/>
    </filter>
    <filter id="filter4_d" width="42" height="43" x="330" y="639" class="filter4_d" color-interpolation-filters="sRGB" filterUnits="userSpaceOnUse">
      <feFlood flood-opacity="0" result="BackgroundImageFix"/>
      <feColorMatrix in="SourceAlpha" values="0 0 0 0 0 0 0 0 0 0 0 0 0 0 0 0 0 0 127 0"/>
      <feOffset dy="1"/>
      <feColorMatrix values="0 0 0 0 0 0 0 0 0 0 0 0 0 0 0 0 0 0 0.25 0"/>
      <feBlend in2="BackgroundImageFix" result="effect1_dropShadow"/>
      <feBlend in="SourceGraphic" in2="effect1_dropShadow" result="shape"/>
    </filter>
    <filter id="filter5_d" width="32" height="43" x="284" y="639" class="filter5_d" color-interpolation-filters="sRGB" filterUnits="userSpaceOnUse">
      <feFlood flood-opacity="0" result="BackgroundImageFix"/>
      <feColorMatrix in="SourceAlpha" values="0 0 0 0 0 0 0 0 0 0 0 0 0 0 0 0 0 0 127 0"/>
      <feOffset dy="1"/>
      <feColorMatrix values="0 0 0 0 0 0 0 0 0 0 0 0 0 0 0 0 0 0 0.25 0"/>
      <feBlend in2="BackgroundImageFix" result="effect1_dropShadow"/>
      <feBlend in="SourceGraphic" in2="effect1_dropShadow" result="shape"/>
    </filter>
    <filter id="filter6_d" width="32" height="43" x="246.5" y="639" class="filter6_d" color-interpolation-filters="sRGB" filterUnits="userSpaceOnUse">
      <feFlood flood-opacity="0" result="BackgroundImageFix"/>
      <feColorMatrix in="SourceAlpha" values="0 0 0 0 0 0 0 0 0 0 0 0 0 0 0 0 0 0 127 0"/>
      <feOffset dy="1"/>
      <feColorMatrix values="0 0 0 0 0 0 0 0 0 0 0 0 0 0 0 0 0 0 0.25 0"/>
      <feBlend in2="BackgroundImageFix" result="effect1_dropShadow"/>
      <feBlend in="SourceGraphic" in2="effect1_dropShadow" result="shape"/>
    </filter>
    <filter id="filter7_d" width="32" height="43" x="209" y="639" class="filter7_d" color-interpolation-filters="sRGB" filterUnits="userSpaceOnUse">
      <feFlood flood-opacity="0" result="BackgroundImageFix"/>
      <feColorMatrix in="SourceAlpha" values="0 0 0 0 0 0 0 0 0 0 0 0 0 0 0 0 0 0 127 0"/>
      <feOffset dy="1"/>
      <feColorMatrix values="0 0 0 0 0 0 0 0 0 0 0 0 0 0 0 0 0 0 0.25 0"/>
      <feBlend in2="BackgroundImageFix" result="effect1_dropShadow"/>
      <feBlend in="SourceGraphic" in2="effect1_dropShadow" result="shape"/>
    </filter>
    <filter id="filter8_d" width="32" height="43" x="171.5" y="639" class="filter8_d" color-interpolation-filters="sRGB" filterUnits="userSpaceOnUse">
      <feFlood flood-opacity="0" result="BackgroundImageFix"/>
      <feColorMatrix in="SourceAlpha" values="0 0 0 0 0 0 0 0 0 0 0 0 0 0 0 0 0 0 127 0"/>
      <feOffset dy="1"/>
      <feColorMatrix values="0 0 0 0 0 0 0 0 0 0 0 0 0 0 0 0 0 0 0.25 0"/>
      <feBlend in2="BackgroundImageFix" result="effect1_dropShadow"/>
      <feBlend in="SourceGraphic" in2="effect1_dropShadow" result="shape"/>
    </filter>
    <filter id="filter9_d" width="32" height="43" x="134" y="639" class="filter9_d" color-interpolation-filters="sRGB" filterUnits="userSpaceOnUse">
      <feFlood flood-opacity="0" result="BackgroundImageFix"/>
      <feColorMatrix in="SourceAlpha" values="0 0 0 0 0 0 0 0 0 0 0 0 0 0 0 0 0 0 127 0"/>
      <feOffset dy="1"/>
      <feColorMatrix values="0 0 0 0 0 0 0 0 0 0 0 0 0 0 0 0 0 0 0.25 0"/>
      <feBlend in2="BackgroundImageFix" result="effect1_dropShadow"/>
      <feBlend in="SourceGraphic" in2="effect1_dropShadow" result="shape"/>
    </filter>
    <filter id="filter10_d" width="32" height="43" x="96.5" y="639" class="filter10_d" color-interpolation-filters="sRGB" filterUnits="userSpaceOnUse">
      <feFlood flood-opacity="0" result="BackgroundImageFix"/>
      <feColorMatrix in="SourceAlpha" values="0 0 0 0 0 0 0 0 0 0 0 0 0 0 0 0 0 0 127 0"/>
      <feOffset dy="1"/>
      <feColorMatrix values="0 0 0 0 0 0 0 0 0 0 0 0 0 0 0 0 0 0 0.25 0"/>
      <feBlend in2="BackgroundImageFix" result="effect1_dropShadow"/>
      <feBlend in="SourceGraphic" in2="effect1_dropShadow" result="shape"/>
    </filter>
    <filter id="filter11_d" width="32" height="43" x="59" y="639" class="filter11_d" color-interpolation-filters="sRGB" filterUnits="userSpaceOnUse">
      <feFlood flood-opacity="0" result="BackgroundImageFix"/>
      <feColorMatrix in="SourceAlpha" values="0 0 0 0 0 0 0 0 0 0 0 0 0 0 0 0 0 0 127 0"/>
      <feOffset dy="1"/>
      <feColorMatrix values="0 0 0 0 0 0 0 0 0 0 0 0 0 0 0 0 0 0 0.25 0"/>
      <feBlend in2="BackgroundImageFix" result="effect1_dropShadow"/>
      <feBlend in="SourceGraphic" in2="effect1_dropShadow" result="shape"/>
    </filter>
    <filter id="filter12_d" width="42" height="43" x="3" y="639" class="filter12_d" color-interpolation-filters="sRGB" filterUnits="userSpaceOnUse">
      <feFlood flood-opacity="0" result="BackgroundImageFix"/>
      <feColorMatrix in="SourceAlpha" values="0 0 0 0 0 0 0 0 0 0 0 0 0 0 0 0 0 0 127 0"/>
      <feOffset dy="1"/>
      <feColorMatrix values="0 0 0 0 0 0 0 0 0 0 0 0 0 0 0 0 0 0 0.25 0"/>
      <feBlend in2="BackgroundImageFix" result="effect1_dropShadow"/>
      <feBlend in="SourceGraphic" in2="effect1_dropShadow" result="shape"/>
    </filter>
    <filter id="filter13_d" width="32" height="43" x="321.5" y="585" class="filter13_d" color-interpolation-filters="sRGB" filterUnits="userSpaceOnUse">
      <feFlood flood-opacity="0" result="BackgroundImageFix"/>
      <feColorMatrix in="SourceAlpha" values="0 0 0 0 0 0 0 0 0 0 0 0 0 0 0 0 0 0 127 0"/>
      <feOffset dy="1"/>
      <feColorMatrix values="0 0 0 0 0 0 0 0 0 0 0 0 0 0 0 0 0 0 0.25 0"/>
      <feBlend in2="BackgroundImageFix" result="effect1_dropShadow"/>
      <feBlend in="SourceGraphic" in2="effect1_dropShadow" result="shape"/>
    </filter>
    <filter id="filter14_d" width="32" height="43" x="284" y="585" class="filter14_d" color-interpolation-filters="sRGB" filterUnits="userSpaceOnUse">
      <feFlood flood-opacity="0" result="BackgroundImageFix"/>
      <feColorMatrix in="SourceAlpha" values="0 0 0 0 0 0 0 0 0 0 0 0 0 0 0 0 0 0 127 0"/>
      <feOffset dy="1"/>
      <feColorMatrix values="0 0 0 0 0 0 0 0 0 0 0 0 0 0 0 0 0 0 0.25 0"/>
      <feBlend in2="BackgroundImageFix" result="effect1_dropShadow"/>
      <feBlend in="SourceGraphic" in2="effect1_dropShadow" result="shape"/>
    </filter>
    <filter id="filter15_d" width="32" height="43" x="246.5" y="585" class="filter15_d" color-interpolation-filters="sRGB" filterUnits="userSpaceOnUse">
      <feFlood flood-opacity="0" result="BackgroundImageFix"/>
      <feColorMatrix in="SourceAlpha" values="0 0 0 0 0 0 0 0 0 0 0 0 0 0 0 0 0 0 127 0"/>
      <feOffset dy="1"/>
      <feColorMatrix values="0 0 0 0 0 0 0 0 0 0 0 0 0 0 0 0 0 0 0.25 0"/>
      <feBlend in2="BackgroundImageFix" result="effect1_dropShadow"/>
      <feBlend in="SourceGraphic" in2="effect1_dropShadow" result="shape"/>
    </filter>
    <filter id="filter16_d" width="32" height="43" x="209" y="585" class="filter16_d" color-interpolation-filters="sRGB" filterUnits="userSpaceOnUse">
      <feFlood flood-opacity="0" result="BackgroundImageFix"/>
      <feColorMatrix in="SourceAlpha" values="0 0 0 0 0 0 0 0 0 0 0 0 0 0 0 0 0 0 127 0"/>
      <feOffset dy="1"/>
      <feColorMatrix values="0 0 0 0 0 0 0 0 0 0 0 0 0 0 0 0 0 0 0.25 0"/>
      <feBlend in2="BackgroundImageFix" result="effect1_dropShadow"/>
      <feBlend in="SourceGraphic" in2="effect1_dropShadow" result="shape"/>
    </filter>
    <filter id="filter17_d" width="32" height="43" x="171.5" y="585" class="filter17_d" color-interpolation-filters="sRGB" filterUnits="userSpaceOnUse">
      <feFlood flood-opacity="0" result="BackgroundImageFix"/>
      <feColorMatrix in="SourceAlpha" values="0 0 0 0 0 0 0 0 0 0 0 0 0 0 0 0 0 0 127 0"/>
      <feOffset dy="1"/>
      <feColorMatrix values="0 0 0 0 0 0 0 0 0 0 0 0 0 0 0 0 0 0 0.25 0"/>
      <feBlend in2="BackgroundImageFix" result="effect1_dropShadow"/>
      <feBlend in="SourceGraphic" in2="effect1_dropShadow" result="shape"/>
    </filter>
    <filter id="filter18_d" width="32" height="43" x="134" y="585" class="filter18_d" color-interpolation-filters="sRGB" filterUnits="userSpaceOnUse">
      <feFlood flood-opacity="0" result="BackgroundImageFix"/>
      <feColorMatrix in="SourceAlpha" values="0 0 0 0 0 0 0 0 0 0 0 0 0 0 0 0 0 0 127 0"/>
      <feOffset dy="1"/>
      <feColorMatrix values="0 0 0 0 0 0 0 0 0 0 0 0 0 0 0 0 0 0 0.25 0"/>
      <feBlend in2="BackgroundImageFix" result="effect1_dropShadow"/>
      <feBlend in="SourceGraphic" in2="effect1_dropShadow" result="shape"/>
    </filter>
    <filter id="filter19_d" width="32" height="43" x="96.5" y="585" class="filter19_d" color-interpolation-filters="sRGB" filterUnits="userSpaceOnUse">
      <feFlood flood-opacity="0" result="BackgroundImageFix"/>
      <feColorMatrix in="SourceAlpha" values="0 0 0 0 0 0 0 0 0 0 0 0 0 0 0 0 0 0 127 0"/>
      <feOffset dy="1"/>
      <feColorMatrix values="0 0 0 0 0 0 0 0 0 0 0 0 0 0 0 0 0 0 0.25 0"/>
      <feBlend in2="BackgroundImageFix" result="effect1_dropShadow"/>
      <feBlend in="SourceGraphic" in2="effect1_dropShadow" result="shape"/>
    </filter>
    <filter id="filter20_d" width="32" height="43" x="59.5" y="585" class="filter20_d" color-interpolation-filters="sRGB" filterUnits="userSpaceOnUse">
      <feFlood flood-opacity="0" result="BackgroundImageFix"/>
      <feColorMatrix in="SourceAlpha" values="0 0 0 0 0 0 0 0 0 0 0 0 0 0 0 0 0 0 127 0"/>
      <feOffset dy="1"/>
      <feColorMatrix values="0 0 0 0 0 0 0 0 0 0 0 0 0 0 0 0 0 0 0.25 0"/>
      <feBlend in2="BackgroundImageFix" result="effect1_dropShadow"/>
      <feBlend in="SourceGraphic" in2="effect1_dropShadow" result="shape"/>
    </filter>
    <filter id="filter21_d" width="32" height="43" x="22" y="585" class="filter21_d" color-interpolation-filters="sRGB" filterUnits="userSpaceOnUse">
      <feFlood flood-opacity="0" result="BackgroundImageFix"/>
      <feColorMatrix in="SourceAlpha" values="0 0 0 0 0 0 0 0 0 0 0 0 0 0 0 0 0 0 127 0"/>
      <feOffset dy="1"/>
      <feColorMatrix values="0 0 0 0 0 0 0 0 0 0 0 0 0 0 0 0 0 0 0.25 0"/>
      <feBlend in2="BackgroundImageFix" result="effect1_dropShadow"/>
      <feBlend in="SourceGraphic" in2="effect1_dropShadow" result="shape"/>
    </filter>
    <filter id="filter22_d" width="32" height="43" x="340" y="531" class="filter22_d" color-interpolation-filters="sRGB" filterUnits="userSpaceOnUse">
      <feFlood flood-opacity="0" result="BackgroundImageFix"/>
      <feColorMatrix in="SourceAlpha" values="0 0 0 0 0 0 0 0 0 0 0 0 0 0 0 0 0 0 127 0"/>
      <feOffset dy="1"/>
      <feColorMatrix values="0 0 0 0 0 0 0 0 0 0 0 0 0 0 0 0 0 0 0.25 0"/>
      <feBlend in2="BackgroundImageFix" result="effect1_dropShadow"/>
      <feBlend in="SourceGraphic" in2="effect1_dropShadow" result="shape"/>
    </filter>
    <filter id="filter23_d" width="32" height="43" x="302.5" y="531" class="filter23_d" color-interpolation-filters="sRGB" filterUnits="userSpaceOnUse">
      <feFlood flood-opacity="0" result="BackgroundImageFix"/>
      <feColorMatrix in="SourceAlpha" values="0 0 0 0 0 0 0 0 0 0 0 0 0 0 0 0 0 0 127 0"/>
      <feOffset dy="1"/>
      <feColorMatrix values="0 0 0 0 0 0 0 0 0 0 0 0 0 0 0 0 0 0 0.25 0"/>
      <feBlend in2="BackgroundImageFix" result="effect1_dropShadow"/>
      <feBlend in="SourceGraphic" in2="effect1_dropShadow" result="shape"/>
    </filter>
    <filter id="filter24_d" width="32" height="43" x="265" y="531" class="filter24_d" color-interpolation-filters="sRGB" filterUnits="userSpaceOnUse">
      <feFlood flood-opacity="0" result="BackgroundImageFix"/>
      <feColorMatrix in="SourceAlpha" values="0 0 0 0 0 0 0 0 0 0 0 0 0 0 0 0 0 0 127 0"/>
      <feOffset dy="1"/>
      <feColorMatrix values="0 0 0 0 0 0 0 0 0 0 0 0 0 0 0 0 0 0 0.25 0"/>
      <feBlend in2="BackgroundImageFix" result="effect1_dropShadow"/>
      <feBlend in="SourceGraphic" in2="effect1_dropShadow" result="shape"/>
    </filter>
    <filter id="filter25_d" width="32" height="43" x="227.5" y="531" class="filter25_d" color-interpolation-filters="sRGB" filterUnits="userSpaceOnUse">
      <feFlood flood-opacity="0" result="BackgroundImageFix"/>
      <feColorMatrix in="SourceAlpha" values="0 0 0 0 0 0 0 0 0 0 0 0 0 0 0 0 0 0 127 0"/>
      <feOffset dy="1"/>
      <feColorMatrix values="0 0 0 0 0 0 0 0 0 0 0 0 0 0 0 0 0 0 0.25 0"/>
      <feBlend in2="BackgroundImageFix" result="effect1_dropShadow"/>
      <feBlend in="SourceGraphic" in2="effect1_dropShadow" result="shape"/>
    </filter>
    <filter id="filter26_d" width="32" height="43" x="190" y="531" class="filter26_d" color-interpolation-filters="sRGB" filterUnits="userSpaceOnUse">
      <feFlood flood-opacity="0" result="BackgroundImageFix"/>
      <feColorMatrix in="SourceAlpha" values="0 0 0 0 0 0 0 0 0 0 0 0 0 0 0 0 0 0 127 0"/>
      <feOffset dy="1"/>
      <feColorMatrix values="0 0 0 0 0 0 0 0 0 0 0 0 0 0 0 0 0 0 0.25 0"/>
      <feBlend in2="BackgroundImageFix" result="effect1_dropShadow"/>
      <feBlend in="SourceGraphic" in2="effect1_dropShadow" result="shape"/>
    </filter>
    <filter id="filter27_d" width="32" height="43" x="152.5" y="531" class="filter27_d" color-interpolation-filters="sRGB" filterUnits="userSpaceOnUse">
      <feFlood flood-opacity="0" result="BackgroundImageFix"/>
      <feColorMatrix in="SourceAlpha" values="0 0 0 0 0 0 0 0 0 0 0 0 0 0 0 0 0 0 127 0"/>
      <feOffset dy="1"/>
      <feColorMatrix values="0 0 0 0 0 0 0 0 0 0 0 0 0 0 0 0 0 0 0.25 0"/>
      <feBlend in2="BackgroundImageFix" result="effect1_dropShadow"/>
      <feBlend in="SourceGraphic" in2="effect1_dropShadow" result="shape"/>
    </filter>
    <filter id="filter28_d" width="32" height="43" x="115" y="531" class="filter28_d" color-interpolation-filters="sRGB" filterUnits="userSpaceOnUse">
      <feFlood flood-opacity="0" result="BackgroundImageFix"/>
      <feColorMatrix in="SourceAlpha" values="0 0 0 0 0 0 0 0 0 0 0 0 0 0 0 0 0 0 127 0"/>
      <feOffset dy="1"/>
      <feColorMatrix values="0 0 0 0 0 0 0 0 0 0 0 0 0 0 0 0 0 0 0.25 0"/>
      <feBlend in2="BackgroundImageFix" result="effect1_dropShadow"/>
      <feBlend in="SourceGraphic" in2="effect1_dropShadow" result="shape"/>
    </filter>
    <filter id="filter29_d" width="32" height="43" x="77.5" y="531" class="filter29_d" color-interpolation-filters="sRGB" filterUnits="userSpaceOnUse">
      <feFlood flood-opacity="0" result="BackgroundImageFix"/>
      <feColorMatrix in="SourceAlpha" values="0 0 0 0 0 0 0 0 0 0 0 0 0 0 0 0 0 0 127 0"/>
      <feOffset dy="1"/>
      <feColorMatrix values="0 0 0 0 0 0 0 0 0 0 0 0 0 0 0 0 0 0 0.25 0"/>
      <feBlend in2="BackgroundImageFix" result="effect1_dropShadow"/>
      <feBlend in="SourceGraphic" in2="effect1_dropShadow" result="shape"/>
    </filter>
    <filter id="filter30_d" width="32" height="43" x="40.5" y="531" class="filter30_d" color-interpolation-filters="sRGB" filterUnits="userSpaceOnUse">
      <feFlood flood-opacity="0" result="BackgroundImageFix"/>
      <feColorMatrix in="SourceAlpha" values="0 0 0 0 0 0 0 0 0 0 0 0 0 0 0 0 0 0 127 0"/>
      <feOffset dy="1"/>
      <feColorMatrix values="0 0 0 0 0 0 0 0 0 0 0 0 0 0 0 0 0 0 0.25 0"/>
      <feBlend in2="BackgroundImageFix" result="effect1_dropShadow"/>
      <feBlend in="SourceGraphic" in2="effect1_dropShadow" result="shape"/>
    </filter>
    <filter id="filter31_d" width="32" height="43" x="3" y="531" class="filter31_d" color-interpolation-filters="sRGB" filterUnits="userSpaceOnUse">
      <feFlood flood-opacity="0" result="BackgroundImageFix"/>
      <feColorMatrix in="SourceAlpha" values="0 0 0 0 0 0 0 0 0 0 0 0 0 0 0 0 0 0 127 0"/>
      <feOffset dy="1"/>
      <feColorMatrix values="0 0 0 0 0 0 0 0 0 0 0 0 0 0 0 0 0 0 0.25 0"/>
      <feBlend in2="BackgroundImageFix" result="effect1_dropShadow"/>
      <feBlend in="SourceGraphic" in2="effect1_dropShadow" result="shape"/>
    </filter>
    <linearGradient id="paint0_linear" x1="111.5" x2="296.815" y1="120.362" y2="781.352" class="paint0_linear" gradientUnits="userSpaceOnUse">
      <stop stop-color="#E4F0F0" stop-opacity="0"/>
      <stop offset="1" stop-color="#E4F0F0"/>
    </linearGradient>
    <clipPath id="clip0" class="clip0">
      <path fill="#fff" d="M0 0h375v812H0z"/>
    </clipPath>
  </defs>
</svg>
