<svg xmlns="http://www.w3.org/2000/svg" width="375" height="812" fill="none" viewBox="0 0 375 812">
  <g clip-path="url(#clip0)">
    <path fill="#fff" d="M0 0h375v812H0z"/>
    <path fill="url(#paint0_linear)" d="M0 98h375v621H0z"/>
    <g filter="url(#filter0_d)">
      <path fill="#fff" d="M0 176.79c0-22.21 0-33.315 4.39-41.768a39 39 0 0116.632-16.631C29.475 114 40.58 114 62.79 114h249.42c22.21 0 33.315 0 41.768 4.391a38.999 38.999 0 0116.631 16.631C375 143.475 375 154.58 375 176.79V521H0V176.79z"/>
    </g>
    <path fill="#E6E8EB" fill-rule="evenodd" d="M163 128.5a2.5 2.5 0 012.5-2.5h43a2.5 2.5 0 110 5h-43a2.5 2.5 0 01-2.5-2.5z" clip-rule="evenodd"/>
    <path fill="#fff" d="M16 192c0-7.542 0-11.314 2.343-13.657S24.457 176 32 176h311c7.542 0 11.314 0 13.657 2.343S359 184.458 359 192v8c0 7.542 0 11.314-2.343 13.657S350.542 216 343 216H32c-7.543 0-11.314 0-13.657-2.343S16 207.542 16 200v-8z"/>
    <path fill="#1169F5" fill-rule="evenodd" d="M343 177H32c-3.8 0-6.549.002-8.645.284-2.067.278-3.35.811-4.305 1.766-.955.955-1.488 2.237-1.766 4.305C17.002 185.451 17 188.2 17 192v8c0 3.8.002 6.549.284 8.645.278 2.068.811 3.35 1.766 4.305.955.955 2.238 1.488 4.305 1.766 2.096.282 4.846.284 8.645.284h311c3.799 0 6.549-.002 8.645-.284 2.068-.278 3.35-.811 4.305-1.766.955-.955 1.488-2.237 1.766-4.305.282-2.096.284-4.845.284-8.645v-8c0-3.8-.002-6.549-.284-8.645-.278-2.068-.811-3.35-1.766-4.305-.955-.955-2.237-1.488-4.305-1.766-2.096-.282-4.846-.284-8.645-.284zm-324.657 1.343C16 180.686 16 184.458 16 192v8c0 7.542 0 11.314 2.343 13.657S24.457 216 32 216h311c7.542 0 11.314 0 13.657-2.343S359 207.542 359 200v-8c0-7.542 0-11.314-2.343-13.657S350.542 176 343 176H32c-7.543 0-11.314 0-13.657 2.343z" clip-rule="evenodd"/>
    <path fill="#25272E" d="M34.08 189.8l4.64 11.2h-1.28l-1.28-3.12h-5.28L29.6 201h-1.28l4.64-11.2h1.12zm-.56 1.68l-2.16 5.28h4.32l-2.16-5.28zm12.647 8.4c-.267.352-.63.656-1.088.912a3.242 3.242 0 01-1.552.368 3.64 3.64 0 01-1.888-.512 3.88 3.88 0 01-1.376-1.44c-.33-.608-.496-1.291-.496-2.048 0-.757.165-1.44.496-2.048.341-.608.8-1.083 1.376-1.424a3.553 3.553 0 011.888-.528 3.13 3.13 0 011.552.384c.459.245.821.544 1.088.896v-4.64h1.12V201h-1.12v-1.12zm-2.64.24a2.36 2.36 0 001.28-.384c.416-.267.746-.624.992-1.072a3.14 3.14 0 00.368-1.504c0-.544-.123-1.04-.368-1.488a2.751 2.751 0 00-.992-1.072 2.29 2.29 0 00-1.28-.4c-.48 0-.923.128-1.328.384a2.586 2.586 0 00-.96 1.04c-.235.448-.352.96-.352 1.536 0 .576.117 1.088.352 1.536.235.448.555.8.96 1.056a2.52 2.52 0 001.328.368zm12.234-.24c-.267.352-.63.656-1.088.912a3.242 3.242 0 01-1.552.368 3.64 3.64 0 01-1.888-.512 3.881 3.881 0 01-1.376-1.44c-.331-.608-.496-1.291-.496-2.048 0-.757.165-1.44.496-2.048.341-.608.8-1.083 1.376-1.424a3.553 3.553 0 011.888-.528 3.13 3.13 0 011.552.384c.458.245.821.544 1.088.896v-4.64h1.12V201h-1.12v-1.12zm-2.64.24a2.36 2.36 0 001.28-.384c.416-.267.746-.624.992-1.072.245-.459.368-.96.368-1.504s-.123-1.04-.368-1.488a2.75 2.75 0 00-.992-1.072 2.29 2.29 0 00-1.28-.4c-.48 0-.923.128-1.328.384a2.587 2.587 0 00-.96 1.04c-.235.448-.352.96-.352 1.536 0 .576.117 1.088.352 1.536.234.448.554.8.96 1.056a2.52 2.52 0 001.328.368zm12.873-.272c-.341.363-.789.672-1.344.928a4.377 4.377 0 01-1.856.384 3.719 3.719 0 01-1.92-.528 4.097 4.097 0 01-1.408-1.456 4.047 4.047 0 01-.512-2.016c0-.725.171-1.392.512-2a3.969 3.969 0 011.392-1.456 3.418 3.418 0 011.856-.544c.683 0 1.307.165 1.872.496a3.507 3.507 0 011.328 1.376c.32.576.48 1.232.48 1.968 0 .203-.026.395-.08.576l-6.24-.016c.022.448.16.869.416 1.264s.587.709.992.944a2.57 2.57 0 001.312.352c.534 0 1.014-.096 1.44-.288a3.307 3.307 0 001.04-.704l.72.72zm-.72-3.248c-.085-.693-.368-1.264-.848-1.712a2.357 2.357 0 00-1.712-.688c-.437 0-.848.112-1.232.336a2.803 2.803 0 00-.96.88 2.678 2.678 0 00-.448 1.184h5.2zm4.235-2.24c.203-.331.507-.613.912-.848.416-.235.912-.352 1.488-.352h.48v1.12h-.48c-.426 0-.826.101-1.2.304a2.325 2.325 0 00-.88.88c-.213.373-.32.805-.32 1.296V201h-1.12v-7.68h1.12v1.04z"/>
    <g>
      <path fill="#25272E" d="M21.32 154.2a3.4 3.4 0 011.68.42c.504.28.896.663 1.176 1.148.29.476.434 1.003.434 1.582 0 .579-.145 1.111-.434 1.596-.28.476-.672.854-1.176 1.134a3.4 3.4 0 01-1.68.42h-2.38v3.5H17.4v-9.8h3.92zm0 4.9a1.723 1.723 0 001.75-1.75c0-.495-.168-.91-.504-1.246a1.693 1.693 0 00-1.246-.504h-2.38v3.5h2.38zm6.029-.91c.186-.252.434-.467.742-.644a2.175 2.175 0 011.078-.266h.56v1.26h-.56c-.327 0-.63.089-.91.266-.28.168-.504.411-.672.728a2.227 2.227 0 00-.238 1.036V164h-1.4v-6.72h1.4v.91zm9.458 4.858c-.28.308-.667.569-1.162.784-.495.205-1.064.308-1.708.308a3.533 3.533 0 01-1.778-.462 3.4 3.4 0 01-1.26-1.26 3.532 3.532 0 01-.462-1.778c0-.644.154-1.232.462-1.764a3.433 3.433 0 011.246-1.26 3.258 3.258 0 011.722-.476c.625 0 1.185.145 1.68.434.504.28.896.672 1.176 1.176.29.495.434 1.055.434 1.68 0 .261-.023.495-.07.7h-5.18c.075.467.308.863.7 1.19.392.327.859.49 1.4.49.392 0 .756-.07 1.092-.21.345-.149.635-.327.868-.532l.84.98zm-1.12-3.108c-.112-.467-.327-.84-.644-1.12-.308-.28-.7-.42-1.176-.42-.504 0-.92.14-1.246.42-.327.271-.565.644-.714 1.12h3.78zm3.284 2.03c.205.252.462.467.77.644s.635.266.98.266c.364 0 .653-.084.868-.252.215-.168.322-.364.322-.588 0-.205-.103-.359-.308-.462-.196-.112-.523-.238-.98-.378a9.127 9.127 0 01-1.176-.42 2.25 2.25 0 01-.784-.616c-.215-.271-.322-.625-.322-1.064 0-.355.098-.681.294-.98.196-.299.48-.537.854-.714.373-.177.807-.266 1.302-.266.523 0 .99.089 1.4.266.42.177.747.392.98.644l-.91.91a1.979 1.979 0 00-.644-.392 2.01 2.01 0 00-.826-.168c-.327 0-.583.07-.77.21-.187.14-.28.303-.28.49 0 .205.098.364.294.476.205.103.537.224.994.364.476.14.863.28 1.162.42.308.14.57.345.784.616.224.271.336.625.336 1.064 0 .373-.107.723-.322 1.05-.205.317-.504.574-.896.77-.392.187-.85.28-1.372.28-.57 0-1.087-.121-1.554-.364a3.433 3.433 0 01-1.106-.896l.91-.91zm11.754.77c-.299.392-.7.723-1.204.994a3.41 3.41 0 01-1.666.406 3.533 3.533 0 01-1.778-.462 3.4 3.4 0 01-1.26-1.26 3.532 3.532 0 01-.462-1.778c0-.644.154-1.232.462-1.764a3.373 3.373 0 011.26-1.274 3.533 3.533 0 011.778-.462c.616 0 1.167.131 1.652.392.485.252.868.565 1.148.938l-.98.91a2.503 2.503 0 00-.77-.644 2.07 2.07 0 00-1.05-.266c-.392 0-.751.093-1.078.28a2.04 2.04 0 00-.756.784 2.28 2.28 0 00-.266 1.106c0 .411.089.784.266 1.12.187.327.439.583.756.77.327.187.686.28 1.078.28s.751-.093 1.078-.28a2.97 2.97 0 00.812-.7l.98.91zm2.723-4.55c.187-.252.434-.467.742-.644a2.175 2.175 0 011.078-.266h.56v1.26h-.56c-.326 0-.63.089-.91.266-.28.168-.504.411-.672.728a2.227 2.227 0 00-.238 1.036V164h-1.4v-6.72h1.4v.91zm3.575-3.01c0-.233.084-.429.252-.588a.837.837 0 01.588-.252.79.79 0 01.574.252.759.759 0 01.266.588.801.801 0 01-.266.602.812.812 0 01-.574.238.86.86 0 01-.588-.238.822.822 0 01-.252-.602zm1.54 2.1V164h-1.4v-6.72h1.4zm3.43.98c.215-.308.523-.569.924-.784.402-.224.864-.336 1.386-.336.56 0 1.078.154 1.554.462.486.299.873.714 1.162 1.246.29.532.434 1.129.434 1.792s-.144 1.26-.434 1.792c-.29.532-.676.952-1.162 1.26a2.866 2.866 0 01-1.554.448c-.522 0-.984-.107-1.386-.322-.401-.224-.71-.49-.924-.798v3.92h-1.4v-9.66h1.4v.98zm2.03 4.55c.374 0 .714-.093 1.022-.28.308-.187.55-.443.728-.77.187-.336.28-.709.28-1.12a2.19 2.19 0 00-.28-1.106 1.972 1.972 0 00-.728-.784 1.931 1.931 0 00-1.022-.28 1.93 1.93 0 00-1.022.28 2.073 2.073 0 00-.742.784 2.28 2.28 0 00-.266 1.106c0 .411.089.784.266 1.12a2.1 2.1 0 00.742.77c.308.187.649.28 1.022.28zm4.405-5.53h1.26v-2.24h1.4v2.24h1.75v1.33h-1.75v3.15c0 .336.08.574.238.714.159.131.406.196.742.196h.77V164h-1.05c-1.4 0-2.1-.7-2.1-2.1v-3.29h-1.26v-1.33zm6.013-2.1c0-.233.084-.429.252-.588a.837.837 0 01.588-.252.79.79 0 01.574.252.759.759 0 01.266.588.801.801 0 01-.266.602.812.812 0 01-.574.238.86.86 0 01-.588-.238.822.822 0 01-.252-.602zm1.54 2.1V164h-1.4v-6.72h1.4zm1.61 3.36c0-.644.154-1.232.462-1.764a3.373 3.373 0 011.26-1.274 3.533 3.533 0 011.778-.462c.644 0 1.232.154 1.764.462.542.308.966.733 1.274 1.274.308.532.462 1.12.462 1.764 0 .644-.154 1.237-.462 1.778a3.37 3.37 0 01-1.274 1.26 3.457 3.457 0 01-1.764.462 3.533 3.533 0 01-1.778-.462 3.4 3.4 0 01-1.26-1.26 3.532 3.532 0 01-.462-1.778zm3.5 2.17c.392 0 .747-.093 1.064-.28.327-.187.579-.443.756-.77.187-.336.28-.709.28-1.12a2.19 2.19 0 00-.28-1.106 1.915 1.915 0 00-.756-.784 2.056 2.056 0 00-1.064-.28c-.392 0-.751.093-1.078.28-.317.187-.57.448-.756.784a2.28 2.28 0 00-.266 1.106c0 .411.089.784.266 1.12.187.327.439.583.756.77.327.187.686.28 1.078.28zm6.441-4.55c.215-.308.504-.569.868-.784a2.303 2.303 0 011.232-.336c.514 0 .971.121 1.372.364.402.233.714.574.938 1.022.234.439.35.957.35 1.554V164h-1.4v-3.92c0-.485-.144-.873-.434-1.162-.28-.299-.648-.448-1.106-.448-.532 0-.97.177-1.316.532-.336.345-.504.798-.504 1.358V164h-1.4v-6.72h1.4v.98z"/>
    </g>
    <g>
      <path fill="#CDCED1" d="M346.912 202.032a1.327 1.327 0 01-1.876 1.878l-4.111-4.104a6.583 6.583 0 01-7.938-.508 6.6 6.6 0 01-2.166-3.739 6.617 6.617 0 01.609-4.279 6.595 6.595 0 013.123-2.984 6.59 6.59 0 017.925 1.932 6.605 6.605 0 011.403 4.087 6.474 6.474 0 01-1.08 3.6l4.111 4.117zm-6.348-9.898a3.916 3.916 0 00-6.028-.601 3.932 3.932 0 00.581 6.041 3.917 3.917 0 002.174.668h.013a3.909 3.909 0 003.92-3.927 3.93 3.93 0 00-.66-2.181z"/>
    </g>
    <path stroke="#1169F5" stroke-width=".5" d="M74.25 181v30"/>
    <g>
      <path fill="#25272E" d="M23.12 237.8l4.32 11.2h-2.56l-.96-2.56H19.6l-.96 2.56h-2.56l4.32-11.2h2.72zm-1.328 2.8h-.064l-1.328 3.68h2.72l-1.328-3.68zm12.284 7.28a3.225 3.225 0 01-1.008.912c-.427.245-.918.368-1.472.368-.619 0-1.2-.176-1.744-.528-.534-.352-.966-.837-1.296-1.456-.32-.619-.48-1.317-.48-2.096 0-.779.16-1.477.48-2.096.33-.619.762-1.104 1.296-1.456a3.154 3.154 0 011.744-.528c.554 0 1.045.128 1.472.384.426.245.762.544 1.008.896h.08v-4.48h2.16V249h-2.16v-1.12h-.08zm-1.84-.72c.565 0 1.04-.197 1.424-.592.384-.395.576-.891.576-1.488s-.192-1.093-.576-1.488a1.906 1.906 0 00-1.424-.592c-.566 0-1.04.197-1.424.592-.384.395-.576.891-.576 1.488s.192 1.093.576 1.488c.384.395.858.592 1.424.592zm11.762.72a3.225 3.225 0 01-1.008.912c-.427.245-.918.368-1.473.368-.618 0-1.2-.176-1.744-.528-.533-.352-.965-.837-1.296-1.456-.32-.619-.48-1.317-.48-2.096 0-.779.16-1.477.48-2.096.331-.619.763-1.104 1.297-1.456a3.154 3.154 0 011.743-.528c.555 0 1.046.128 1.472.384.427.245.763.544 1.009.896h.08v-4.48h2.16V249h-2.16v-1.12h-.08zm-1.84-.72c.565 0 1.04-.197 1.423-.592.384-.395.576-.891.576-1.488s-.191-1.093-.575-1.488a1.907 1.907 0 00-1.425-.592c-.565 0-1.04.197-1.423.592-.385.395-.577.891-.577 1.488s.193 1.093.577 1.488c.383.395.858.592 1.423.592zm13.281 1.088c-.362.256-.837.475-1.424.656a6.9 6.9 0 01-1.936.256 4.175 4.175 0 01-2.096-.544 4.23 4.23 0 01-1.52-1.488 4.03 4.03 0 01-.544-2.048c0-.736.182-1.413.544-2.032a4.15 4.15 0 011.488-1.488A3.946 3.946 0 0152 241c.704 0 1.355.176 1.952.528a3.886 3.886 0 011.44 1.44c.352.597.528 1.248.528 1.952 0 .352-.026.672-.08.96h-5.68c.128.395.363.72.704.976.352.256.811.384 1.376.384.448 0 .848-.048 1.2-.144a3.64 3.64 0 00.88-.368l1.12 1.52zm-1.76-3.968a2.027 2.027 0 00-.672-.96c-.309-.267-.672-.4-1.088-.4-.416 0-.784.133-1.104.4-.309.256-.528.576-.656.96h3.52zm6.005-2.24h.08c.15-.245.39-.453.72-.624.331-.171.747-.256 1.248-.256h.512v2.08h-.72c-.533 0-.976.192-1.328.576-.341.373-.512.875-.512 1.504V249h-2.16v-7.84h2.16v.88zm8.239 6c-.246.309-.571.576-.977.8-.394.213-.842.32-1.343.32-.715 0-1.296-.208-1.744-.624-.438-.427-.657-.965-.657-1.616 0-.661.209-1.227.625-1.696.426-.469.992-.741 1.695-.816l2.48-.24a1.52 1.52 0 00-.431-.864 1.231 1.231 0 00-.928-.384c-.363 0-.7.043-1.008.128-.31.075-.56.165-.753.272l-1.28-1.28c.342-.288.79-.533 1.345-.736a5.369 5.369 0 011.855-.304c.651 0 1.232.139 1.744.416.512.267.907.64 1.184 1.12.288.469.432.997.432 1.584V249h-2.16v-.96h-.08zm-1.68-2.288c-.267.011-.48.101-.64.272a.822.822 0 00-.24.576c0 .245.08.443.24.592.17.139.41.208.72.208.5 0 .906-.133 1.216-.4.309-.267.463-.651.463-1.152v-.16l-1.76.064zm8.006-7.952V249h-2.16v-11.2h2.16zm4.406 0V249h-2.16v-11.2h2.16z"/>
      <path fill="#70747D" d="M290.121 269.97c.261.336.607.621 1.036.854.439.224.933.336 1.484.336.7 0 1.26-.205 1.68-.616.42-.411.63-.952.63-1.624 0-.663-.21-1.199-.63-1.61-.411-.42-.947-.63-1.61-.63-.485 0-.915.103-1.288.308a2.694 2.694 0 00-.882.742h-.77l.35-5.53h5.25v.98h-4.34l-.21 3.08c.215-.159.485-.289.812-.392a3.307 3.307 0 011.078-.168c.616 0 1.176.145 1.68.434.504.28.896.667 1.176 1.162.289.485.434 1.027.434 1.624 0 .625-.14 1.185-.42 1.68-.28.485-.677.863-1.19 1.134-.504.271-1.087.406-1.75.406-.709 0-1.344-.14-1.904-.42-.551-.289-.989-.639-1.316-1.05l.7-.7zm11.061.28c.187.271.434.504.742.7.308.187.644.28 1.008.28.476 0 .84-.103 1.092-.308.252-.215.378-.485.378-.812a.768.768 0 00-.392-.7c-.252-.159-.634-.313-1.148-.462-.457-.14-.826-.271-1.106-.392a2.029 2.029 0 01-.7-.56c-.196-.252-.294-.574-.294-.966 0-.327.094-.635.28-.924a2.16 2.16 0 01.798-.7 2.513 2.513 0 011.162-.266c.458 0 .873.089 1.246.266.383.177.691.392.924.644l-.7.7a1.723 1.723 0 00-.616-.49 1.727 1.727 0 00-.854-.21c-.373 0-.676.098-.91.294-.233.196-.35.425-.35.686 0 .289.122.509.364.658.243.14.621.285 1.134.434.458.14.826.275 1.106.406.29.131.532.327.728.588.206.252.308.583.308.994 0 .373-.098.714-.294 1.022-.196.308-.48.555-.854.742-.373.177-.807.266-1.302.266-.55 0-1.036-.112-1.456-.336a2.99 2.99 0 01-.994-.854l.7-.7zm5.246-4.97h1.26v-2.24h.98v2.24h1.82v.91h-1.82v3.99c0 .336.074.574.224.714.158.131.387.196.686.196h.91v.91h-.952c-.588 0-1.046-.149-1.372-.448-.318-.299-.476-.756-.476-1.372v-3.99h-1.26v-.91zm6.725.91c.177-.289.443-.537.798-.742.364-.205.798-.308 1.302-.308h.42v.98h-.42c-.374 0-.724.089-1.05.266a2.026 2.026 0 00-.77.77c-.187.327-.28.705-.28 1.134V272h-.98v-6.72h.98v.91zm9.379 4.802c-.298.317-.69.588-1.176.812a3.827 3.827 0 01-1.624.336 3.256 3.256 0 01-1.68-.462 3.583 3.583 0 01-1.232-1.274 3.548 3.548 0 01-.448-1.764 3.52 3.52 0 011.666-3.024 2.998 2.998 0 011.624-.476c.598 0 1.144.145 1.638.434.495.289.882.691 1.162 1.204.28.504.42 1.078.42 1.722 0 .177-.023.345-.07.504l-5.46-.014c.019.392.14.761.364 1.106.224.345.514.621.868.826.355.205.738.308 1.148.308.467 0 .887-.084 1.26-.252a2.87 2.87 0 00.91-.616l.63.63zm-.63-2.842c-.074-.607-.322-1.106-.742-1.498a2.064 2.064 0 00-1.498-.602c-.382 0-.742.098-1.078.294a2.453 2.453 0 00-.84.77 2.357 2.357 0 00-.392 1.036h4.55zm3.706-1.89a2.67 2.67 0 01.882-.784 2.452 2.452 0 011.288-.336c.532 0 1.003.117 1.414.35.42.233.742.569.966 1.008.233.429.35.933.35 1.512V272h-.98v-3.99c0-.588-.173-1.059-.518-1.414-.336-.364-.77-.546-1.302-.546-.392 0-.752.098-1.078.294a2.03 2.03 0 00-.756.784 2.444 2.444 0 00-.266 1.162V272h-.98v-6.72h.98v.98zm7.561 6.874c.233.252.537.462.91.63.383.177.803.266 1.26.266.42 0 .803-.107 1.148-.322.355-.215.635-.509.84-.882.215-.373.322-.789.322-1.246v-.77c-.196.289-.49.537-.882.742-.383.205-.835.308-1.358.308a2.983 2.983 0 01-1.596-.448 3.245 3.245 0 01-1.134-1.218 3.479 3.479 0 01-.42-1.694c0-.616.14-1.181.42-1.694.28-.513.658-.919 1.134-1.218a2.983 2.983 0 011.596-.448c.523 0 .975.103 1.358.308.392.205.686.453.882.742v-.91h.98v6.3c0 .616-.149 1.181-.448 1.694a3.243 3.243 0 01-1.19 1.218 3.18 3.18 0 01-1.652.448c-.616 0-1.167-.117-1.652-.35-.485-.224-.868-.499-1.148-.826l.63-.63zm2.24-2.184c.411 0 .789-.107 1.134-.322.345-.215.616-.509.812-.882a2.64 2.64 0 00.294-1.246 2.64 2.64 0 00-.294-1.246 2.252 2.252 0 00-.812-.882 2.102 2.102 0 00-1.134-.322c-.392 0-.756.107-1.092.322a2.325 2.325 0 00-.784.882 2.64 2.64 0 00-.294 1.246c0 .457.098.873.294 1.246.196.373.457.667.784.882.336.215.7.322 1.092.322zm4.761-5.67h1.26v-2.24h.98v2.24h1.82v.91h-1.82v3.99c0 .336.075.574.224.714.159.131.387.196.686.196h.91v.91h-.952c-.588 0-1.045-.149-1.372-.448-.317-.299-.476-.756-.476-1.372v-3.99h-1.26v-.91zm6.795.98a2.69 2.69 0 01.882-.784 2.454 2.454 0 011.288-.336c.532 0 1.003.117 1.414.35.42.233.742.569.966 1.008.233.429.35.933.35 1.512V272h-.98v-3.99c0-.588-.173-1.059-.518-1.414-.336-.364-.77-.546-1.302-.546-.392 0-.751.098-1.078.294a2.044 2.044 0 00-.756.784 2.456 2.456 0 00-.266 1.162V272h-.98v-9.8h.98v4.06zm7.209 3.99c.187.271.434.504.742.7.308.187.644.28 1.008.28.476 0 .84-.103 1.092-.308.252-.215.378-.485.378-.812a.768.768 0 00-.392-.7c-.252-.159-.634-.313-1.148-.462-.457-.14-.826-.271-1.106-.392a2.029 2.029 0 01-.7-.56c-.196-.252-.294-.574-.294-.966 0-.327.094-.635.28-.924a2.16 2.16 0 01.798-.7 2.513 2.513 0 011.162-.266c.458 0 .873.089 1.246.266.383.177.691.392.924.644l-.7.7a1.723 1.723 0 00-.616-.49 1.727 1.727 0 00-.854-.21c-.373 0-.676.098-.91.294-.233.196-.35.425-.35.686 0 .289.122.509.364.658.243.14.621.285 1.134.434.458.14.826.275 1.106.406.29.131.532.327.728.588.206.252.308.583.308.994 0 .373-.098.714-.294 1.022-.196.308-.48.555-.854.742-.373.177-.807.266-1.302.266-.55 0-1.036-.112-1.456-.336a2.99 2.99 0 01-.994-.854l.7-.7z"/>
      <path fill="#25272E" d="M16.84 267.1c0-.915.224-1.759.672-2.534a4.938 4.938 0 011.834-1.834 4.973 4.973 0 012.534-.672c.915 0 1.76.224 2.534.672a4.938 4.938 0 011.834 1.834c.448.775.672 1.619.672 2.534 0 .915-.224 1.759-.672 2.534a4.938 4.938 0 01-1.834 1.834 4.973 4.973 0 01-2.534.672c-.915 0-1.76-.224-2.534-.672a4.938 4.938 0 01-1.834-1.834 4.973 4.973 0 01-.672-2.534zm5.04 4.06a3.927 3.927 0 003.458-1.988 4.125 4.125 0 00.532-2.072 4.05 4.05 0 00-.532-2.058 3.9 3.9 0 00-3.458-2.002 3.9 3.9 0 00-3.458 2.002 4.05 4.05 0 00-.532 2.058c0 .756.177 1.447.532 2.072a3.927 3.927 0 003.458 1.988zm7.978-4.97c.177-.289.443-.537.798-.742.364-.205.798-.308 1.302-.308h.42v.98h-.42c-.373 0-.723.089-1.05.266a2.03 2.03 0 00-.77.77c-.187.327-.28.705-.28 1.134V272h-.98v-6.72h.98v.91zm7.906 4.9a2.688 2.688 0 01-.882.742 2.633 2.633 0 01-1.288.308c-.448 0-.854-.093-1.218-.28a2.264 2.264 0 01-.854-.728 1.695 1.695 0 01-.308-.952c0-.569.168-1.036.504-1.4.345-.364.83-.574 1.456-.63l2.59-.224c0-.327-.075-.635-.224-.924a1.656 1.656 0 00-.602-.686 1.45 1.45 0 00-.854-.266c-.392 0-.751.047-1.078.14a2.98 2.98 0 00-.812.35l-.63-.63c.28-.215.64-.397 1.078-.546.439-.149.92-.224 1.442-.224.504 0 .957.117 1.358.35.41.224.728.532.952.924.233.392.35.831.35 1.316V272h-.98v-.91zm-2.31-2.1c-.41.037-.723.163-.938.378a1.1 1.1 0 00-.322.812c0 .299.121.551.364.756.252.196.597.294 1.036.294.653 0 1.176-.177 1.568-.532.401-.364.602-.868.602-1.512v-.42l-2.31.224zm6.163-6.79v9.8h-.98v-9.8h.98zm9.518 0c.597 0 1.134.135 1.61.406.485.271.863.639 1.134 1.106.27.467.406.989.406 1.568 0 .579-.135 1.101-.406 1.568-.27.467-.649.835-1.134 1.106a3.196 3.196 0 01-1.61.406h-2.66V272h-1.05v-9.8h3.71zm0 5.18c.635 0 1.143-.191 1.526-.574.383-.392.574-.901.574-1.526 0-.635-.191-1.143-.574-1.526-.383-.383-.891-.574-1.526-.574h-2.66v4.2h2.66zm4.632-4.34c0-.177.06-.327.182-.448a.61.61 0 01.448-.182.61.61 0 01.448.182.609.609 0 01.182.448c0 .177-.06.327-.182.448a.61.61 0 01-.448.182.61.61 0 01-.448-.182.609.609 0 01-.182-.448zm1.12 2.24V272h-.98v-6.72h.98zm3.297-3.08v9.8h-.98v-9.8h.98zm3.363 0v9.8h-.98v-9.8h.98z"/>
      <g>
        <path fill="#F1F3F5" fill-rule="evenodd" d="M359 291H16v-1h343v1z" clip-rule="evenodd" style="mix-blend-mode:multiply"/>
      </g>
      <g>
        <path fill="#25272E" d="M23.12 308.8l4.32 11.2h-2.56l-.96-2.56H19.6l-.96 2.56h-2.56l4.32-11.2h2.72zm-1.328 2.8h-.064l-1.328 3.68h2.72l-1.328-3.68zm12.284 7.28a3.225 3.225 0 01-1.008.912c-.427.245-.918.368-1.472.368-.619 0-1.2-.176-1.744-.528-.534-.352-.966-.837-1.296-1.456-.32-.619-.48-1.317-.48-2.096 0-.779.16-1.477.48-2.096.33-.619.762-1.104 1.296-1.456a3.154 3.154 0 011.744-.528c.554 0 1.045.128 1.472.384.426.245.762.544 1.008.896h.08v-4.48h2.16V320h-2.16v-1.12h-.08zm-1.84-.72c.565 0 1.04-.197 1.424-.592.384-.395.576-.891.576-1.488s-.192-1.093-.576-1.488a1.906 1.906 0 00-1.424-.592c-.566 0-1.04.197-1.424.592-.384.395-.576.891-.576 1.488s.192 1.093.576 1.488c.384.395.858.592 1.424.592zm11.762.72a3.225 3.225 0 01-1.008.912c-.427.245-.918.368-1.473.368-.618 0-1.2-.176-1.744-.528-.533-.352-.965-.837-1.296-1.456-.32-.619-.48-1.317-.48-2.096 0-.779.16-1.477.48-2.096.331-.619.763-1.104 1.297-1.456a3.154 3.154 0 011.743-.528c.555 0 1.046.128 1.472.384.427.245.763.544 1.009.896h.08v-4.48h2.16V320h-2.16v-1.12h-.08zm-1.84-.72c.565 0 1.04-.197 1.423-.592.384-.395.576-.891.576-1.488s-.191-1.093-.575-1.488a1.907 1.907 0 00-1.425-.592c-.565 0-1.04.197-1.423.592-.385.395-.577.891-.577 1.488s.193 1.093.577 1.488c.383.395.858.592 1.423.592zm13.281 1.088c-.362.256-.837.475-1.424.656a6.9 6.9 0 01-1.936.256 4.175 4.175 0 01-2.096-.544 4.23 4.23 0 01-1.52-1.488 4.03 4.03 0 01-.544-2.048c0-.736.182-1.413.544-2.032a4.15 4.15 0 011.488-1.488A3.946 3.946 0 0152 312c.704 0 1.355.176 1.952.528a3.886 3.886 0 011.44 1.44c.352.597.528 1.248.528 1.952 0 .352-.026.672-.08.96h-5.68c.128.395.363.72.704.976.352.256.811.384 1.376.384.448 0 .848-.048 1.2-.144a3.64 3.64 0 00.88-.368l1.12 1.52zm-1.76-3.968a2.027 2.027 0 00-.672-.96c-.309-.267-.672-.4-1.088-.4-.416 0-.784.133-1.104.4-.309.256-.528.576-.656.96h3.52zm6.005-2.24h.08c.15-.245.39-.453.72-.624.331-.171.747-.256 1.248-.256h.512v2.08h-.72c-.533 0-.976.192-1.328.576-.341.373-.512.875-.512 1.504V320h-2.16v-7.84h2.16v.88zm8.239 6c-.246.309-.571.576-.977.8-.394.213-.842.32-1.343.32-.715 0-1.296-.208-1.744-.624-.438-.427-.657-.965-.657-1.616 0-.661.209-1.227.625-1.696.426-.469.992-.741 1.695-.816l2.48-.24a1.52 1.52 0 00-.431-.864 1.231 1.231 0 00-.928-.384c-.363 0-.7.043-1.008.128-.31.075-.56.165-.753.272l-1.28-1.28c.342-.288.79-.533 1.345-.736a5.369 5.369 0 011.855-.304c.651 0 1.232.139 1.744.416.512.267.907.64 1.184 1.12.288.469.432.997.432 1.584V320h-2.16v-.96h-.08zm-1.68-2.288c-.267.011-.48.101-.64.272a.822.822 0 00-.24.576c0 .245.08.443.24.592.17.139.41.208.72.208.5 0 .906-.133 1.216-.4.309-.267.463-.651.463-1.152v-.16l-1.76.064zm8.006-7.952V320h-2.16v-11.2h2.16zm4.406 0V320h-2.16v-11.2h2.16zm4.65 0h2.8l2.287 3.68h.064l2.288-3.68h2.8l-3.52 5.36 3.84 5.84h-2.8l-2.608-4.16h-.064L85.784 320h-2.8l3.84-5.84-3.52-5.36zm16.954 0c.79 0 1.478.16 2.064.48a3.265 3.265 0 011.376 1.312c.32.565.48 1.221.48 1.968 0 .843-.186 1.541-.56 2.096-.373.555-.826.949-1.36 1.184l2.32 4.16h-2.64l-2-3.68H97.7V320h-2.4v-11.2h4.96zm-.08 5.28c.438 0 .8-.144 1.088-.432.288-.288.432-.651.432-1.088 0-.437-.144-.8-.432-1.088-.288-.288-.65-.432-1.088-.432h-2.48v3.04h2.48z"/>
        <path fill="#70747D" d="M290.134 340.97c.261.336.616.621 1.064.854.448.224.956.336 1.526.336.709 0 1.269-.177 1.68-.532.42-.364.63-.817.63-1.358a1.64 1.64 0 00-.294-.938 1.917 1.917 0 00-.812-.686c-.346-.177-.747-.266-1.204-.266h-.98v-.98h.98c.588 0 1.05-.159 1.386-.476.336-.317.504-.742.504-1.274a1.45 1.45 0 00-.518-1.148c-.336-.308-.794-.462-1.372-.462-.486 0-.924.112-1.316.336a2.943 2.943 0 00-.924.784l-.7-.77c.298-.373.7-.686 1.204-.938.513-.261 1.092-.392 1.736-.392a3.26 3.26 0 011.526.35c.448.233.793.551 1.036.952.252.392.378.821.378 1.288 0 .551-.145 1.013-.434 1.386a2.37 2.37 0 01-1.036.784c.504.149.933.429 1.288.84.354.411.532.947.532 1.61 0 .495-.136.961-.406 1.4-.271.439-.658.793-1.162 1.064-.495.271-1.069.406-1.722.406-.738 0-1.391-.14-1.96-.42-.56-.289-1.004-.639-1.33-1.05l.7-.7zm11.048.28c.187.271.434.504.742.7.308.187.644.28 1.008.28.476 0 .84-.103 1.092-.308.252-.215.378-.485.378-.812a.768.768 0 00-.392-.7c-.252-.159-.634-.313-1.148-.462-.457-.14-.826-.271-1.106-.392a2.029 2.029 0 01-.7-.56c-.196-.252-.294-.574-.294-.966 0-.327.094-.635.28-.924a2.16 2.16 0 01.798-.7 2.513 2.513 0 011.162-.266c.458 0 .873.089 1.246.266.383.177.691.392.924.644l-.7.7a1.723 1.723 0 00-.616-.49 1.727 1.727 0 00-.854-.21c-.373 0-.676.098-.91.294-.233.196-.35.425-.35.686 0 .289.122.509.364.658.243.14.621.285 1.134.434.458.14.826.275 1.106.406.29.131.532.327.728.588.206.252.308.583.308.994 0 .373-.098.714-.294 1.022-.196.308-.48.555-.854.742-.373.177-.807.266-1.302.266-.55 0-1.036-.112-1.456-.336a2.99 2.99 0 01-.994-.854l.7-.7zm5.246-4.97h1.26v-2.24h.98v2.24h1.82v.91h-1.82v3.99c0 .336.074.574.224.714.158.131.387.196.686.196h.91v.91h-.952c-.588 0-1.046-.149-1.372-.448-.318-.299-.476-.756-.476-1.372v-3.99h-1.26v-.91zm6.725.91c.177-.289.443-.537.798-.742.364-.205.798-.308 1.302-.308h.42v.98h-.42c-.374 0-.724.089-1.05.266a2.026 2.026 0 00-.77.77c-.187.327-.28.705-.28 1.134V343h-.98v-6.72h.98v.91zm9.379 4.802c-.298.317-.69.588-1.176.812a3.827 3.827 0 01-1.624.336 3.256 3.256 0 01-1.68-.462 3.583 3.583 0 01-1.232-1.274 3.548 3.548 0 01-.448-1.764 3.52 3.52 0 011.666-3.024 2.998 2.998 0 011.624-.476c.598 0 1.144.145 1.638.434.495.289.882.691 1.162 1.204.28.504.42 1.078.42 1.722 0 .177-.023.345-.07.504l-5.46-.014c.019.392.14.761.364 1.106.224.345.514.621.868.826.355.205.738.308 1.148.308.467 0 .887-.084 1.26-.252a2.87 2.87 0 00.91-.616l.63.63zm-.63-2.842c-.074-.607-.322-1.106-.742-1.498a2.064 2.064 0 00-1.498-.602c-.382 0-.742.098-1.078.294a2.453 2.453 0 00-.84.77 2.357 2.357 0 00-.392 1.036h4.55zm3.706-1.89a2.67 2.67 0 01.882-.784 2.452 2.452 0 011.288-.336c.532 0 1.003.117 1.414.35.42.233.742.569.966 1.008.233.429.35.933.35 1.512V343h-.98v-3.99c0-.588-.173-1.059-.518-1.414-.336-.364-.77-.546-1.302-.546-.392 0-.752.098-1.078.294a2.03 2.03 0 00-.756.784 2.444 2.444 0 00-.266 1.162V343h-.98v-6.72h.98v.98zm7.561 6.874c.233.252.537.462.91.63.383.177.803.266 1.26.266.42 0 .803-.107 1.148-.322.355-.215.635-.509.84-.882.215-.373.322-.789.322-1.246v-.77c-.196.289-.49.537-.882.742-.383.205-.835.308-1.358.308a2.983 2.983 0 01-1.596-.448 3.245 3.245 0 01-1.134-1.218 3.479 3.479 0 01-.42-1.694c0-.616.14-1.181.42-1.694.28-.513.658-.919 1.134-1.218a2.983 2.983 0 011.596-.448c.523 0 .975.103 1.358.308.392.205.686.453.882.742v-.91h.98v6.3c0 .616-.149 1.181-.448 1.694a3.243 3.243 0 01-1.19 1.218 3.18 3.18 0 01-1.652.448c-.616 0-1.167-.117-1.652-.35-.485-.224-.868-.499-1.148-.826l.63-.63zm2.24-2.184c.411 0 .789-.107 1.134-.322.345-.215.616-.509.812-.882a2.64 2.64 0 00.294-1.246 2.64 2.64 0 00-.294-1.246 2.252 2.252 0 00-.812-.882 2.102 2.102 0 00-1.134-.322c-.392 0-.756.107-1.092.322a2.325 2.325 0 00-.784.882 2.64 2.64 0 00-.294 1.246c0 .457.098.873.294 1.246.196.373.457.667.784.882.336.215.7.322 1.092.322zm4.761-5.67h1.26v-2.24h.98v2.24h1.82v.91h-1.82v3.99c0 .336.075.574.224.714.159.131.387.196.686.196h.91v.91h-.952c-.588 0-1.045-.149-1.372-.448-.317-.299-.476-.756-.476-1.372v-3.99h-1.26v-.91zm6.795.98a2.69 2.69 0 01.882-.784 2.454 2.454 0 011.288-.336c.532 0 1.003.117 1.414.35.42.233.742.569.966 1.008.233.429.35.933.35 1.512V343h-.98v-3.99c0-.588-.173-1.059-.518-1.414-.336-.364-.77-.546-1.302-.546-.392 0-.751.098-1.078.294a2.044 2.044 0 00-.756.784 2.456 2.456 0 00-.266 1.162V343h-.98v-9.8h.98v4.06zm7.209 3.99c.187.271.434.504.742.7.308.187.644.28 1.008.28.476 0 .84-.103 1.092-.308.252-.215.378-.485.378-.812a.768.768 0 00-.392-.7c-.252-.159-.634-.313-1.148-.462-.457-.14-.826-.271-1.106-.392a2.029 2.029 0 01-.7-.56c-.196-.252-.294-.574-.294-.966 0-.327.094-.635.28-.924a2.16 2.16 0 01.798-.7 2.513 2.513 0 011.162-.266c.458 0 .873.089 1.246.266.383.177.691.392.924.644l-.7.7a1.723 1.723 0 00-.616-.49 1.727 1.727 0 00-.854-.21c-.373 0-.676.098-.91.294-.233.196-.35.425-.35.686 0 .289.122.509.364.658.243.14.621.285 1.134.434.458.14.826.275 1.106.406.29.131.532.327.728.588.206.252.308.583.308.994 0 .373-.098.714-.294 1.022-.196.308-.48.555-.854.742-.373.177-.807.266-1.302.266-.55 0-1.036-.112-1.456-.336a2.99 2.99 0 01-.994-.854l.7-.7z"/>
        <path fill="#25272E" d="M16.84 338.1c0-.915.224-1.759.672-2.534a4.938 4.938 0 011.834-1.834 4.973 4.973 0 012.534-.672c.915 0 1.76.224 2.534.672a4.938 4.938 0 011.834 1.834c.448.775.672 1.619.672 2.534 0 .915-.224 1.759-.672 2.534a4.938 4.938 0 01-1.834 1.834 4.973 4.973 0 01-2.534.672c-.915 0-1.76-.224-2.534-.672a4.938 4.938 0 01-1.834-1.834 4.973 4.973 0 01-.672-2.534zm5.04 4.06a3.927 3.927 0 003.458-1.988 4.125 4.125 0 00.532-2.072 4.05 4.05 0 00-.532-2.058 3.9 3.9 0 00-3.458-2.002 3.9 3.9 0 00-3.458 2.002 4.05 4.05 0 00-.532 2.058c0 .756.177 1.447.532 2.072a3.927 3.927 0 003.458 1.988zm7.978-4.97c.177-.289.443-.537.798-.742.364-.205.798-.308 1.302-.308h.42v.98h-.42c-.373 0-.723.089-1.05.266a2.03 2.03 0 00-.77.77c-.187.327-.28.705-.28 1.134V343h-.98v-6.72h.98v.91zm7.906 4.9a2.688 2.688 0 01-.882.742 2.633 2.633 0 01-1.288.308c-.448 0-.854-.093-1.218-.28a2.264 2.264 0 01-.854-.728 1.695 1.695 0 01-.308-.952c0-.569.168-1.036.504-1.4.345-.364.83-.574 1.456-.63l2.59-.224c0-.327-.075-.635-.224-.924a1.656 1.656 0 00-.602-.686 1.45 1.45 0 00-.854-.266c-.392 0-.751.047-1.078.14a2.98 2.98 0 00-.812.35l-.63-.63c.28-.215.64-.397 1.078-.546.439-.149.92-.224 1.442-.224.504 0 .957.117 1.358.35.41.224.728.532.952.924.233.392.35.831.35 1.316V343h-.98v-.91zm-2.31-2.1c-.41.037-.723.163-.938.378a1.1 1.1 0 00-.322.812c0 .299.121.551.364.756.252.196.597.294 1.036.294.653 0 1.176-.177 1.568-.532.401-.364.602-.868.602-1.512v-.42l-2.31.224zm6.163-6.79v9.8h-.98v-9.8h.98zm9.518 0c.597 0 1.134.135 1.61.406.485.271.863.639 1.134 1.106.27.467.406.989.406 1.568 0 .579-.135 1.101-.406 1.568-.27.467-.649.835-1.134 1.106a3.196 3.196 0 01-1.61.406h-2.66V343h-1.05v-9.8h3.71zm0 5.18c.635 0 1.143-.191 1.526-.574.383-.392.574-.901.574-1.526 0-.635-.191-1.143-.574-1.526-.383-.383-.891-.574-1.526-.574h-2.66v4.2h2.66zm4.632-4.34c0-.177.06-.327.182-.448a.61.61 0 01.448-.182.61.61 0 01.448.182.609.609 0 01.182.448c0 .177-.06.327-.182.448a.61.61 0 01-.448.182.61.61 0 01-.448-.182.609.609 0 01-.182-.448zm1.12 2.24V343h-.98v-6.72h.98zm3.297-3.08v9.8h-.98v-9.8h.98zm3.363 0v9.8h-.98v-9.8h.98z"/>
      </g>
    </g>
    <g filter="url(#filter1_b)">
      <path fill="#fff" fill-opacity=".95" d="M0 0h375v88H0z"/>
      <path stroke="#000" d="M338.663 17.799h16.666c1.196 0 2.167.97 2.167 2.166v5.979a2.167 2.167 0 01-2.167 2.167h-16.666a2.167 2.167 0 01-2.167-2.167v-5.979c0-1.196.97-2.166 2.167-2.166z" opacity=".35"/>
      <path fill="#000" d="M358.996 20.959v3.992a2.167 2.167 0 001.328-1.996c0-.871-.524-1.658-1.328-1.996" opacity=".4"/>
      <path fill="#000" d="M337.996 20.628c0-.736.597-1.333 1.333-1.333h15.333c.737 0 1.334.597 1.334 1.333v4.653c0 .736-.597 1.333-1.334 1.333h-15.333a1.333 1.333 0 01-1.333-1.333v-4.653z"/>
      <path fill="#000" fill-rule="evenodd" d="M323.327 19.57c2.216 0 4.347.85 5.953 2.374a.308.308 0 00.433-.004l1.156-1.164a.32.32 0 00-.003-.455c-4.215-4.032-10.864-4.032-15.079 0a.32.32 0 00-.003.455l1.156 1.164c.119.12.312.121.433.004a8.65 8.65 0 015.954-2.374zm0 3.788c1.217 0 2.391.452 3.294 1.268a.31.31 0 00.433-.006l1.155-1.165a.32.32 0 00.093-.23.318.318 0 00-.098-.228 7.169 7.169 0 00-9.752 0 .32.32 0 00-.004.458l1.154 1.165a.31.31 0 00.433.006 4.912 4.912 0 013.292-1.268zm2.313 2.55a.311.311 0 01-.094.23l-1.997 2.011a.314.314 0 01-.444 0l-1.997-2.012a.312.312 0 01.009-.456 3.426 3.426 0 014.419 0c.065.058.102.14.104.226zM309.663 17.633h-1a1 1 0 00-1 .998v8.65a1 1 0 001 .998h1c.553 0 1-.447 1-.998v-8.65a.999.999 0 00-1-.998zm-5.666 2.329h1a1 1 0 011 .998v6.321a1 1 0 01-1 .998h-1a1 1 0 01-1-.998V20.96a1 1 0 011-.998zm-3.667 2.329h-1a1 1 0 00-1 .998v3.992a1 1 0 001 .998h1c.553 0 1-.447 1-.998V23.29a.999.999 0 00-1-.998zm-4.666 1.996h-1a1 1 0 00-1 .998v1.996a1 1 0 001 .998h1a1 1 0 001-.998v-1.996a1 1 0 00-1-.998z" clip-rule="evenodd"/>
      <g>
        <path fill="#000" d="M33.164 20.495v.029h1.773v-.03c0-1.076.747-1.801 1.853-1.801 1.04 0 1.802.674 1.802 1.604 0 .747-.36 1.296-1.802 2.761l-3.523 3.604v1.31h7.339V26.37h-4.747v-.125l2.212-2.22c1.795-1.772 2.373-2.71 2.373-3.844 0-1.765-1.508-3.04-3.596-3.04-2.168 0-3.684 1.377-3.684 3.355zm10.613 6.357c.696 0 1.172-.498 1.172-1.157 0-.667-.476-1.157-1.172-1.157-.688 0-1.172.49-1.172 1.157 0 .659.484 1.157 1.172 1.157zm0-5.493c.696 0 1.172-.49 1.172-1.15 0-.666-.476-1.157-1.172-1.157-.688 0-1.172.49-1.172 1.157 0 .66.484 1.15 1.172 1.15zm7.083 6.877c2.527 0 4.029-2.05 4.029-5.544 0-3.508-1.524-5.552-4.029-5.552-2.512 0-4.035 2.044-4.035 5.537 0 3.509 1.501 5.56 4.035 5.56zm0-1.567c-1.34 0-2.124-1.392-2.124-3.992 0-2.578.798-3.962 2.124-3.962s2.117 1.377 2.117 3.962c0 2.6-.776 3.992-2.117 3.992zm5.962 1.304H58.8l4.519-8.958v-1.611h-7.354v1.59h5.45v.116l-4.593 8.863z"/>
      </g>
      <g>
        <path fill="#25272E" d="M351 75.5a9.5 9.5 0 009.5-9.5 9.5 9.5 0 00-9.5-9.5 9.5 9.5 0 00-9.5 9.5 9.5 9.5 0 009.5 9.5zm0 1.5c-6.075 0-11-4.925-11-11s4.925-11 11-11 11 4.925 11 11-4.925 11-11 11z"/>
        <path fill="#25272E" d="M349.81 67.573c0-2.03 2.38-2.03 2.38-3.52a1.136 1.136 0 00-.807-1.008 1.14 1.14 0 00-.453-.042 1.719 1.719 0 00-1.68 1.15l-1.75-.77a3.56 3.56 0 013.5-2.38c2.07 0 3.36 1.32 3.36 2.79 0 2.59-2.52 2.59-2.52 4.41h-1.89a2.067 2.067 0 01-.14-.63zm-.14 2.52a1.085 1.085 0 01.33-.782 1.083 1.083 0 01.79-.308 1.119 1.119 0 11-1.12 1.09z"/>
        <g>
          <path fill="#25272E" fill-rule="evenodd" d="M27.002 57.36l-8.157 7.831c-.46.44-.46 1.176 0 1.619l8.157 7.83a1.292 1.292 0 101.79-1.865l-6.832-6.559a.299.299 0 010-.433l6.833-6.56a1.293 1.293 0 00-1.79-1.864z" clip-rule="evenodd"/>
        </g>
      </g>
      <g>
        <circle cx="141.5" cy="63.5" r="2.5" fill="#03948C"/>
        <circle cx="154.5" cy="63.5" r="2.5" fill="#03948C"/>
        <circle cx="167.5" cy="63.5" r="2.5" fill="#03948C"/>
        <circle cx="180.5" cy="63.5" r="2.5" fill="#03948C"/>
        <circle cx="193.5" cy="63.5" r="2.5" fill="#03948C"/>
        <circle cx="206.5" cy="63.5" r="2.5" fill="#03948C"/>
        <circle cx="219.5" cy="63.5" r="4" fill="#03948C"/>
        <circle cx="232.5" cy="63.5" r="2.5" fill="#CEE1E5"/>
      </g>
    </g>
    <g>
      <g filter="url(#filter2_b)">
        <path fill="#D2D5DB" fill-opacity=".9" fill-rule="evenodd" d="M0 521h375v291H0V521z" clip-rule="evenodd"/>
      </g>
      <g filter="url(#filter3_d)">
        <path fill="#ACB4BE" fill-rule="evenodd" d="M284 696a5 5 0 015-5h78a5 5 0 015 5v32a5 5 0 01-5 5h-78a5 5 0 01-5-5v-32z" clip-rule="evenodd"/>
      </g>
      <path fill="#161616" d="M307.266 716h1.343v-5.219c0-1.187.93-2.047 2.211-2.047.266 0 .75.047.86.078v-1.343a5.65 5.65 0 00-.672-.039c-1.117 0-2.086.578-2.336 1.398h-.125v-1.25h-1.281V716zm8.898-7.383c1.336 0 2.227.985 2.258 2.477h-4.64c.101-1.492 1.039-2.477 2.382-2.477zm2.219 5.203c-.351.742-1.086 1.141-2.172 1.141-1.429 0-2.359-1.055-2.429-2.719v-.062h6.054v-.516c0-2.617-1.383-4.234-3.656-4.234-2.313 0-3.797 1.718-3.797 4.367 0 2.664 1.461 4.351 3.797 4.351 1.844 0 3.141-.882 3.547-2.328h-1.344zm3.805-8.422v2.18h-1.359v1.125h1.359v5.109c0 1.61.695 2.25 2.43 2.25.265 0 .523-.031.789-.078v-1.132c-.25.023-.383.031-.625.031-.875 0-1.25-.422-1.25-1.414v-4.766h1.875v-1.125h-1.875v-2.18h-1.344zm11.743 2.18h-1.344v4.984c0 1.477-.813 2.36-2.297 2.36-1.344 0-1.906-.703-1.906-2.219v-5.125h-1.344v5.453c0 1.992.984 3.117 2.875 3.117 1.289 0 2.188-.531 2.609-1.468h.125V716h1.282v-8.422zm2.211 8.422h1.344v-5.219c0-1.187.929-2.047 2.211-2.047.265 0 .75.047.859.078v-1.343a5.65 5.65 0 00-.672-.039c-1.117 0-2.086.578-2.336 1.398h-.125v-1.25h-1.281V716zm5.93 0h1.344v-4.984c0-1.477.867-2.375 2.211-2.375 1.343 0 1.984.718 1.984 2.234V716h1.344v-5.453c0-2-1.055-3.117-2.946-3.117-1.289 0-2.109.547-2.531 1.476h-.125v-1.328h-1.281V716z"/>
      <g filter="url(#filter4_d)">
        <path fill="#fff" fill-rule="evenodd" d="M96 696a5 5 0 015-5h172a5 5 0 015 5v32a5 5 0 01-5 5H101a5 5 0 01-5-5v-32z" clip-rule="evenodd"/>
      </g>
      <path fill="#000" d="M166.347 709.883c0 1.219.719 1.898 2.297 2.281l1.445.352c.898.218 1.336.609 1.336 1.187 0 .774-.813 1.313-1.945 1.313-1.078 0-1.75-.454-1.977-1.164h-1.383c.149 1.398 1.438 2.296 3.313 2.296 1.914 0 3.375-1.039 3.375-2.546 0-1.211-.766-1.899-2.352-2.282l-1.297-.312c-.992-.242-1.461-.602-1.461-1.18 0-.75.782-1.258 1.782-1.258 1.015 0 1.672.446 1.851 1.118h1.328c-.179-1.383-1.406-2.258-3.172-2.258-1.789 0-3.14 1.054-3.14 2.453zm12.352-2.453c-1.149 0-2.157.586-2.696 1.554h-.125v-1.406h-1.281v11.234h1.344v-4.078h.125c.461.891 1.43 1.414 2.633 1.414 2.14 0 3.539-1.726 3.539-4.359 0-2.648-1.391-4.359-3.539-4.359zm-.321 7.508c-1.515 0-2.476-1.219-2.476-3.149 0-1.937.961-3.148 2.484-3.148 1.539 0 2.461 1.179 2.461 3.148s-.922 3.149-2.469 3.149zm8.243.031c-.977 0-1.703-.5-1.703-1.36 0-.843.562-1.289 1.844-1.375l2.265-.148v.773c0 1.203-1.023 2.11-2.406 2.11zm-.25 1.179c1.125 0 2.047-.492 2.594-1.39h.125V716h1.281v-5.766c0-1.75-1.149-2.804-3.203-2.804-1.797 0-3.125.89-3.305 2.242h1.359c.188-.664.891-1.047 1.899-1.047 1.258 0 1.906.57 1.906 1.609V711l-2.43.148c-1.96.118-3.07.985-3.07 2.493 0 1.539 1.211 2.507 2.844 2.507zm13.133-5.992c-.234-1.5-1.484-2.726-3.531-2.726-2.36 0-3.86 1.703-3.86 4.328 0 2.68 1.508 4.39 3.868 4.39 2.023 0 3.281-1.14 3.523-2.687h-1.359c-.25.953-1.039 1.477-2.172 1.477-1.5 0-2.469-1.235-2.469-3.18 0-1.906.953-3.117 2.469-3.117 1.211 0 1.953.679 2.172 1.515h1.359zm5.024-1.539c1.336 0 2.226.985 2.258 2.477h-4.641c.102-1.492 1.039-2.477 2.383-2.477zm2.219 5.203c-.352.742-1.086 1.141-2.172 1.141-1.43 0-2.36-1.055-2.43-2.719v-.062h6.055v-.516c0-2.617-1.383-4.234-3.657-4.234-2.312 0-3.796 1.718-3.796 4.367 0 2.664 1.461 4.351 3.796 4.351 1.844 0 3.141-.882 3.547-2.328h-1.343z"/>
      <g filter="url(#filter5_d)">
        <path fill="#ACB4BE" fill-rule="evenodd" d="M3 696a5 5 0 015-5h77a5 5 0 015 5v32a5 5 0 01-5 5H8a5 5 0 01-5-5v-32z" clip-rule="evenodd"/>
      </g>
      <path fill="#000" d="M37.347 716h1.406v-11.273h-1.398l-3 2.156v1.484l2.867-2.078h.125V716zm4.383-8.102v.008h1.36v-.008c0-1.328.89-2.21 2.21-2.21 1.243 0 2.204.867 2.204 1.992 0 .906-.352 1.515-1.805 3.093l-3.898 4.258V716h7.296v-1.266h-5.28v-.125l2.71-2.914c1.852-1.984 2.383-2.898 2.383-4.07 0-1.789-1.547-3.164-3.57-3.164-2.094 0-3.61 1.437-3.61 3.437zm11.727 2.907h1.43c1.601 0 2.594.812 2.594 2.117 0 1.234-1.055 2.117-2.54 2.117-1.453 0-2.468-.773-2.593-1.977h-1.36c.102 1.93 1.68 3.204 3.97 3.204 2.226 0 3.968-1.446 3.968-3.305 0-1.539-.93-2.602-2.461-2.797v-.125c1.234-.297 1.977-1.281 1.977-2.625 0-1.641-1.57-2.953-3.54-2.953-2.148 0-3.546 1.203-3.687 3.156h1.367c.117-1.211.969-1.929 2.266-1.929 1.297 0 2.164.765 2.164 1.914 0 1.171-.906 2-2.188 2h-1.367v1.203z"/>
      <g filter="url(#filter6_d)">
        <path fill="#ACB4BE" fill-rule="evenodd" d="M330 644a5 5 0 015-5h32a5 5 0 015 5v32a5 5 0 01-5 5h-32a5 5 0 01-5-5v-32z" clip-rule="evenodd"/>
      </g>
      <path stroke="#000" d="M361.5 665.933c0 .881-.689 1.567-1.498 1.567h-11.795l-7.5-7.5 7.5-7.5h11.795c.811 0 1.498.689 1.498 1.567v11.866z"/>
      <path fill="#000" fill-rule="evenodd" d="M353.5 659.293l-3.182-3.182-.707.707 3.182 3.182-3.182 3.182.707.708 3.182-3.182 3.182 3.182.707-.708-3.182-3.182 3.182-3.182-.707-.707-3.182 3.182z" clip-rule="evenodd"/>
      <g filter="url(#filter7_d)">
        <path fill="#fff" fill-rule="evenodd" d="M284 644a5 5 0 015-5h22a5 5 0 015 5v32a5 5 0 01-5 5h-22a5 5 0 01-5-5v-32z" clip-rule="evenodd"/>
      </g>
      <path fill="#000" d="M292.313 667h1.932v-7.502c0-1.707 1.224-3.077 2.807-3.077 1.528 0 2.527.921 2.527 2.358V667h1.932v-7.783c0-1.538 1.123-2.796 2.807-2.796 1.707 0 2.55.876 2.55 2.662V667h1.931v-8.367c0-2.538-1.381-3.953-3.852-3.953-1.673 0-3.054.842-3.706 2.123h-.179c-.562-1.258-1.708-2.123-3.347-2.123-1.617 0-2.83.775-3.381 2.123h-.179v-1.909h-1.842V667z"/>
      <g filter="url(#filter8_d)">
        <path fill="#fff" fill-rule="evenodd" d="M246.5 644a5 5 0 015-5h22a5 5 0 015 5v32a5 5 0 01-5 5h-22a5 5 0 01-5-5v-32z" clip-rule="evenodd"/>
      </g>
      <path fill="#000" d="M257.604 667h1.931v-7.165c0-2.123 1.247-3.414 3.178-3.414 1.932 0 2.853 1.033 2.853 3.212V667h1.932v-7.839c0-2.875-1.517-4.481-4.234-4.481-1.853 0-3.033.786-3.639 2.123h-.18v-1.909h-1.841V667z"/>
      <g filter="url(#filter9_d)">
        <path fill="#fff" fill-rule="evenodd" d="M209 644a5 5 0 015-5h22a5 5 0 015 5v32a5 5 0 01-5 5h-22a5 5 0 01-5-5v-32z" clip-rule="evenodd"/>
      </g>
      <path fill="#000" d="M226.275 667.213c3.066 0 5.076-2.482 5.076-6.266 0-3.807-1.999-6.267-5.076-6.267-1.662 0-3.133.82-3.796 2.123h-.18v-6.716h-1.931V667h1.841v-1.932h.18c.764 1.348 2.201 2.145 3.886 2.145zm-.449-10.792c2.212 0 3.526 1.696 3.526 4.526s-1.314 4.526-3.526 4.526c-2.201 0-3.572-1.73-3.572-4.526 0-2.797 1.371-4.526 3.572-4.526z"/>
      <g filter="url(#filter10_d)">
        <path fill="#fff" fill-rule="evenodd" d="M171.5 644a5 5 0 015-5h22a5 5 0 015 5v32a5 5 0 01-5 5h-22a5 5 0 01-5-5v-32z" clip-rule="evenodd"/>
      </g>
      <path fill="#000" d="M193.469 654.894h-2.066l-3.313 9.972h-.18l-3.313-9.972h-2.066L187.012 667h1.976l4.481-12.106z"/>
      <g filter="url(#filter11_d)">
        <path fill="#fff" fill-rule="evenodd" d="M134 644a5 5 0 015-5h22a5 5 0 015 5v32a5 5 0 01-5 5h-22a5 5 0 01-5-5v-32z" clip-rule="evenodd"/>
      </g>
      <path fill="#000" d="M155.902 658.6c-.337-2.157-2.134-3.92-5.076-3.92-3.392 0-5.548 2.448-5.548 6.222 0 3.852 2.167 6.311 5.559 6.311 2.909 0 4.717-1.639 5.065-3.863h-1.954c-.36 1.37-1.494 2.123-3.122 2.123-2.157 0-3.549-1.775-3.549-4.571 0-2.74 1.37-4.481 3.549-4.481 1.74 0 2.807.977 3.122 2.179h1.954z"/>
      <g filter="url(#filter12_d)">
        <path fill="#fff" fill-rule="evenodd" d="M96.5 644a5 5 0 015-5h22a5 5 0 015 5v32a5 5 0 01-5 5h-22a5 5 0 01-5-5v-32z" clip-rule="evenodd"/>
      </g>
      <path fill="#000" d="M113.067 662.429l2.864 4.571h2.291l-4.166-6.132 4.11-5.974h-2.19l-2.841 4.503h-.18l-2.875-4.503h-2.302l4.189 6.053-4.144 6.053h2.19l2.875-4.571h.179z"/>
      <g filter="url(#filter13_d)">
        <path fill="#fff" fill-rule="evenodd" d="M59 644a5 5 0 015-5h22a5 5 0 015 5v32a5 5 0 01-5 5H64a5 5 0 01-5-5v-32z" clip-rule="evenodd"/>
      </g>
      <path fill="#000" d="M70.84 667h9.32v-1.617h-6.985v-.18l6.952-8.861v-1.448h-9.276v1.617h6.974v.179l-6.986 8.895V667z"/>
      <g filter="url(#filter14_d)">
        <path fill="#ACB4BE" fill-rule="evenodd" d="M3 644a5 5 0 015-5h32a5 5 0 015 5v32a5 5 0 01-5 5H8a5 5 0 01-5-5v-32z" clip-rule="evenodd"/>
      </g>
      <path stroke="#000" d="M27.645 661.359l4.411.007c.551.001.679-.315.288-.706l-8.366-8.367a1 1 0 00-1.417.002l-8.332 8.333c-.396.395-.264.709.286.71l4.13.007v4.18c0 1.103.894 1.999 1.997 1.999h5.005a2 2 0 001.998-1.999v-4.166 0z" clip-rule="evenodd"/>
      <g filter="url(#filter15_d)">
        <path fill="#fff" fill-rule="evenodd" d="M321.5 590a5 5 0 015-5h22a5 5 0 015 5v32a5 5 0 01-5 5h-22a5 5 0 01-5-5v-32z" clip-rule="evenodd"/>
      </g>
      <path fill="#000" d="M336.534 613h1.932v-16.913h-1.932V613z"/>
      <g filter="url(#filter16_d)">
        <path fill="#fff" fill-rule="evenodd" d="M284 590a5 5 0 015-5h22a5 5 0 015 5v32a5 5 0 01-5 5h-22a5 5 0 01-5-5v-32z" clip-rule="evenodd"/>
      </g>
      <path fill="#000" d="M298.299 606.183h-.18v-10.096h-1.931V613h1.931v-4.593l1.157-1.078 4.537 5.671h2.459l-5.559-6.918 5.211-5.188h-2.369l-5.256 5.289z"/>
      <g filter="url(#filter17_d)">
        <path fill="#fff" fill-rule="evenodd" d="M246.5 590a5 5 0 015-5h22a5 5 0 015 5v32a5 5 0 01-5 5h-22a5 5 0 01-5-5v-32z" clip-rule="evenodd"/>
      </g>
      <path fill="#000" d="M263.466 600.894h-1.932v12.735c0 1.336-.449 1.875-1.819 1.875h-.292v1.651h.337c2.538 0 3.706-1.067 3.706-3.56v-12.701zm-.966-2.46c.741 0 1.348-.606 1.348-1.348 0-.741-.607-1.347-1.348-1.347-.741 0-1.348.606-1.348 1.347 0 .742.607 1.348 1.348 1.348z"/>
      <g filter="url(#filter18_d)">
        <path fill="#fff" fill-rule="evenodd" d="M209 590a5 5 0 015-5h22a5 5 0 015 5v32a5 5 0 01-5 5h-22a5 5 0 01-5-5v-32z" clip-rule="evenodd"/>
      </g>
      <path fill="#000" d="M220.104 613h1.931v-7.165c0-2.044 1.191-3.414 3.358-3.414 1.831 0 2.796 1.067 2.796 3.212V613h1.932v-7.839c0-2.841-1.617-4.481-4.178-4.481-1.853 0-3.122.786-3.728 2.123h-.18v-6.716h-1.931V613z"/>
      <g>
        <g filter="url(#filter19_d)">
          <path fill="#fff" fill-rule="evenodd" d="M171.5 590a5 5 0 015-5h22a5 5 0 015 5v32a5 5 0 01-5 5h-22a5 5 0 01-5-5v-32z" clip-rule="evenodd"/>
        </g>
        <path fill="#000" d="M187.708 611.113c-2.246 0-3.504-1.707-3.504-4.346 0-2.639 1.258-4.346 3.504-4.346 2.235 0 3.594 1.707 3.594 4.346 0 2.639-1.348 4.346-3.594 4.346zm.09 6.536c3.302 0 5.39-1.729 5.39-4.436v-12.319h-1.841v1.92h-.18c-.696-1.303-2.19-2.134-3.886-2.134-3.111 0-5.076 2.46-5.076 6.087 0 3.628 1.943 6.053 5.076 6.053 1.662 0 3.032-.752 3.796-2.089h.18v2.381c0 1.786-1.292 2.853-3.459 2.853-1.741 0-2.819-.64-3.032-1.629h-2.044c.292 1.999 2.156 3.313 5.076 3.313z"/>
      </g>
      <g>
        <g filter="url(#filter20_d)">
          <path fill="#fff" fill-rule="evenodd" d="M134 590a5 5 0 015-5h22a5 5 0 015 5v32a5 5 0 01-5 5h-22a5 5 0 01-5-5v-32z" clip-rule="evenodd"/>
        </g>
        <path fill="#000" d="M148.961 613h1.932v-10.489h2.774v-1.617h-2.774v-1.292c0-1.325.584-1.999 1.977-1.999.348 0 .673.011.909.056v-1.572a6.748 6.748 0 00-1.302-.112c-2.303 0-3.516 1.156-3.516 3.571v1.348h-2.01v1.617h2.01V613z"/>
      </g>
      <g>
        <g filter="url(#filter21_d)">
          <path fill="#fff" fill-rule="evenodd" d="M96.5 590a5 5 0 015-5h22a5 5 0 015 5v32a5 5 0 01-5 5h-22a5 5 0 01-5-5v-32z" clip-rule="evenodd"/>
        </g>
        <path fill="#000" d="M112.236 613.213c1.674 0 3.111-.797 3.875-2.145h.18V613h1.841v-16.913h-1.931v6.716h-.169c-.685-1.325-2.111-2.123-3.796-2.123-3.077 0-5.087 2.471-5.087 6.267 0 3.807 1.988 6.266 5.087 6.266zm.45-10.792c2.189 0 3.56 1.752 3.56 4.526 0 2.796-1.359 4.526-3.56 4.526-2.213 0-3.538-1.696-3.538-4.526 0-2.819 1.336-4.526 3.538-4.526z"/>
      </g>
      <g>
        <g filter="url(#filter22_d)">
          <path fill="#fff" fill-rule="evenodd" d="M59.5 590a5 5 0 015-5h22a5 5 0 015 5v32a5 5 0 01-5 5h-22a5 5 0 01-5-5v-32z" clip-rule="evenodd"/>
        </g>
        <path fill="#000" d="M71.519 604.207c0 1.751 1.033 2.729 3.302 3.279l2.077.505c1.292.315 1.92.876 1.92 1.707 0 1.112-1.167 1.887-2.796 1.887-1.55 0-2.515-.651-2.84-1.673h-1.989c.214 2.01 2.067 3.301 4.762 3.301 2.752 0 4.852-1.493 4.852-3.661 0-1.74-1.1-2.729-3.38-3.279l-1.865-.449c-1.426-.348-2.1-.865-2.1-1.696 0-1.078 1.123-1.808 2.56-1.808 1.46 0 2.404.64 2.662 1.606h1.91c-.259-1.988-2.022-3.246-4.56-3.246-2.572 0-4.515 1.516-4.515 3.527z"/>
      </g>
      <g>
        <g filter="url(#filter23_d)">
          <path fill="#fff" fill-rule="evenodd" d="M22 590a5 5 0 015-5h22a5 5 0 015 5v32a5 5 0 01-5 5H27a5 5 0 01-5-5v-32z" clip-rule="evenodd"/>
        </g>
        <path fill="#000" d="M37.703 611.518c-1.404 0-2.449-.719-2.449-1.955 0-1.212.809-1.853 2.65-1.976l3.258-.213v1.111c0 1.73-1.472 3.033-3.46 3.033zm-.36 1.695c1.617 0 2.943-.707 3.729-1.999h.18V613h1.841v-8.288c0-2.516-1.65-4.032-4.604-4.032-2.583 0-4.492 1.28-4.75 3.223h1.953c.27-.954 1.28-1.505 2.73-1.505 1.808 0 2.74.82 2.74 2.314v1.1l-3.493.214c-2.819.168-4.414 1.415-4.414 3.582 0 2.213 1.741 3.605 4.088 3.605z"/>
      </g>
      <g>
        <g filter="url(#filter24_d)">
          <path fill="#fff" fill-rule="evenodd" d="M340 536a5 5 0 015-5h22a5 5 0 015 5v32a5 5 0 01-5 5h-22a5 5 0 01-5-5v-32z" clip-rule="evenodd"/>
        </g>
        <path fill="#000" d="M357.208 546.68c-1.651 0-3.1.842-3.875 2.235h-.18v-2.021h-1.841v16.149h1.931v-5.862h.18c.662 1.28 2.055 2.032 3.785 2.032 3.077 0 5.087-2.482 5.087-6.266 0-3.807-1.999-6.267-5.087-6.267zm-.461 10.793c-2.179 0-3.56-1.752-3.56-4.526 0-2.785 1.381-4.526 3.571-4.526 2.213 0 3.538 1.696 3.538 4.526s-1.325 4.526-3.549 4.526z"/>
      </g>
      <g>
        <g filter="url(#filter25_d)">
          <path fill="#fff" fill-rule="evenodd" d="M302.5 536a5 5 0 015-5h22a5 5 0 015 5v32a5 5 0 01-5 5h-22a5 5 0 01-5-5v-32z" clip-rule="evenodd"/>
        </g>
        <path fill="#000" d="M318.5 559.213c3.448 0 5.582-2.38 5.582-6.266 0-3.897-2.134-6.267-5.582-6.267s-5.582 2.37-5.582 6.267c0 3.886 2.134 6.266 5.582 6.266zm0-1.74c-2.291 0-3.583-1.662-3.583-4.526 0-2.875 1.292-4.526 3.583-4.526 2.291 0 3.583 1.651 3.583 4.526 0 2.864-1.292 4.526-3.583 4.526z"/>
      </g>
      <g>
        <g filter="url(#filter26_d)">
          <path fill="#fff" fill-rule="evenodd" d="M265 536a5 5 0 015-5h22a5 5 0 015 5v32a5 5 0 01-5 5h-22a5 5 0 01-5-5v-32z" clip-rule="evenodd"/>
        </g>
        <path fill="#000" d="M280.034 559h1.932v-12.106h-1.932V559zm.966-14.566c.741 0 1.348-.606 1.348-1.348 0-.741-.607-1.347-1.348-1.347-.741 0-1.348.606-1.348 1.347 0 .742.607 1.348 1.348 1.348z"/>
      </g>
      <g>
        <g filter="url(#filter27_d)">
          <path fill="#fff" fill-rule="evenodd" d="M227.5 536a5 5 0 015-5h22a5 5 0 015 5v32a5 5 0 01-5 5h-22a5 5 0 01-5-5v-32z" clip-rule="evenodd"/>
        </g>
        <path fill="#000" d="M248.396 546.894h-1.931v7.165c0 2.122-1.168 3.391-3.302 3.391-1.932 0-2.74-1.011-2.74-3.189v-7.367h-1.932v7.838c0 2.864 1.415 4.481 4.133 4.481 1.853 0 3.145-.763 3.751-2.111h.18V559h1.841v-12.106z"/>
      </g>
      <g>
        <g filter="url(#filter28_d)">
          <path fill="#fff" fill-rule="evenodd" d="M190 536a5 5 0 015-5h22a5 5 0 015 5v32a5 5 0 01-5 5h-22a5 5 0 01-5-5v-32z" clip-rule="evenodd"/>
        </g>
        <path fill="#000" d="M203.108 563.38c2.145 0 3.111-.831 4.144-3.639l4.728-12.847h-2.055l-3.313 9.961h-.179l-3.325-9.961h-2.088l4.48 12.117-.224.719c-.505 1.46-1.112 1.988-2.224 1.988-.269 0-.573-.011-.808-.056v1.65c.269.045.606.068.864.068z"/>
      </g>
      <g>
        <g filter="url(#filter29_d)">
          <path fill="#fff" fill-rule="evenodd" d="M152.5 536a5 5 0 015-5h22a5 5 0 015 5v32a5 5 0 01-5 5h-22a5 5 0 01-5-5v-32z" clip-rule="evenodd"/>
        </g>
        <path fill="#000" d="M167.45 543.76v3.134h-1.954v1.617h1.954v7.344c0 2.314 1 3.235 3.493 3.235.382 0 .752-.045 1.134-.112v-1.629c-.359.034-.55.045-.898.045-1.258 0-1.797-.606-1.797-2.033v-6.85h2.695v-1.617h-2.695v-3.134h-1.932z"/>
      </g>
      <g>
        <g filter="url(#filter30_d)">
          <path fill="#fff" fill-rule="evenodd" d="M115 536a5 5 0 015-5h22a5 5 0 015 5v32a5 5 0 01-5 5h-22a5 5 0 01-5-5v-32z" clip-rule="evenodd"/>
        </g>
        <path fill="#000" d="M128.939 559h1.932v-7.502c0-1.707 1.337-2.942 3.178-2.942.382 0 1.078.067 1.236.112v-1.932a8.461 8.461 0 00-.966-.056c-1.606 0-2.999.831-3.358 2.01h-.18v-1.796h-1.842V559z"/>
      </g>
      <g>
        <g filter="url(#filter31_d)">
          <path fill="#fff" fill-rule="evenodd" d="M77.5 536a5 5 0 015-5h22a5 5 0 015 5v32a5 5 0 01-5 5h-22a5 5 0 01-5-5v-32z" clip-rule="evenodd"/>
        </g>
        <path fill="#000" d="M93.579 548.387c1.92 0 3.2 1.415 3.245 3.56h-6.67c.145-2.145 1.493-3.56 3.425-3.56zm3.19 7.48c-.506 1.067-1.562 1.639-3.123 1.639-2.055 0-3.392-1.516-3.493-3.908v-.09h8.704v-.741c0-3.762-1.988-6.087-5.256-6.087-3.324 0-5.458 2.471-5.458 6.278 0 3.83 2.1 6.255 5.458 6.255 2.65 0 4.515-1.269 5.099-3.346h-1.932z"/>
      </g>
      <g>
        <g filter="url(#filter32_d)">
          <path fill="#fff" fill-rule="evenodd" d="M40.5 536a5 5 0 015-5h22a5 5 0 015 5v32a5 5 0 01-5 5h-22a5 5 0 01-5-5v-32z" clip-rule="evenodd"/>
        </g>
        <path fill="#000" d="M64.642 546.894H62.7l-2.38 9.68h-.18l-2.707-9.68H55.58l-2.706 9.68h-.18l-2.381-9.68h-1.954L51.75 559h1.954l2.695-9.366h.18L59.285 559h1.966l3.391-12.106z"/>
      </g>
      <g>
        <g filter="url(#filter33_d)">
          <path fill="#fff" fill-rule="evenodd" d="M3 536a5 5 0 015-5h22a5 5 0 015 5v32a5 5 0 01-5 5H8a5 5 0 01-5-5v-32z" clip-rule="evenodd"/>
        </g>
        <path fill="#000" d="M18.77 546.68c-3.066 0-5.065 2.471-5.065 6.267 0 3.818 1.977 6.266 5.065 6.266 1.707 0 3.01-.707 3.785-2.032h.18v5.862h1.954v-16.149h-1.865v2.021h-.18c-.718-1.359-2.223-2.235-3.874-2.235zm.438 10.793c-2.201 0-3.504-1.685-3.504-4.526 0-2.83 1.314-4.526 3.515-4.526 2.19 0 3.572 1.752 3.572 4.526 0 2.785-1.37 4.526-3.583 4.526z"/>
      </g>
      <path fill="#50555C" fill-rule="evenodd" d="M330.833 772.333a.833.833 0 01.83.915v2.295h-.005v.006a.36.36 0 00.003.047l.002.043v.314h.015a5.87 5.87 0 005.646 5.376h.336a5.866 5.866 0 005.647-5.376h.02v-2.777h.006v-.01a.833.833 0 111.664.071v2.046h-.01a7.555 7.555 0 01-6.66 7.506v2.534h3.14v.01h.033a.833.833 0 010 1.666h-8a.833.833 0 010-1.666h.03v-.01h3.147v-2.534a7.546 7.546 0 01-6.677-7.506c0-.02.002-.039.003-.058a.344.344 0 00.003-.046v-1.91a.833.833 0 01.827-.936zm11.16 1.546c0 .504 0 1.034-.026 1.537-.021.454-.09.904-.207 1.343a4.374 4.374 0 01-1.583 2.307 4.327 4.327 0 01-5.36 0 4.336 4.336 0 01-1.584-2.307 6.227 6.227 0 01-.207-1.343c-.029-.503-.026-1.033-.026-1.537v-4.213c0-.5.003-2.71 0-3.083a4.8 4.8 0 01.233-1.344 4.427 4.427 0 018.528 0c.125.439.203.889.233 1.344.03.503 0 2.583 0 3.083v4.213h-.001zm-1.666.787c0 .32-.007.427-.027.747-.011.29-.055.579-.13.86a2.808 2.808 0 01-.99 1.486 2.74 2.74 0 01-3.363 0 2.8 2.8 0 01-.994-1.486 4.178 4.178 0 01-.13-.86 11.64 11.64 0 01-.02-.747c0-4.433-.02-7.72.007-8.073.019-.291.067-.579.143-.86.16-.591.509-1.113.994-1.487a2.74 2.74 0 013.363 0c.483.375.83.897.99 1.487.085.28.138.568.16.86.023.38-.003 3.626-.003 8.073zM37.75 761c7.318 0 13.25 5.932 13.25 13.25s-5.932 13.25-13.25 13.25-13.25-5.932-13.25-13.25S30.432 761 37.75 761zm0 1.544c6.465 0 11.706 5.242 11.705 11.707 0 6.465-5.242 11.706-11.707 11.705-6.465 0-11.706-5.241-11.706-11.706a11.706 11.706 0 0111.708-11.706zm-4.192 5.959a1.526 1.526 0 00-1.548 1.533 1.548 1.548 0 103.096 0 1.528 1.528 0 00-1.548-1.533zm13.022 8.029c-.705 3.813-4.385 6.996-8.832 6.996-4.41 0-8.069-3.137-8.816-6.906-.151-.941.62-1.163 1.345-.987a25.801 25.801 0 007.473 1.013 25.827 25.827 0 007.456-1.01c.706-.179 1.462.023 1.374.894zm-2.395.53c-.069.027-.139.047-.21.07-.007.003.226-.073.22-.07-2.096.577-4.261.857-6.434.832-2.593 0-4.912-.288-6.508-.862-1.157-.344-.935 1.017-.122 1.435a15.574 15.574 0 006.63 1.398c2.718 0 5.141-.633 6.741-1.451.758-.487.907-1.792-.317-1.352zm-2.235-8.559a1.526 1.526 0 00-1.548 1.533 1.547 1.547 0 103.096 0 1.529 1.529 0 00-1.548-1.533z" clip-rule="evenodd"/>
    </g>
    <g>
      <path fill="#000" fill-rule="evenodd" d="M121 800.5a2.5 2.5 0 012.5-2.5h129a2.5 2.5 0 110 5h-129a2.5 2.5 0 01-2.5-2.5z" clip-rule="evenodd"/>
    </g>
  </g>
  <defs>
    <filter id="filter0_d" width="447" height="479" x="-36" y="78" color-interpolation-filters="sRGB" filterUnits="userSpaceOnUse">
      <feFlood flood-opacity="0" result="BackgroundImageFix"/>
      <feColorMatrix in="SourceAlpha" values="0 0 0 0 0 0 0 0 0 0 0 0 0 0 0 0 0 0 127 0"/>
      <feMorphology in="SourceAlpha" operator="dilate" radius="4" result="effect1_dropShadow"/>
      <feOffset/>
      <feGaussianBlur stdDeviation="16"/>
      <feColorMatrix values="0 0 0 0 0.4056 0 0 0 0 0.500104 0 0 0 0 0.52 0 0 0 0.12 0"/>
      <feBlend in2="BackgroundImageFix" mode="multiply" result="effect1_dropShadow"/>
      <feBlend in="SourceGraphic" in2="effect1_dropShadow" result="shape"/>
    </filter>
    <filter id="filter1_b" width="407" height="120" x="-16" y="-16" color-interpolation-filters="sRGB" filterUnits="userSpaceOnUse">
      <feFlood flood-opacity="0" result="BackgroundImageFix"/>
      <feGaussianBlur in="BackgroundImage" stdDeviation="8"/>
      <feComposite in2="SourceAlpha" operator="in" result="effect1_backgroundBlur"/>
      <feBlend in="SourceGraphic" in2="effect1_backgroundBlur" result="shape"/>
    </filter>
    <filter id="filter2_b" width="429.366" height="345.366" x="-27.183" y="493.817" color-interpolation-filters="sRGB" filterUnits="userSpaceOnUse">
      <feFlood flood-opacity="0" result="BackgroundImageFix"/>
      <feGaussianBlur in="BackgroundImage" stdDeviation="13.591"/>
      <feComposite in2="SourceAlpha" operator="in" result="effect1_backgroundBlur"/>
      <feBlend in="SourceGraphic" in2="effect1_backgroundBlur" result="shape"/>
    </filter>
    <filter id="filter3_d" width="88" height="43" x="284" y="691" color-interpolation-filters="sRGB" filterUnits="userSpaceOnUse">
      <feFlood flood-opacity="0" result="BackgroundImageFix"/>
      <feColorMatrix in="SourceAlpha" values="0 0 0 0 0 0 0 0 0 0 0 0 0 0 0 0 0 0 127 0"/>
      <feOffset dy="1"/>
      <feColorMatrix values="0 0 0 0 0 0 0 0 0 0 0 0 0 0 0 0 0 0 0.25 0"/>
      <feBlend in2="BackgroundImageFix" result="effect1_dropShadow"/>
      <feBlend in="SourceGraphic" in2="effect1_dropShadow" result="shape"/>
    </filter>
    <filter id="filter4_d" width="182" height="43" x="96" y="691" color-interpolation-filters="sRGB" filterUnits="userSpaceOnUse">
      <feFlood flood-opacity="0" result="BackgroundImageFix"/>
      <feColorMatrix in="SourceAlpha" values="0 0 0 0 0 0 0 0 0 0 0 0 0 0 0 0 0 0 127 0"/>
      <feOffset dy="1"/>
      <feColorMatrix values="0 0 0 0 0 0 0 0 0 0 0 0 0 0 0 0 0 0 0.25 0"/>
      <feBlend in2="BackgroundImageFix" result="effect1_dropShadow"/>
      <feBlend in="SourceGraphic" in2="effect1_dropShadow" result="shape"/>
    </filter>
    <filter id="filter5_d" width="87" height="43" x="3" y="691" color-interpolation-filters="sRGB" filterUnits="userSpaceOnUse">
      <feFlood flood-opacity="0" result="BackgroundImageFix"/>
      <feColorMatrix in="SourceAlpha" values="0 0 0 0 0 0 0 0 0 0 0 0 0 0 0 0 0 0 127 0"/>
      <feOffset dy="1"/>
      <feColorMatrix values="0 0 0 0 0 0 0 0 0 0 0 0 0 0 0 0 0 0 0.25 0"/>
      <feBlend in2="BackgroundImageFix" result="effect1_dropShadow"/>
      <feBlend in="SourceGraphic" in2="effect1_dropShadow" result="shape"/>
    </filter>
    <filter id="filter6_d" width="42" height="43" x="330" y="639" color-interpolation-filters="sRGB" filterUnits="userSpaceOnUse">
      <feFlood flood-opacity="0" result="BackgroundImageFix"/>
      <feColorMatrix in="SourceAlpha" values="0 0 0 0 0 0 0 0 0 0 0 0 0 0 0 0 0 0 127 0"/>
      <feOffset dy="1"/>
      <feColorMatrix values="0 0 0 0 0 0 0 0 0 0 0 0 0 0 0 0 0 0 0.25 0"/>
      <feBlend in2="BackgroundImageFix" result="effect1_dropShadow"/>
      <feBlend in="SourceGraphic" in2="effect1_dropShadow" result="shape"/>
    </filter>
    <filter id="filter7_d" width="32" height="43" x="284" y="639" color-interpolation-filters="sRGB" filterUnits="userSpaceOnUse">
      <feFlood flood-opacity="0" result="BackgroundImageFix"/>
      <feColorMatrix in="SourceAlpha" values="0 0 0 0 0 0 0 0 0 0 0 0 0 0 0 0 0 0 127 0"/>
      <feOffset dy="1"/>
      <feColorMatrix values="0 0 0 0 0 0 0 0 0 0 0 0 0 0 0 0 0 0 0.25 0"/>
      <feBlend in2="BackgroundImageFix" result="effect1_dropShadow"/>
      <feBlend in="SourceGraphic" in2="effect1_dropShadow" result="shape"/>
    </filter>
    <filter id="filter8_d" width="32" height="43" x="246.5" y="639" color-interpolation-filters="sRGB" filterUnits="userSpaceOnUse">
      <feFlood flood-opacity="0" result="BackgroundImageFix"/>
      <feColorMatrix in="SourceAlpha" values="0 0 0 0 0 0 0 0 0 0 0 0 0 0 0 0 0 0 127 0"/>
      <feOffset dy="1"/>
      <feColorMatrix values="0 0 0 0 0 0 0 0 0 0 0 0 0 0 0 0 0 0 0.25 0"/>
      <feBlend in2="BackgroundImageFix" result="effect1_dropShadow"/>
      <feBlend in="SourceGraphic" in2="effect1_dropShadow" result="shape"/>
    </filter>
    <filter id="filter9_d" width="32" height="43" x="209" y="639" color-interpolation-filters="sRGB" filterUnits="userSpaceOnUse">
      <feFlood flood-opacity="0" result="BackgroundImageFix"/>
      <feColorMatrix in="SourceAlpha" values="0 0 0 0 0 0 0 0 0 0 0 0 0 0 0 0 0 0 127 0"/>
      <feOffset dy="1"/>
      <feColorMatrix values="0 0 0 0 0 0 0 0 0 0 0 0 0 0 0 0 0 0 0.25 0"/>
      <feBlend in2="BackgroundImageFix" result="effect1_dropShadow"/>
      <feBlend in="SourceGraphic" in2="effect1_dropShadow" result="shape"/>
    </filter>
    <filter id="filter10_d" width="32" height="43" x="171.5" y="639" color-interpolation-filters="sRGB" filterUnits="userSpaceOnUse">
      <feFlood flood-opacity="0" result="BackgroundImageFix"/>
      <feColorMatrix in="SourceAlpha" values="0 0 0 0 0 0 0 0 0 0 0 0 0 0 0 0 0 0 127 0"/>
      <feOffset dy="1"/>
      <feColorMatrix values="0 0 0 0 0 0 0 0 0 0 0 0 0 0 0 0 0 0 0.25 0"/>
      <feBlend in2="BackgroundImageFix" result="effect1_dropShadow"/>
      <feBlend in="SourceGraphic" in2="effect1_dropShadow" result="shape"/>
    </filter>
    <filter id="filter11_d" width="32" height="43" x="134" y="639" color-interpolation-filters="sRGB" filterUnits="userSpaceOnUse">
      <feFlood flood-opacity="0" result="BackgroundImageFix"/>
      <feColorMatrix in="SourceAlpha" values="0 0 0 0 0 0 0 0 0 0 0 0 0 0 0 0 0 0 127 0"/>
      <feOffset dy="1"/>
      <feColorMatrix values="0 0 0 0 0 0 0 0 0 0 0 0 0 0 0 0 0 0 0.25 0"/>
      <feBlend in2="BackgroundImageFix" result="effect1_dropShadow"/>
      <feBlend in="SourceGraphic" in2="effect1_dropShadow" result="shape"/>
    </filter>
    <filter id="filter12_d" width="32" height="43" x="96.5" y="639" color-interpolation-filters="sRGB" filterUnits="userSpaceOnUse">
      <feFlood flood-opacity="0" result="BackgroundImageFix"/>
      <feColorMatrix in="SourceAlpha" values="0 0 0 0 0 0 0 0 0 0 0 0 0 0 0 0 0 0 127 0"/>
      <feOffset dy="1"/>
      <feColorMatrix values="0 0 0 0 0 0 0 0 0 0 0 0 0 0 0 0 0 0 0.25 0"/>
      <feBlend in2="BackgroundImageFix" result="effect1_dropShadow"/>
      <feBlend in="SourceGraphic" in2="effect1_dropShadow" result="shape"/>
    </filter>
    <filter id="filter13_d" width="32" height="43" x="59" y="639" color-interpolation-filters="sRGB" filterUnits="userSpaceOnUse">
      <feFlood flood-opacity="0" result="BackgroundImageFix"/>
      <feColorMatrix in="SourceAlpha" values="0 0 0 0 0 0 0 0 0 0 0 0 0 0 0 0 0 0 127 0"/>
      <feOffset dy="1"/>
      <feColorMatrix values="0 0 0 0 0 0 0 0 0 0 0 0 0 0 0 0 0 0 0.25 0"/>
      <feBlend in2="BackgroundImageFix" result="effect1_dropShadow"/>
      <feBlend in="SourceGraphic" in2="effect1_dropShadow" result="shape"/>
    </filter>
    <filter id="filter14_d" width="42" height="43" x="3" y="639" color-interpolation-filters="sRGB" filterUnits="userSpaceOnUse">
      <feFlood flood-opacity="0" result="BackgroundImageFix"/>
      <feColorMatrix in="SourceAlpha" values="0 0 0 0 0 0 0 0 0 0 0 0 0 0 0 0 0 0 127 0"/>
      <feOffset dy="1"/>
      <feColorMatrix values="0 0 0 0 0 0 0 0 0 0 0 0 0 0 0 0 0 0 0.25 0"/>
      <feBlend in2="BackgroundImageFix" result="effect1_dropShadow"/>
      <feBlend in="SourceGraphic" in2="effect1_dropShadow" result="shape"/>
    </filter>
    <filter id="filter15_d" width="32" height="43" x="321.5" y="585" color-interpolation-filters="sRGB" filterUnits="userSpaceOnUse">
      <feFlood flood-opacity="0" result="BackgroundImageFix"/>
      <feColorMatrix in="SourceAlpha" values="0 0 0 0 0 0 0 0 0 0 0 0 0 0 0 0 0 0 127 0"/>
      <feOffset dy="1"/>
      <feColorMatrix values="0 0 0 0 0 0 0 0 0 0 0 0 0 0 0 0 0 0 0.25 0"/>
      <feBlend in2="BackgroundImageFix" result="effect1_dropShadow"/>
      <feBlend in="SourceGraphic" in2="effect1_dropShadow" result="shape"/>
    </filter>
    <filter id="filter16_d" width="32" height="43" x="284" y="585" color-interpolation-filters="sRGB" filterUnits="userSpaceOnUse">
      <feFlood flood-opacity="0" result="BackgroundImageFix"/>
      <feColorMatrix in="SourceAlpha" values="0 0 0 0 0 0 0 0 0 0 0 0 0 0 0 0 0 0 127 0"/>
      <feOffset dy="1"/>
      <feColorMatrix values="0 0 0 0 0 0 0 0 0 0 0 0 0 0 0 0 0 0 0.25 0"/>
      <feBlend in2="BackgroundImageFix" result="effect1_dropShadow"/>
      <feBlend in="SourceGraphic" in2="effect1_dropShadow" result="shape"/>
    </filter>
    <filter id="filter17_d" width="32" height="43" x="246.5" y="585" color-interpolation-filters="sRGB" filterUnits="userSpaceOnUse">
      <feFlood flood-opacity="0" result="BackgroundImageFix"/>
      <feColorMatrix in="SourceAlpha" values="0 0 0 0 0 0 0 0 0 0 0 0 0 0 0 0 0 0 127 0"/>
      <feOffset dy="1"/>
      <feColorMatrix values="0 0 0 0 0 0 0 0 0 0 0 0 0 0 0 0 0 0 0.25 0"/>
      <feBlend in2="BackgroundImageFix" result="effect1_dropShadow"/>
      <feBlend in="SourceGraphic" in2="effect1_dropShadow" result="shape"/>
    </filter>
    <filter id="filter18_d" width="32" height="43" x="209" y="585" color-interpolation-filters="sRGB" filterUnits="userSpaceOnUse">
      <feFlood flood-opacity="0" result="BackgroundImageFix"/>
      <feColorMatrix in="SourceAlpha" values="0 0 0 0 0 0 0 0 0 0 0 0 0 0 0 0 0 0 127 0"/>
      <feOffset dy="1"/>
      <feColorMatrix values="0 0 0 0 0 0 0 0 0 0 0 0 0 0 0 0 0 0 0.25 0"/>
      <feBlend in2="BackgroundImageFix" result="effect1_dropShadow"/>
      <feBlend in="SourceGraphic" in2="effect1_dropShadow" result="shape"/>
    </filter>
    <filter id="filter19_d" width="32" height="43" x="171.5" y="585" color-interpolation-filters="sRGB" filterUnits="userSpaceOnUse">
      <feFlood flood-opacity="0" result="BackgroundImageFix"/>
      <feColorMatrix in="SourceAlpha" values="0 0 0 0 0 0 0 0 0 0 0 0 0 0 0 0 0 0 127 0"/>
      <feOffset dy="1"/>
      <feColorMatrix values="0 0 0 0 0 0 0 0 0 0 0 0 0 0 0 0 0 0 0.25 0"/>
      <feBlend in2="BackgroundImageFix" result="effect1_dropShadow"/>
      <feBlend in="SourceGraphic" in2="effect1_dropShadow" result="shape"/>
    </filter>
    <filter id="filter20_d" width="32" height="43" x="134" y="585" color-interpolation-filters="sRGB" filterUnits="userSpaceOnUse">
      <feFlood flood-opacity="0" result="BackgroundImageFix"/>
      <feColorMatrix in="SourceAlpha" values="0 0 0 0 0 0 0 0 0 0 0 0 0 0 0 0 0 0 127 0"/>
      <feOffset dy="1"/>
      <feColorMatrix values="0 0 0 0 0 0 0 0 0 0 0 0 0 0 0 0 0 0 0.25 0"/>
      <feBlend in2="BackgroundImageFix" result="effect1_dropShadow"/>
      <feBlend in="SourceGraphic" in2="effect1_dropShadow" result="shape"/>
    </filter>
    <filter id="filter21_d" width="32" height="43" x="96.5" y="585" color-interpolation-filters="sRGB" filterUnits="userSpaceOnUse">
      <feFlood flood-opacity="0" result="BackgroundImageFix"/>
      <feColorMatrix in="SourceAlpha" values="0 0 0 0 0 0 0 0 0 0 0 0 0 0 0 0 0 0 127 0"/>
      <feOffset dy="1"/>
      <feColorMatrix values="0 0 0 0 0 0 0 0 0 0 0 0 0 0 0 0 0 0 0.25 0"/>
      <feBlend in2="BackgroundImageFix" result="effect1_dropShadow"/>
      <feBlend in="SourceGraphic" in2="effect1_dropShadow" result="shape"/>
    </filter>
    <filter id="filter22_d" width="32" height="43" x="59.5" y="585" color-interpolation-filters="sRGB" filterUnits="userSpaceOnUse">
      <feFlood flood-opacity="0" result="BackgroundImageFix"/>
      <feColorMatrix in="SourceAlpha" values="0 0 0 0 0 0 0 0 0 0 0 0 0 0 0 0 0 0 127 0"/>
      <feOffset dy="1"/>
      <feColorMatrix values="0 0 0 0 0 0 0 0 0 0 0 0 0 0 0 0 0 0 0.25 0"/>
      <feBlend in2="BackgroundImageFix" result="effect1_dropShadow"/>
      <feBlend in="SourceGraphic" in2="effect1_dropShadow" result="shape"/>
    </filter>
    <filter id="filter23_d" width="32" height="43" x="22" y="585" color-interpolation-filters="sRGB" filterUnits="userSpaceOnUse">
      <feFlood flood-opacity="0" result="BackgroundImageFix"/>
      <feColorMatrix in="SourceAlpha" values="0 0 0 0 0 0 0 0 0 0 0 0 0 0 0 0 0 0 127 0"/>
      <feOffset dy="1"/>
      <feColorMatrix values="0 0 0 0 0 0 0 0 0 0 0 0 0 0 0 0 0 0 0.25 0"/>
      <feBlend in2="BackgroundImageFix" result="effect1_dropShadow"/>
      <feBlend in="SourceGraphic" in2="effect1_dropShadow" result="shape"/>
    </filter>
    <filter id="filter24_d" width="32" height="43" x="340" y="531" color-interpolation-filters="sRGB" filterUnits="userSpaceOnUse">
      <feFlood flood-opacity="0" result="BackgroundImageFix"/>
      <feColorMatrix in="SourceAlpha" values="0 0 0 0 0 0 0 0 0 0 0 0 0 0 0 0 0 0 127 0"/>
      <feOffset dy="1"/>
      <feColorMatrix values="0 0 0 0 0 0 0 0 0 0 0 0 0 0 0 0 0 0 0.25 0"/>
      <feBlend in2="BackgroundImageFix" result="effect1_dropShadow"/>
      <feBlend in="SourceGraphic" in2="effect1_dropShadow" result="shape"/>
    </filter>
    <filter id="filter25_d" width="32" height="43" x="302.5" y="531" color-interpolation-filters="sRGB" filterUnits="userSpaceOnUse">
      <feFlood flood-opacity="0" result="BackgroundImageFix"/>
      <feColorMatrix in="SourceAlpha" values="0 0 0 0 0 0 0 0 0 0 0 0 0 0 0 0 0 0 127 0"/>
      <feOffset dy="1"/>
      <feColorMatrix values="0 0 0 0 0 0 0 0 0 0 0 0 0 0 0 0 0 0 0.25 0"/>
      <feBlend in2="BackgroundImageFix" result="effect1_dropShadow"/>
      <feBlend in="SourceGraphic" in2="effect1_dropShadow" result="shape"/>
    </filter>
    <filter id="filter26_d" width="32" height="43" x="265" y="531" color-interpolation-filters="sRGB" filterUnits="userSpaceOnUse">
      <feFlood flood-opacity="0" result="BackgroundImageFix"/>
      <feColorMatrix in="SourceAlpha" values="0 0 0 0 0 0 0 0 0 0 0 0 0 0 0 0 0 0 127 0"/>
      <feOffset dy="1"/>
      <feColorMatrix values="0 0 0 0 0 0 0 0 0 0 0 0 0 0 0 0 0 0 0.25 0"/>
      <feBlend in2="BackgroundImageFix" result="effect1_dropShadow"/>
      <feBlend in="SourceGraphic" in2="effect1_dropShadow" result="shape"/>
    </filter>
    <filter id="filter27_d" width="32" height="43" x="227.5" y="531" color-interpolation-filters="sRGB" filterUnits="userSpaceOnUse">
      <feFlood flood-opacity="0" result="BackgroundImageFix"/>
      <feColorMatrix in="SourceAlpha" values="0 0 0 0 0 0 0 0 0 0 0 0 0 0 0 0 0 0 127 0"/>
      <feOffset dy="1"/>
      <feColorMatrix values="0 0 0 0 0 0 0 0 0 0 0 0 0 0 0 0 0 0 0.25 0"/>
      <feBlend in2="BackgroundImageFix" result="effect1_dropShadow"/>
      <feBlend in="SourceGraphic" in2="effect1_dropShadow" result="shape"/>
    </filter>
    <filter id="filter28_d" width="32" height="43" x="190" y="531" color-interpolation-filters="sRGB" filterUnits="userSpaceOnUse">
      <feFlood flood-opacity="0" result="BackgroundImageFix"/>
      <feColorMatrix in="SourceAlpha" values="0 0 0 0 0 0 0 0 0 0 0 0 0 0 0 0 0 0 127 0"/>
      <feOffset dy="1"/>
      <feColorMatrix values="0 0 0 0 0 0 0 0 0 0 0 0 0 0 0 0 0 0 0.25 0"/>
      <feBlend in2="BackgroundImageFix" result="effect1_dropShadow"/>
      <feBlend in="SourceGraphic" in2="effect1_dropShadow" result="shape"/>
    </filter>
    <filter id="filter29_d" width="32" height="43" x="152.5" y="531" color-interpolation-filters="sRGB" filterUnits="userSpaceOnUse">
      <feFlood flood-opacity="0" result="BackgroundImageFix"/>
      <feColorMatrix in="SourceAlpha" values="0 0 0 0 0 0 0 0 0 0 0 0 0 0 0 0 0 0 127 0"/>
      <feOffset dy="1"/>
      <feColorMatrix values="0 0 0 0 0 0 0 0 0 0 0 0 0 0 0 0 0 0 0.25 0"/>
      <feBlend in2="BackgroundImageFix" result="effect1_dropShadow"/>
      <feBlend in="SourceGraphic" in2="effect1_dropShadow" result="shape"/>
    </filter>
    <filter id="filter30_d" width="32" height="43" x="115" y="531" color-interpolation-filters="sRGB" filterUnits="userSpaceOnUse">
      <feFlood flood-opacity="0" result="BackgroundImageFix"/>
      <feColorMatrix in="SourceAlpha" values="0 0 0 0 0 0 0 0 0 0 0 0 0 0 0 0 0 0 127 0"/>
      <feOffset dy="1"/>
      <feColorMatrix values="0 0 0 0 0 0 0 0 0 0 0 0 0 0 0 0 0 0 0.25 0"/>
      <feBlend in2="BackgroundImageFix" result="effect1_dropShadow"/>
      <feBlend in="SourceGraphic" in2="effect1_dropShadow" result="shape"/>
    </filter>
    <filter id="filter31_d" width="32" height="43" x="77.5" y="531" color-interpolation-filters="sRGB" filterUnits="userSpaceOnUse">
      <feFlood flood-opacity="0" result="BackgroundImageFix"/>
      <feColorMatrix in="SourceAlpha" values="0 0 0 0 0 0 0 0 0 0 0 0 0 0 0 0 0 0 127 0"/>
      <feOffset dy="1"/>
      <feColorMatrix values="0 0 0 0 0 0 0 0 0 0 0 0 0 0 0 0 0 0 0.25 0"/>
      <feBlend in2="BackgroundImageFix" result="effect1_dropShadow"/>
      <feBlend in="SourceGraphic" in2="effect1_dropShadow" result="shape"/>
    </filter>
    <filter id="filter32_d" width="32" height="43" x="40.5" y="531" color-interpolation-filters="sRGB" filterUnits="userSpaceOnUse">
      <feFlood flood-opacity="0" result="BackgroundImageFix"/>
      <feColorMatrix in="SourceAlpha" values="0 0 0 0 0 0 0 0 0 0 0 0 0 0 0 0 0 0 127 0"/>
      <feOffset dy="1"/>
      <feColorMatrix values="0 0 0 0 0 0 0 0 0 0 0 0 0 0 0 0 0 0 0.25 0"/>
      <feBlend in2="BackgroundImageFix" result="effect1_dropShadow"/>
      <feBlend in="SourceGraphic" in2="effect1_dropShadow" result="shape"/>
    </filter>
    <filter id="filter33_d" width="32" height="43" x="3" y="531" color-interpolation-filters="sRGB" filterUnits="userSpaceOnUse">
      <feFlood flood-opacity="0" result="BackgroundImageFix"/>
      <feColorMatrix in="SourceAlpha" values="0 0 0 0 0 0 0 0 0 0 0 0 0 0 0 0 0 0 127 0"/>
      <feOffset dy="1"/>
      <feColorMatrix values="0 0 0 0 0 0 0 0 0 0 0 0 0 0 0 0 0 0 0.25 0"/>
      <feBlend in2="BackgroundImageFix" result="effect1_dropShadow"/>
      <feBlend in="SourceGraphic" in2="effect1_dropShadow" result="shape"/>
    </filter>
    <linearGradient id="paint0_linear" x1="111.5" x2="254.217" y1="117.45" y2="702.732" gradientUnits="userSpaceOnUse">
      <stop stop-color="#E4F0F0" stop-opacity="0"/>
      <stop offset="1" stop-color="#E4F0F0"/>
    </linearGradient>
    <clipPath id="clip0">
      <path fill="#fff" d="M0 0h375v812H0z"/>
    </clipPath>
  </defs>
</svg>
