<svg width="375" height="812" viewBox="0 0 375 812" fill="none" xmlns="http://www.w3.org/2000/svg">
<g clip-path="url(#clip0)">
<rect width="375" height="812" fill="white"/>
<rect y="98" width="375" height="621" fill="url(#paint0_linear)"/>
<g filter="url(#filter0_d)">
<path d="M0 175.79C0 153.58 0 142.475 4.39088 134.022C8.09102 126.899 13.8989 121.091 21.022 117.391C29.4748 113 40.5799 113 62.79 113H312.21C334.42 113 345.525 113 353.978 117.391C361.101 121.091 366.909 126.899 370.609 134.022C375 142.475 375 153.58 375 175.79V812H0V175.79Z" fill="white"/>
</g>
<path fill-rule="evenodd" clip-rule="evenodd" d="M163 127.5C163 126.119 164.119 125 165.5 125H208.5C209.881 125 211 126.119 211 127.5V127.5C211 128.881 209.881 130 208.5 130H165.5C164.119 130 163 128.881 163 127.5V127.5Z" fill="#E6E8EB"/>
<path d="M16 191C16 183.458 16 179.686 18.3431 177.343C20.6863 175 24.4575 175 32 175H343C350.542 175 354.314 175 356.657 177.343C359 179.686 359 183.458 359 191V199C359 206.542 359 210.314 356.657 212.657C354.314 215 350.542 215 343 215H32C24.4575 215 20.6863 215 18.3431 212.657C16 210.314 16 206.542 16 199V191Z" fill="white"/>
<path fill-rule="evenodd" clip-rule="evenodd" d="M343 176H32C28.2005 176 25.4515 176.002 23.3551 176.284C21.2875 176.562 20.0051 177.095 19.0503 178.05C18.0954 179.005 17.562 180.287 17.284 182.355C17.0021 184.451 17 187.2 17 191V199C17 202.8 17.0021 205.549 17.284 207.645C17.562 209.713 18.0954 210.995 19.0503 211.95C20.0051 212.905 21.2875 213.438 23.3551 213.716C25.4515 213.998 28.2005 214 32 214H343C346.799 214 349.549 213.998 351.645 213.716C353.713 213.438 354.995 212.905 355.95 211.95C356.905 210.995 357.438 209.713 357.716 207.645C357.998 205.549 358 202.8 358 199V191C358 187.2 357.998 184.451 357.716 182.355C357.438 180.287 356.905 179.005 355.95 178.05C354.995 177.095 353.713 176.562 351.645 176.284C349.549 176.002 346.799 176 343 176ZM18.3431 177.343C16 179.686 16 183.458 16 191V199C16 206.542 16 210.314 18.3431 212.657C20.6863 215 24.4575 215 32 215H343C350.542 215 354.314 215 356.657 212.657C359 210.314 359 206.542 359 199V191C359 183.458 359 179.686 356.657 177.343C354.314 175 350.542 175 343 175H32C24.4575 175 20.6863 175 18.3431 177.343Z" fill="#F1F3F5" style="mix-blend-mode:multiply"/>
<path d="M34.08 188.8L38.72 200H37.44L36.16 196.88H30.88L29.6 200H28.32L32.96 188.8H34.08ZM33.52 190.48L31.36 195.76H35.68L33.52 190.48ZM46.1669 198.88C45.9002 199.232 45.5375 199.536 45.0789 199.792C44.6202 200.037 44.1029 200.16 43.5269 200.16C42.8442 200.16 42.2149 199.989 41.6389 199.648C41.0629 199.296 40.6042 198.816 40.2629 198.208C39.9322 197.6 39.7669 196.917 39.7669 196.16C39.7669 195.403 39.9322 194.72 40.2629 194.112C40.6042 193.504 41.0629 193.029 41.6389 192.688C42.2149 192.336 42.8442 192.16 43.5269 192.16C44.1029 192.16 44.6202 192.288 45.0789 192.544C45.5375 192.789 45.9002 193.088 46.1669 193.44V188.8H47.2869V200H46.1669V198.88ZM43.5269 199.12C43.9749 199.12 44.4015 198.992 44.8069 198.736C45.2229 198.469 45.5535 198.112 45.7989 197.664C46.0442 197.205 46.1669 196.704 46.1669 196.16C46.1669 195.616 46.0442 195.12 45.7989 194.672C45.5535 194.213 45.2229 193.856 44.8069 193.6C44.4015 193.333 43.9749 193.2 43.5269 193.2C43.0469 193.2 42.6042 193.328 42.1989 193.584C41.7935 193.829 41.4735 194.176 41.2389 194.624C41.0042 195.072 40.8869 195.584 40.8869 196.16C40.8869 196.736 41.0042 197.248 41.2389 197.696C41.4735 198.144 41.7935 198.496 42.1989 198.752C42.6042 198.997 43.0469 199.12 43.5269 199.12ZM55.7606 198.88C55.494 199.232 55.1313 199.536 54.6726 199.792C54.214 200.037 53.6966 200.16 53.1206 200.16C52.438 200.16 51.8086 199.989 51.2326 199.648C50.6566 199.296 50.198 198.816 49.8566 198.208C49.526 197.6 49.3606 196.917 49.3606 196.16C49.3606 195.403 49.526 194.72 49.8566 194.112C50.198 193.504 50.6566 193.029 51.2326 192.688C51.8086 192.336 52.438 192.16 53.1206 192.16C53.6966 192.16 54.214 192.288 54.6726 192.544C55.1313 192.789 55.494 193.088 55.7606 193.44V188.8H56.8806V200H55.7606V198.88ZM53.1206 199.12C53.5686 199.12 53.9953 198.992 54.4006 198.736C54.8166 198.469 55.1473 198.112 55.3926 197.664C55.638 197.205 55.7606 196.704 55.7606 196.16C55.7606 195.616 55.638 195.12 55.3926 194.672C55.1473 194.213 54.8166 193.856 54.4006 193.6C53.9953 193.333 53.5686 193.2 53.1206 193.2C52.6406 193.2 52.198 193.328 51.7926 193.584C51.3873 193.829 51.0673 194.176 50.8326 194.624C50.598 195.072 50.4806 195.584 50.4806 196.16C50.4806 196.736 50.598 197.248 50.8326 197.696C51.0673 198.144 51.3873 198.496 51.7926 198.752C52.198 198.997 52.6406 199.12 53.1206 199.12ZM65.9944 198.848C65.653 199.211 65.205 199.52 64.6504 199.776C64.0957 200.032 63.477 200.16 62.7944 200.16C62.1117 200.16 61.4717 199.984 60.8744 199.632C60.2877 199.269 59.8184 198.784 59.4664 198.176C59.125 197.568 58.9544 196.896 58.9544 196.16C58.9544 195.435 59.125 194.768 59.4664 194.16C59.8184 193.541 60.2824 193.056 60.8584 192.704C61.4344 192.341 62.053 192.16 62.7144 192.16C63.397 192.16 64.021 192.325 64.5864 192.656C65.1517 192.987 65.5944 193.445 65.9144 194.032C66.2344 194.608 66.3944 195.264 66.3944 196C66.3944 196.203 66.3677 196.395 66.3144 196.576L60.0744 196.56C60.0957 197.008 60.2344 197.429 60.4904 197.824C60.7464 198.219 61.077 198.533 61.4824 198.768C61.8877 199.003 62.325 199.12 62.7944 199.12C63.3277 199.12 63.8077 199.024 64.2344 198.832C64.661 198.64 65.0077 198.405 65.2744 198.128L65.9944 198.848ZM65.2744 195.6C65.189 194.907 64.9064 194.336 64.4264 193.888C63.957 193.429 63.3864 193.2 62.7144 193.2C62.277 193.2 61.8664 193.312 61.4824 193.536C61.0984 193.749 60.7784 194.043 60.5224 194.416C60.277 194.779 60.1277 195.173 60.0744 195.6H65.2744ZM69.5094 193.36C69.712 193.029 70.016 192.747 70.4214 192.512C70.8374 192.277 71.3334 192.16 71.9094 192.16H72.3894V193.28H71.9094C71.4827 193.28 71.0827 193.381 70.7094 193.584C70.3467 193.787 70.0534 194.08 69.8294 194.464C69.616 194.837 69.5094 195.269 69.5094 195.76V200H68.3894V192.32H69.5094V193.36Z" fill="#25272E"/>
<path d="M21.32 153.2C21.936 153.2 22.496 153.34 23 153.62C23.504 153.9 23.896 154.283 24.176 154.768C24.4653 155.244 24.61 155.771 24.61 156.35C24.61 156.929 24.4653 157.461 24.176 157.946C23.896 158.422 23.504 158.8 23 159.08C22.496 159.36 21.936 159.5 21.32 159.5H18.94V163H17.4V153.2H21.32ZM21.32 158.1C21.8147 158.1 22.23 157.932 22.566 157.596C22.902 157.251 23.07 156.835 23.07 156.35C23.07 155.855 22.902 155.44 22.566 155.104C22.23 154.768 21.8147 154.6 21.32 154.6H18.94V158.1H21.32ZM27.3488 157.19C27.5354 156.938 27.7828 156.723 28.0908 156.546C28.4081 156.369 28.7674 156.28 29.1688 156.28H29.7288V157.54H29.1688C28.8421 157.54 28.5388 157.629 28.2588 157.806C27.9788 157.974 27.7548 158.217 27.5868 158.534C27.4281 158.842 27.3488 159.187 27.3488 159.57V163H25.9488V156.28H27.3488V157.19ZM36.807 162.048C36.527 162.356 36.1396 162.617 35.645 162.832C35.1503 163.037 34.581 163.14 33.937 163.14C33.293 163.14 32.7003 162.986 32.159 162.678C31.627 162.37 31.207 161.95 30.899 161.418C30.591 160.877 30.437 160.284 30.437 159.64C30.437 158.996 30.591 158.408 30.899 157.876C31.207 157.344 31.6223 156.924 32.145 156.616C32.6676 156.299 33.2416 156.14 33.867 156.14C34.4923 156.14 35.0523 156.285 35.547 156.574C36.051 156.854 36.443 157.246 36.723 157.75C37.0123 158.245 37.157 158.805 37.157 159.43C37.157 159.691 37.1336 159.925 37.087 160.13H31.907C31.9816 160.597 32.215 160.993 32.607 161.32C32.999 161.647 33.4656 161.81 34.007 161.81C34.399 161.81 34.763 161.74 35.099 161.6C35.4443 161.451 35.7336 161.273 35.967 161.068L36.807 162.048ZM35.687 158.94C35.575 158.473 35.3603 158.1 35.043 157.82C34.735 157.54 34.343 157.4 33.867 157.4C33.363 157.4 32.9476 157.54 32.621 157.82C32.2943 158.091 32.0563 158.464 31.907 158.94H35.687ZM38.9709 160.97C39.1763 161.222 39.4329 161.437 39.7409 161.614C40.0489 161.791 40.3756 161.88 40.7209 161.88C41.0849 161.88 41.3743 161.796 41.5889 161.628C41.8036 161.46 41.9109 161.264 41.9109 161.04C41.9109 160.835 41.8083 160.681 41.6029 160.578C41.4069 160.466 41.0803 160.34 40.6229 160.2C40.1469 160.06 39.7549 159.92 39.4469 159.78C39.1483 159.64 38.8869 159.435 38.6629 159.164C38.4483 158.893 38.3409 158.539 38.3409 158.1C38.3409 157.745 38.4389 157.419 38.6349 157.12C38.8309 156.821 39.1156 156.583 39.4889 156.406C39.8623 156.229 40.2963 156.14 40.7909 156.14C41.3136 156.14 41.7803 156.229 42.1909 156.406C42.6109 156.583 42.9376 156.798 43.1709 157.05L42.2609 157.96C42.0929 157.801 41.8783 157.671 41.6169 157.568C41.3649 157.456 41.0896 157.4 40.7909 157.4C40.4643 157.4 40.2076 157.47 40.0209 157.61C39.8343 157.75 39.7409 157.913 39.7409 158.1C39.7409 158.305 39.8389 158.464 40.0349 158.576C40.2403 158.679 40.5716 158.8 41.0289 158.94C41.5049 159.08 41.8923 159.22 42.1909 159.36C42.4989 159.5 42.7603 159.705 42.9749 159.976C43.1989 160.247 43.3109 160.601 43.3109 161.04C43.3109 161.413 43.2036 161.763 42.9889 162.09C42.7836 162.407 42.4849 162.664 42.0929 162.86C41.7009 163.047 41.2436 163.14 40.7209 163.14C40.1516 163.14 39.6336 163.019 39.1669 162.776C38.7096 162.533 38.3409 162.235 38.0609 161.88L38.9709 160.97ZM50.7249 161.74C50.4263 162.132 50.0249 162.463 49.5209 162.734C49.0263 163.005 48.4709 163.14 47.8549 163.14C47.2109 163.14 46.6183 162.986 46.0769 162.678C45.5449 162.37 45.1249 161.95 44.8169 161.418C44.5089 160.877 44.3549 160.284 44.3549 159.64C44.3549 158.996 44.5089 158.408 44.8169 157.876C45.1249 157.335 45.5449 156.91 46.0769 156.602C46.6183 156.294 47.2109 156.14 47.8549 156.14C48.4709 156.14 49.0216 156.271 49.5069 156.532C49.9923 156.784 50.3749 157.097 50.6549 157.47L49.6749 158.38C49.4789 158.128 49.2223 157.913 48.9049 157.736C48.5969 157.559 48.2469 157.47 47.8549 157.47C47.4629 157.47 47.1036 157.563 46.7769 157.75C46.4596 157.937 46.2076 158.198 46.0209 158.534C45.8436 158.861 45.7549 159.229 45.7549 159.64C45.7549 160.051 45.8436 160.424 46.0209 160.76C46.2076 161.087 46.4596 161.343 46.7769 161.53C47.1036 161.717 47.4629 161.81 47.8549 161.81C48.2469 161.81 48.6063 161.717 48.9329 161.53C49.2596 161.334 49.5303 161.101 49.7449 160.83L50.7249 161.74ZM53.4484 157.19C53.635 156.938 53.8824 156.723 54.1904 156.546C54.5077 156.369 54.867 156.28 55.2684 156.28H55.8284V157.54H55.2684C54.9417 157.54 54.6384 157.629 54.3584 157.806C54.0784 157.974 53.8544 158.217 53.6864 158.534C53.5277 158.842 53.4484 159.187 53.4484 159.57V163H52.0484V156.28H53.4484V157.19ZM57.0233 154.18C57.0233 153.947 57.1073 153.751 57.2753 153.592C57.4526 153.424 57.6486 153.34 57.8633 153.34C58.0779 153.34 58.2693 153.424 58.4373 153.592C58.6146 153.751 58.7033 153.947 58.7033 154.18C58.7033 154.413 58.6146 154.614 58.4373 154.782C58.2693 154.941 58.0779 155.02 57.8633 155.02C57.6486 155.02 57.4526 154.941 57.2753 154.782C57.1073 154.614 57.0233 154.413 57.0233 154.18ZM58.5633 156.28V163H57.1633V156.28H58.5633ZM61.9933 157.26C62.2079 156.952 62.5159 156.691 62.9173 156.476C63.3186 156.252 63.7806 156.14 64.3033 156.14C64.8633 156.14 65.3813 156.294 65.8573 156.602C66.3426 156.901 66.7299 157.316 67.0193 157.848C67.3086 158.38 67.4533 158.977 67.4533 159.64C67.4533 160.303 67.3086 160.9 67.0193 161.432C66.7299 161.964 66.3426 162.384 65.8573 162.692C65.3813 162.991 64.8633 163.14 64.3033 163.14C63.7806 163.14 63.3186 163.033 62.9173 162.818C62.5159 162.594 62.2079 162.328 61.9933 162.02V165.94H60.5933V156.28H61.9933V157.26ZM64.0233 161.81C64.3966 161.81 64.7373 161.717 65.0453 161.53C65.3533 161.343 65.5959 161.087 65.7733 160.76C65.9599 160.424 66.0533 160.051 66.0533 159.64C66.0533 159.229 65.9599 158.861 65.7733 158.534C65.5959 158.198 65.3533 157.937 65.0453 157.75C64.7373 157.563 64.3966 157.47 64.0233 157.47C63.6499 157.47 63.3093 157.563 63.0013 157.75C62.6933 157.937 62.4459 158.198 62.2593 158.534C62.0819 158.861 61.9933 159.229 61.9933 159.64C61.9933 160.051 62.0819 160.424 62.2593 160.76C62.4459 161.087 62.6933 161.343 63.0013 161.53C63.3093 161.717 63.6499 161.81 64.0233 161.81ZM68.4278 156.28H69.6878V154.04H71.0878V156.28H72.8378V157.61H71.0878V160.76C71.0878 161.096 71.1671 161.334 71.3258 161.474C71.4845 161.605 71.7318 161.67 72.0678 161.67H72.8378V163H71.7878C70.3878 163 69.6878 162.3 69.6878 160.9V157.61H68.4278V156.28ZM74.4413 154.18C74.4413 153.947 74.5253 153.751 74.6933 153.592C74.8706 153.424 75.0666 153.34 75.2812 153.34C75.4959 153.34 75.6873 153.424 75.8553 153.592C76.0326 153.751 76.1213 153.947 76.1213 154.18C76.1213 154.413 76.0326 154.614 75.8553 154.782C75.6873 154.941 75.4959 155.02 75.2812 155.02C75.0666 155.02 74.8706 154.941 74.6933 154.782C74.5253 154.614 74.4413 154.413 74.4413 154.18ZM75.9813 156.28V163H74.5813V156.28H75.9813ZM77.5913 159.64C77.5913 158.996 77.7453 158.408 78.0533 157.876C78.3613 157.335 78.7813 156.91 79.3133 156.602C79.8546 156.294 80.4473 156.14 81.0913 156.14C81.7353 156.14 82.3233 156.294 82.8553 156.602C83.3966 156.91 83.8213 157.335 84.1293 157.876C84.4373 158.408 84.5913 158.996 84.5913 159.64C84.5913 160.284 84.4373 160.877 84.1293 161.418C83.8213 161.95 83.3966 162.37 82.8553 162.678C82.3233 162.986 81.7353 163.14 81.0913 163.14C80.4473 163.14 79.8546 162.986 79.3133 162.678C78.7813 162.37 78.3613 161.95 78.0533 161.418C77.7453 160.877 77.5913 160.284 77.5913 159.64ZM81.0913 161.81C81.4833 161.81 81.8379 161.717 82.1553 161.53C82.4819 161.343 82.7339 161.087 82.9113 160.76C83.0979 160.424 83.1913 160.051 83.1913 159.64C83.1913 159.229 83.0979 158.861 82.9113 158.534C82.7339 158.198 82.4819 157.937 82.1553 157.75C81.8379 157.563 81.4833 157.47 81.0913 157.47C80.6993 157.47 80.3399 157.563 80.0133 157.75C79.6959 157.937 79.4439 158.198 79.2573 158.534C79.0799 158.861 78.9913 159.229 78.9913 159.64C78.9913 160.051 79.0799 160.424 79.2573 160.76C79.4439 161.087 79.6959 161.343 80.0133 161.53C80.3399 161.717 80.6993 161.81 81.0913 161.81ZM87.5323 157.26C87.747 156.952 88.0363 156.691 88.4003 156.476C88.7643 156.252 89.175 156.14 89.6323 156.14C90.1457 156.14 90.603 156.261 91.0043 156.504C91.4057 156.737 91.7183 157.078 91.9423 157.526C92.1757 157.965 92.2923 158.483 92.2923 159.08V163H90.8923V159.08C90.8923 158.595 90.7477 158.207 90.4583 157.918C90.1783 157.619 89.8097 157.47 89.3523 157.47C88.8203 157.47 88.3817 157.647 88.0363 158.002C87.7003 158.347 87.5323 158.8 87.5323 159.36V163H86.1323V156.28H87.5323V157.26Z" fill="#25272E"/>
<path d="M346.911 201.032C347.16 201.281 347.299 201.619 347.299 201.971C347.299 202.323 347.16 202.661 346.911 202.91C346.662 203.159 346.325 203.299 345.973 203.299C345.621 203.299 345.284 203.159 345.035 202.91L340.924 198.806C339.765 199.573 338.39 199.956 336.997 199.894C335.519 199.828 334.106 199.266 332.986 198.298C331.865 197.331 331.103 196.014 330.82 194.559C330.538 193.105 330.753 191.598 331.429 190.28C332.106 188.963 333.206 187.911 334.552 187.296C335.898 186.68 337.411 186.536 338.849 186.887C340.286 187.237 341.564 188.062 342.477 189.228C343.389 190.394 343.884 191.833 343.88 193.315C343.884 194.597 343.507 195.85 342.8 196.915L346.911 201.032ZM340.563 191.134C340.133 190.489 339.522 189.985 338.806 189.688C338.09 189.39 337.303 189.312 336.543 189.462C335.783 189.613 335.084 189.985 334.535 190.533C333.986 191.081 333.612 191.78 333.459 192.541C333.306 193.302 333.382 194.091 333.677 194.809C333.972 195.527 334.473 196.141 335.116 196.574C335.759 197.007 336.515 197.239 337.29 197.242H337.303C337.818 197.244 338.329 197.143 338.806 196.947C339.282 196.75 339.715 196.461 340.079 196.096C340.443 195.731 340.732 195.298 340.928 194.82C341.125 194.343 341.225 193.831 341.223 193.315C341.223 192.539 340.994 191.78 340.563 191.134Z" fill="#CDCED1"/>
<path d="M23.12 236.8L27.44 248H24.88L23.92 245.44H19.6L18.64 248H16.08L20.4 236.8H23.12ZM21.792 239.6H21.728L20.4 243.28H23.12L21.792 239.6ZM34.0756 246.88C33.8303 247.232 33.4943 247.536 33.0676 247.792C32.641 248.037 32.1503 248.16 31.5956 248.16C30.977 248.16 30.3956 247.984 29.8516 247.632C29.3183 247.28 28.8863 246.795 28.5556 246.176C28.2356 245.557 28.0756 244.859 28.0756 244.08C28.0756 243.301 28.2356 242.603 28.5556 241.984C28.8863 241.365 29.3183 240.88 29.8516 240.528C30.3956 240.176 30.977 240 31.5956 240C32.1503 240 32.641 240.128 33.0676 240.384C33.4943 240.629 33.8303 240.928 34.0756 241.28H34.1556V236.8H36.3156V248H34.1556V246.88H34.0756ZM32.2356 246.16C32.801 246.16 33.2756 245.963 33.6596 245.568C34.0436 245.173 34.2356 244.677 34.2356 244.08C34.2356 243.483 34.0436 242.987 33.6596 242.592C33.2756 242.197 32.801 242 32.2356 242C31.6703 242 31.1956 242.197 30.8116 242.592C30.4276 242.987 30.2356 243.483 30.2356 244.08C30.2356 244.677 30.4276 245.173 30.8116 245.568C31.1956 245.963 31.6703 246.16 32.2356 246.16ZM43.9975 246.88C43.7522 247.232 43.4162 247.536 42.9895 247.792C42.5628 248.037 42.0722 248.16 41.5175 248.16C40.8988 248.16 40.3175 247.984 39.7735 247.632C39.2402 247.28 38.8082 246.795 38.4775 246.176C38.1575 245.557 37.9975 244.859 37.9975 244.08C37.9975 243.301 38.1575 242.603 38.4775 241.984C38.8082 241.365 39.2402 240.88 39.7735 240.528C40.3175 240.176 40.8988 240 41.5175 240C42.0722 240 42.5628 240.128 42.9895 240.384C43.4162 240.629 43.7522 240.928 43.9975 241.28H44.0775V236.8H46.2375V248H44.0775V246.88H43.9975ZM42.1575 246.16C42.7228 246.16 43.1975 245.963 43.5815 245.568C43.9655 245.173 44.1575 244.677 44.1575 244.08C44.1575 243.483 43.9655 242.987 43.5815 242.592C43.1975 242.197 42.7228 242 42.1575 242C41.5922 242 41.1175 242.197 40.7335 242.592C40.3495 242.987 40.1575 243.483 40.1575 244.08C40.1575 244.677 40.3495 245.173 40.7335 245.568C41.1175 245.963 41.5922 246.16 42.1575 246.16ZM55.4394 247.248C55.0767 247.504 54.602 247.723 54.0154 247.904C53.4287 248.075 52.7834 248.16 52.0794 248.16C51.322 248.16 50.6234 247.979 49.9834 247.616C49.3434 247.243 48.8367 246.747 48.4634 246.128C48.1007 245.499 47.9194 244.816 47.9194 244.08C47.9194 243.344 48.1007 242.667 48.4634 242.048C48.8367 241.419 49.3327 240.923 49.9514 240.56C50.5807 240.187 51.2634 240 51.9994 240C52.7034 240 53.354 240.176 53.9514 240.528C54.5594 240.88 55.0394 241.36 55.3914 241.968C55.7434 242.565 55.9194 243.216 55.9194 243.92C55.9194 244.272 55.8927 244.592 55.8394 244.88H50.1594C50.2874 245.275 50.522 245.6 50.8634 245.856C51.2154 246.112 51.674 246.24 52.2394 246.24C52.6874 246.24 53.0874 246.192 53.4394 246.096C53.802 245.989 54.0954 245.867 54.3194 245.728L55.4394 247.248ZM53.6794 243.28C53.5514 242.896 53.3274 242.576 53.0074 242.32C52.698 242.053 52.3354 241.92 51.9194 241.92C51.5034 241.92 51.1354 242.053 50.8154 242.32C50.506 242.576 50.2874 242.896 50.1594 243.28H53.6794ZM59.6844 241.04H59.7644C59.9137 240.795 60.1537 240.587 60.4844 240.416C60.815 240.245 61.231 240.16 61.7324 240.16H62.2444V242.24H61.5244C60.991 242.24 60.5484 242.432 60.1964 242.816C59.855 243.189 59.6844 243.691 59.6844 244.32V248H57.5244V240.16H59.6844V241.04ZM67.9225 247.04C67.6772 247.349 67.3518 247.616 66.9465 247.84C66.5518 248.053 66.1038 248.16 65.6025 248.16C64.8878 248.16 64.3065 247.952 63.8585 247.536C63.4212 247.109 63.2025 246.571 63.2025 245.92C63.2025 245.259 63.4105 244.693 63.8265 244.224C64.2532 243.755 64.8185 243.483 65.5225 243.408L68.0025 243.168C67.9598 242.848 67.8158 242.56 67.5705 242.304C67.3252 242.048 67.0158 241.92 66.6425 241.92C66.2798 241.92 65.9438 241.963 65.6345 242.048C65.3252 242.123 65.0745 242.213 64.8825 242.32L63.6025 241.04C63.9438 240.752 64.3918 240.507 64.9465 240.304C65.5012 240.101 66.1198 240 66.8025 240C67.4532 240 68.0345 240.139 68.5465 240.416C69.0585 240.683 69.4532 241.056 69.7305 241.536C70.0185 242.005 70.1625 242.533 70.1625 243.12V248H68.0025V247.04H67.9225ZM66.2425 244.752C65.9758 244.763 65.7625 244.853 65.6025 245.024C65.4425 245.195 65.3625 245.387 65.3625 245.6C65.3625 245.845 65.4425 246.043 65.6025 246.192C65.7732 246.331 66.0132 246.4 66.3225 246.4C66.8238 246.4 67.2292 246.267 67.5385 246C67.8478 245.733 68.0025 245.349 68.0025 244.848V244.688L66.2425 244.752ZM74.2488 236.8V248H72.0888V236.8H74.2488ZM78.655 236.8V248H76.495V236.8H78.655Z" fill="#25272E"/>
<path opacity="0.5" d="M293.768 261.2H295.098V267.92H296.358V268.9H295.098V271H294.048V268.9H289.078V267.71L293.768 261.2ZM294.048 262.39L290.058 267.92H294.048V262.39ZM301.182 269.25C301.369 269.521 301.616 269.754 301.924 269.95C302.232 270.137 302.568 270.23 302.932 270.23C303.408 270.23 303.772 270.127 304.024 269.922C304.276 269.707 304.402 269.437 304.402 269.11C304.402 268.802 304.272 268.569 304.01 268.41C303.758 268.251 303.376 268.097 302.862 267.948C302.405 267.808 302.036 267.677 301.756 267.556C301.486 267.425 301.252 267.239 301.056 266.996C300.86 266.744 300.762 266.422 300.762 266.03C300.762 265.703 300.856 265.395 301.042 265.106C301.238 264.817 301.504 264.583 301.84 264.406C302.186 264.229 302.573 264.14 303.002 264.14C303.46 264.14 303.875 264.229 304.248 264.406C304.631 264.583 304.939 264.798 305.172 265.05L304.472 265.75C304.323 265.554 304.118 265.391 303.856 265.26C303.604 265.12 303.32 265.05 303.002 265.05C302.629 265.05 302.326 265.148 302.092 265.344C301.859 265.54 301.742 265.769 301.742 266.03C301.742 266.319 301.864 266.539 302.106 266.688C302.349 266.828 302.727 266.973 303.24 267.122C303.698 267.262 304.066 267.397 304.346 267.528C304.636 267.659 304.878 267.855 305.074 268.116C305.28 268.368 305.382 268.699 305.382 269.11C305.382 269.483 305.284 269.824 305.088 270.132C304.892 270.44 304.608 270.687 304.234 270.874C303.861 271.051 303.427 271.14 302.932 271.14C302.382 271.14 301.896 271.028 301.476 270.804C301.056 270.571 300.725 270.286 300.482 269.95L301.182 269.25ZM306.428 264.28H307.688V262.04H308.668V264.28H310.488V265.19H308.668V269.18C308.668 269.516 308.742 269.754 308.892 269.894C309.05 270.025 309.279 270.09 309.578 270.09H310.488V271H309.536C308.948 271 308.49 270.851 308.164 270.552C307.846 270.253 307.688 269.796 307.688 269.18V265.19H306.428V264.28ZM313.153 265.19C313.33 264.901 313.596 264.653 313.951 264.448C314.315 264.243 314.749 264.14 315.253 264.14H315.673V265.12H315.253C314.879 265.12 314.529 265.209 314.203 265.386C313.885 265.563 313.629 265.82 313.433 266.156C313.246 266.483 313.153 266.861 313.153 267.29V271H312.173V264.28H313.153V265.19ZM322.532 269.992C322.234 270.309 321.842 270.58 321.356 270.804C320.871 271.028 320.33 271.14 319.732 271.14C319.135 271.14 318.575 270.986 318.052 270.678C317.539 270.361 317.128 269.936 316.82 269.404C316.522 268.872 316.372 268.284 316.372 267.64C316.372 267.005 316.522 266.422 316.82 265.89C317.128 265.349 317.534 264.924 318.038 264.616C318.542 264.299 319.084 264.14 319.662 264.14C320.26 264.14 320.806 264.285 321.3 264.574C321.795 264.863 322.182 265.265 322.462 265.778C322.742 266.282 322.882 266.856 322.882 267.5C322.882 267.677 322.859 267.845 322.812 268.004L317.352 267.99C317.371 268.382 317.492 268.751 317.716 269.096C317.94 269.441 318.23 269.717 318.584 269.922C318.939 270.127 319.322 270.23 319.732 270.23C320.199 270.23 320.619 270.146 320.992 269.978C321.366 269.81 321.669 269.605 321.902 269.362L322.532 269.992ZM321.902 267.15C321.828 266.543 321.58 266.044 321.16 265.652C320.75 265.251 320.25 265.05 319.662 265.05C319.28 265.05 318.92 265.148 318.584 265.344C318.248 265.531 317.968 265.787 317.744 266.114C317.53 266.431 317.399 266.777 317.352 267.15H321.902ZM325.608 265.26C325.822 264.952 326.116 264.691 326.49 264.476C326.863 264.252 327.292 264.14 327.778 264.14C328.31 264.14 328.781 264.257 329.192 264.49C329.612 264.723 329.934 265.059 330.158 265.498C330.391 265.927 330.508 266.431 330.508 267.01V271H329.528V267.01C329.528 266.422 329.355 265.951 329.01 265.596C328.674 265.232 328.24 265.05 327.708 265.05C327.316 265.05 326.956 265.148 326.63 265.344C326.312 265.531 326.06 265.792 325.874 266.128C325.696 266.464 325.608 266.851 325.608 267.29V271H324.628V264.28H325.608V265.26ZM333.169 272.134C333.402 272.386 333.706 272.596 334.079 272.764C334.462 272.941 334.882 273.03 335.339 273.03C335.759 273.03 336.142 272.923 336.487 272.708C336.842 272.493 337.122 272.199 337.327 271.826C337.542 271.453 337.649 271.037 337.649 270.58V269.81C337.453 270.099 337.159 270.347 336.767 270.552C336.384 270.757 335.932 270.86 335.409 270.86C334.83 270.86 334.298 270.711 333.813 270.412C333.337 270.113 332.959 269.707 332.679 269.194C332.399 268.681 332.259 268.116 332.259 267.5C332.259 266.884 332.399 266.319 332.679 265.806C332.959 265.293 333.337 264.887 333.813 264.588C334.298 264.289 334.83 264.14 335.409 264.14C335.932 264.14 336.384 264.243 336.767 264.448C337.159 264.653 337.453 264.901 337.649 265.19V264.28H338.629V270.58C338.629 271.196 338.48 271.761 338.181 272.274C337.892 272.787 337.495 273.193 336.991 273.492C336.487 273.791 335.936 273.94 335.339 273.94C334.723 273.94 334.172 273.823 333.687 273.59C333.202 273.366 332.819 273.091 332.539 272.764L333.169 272.134ZM335.409 269.95C335.82 269.95 336.198 269.843 336.543 269.628C336.888 269.413 337.159 269.119 337.355 268.746C337.551 268.373 337.649 267.957 337.649 267.5C337.649 267.043 337.551 266.627 337.355 266.254C337.159 265.881 336.888 265.587 336.543 265.372C336.198 265.157 335.82 265.05 335.409 265.05C335.017 265.05 334.653 265.157 334.317 265.372C333.99 265.587 333.729 265.881 333.533 266.254C333.337 266.627 333.239 267.043 333.239 267.5C333.239 267.957 333.337 268.373 333.533 268.746C333.729 269.119 333.99 269.413 334.317 269.628C334.653 269.843 335.017 269.95 335.409 269.95ZM340.17 264.28H341.43V262.04H342.41V264.28H344.23V265.19H342.41V269.18C342.41 269.516 342.485 269.754 342.634 269.894C342.793 270.025 343.021 270.09 343.32 270.09H344.23V271H343.278C342.69 271 342.233 270.851 341.906 270.552C341.589 270.253 341.43 269.796 341.43 269.18V265.19H340.17V264.28ZM346.965 265.26C347.18 264.952 347.474 264.691 347.847 264.476C348.22 264.252 348.65 264.14 349.135 264.14C349.667 264.14 350.138 264.257 350.549 264.49C350.969 264.723 351.291 265.059 351.515 265.498C351.748 265.927 351.865 266.431 351.865 267.01V271H350.885V267.01C350.885 266.422 350.712 265.951 350.367 265.596C350.031 265.232 349.597 265.05 349.065 265.05C348.673 265.05 348.314 265.148 347.987 265.344C347.67 265.531 347.418 265.792 347.231 266.128C347.054 266.464 346.965 266.851 346.965 267.29V271H345.985V261.2H346.965V265.26ZM354.174 269.25C354.361 269.521 354.608 269.754 354.916 269.95C355.224 270.137 355.56 270.23 355.924 270.23C356.4 270.23 356.764 270.127 357.016 269.922C357.268 269.707 357.394 269.437 357.394 269.11C357.394 268.802 357.264 268.569 357.002 268.41C356.75 268.251 356.368 268.097 355.854 267.948C355.397 267.808 355.028 267.677 354.748 267.556C354.478 267.425 354.244 267.239 354.048 266.996C353.852 266.744 353.754 266.422 353.754 266.03C353.754 265.703 353.848 265.395 354.034 265.106C354.23 264.817 354.496 264.583 354.832 264.406C355.178 264.229 355.565 264.14 355.994 264.14C356.452 264.14 356.867 264.229 357.24 264.406C357.623 264.583 357.931 264.798 358.164 265.05L357.464 265.75C357.315 265.554 357.11 265.391 356.848 265.26C356.596 265.12 356.312 265.05 355.994 265.05C355.621 265.05 355.318 265.148 355.084 265.344C354.851 265.54 354.734 265.769 354.734 266.03C354.734 266.319 354.856 266.539 355.098 266.688C355.341 266.828 355.719 266.973 356.232 267.122C356.69 267.262 357.058 267.397 357.338 267.528C357.628 267.659 357.87 267.855 358.066 268.116C358.272 268.368 358.374 268.699 358.374 269.11C358.374 269.483 358.276 269.824 358.08 270.132C357.884 270.44 357.6 270.687 357.226 270.874C356.853 271.051 356.419 271.14 355.924 271.14C355.374 271.14 354.888 271.028 354.468 270.804C354.048 270.571 353.717 270.286 353.474 269.95L354.174 269.25Z" fill="#70747D"/>
<path d="M16.84 266.1C16.84 265.185 17.064 264.341 17.512 263.566C17.96 262.791 18.5713 262.18 19.346 261.732C20.1207 261.284 20.9653 261.06 21.88 261.06C22.7947 261.06 23.6393 261.284 24.414 261.732C25.1887 262.18 25.8 262.791 26.248 263.566C26.696 264.341 26.92 265.185 26.92 266.1C26.92 267.015 26.696 267.859 26.248 268.634C25.8 269.409 25.1887 270.02 24.414 270.468C23.6393 270.916 22.7947 271.14 21.88 271.14C20.9653 271.14 20.1207 270.916 19.346 270.468C18.5713 270.02 17.96 269.409 17.512 268.634C17.064 267.859 16.84 267.015 16.84 266.1ZM21.88 270.16C22.6173 270.16 23.2893 269.983 23.896 269.628C24.5027 269.273 24.9833 268.788 25.338 268.172C25.6927 267.547 25.87 266.856 25.87 266.1C25.87 265.344 25.6927 264.658 25.338 264.042C24.9833 263.417 24.5027 262.927 23.896 262.572C23.2893 262.217 22.6173 262.04 21.88 262.04C21.1427 262.04 20.4707 262.217 19.864 262.572C19.2573 262.927 18.7767 263.417 18.422 264.042C18.0673 264.658 17.89 265.344 17.89 266.1C17.89 266.856 18.0673 267.547 18.422 268.172C18.7767 268.788 19.2573 269.273 19.864 269.628C20.4707 269.983 21.1427 270.16 21.88 270.16ZM29.8578 265.19C30.0351 264.901 30.3011 264.653 30.6558 264.448C31.0198 264.243 31.4538 264.14 31.9578 264.14H32.3778V265.12H31.9578C31.5845 265.12 31.2345 265.209 30.9078 265.386C30.5905 265.563 30.3338 265.82 30.1378 266.156C29.9511 266.483 29.8578 266.861 29.8578 267.29V271H28.8778V264.28H29.8578V265.19ZM37.764 270.09C37.5493 270.379 37.2553 270.627 36.882 270.832C36.5087 271.037 36.0793 271.14 35.594 271.14C35.146 271.14 34.74 271.047 34.376 270.86C34.012 270.673 33.7273 270.431 33.522 270.132C33.3167 269.824 33.214 269.507 33.214 269.18C33.214 268.611 33.382 268.144 33.718 267.78C34.0633 267.416 34.5487 267.206 35.174 267.15L37.764 266.926C37.764 266.599 37.6893 266.291 37.54 266.002C37.4 265.713 37.1993 265.484 36.938 265.316C36.686 265.139 36.4013 265.05 36.084 265.05C35.692 265.05 35.3327 265.097 35.006 265.19C34.6793 265.283 34.4087 265.4 34.194 265.54L33.564 264.91C33.844 264.695 34.2033 264.513 34.642 264.364C35.0807 264.215 35.5613 264.14 36.084 264.14C36.588 264.14 37.0407 264.257 37.442 264.49C37.8527 264.714 38.17 265.022 38.394 265.414C38.6273 265.806 38.744 266.245 38.744 266.73V271H37.764V270.09ZM35.454 267.99C35.0433 268.027 34.7307 268.153 34.516 268.368C34.3013 268.583 34.194 268.853 34.194 269.18C34.194 269.479 34.3153 269.731 34.558 269.936C34.81 270.132 35.1553 270.23 35.594 270.23C36.2473 270.23 36.77 270.053 37.162 269.698C37.5633 269.334 37.764 268.83 37.764 268.186V267.766L35.454 267.99ZM41.6173 261.2V271H40.6373V261.2H41.6173ZM51.1351 261.2C51.7324 261.2 52.2691 261.335 52.7451 261.606C53.2304 261.877 53.6084 262.245 53.8791 262.712C54.1497 263.179 54.2851 263.701 54.2851 264.28C54.2851 264.859 54.1497 265.381 53.8791 265.848C53.6084 266.315 53.2304 266.683 52.7451 266.954C52.2691 267.225 51.7324 267.36 51.1351 267.36H48.4751V271H47.4251V261.2H51.1351ZM51.1351 266.38C51.7697 266.38 52.2784 266.189 52.6611 265.806C53.0437 265.414 53.2351 264.905 53.2351 264.28C53.2351 263.645 53.0437 263.137 52.6611 262.754C52.2784 262.371 51.7697 262.18 51.1351 262.18H48.4751V266.38H51.1351ZM55.7671 262.04C55.7671 261.863 55.8278 261.713 55.9491 261.592C56.0704 261.471 56.2198 261.41 56.3971 261.41C56.5744 261.41 56.7238 261.471 56.8451 261.592C56.9664 261.713 57.0271 261.863 57.0271 262.04C57.0271 262.217 56.9664 262.367 56.8451 262.488C56.7238 262.609 56.5744 262.67 56.3971 262.67C56.2198 262.67 56.0704 262.609 55.9491 262.488C55.8278 262.367 55.7671 262.217 55.7671 262.04ZM56.8871 264.28V271H55.9071V264.28H56.8871ZM60.1837 261.2V271H59.2037V261.2H60.1837ZM63.547 261.2V271H62.567V261.2H63.547Z" fill="#25272E"/>
<g style="mix-blend-mode:multiply">
<rect x="16" y="289" width="72" height="32" rx="16" fill="#F1F3F5" style="mix-blend-mode:multiply"/>
<path d="M37.7164 306.62C37.9498 306.928 38.2718 307.194 38.6824 307.418C39.1024 307.633 39.5738 307.74 40.0964 307.74C40.7218 307.74 41.2164 307.567 41.5804 307.222C41.9444 306.877 42.1264 306.419 42.1264 305.85C42.1264 305.281 41.9444 304.823 41.5804 304.478C41.2164 304.133 40.7218 303.96 40.0964 303.96C39.7044 303.96 39.3498 304.058 39.0324 304.254C38.7244 304.441 38.4724 304.669 38.2764 304.94L37.1564 304.8L37.5064 299.2H43.0364V300.67H38.8364L38.6964 303.05C38.8831 302.91 39.1211 302.793 39.4104 302.7C39.7091 302.607 40.0311 302.56 40.3764 302.56C41.0018 302.56 41.5618 302.705 42.0564 302.994C42.5604 303.274 42.9524 303.666 43.2324 304.17C43.5218 304.665 43.6664 305.225 43.6664 305.85C43.6664 306.475 43.5171 307.04 43.2184 307.544C42.9291 308.039 42.5138 308.431 41.9724 308.72C41.4311 309 40.8058 309.14 40.0964 309.14C39.3404 309.14 38.6638 309 38.0664 308.72C37.4784 308.431 37.0118 308.081 36.6664 307.67L37.7164 306.62ZM49.9708 303.26C50.1482 302.952 50.4048 302.691 50.7408 302.476C51.0768 302.252 51.4735 302.14 51.9308 302.14C52.4162 302.14 52.8362 302.252 53.1908 302.476C53.5548 302.691 53.8348 302.952 54.0308 303.26C54.2268 302.952 54.5208 302.691 54.9128 302.476C55.3142 302.252 55.7902 302.14 56.3408 302.14C56.7888 302.14 57.1995 302.261 57.5728 302.504C57.9462 302.737 58.2402 303.073 58.4548 303.512C58.6788 303.941 58.7908 304.441 58.7908 305.01V309H57.3908V305.01C57.3908 304.534 57.2555 304.161 56.9848 303.89C56.7235 303.61 56.3922 303.47 55.9908 303.47C55.5242 303.47 55.1368 303.638 54.8288 303.974C54.5302 304.301 54.3808 304.739 54.3808 305.29V309H52.9808V305.01C52.9808 304.534 52.8455 304.161 52.5748 303.89C52.3135 303.61 51.9822 303.47 51.5808 303.47C51.1142 303.47 50.7268 303.638 50.4188 303.974C50.1202 304.301 49.9708 304.739 49.9708 305.29V309H48.5708V302.28H49.9708V303.26ZM61.5225 309.77C61.7371 310.003 62.0078 310.199 62.3345 310.358C62.6611 310.526 63.0205 310.61 63.4125 310.61C64.0471 310.61 64.5558 310.414 64.9385 310.022C65.3211 309.63 65.5125 309.103 65.5125 308.44V307.81C65.2978 308.099 65.0038 308.347 64.6305 308.552C64.2571 308.757 63.8278 308.86 63.3425 308.86C62.8105 308.86 62.3111 308.715 61.8445 308.426C61.3871 308.137 61.0185 307.735 60.7385 307.222C60.4678 306.709 60.3325 306.135 60.3325 305.5C60.3325 304.865 60.4678 304.291 60.7385 303.778C61.0185 303.265 61.3871 302.863 61.8445 302.574C62.3111 302.285 62.8105 302.14 63.3425 302.14C63.8278 302.14 64.2571 302.243 64.6305 302.448C65.0038 302.653 65.2978 302.901 65.5125 303.19V302.28H66.9125V308.44C66.9125 309.112 66.7631 309.714 66.4645 310.246C66.1658 310.778 65.7505 311.193 65.2185 311.492C64.6865 311.791 64.0845 311.94 63.4125 311.94C62.7965 311.94 62.2365 311.819 61.7325 311.576C61.2378 311.333 60.8411 311.035 60.5425 310.68L61.5225 309.77ZM63.6225 307.53C63.9678 307.53 64.2851 307.446 64.5745 307.278C64.8638 307.101 65.0925 306.858 65.2605 306.55C65.4285 306.242 65.5125 305.892 65.5125 305.5C65.5125 305.108 65.4285 304.758 65.2605 304.45C65.0925 304.142 64.8638 303.904 64.5745 303.736C64.2851 303.559 63.9678 303.47 63.6225 303.47C63.2771 303.47 62.9598 303.559 62.6705 303.736C62.3811 303.904 62.1525 304.142 61.9845 304.45C61.8165 304.758 61.7325 305.108 61.7325 305.5C61.7325 305.892 61.8165 306.242 61.9845 306.55C62.1525 306.858 62.3811 307.101 62.6705 307.278C62.9598 307.446 63.2771 307.53 63.6225 307.53Z" fill="#25272E"/>
</g>
<g style="mix-blend-mode:multiply">
<rect x="100" y="289" width="82" height="32" rx="16" fill="#F1F3F5" style="mix-blend-mode:multiply"/>
<path d="M120.912 300.67V299.2H127.352V300.6L123.292 309H121.612L125.672 300.67H120.912ZM128.185 309.14C127.942 309.14 127.727 309.051 127.541 308.874C127.363 308.687 127.275 308.473 127.275 308.23C127.275 307.987 127.363 307.777 127.541 307.6C127.727 307.413 127.942 307.32 128.185 307.32C128.427 307.32 128.637 307.413 128.815 307.6C129.001 307.777 129.095 307.987 129.095 308.23C129.095 308.473 129.001 308.687 128.815 308.874C128.637 309.051 128.427 309.14 128.185 309.14ZM131.331 306.62C131.564 306.928 131.886 307.194 132.297 307.418C132.717 307.633 133.188 307.74 133.711 307.74C134.336 307.74 134.831 307.567 135.195 307.222C135.559 306.877 135.741 306.419 135.741 305.85C135.741 305.281 135.559 304.823 135.195 304.478C134.831 304.133 134.336 303.96 133.711 303.96C133.319 303.96 132.964 304.058 132.647 304.254C132.339 304.441 132.087 304.669 131.891 304.94L130.771 304.8L131.121 299.2H136.651V300.67H132.451L132.311 303.05C132.497 302.91 132.735 302.793 133.025 302.7C133.323 302.607 133.645 302.56 133.991 302.56C134.616 302.56 135.176 302.705 135.671 302.994C136.175 303.274 136.567 303.666 136.847 304.17C137.136 304.665 137.281 305.225 137.281 305.85C137.281 306.475 137.131 307.04 136.833 307.544C136.543 308.039 136.128 308.431 135.587 308.72C135.045 309 134.42 309.14 133.711 309.14C132.955 309.14 132.278 309 131.681 308.72C131.093 308.431 130.626 308.081 130.281 307.67L131.331 306.62ZM143.585 303.26C143.762 302.952 144.019 302.691 144.355 302.476C144.691 302.252 145.088 302.14 145.545 302.14C146.03 302.14 146.45 302.252 146.805 302.476C147.169 302.691 147.449 302.952 147.645 303.26C147.841 302.952 148.135 302.691 148.527 302.476C148.928 302.252 149.404 302.14 149.955 302.14C150.403 302.14 150.814 302.261 151.187 302.504C151.56 302.737 151.854 303.073 152.069 303.512C152.293 303.941 152.405 304.441 152.405 305.01V309H151.005V305.01C151.005 304.534 150.87 304.161 150.599 303.89C150.338 303.61 150.006 303.47 149.605 303.47C149.138 303.47 148.751 303.638 148.443 303.974C148.144 304.301 147.995 304.739 147.995 305.29V309H146.595V305.01C146.595 304.534 146.46 304.161 146.189 303.89C145.928 303.61 145.596 303.47 145.195 303.47C144.728 303.47 144.341 303.638 144.033 303.974C143.734 304.301 143.585 304.739 143.585 305.29V309H142.185V302.28H143.585V303.26ZM155.137 309.77C155.351 310.003 155.622 310.199 155.949 310.358C156.275 310.526 156.635 310.61 157.027 310.61C157.661 310.61 158.17 310.414 158.553 310.022C158.935 309.63 159.127 309.103 159.127 308.44V307.81C158.912 308.099 158.618 308.347 158.245 308.552C157.871 308.757 157.442 308.86 156.957 308.86C156.425 308.86 155.925 308.715 155.459 308.426C155.001 308.137 154.633 307.735 154.353 307.222C154.082 306.709 153.947 306.135 153.947 305.5C153.947 304.865 154.082 304.291 154.353 303.778C154.633 303.265 155.001 302.863 155.459 302.574C155.925 302.285 156.425 302.14 156.957 302.14C157.442 302.14 157.871 302.243 158.245 302.448C158.618 302.653 158.912 302.901 159.127 303.19V302.28H160.527V308.44C160.527 309.112 160.377 309.714 160.079 310.246C159.78 310.778 159.365 311.193 158.833 311.492C158.301 311.791 157.699 311.94 157.027 311.94C156.411 311.94 155.851 311.819 155.347 311.576C154.852 311.333 154.455 311.035 154.157 310.68L155.137 309.77ZM157.237 307.53C157.582 307.53 157.899 307.446 158.189 307.278C158.478 307.101 158.707 306.858 158.875 306.55C159.043 306.242 159.127 305.892 159.127 305.5C159.127 305.108 159.043 304.758 158.875 304.45C158.707 304.142 158.478 303.904 158.189 303.736C157.899 303.559 157.582 303.47 157.237 303.47C156.891 303.47 156.574 303.559 156.285 303.736C155.995 303.904 155.767 304.142 155.599 304.45C155.431 304.758 155.347 305.108 155.347 305.5C155.347 305.892 155.431 306.242 155.599 306.55C155.767 306.858 155.995 307.101 156.285 307.278C156.574 307.446 156.891 307.53 157.237 307.53Z" fill="#25272E"/>
</g>
<g style="mix-blend-mode:multiply">
<rect x="193" y="289" width="79" height="32" rx="16" fill="#F1F3F5" style="mix-blend-mode:multiply"/>
<path d="M213.802 300.53C214.39 300.465 214.838 300.325 215.146 300.11C215.454 299.895 215.706 299.592 215.902 299.2H217.092V309H215.552V301.51H213.802V300.53ZM223.323 309.14C222.567 309.14 221.881 308.944 221.265 308.552C220.649 308.151 220.159 307.572 219.795 306.816C219.44 306.051 219.263 305.145 219.263 304.1C219.263 303.055 219.44 302.154 219.795 301.398C220.159 300.633 220.649 300.054 221.265 299.662C221.881 299.261 222.567 299.06 223.323 299.06C224.079 299.06 224.765 299.261 225.381 299.662C225.997 300.054 226.482 300.633 226.837 301.398C227.201 302.154 227.383 303.055 227.383 304.1C227.383 305.145 227.201 306.051 226.837 306.816C226.482 307.572 225.997 308.151 225.381 308.552C224.765 308.944 224.079 309.14 223.323 309.14ZM225.843 304.1C225.843 303.316 225.726 302.653 225.493 302.112C225.269 301.561 224.966 301.151 224.583 300.88C224.2 300.6 223.78 300.46 223.323 300.46C222.866 300.46 222.446 300.6 222.063 300.88C221.68 301.151 221.372 301.561 221.139 302.112C220.915 302.653 220.803 303.316 220.803 304.1C220.803 304.884 220.915 305.551 221.139 306.102C221.372 306.643 221.68 307.054 222.063 307.334C222.446 307.605 222.866 307.74 223.323 307.74C223.78 307.74 224.2 307.605 224.583 307.334C224.966 307.054 225.269 306.643 225.493 306.102C225.726 305.551 225.843 304.884 225.843 304.1ZM233.766 303.26C233.943 302.952 234.2 302.691 234.536 302.476C234.872 302.252 235.268 302.14 235.726 302.14C236.211 302.14 236.631 302.252 236.986 302.476C237.35 302.691 237.63 302.952 237.826 303.26C238.022 302.952 238.316 302.691 238.708 302.476C239.109 302.252 239.585 302.14 240.136 302.14C240.584 302.14 240.994 302.261 241.368 302.504C241.741 302.737 242.035 303.073 242.25 303.512C242.474 303.941 242.586 304.441 242.586 305.01V309H241.186V305.01C241.186 304.534 241.05 304.161 240.78 303.89C240.518 303.61 240.187 303.47 239.786 303.47C239.319 303.47 238.932 303.638 238.624 303.974C238.325 304.301 238.176 304.739 238.176 305.29V309H236.776V305.01C236.776 304.534 236.64 304.161 236.37 303.89C236.108 303.61 235.777 303.47 235.376 303.47C234.909 303.47 234.522 303.638 234.214 303.974C233.915 304.301 233.766 304.739 233.766 305.29V309H232.366V302.28H233.766V303.26ZM245.317 309.77C245.532 310.003 245.803 310.199 246.129 310.358C246.456 310.526 246.815 310.61 247.207 310.61C247.842 310.61 248.351 310.414 248.733 310.022C249.116 309.63 249.307 309.103 249.307 308.44V307.81C249.093 308.099 248.799 308.347 248.425 308.552C248.052 308.757 247.623 308.86 247.137 308.86C246.605 308.86 246.106 308.715 245.639 308.426C245.182 308.137 244.813 307.735 244.533 307.222C244.263 306.709 244.127 306.135 244.127 305.5C244.127 304.865 244.263 304.291 244.533 303.778C244.813 303.265 245.182 302.863 245.639 302.574C246.106 302.285 246.605 302.14 247.137 302.14C247.623 302.14 248.052 302.243 248.425 302.448C248.799 302.653 249.093 302.901 249.307 303.19V302.28H250.707V308.44C250.707 309.112 250.558 309.714 250.259 310.246C249.961 310.778 249.545 311.193 249.013 311.492C248.481 311.791 247.879 311.94 247.207 311.94C246.591 311.94 246.031 311.819 245.527 311.576C245.033 311.333 244.636 311.035 244.337 310.68L245.317 309.77ZM247.417 307.53C247.763 307.53 248.08 307.446 248.369 307.278C248.659 307.101 248.887 306.858 249.055 306.55C249.223 306.242 249.307 305.892 249.307 305.5C249.307 305.108 249.223 304.758 249.055 304.45C248.887 304.142 248.659 303.904 248.369 303.736C248.08 303.559 247.763 303.47 247.417 303.47C247.072 303.47 246.755 303.559 246.465 303.736C246.176 303.904 245.947 304.142 245.779 304.45C245.611 304.758 245.527 305.108 245.527 305.5C245.527 305.892 245.611 306.242 245.779 306.55C245.947 306.858 246.176 307.101 246.465 307.278C246.755 307.446 247.072 307.53 247.417 307.53Z" fill="#25272E"/>
</g>
<g style="mix-blend-mode:multiply">
<rect x="16" y="333" width="77" height="32" rx="16" fill="#F1F3F5" style="mix-blend-mode:multiply"/>
<path d="M36.5056 344.53C37.0936 344.465 37.5416 344.325 37.8496 344.11C38.1576 343.895 38.4096 343.592 38.6056 343.2H39.7956V353H38.2556V345.51H36.5056V344.53ZM42.8073 350.62C43.0406 350.928 43.3626 351.194 43.7733 351.418C44.1933 351.633 44.6646 351.74 45.1873 351.74C45.8126 351.74 46.3073 351.567 46.6713 351.222C47.0353 350.877 47.2173 350.419 47.2173 349.85C47.2173 349.281 47.0353 348.823 46.6713 348.478C46.3073 348.133 45.8126 347.96 45.1873 347.96C44.7953 347.96 44.4406 348.058 44.1233 348.254C43.8153 348.441 43.5633 348.669 43.3673 348.94L42.2473 348.8L42.5973 343.2H48.1273V344.67H43.9273L43.7873 347.05C43.9739 346.91 44.2119 346.793 44.5013 346.7C44.7999 346.607 45.1219 346.56 45.4673 346.56C46.0926 346.56 46.6526 346.705 47.1473 346.994C47.6513 347.274 48.0433 347.666 48.3233 348.17C48.6126 348.665 48.7573 349.225 48.7573 349.85C48.7573 350.475 48.6079 351.04 48.3093 351.544C48.0199 352.039 47.6046 352.431 47.0633 352.72C46.5219 353 45.8966 353.14 45.1873 353.14C44.4313 353.14 43.7546 353 43.1573 352.72C42.5693 352.431 42.1026 352.081 41.7573 351.67L42.8073 350.62ZM55.0616 347.26C55.239 346.952 55.4956 346.691 55.8316 346.476C56.1676 346.252 56.5643 346.14 57.0216 346.14C57.507 346.14 57.927 346.252 58.2816 346.476C58.6456 346.691 58.9256 346.952 59.1216 347.26C59.3176 346.952 59.6116 346.691 60.0036 346.476C60.405 346.252 60.881 346.14 61.4316 346.14C61.8796 346.14 62.2903 346.261 62.6636 346.504C63.037 346.737 63.331 347.073 63.5456 347.512C63.7696 347.941 63.8816 348.441 63.8816 349.01V353H62.4816V349.01C62.4816 348.534 62.3463 348.161 62.0756 347.89C61.8143 347.61 61.483 347.47 61.0816 347.47C60.615 347.47 60.2276 347.638 59.9196 347.974C59.621 348.301 59.4716 348.739 59.4716 349.29V353H58.0716V349.01C58.0716 348.534 57.9363 348.161 57.6656 347.89C57.4043 347.61 57.073 347.47 56.6716 347.47C56.205 347.47 55.8176 347.638 55.5096 347.974C55.211 348.301 55.0616 348.739 55.0616 349.29V353H53.6616V346.28H55.0616V347.26ZM66.6133 353.77C66.8279 354.003 67.0986 354.199 67.4253 354.358C67.7519 354.526 68.1113 354.61 68.5033 354.61C69.1379 354.61 69.6466 354.414 70.0293 354.022C70.4119 353.63 70.6033 353.103 70.6033 352.44V351.81C70.3886 352.099 70.0946 352.347 69.7213 352.552C69.3479 352.757 68.9186 352.86 68.4333 352.86C67.9013 352.86 67.4019 352.715 66.9353 352.426C66.4779 352.137 66.1093 351.735 65.8293 351.222C65.5586 350.709 65.4233 350.135 65.4233 349.5C65.4233 348.865 65.5586 348.291 65.8293 347.778C66.1093 347.265 66.4779 346.863 66.9353 346.574C67.4019 346.285 67.9013 346.14 68.4333 346.14C68.9186 346.14 69.3479 346.243 69.7213 346.448C70.0946 346.653 70.3886 346.901 70.6033 347.19V346.28H72.0033V352.44C72.0033 353.112 71.8539 353.714 71.5553 354.246C71.2566 354.778 70.8413 355.193 70.3093 355.492C69.7773 355.791 69.1753 355.94 68.5033 355.94C67.8873 355.94 67.3273 355.819 66.8233 355.576C66.3286 355.333 65.9319 355.035 65.6333 354.68L66.6133 353.77ZM68.7133 351.53C69.0586 351.53 69.3759 351.446 69.6653 351.278C69.9546 351.101 70.1833 350.858 70.3513 350.55C70.5193 350.242 70.6033 349.892 70.6033 349.5C70.6033 349.108 70.5193 348.758 70.3513 348.45C70.1833 348.142 69.9546 347.904 69.6653 347.736C69.3759 347.559 69.0586 347.47 68.7133 347.47C68.3679 347.47 68.0506 347.559 67.7613 347.736C67.4719 347.904 67.2433 348.142 67.0753 348.45C66.9073 348.758 66.8233 349.108 66.8233 349.5C66.8233 349.892 66.9073 350.242 67.0753 350.55C67.2433 350.858 67.4719 351.101 67.7613 351.278C68.0506 351.446 68.3679 351.53 68.7133 351.53Z" fill="#25272E"/>
</g>
<g style="mix-blend-mode:multiply">
<rect x="105" y="333" width="82" height="32" rx="16" fill="#F1F3F5" style="mix-blend-mode:multiply"/>
<path d="M125.975 353C125.975 352.216 126.12 351.539 126.409 350.97C126.708 350.401 127.063 349.939 127.473 349.584C127.884 349.22 128.416 348.819 129.069 348.38C129.527 348.072 129.881 347.82 130.133 347.624C130.385 347.419 130.595 347.19 130.763 346.938C130.931 346.677 131.015 346.387 131.015 346.07C131.015 345.603 130.861 345.23 130.553 344.95C130.245 344.67 129.816 344.53 129.265 344.53C128.78 344.53 128.379 344.661 128.061 344.922C127.744 345.174 127.515 345.487 127.375 345.86L126.115 345.3C126.311 344.675 126.671 344.147 127.193 343.718C127.725 343.279 128.416 343.06 129.265 343.06C129.9 343.06 130.469 343.195 130.973 343.466C131.477 343.727 131.865 344.087 132.135 344.544C132.415 345.001 132.555 345.51 132.555 346.07C132.555 346.593 132.439 347.055 132.205 347.456C131.981 347.848 131.706 348.184 131.379 348.464C131.053 348.735 130.605 349.061 130.035 349.444C129.447 349.836 128.976 350.181 128.621 350.48C128.276 350.779 128.001 351.129 127.795 351.53H132.555V353H125.975ZM138.149 353.14C137.393 353.14 136.707 352.944 136.091 352.552C135.475 352.151 134.985 351.572 134.621 350.816C134.267 350.051 134.089 349.145 134.089 348.1C134.089 347.055 134.267 346.154 134.621 345.398C134.985 344.633 135.475 344.054 136.091 343.662C136.707 343.261 137.393 343.06 138.149 343.06C138.905 343.06 139.591 343.261 140.207 343.662C140.823 344.054 141.309 344.633 141.663 345.398C142.027 346.154 142.209 347.055 142.209 348.1C142.209 349.145 142.027 350.051 141.663 350.816C141.309 351.572 140.823 352.151 140.207 352.552C139.591 352.944 138.905 353.14 138.149 353.14ZM140.669 348.1C140.669 347.316 140.553 346.653 140.319 346.112C140.095 345.561 139.792 345.151 139.409 344.88C139.027 344.6 138.607 344.46 138.149 344.46C137.692 344.46 137.272 344.6 136.889 344.88C136.507 345.151 136.199 345.561 135.965 346.112C135.741 346.653 135.629 347.316 135.629 348.1C135.629 348.884 135.741 349.551 135.965 350.102C136.199 350.643 136.507 351.054 136.889 351.334C137.272 351.605 137.692 351.74 138.149 351.74C138.607 351.74 139.027 351.605 139.409 351.334C139.792 351.054 140.095 350.643 140.319 350.102C140.553 349.551 140.669 348.884 140.669 348.1ZM148.592 347.26C148.769 346.952 149.026 346.691 149.362 346.476C149.698 346.252 150.095 346.14 150.552 346.14C151.037 346.14 151.457 346.252 151.812 346.476C152.176 346.691 152.456 346.952 152.652 347.26C152.848 346.952 153.142 346.691 153.534 346.476C153.935 346.252 154.411 346.14 154.962 346.14C155.41 346.14 155.821 346.261 156.194 346.504C156.567 346.737 156.861 347.073 157.076 347.512C157.3 347.941 157.412 348.441 157.412 349.01V353H156.012V349.01C156.012 348.534 155.877 348.161 155.606 347.89C155.345 347.61 155.013 347.47 154.612 347.47C154.145 347.47 153.758 347.638 153.45 347.974C153.151 348.301 153.002 348.739 153.002 349.29V353H151.602V349.01C151.602 348.534 151.467 348.161 151.196 347.89C150.935 347.61 150.603 347.47 150.202 347.47C149.735 347.47 149.348 347.638 149.04 347.974C148.741 348.301 148.592 348.739 148.592 349.29V353H147.192V346.28H148.592V347.26ZM160.144 353.77C160.358 354.003 160.629 354.199 160.956 354.358C161.282 354.526 161.642 354.61 162.034 354.61C162.668 354.61 163.177 354.414 163.56 354.022C163.942 353.63 164.134 353.103 164.134 352.44V351.81C163.919 352.099 163.625 352.347 163.252 352.552C162.878 352.757 162.449 352.86 161.964 352.86C161.432 352.86 160.932 352.715 160.466 352.426C160.008 352.137 159.64 351.735 159.36 351.222C159.089 350.709 158.954 350.135 158.954 349.5C158.954 348.865 159.089 348.291 159.36 347.778C159.64 347.265 160.008 346.863 160.466 346.574C160.932 346.285 161.432 346.14 161.964 346.14C162.449 346.14 162.878 346.243 163.252 346.448C163.625 346.653 163.919 346.901 164.134 347.19V346.28H165.534V352.44C165.534 353.112 165.384 353.714 165.086 354.246C164.787 354.778 164.372 355.193 163.84 355.492C163.308 355.791 162.706 355.94 162.034 355.94C161.418 355.94 160.858 355.819 160.354 355.576C159.859 355.333 159.462 355.035 159.164 354.68L160.144 353.77ZM162.244 351.53C162.589 351.53 162.906 351.446 163.196 351.278C163.485 351.101 163.714 350.858 163.882 350.55C164.05 350.242 164.134 349.892 164.134 349.5C164.134 349.108 164.05 348.758 163.882 348.45C163.714 348.142 163.485 347.904 163.196 347.736C162.906 347.559 162.589 347.47 162.244 347.47C161.898 347.47 161.581 347.559 161.292 347.736C161.002 347.904 160.774 348.142 160.606 348.45C160.438 348.758 160.354 349.108 160.354 349.5C160.354 349.892 160.438 350.242 160.606 350.55C160.774 350.858 161.002 351.101 161.292 351.278C161.581 351.446 161.898 351.53 162.244 351.53Z" fill="#25272E"/>
</g>
<g style="mix-blend-mode:multiply">
<rect x="198" y="333" width="123" height="32" rx="16" fill="#F1F3F5" style="mix-blend-mode:multiply"/>
<path d="M224.149 343.2L228.069 353H226.459L225.479 350.48H221.139L220.159 353H218.549L222.469 343.2H224.149ZM223.309 345.02L221.699 349.08H224.919L223.309 345.02ZM230.592 347.26C230.807 346.952 231.096 346.691 231.46 346.476C231.824 346.252 232.235 346.14 232.692 346.14C233.205 346.14 233.663 346.261 234.064 346.504C234.465 346.737 234.778 347.078 235.002 347.526C235.235 347.965 235.352 348.483 235.352 349.08V353H233.952V349.08C233.952 348.595 233.807 348.207 233.518 347.918C233.238 347.619 232.869 347.47 232.412 347.47C231.88 347.47 231.441 347.647 231.096 348.002C230.76 348.347 230.592 348.8 230.592 349.36V353H229.192V346.28H230.592V347.26ZM237.596 354.61C237.867 354.61 238.105 354.531 238.31 354.372C238.516 354.213 238.674 353.989 238.786 353.7L239.066 353L236.336 346.28H237.876L239.766 351.25L241.656 346.28H243.196L240.256 353.77C239.967 354.489 239.622 355.03 239.22 355.394C238.828 355.758 238.357 355.94 237.806 355.94H236.756V354.61H237.596ZM247.546 350.97C247.751 351.222 248.008 351.437 248.316 351.614C248.624 351.791 248.951 351.88 249.296 351.88C249.66 351.88 249.949 351.796 250.164 351.628C250.379 351.46 250.486 351.264 250.486 351.04C250.486 350.835 250.383 350.681 250.178 350.578C249.982 350.466 249.655 350.34 249.198 350.2C248.722 350.06 248.33 349.92 248.022 349.78C247.723 349.64 247.462 349.435 247.238 349.164C247.023 348.893 246.916 348.539 246.916 348.1C246.916 347.745 247.014 347.419 247.21 347.12C247.406 346.821 247.691 346.583 248.064 346.406C248.437 346.229 248.871 346.14 249.366 346.14C249.889 346.14 250.355 346.229 250.766 346.406C251.186 346.583 251.513 346.798 251.746 347.05L250.836 347.96C250.668 347.801 250.453 347.671 250.192 347.568C249.94 347.456 249.665 347.4 249.366 347.4C249.039 347.4 248.783 347.47 248.596 347.61C248.409 347.75 248.316 347.913 248.316 348.1C248.316 348.305 248.414 348.464 248.61 348.576C248.815 348.679 249.147 348.8 249.604 348.94C250.08 349.08 250.467 349.22 250.766 349.36C251.074 349.5 251.335 349.705 251.55 349.976C251.774 350.247 251.886 350.601 251.886 351.04C251.886 351.413 251.779 351.763 251.564 352.09C251.359 352.407 251.06 352.664 250.668 352.86C250.276 353.047 249.819 353.14 249.296 353.14C248.727 353.14 248.209 353.019 247.742 352.776C247.285 352.533 246.916 352.235 246.636 351.88L247.546 350.97ZM252.79 346.28H254.05V344.04H255.45V346.28H257.2V347.61H255.45V350.76C255.45 351.096 255.529 351.334 255.688 351.474C255.847 351.605 256.094 351.67 256.43 351.67H257.2V353H256.15C254.75 353 254.05 352.3 254.05 350.9V347.61H252.79V346.28ZM260.274 347.19C260.46 346.938 260.708 346.723 261.016 346.546C261.333 346.369 261.692 346.28 262.094 346.28H262.654V347.54H262.094C261.767 347.54 261.464 347.629 261.184 347.806C260.904 347.974 260.68 348.217 260.512 348.534C260.353 348.842 260.274 349.187 260.274 349.57V353H258.874V346.28H260.274V347.19ZM269.732 352.048C269.452 352.356 269.064 352.617 268.57 352.832C268.075 353.037 267.506 353.14 266.862 353.14C266.218 353.14 265.625 352.986 265.084 352.678C264.552 352.37 264.132 351.95 263.824 351.418C263.516 350.877 263.362 350.284 263.362 349.64C263.362 348.996 263.516 348.408 263.824 347.876C264.132 347.344 264.547 346.924 265.07 346.616C265.592 346.299 266.166 346.14 266.792 346.14C267.417 346.14 267.977 346.285 268.472 346.574C268.976 346.854 269.368 347.246 269.648 347.75C269.937 348.245 270.082 348.805 270.082 349.43C270.082 349.691 270.058 349.925 270.012 350.13H264.832C264.906 350.597 265.14 350.993 265.532 351.32C265.924 351.647 266.39 351.81 266.932 351.81C267.324 351.81 267.688 351.74 268.024 351.6C268.369 351.451 268.658 351.273 268.892 351.068L269.732 352.048ZM268.612 348.94C268.5 348.473 268.285 348.1 267.968 347.82C267.66 347.54 267.268 347.4 266.792 347.4C266.288 347.4 265.872 347.54 265.546 347.82C265.219 348.091 264.981 348.464 264.832 348.94H268.612ZM273.016 347.26C273.23 346.952 273.52 346.691 273.884 346.476C274.248 346.252 274.658 346.14 275.116 346.14C275.629 346.14 276.086 346.261 276.488 346.504C276.889 346.737 277.202 347.078 277.426 347.526C277.659 347.965 277.776 348.483 277.776 349.08V353H276.376V349.08C276.376 348.595 276.231 348.207 275.942 347.918C275.662 347.619 275.293 347.47 274.836 347.47C274.304 347.47 273.865 347.647 273.52 348.002C273.184 348.347 273.016 348.8 273.016 349.36V353H271.616V346.28H273.016V347.26ZM280.507 353.77C280.722 354.003 280.992 354.199 281.319 354.358C281.646 354.526 282.005 354.61 282.397 354.61C283.032 354.61 283.54 354.414 283.923 354.022C284.306 353.63 284.497 353.103 284.497 352.44V351.81C284.282 352.099 283.988 352.347 283.615 352.552C283.242 352.757 282.812 352.86 282.327 352.86C281.795 352.86 281.296 352.715 280.829 352.426C280.372 352.137 280.003 351.735 279.723 351.222C279.452 350.709 279.317 350.135 279.317 349.5C279.317 348.865 279.452 348.291 279.723 347.778C280.003 347.265 280.372 346.863 280.829 346.574C281.296 346.285 281.795 346.14 282.327 346.14C282.812 346.14 283.242 346.243 283.615 346.448C283.988 346.653 284.282 346.901 284.497 347.19V346.28H285.897V352.44C285.897 353.112 285.748 353.714 285.449 354.246C285.15 354.778 284.735 355.193 284.203 355.492C283.671 355.791 283.069 355.94 282.397 355.94C281.781 355.94 281.221 355.819 280.717 355.576C280.222 355.333 279.826 355.035 279.527 354.68L280.507 353.77ZM282.607 351.53C282.952 351.53 283.27 351.446 283.559 351.278C283.848 351.101 284.077 350.858 284.245 350.55C284.413 350.242 284.497 349.892 284.497 349.5C284.497 349.108 284.413 348.758 284.245 348.45C284.077 348.142 283.848 347.904 283.559 347.736C283.27 347.559 282.952 347.47 282.607 347.47C282.262 347.47 281.944 347.559 281.655 347.736C281.366 347.904 281.137 348.142 280.969 348.45C280.801 348.758 280.717 349.108 280.717 349.5C280.717 349.892 280.801 350.242 280.969 350.55C281.137 350.858 281.366 351.101 281.655 351.278C281.944 351.446 282.262 351.53 282.607 351.53ZM287.298 346.28H288.558V344.04H289.958V346.28H291.708V347.61H289.958V350.76C289.958 351.096 290.037 351.334 290.196 351.474C290.355 351.605 290.602 351.67 290.938 351.67H291.708V353H290.658C289.258 353 288.558 352.3 288.558 350.9V347.61H287.298V346.28ZM294.851 347.26C295.066 346.952 295.355 346.691 295.719 346.476C296.083 346.252 296.494 346.14 296.951 346.14C297.465 346.14 297.922 346.261 298.323 346.504C298.725 346.737 299.037 347.078 299.261 347.526C299.495 347.965 299.611 348.483 299.611 349.08V353H298.211V349.08C298.211 348.595 298.067 348.207 297.777 347.918C297.497 347.619 297.129 347.47 296.671 347.47C296.139 347.47 295.701 347.647 295.355 348.002C295.019 348.347 294.851 348.8 294.851 349.36V353H293.451V343.2H294.851V347.26Z" fill="#25272E"/>
</g>
<path fill-rule="evenodd" clip-rule="evenodd" d="M359 390H16V389H359V390Z" fill="#F1F3F5" style="mix-blend-mode:multiply"/>
<path d="M23.12 407.8L27.44 419H24.88L23.92 416.44H19.6L18.64 419H16.08L20.4 407.8H23.12ZM21.792 410.6H21.728L20.4 414.28H23.12L21.792 410.6ZM34.0756 417.88C33.8303 418.232 33.4943 418.536 33.0676 418.792C32.641 419.037 32.1503 419.16 31.5956 419.16C30.977 419.16 30.3956 418.984 29.8516 418.632C29.3183 418.28 28.8863 417.795 28.5556 417.176C28.2356 416.557 28.0756 415.859 28.0756 415.08C28.0756 414.301 28.2356 413.603 28.5556 412.984C28.8863 412.365 29.3183 411.88 29.8516 411.528C30.3956 411.176 30.977 411 31.5956 411C32.1503 411 32.641 411.128 33.0676 411.384C33.4943 411.629 33.8303 411.928 34.0756 412.28H34.1556V407.8H36.3156V419H34.1556V417.88H34.0756ZM32.2356 417.16C32.801 417.16 33.2756 416.963 33.6596 416.568C34.0436 416.173 34.2356 415.677 34.2356 415.08C34.2356 414.483 34.0436 413.987 33.6596 413.592C33.2756 413.197 32.801 413 32.2356 413C31.6703 413 31.1956 413.197 30.8116 413.592C30.4276 413.987 30.2356 414.483 30.2356 415.08C30.2356 415.677 30.4276 416.173 30.8116 416.568C31.1956 416.963 31.6703 417.16 32.2356 417.16ZM43.9975 417.88C43.7522 418.232 43.4162 418.536 42.9895 418.792C42.5628 419.037 42.0722 419.16 41.5175 419.16C40.8988 419.16 40.3175 418.984 39.7735 418.632C39.2402 418.28 38.8082 417.795 38.4775 417.176C38.1575 416.557 37.9975 415.859 37.9975 415.08C37.9975 414.301 38.1575 413.603 38.4775 412.984C38.8082 412.365 39.2402 411.88 39.7735 411.528C40.3175 411.176 40.8988 411 41.5175 411C42.0722 411 42.5628 411.128 42.9895 411.384C43.4162 411.629 43.7522 411.928 43.9975 412.28H44.0775V407.8H46.2375V419H44.0775V417.88H43.9975ZM42.1575 417.16C42.7228 417.16 43.1975 416.963 43.5815 416.568C43.9655 416.173 44.1575 415.677 44.1575 415.08C44.1575 414.483 43.9655 413.987 43.5815 413.592C43.1975 413.197 42.7228 413 42.1575 413C41.5922 413 41.1175 413.197 40.7335 413.592C40.3495 413.987 40.1575 414.483 40.1575 415.08C40.1575 415.677 40.3495 416.173 40.7335 416.568C41.1175 416.963 41.5922 417.16 42.1575 417.16ZM55.4394 418.248C55.0767 418.504 54.602 418.723 54.0154 418.904C53.4287 419.075 52.7834 419.16 52.0794 419.16C51.322 419.16 50.6234 418.979 49.9834 418.616C49.3434 418.243 48.8367 417.747 48.4634 417.128C48.1007 416.499 47.9194 415.816 47.9194 415.08C47.9194 414.344 48.1007 413.667 48.4634 413.048C48.8367 412.419 49.3327 411.923 49.9514 411.56C50.5807 411.187 51.2634 411 51.9994 411C52.7034 411 53.354 411.176 53.9514 411.528C54.5594 411.88 55.0394 412.36 55.3914 412.968C55.7434 413.565 55.9194 414.216 55.9194 414.92C55.9194 415.272 55.8927 415.592 55.8394 415.88H50.1594C50.2874 416.275 50.522 416.6 50.8634 416.856C51.2154 417.112 51.674 417.24 52.2394 417.24C52.6874 417.24 53.0874 417.192 53.4394 417.096C53.802 416.989 54.0954 416.867 54.3194 416.728L55.4394 418.248ZM53.6794 414.28C53.5514 413.896 53.3274 413.576 53.0074 413.32C52.698 413.053 52.3354 412.92 51.9194 412.92C51.5034 412.92 51.1354 413.053 50.8154 413.32C50.506 413.576 50.2874 413.896 50.1594 414.28H53.6794ZM59.6844 412.04H59.7644C59.9137 411.795 60.1537 411.587 60.4844 411.416C60.815 411.245 61.231 411.16 61.7324 411.16H62.2444V413.24H61.5244C60.991 413.24 60.5484 413.432 60.1964 413.816C59.855 414.189 59.6844 414.691 59.6844 415.32V419H57.5244V411.16H59.6844V412.04ZM67.9225 418.04C67.6772 418.349 67.3518 418.616 66.9465 418.84C66.5518 419.053 66.1038 419.16 65.6025 419.16C64.8878 419.16 64.3065 418.952 63.8585 418.536C63.4212 418.109 63.2025 417.571 63.2025 416.92C63.2025 416.259 63.4105 415.693 63.8265 415.224C64.2532 414.755 64.8185 414.483 65.5225 414.408L68.0025 414.168C67.9598 413.848 67.8158 413.56 67.5705 413.304C67.3252 413.048 67.0158 412.92 66.6425 412.92C66.2798 412.92 65.9438 412.963 65.6345 413.048C65.3252 413.123 65.0745 413.213 64.8825 413.32L63.6025 412.04C63.9438 411.752 64.3918 411.507 64.9465 411.304C65.5012 411.101 66.1198 411 66.8025 411C67.4532 411 68.0345 411.139 68.5465 411.416C69.0585 411.683 69.4532 412.056 69.7305 412.536C70.0185 413.005 70.1625 413.533 70.1625 414.12V419H68.0025V418.04H67.9225ZM66.2425 415.752C65.9758 415.763 65.7625 415.853 65.6025 416.024C65.4425 416.195 65.3625 416.387 65.3625 416.6C65.3625 416.845 65.4425 417.043 65.6025 417.192C65.7732 417.331 66.0132 417.4 66.3225 417.4C66.8238 417.4 67.2292 417.267 67.5385 417C67.8478 416.733 68.0025 416.349 68.0025 415.848V415.688L66.2425 415.752ZM74.2488 407.8V419H72.0888V407.8H74.2488ZM78.655 407.8V419H76.495V407.8H78.655ZM89.8688 407.8C90.6581 407.8 91.3461 407.96 91.9328 408.28C92.5301 408.589 92.9888 409.027 93.3088 409.592C93.6288 410.157 93.7888 410.813 93.7888 411.56C93.7888 412.403 93.6021 413.101 93.2288 413.656C92.8554 414.211 92.4021 414.605 91.8688 414.84L94.1888 419H91.5487L89.5488 415.32H87.3088V419H84.9088V407.8H89.8688ZM89.7888 413.08C90.2261 413.08 90.5888 412.936 90.8768 412.648C91.1648 412.36 91.3088 411.997 91.3088 411.56C91.3088 411.123 91.1648 410.76 90.8768 410.472C90.5888 410.184 90.2261 410.04 89.7888 410.04H87.3088V413.08H89.7888ZM95.07 407.8H97.87L100.158 411.48H100.222L102.51 407.8H105.31L101.79 413.16L105.63 419H102.83L100.222 414.84H100.158L97.55 419H94.75L98.59 413.16L95.07 407.8Z" fill="#25272E"/>
<path d="M289.71 442C289.71 441.3 289.85 440.689 290.13 440.166C290.41 439.643 290.751 439.214 291.152 438.878C291.554 438.533 292.076 438.141 292.72 437.702C293.224 437.366 293.626 437.077 293.924 436.834C294.223 436.591 294.47 436.311 294.666 435.994C294.862 435.677 294.96 435.322 294.96 434.93C294.96 434.361 294.774 433.903 294.4 433.558C294.027 433.213 293.514 433.04 292.86 433.04C292.291 433.04 291.829 433.203 291.474 433.53C291.12 433.857 290.882 434.253 290.76 434.72L289.85 434.3C290.018 433.675 290.354 433.147 290.858 432.718C291.372 432.279 292.039 432.06 292.86 432.06C293.476 432.06 294.022 432.186 294.498 432.438C294.974 432.69 295.343 433.035 295.604 433.474C295.875 433.913 296.01 434.398 296.01 434.93C296.01 435.443 295.894 435.901 295.66 436.302C295.427 436.703 295.138 437.053 294.792 437.352C294.447 437.641 293.99 437.982 293.42 438.374C292.935 438.71 292.548 438.995 292.258 439.228C291.969 439.452 291.698 439.718 291.446 440.026C291.204 440.325 291.022 440.656 290.9 441.02H296.01V442H289.71ZM301.182 440.25C301.369 440.521 301.616 440.754 301.924 440.95C302.232 441.137 302.568 441.23 302.932 441.23C303.408 441.23 303.772 441.127 304.024 440.922C304.276 440.707 304.402 440.437 304.402 440.11C304.402 439.802 304.272 439.569 304.01 439.41C303.758 439.251 303.376 439.097 302.862 438.948C302.405 438.808 302.036 438.677 301.756 438.556C301.486 438.425 301.252 438.239 301.056 437.996C300.86 437.744 300.762 437.422 300.762 437.03C300.762 436.703 300.856 436.395 301.042 436.106C301.238 435.817 301.504 435.583 301.84 435.406C302.186 435.229 302.573 435.14 303.002 435.14C303.46 435.14 303.875 435.229 304.248 435.406C304.631 435.583 304.939 435.798 305.172 436.05L304.472 436.75C304.323 436.554 304.118 436.391 303.856 436.26C303.604 436.12 303.32 436.05 303.002 436.05C302.629 436.05 302.326 436.148 302.092 436.344C301.859 436.54 301.742 436.769 301.742 437.03C301.742 437.319 301.864 437.539 302.106 437.688C302.349 437.828 302.727 437.973 303.24 438.122C303.698 438.262 304.066 438.397 304.346 438.528C304.636 438.659 304.878 438.855 305.074 439.116C305.28 439.368 305.382 439.699 305.382 440.11C305.382 440.483 305.284 440.824 305.088 441.132C304.892 441.44 304.608 441.687 304.234 441.874C303.861 442.051 303.427 442.14 302.932 442.14C302.382 442.14 301.896 442.028 301.476 441.804C301.056 441.571 300.725 441.286 300.482 440.95L301.182 440.25ZM306.428 435.28H307.688V433.04H308.668V435.28H310.488V436.19H308.668V440.18C308.668 440.516 308.742 440.754 308.892 440.894C309.05 441.025 309.279 441.09 309.578 441.09H310.488V442H309.536C308.948 442 308.49 441.851 308.164 441.552C307.846 441.253 307.688 440.796 307.688 440.18V436.19H306.428V435.28ZM313.153 436.19C313.33 435.901 313.596 435.653 313.951 435.448C314.315 435.243 314.749 435.14 315.253 435.14H315.673V436.12H315.253C314.879 436.12 314.529 436.209 314.203 436.386C313.885 436.563 313.629 436.82 313.433 437.156C313.246 437.483 313.153 437.861 313.153 438.29V442H312.173V435.28H313.153V436.19ZM322.532 440.992C322.234 441.309 321.842 441.58 321.356 441.804C320.871 442.028 320.33 442.14 319.732 442.14C319.135 442.14 318.575 441.986 318.052 441.678C317.539 441.361 317.128 440.936 316.82 440.404C316.522 439.872 316.372 439.284 316.372 438.64C316.372 438.005 316.522 437.422 316.82 436.89C317.128 436.349 317.534 435.924 318.038 435.616C318.542 435.299 319.084 435.14 319.662 435.14C320.26 435.14 320.806 435.285 321.3 435.574C321.795 435.863 322.182 436.265 322.462 436.778C322.742 437.282 322.882 437.856 322.882 438.5C322.882 438.677 322.859 438.845 322.812 439.004L317.352 438.99C317.371 439.382 317.492 439.751 317.716 440.096C317.94 440.441 318.23 440.717 318.584 440.922C318.939 441.127 319.322 441.23 319.732 441.23C320.199 441.23 320.619 441.146 320.992 440.978C321.366 440.81 321.669 440.605 321.902 440.362L322.532 440.992ZM321.902 438.15C321.828 437.543 321.58 437.044 321.16 436.652C320.75 436.251 320.25 436.05 319.662 436.05C319.28 436.05 318.92 436.148 318.584 436.344C318.248 436.531 317.968 436.787 317.744 437.114C317.53 437.431 317.399 437.777 317.352 438.15H321.902ZM325.608 436.26C325.822 435.952 326.116 435.691 326.49 435.476C326.863 435.252 327.292 435.14 327.778 435.14C328.31 435.14 328.781 435.257 329.192 435.49C329.612 435.723 329.934 436.059 330.158 436.498C330.391 436.927 330.508 437.431 330.508 438.01V442H329.528V438.01C329.528 437.422 329.355 436.951 329.01 436.596C328.674 436.232 328.24 436.05 327.708 436.05C327.316 436.05 326.956 436.148 326.63 436.344C326.312 436.531 326.06 436.792 325.874 437.128C325.696 437.464 325.608 437.851 325.608 438.29V442H324.628V435.28H325.608V436.26ZM333.169 443.134C333.402 443.386 333.706 443.596 334.079 443.764C334.462 443.941 334.882 444.03 335.339 444.03C335.759 444.03 336.142 443.923 336.487 443.708C336.842 443.493 337.122 443.199 337.327 442.826C337.542 442.453 337.649 442.037 337.649 441.58V440.81C337.453 441.099 337.159 441.347 336.767 441.552C336.384 441.757 335.932 441.86 335.409 441.86C334.83 441.86 334.298 441.711 333.813 441.412C333.337 441.113 332.959 440.707 332.679 440.194C332.399 439.681 332.259 439.116 332.259 438.5C332.259 437.884 332.399 437.319 332.679 436.806C332.959 436.293 333.337 435.887 333.813 435.588C334.298 435.289 334.83 435.14 335.409 435.14C335.932 435.14 336.384 435.243 336.767 435.448C337.159 435.653 337.453 435.901 337.649 436.19V435.28H338.629V441.58C338.629 442.196 338.48 442.761 338.181 443.274C337.892 443.787 337.495 444.193 336.991 444.492C336.487 444.791 335.936 444.94 335.339 444.94C334.723 444.94 334.172 444.823 333.687 444.59C333.202 444.366 332.819 444.091 332.539 443.764L333.169 443.134ZM335.409 440.95C335.82 440.95 336.198 440.843 336.543 440.628C336.888 440.413 337.159 440.119 337.355 439.746C337.551 439.373 337.649 438.957 337.649 438.5C337.649 438.043 337.551 437.627 337.355 437.254C337.159 436.881 336.888 436.587 336.543 436.372C336.198 436.157 335.82 436.05 335.409 436.05C335.017 436.05 334.653 436.157 334.317 436.372C333.99 436.587 333.729 436.881 333.533 437.254C333.337 437.627 333.239 438.043 333.239 438.5C333.239 438.957 333.337 439.373 333.533 439.746C333.729 440.119 333.99 440.413 334.317 440.628C334.653 440.843 335.017 440.95 335.409 440.95ZM340.17 435.28H341.43V433.04H342.41V435.28H344.23V436.19H342.41V440.18C342.41 440.516 342.485 440.754 342.634 440.894C342.793 441.025 343.021 441.09 343.32 441.09H344.23V442H343.278C342.69 442 342.233 441.851 341.906 441.552C341.589 441.253 341.43 440.796 341.43 440.18V436.19H340.17V435.28ZM346.965 436.26C347.18 435.952 347.474 435.691 347.847 435.476C348.22 435.252 348.65 435.14 349.135 435.14C349.667 435.14 350.138 435.257 350.549 435.49C350.969 435.723 351.291 436.059 351.515 436.498C351.748 436.927 351.865 437.431 351.865 438.01V442H350.885V438.01C350.885 437.422 350.712 436.951 350.367 436.596C350.031 436.232 349.597 436.05 349.065 436.05C348.673 436.05 348.314 436.148 347.987 436.344C347.67 436.531 347.418 436.792 347.231 437.128C347.054 437.464 346.965 437.851 346.965 438.29V442H345.985V432.2H346.965V436.26ZM354.174 440.25C354.361 440.521 354.608 440.754 354.916 440.95C355.224 441.137 355.56 441.23 355.924 441.23C356.4 441.23 356.764 441.127 357.016 440.922C357.268 440.707 357.394 440.437 357.394 440.11C357.394 439.802 357.264 439.569 357.002 439.41C356.75 439.251 356.368 439.097 355.854 438.948C355.397 438.808 355.028 438.677 354.748 438.556C354.478 438.425 354.244 438.239 354.048 437.996C353.852 437.744 353.754 437.422 353.754 437.03C353.754 436.703 353.848 436.395 354.034 436.106C354.23 435.817 354.496 435.583 354.832 435.406C355.178 435.229 355.565 435.14 355.994 435.14C356.452 435.14 356.867 435.229 357.24 435.406C357.623 435.583 357.931 435.798 358.164 436.05L357.464 436.75C357.315 436.554 357.11 436.391 356.848 436.26C356.596 436.12 356.312 436.05 355.994 436.05C355.621 436.05 355.318 436.148 355.084 436.344C354.851 436.54 354.734 436.769 354.734 437.03C354.734 437.319 354.856 437.539 355.098 437.688C355.341 437.828 355.719 437.973 356.232 438.122C356.69 438.262 357.058 438.397 357.338 438.528C357.628 438.659 357.87 438.855 358.066 439.116C358.272 439.368 358.374 439.699 358.374 440.11C358.374 440.483 358.276 440.824 358.08 441.132C357.884 441.44 357.6 441.687 357.226 441.874C356.853 442.051 356.419 442.14 355.924 442.14C355.374 442.14 354.888 442.028 354.468 441.804C354.048 441.571 353.717 441.286 353.474 440.95L354.174 440.25Z" fill="#70747D"/>
<path d="M16.84 437.1C16.84 436.185 17.064 435.341 17.512 434.566C17.96 433.791 18.5713 433.18 19.346 432.732C20.1207 432.284 20.9653 432.06 21.88 432.06C22.7947 432.06 23.6393 432.284 24.414 432.732C25.1887 433.18 25.8 433.791 26.248 434.566C26.696 435.341 26.92 436.185 26.92 437.1C26.92 438.015 26.696 438.859 26.248 439.634C25.8 440.409 25.1887 441.02 24.414 441.468C23.6393 441.916 22.7947 442.14 21.88 442.14C20.9653 442.14 20.1207 441.916 19.346 441.468C18.5713 441.02 17.96 440.409 17.512 439.634C17.064 438.859 16.84 438.015 16.84 437.1ZM21.88 441.16C22.6173 441.16 23.2893 440.983 23.896 440.628C24.5027 440.273 24.9833 439.788 25.338 439.172C25.6927 438.547 25.87 437.856 25.87 437.1C25.87 436.344 25.6927 435.658 25.338 435.042C24.9833 434.417 24.5027 433.927 23.896 433.572C23.2893 433.217 22.6173 433.04 21.88 433.04C21.1427 433.04 20.4707 433.217 19.864 433.572C19.2573 433.927 18.7767 434.417 18.422 435.042C18.0673 435.658 17.89 436.344 17.89 437.1C17.89 437.856 18.0673 438.547 18.422 439.172C18.7767 439.788 19.2573 440.273 19.864 440.628C20.4707 440.983 21.1427 441.16 21.88 441.16ZM29.8578 436.19C30.0351 435.901 30.3011 435.653 30.6558 435.448C31.0198 435.243 31.4538 435.14 31.9578 435.14H32.3778V436.12H31.9578C31.5845 436.12 31.2345 436.209 30.9078 436.386C30.5905 436.563 30.3338 436.82 30.1378 437.156C29.9511 437.483 29.8578 437.861 29.8578 438.29V442H28.8778V435.28H29.8578V436.19ZM37.764 441.09C37.5493 441.379 37.2553 441.627 36.882 441.832C36.5087 442.037 36.0793 442.14 35.594 442.14C35.146 442.14 34.74 442.047 34.376 441.86C34.012 441.673 33.7273 441.431 33.522 441.132C33.3167 440.824 33.214 440.507 33.214 440.18C33.214 439.611 33.382 439.144 33.718 438.78C34.0633 438.416 34.5487 438.206 35.174 438.15L37.764 437.926C37.764 437.599 37.6893 437.291 37.54 437.002C37.4 436.713 37.1993 436.484 36.938 436.316C36.686 436.139 36.4013 436.05 36.084 436.05C35.692 436.05 35.3327 436.097 35.006 436.19C34.6793 436.283 34.4087 436.4 34.194 436.54L33.564 435.91C33.844 435.695 34.2033 435.513 34.642 435.364C35.0807 435.215 35.5613 435.14 36.084 435.14C36.588 435.14 37.0407 435.257 37.442 435.49C37.8527 435.714 38.17 436.022 38.394 436.414C38.6273 436.806 38.744 437.245 38.744 437.73V442H37.764V441.09ZM35.454 438.99C35.0433 439.027 34.7307 439.153 34.516 439.368C34.3013 439.583 34.194 439.853 34.194 440.18C34.194 440.479 34.3153 440.731 34.558 440.936C34.81 441.132 35.1553 441.23 35.594 441.23C36.2473 441.23 36.77 441.053 37.162 440.698C37.5633 440.334 37.764 439.83 37.764 439.186V438.766L35.454 438.99ZM41.6173 432.2V442H40.6373V432.2H41.6173ZM51.1351 432.2C51.7324 432.2 52.2691 432.335 52.7451 432.606C53.2304 432.877 53.6084 433.245 53.8791 433.712C54.1497 434.179 54.2851 434.701 54.2851 435.28C54.2851 435.859 54.1497 436.381 53.8791 436.848C53.6084 437.315 53.2304 437.683 52.7451 437.954C52.2691 438.225 51.7324 438.36 51.1351 438.36H48.4751V442H47.4251V432.2H51.1351ZM51.1351 437.38C51.7697 437.38 52.2784 437.189 52.6611 436.806C53.0437 436.414 53.2351 435.905 53.2351 435.28C53.2351 434.645 53.0437 434.137 52.6611 433.754C52.2784 433.371 51.7697 433.18 51.1351 433.18H48.4751V437.38H51.1351ZM55.7671 433.04C55.7671 432.863 55.8278 432.713 55.9491 432.592C56.0704 432.471 56.2198 432.41 56.3971 432.41C56.5744 432.41 56.7238 432.471 56.8451 432.592C56.9664 432.713 57.0271 432.863 57.0271 433.04C57.0271 433.217 56.9664 433.367 56.8451 433.488C56.7238 433.609 56.5744 433.67 56.3971 433.67C56.2198 433.67 56.0704 433.609 55.9491 433.488C55.8278 433.367 55.7671 433.217 55.7671 433.04ZM56.8871 435.28V442H55.9071V435.28H56.8871ZM60.1837 432.2V442H59.2037V432.2H60.1837ZM63.547 432.2V442H62.567V432.2H63.547Z" fill="#25272E"/>
<g filter="url(#filter1_b)">
<rect width="375" height="88" fill="white" fill-opacity="0.95"/>
<path opacity="0.35" d="M338.663 17.7988H355.329C356.525 17.7988 357.496 18.7689 357.496 19.9655V25.9439C357.496 27.1405 356.525 28.1106 355.329 28.1106H338.663C337.466 28.1106 336.496 27.1405 336.496 25.9439V19.9655C336.496 18.7689 337.466 17.7988 338.663 17.7988Z" stroke="black"/>
<path opacity="0.4" d="M358.996 20.959V24.9514C359.801 24.6132 360.324 23.8267 360.324 22.9552C360.324 22.0837 359.801 21.2971 358.996 20.959" fill="black"/>
<path d="M337.996 20.6283C337.996 19.8919 338.593 19.2949 339.329 19.2949H354.662C355.399 19.2949 355.996 19.8919 355.996 20.6283V25.281C355.996 26.0173 355.399 26.6143 354.662 26.6143H339.329C338.593 26.6143 337.996 26.0173 337.996 25.281V20.6283Z" fill="black"/>
<path fill-rule="evenodd" clip-rule="evenodd" d="M323.328 19.5699C325.544 19.57 327.675 20.4198 329.281 21.9437C329.402 22.0613 329.595 22.0598 329.714 21.9404L330.87 20.7759C330.93 20.7153 330.964 20.6332 330.963 20.5478C330.963 20.4624 330.928 20.3807 330.867 20.3208C326.652 16.2889 320.003 16.2889 315.788 20.3208C315.727 20.3806 315.692 20.4623 315.691 20.5477C315.691 20.6331 315.724 20.7153 315.785 20.7759L316.941 21.9404C317.06 22.06 317.253 22.0615 317.374 21.9437C318.98 20.4197 321.112 19.5699 323.328 19.5699ZM323.328 23.3583C324.545 23.3582 325.719 23.8099 326.622 24.6256C326.744 24.7413 326.936 24.7388 327.055 24.6199L328.21 23.4555C328.27 23.3944 328.304 23.3115 328.303 23.2254C328.302 23.1393 328.267 23.0572 328.205 22.9973C325.457 20.4458 321.201 20.4458 318.453 22.9973C318.391 23.0572 318.355 23.1394 318.355 23.2255C318.354 23.3116 318.388 23.3945 318.449 23.4555L319.603 24.6199C319.722 24.7388 319.914 24.7413 320.036 24.6256C320.938 23.8104 322.111 23.3588 323.328 23.3583ZM325.641 25.9073C325.643 25.9936 325.609 26.0769 325.547 26.1374L323.549 28.1492C323.491 28.2083 323.411 28.2416 323.328 28.2416C323.245 28.2416 323.165 28.2083 323.106 28.1492L321.109 26.1374C321.047 26.0768 321.013 25.9935 321.015 25.9072C321.017 25.8209 321.054 25.7391 321.118 25.6812C322.394 24.6044 324.262 24.6044 325.537 25.6812C325.602 25.7391 325.639 25.8209 325.641 25.9073Z" fill="black"/>
<path fill-rule="evenodd" clip-rule="evenodd" d="M309.664 17.6328H308.664C308.111 17.6328 307.664 18.0797 307.664 18.6309V27.2811C307.664 27.8323 308.111 28.2792 308.664 28.2792H309.664C310.216 28.2792 310.664 27.8323 310.664 27.2811V18.6309C310.664 18.0797 310.216 17.6328 309.664 17.6328ZM303.997 19.9617H304.997C305.549 19.9617 305.997 20.4086 305.997 20.9598V27.2811C305.997 27.8323 305.549 28.2792 304.997 28.2792H303.997C303.445 28.2792 302.997 27.8323 302.997 27.2811V20.9598C302.997 20.4086 303.445 19.9617 303.997 19.9617ZM300.331 22.2906H299.331C298.778 22.2906 298.331 22.7375 298.331 23.2887V27.2811C298.331 27.8323 298.778 28.2792 299.331 28.2792H300.331C300.883 28.2792 301.331 27.8323 301.331 27.2811V23.2887C301.331 22.7375 300.883 22.2906 300.331 22.2906ZM295.664 24.2868H294.664C294.112 24.2868 293.664 24.7337 293.664 25.2849V27.2811C293.664 27.8323 294.112 28.2792 294.664 28.2792H295.664C296.216 28.2792 296.664 27.8323 296.664 27.2811V25.2849C296.664 24.7337 296.216 24.2868 295.664 24.2868Z" fill="black"/>
<path d="M33.1637 20.4946V20.5239H34.9362V20.4946C34.9362 19.418 35.6833 18.6929 36.7892 18.6929C37.8293 18.6929 38.591 19.3667 38.591 20.2969C38.591 21.0439 38.2321 21.5933 36.7892 23.0581L33.2663 26.6616V27.9727H40.6052V26.3687H35.8591V26.2441L38.071 24.0249C39.8654 22.2524 40.444 21.3149 40.444 20.1797C40.444 18.4146 38.9352 17.1401 36.8478 17.1401C34.6799 17.1401 33.1637 18.5171 33.1637 20.4946ZM43.7768 26.8521C44.4726 26.8521 44.9487 26.354 44.9487 25.6948C44.9487 25.0283 44.4726 24.5376 43.7768 24.5376C43.0884 24.5376 42.605 25.0283 42.605 25.6948C42.605 26.354 43.0884 26.8521 43.7768 26.8521ZM43.7768 21.3589C44.4726 21.3589 44.9487 20.8682 44.9487 20.209C44.9487 19.5425 44.4726 19.0518 43.7768 19.0518C43.0884 19.0518 42.605 19.5425 42.605 20.209C42.605 20.8682 43.0884 21.3589 43.7768 21.3589ZM50.8596 28.2363C53.3865 28.2363 54.888 26.1855 54.888 22.6919C54.888 19.1836 53.3645 17.1401 50.8596 17.1401C48.3474 17.1401 46.824 19.1836 46.824 22.6772C46.824 26.1855 48.3255 28.2363 50.8596 28.2363ZM50.8596 26.6689C49.5193 26.6689 48.7356 25.2773 48.7356 22.6772C48.7356 20.0991 49.534 18.7148 50.8596 18.7148C52.1853 18.7148 52.9763 20.0918 52.9763 22.6772C52.9763 25.2773 52.2 26.6689 50.8596 26.6689ZM56.8218 27.9727H58.7994L63.3184 19.0151V17.4038H55.9649V18.9932H61.4141V19.1104L56.8218 27.9727Z" fill="black"/>
<path d="M351 75.5C356.247 75.5 360.5 71.2467 360.5 66C360.5 60.7533 356.247 56.5 351 56.5C345.753 56.5 341.5 60.7533 341.5 66C341.5 71.2467 345.753 75.5 351 75.5ZM351 77C344.925 77 340 72.0751 340 66C340 59.9249 344.925 55 351 55C357.075 55 362 59.9249 362 66C362 72.0751 357.075 77 351 77Z" fill="#25272E"/>
<path d="M349.81 67.5728C349.81 65.5428 352.19 65.5428 352.19 64.0528C352.179 63.9001 352.137 63.7513 352.067 63.6151C351.997 63.479 351.9 63.3583 351.783 63.2603C351.665 63.1623 351.529 63.089 351.383 63.0448C351.236 63.0005 351.082 62.9862 350.93 63.0028C350.564 62.9907 350.204 63.0957 349.902 63.3025C349.599 63.5093 349.371 63.8072 349.25 64.1528L347.5 63.3828C347.752 62.6638 348.228 62.0445 348.858 61.6161C349.488 61.1877 350.239 60.9727 351 61.0028C353.07 61.0028 354.36 62.3228 354.36 63.7928C354.36 66.3828 351.84 66.3828 351.84 68.2028H349.95C349.871 68.0014 349.823 67.7888 349.81 67.5728ZM349.67 70.0928C349.67 69.9471 349.699 69.8028 349.756 69.6686C349.812 69.5344 349.895 69.4128 350 69.3112C350.104 69.2096 350.228 69.1299 350.364 69.077C350.499 69.024 350.644 68.9988 350.79 69.0028C351.013 69.0028 351.23 69.0694 351.415 69.1938C351.6 69.3182 351.743 69.495 351.827 69.7014C351.911 69.9078 351.931 70.1345 351.886 70.3525C351.84 70.5706 351.73 70.77 351.571 70.9254C351.411 71.0808 351.209 71.185 350.99 71.2248C350.77 71.2645 350.544 71.238 350.34 71.1487C350.136 71.0593 349.963 70.911 349.844 70.723C349.725 70.5349 349.664 70.3155 349.67 70.0928Z" fill="#25272E"/>
<path fill-rule="evenodd" clip-rule="evenodd" d="M27.0023 57.3592L18.8447 65.1911C18.3851 65.6317 18.3851 66.3672 18.8447 66.8096L27.0023 74.6397C27.5026 75.1201 28.2924 75.1201 28.7927 74.6397C29.3219 74.1313 29.3219 73.2845 28.7927 72.7751L21.9605 66.2161C21.8365 66.0976 21.8365 65.9013 21.9605 65.7828L28.7927 59.2237C29.3219 58.7153 29.3219 57.8685 28.7927 57.3592C28.5421 57.1203 28.22 57 27.898 57C27.575 57 27.2529 57.1203 27.0023 57.3592Z" fill="#25272E"/>
<circle cx="141.5" cy="63.5" r="2.5" fill="#03948C"/>
<circle cx="154.5" cy="63.5" r="2.5" fill="#03948C"/>
<circle cx="167.5" cy="63.5" r="2.5" fill="#03948C"/>
<circle cx="180.5" cy="63.5" r="2.5" fill="#03948C"/>
<circle cx="193.5" cy="63.5" r="2.5" fill="#03948C"/>
<circle cx="206.5" cy="63.5" r="2.5" fill="#03948C"/>
<circle cx="219.5" cy="63.5" r="4" fill="#03948C"/>
<circle cx="232.5" cy="63.5" r="2.5" fill="#CEE1E5"/>
</g>
<path fill-rule="evenodd" clip-rule="evenodd" d="M121 800.5C121 799.119 122.119 798 123.5 798H252.5C253.881 798 255 799.119 255 800.5V800.5C255 801.881 253.881 803 252.5 803H123.5C122.119 803 121 801.881 121 800.5V800.5Z" fill="black"/>
</g>
<defs>
<filter id="filter0_d" x="-36" y="77" width="447" height="771" filterUnits="userSpaceOnUse" color-interpolation-filters="sRGB">
<feFlood flood-opacity="0" result="BackgroundImageFix"/>
<feColorMatrix in="SourceAlpha" type="matrix" values="0 0 0 0 0 0 0 0 0 0 0 0 0 0 0 0 0 0 127 0"/>
<feMorphology radius="4" operator="dilate" in="SourceAlpha" result="effect1_dropShadow"/>
<feOffset/>
<feGaussianBlur stdDeviation="16"/>
<feColorMatrix type="matrix" values="0 0 0 0 0.4056 0 0 0 0 0.500104 0 0 0 0 0.52 0 0 0 0.12 0"/>
<feBlend mode="multiply" in2="BackgroundImageFix" result="effect1_dropShadow"/>
<feBlend mode="normal" in="SourceGraphic" in2="effect1_dropShadow" result="shape"/>
</filter>
<filter id="filter1_b" x="-16" y="-16" width="407" height="120" filterUnits="userSpaceOnUse" color-interpolation-filters="sRGB">
<feFlood flood-opacity="0" result="BackgroundImageFix"/>
<feGaussianBlur in="BackgroundImage" stdDeviation="8"/>
<feComposite in2="SourceAlpha" operator="in" result="effect1_backgroundBlur"/>
<feBlend mode="normal" in="SourceGraphic" in2="effect1_backgroundBlur" result="shape"/>
</filter>
<linearGradient id="paint0_linear" x1="111.5" y1="117.45" x2="254.217" y2="702.732" gradientUnits="userSpaceOnUse">
<stop stop-color="#E4F0F0" stop-opacity="0"/>
<stop offset="1" stop-color="#E4F0F0"/>
</linearGradient>
<clipPath id="clip0">
<rect width="375" height="812" fill="white"/>
</clipPath>
</defs>
</svg>
