<svg xmlns="http://www.w3.org/2000/svg" width="375" height="812" fill="none" viewBox="0 0 375 812">
  <g class="12-he" clip-path="url(#clip0)">
    <path fill="#fff" d="M0 0h375v812H0z"/>
    <path fill="url(#paint0_linear)" d="M0 98h375v714H0z" class="Rectangle 480"/>
    <g class="Frame 1279">
      <g class="Frame 1278">
        <g class="Rectangle 481" filter="url(#filter0_d)">
          <path fill="#fff" d="M0 175.79c0-22.21 0-33.315 4.39-41.768a39 39 0 0116.632-16.631C29.475 113 40.58 113 62.79 113h249.42c22.21 0 33.315 0 41.768 4.391a38.999 38.999 0 0116.631 16.631C375 142.475 375 153.58 375 175.79V812H0V175.79z"/>
        </g>
        <path fill="#E6E8EB" fill-rule="evenodd" d="M163 127.5a2.5 2.5 0 012.5-2.5h43a2.5 2.5 0 110 5h-43a2.5 2.5 0 01-2.5-2.5z" class="Rectangle" clip-rule="evenodd"/>
        <g class="Frame 1206">
          <g class="Text Fields/Standard/Empty">
            <g class="Field Input (standard)">
              <path fill="#fff" d="M16 191c0-7.542 0-11.314 2.343-13.657S24.457 175 32 175h311c7.542 0 11.314 0 13.657 2.343S359 183.458 359 191v8c0 7.542 0 11.314-2.343 13.657S350.542 215 343 215H32c-7.543 0-11.314 0-13.657-2.343S16 206.542 16 199v-8z" class="Input container"/>
              <path fill="#F1F3F5" fill-rule="evenodd" d="M343 176H32c-3.8 0-6.549.002-8.645.284-2.067.278-3.35.811-4.305 1.766-.955.955-1.488 2.237-1.766 4.305C17.002 184.451 17 187.2 17 191v8c0 3.8.002 6.549.284 8.645.278 2.068.811 3.35 1.766 4.305.955.955 2.238 1.488 4.305 1.766 2.096.282 4.846.284 8.645.284h311c3.799 0 6.549-.002 8.645-.284 2.068-.278 3.35-.811 4.305-1.766.955-.955 1.488-2.237 1.766-4.305.282-2.096.284-4.845.284-8.645v-8c0-3.8-.002-6.549-.284-8.645-.278-2.068-.811-3.35-1.766-4.305-.955-.955-2.237-1.488-4.305-1.766-2.096-.282-4.846-.284-8.645-.284zm-324.657 1.343C16 179.686 16 183.458 16 191v8c0 7.542 0 11.314 2.343 13.657S24.457 215 32 215h311c7.542 0 11.314 0 13.657-2.343S359 206.542 359 199v-8c0-7.542 0-11.314-2.343-13.657S350.542 175 343 175H32c-7.543 0-11.314 0-13.657 2.343z" clip-rule="evenodd" style="mix-blend-mode:multiply"/>
              <path fill="#25272E" d="M34.08 188.8l4.64 11.2h-1.28l-1.28-3.12h-5.28L29.6 200h-1.28l4.64-11.2h1.12zm-.56 1.68l-2.16 5.28h4.32l-2.16-5.28zm12.647 8.4c-.267.352-.63.656-1.088.912a3.242 3.242 0 01-1.552.368 3.64 3.64 0 01-1.888-.512 3.88 3.88 0 01-1.376-1.44c-.33-.608-.496-1.291-.496-2.048 0-.757.165-1.44.496-2.048.341-.608.8-1.083 1.376-1.424a3.553 3.553 0 011.888-.528 3.13 3.13 0 011.552.384c.459.245.821.544 1.088.896v-4.64h1.12V200h-1.12v-1.12zm-2.64.24a2.36 2.36 0 001.28-.384c.416-.267.746-.624.992-1.072a3.14 3.14 0 00.368-1.504c0-.544-.123-1.04-.368-1.488a2.751 2.751 0 00-.992-1.072 2.29 2.29 0 00-1.28-.4c-.48 0-.923.128-1.328.384a2.586 2.586 0 00-.96 1.04c-.235.448-.352.96-.352 1.536 0 .576.117 1.088.352 1.536.235.448.555.8.96 1.056a2.52 2.52 0 001.328.368zm12.234-.24c-.267.352-.63.656-1.088.912a3.242 3.242 0 01-1.552.368 3.64 3.64 0 01-1.888-.512 3.881 3.881 0 01-1.376-1.44c-.331-.608-.496-1.291-.496-2.048 0-.757.165-1.44.496-2.048.341-.608.8-1.083 1.376-1.424a3.553 3.553 0 011.888-.528 3.13 3.13 0 011.552.384c.458.245.821.544 1.088.896v-4.64h1.12V200h-1.12v-1.12zm-2.64.24a2.36 2.36 0 001.28-.384c.416-.267.746-.624.992-1.072.245-.459.368-.96.368-1.504s-.123-1.04-.368-1.488a2.75 2.75 0 00-.992-1.072 2.29 2.29 0 00-1.28-.4c-.48 0-.923.128-1.328.384a2.587 2.587 0 00-.96 1.04c-.235.448-.352.96-.352 1.536 0 .576.117 1.088.352 1.536.234.448.554.8.96 1.056a2.52 2.52 0 001.328.368zm12.873-.272c-.341.363-.789.672-1.344.928a4.377 4.377 0 01-1.856.384 3.719 3.719 0 01-1.92-.528 4.097 4.097 0 01-1.408-1.456 4.047 4.047 0 01-.512-2.016c0-.725.171-1.392.512-2a3.969 3.969 0 011.392-1.456 3.418 3.418 0 011.856-.544c.683 0 1.307.165 1.872.496a3.507 3.507 0 011.328 1.376c.32.576.48 1.232.48 1.968 0 .203-.026.395-.08.576l-6.24-.016c.022.448.16.869.416 1.264s.587.709.992.944a2.57 2.57 0 001.312.352c.534 0 1.014-.096 1.44-.288a3.307 3.307 0 001.04-.704l.72.72zm-.72-3.248c-.085-.693-.368-1.264-.848-1.712a2.357 2.357 0 00-1.712-.688c-.437 0-.848.112-1.232.336a2.803 2.803 0 00-.96.88 2.678 2.678 0 00-.448 1.184h5.2zm4.235-2.24c.203-.331.507-.613.912-.848.416-.235.912-.352 1.488-.352h.48v1.12h-.48c-.426 0-.826.101-1.2.304a2.325 2.325 0 00-.88.88c-.213.373-.32.805-.32 1.296V200h-1.12v-7.68h1.12v1.04z" class="Text (NO ICON)"/>
            </g>
            <g class="Field Label">
              <path fill="#25272E" d="M21.32 153.2a3.4 3.4 0 011.68.42c.504.28.896.663 1.176 1.148.29.476.434 1.003.434 1.582 0 .579-.145 1.111-.434 1.596-.28.476-.672.854-1.176 1.134a3.4 3.4 0 01-1.68.42h-2.38v3.5H17.4v-9.8h3.92zm0 4.9a1.723 1.723 0 001.75-1.75c0-.495-.168-.91-.504-1.246a1.693 1.693 0 00-1.246-.504h-2.38v3.5h2.38zm6.029-.91c.186-.252.434-.467.742-.644a2.175 2.175 0 011.078-.266h.56v1.26h-.56c-.327 0-.63.089-.91.266-.28.168-.504.411-.672.728a2.227 2.227 0 00-.238 1.036V163h-1.4v-6.72h1.4v.91zm9.458 4.858c-.28.308-.667.569-1.162.784-.495.205-1.064.308-1.708.308a3.533 3.533 0 01-1.778-.462 3.4 3.4 0 01-1.26-1.26 3.532 3.532 0 01-.462-1.778c0-.644.154-1.232.462-1.764a3.433 3.433 0 011.246-1.26 3.258 3.258 0 011.722-.476c.625 0 1.185.145 1.68.434.504.28.896.672 1.176 1.176.29.495.434 1.055.434 1.68 0 .261-.023.495-.07.7h-5.18c.075.467.308.863.7 1.19.392.327.859.49 1.4.49.392 0 .756-.07 1.092-.21.345-.149.635-.327.868-.532l.84.98zm-1.12-3.108c-.112-.467-.327-.84-.644-1.12-.308-.28-.7-.42-1.176-.42-.504 0-.92.14-1.246.42-.327.271-.565.644-.714 1.12h3.78zm3.284 2.03c.205.252.462.467.77.644s.635.266.98.266c.364 0 .653-.084.868-.252.215-.168.322-.364.322-.588 0-.205-.103-.359-.308-.462-.196-.112-.523-.238-.98-.378a9.127 9.127 0 01-1.176-.42 2.25 2.25 0 01-.784-.616c-.215-.271-.322-.625-.322-1.064 0-.355.098-.681.294-.98.196-.299.48-.537.854-.714.373-.177.807-.266 1.302-.266.523 0 .99.089 1.4.266.42.177.747.392.98.644l-.91.91a1.979 1.979 0 00-.644-.392 2.01 2.01 0 00-.826-.168c-.327 0-.583.07-.77.21-.187.14-.28.303-.28.49 0 .205.098.364.294.476.205.103.537.224.994.364.476.14.863.28 1.162.42.308.14.57.345.784.616.224.271.336.625.336 1.064 0 .373-.107.723-.322 1.05-.205.317-.504.574-.896.77-.392.187-.85.28-1.372.28-.57 0-1.087-.121-1.554-.364a3.433 3.433 0 01-1.106-.896l.91-.91zm11.754.77c-.299.392-.7.723-1.204.994a3.41 3.41 0 01-1.666.406 3.533 3.533 0 01-1.778-.462 3.4 3.4 0 01-1.26-1.26 3.532 3.532 0 01-.462-1.778c0-.644.154-1.232.462-1.764a3.373 3.373 0 011.26-1.274 3.533 3.533 0 011.778-.462c.616 0 1.167.131 1.652.392.485.252.868.565 1.148.938l-.98.91a2.503 2.503 0 00-.77-.644 2.07 2.07 0 00-1.05-.266c-.392 0-.751.093-1.078.28a2.04 2.04 0 00-.756.784 2.28 2.28 0 00-.266 1.106c0 .411.089.784.266 1.12.187.327.439.583.756.77.327.187.686.28 1.078.28s.751-.093 1.078-.28a2.97 2.97 0 00.812-.7l.98.91zm2.723-4.55c.187-.252.434-.467.742-.644a2.175 2.175 0 011.078-.266h.56v1.26h-.56c-.326 0-.63.089-.91.266-.28.168-.504.411-.672.728a2.227 2.227 0 00-.238 1.036V163h-1.4v-6.72h1.4v.91zm3.575-3.01c0-.233.084-.429.252-.588a.837.837 0 01.588-.252.79.79 0 01.574.252.759.759 0 01.266.588.801.801 0 01-.266.602.812.812 0 01-.574.238.86.86 0 01-.588-.238.822.822 0 01-.252-.602zm1.54 2.1V163h-1.4v-6.72h1.4zm3.43.98c.215-.308.523-.569.924-.784.402-.224.864-.336 1.386-.336.56 0 1.078.154 1.554.462.486.299.873.714 1.162 1.246.29.532.434 1.129.434 1.792s-.144 1.26-.434 1.792c-.29.532-.676.952-1.162 1.26a2.866 2.866 0 01-1.554.448c-.522 0-.984-.107-1.386-.322-.401-.224-.71-.49-.924-.798v3.92h-1.4v-9.66h1.4v.98zm2.03 4.55c.374 0 .714-.093 1.022-.28.308-.187.55-.443.728-.77.187-.336.28-.709.28-1.12a2.19 2.19 0 00-.28-1.106 1.972 1.972 0 00-.728-.784 1.931 1.931 0 00-1.022-.28 1.93 1.93 0 00-1.022.28 2.073 2.073 0 00-.742.784 2.28 2.28 0 00-.266 1.106c0 .411.089.784.266 1.12a2.1 2.1 0 00.742.77c.308.187.649.28 1.022.28zm4.405-5.53h1.26v-2.24h1.4v2.24h1.75v1.33h-1.75v3.15c0 .336.08.574.238.714.159.131.406.196.742.196h.77V163h-1.05c-1.4 0-2.1-.7-2.1-2.1v-3.29h-1.26v-1.33zm6.013-2.1c0-.233.084-.429.252-.588a.837.837 0 01.588-.252.79.79 0 01.574.252.759.759 0 01.266.588.801.801 0 01-.266.602.812.812 0 01-.574.238.86.86 0 01-.588-.238.822.822 0 01-.252-.602zm1.54 2.1V163h-1.4v-6.72h1.4zm1.61 3.36c0-.644.154-1.232.462-1.764a3.373 3.373 0 011.26-1.274 3.533 3.533 0 011.778-.462c.644 0 1.232.154 1.764.462.542.308.966.733 1.274 1.274.308.532.462 1.12.462 1.764 0 .644-.154 1.237-.462 1.778a3.37 3.37 0 01-1.274 1.26 3.457 3.457 0 01-1.764.462 3.533 3.533 0 01-1.778-.462 3.4 3.4 0 01-1.26-1.26 3.532 3.532 0 01-.462-1.778zm3.5 2.17c.392 0 .747-.093 1.064-.28.327-.187.579-.443.756-.77.187-.336.28-.709.28-1.12a2.19 2.19 0 00-.28-1.106 1.915 1.915 0 00-.756-.784 2.056 2.056 0 00-1.064-.28c-.392 0-.751.093-1.078.28-.317.187-.57.448-.756.784a2.28 2.28 0 00-.266 1.106c0 .411.089.784.266 1.12.187.327.439.583.756.77.327.187.686.28 1.078.28zm6.441-4.55c.215-.308.504-.569.868-.784a2.303 2.303 0 011.232-.336c.514 0 .971.121 1.372.364.402.233.714.574.938 1.022.234.439.35.957.35 1.554V163h-1.4v-3.92c0-.485-.144-.873-.434-1.162-.28-.299-.648-.448-1.106-.448-.532 0-.97.177-1.316.532-.336.345-.504.798-.504 1.358V163h-1.4v-6.72h1.4v.98z" class="Field form label"/>
            </g>
          </g>
          <g class="Iconography/Glyphs/Large/Search">
            <path fill="#CDCED1" d="M346.912 201.032a1.327 1.327 0 01-1.876 1.878l-4.111-4.104a6.583 6.583 0 01-7.938-.508 6.6 6.6 0 01-2.166-3.739 6.617 6.617 0 01.609-4.279 6.595 6.595 0 013.123-2.984 6.59 6.59 0 017.925 1.932 6.605 6.605 0 011.403 4.087 6.474 6.474 0 01-1.08 3.6l4.111 4.117zm-6.348-9.898a3.916 3.916 0 00-6.028-.601 3.932 3.932 0 00.581 6.041 3.917 3.917 0 002.174.668h.013a3.909 3.909 0 003.92-3.927 3.93 3.93 0 00-.66-2.181z" class="Vector"/>
          </g>
        </g>
        <g class="Results">
          <g class="Frame 1223">
            <g class="Frame 1225">
              <path fill="#25272E" d="M23.12 236.8l4.32 11.2h-2.56l-.96-2.56H19.6l-.96 2.56h-2.56l4.32-11.2h2.72zm-1.328 2.8h-.064l-1.328 3.68h2.72l-1.328-3.68zm12.284 7.28a3.225 3.225 0 01-1.008.912c-.427.245-.918.368-1.472.368-.619 0-1.2-.176-1.744-.528-.534-.352-.966-.837-1.296-1.456-.32-.619-.48-1.317-.48-2.096 0-.779.16-1.477.48-2.096.33-.619.762-1.104 1.296-1.456a3.154 3.154 0 011.744-.528c.554 0 1.045.128 1.472.384.426.245.762.544 1.008.896h.08v-4.48h2.16V248h-2.16v-1.12h-.08zm-1.84-.72c.565 0 1.04-.197 1.424-.592.384-.395.576-.891.576-1.488s-.192-1.093-.576-1.488a1.906 1.906 0 00-1.424-.592c-.566 0-1.04.197-1.424.592-.384.395-.576.891-.576 1.488s.192 1.093.576 1.488c.384.395.858.592 1.424.592zm11.762.72a3.225 3.225 0 01-1.008.912c-.427.245-.918.368-1.473.368-.618 0-1.2-.176-1.744-.528-.533-.352-.965-.837-1.296-1.456-.32-.619-.48-1.317-.48-2.096 0-.779.16-1.477.48-2.096.331-.619.763-1.104 1.297-1.456a3.154 3.154 0 011.743-.528c.555 0 1.046.128 1.472.384.427.245.763.544 1.009.896h.08v-4.48h2.16V248h-2.16v-1.12h-.08zm-1.84-.72c.565 0 1.04-.197 1.423-.592.384-.395.576-.891.576-1.488s-.191-1.093-.575-1.488a1.907 1.907 0 00-1.425-.592c-.565 0-1.04.197-1.423.592-.385.395-.577.891-.577 1.488s.193 1.093.577 1.488c.383.395.858.592 1.423.592zm13.281 1.088c-.362.256-.837.475-1.424.656a6.9 6.9 0 01-1.936.256 4.175 4.175 0 01-2.096-.544 4.23 4.23 0 01-1.52-1.488 4.03 4.03 0 01-.544-2.048c0-.736.182-1.413.544-2.032a4.15 4.15 0 011.488-1.488A3.946 3.946 0 0152 240c.704 0 1.355.176 1.952.528a3.886 3.886 0 011.44 1.44c.352.597.528 1.248.528 1.952 0 .352-.026.672-.08.96h-5.68c.128.395.363.72.704.976.352.256.811.384 1.376.384.448 0 .848-.048 1.2-.144a3.64 3.64 0 00.88-.368l1.12 1.52zm-1.76-3.968a2.027 2.027 0 00-.672-.96c-.309-.267-.672-.4-1.088-.4-.416 0-.784.133-1.104.4-.309.256-.528.576-.656.96h3.52zm6.005-2.24h.08c.15-.245.39-.453.72-.624.331-.171.747-.256 1.248-.256h.512v2.08h-.72c-.533 0-.976.192-1.328.576-.341.373-.512.875-.512 1.504V248h-2.16v-7.84h2.16v.88zm8.239 6c-.246.309-.571.576-.977.8-.394.213-.842.32-1.343.32-.715 0-1.296-.208-1.744-.624-.438-.427-.657-.965-.657-1.616 0-.661.209-1.227.625-1.696.426-.469.992-.741 1.695-.816l2.48-.24a1.52 1.52 0 00-.431-.864 1.231 1.231 0 00-.928-.384c-.363 0-.7.043-1.008.128-.31.075-.56.165-.753.272l-1.28-1.28c.342-.288.79-.533 1.345-.736a5.369 5.369 0 011.855-.304c.651 0 1.232.139 1.744.416.512.267.907.64 1.184 1.12.288.469.432.997.432 1.584V248h-2.16v-.96h-.08zm-1.68-2.288c-.267.011-.48.101-.64.272a.822.822 0 00-.24.576c0 .245.08.443.24.592.17.139.41.208.72.208.5 0 .906-.133 1.216-.4.309-.267.463-.651.463-1.152v-.16l-1.76.064zm8.006-7.952V248h-2.16v-11.2h2.16zm4.406 0V248h-2.16v-11.2h2.16z" class="Adderall"/>
              <path fill="#70747D" d="M293.768 261.2h1.33v6.72h1.26v.98h-1.26v2.1h-1.05v-2.1h-4.97v-1.19l4.69-6.51zm.28 1.19l-3.99 5.53h3.99v-5.53zm7.134 6.86c.187.271.434.504.742.7.308.187.644.28 1.008.28.476 0 .84-.103 1.092-.308.252-.215.378-.485.378-.812a.768.768 0 00-.392-.7c-.252-.159-.634-.313-1.148-.462-.457-.14-.826-.271-1.106-.392a2.029 2.029 0 01-.7-.56c-.196-.252-.294-.574-.294-.966 0-.327.094-.635.28-.924a2.16 2.16 0 01.798-.7 2.513 2.513 0 011.162-.266c.458 0 .873.089 1.246.266.383.177.691.392.924.644l-.7.7a1.723 1.723 0 00-.616-.49 1.727 1.727 0 00-.854-.21c-.373 0-.676.098-.91.294-.233.196-.35.425-.35.686 0 .289.122.509.364.658.243.14.621.285 1.134.434.458.14.826.275 1.106.406.29.131.532.327.728.588.206.252.308.583.308.994 0 .373-.098.714-.294 1.022-.196.308-.48.555-.854.742-.373.177-.807.266-1.302.266-.55 0-1.036-.112-1.456-.336a2.99 2.99 0 01-.994-.854l.7-.7zm5.246-4.97h1.26v-2.24h.98v2.24h1.82v.91h-1.82v3.99c0 .336.074.574.224.714.158.131.387.196.686.196h.91v.91h-.952c-.588 0-1.046-.149-1.372-.448-.318-.299-.476-.756-.476-1.372v-3.99h-1.26v-.91zm6.725.91c.177-.289.443-.537.798-.742.364-.205.798-.308 1.302-.308h.42v.98h-.42c-.374 0-.724.089-1.05.266a2.026 2.026 0 00-.77.77c-.187.327-.28.705-.28 1.134V271h-.98v-6.72h.98v.91zm9.379 4.802c-.298.317-.69.588-1.176.812a3.827 3.827 0 01-1.624.336 3.256 3.256 0 01-1.68-.462 3.583 3.583 0 01-1.232-1.274 3.548 3.548 0 01-.448-1.764 3.52 3.52 0 011.666-3.024 2.998 2.998 0 011.624-.476c.598 0 1.144.145 1.638.434.495.289.882.691 1.162 1.204.28.504.42 1.078.42 1.722 0 .177-.023.345-.07.504l-5.46-.014c.019.392.14.761.364 1.106.224.345.514.621.868.826.355.205.738.308 1.148.308.467 0 .887-.084 1.26-.252a2.87 2.87 0 00.91-.616l.63.63zm-.63-2.842c-.074-.607-.322-1.106-.742-1.498a2.064 2.064 0 00-1.498-.602c-.382 0-.742.098-1.078.294a2.453 2.453 0 00-.84.77 2.357 2.357 0 00-.392 1.036h4.55zm3.706-1.89a2.67 2.67 0 01.882-.784 2.452 2.452 0 011.288-.336c.532 0 1.003.117 1.414.35.42.233.742.569.966 1.008.233.429.35.933.35 1.512V271h-.98v-3.99c0-.588-.173-1.059-.518-1.414-.336-.364-.77-.546-1.302-.546-.392 0-.752.098-1.078.294a2.03 2.03 0 00-.756.784 2.444 2.444 0 00-.266 1.162V271h-.98v-6.72h.98v.98zm7.561 6.874c.233.252.537.462.91.63.383.177.803.266 1.26.266.42 0 .803-.107 1.148-.322.355-.215.635-.509.84-.882.215-.373.322-.789.322-1.246v-.77c-.196.289-.49.537-.882.742-.383.205-.835.308-1.358.308a2.983 2.983 0 01-1.596-.448 3.245 3.245 0 01-1.134-1.218 3.479 3.479 0 01-.42-1.694c0-.616.14-1.181.42-1.694.28-.513.658-.919 1.134-1.218a2.983 2.983 0 011.596-.448c.523 0 .975.103 1.358.308.392.205.686.453.882.742v-.91h.98v6.3c0 .616-.149 1.181-.448 1.694a3.243 3.243 0 01-1.19 1.218 3.18 3.18 0 01-1.652.448c-.616 0-1.167-.117-1.652-.35-.485-.224-.868-.499-1.148-.826l.63-.63zm2.24-2.184c.411 0 .789-.107 1.134-.322.345-.215.616-.509.812-.882a2.64 2.64 0 00.294-1.246 2.64 2.64 0 00-.294-1.246 2.252 2.252 0 00-.812-.882 2.102 2.102 0 00-1.134-.322c-.392 0-.756.107-1.092.322a2.325 2.325 0 00-.784.882 2.64 2.64 0 00-.294 1.246c0 .457.098.873.294 1.246.196.373.457.667.784.882.336.215.7.322 1.092.322zm4.761-5.67h1.26v-2.24h.98v2.24h1.82v.91h-1.82v3.99c0 .336.075.574.224.714.159.131.387.196.686.196h.91v.91h-.952c-.588 0-1.045-.149-1.372-.448-.317-.299-.476-.756-.476-1.372v-3.99h-1.26v-.91zm6.795.98a2.69 2.69 0 01.882-.784 2.454 2.454 0 011.288-.336c.532 0 1.003.117 1.414.35.42.233.742.569.966 1.008.233.429.35.933.35 1.512V271h-.98v-3.99c0-.588-.173-1.059-.518-1.414-.336-.364-.77-.546-1.302-.546-.392 0-.751.098-1.078.294a2.044 2.044 0 00-.756.784 2.456 2.456 0 00-.266 1.162V271h-.98v-9.8h.98v4.06zm7.209 3.99c.187.271.434.504.742.7.308.187.644.28 1.008.28.476 0 .84-.103 1.092-.308.252-.215.378-.485.378-.812a.768.768 0 00-.392-.7c-.252-.159-.634-.313-1.148-.462-.457-.14-.826-.271-1.106-.392a2.029 2.029 0 01-.7-.56c-.196-.252-.294-.574-.294-.966 0-.327.094-.635.28-.924a2.16 2.16 0 01.798-.7 2.513 2.513 0 011.162-.266c.458 0 .873.089 1.246.266.383.177.691.392.924.644l-.7.7a1.723 1.723 0 00-.616-.49 1.727 1.727 0 00-.854-.21c-.373 0-.676.098-.91.294-.233.196-.35.425-.35.686 0 .289.122.509.364.658.243.14.621.285 1.134.434.458.14.826.275 1.106.406.29.131.532.327.728.588.206.252.308.583.308.994 0 .373-.098.714-.294 1.022-.196.308-.48.555-.854.742-.373.177-.807.266-1.302.266-.55 0-1.036-.112-1.456-.336a2.99 2.99 0 01-.994-.854l.7-.7z" class="4 strengths" opacity=".5"/>
              <path fill="#25272E" d="M16.84 266.1c0-.915.224-1.759.672-2.534a4.938 4.938 0 011.834-1.834 4.973 4.973 0 012.534-.672c.915 0 1.76.224 2.534.672a4.938 4.938 0 011.834 1.834c.448.775.672 1.619.672 2.534 0 .915-.224 1.759-.672 2.534a4.938 4.938 0 01-1.834 1.834 4.973 4.973 0 01-2.534.672c-.915 0-1.76-.224-2.534-.672a4.938 4.938 0 01-1.834-1.834 4.973 4.973 0 01-.672-2.534zm5.04 4.06a3.927 3.927 0 003.458-1.988 4.125 4.125 0 00.532-2.072 4.05 4.05 0 00-.532-2.058 3.9 3.9 0 00-3.458-2.002 3.9 3.9 0 00-3.458 2.002 4.05 4.05 0 00-.532 2.058c0 .756.177 1.447.532 2.072a3.927 3.927 0 003.458 1.988zm7.978-4.97c.177-.289.443-.537.798-.742.364-.205.798-.308 1.302-.308h.42v.98h-.42c-.373 0-.723.089-1.05.266a2.03 2.03 0 00-.77.77c-.187.327-.28.705-.28 1.134V271h-.98v-6.72h.98v.91zm7.906 4.9a2.688 2.688 0 01-.882.742 2.633 2.633 0 01-1.288.308c-.448 0-.854-.093-1.218-.28a2.264 2.264 0 01-.854-.728 1.695 1.695 0 01-.308-.952c0-.569.168-1.036.504-1.4.345-.364.83-.574 1.456-.63l2.59-.224c0-.327-.075-.635-.224-.924a1.656 1.656 0 00-.602-.686 1.45 1.45 0 00-.854-.266c-.392 0-.751.047-1.078.14a2.98 2.98 0 00-.812.35l-.63-.63c.28-.215.64-.397 1.078-.546.439-.149.92-.224 1.442-.224.504 0 .957.117 1.358.35.41.224.728.532.952.924.233.392.35.831.35 1.316V271h-.98v-.91zm-2.31-2.1c-.41.037-.723.163-.938.378a1.1 1.1 0 00-.322.812c0 .299.121.551.364.756.252.196.597.294 1.036.294.653 0 1.176-.177 1.568-.532.401-.364.602-.868.602-1.512v-.42l-2.31.224zm6.163-6.79v9.8h-.98v-9.8h.98zm9.518 0c.597 0 1.134.135 1.61.406.485.271.863.639 1.134 1.106.27.467.406.989.406 1.568 0 .579-.135 1.101-.406 1.568-.27.467-.649.835-1.134 1.106a3.196 3.196 0 01-1.61.406h-2.66V271h-1.05v-9.8h3.71zm0 5.18c.635 0 1.143-.191 1.526-.574.383-.392.574-.901.574-1.526 0-.635-.191-1.143-.574-1.526-.383-.383-.891-.574-1.526-.574h-2.66v4.2h2.66zm4.632-4.34c0-.177.06-.327.182-.448a.61.61 0 01.448-.182.61.61 0 01.448.182.609.609 0 01.182.448c0 .177-.06.327-.182.448a.61.61 0 01-.448.182.61.61 0 01-.448-.182.609.609 0 01-.182-.448zm1.12 2.24V271h-.98v-6.72h.98zm3.297-3.08v9.8h-.98v-9.8h.98zm3.363 0v9.8h-.98v-9.8h.98z" class="Oral Pill"/>
            </g>
            <g class="Frame 1414">
              <g class="Standard/Secondary" style="mix-blend-mode:multiply">
                <rect width="72" height="32" x="16" y="289" fill="#F1F3F5" rx="16" style="mix-blend-mode:multiply"/>
                <path fill="#25272E" d="M37.716 306.62c.234.308.556.574.966.798.42.215.892.322 1.414.322.626 0 1.12-.173 1.484-.518.364-.345.546-.803.546-1.372 0-.569-.182-1.027-.546-1.372-.364-.345-.858-.518-1.484-.518-.392 0-.746.098-1.064.294-.308.187-.56.415-.756.686l-1.12-.14.35-5.6h5.53v1.47h-4.2l-.14 2.38c.187-.14.425-.257.714-.35.3-.093.621-.14.966-.14.626 0 1.186.145 1.68.434.504.28.896.672 1.176 1.176.29.495.434 1.055.434 1.68s-.149 1.19-.448 1.694a3.09 3.09 0 01-1.246 1.176c-.54.28-1.166.42-1.876.42-.756 0-1.432-.14-2.03-.42-.588-.289-1.054-.639-1.4-1.05l1.05-1.05zm12.255-3.36c.177-.308.434-.569.77-.784.336-.224.733-.336 1.19-.336.485 0 .905.112 1.26.336.364.215.644.476.84.784.196-.308.49-.569.882-.784.401-.224.877-.336 1.428-.336.448 0 .858.121 1.232.364.373.233.667.569.882 1.008.224.429.336.929.336 1.498V309h-1.4v-3.99c0-.476-.136-.849-.406-1.12a1.3 1.3 0 00-.994-.42 1.51 1.51 0 00-1.162.504c-.299.327-.448.765-.448 1.316V309h-1.4v-3.99c0-.476-.136-.849-.406-1.12a1.3 1.3 0 00-.994-.42 1.51 1.51 0 00-1.162.504c-.299.327-.448.765-.448 1.316V309h-1.4v-6.72h1.4v.98zm11.552 6.51c.214.233.485.429.811.588.327.168.686.252 1.078.252.635 0 1.144-.196 1.527-.588.382-.392.574-.919.574-1.582v-.63a2.688 2.688 0 01-.883.742 2.633 2.633 0 01-1.287.308 2.796 2.796 0 01-1.499-.434 3.209 3.209 0 01-1.105-1.204 3.632 3.632 0 01-.406-1.722c0-.635.135-1.209.406-1.722.28-.513.648-.915 1.105-1.204a2.796 2.796 0 011.498-.434c.486 0 .915.103 1.288.308.374.205.668.453.883.742v-.91h1.4v6.16c0 .672-.15 1.274-.448 1.806a3.2 3.2 0 01-1.246 1.246c-.532.299-1.134.448-1.806.448a3.817 3.817 0 01-1.68-.364c-.495-.243-.892-.541-1.19-.896l.98-.91zm2.1-2.24c.345 0 .662-.084.952-.252.289-.177.517-.42.685-.728.168-.308.252-.658.252-1.05s-.084-.742-.252-1.05a1.806 1.806 0 00-.686-.714 1.79 1.79 0 00-.951-.266 1.79 1.79 0 00-.953.266c-.289.168-.517.406-.686.714a2.157 2.157 0 00-.252 1.05c0 .392.084.742.252 1.05.169.308.397.551.686.728.29.168.607.252.953.252z" class="Label"/>
              </g>
              <g class="Standard/Secondary_2" style="mix-blend-mode:multiply">
                <rect width="82" height="32" x="100" y="289" fill="#F1F3F5" rx="16" style="mix-blend-mode:multiply"/>
                <path fill="#25272E" d="M120.912 300.67v-1.47h6.44v1.4l-4.06 8.4h-1.68l4.06-8.33h-4.76zm7.273 8.47a.908.908 0 01-.91-.91c0-.243.088-.453.266-.63a.882.882 0 01.644-.28c.242 0 .452.093.63.28.186.177.28.387.28.63a.888.888 0 01-.28.644.865.865 0 01-.63.266zm3.146-2.52c.233.308.555.574.966.798.42.215.891.322 1.414.322.625 0 1.12-.173 1.484-.518.364-.345.546-.803.546-1.372 0-.569-.182-1.027-.546-1.372-.364-.345-.859-.518-1.484-.518-.392 0-.747.098-1.064.294-.308.187-.56.415-.756.686l-1.12-.14.35-5.6h5.53v1.47h-4.2l-.14 2.38c.186-.14.424-.257.714-.35.298-.093.62-.14.966-.14a3.27 3.27 0 011.68.434c.504.28.896.672 1.176 1.176a3.27 3.27 0 01.434 1.68c0 .625-.15 1.19-.448 1.694-.29.495-.705.887-1.246 1.176-.542.28-1.167.42-1.876.42-.756 0-1.433-.14-2.03-.42-.588-.289-1.055-.639-1.4-1.05l1.05-1.05zm12.254-3.36c.177-.308.434-.569.77-.784.336-.224.733-.336 1.19-.336.485 0 .905.112 1.26.336.364.215.644.476.84.784.196-.308.49-.569.882-.784.401-.224.877-.336 1.428-.336.448 0 .859.121 1.232.364.373.233.667.569.882 1.008.224.429.336.929.336 1.498V309h-1.4v-3.99c0-.476-.135-.849-.406-1.12a1.3 1.3 0 00-.994-.42c-.467 0-.854.168-1.162.504-.299.327-.448.765-.448 1.316V309h-1.4v-3.99c0-.476-.135-.849-.406-1.12a1.3 1.3 0 00-.994-.42c-.467 0-.854.168-1.162.504-.299.327-.448.765-.448 1.316V309h-1.4v-6.72h1.4v.98zm11.552 6.51c.214.233.485.429.812.588a2.32 2.32 0 001.078.252c.634 0 1.143-.196 1.526-.588.382-.392.574-.919.574-1.582v-.63a2.694 2.694 0 01-.882.742 2.635 2.635 0 01-1.288.308 2.795 2.795 0 01-1.498-.434 3.204 3.204 0 01-1.106-1.204 3.629 3.629 0 01-.406-1.722c0-.635.135-1.209.406-1.722.28-.513.648-.915 1.106-1.204a2.795 2.795 0 011.498-.434c.485 0 .914.103 1.288.308.373.205.667.453.882.742v-.91h1.4v6.16c0 .672-.15 1.274-.448 1.806a3.203 3.203 0 01-1.246 1.246c-.532.299-1.134.448-1.806.448a3.817 3.817 0 01-1.68-.364c-.495-.243-.892-.541-1.19-.896l.98-.91zm2.1-2.24c.345 0 .662-.084.952-.252.289-.177.518-.42.686-.728.168-.308.252-.658.252-1.05s-.084-.742-.252-1.05a1.808 1.808 0 00-.686-.714 1.793 1.793 0 00-.952-.266c-.346 0-.663.089-.952.266-.29.168-.518.406-.686.714a2.157 2.157 0 00-.252 1.05c0 .392.084.742.252 1.05a1.9 1.9 0 00.686.728c.289.168.606.252.952.252z" class="Label_2"/>
              </g>
              <g class="Standard/Secondary_3" style="mix-blend-mode:multiply">
                <rect width="79" height="32" x="193" y="289" fill="#F1F3F5" rx="16" style="mix-blend-mode:multiply"/>
                <path fill="#25272E" d="M213.802 300.53c.588-.065 1.036-.205 1.344-.42.308-.215.56-.518.756-.91h1.19v9.8h-1.54v-7.49h-1.75v-.98zm9.521 8.61a3.754 3.754 0 01-2.058-.588c-.616-.401-1.106-.98-1.47-1.736-.355-.765-.532-1.671-.532-2.716 0-1.045.177-1.946.532-2.702.364-.765.854-1.344 1.47-1.736a3.692 3.692 0 012.058-.602c.756 0 1.442.201 2.058.602.616.392 1.101.971 1.456 1.736.364.756.546 1.657.546 2.702s-.182 1.951-.546 2.716c-.355.756-.84 1.335-1.456 1.736a3.754 3.754 0 01-2.058.588zm2.52-5.04c0-.784-.117-1.447-.35-1.988-.224-.551-.527-.961-.91-1.232a2.088 2.088 0 00-1.26-.42c-.457 0-.877.14-1.26.42-.383.271-.691.681-.924 1.232-.224.541-.336 1.204-.336 1.988s.112 1.451.336 2.002c.233.541.541.952.924 1.232.383.271.803.406 1.26.406.457 0 .877-.135 1.26-.406.383-.28.686-.691.91-1.232.233-.551.35-1.218.35-2.002zm7.923-.84c.177-.308.434-.569.77-.784.336-.224.732-.336 1.19-.336.485 0 .905.112 1.26.336.364.215.644.476.84.784.196-.308.49-.569.882-.784.401-.224.877-.336 1.428-.336.448 0 .858.121 1.232.364.373.233.667.569.882 1.008.224.429.336.929.336 1.498V309h-1.4v-3.99c0-.476-.136-.849-.406-1.12a1.302 1.302 0 00-.994-.42c-.467 0-.854.168-1.162.504-.299.327-.448.765-.448 1.316V309h-1.4v-3.99c0-.476-.136-.849-.406-1.12a1.302 1.302 0 00-.994-.42c-.467 0-.854.168-1.162.504-.299.327-.448.765-.448 1.316V309h-1.4v-6.72h1.4v.98zm11.551 6.51a2.7 2.7 0 00.812.588c.327.168.686.252 1.078.252.635 0 1.144-.196 1.526-.588.383-.392.574-.919.574-1.582v-.63a2.673 2.673 0 01-.882.742 2.63 2.63 0 01-1.288.308 2.797 2.797 0 01-1.498-.434 3.212 3.212 0 01-1.106-1.204 3.64 3.64 0 01-.406-1.722c0-.635.136-1.209.406-1.722.28-.513.649-.915 1.106-1.204a2.797 2.797 0 011.498-.434c.486 0 .915.103 1.288.308.374.205.668.453.882.742v-.91h1.4v6.16c0 .672-.149 1.274-.448 1.806a3.196 3.196 0 01-1.246 1.246c-.532.299-1.134.448-1.806.448a3.817 3.817 0 01-1.68-.364c-.494-.243-.891-.541-1.19-.896l.98-.91zm2.1-2.24c.346 0 .663-.084.952-.252a1.9 1.9 0 00.686-.728c.168-.308.252-.658.252-1.05s-.084-.742-.252-1.05a1.801 1.801 0 00-.686-.714 1.788 1.788 0 00-.952-.266c-.345 0-.662.089-.952.266a1.808 1.808 0 00-.686.714 2.157 2.157 0 00-.252 1.05c0 .392.084.742.252 1.05.168.308.397.551.686.728.29.168.607.252.952.252z" class="Label_3"/>
              </g>
              <g class="Standard/Secondary_4" style="mix-blend-mode:multiply">
                <rect width="77" height="32" x="16" y="333" fill="#F1F3F5" rx="16" style="mix-blend-mode:multiply"/>
                <path fill="#25272E" d="M36.506 344.53c.588-.065 1.036-.205 1.344-.42.308-.215.56-.518.756-.91h1.19v9.8h-1.54v-7.49h-1.75v-.98zm6.301 6.09c.234.308.556.574.966.798.42.215.892.322 1.414.322.626 0 1.12-.173 1.484-.518.364-.345.546-.803.546-1.372 0-.569-.182-1.027-.546-1.372-.364-.345-.858-.518-1.484-.518-.392 0-.746.098-1.064.294-.308.187-.56.415-.756.686l-1.12-.14.35-5.6h5.53v1.47h-4.2l-.14 2.38c.187-.14.425-.257.714-.35.299-.093.62-.14.966-.14.626 0 1.186.145 1.68.434.504.28.896.672 1.176 1.176.29.495.434 1.055.434 1.68s-.15 1.19-.448 1.694c-.29.495-.704.887-1.246 1.176-.541.28-1.166.42-1.876.42-.756 0-1.432-.14-2.03-.42-.588-.289-1.054-.639-1.4-1.05l1.05-1.05zm12.255-3.36c.177-.308.434-.569.77-.784.336-.224.732-.336 1.19-.336.485 0 .905.112 1.26.336.364.215.644.476.84.784.196-.308.49-.569.882-.784.401-.224.877-.336 1.428-.336.448 0 .858.121 1.232.364.373.233.667.569.882 1.008.224.429.336.929.336 1.498V353h-1.4v-3.99c0-.476-.136-.849-.406-1.12a1.3 1.3 0 00-.994-.42 1.51 1.51 0 00-1.162.504c-.299.327-.448.765-.448 1.316V353h-1.4v-3.99c0-.476-.136-.849-.406-1.12a1.3 1.3 0 00-.994-.42 1.51 1.51 0 00-1.162.504c-.299.327-.448.765-.448 1.316V353h-1.4v-6.72h1.4v.98zm11.551 6.51c.215.233.486.429.812.588.327.168.686.252 1.078.252.635 0 1.144-.196 1.526-.588.383-.392.574-.919.574-1.582v-.63a2.688 2.688 0 01-.882.742 2.633 2.633 0 01-1.288.308 2.796 2.796 0 01-1.498-.434 3.209 3.209 0 01-1.106-1.204 3.632 3.632 0 01-.406-1.722c0-.635.136-1.209.406-1.722.28-.513.649-.915 1.106-1.204a2.796 2.796 0 011.498-.434c.486 0 .915.103 1.288.308.374.205.668.453.882.742v-.91h1.4v6.16c0 .672-.15 1.274-.448 1.806a3.2 3.2 0 01-1.246 1.246c-.532.299-1.134.448-1.806.448a3.817 3.817 0 01-1.68-.364c-.494-.243-.891-.541-1.19-.896l.98-.91zm2.1-2.24c.346 0 .663-.084.952-.252.29-.177.518-.42.686-.728.168-.308.252-.658.252-1.05s-.084-.742-.252-1.05a1.806 1.806 0 00-.686-.714 1.79 1.79 0 00-.952-.266 1.79 1.79 0 00-.952.266c-.29.168-.518.406-.686.714a2.157 2.157 0 00-.252 1.05c0 .392.084.742.252 1.05.168.308.397.551.686.728.29.168.607.252.952.252z" class="Label_4"/>
              </g>
              <g class="Standard/Secondary_5" style="mix-blend-mode:multiply">
                <rect width="82" height="32" x="105" y="333" fill="#F1F3F5" rx="16" style="mix-blend-mode:multiply"/>
                <path fill="#25272E" d="M125.975 353c0-.784.145-1.461.434-2.03.299-.569.654-1.031 1.064-1.386.411-.364.943-.765 1.596-1.204.458-.308.812-.56 1.064-.756.252-.205.462-.434.63-.686.168-.261.252-.551.252-.868 0-.467-.154-.84-.462-1.12-.308-.28-.737-.42-1.288-.42-.485 0-.886.131-1.204.392a2.14 2.14 0 00-.686.938l-1.26-.56a3.288 3.288 0 011.078-1.582c.532-.439 1.223-.658 2.072-.658.635 0 1.204.135 1.708.406.504.261.892.621 1.162 1.078.28.457.42.966.42 1.526 0 .523-.116.985-.35 1.386a3.785 3.785 0 01-.826 1.008c-.326.271-.774.597-1.344.98-.588.392-1.059.737-1.414 1.036-.345.299-.62.649-.826 1.05h4.76V353h-6.58zm12.174.14a3.754 3.754 0 01-2.058-.588c-.616-.401-1.106-.98-1.47-1.736-.354-.765-.532-1.671-.532-2.716 0-1.045.178-1.946.532-2.702.364-.765.854-1.344 1.47-1.736a3.692 3.692 0 012.058-.602c.756 0 1.442.201 2.058.602.616.392 1.102.971 1.456 1.736.364.756.546 1.657.546 2.702s-.182 1.951-.546 2.716c-.354.756-.84 1.335-1.456 1.736a3.754 3.754 0 01-2.058.588zm2.52-5.04c0-.784-.116-1.447-.35-1.988-.224-.551-.527-.961-.91-1.232a2.084 2.084 0 00-1.26-.42c-.457 0-.877.14-1.26.42-.382.271-.69.681-.924 1.232-.224.541-.336 1.204-.336 1.988s.112 1.451.336 2.002c.234.541.542.952.924 1.232.383.271.803.406 1.26.406a2.13 2.13 0 001.26-.406c.383-.28.686-.691.91-1.232.234-.551.35-1.218.35-2.002zm7.923-.84c.177-.308.434-.569.77-.784.336-.224.733-.336 1.19-.336.485 0 .905.112 1.26.336.364.215.644.476.84.784.196-.308.49-.569.882-.784.401-.224.877-.336 1.428-.336.448 0 .859.121 1.232.364.373.233.667.569.882 1.008.224.429.336.929.336 1.498V353h-1.4v-3.99c0-.476-.135-.849-.406-1.12a1.3 1.3 0 00-.994-.42c-.467 0-.854.168-1.162.504-.299.327-.448.765-.448 1.316V353h-1.4v-3.99c0-.476-.135-.849-.406-1.12a1.3 1.3 0 00-.994-.42c-.467 0-.854.168-1.162.504-.299.327-.448.765-.448 1.316V353h-1.4v-6.72h1.4v.98zm11.552 6.51c.214.233.485.429.812.588a2.32 2.32 0 001.078.252c.634 0 1.143-.196 1.526-.588.382-.392.574-.919.574-1.582v-.63a2.694 2.694 0 01-.882.742 2.635 2.635 0 01-1.288.308 2.795 2.795 0 01-1.498-.434 3.204 3.204 0 01-1.106-1.204 3.629 3.629 0 01-.406-1.722c0-.635.135-1.209.406-1.722.28-.513.648-.915 1.106-1.204a2.795 2.795 0 011.498-.434c.485 0 .914.103 1.288.308.373.205.667.453.882.742v-.91h1.4v6.16c0 .672-.15 1.274-.448 1.806a3.203 3.203 0 01-1.246 1.246c-.532.299-1.134.448-1.806.448a3.817 3.817 0 01-1.68-.364c-.495-.243-.892-.541-1.19-.896l.98-.91zm2.1-2.24c.345 0 .662-.084.952-.252.289-.177.518-.42.686-.728.168-.308.252-.658.252-1.05s-.084-.742-.252-1.05a1.808 1.808 0 00-.686-.714 1.793 1.793 0 00-.952-.266c-.346 0-.663.089-.952.266-.29.168-.518.406-.686.714a2.157 2.157 0 00-.252 1.05c0 .392.084.742.252 1.05a1.9 1.9 0 00.686.728c.289.168.606.252.952.252z" class="Label_5"/>
              </g>
              <g class="Standard/Secondary_6" style="mix-blend-mode:multiply">
                <rect width="123" height="32" x="198" y="333" fill="#F1F3F5" rx="16" style="mix-blend-mode:multiply"/>
                <path fill="#25272E" d="M224.149 343.2l3.92 9.8h-1.61l-.98-2.52h-4.34l-.98 2.52h-1.61l3.92-9.8h1.68zm-.84 1.82l-1.61 4.06h3.22l-1.61-4.06zm7.283 2.24a2.73 2.73 0 01.868-.784 2.304 2.304 0 011.232-.336c.513 0 .971.121 1.372.364.401.233.714.574.938 1.022.233.439.35.957.35 1.554V353h-1.4v-3.92c0-.485-.145-.873-.434-1.162-.28-.299-.649-.448-1.106-.448-.532 0-.971.177-1.316.532-.336.345-.504.798-.504 1.358V353h-1.4v-6.72h1.4v.98zm7.004 7.35c.271 0 .509-.079.714-.238.206-.159.364-.383.476-.672l.28-.7-2.73-6.72h1.54l1.89 4.97 1.89-4.97h1.54l-2.94 7.49c-.289.719-.634 1.26-1.036 1.624a2.004 2.004 0 01-1.414.546h-1.05v-1.33h.84zm9.95-3.64c.205.252.462.467.77.644s.635.266.98.266c.364 0 .653-.084.868-.252.215-.168.322-.364.322-.588 0-.205-.103-.359-.308-.462-.196-.112-.523-.238-.98-.378a9.127 9.127 0 01-1.176-.42 2.246 2.246 0 01-.784-.616c-.215-.271-.322-.625-.322-1.064 0-.355.098-.681.294-.98.196-.299.481-.537.854-.714.373-.177.807-.266 1.302-.266.523 0 .989.089 1.4.266.42.177.747.392.98.644l-.91.91a1.983 1.983 0 00-.644-.392 2.01 2.01 0 00-.826-.168c-.327 0-.583.07-.77.21-.187.14-.28.303-.28.49 0 .205.098.364.294.476.205.103.537.224.994.364.476.14.863.28 1.162.42.308.14.569.345.784.616.224.271.336.625.336 1.064 0 .373-.107.723-.322 1.05-.205.317-.504.574-.896.77-.392.187-.849.28-1.372.28a3.315 3.315 0 01-1.554-.364 3.436 3.436 0 01-1.106-.896l.91-.91zm5.244-4.69h1.26v-2.24h1.4v2.24h1.75v1.33h-1.75v3.15c0 .336.079.574.238.714.159.131.406.196.742.196h.77V353h-1.05c-1.4 0-2.1-.7-2.1-2.1v-3.29h-1.26v-1.33zm7.484.91c.186-.252.434-.467.742-.644a2.173 2.173 0 011.078-.266h.56v1.26h-.56c-.327 0-.63.089-.91.266-.28.168-.504.411-.672.728a2.224 2.224 0 00-.238 1.036V353h-1.4v-6.72h1.4v.91zm9.458 4.858c-.28.308-.668.569-1.162.784-.495.205-1.064.308-1.708.308a3.532 3.532 0 01-1.778-.462 3.4 3.4 0 01-1.26-1.26 3.532 3.532 0 01-.462-1.778c0-.644.154-1.232.462-1.764a3.43 3.43 0 011.246-1.26 3.255 3.255 0 011.722-.476 3.27 3.27 0 011.68.434c.504.28.896.672 1.176 1.176a3.27 3.27 0 01.434 1.68c0 .261-.024.495-.07.7h-5.18c.074.467.308.863.7 1.19.392.327.858.49 1.4.49.392 0 .756-.07 1.092-.21a3.28 3.28 0 00.868-.532l.84.98zm-1.12-3.108c-.112-.467-.327-.84-.644-1.12-.308-.28-.7-.42-1.176-.42-.504 0-.92.14-1.246.42-.327.271-.565.644-.714 1.12h3.78zm4.404-1.68c.214-.308.504-.569.868-.784a2.301 2.301 0 011.232-.336c.513 0 .97.121 1.372.364.401.233.714.574.938 1.022.233.439.35.957.35 1.554V353h-1.4v-3.92c0-.485-.145-.873-.434-1.162-.28-.299-.649-.448-1.106-.448-.532 0-.971.177-1.316.532-.336.345-.504.798-.504 1.358V353h-1.4v-6.72h1.4v.98zm7.491 6.51c.215.233.485.429.812.588.327.168.686.252 1.078.252.635 0 1.143-.196 1.526-.588.383-.392.574-.919.574-1.582v-.63a2.694 2.694 0 01-.882.742 2.633 2.633 0 01-1.288.308 2.797 2.797 0 01-1.498-.434 3.212 3.212 0 01-1.106-1.204 3.629 3.629 0 01-.406-1.722c0-.635.135-1.209.406-1.722.28-.513.649-.915 1.106-1.204a2.797 2.797 0 011.498-.434c.485 0 .915.103 1.288.308.373.205.667.453.882.742v-.91h1.4v6.16c0 .672-.149 1.274-.448 1.806a3.203 3.203 0 01-1.246 1.246c-.532.299-1.134.448-1.806.448a3.817 3.817 0 01-1.68-.364c-.495-.243-.891-.541-1.19-.896l.98-.91zm2.1-2.24c.345 0 .663-.084.952-.252.289-.177.518-.42.686-.728.168-.308.252-.658.252-1.05s-.084-.742-.252-1.05a1.808 1.808 0 00-.686-.714 1.79 1.79 0 00-.952-.266 1.79 1.79 0 00-.952.266 1.808 1.808 0 00-.686.714 2.157 2.157 0 00-.252 1.05c0 .392.084.742.252 1.05.168.308.397.551.686.728.289.168.607.252.952.252zm4.691-5.25h1.26v-2.24h1.4v2.24h1.75v1.33h-1.75v3.15c0 .336.079.574.238.714.159.131.406.196.742.196h.77V353h-1.05c-1.4 0-2.1-.7-2.1-2.1v-3.29h-1.26v-1.33zm7.553.98a2.73 2.73 0 01.868-.784 2.304 2.304 0 011.232-.336c.514 0 .971.121 1.372.364.402.233.714.574.938 1.022.234.439.35.957.35 1.554V353h-1.4v-3.92c0-.485-.144-.873-.434-1.162-.28-.299-.648-.448-1.106-.448-.532 0-.97.177-1.316.532-.336.345-.504.798-.504 1.358V353h-1.4v-9.8h1.4v4.06z" class="Label_6"/>
              </g>
            </g>
            <g class="Divider/Hairline">
              <path fill="#F1F3F5" fill-rule="evenodd" d="M359 390H16v-1h343v1z" clip-rule="evenodd" style="mix-blend-mode:multiply"/>
            </g>
            <g class="Frame 1228">
              <path fill="#25272E" d="M23.12 407.8l4.32 11.2h-2.56l-.96-2.56H19.6l-.96 2.56h-2.56l4.32-11.2h2.72zm-1.328 2.8h-.064l-1.328 3.68h2.72l-1.328-3.68zm12.284 7.28a3.225 3.225 0 01-1.008.912c-.427.245-.918.368-1.472.368-.619 0-1.2-.176-1.744-.528-.534-.352-.966-.837-1.296-1.456-.32-.619-.48-1.317-.48-2.096 0-.779.16-1.477.48-2.096.33-.619.762-1.104 1.296-1.456a3.154 3.154 0 011.744-.528c.554 0 1.045.128 1.472.384.426.245.762.544 1.008.896h.08v-4.48h2.16V419h-2.16v-1.12h-.08zm-1.84-.72c.565 0 1.04-.197 1.424-.592.384-.395.576-.891.576-1.488s-.192-1.093-.576-1.488a1.906 1.906 0 00-1.424-.592c-.566 0-1.04.197-1.424.592-.384.395-.576.891-.576 1.488s.192 1.093.576 1.488c.384.395.858.592 1.424.592zm11.762.72a3.225 3.225 0 01-1.008.912c-.427.245-.918.368-1.473.368-.618 0-1.2-.176-1.744-.528-.533-.352-.965-.837-1.296-1.456-.32-.619-.48-1.317-.48-2.096 0-.779.16-1.477.48-2.096.331-.619.763-1.104 1.297-1.456a3.154 3.154 0 011.743-.528c.555 0 1.046.128 1.472.384.427.245.763.544 1.009.896h.08v-4.48h2.16V419h-2.16v-1.12h-.08zm-1.84-.72c.565 0 1.04-.197 1.423-.592.384-.395.576-.891.576-1.488s-.191-1.093-.575-1.488a1.907 1.907 0 00-1.425-.592c-.565 0-1.04.197-1.423.592-.385.395-.577.891-.577 1.488s.193 1.093.577 1.488c.383.395.858.592 1.423.592zm13.281 1.088c-.362.256-.837.475-1.424.656a6.9 6.9 0 01-1.936.256 4.175 4.175 0 01-2.096-.544 4.23 4.23 0 01-1.52-1.488 4.03 4.03 0 01-.544-2.048c0-.736.182-1.413.544-2.032a4.15 4.15 0 011.488-1.488A3.946 3.946 0 0152 411c.704 0 1.355.176 1.952.528a3.886 3.886 0 011.44 1.44c.352.597.528 1.248.528 1.952 0 .352-.026.672-.08.96h-5.68c.128.395.363.72.704.976.352.256.811.384 1.376.384.448 0 .848-.048 1.2-.144a3.64 3.64 0 00.88-.368l1.12 1.52zm-1.76-3.968a2.027 2.027 0 00-.672-.96c-.309-.267-.672-.4-1.088-.4-.416 0-.784.133-1.104.4-.309.256-.528.576-.656.96h3.52zm6.005-2.24h.08c.15-.245.39-.453.72-.624.331-.171.747-.256 1.248-.256h.512v2.08h-.72c-.533 0-.976.192-1.328.576-.341.373-.512.875-.512 1.504V419h-2.16v-7.84h2.16v.88zm8.239 6c-.246.309-.571.576-.977.8-.394.213-.842.32-1.343.32-.715 0-1.296-.208-1.744-.624-.438-.427-.657-.965-.657-1.616 0-.661.209-1.227.625-1.696.426-.469.992-.741 1.695-.816l2.48-.24a1.52 1.52 0 00-.431-.864 1.231 1.231 0 00-.928-.384c-.363 0-.7.043-1.008.128-.31.075-.56.165-.753.272l-1.28-1.28c.342-.288.79-.533 1.345-.736a5.369 5.369 0 011.855-.304c.651 0 1.232.139 1.744.416.512.267.907.64 1.184 1.12.288.469.432.997.432 1.584V419h-2.16v-.96h-.08zm-1.68-2.288c-.267.011-.48.101-.64.272a.822.822 0 00-.24.576c0 .245.08.443.24.592.17.139.41.208.72.208.5 0 .906-.133 1.216-.4.309-.267.463-.651.463-1.152v-.16l-1.76.064zm8.006-7.952V419h-2.16v-11.2h2.16zm4.406 0V419h-2.16v-11.2h2.16zm11.214 0c.79 0 1.477.16 2.064.48a3.27 3.27 0 011.376 1.312c.32.565.48 1.221.48 1.968 0 .843-.187 1.541-.56 2.096-.374.555-.827.949-1.36 1.184l2.32 4.16h-2.64l-2-3.68h-2.24V419h-2.4v-11.2h4.96zm-.08 5.28c.437 0 .8-.144 1.088-.432.288-.288.432-.651.432-1.088 0-.437-.144-.8-.432-1.088-.288-.288-.65-.432-1.088-.432h-2.48v3.04h2.48zm5.281-5.28h2.8l2.288 3.68h.064l2.288-3.68h2.8l-3.52 5.36 3.84 5.84h-2.8l-2.608-4.16h-.064L97.55 419h-2.8l3.84-5.84-3.52-5.36z" class="Adderall RX"/>
              <path fill="#70747D" d="M289.71 442c0-.7.14-1.311.42-1.834.28-.523.621-.952 1.022-1.288a18.14 18.14 0 011.568-1.176c.504-.336.906-.625 1.204-.868.299-.243.546-.523.742-.84.196-.317.294-.672.294-1.064 0-.569-.186-1.027-.56-1.372-.373-.345-.886-.518-1.54-.518-.569 0-1.031.163-1.386.49a2.42 2.42 0 00-.714 1.19l-.91-.42a3.09 3.09 0 011.008-1.582c.514-.439 1.181-.658 2.002-.658.616 0 1.162.126 1.638.378s.845.597 1.106 1.036c.271.439.406.924.406 1.456 0 .513-.116.971-.35 1.372a4.096 4.096 0 01-.868 1.05c-.345.289-.802.63-1.372 1.022-.485.336-.872.621-1.162.854-.289.224-.56.49-.812.798-.242.299-.424.63-.546.994h5.11v.98h-6.3zm11.472-1.75c.187.271.434.504.742.7.308.187.644.28 1.008.28.476 0 .84-.103 1.092-.308.252-.215.378-.485.378-.812a.768.768 0 00-.392-.7c-.252-.159-.634-.313-1.148-.462-.457-.14-.826-.271-1.106-.392a2.029 2.029 0 01-.7-.56c-.196-.252-.294-.574-.294-.966 0-.327.094-.635.28-.924a2.16 2.16 0 01.798-.7 2.513 2.513 0 011.162-.266c.458 0 .873.089 1.246.266.383.177.691.392.924.644l-.7.7a1.723 1.723 0 00-.616-.49 1.727 1.727 0 00-.854-.21c-.373 0-.676.098-.91.294-.233.196-.35.425-.35.686 0 .289.122.509.364.658.243.14.621.285 1.134.434.458.14.826.275 1.106.406.29.131.532.327.728.588.206.252.308.583.308.994 0 .373-.098.714-.294 1.022-.196.308-.48.555-.854.742-.373.177-.807.266-1.302.266-.55 0-1.036-.112-1.456-.336a2.99 2.99 0 01-.994-.854l.7-.7zm5.246-4.97h1.26v-2.24h.98v2.24h1.82v.91h-1.82v3.99c0 .336.074.574.224.714.158.131.387.196.686.196h.91v.91h-.952c-.588 0-1.046-.149-1.372-.448-.318-.299-.476-.756-.476-1.372v-3.99h-1.26v-.91zm6.725.91c.177-.289.443-.537.798-.742.364-.205.798-.308 1.302-.308h.42v.98h-.42c-.374 0-.724.089-1.05.266a2.026 2.026 0 00-.77.77c-.187.327-.28.705-.28 1.134V442h-.98v-6.72h.98v.91zm9.379 4.802c-.298.317-.69.588-1.176.812a3.827 3.827 0 01-1.624.336 3.256 3.256 0 01-1.68-.462 3.583 3.583 0 01-1.232-1.274 3.548 3.548 0 01-.448-1.764 3.52 3.52 0 011.666-3.024 2.998 2.998 0 011.624-.476c.598 0 1.144.145 1.638.434.495.289.882.691 1.162 1.204.28.504.42 1.078.42 1.722 0 .177-.023.345-.07.504l-5.46-.014c.019.392.14.761.364 1.106.224.345.514.621.868.826.355.205.738.308 1.148.308.467 0 .887-.084 1.26-.252a2.87 2.87 0 00.91-.616l.63.63zm-.63-2.842c-.074-.607-.322-1.106-.742-1.498a2.064 2.064 0 00-1.498-.602c-.382 0-.742.098-1.078.294a2.453 2.453 0 00-.84.77 2.357 2.357 0 00-.392 1.036h4.55zm3.706-1.89a2.67 2.67 0 01.882-.784 2.452 2.452 0 011.288-.336c.532 0 1.003.117 1.414.35.42.233.742.569.966 1.008.233.429.35.933.35 1.512V442h-.98v-3.99c0-.588-.173-1.059-.518-1.414-.336-.364-.77-.546-1.302-.546-.392 0-.752.098-1.078.294a2.03 2.03 0 00-.756.784 2.444 2.444 0 00-.266 1.162V442h-.98v-6.72h.98v.98zm7.561 6.874c.233.252.537.462.91.63.383.177.803.266 1.26.266.42 0 .803-.107 1.148-.322.355-.215.635-.509.84-.882.215-.373.322-.789.322-1.246v-.77c-.196.289-.49.537-.882.742-.383.205-.835.308-1.358.308a2.983 2.983 0 01-1.596-.448 3.245 3.245 0 01-1.134-1.218 3.479 3.479 0 01-.42-1.694c0-.616.14-1.181.42-1.694.28-.513.658-.919 1.134-1.218a2.983 2.983 0 011.596-.448c.523 0 .975.103 1.358.308.392.205.686.453.882.742v-.91h.98v6.3c0 .616-.149 1.181-.448 1.694a3.243 3.243 0 01-1.19 1.218 3.18 3.18 0 01-1.652.448c-.616 0-1.167-.117-1.652-.35-.485-.224-.868-.499-1.148-.826l.63-.63zm2.24-2.184c.411 0 .789-.107 1.134-.322.345-.215.616-.509.812-.882a2.64 2.64 0 00.294-1.246 2.64 2.64 0 00-.294-1.246 2.252 2.252 0 00-.812-.882 2.102 2.102 0 00-1.134-.322c-.392 0-.756.107-1.092.322a2.325 2.325 0 00-.784.882 2.64 2.64 0 00-.294 1.246c0 .457.098.873.294 1.246.196.373.457.667.784.882.336.215.7.322 1.092.322zm4.761-5.67h1.26v-2.24h.98v2.24h1.82v.91h-1.82v3.99c0 .336.075.574.224.714.159.131.387.196.686.196h.91v.91h-.952c-.588 0-1.045-.149-1.372-.448-.317-.299-.476-.756-.476-1.372v-3.99h-1.26v-.91zm6.795.98a2.69 2.69 0 01.882-.784 2.454 2.454 0 011.288-.336c.532 0 1.003.117 1.414.35.42.233.742.569.966 1.008.233.429.35.933.35 1.512V442h-.98v-3.99c0-.588-.173-1.059-.518-1.414-.336-.364-.77-.546-1.302-.546-.392 0-.751.098-1.078.294a2.044 2.044 0 00-.756.784 2.456 2.456 0 00-.266 1.162V442h-.98v-9.8h.98v4.06zm7.209 3.99c.187.271.434.504.742.7.308.187.644.28 1.008.28.476 0 .84-.103 1.092-.308.252-.215.378-.485.378-.812a.768.768 0 00-.392-.7c-.252-.159-.634-.313-1.148-.462-.457-.14-.826-.271-1.106-.392a2.029 2.029 0 01-.7-.56c-.196-.252-.294-.574-.294-.966 0-.327.094-.635.28-.924a2.16 2.16 0 01.798-.7 2.513 2.513 0 011.162-.266c.458 0 .873.089 1.246.266.383.177.691.392.924.644l-.7.7a1.723 1.723 0 00-.616-.49 1.727 1.727 0 00-.854-.21c-.373 0-.676.098-.91.294-.233.196-.35.425-.35.686 0 .289.122.509.364.658.243.14.621.285 1.134.434.458.14.826.275 1.106.406.29.131.532.327.728.588.206.252.308.583.308.994 0 .373-.098.714-.294 1.022-.196.308-.48.555-.854.742-.373.177-.807.266-1.302.266-.55 0-1.036-.112-1.456-.336a2.99 2.99 0 01-.994-.854l.7-.7z" class="2 strengths"/>
              <path fill="#25272E" d="M16.84 437.1c0-.915.224-1.759.672-2.534a4.938 4.938 0 011.834-1.834 4.973 4.973 0 012.534-.672c.915 0 1.76.224 2.534.672a4.938 4.938 0 011.834 1.834c.448.775.672 1.619.672 2.534 0 .915-.224 1.759-.672 2.534a4.938 4.938 0 01-1.834 1.834 4.973 4.973 0 01-2.534.672c-.915 0-1.76-.224-2.534-.672a4.938 4.938 0 01-1.834-1.834 4.973 4.973 0 01-.672-2.534zm5.04 4.06a3.927 3.927 0 003.458-1.988 4.125 4.125 0 00.532-2.072 4.05 4.05 0 00-.532-2.058 3.9 3.9 0 00-3.458-2.002 3.9 3.9 0 00-3.458 2.002 4.05 4.05 0 00-.532 2.058c0 .756.177 1.447.532 2.072a3.927 3.927 0 003.458 1.988zm7.978-4.97c.177-.289.443-.537.798-.742.364-.205.798-.308 1.302-.308h.42v.98h-.42c-.373 0-.723.089-1.05.266a2.03 2.03 0 00-.77.77c-.187.327-.28.705-.28 1.134V442h-.98v-6.72h.98v.91zm7.906 4.9a2.688 2.688 0 01-.882.742 2.633 2.633 0 01-1.288.308c-.448 0-.854-.093-1.218-.28a2.264 2.264 0 01-.854-.728 1.695 1.695 0 01-.308-.952c0-.569.168-1.036.504-1.4.345-.364.83-.574 1.456-.63l2.59-.224c0-.327-.075-.635-.224-.924a1.656 1.656 0 00-.602-.686 1.45 1.45 0 00-.854-.266c-.392 0-.751.047-1.078.14a2.98 2.98 0 00-.812.35l-.63-.63c.28-.215.64-.397 1.078-.546.439-.149.92-.224 1.442-.224.504 0 .957.117 1.358.35.41.224.728.532.952.924.233.392.35.831.35 1.316V442h-.98v-.91zm-2.31-2.1c-.41.037-.723.163-.938.378a1.1 1.1 0 00-.322.812c0 .299.121.551.364.756.252.196.597.294 1.036.294.653 0 1.176-.177 1.568-.532.401-.364.602-.868.602-1.512v-.42l-2.31.224zm6.163-6.79v9.8h-.98v-9.8h.98zm9.518 0c.597 0 1.134.135 1.61.406.485.271.863.639 1.134 1.106.27.467.406.989.406 1.568 0 .579-.135 1.101-.406 1.568-.27.467-.649.835-1.134 1.106a3.196 3.196 0 01-1.61.406h-2.66V442h-1.05v-9.8h3.71zm0 5.18c.635 0 1.143-.191 1.526-.574.383-.392.574-.901.574-1.526 0-.635-.191-1.143-.574-1.526-.383-.383-.891-.574-1.526-.574h-2.66v4.2h2.66zm4.632-4.34c0-.177.06-.327.182-.448a.61.61 0 01.448-.182.61.61 0 01.448.182.609.609 0 01.182.448c0 .177-.06.327-.182.448a.61.61 0 01-.448.182.61.61 0 01-.448-.182.609.609 0 01-.182-.448zm1.12 2.24V442h-.98v-6.72h.98zm3.297-3.08v9.8h-.98v-9.8h.98zm3.363 0v9.8h-.98v-9.8h.98z" class="Oral Pill_2"/>
            </g>
          </g>
        </g>
      </g>
    </g>
    <g class="Cluster">
      <g class="Battery">
        <path stroke="#000" d="M336.496 19.965c0-1.196.97-2.166 2.167-2.166h16.666c1.196 0 2.167.97 2.167 2.166v5.979a2.167 2.167 0 01-2.167 2.167h-16.666a2.167 2.167 0 01-2.167-2.167v-5.979z" class="Rectangle_2" opacity=".35"/>
        <path fill="#000" d="M358.996 20.959v3.992a2.167 2.167 0 001.328-1.996c0-.871-.524-1.658-1.328-1.996z" class="Combined Shape" opacity=".4"/>
        <path fill="#000" d="M337.996 20.628c0-.736.597-1.333 1.333-1.333h15.333c.737 0 1.334.597 1.334 1.333v4.653c0 .736-.597 1.333-1.334 1.333h-15.333a1.333 1.333 0 01-1.333-1.333v-4.653z" class="Rectangle_3"/>
      </g>
      <path fill="#000" fill-rule="evenodd" d="M323.327 19.57c2.216 0 4.347.85 5.953 2.374a.308.308 0 00.433-.004l1.156-1.164a.32.32 0 00-.003-.455c-4.215-4.032-10.864-4.032-15.079 0a.32.32 0 00-.003.455l1.156 1.164c.119.12.312.121.433.004a8.65 8.65 0 015.954-2.374zm0 3.788c1.217 0 2.391.452 3.294 1.268a.31.31 0 00.433-.006l1.155-1.165a.32.32 0 00.093-.23.318.318 0 00-.098-.228 7.169 7.169 0 00-9.752 0 .32.32 0 00-.004.458l1.154 1.165a.31.31 0 00.433.006 4.913 4.913 0 013.292-1.268zm2.313 2.55a.311.311 0 01-.094.23l-1.997 2.011a.314.314 0 01-.444 0l-1.997-2.012a.312.312 0 01.009-.456 3.426 3.426 0 014.419 0c.065.058.102.14.104.226z" class="Wifi" clip-rule="evenodd"/>
      <path fill="#000" fill-rule="evenodd" d="M309.663 17.633h-1a1 1 0 00-1 .998v8.65a1 1 0 001 .998h1c.553 0 1-.447 1-.998v-8.65a.999.999 0 00-1-.998zm-5.666 2.329h1a1 1 0 011 .998v6.321a1 1 0 01-1 .998h-1a1 1 0 01-1-.998V20.96a1 1 0 011-.998zm-3.667 2.329h-1a1 1 0 00-1 .998v3.992a1 1 0 001 .998h1c.553 0 1-.447 1-.998V23.29a.999.999 0 00-1-.998zm-4.666 1.996h-1a1 1 0 00-1 .998v1.996a1 1 0 001 .998h1a1 1 0 001-.998v-1.996a1 1 0 00-1-.998z" class="Mobile Signal" clip-rule="evenodd"/>
    </g>
    <g class="Time Style">
      <path fill="#000" d="M33.842 20.539v.021h1.772v-.029c0-1.047.82-1.823 1.92-1.823 1.047 0 1.83.695 1.83 1.567 0 .79-.33 1.333-1.53 2.556l-3.89 3.867v1.275h7.427v-1.546h-4.907v-.036l2.615-2.586c1.384-1.399 2.131-2.35 2.131-3.61 0-1.715-1.509-3.004-3.618-3.004-2.19 0-3.75 1.4-3.75 3.348zm9.888 5.888a1.04 1.04 0 001.047-1.054 1.04 1.04 0 00-1.047-1.055c-.593 0-1.055.461-1.055 1.055 0 .593.462 1.054 1.055 1.054zm0-5.288c.586 0 1.047-.469 1.047-1.055a1.04 1.04 0 00-1.047-1.054c-.593 0-1.055.461-1.055 1.054 0 .586.462 1.055 1.055 1.055zm6.49 7.046c2.585 0 4.123-2.131 4.123-5.515s-1.553-5.479-4.124-5.479c-2.578 0-4.138 2.11-4.138 5.486 0 3.391 1.546 5.508 4.138 5.508zm0-1.545c-1.407 0-2.234-1.48-2.234-3.97 0-2.446.842-3.933 2.233-3.933 1.385 0 2.212 1.472 2.212 3.94 0 2.49-.813 3.963-2.212 3.963zm5.53 1.333h1.977l4.52-8.994v-1.575h-7.354v1.545h5.493v.037l-4.637 8.987z" class="9:41"/>
    </g>
    <g class=".Navigation primitives/L1–2/Native/Nav bar (black)">
      <g class="Right">
        <g class="Navigation UI/Secondary/Native/Help">
          <g class="Vector_2">
            <path fill="#25272E" d="M351 75.5a9.5 9.5 0 009.5-9.5 9.5 9.5 0 00-9.5-9.5 9.5 9.5 0 00-9.5 9.5 9.5 9.5 0 009.5 9.5zm0 1.5c-6.075 0-11-4.925-11-11s4.925-11 11-11 11 4.925 11 11-4.925 11-11 11z"/>
            <path fill="#25272E" d="M349.81 67.573c0-2.03 2.38-2.03 2.38-3.52a1.136 1.136 0 00-.807-1.008 1.14 1.14 0 00-.453-.042 1.719 1.719 0 00-1.68 1.15l-1.75-.77a3.56 3.56 0 013.5-2.38c2.07 0 3.36 1.32 3.36 2.79 0 2.59-2.52 2.59-2.52 4.41h-1.89a2.067 2.067 0 01-.14-.63zm-.14 2.52a1.085 1.085 0 01.33-.782 1.083 1.083 0 01.79-.308 1.119 1.119 0 11-1.12 1.09z"/>
          </g>
        </g>
      </g>
      <g class="Left">
        <g class="Navigation UI/Secondary/Native/Back">
          <path fill="#25272E" fill-rule="evenodd" d="M27.002 57.36l-8.157 7.831c-.46.44-.46 1.176 0 1.619l8.157 7.83a1.292 1.292 0 101.79-1.865l-6.832-6.559a.299.299 0 010-.433l6.833-6.56a1.293 1.293 0 00-1.79-1.864z" class="Back" clip-rule="evenodd"/>
        </g>
      </g>
    </g>
    <g class="Explorer Step Dot/Complete">
      <circle cx="141.5" cy="63.5" r="2.5" fill="#03948C" class="Dot"/>
    </g>
    <g class="Explorer Step Dot/Complete_2">
      <circle cx="154.5" cy="63.5" r="2.5" fill="#03948C" class="Dot_2"/>
    </g>
    <g class="Explorer Step Dot/Complete_3">
      <circle cx="167.5" cy="63.5" r="2.5" fill="#03948C" class="Dot_3"/>
    </g>
    <g class="Explorer Step Dot/Complete_4">
      <circle cx="180.5" cy="63.5" r="2.5" fill="#03948C" class="Dot_4"/>
    </g>
    <g class="Explorer Step Dot/Complete_5">
      <circle cx="193.5" cy="63.5" r="2.5" fill="#03948C" class="Dot_5"/>
    </g>
    <g class="Explorer Step Dot/Complete_6">
      <circle cx="206.5" cy="63.5" r="2.5" fill="#03948C" class="Dot_6"/>
    </g>
    <g class="Explorer Step Dot/Current">
      <circle cx="219.5" cy="63.5" r="4" fill="#03948C" class="Grande Dot"/>
    </g>
    <g class="Explorer Step Dot/Upcoming">
      <circle cx="232.5" cy="63.5" r="2.5" fill="#CEE1E5" class="Dot_7"/>
    </g>
    <g class="iOS/Home Bar/Black">
      <path fill="#000" fill-rule="evenodd" d="M121 800.5a2.5 2.5 0 012.5-2.5h129a2.5 2.5 0 110 5h-129a2.5 2.5 0 01-2.5-2.5z" class="Rectangle_4" clip-rule="evenodd"/>
    </g>
  </g>
  <defs>
    <linearGradient id="paint0_linear" x1="111.5" x2="296.815" y1="120.362" y2="781.352" class="paint0_linear" gradientUnits="userSpaceOnUse">
      <stop stop-color="#E4F0F0" stop-opacity="0"/>
      <stop offset="1" stop-color="#E4F0F0"/>
    </linearGradient>
    <clipPath id="clip0" class="clip0">
      <path fill="#fff" d="M0 0h375v812H0z"/>
    </clipPath>
    <filter id="filter0_d" width="447" height="771" x="-36" y="77" class="filter0_d" color-interpolation-filters="sRGB" filterUnits="userSpaceOnUse">
      <feFlood flood-opacity="0" result="BackgroundImageFix"/>
      <feColorMatrix in="SourceAlpha" values="0 0 0 0 0 0 0 0 0 0 0 0 0 0 0 0 0 0 127 0"/>
      <feMorphology in="SourceAlpha" operator="dilate" radius="4" result="effect1_dropShadow"/>
      <feOffset/>
      <feGaussianBlur stdDeviation="16"/>
      <feColorMatrix values="0 0 0 0 0.4056 0 0 0 0 0.500104 0 0 0 0 0.52 0 0 0 0.12 0"/>
      <feBlend in2="BackgroundImageFix" mode="multiply" result="effect1_dropShadow"/>
      <feBlend in="SourceGraphic" in2="effect1_dropShadow" result="shape"/>
    </filter>
  </defs>
</svg>
