<svg width="375" height="812" viewBox="0 0 375 812" fill="none" xmlns="http://www.w3.org/2000/svg">
<g clip-path="url(#clip0)">
<rect width="375" height="812" fill="white"/>
<rect y="98" width="375" height="621" fill="url(#paint0_linear)"/>
<path d="M24.9 389L30.3 403H27.1L25.9 399.8H20.5L19.3 403H16.1L21.5 389H24.9ZM23.24 392.5H23.16L21.5 397.1H24.9L23.24 392.5ZM34.3945 394.3H34.4945C34.6812 393.993 34.9812 393.733 35.3945 393.52C35.8079 393.307 36.3279 393.2 36.9545 393.2H37.5945V395.8H36.6945C36.0279 395.8 35.4745 396.04 35.0345 396.52C34.6079 396.987 34.3945 397.613 34.3945 398.4V403H31.6945V393.2H34.3945V394.3ZM47.8969 402.06C47.4435 402.38 46.8502 402.653 46.1169 402.88C45.3835 403.093 44.5769 403.2 43.6969 403.2C42.7502 403.2 41.8769 402.973 41.0769 402.52C40.2769 402.053 39.6435 401.433 39.1769 400.66C38.7235 399.873 38.4969 399.02 38.4969 398.1C38.4969 397.18 38.7235 396.333 39.1769 395.56C39.6435 394.773 40.2635 394.153 41.0369 393.7C41.8235 393.233 42.6769 393 43.5969 393C44.4769 393 45.2902 393.22 46.0369 393.66C46.7969 394.1 47.3969 394.7 47.8369 395.46C48.2769 396.207 48.4969 397.02 48.4969 397.9C48.4969 398.34 48.4635 398.74 48.3969 399.1H41.2969C41.4569 399.593 41.7502 400 42.1769 400.32C42.6169 400.64 43.1902 400.8 43.8969 400.8C44.4569 400.8 44.9569 400.74 45.3969 400.62C45.8502 400.487 46.2169 400.333 46.4969 400.16L47.8969 402.06ZM45.6969 397.1C45.5369 396.62 45.2569 396.22 44.8569 395.9C44.4702 395.567 44.0169 395.4 43.4969 395.4C42.9769 395.4 42.5169 395.567 42.1169 395.9C41.7302 396.22 41.4569 396.62 41.2969 397.1H45.6969ZM54.2125 393.4H55.9125V390.4H58.6125V393.4H61.0125V395.9H58.6125V399.28C58.6125 399.72 58.7258 400.047 58.9525 400.26C59.1792 400.473 59.4992 400.58 59.9125 400.58H61.0125V403H59.2125C58.1858 403 57.3792 402.713 56.7925 402.14C56.2058 401.567 55.9125 400.72 55.9125 399.6V395.9H54.2125V393.4ZM65.9203 394.6H66.0203C66.327 394.16 66.727 393.787 67.2203 393.48C67.727 393.16 68.2936 393 68.9203 393C69.587 393 70.1936 393.173 70.7403 393.52C71.287 393.853 71.7203 394.333 72.0403 394.96C72.3603 395.573 72.5203 396.287 72.5203 397.1V403H69.8203V397.5C69.8203 396.9 69.6603 396.433 69.3403 396.1C69.0203 395.767 68.5803 395.6 68.0203 395.6C67.4203 395.6 66.9203 395.807 66.5203 396.22C66.1203 396.633 65.9203 397.16 65.9203 397.8V403H63.2203V389H65.9203V394.6ZM83.9125 402.06C83.4592 402.38 82.8658 402.653 82.1325 402.88C81.3992 403.093 80.5925 403.2 79.7125 403.2C78.7658 403.2 77.8925 402.973 77.0925 402.52C76.2925 402.053 75.6592 401.433 75.1925 400.66C74.7392 399.873 74.5125 399.02 74.5125 398.1C74.5125 397.18 74.7392 396.333 75.1925 395.56C75.6592 394.773 76.2792 394.153 77.0525 393.7C77.8392 393.233 78.6925 393 79.6125 393C80.4925 393 81.3058 393.22 82.0525 393.66C82.8125 394.1 83.4125 394.7 83.8525 395.46C84.2925 396.207 84.5125 397.02 84.5125 397.9C84.5125 398.34 84.4792 398.74 84.4125 399.1H77.3125C77.4725 399.593 77.7658 400 78.1925 400.32C78.6325 400.64 79.2058 400.8 79.9125 400.8C80.4725 400.8 80.9725 400.74 81.4125 400.62C81.8658 400.487 82.2325 400.333 82.5125 400.16L83.9125 402.06ZM81.7125 397.1C81.5525 396.62 81.2725 396.22 80.8725 395.9C80.4858 395.567 80.0325 395.4 79.5125 395.4C78.9925 395.4 78.5325 395.567 78.1325 395.9C77.7458 396.22 77.4725 396.62 77.3125 397.1H81.7125ZM89.2188 394.3H89.3188C89.5054 393.993 89.8054 393.733 90.2188 393.52C90.6321 393.307 91.1521 393.2 91.7788 393.2H92.4188V395.8H91.5188C90.8521 395.8 90.2988 396.04 89.8588 396.52C89.4321 396.987 89.2188 397.613 89.2188 398.4V403H86.5188V393.2H89.2188V394.3ZM102.721 402.06C102.268 402.38 101.674 402.653 100.941 402.88C100.208 403.093 99.4011 403.2 98.5211 403.2C97.5744 403.2 96.7011 402.973 95.9011 402.52C95.1011 402.053 94.4678 401.433 94.0011 400.66C93.5478 399.873 93.3211 399.02 93.3211 398.1C93.3211 397.18 93.5478 396.333 94.0011 395.56C94.4678 394.773 95.0878 394.153 95.8611 393.7C96.6478 393.233 97.5011 393 98.4211 393C99.3011 393 100.114 393.22 100.861 393.66C101.621 394.1 102.221 394.7 102.661 395.46C103.101 396.207 103.321 397.02 103.321 397.9C103.321 398.34 103.288 398.74 103.221 399.1H96.1211C96.2811 399.593 96.5744 400 97.0011 400.32C97.4411 400.64 98.0144 400.8 98.7211 400.8C99.2811 400.8 99.7811 400.74 100.221 400.62C100.674 400.487 101.041 400.333 101.321 400.16L102.721 402.06ZM100.521 397.1C100.361 396.62 100.081 396.22 99.6811 395.9C99.2944 395.567 98.8411 395.4 98.3211 395.4C97.8011 395.4 97.3411 395.567 96.9411 395.9C96.5544 396.22 96.2811 396.62 96.1211 397.1H100.521ZM112.637 394.6H112.737C113.043 394.16 113.463 393.787 113.997 393.48C114.53 393.16 115.143 393 115.837 393C116.61 393 117.33 393.22 117.997 393.66C118.677 394.1 119.217 394.707 119.617 395.48C120.03 396.253 120.237 397.127 120.237 398.1C120.237 399.073 120.03 399.947 119.617 400.72C119.217 401.493 118.677 402.1 117.997 402.54C117.33 402.98 116.61 403.2 115.837 403.2C115.143 403.2 114.53 403.047 113.997 402.74C113.463 402.42 113.043 402.04 112.737 401.6H112.637V407.2H109.937V393.2H112.637V394.6ZM115.037 400.7C115.743 400.7 116.337 400.453 116.817 399.96C117.297 399.467 117.537 398.847 117.537 398.1C117.537 397.353 117.297 396.733 116.817 396.24C116.337 395.747 115.743 395.5 115.037 395.5C114.33 395.5 113.737 395.747 113.257 396.24C112.777 396.733 112.537 397.353 112.537 398.1C112.537 398.847 112.777 399.467 113.257 399.96C113.737 400.453 114.33 400.7 115.037 400.7ZM124.941 394.3H125.041C125.228 393.993 125.528 393.733 125.941 393.52C126.355 393.307 126.875 393.2 127.501 393.2H128.141V395.8H127.241C126.575 395.8 126.021 396.04 125.581 396.52C125.155 396.987 124.941 397.613 124.941 398.4V403H122.241V393.2H124.941V394.3ZM138.444 402.06C137.99 402.38 137.397 402.653 136.664 402.88C135.93 403.093 135.124 403.2 134.244 403.2C133.297 403.2 132.424 402.973 131.624 402.52C130.824 402.053 130.19 401.433 129.724 400.66C129.27 399.873 129.044 399.02 129.044 398.1C129.044 397.18 129.27 396.333 129.724 395.56C130.19 394.773 130.81 394.153 131.584 393.7C132.37 393.233 133.224 393 134.144 393C135.024 393 135.837 393.22 136.584 393.66C137.344 394.1 137.944 394.7 138.384 395.46C138.824 396.207 139.044 397.02 139.044 397.9C139.044 398.34 139.01 398.74 138.944 399.1H131.844C132.004 399.593 132.297 400 132.724 400.32C133.164 400.64 133.737 400.8 134.444 400.8C135.004 400.8 135.504 400.74 135.944 400.62C136.397 400.487 136.764 400.333 137.044 400.16L138.444 402.06ZM136.244 397.1C136.084 396.62 135.804 396.22 135.404 395.9C135.017 395.567 134.564 395.4 134.044 395.4C133.524 395.4 133.064 395.567 132.664 395.9C132.277 396.22 132.004 396.62 131.844 397.1H136.244ZM141.65 399.7C141.957 400.007 142.337 400.267 142.79 400.48C143.243 400.693 143.73 400.8 144.25 400.8C145.05 400.8 145.45 400.567 145.45 400.1C145.45 399.913 145.323 399.76 145.07 399.64C144.83 399.507 144.443 399.353 143.91 399.18C143.217 398.94 142.637 398.713 142.17 398.5C141.703 398.273 141.297 397.96 140.95 397.56C140.617 397.147 140.45 396.627 140.45 396C140.45 395.453 140.603 394.953 140.91 394.5C141.217 394.047 141.663 393.687 142.25 393.42C142.85 393.14 143.55 393 144.35 393C145.163 393 145.897 393.147 146.55 393.44C147.217 393.733 147.75 394.087 148.15 394.5L146.55 396.2C146.31 395.973 145.997 395.787 145.61 395.64C145.223 395.48 144.803 395.4 144.35 395.4C144.017 395.4 143.763 395.46 143.59 395.58C143.43 395.7 143.35 395.84 143.35 396C143.35 396.187 143.47 396.347 143.71 396.48C143.963 396.6 144.357 396.747 144.89 396.92C145.583 397.16 146.163 397.393 146.63 397.62C147.097 397.833 147.497 398.147 147.83 398.56C148.177 398.96 148.35 399.473 148.35 400.1C148.35 400.673 148.19 401.2 147.87 401.68C147.563 402.147 147.097 402.52 146.47 402.8C145.857 403.067 145.117 403.2 144.25 403.2C143.37 403.2 142.563 403.027 141.83 402.68C141.097 402.333 140.503 401.907 140.05 401.4L141.65 399.7ZM158.852 401.2C158.452 401.76 157.898 402.233 157.192 402.62C156.485 403.007 155.672 403.2 154.752 403.2C153.805 403.2 152.932 402.973 152.132 402.52C151.332 402.053 150.698 401.433 150.232 400.66C149.778 399.873 149.552 399.02 149.552 398.1C149.552 397.18 149.778 396.333 150.232 395.56C150.698 394.773 151.332 394.153 152.132 393.7C152.932 393.233 153.805 393 154.752 393C155.672 393 156.485 393.193 157.192 393.58C157.898 393.967 158.452 394.44 158.852 395L157.152 396.7C156.885 396.367 156.538 396.087 156.112 395.86C155.698 395.62 155.245 395.5 154.752 395.5C154.045 395.5 153.452 395.747 152.972 396.24C152.492 396.733 152.252 397.353 152.252 398.1C152.252 398.847 152.492 399.467 152.972 399.96C153.452 400.453 154.045 400.7 154.752 400.7C155.245 400.7 155.698 400.587 156.112 400.36C156.538 400.12 156.885 399.833 157.152 399.5L158.852 401.2ZM163.242 394.3H163.342C163.529 393.993 163.829 393.733 164.242 393.52C164.656 393.307 165.176 393.2 165.802 393.2H166.442V395.8H165.542C164.876 395.8 164.322 396.04 163.882 396.52C163.456 396.987 163.242 397.613 163.242 398.4V403H160.542V393.2H163.242V394.3ZM167.94 390.4C167.94 390 168.093 389.653 168.4 389.36C168.707 389.053 169.073 388.9 169.5 388.9C169.913 388.9 170.273 389.053 170.58 389.36C170.887 389.653 171.04 390 171.04 390.4C171.04 390.8 170.887 391.153 170.58 391.46C170.273 391.753 169.907 391.9 169.48 391.9C169.067 391.9 168.707 391.753 168.4 391.46C168.093 391.153 167.94 390.8 167.94 390.4ZM170.84 393.2V403H168.14V393.2H170.84ZM176.133 394.6H176.233C176.539 394.16 176.959 393.787 177.493 393.48C178.026 393.16 178.639 393 179.333 393C180.106 393 180.826 393.22 181.493 393.66C182.173 394.1 182.713 394.707 183.113 395.48C183.526 396.253 183.733 397.127 183.733 398.1C183.733 399.073 183.526 399.947 183.113 400.72C182.713 401.493 182.173 402.1 181.493 402.54C180.826 402.98 180.106 403.2 179.333 403.2C178.639 403.2 178.026 403.047 177.493 402.74C176.959 402.42 176.539 402.04 176.233 401.6H176.133V407.2H173.433V393.2H176.133V394.6ZM178.533 400.7C179.239 400.7 179.833 400.453 180.313 399.96C180.793 399.467 181.033 398.847 181.033 398.1C181.033 397.353 180.793 396.733 180.313 396.24C179.833 395.747 179.239 395.5 178.533 395.5C177.826 395.5 177.233 395.747 176.753 396.24C176.273 396.733 176.033 397.353 176.033 398.1C176.033 398.847 176.273 399.467 176.753 399.96C177.233 400.453 177.826 400.7 178.533 400.7ZM184.838 393.4H186.538V390.4H189.238V393.4H191.638V395.9H189.238V399.28C189.238 399.72 189.351 400.047 189.577 400.26C189.804 400.473 190.124 400.58 190.538 400.58H191.638V403H189.838C188.811 403 188.004 402.713 187.418 402.14C186.831 401.567 186.538 400.72 186.538 399.6V395.9H184.838V393.4ZM193.545 390.4C193.545 390 193.699 389.653 194.005 389.36C194.312 389.053 194.679 388.9 195.105 388.9C195.519 388.9 195.879 389.053 196.185 389.36C196.492 389.653 196.645 390 196.645 390.4C196.645 390.8 196.492 391.153 196.185 391.46C195.879 391.753 195.512 391.9 195.085 391.9C194.672 391.9 194.312 391.753 194.005 391.46C193.699 391.153 193.545 390.8 193.545 390.4ZM196.445 393.2V403H193.745V393.2H196.445ZM198.438 398.1C198.438 397.18 198.665 396.333 199.118 395.56C199.585 394.773 200.218 394.153 201.018 393.7C201.818 393.233 202.692 393 203.638 393C204.585 393 205.458 393.233 206.258 393.7C207.058 394.153 207.685 394.773 208.138 395.56C208.605 396.333 208.838 397.18 208.838 398.1C208.838 399.02 208.605 399.873 208.138 400.66C207.685 401.433 207.058 402.053 206.258 402.52C205.458 402.973 204.585 403.2 203.638 403.2C202.692 403.2 201.818 402.973 201.018 402.52C200.218 402.053 199.585 401.433 199.118 400.66C198.665 399.873 198.438 399.02 198.438 398.1ZM203.638 400.7C204.345 400.7 204.938 400.453 205.418 399.96C205.898 399.467 206.138 398.847 206.138 398.1C206.138 397.353 205.898 396.733 205.418 396.24C204.938 395.747 204.345 395.5 203.638 395.5C202.932 395.5 202.338 395.747 201.858 396.24C201.378 396.733 201.138 397.353 201.138 398.1C201.138 398.847 201.378 399.467 201.858 399.96C202.338 400.453 202.932 400.7 203.638 400.7ZM213.535 394.6H213.635C213.942 394.16 214.342 393.787 214.835 393.48C215.342 393.16 215.908 393 216.535 393C217.202 393 217.808 393.173 218.355 393.52C218.902 393.853 219.335 394.333 219.655 394.96C219.975 395.573 220.135 396.287 220.135 397.1V403H217.435V397.5C217.435 396.9 217.275 396.433 216.955 396.1C216.635 395.767 216.195 395.6 215.635 395.6C215.035 395.6 214.535 395.807 214.135 396.22C213.735 396.633 213.535 397.16 213.535 397.8V403H210.835V393.2H213.535V394.6ZM223.33 399.7C223.636 400.007 224.016 400.267 224.47 400.48C224.923 400.693 225.41 400.8 225.93 400.8C226.73 400.8 227.13 400.567 227.13 400.1C227.13 399.913 227.003 399.76 226.75 399.64C226.51 399.507 226.123 399.353 225.59 399.18C224.896 398.94 224.316 398.713 223.85 398.5C223.383 398.273 222.976 397.96 222.63 397.56C222.296 397.147 222.13 396.627 222.13 396C222.13 395.453 222.283 394.953 222.59 394.5C222.896 394.047 223.343 393.687 223.93 393.42C224.53 393.14 225.23 393 226.03 393C226.843 393 227.576 393.147 228.23 393.44C228.896 393.733 229.43 394.087 229.83 394.5L228.23 396.2C227.99 395.973 227.676 395.787 227.29 395.64C226.903 395.48 226.483 395.4 226.03 395.4C225.696 395.4 225.443 395.46 225.27 395.58C225.11 395.7 225.03 395.84 225.03 396C225.03 396.187 225.15 396.347 225.39 396.48C225.643 396.6 226.036 396.747 226.57 396.92C227.263 397.16 227.843 397.393 228.31 397.62C228.776 397.833 229.176 398.147 229.51 398.56C229.856 398.96 230.03 399.473 230.03 400.1C230.03 400.673 229.87 401.2 229.55 401.68C229.243 402.147 228.776 402.52 228.15 402.8C227.536 403.067 226.796 403.2 225.93 403.2C225.05 403.2 224.243 403.027 223.51 402.68C222.776 402.333 222.183 401.907 221.73 401.4L223.33 399.7ZM236.55 404.6C237.363 404.6 237.93 404.2 238.25 403.4L238.45 402.9L234.65 393.2H237.55L239.85 399.7H239.95L242.15 393.2H245.05L241.05 403.8C240.623 404.933 240.103 405.78 239.49 406.34C238.877 406.913 238.13 407.2 237.25 407.2H235.45V404.6H236.55ZM245.645 398.1C245.645 397.18 245.872 396.333 246.325 395.56C246.792 394.773 247.425 394.153 248.225 393.7C249.025 393.233 249.899 393 250.845 393C251.792 393 252.665 393.233 253.465 393.7C254.265 394.153 254.892 394.773 255.345 395.56C255.812 396.333 256.045 397.18 256.045 398.1C256.045 399.02 255.812 399.873 255.345 400.66C254.892 401.433 254.265 402.053 253.465 402.52C252.665 402.973 251.792 403.2 250.845 403.2C249.899 403.2 249.025 402.973 248.225 402.52C247.425 402.053 246.792 401.433 246.325 400.66C245.872 399.873 245.645 399.02 245.645 398.1ZM250.845 400.7C251.552 400.7 252.145 400.453 252.625 399.96C253.105 399.467 253.345 398.847 253.345 398.1C253.345 397.353 253.105 396.733 252.625 396.24C252.145 395.747 251.552 395.5 250.845 395.5C250.139 395.5 249.545 395.747 249.065 396.24C248.585 396.733 248.345 397.353 248.345 398.1C248.345 398.847 248.585 399.467 249.065 399.96C249.545 400.453 250.139 400.7 250.845 400.7ZM260.742 398.7C260.742 399.3 260.902 399.767 261.222 400.1C261.542 400.433 261.982 400.6 262.542 400.6C263.142 400.6 263.642 400.393 264.042 399.98C264.442 399.567 264.642 399.04 264.642 398.4V393.2H267.342V403H264.642V401.6H264.542C264.236 402.04 263.829 402.42 263.322 402.74C262.829 403.047 262.269 403.2 261.642 403.2C260.976 403.2 260.369 403.033 259.822 402.7C259.276 402.353 258.842 401.873 258.522 401.26C258.202 400.633 258.042 399.913 258.042 399.1V393.2H260.742V398.7ZM20 422.6H20.1C20.4067 422.16 20.8067 421.787 21.3 421.48C21.8067 421.16 22.3733 421 23 421C23.6667 421 24.2733 421.173 24.82 421.52C25.3667 421.853 25.8 422.333 26.12 422.96C26.44 423.573 26.6 424.287 26.6 425.1V431H23.9V425.5C23.9 424.9 23.74 424.433 23.42 424.1C23.1 423.767 22.66 423.6 22.1 423.6C21.5 423.6 21 423.807 20.6 424.22C20.2 424.633 20 425.16 20 425.8V431H17.3V421.2H20V422.6ZM37.9945 430.06C37.5412 430.38 36.9479 430.653 36.2145 430.88C35.4812 431.093 34.6745 431.2 33.7945 431.2C32.8479 431.2 31.9745 430.973 31.1745 430.52C30.3745 430.053 29.7412 429.433 29.2745 428.66C28.8212 427.873 28.5945 427.02 28.5945 426.1C28.5945 425.18 28.8212 424.333 29.2745 423.56C29.7412 422.773 30.3612 422.153 31.1345 421.7C31.9212 421.233 32.7745 421 33.6945 421C34.5745 421 35.3879 421.22 36.1345 421.66C36.8945 422.1 37.4945 422.7 37.9345 423.46C38.3745 424.207 38.5945 425.02 38.5945 425.9C38.5945 426.34 38.5612 426.74 38.4945 427.1H31.3945C31.5545 427.593 31.8479 428 32.2745 428.32C32.7145 428.64 33.2879 428.8 33.9945 428.8C34.5545 428.8 35.0545 428.74 35.4945 428.62C35.9479 428.487 36.3145 428.333 36.5945 428.16L37.9945 430.06ZM35.7945 425.1C35.6345 424.62 35.3545 424.22 34.9545 423.9C34.5679 423.567 34.1145 423.4 33.5945 423.4C33.0745 423.4 32.6145 423.567 32.2145 423.9C31.8279 424.22 31.5545 424.62 31.3945 425.1H35.7945ZM49.4008 430.06C48.9474 430.38 48.3541 430.653 47.6208 430.88C46.8874 431.093 46.0808 431.2 45.2008 431.2C44.2541 431.2 43.3808 430.973 42.5808 430.52C41.7808 430.053 41.1474 429.433 40.6808 428.66C40.2274 427.873 40.0008 427.02 40.0008 426.1C40.0008 425.18 40.2274 424.333 40.6808 423.56C41.1474 422.773 41.7674 422.153 42.5408 421.7C43.3274 421.233 44.1808 421 45.1008 421C45.9808 421 46.7941 421.22 47.5408 421.66C48.3008 422.1 48.9008 422.7 49.3408 423.46C49.7808 424.207 50.0008 425.02 50.0008 425.9C50.0008 426.34 49.9674 426.74 49.9008 427.1H42.8008C42.9608 427.593 43.2541 428 43.6808 428.32C44.1208 428.64 44.6941 428.8 45.4008 428.8C45.9608 428.8 46.4608 428.74 46.9008 428.62C47.3541 428.487 47.7208 428.333 48.0008 428.16L49.4008 430.06ZM47.2008 425.1C47.0408 424.62 46.7608 424.22 46.3608 423.9C45.9741 423.567 45.5208 423.4 45.0008 423.4C44.4808 423.4 44.0208 423.567 43.6208 423.9C43.2341 424.22 42.9608 424.62 42.8008 425.1H47.2008ZM58.907 429.6C58.6004 430.04 58.1804 430.42 57.647 430.74C57.1137 431.047 56.5004 431.2 55.807 431.2C55.0337 431.2 54.307 430.98 53.627 430.54C52.9604 430.1 52.4204 429.493 52.007 428.72C51.607 427.947 51.407 427.073 51.407 426.1C51.407 425.127 51.607 424.253 52.007 423.48C52.4204 422.707 52.9604 422.1 53.627 421.66C54.307 421.22 55.0337 421 55.807 421C56.5004 421 57.1137 421.16 57.647 421.48C58.1804 421.787 58.6004 422.16 58.907 422.6H59.007V417H61.707V431H59.007V429.6H58.907ZM56.607 428.7C57.3137 428.7 57.907 428.453 58.387 427.96C58.867 427.467 59.107 426.847 59.107 426.1C59.107 425.353 58.867 424.733 58.387 424.24C57.907 423.747 57.3137 423.5 56.607 423.5C55.9004 423.5 55.307 423.747 54.827 424.24C54.347 424.733 54.107 425.353 54.107 426.1C54.107 426.847 54.347 427.467 54.827 427.96C55.307 428.453 55.9004 428.7 56.607 428.7ZM77.7188 429.2C77.3188 429.76 76.7654 430.233 76.0588 430.62C75.3521 431.007 74.5388 431.2 73.6188 431.2C72.6721 431.2 71.7988 430.973 70.9988 430.52C70.1988 430.053 69.5654 429.433 69.0988 428.66C68.6454 427.873 68.4188 427.02 68.4188 426.1C68.4188 425.18 68.6454 424.333 69.0988 423.56C69.5654 422.773 70.1988 422.153 70.9988 421.7C71.7988 421.233 72.6721 421 73.6188 421C74.5388 421 75.3521 421.193 76.0588 421.58C76.7654 421.967 77.3188 422.44 77.7188 423L76.0188 424.7C75.7521 424.367 75.4054 424.087 74.9788 423.86C74.5654 423.62 74.1121 423.5 73.6188 423.5C72.9121 423.5 72.3188 423.747 71.8388 424.24C71.3588 424.733 71.1188 425.353 71.1188 426.1C71.1188 426.847 71.3588 427.467 71.8388 427.96C72.3188 428.453 72.9121 428.7 73.6188 428.7C74.1121 428.7 74.5654 428.587 74.9788 428.36C75.4054 428.12 75.7521 427.833 76.0188 427.5L77.7188 429.2ZM78.6141 426.1C78.6141 425.18 78.8407 424.333 79.2941 423.56C79.7607 422.773 80.3941 422.153 81.1941 421.7C81.9941 421.233 82.8674 421 83.8141 421C84.7607 421 85.6341 421.233 86.4341 421.7C87.2341 422.153 87.8607 422.773 88.3141 423.56C88.7807 424.333 89.0141 425.18 89.0141 426.1C89.0141 427.02 88.7807 427.873 88.3141 428.66C87.8607 429.433 87.2341 430.053 86.4341 430.52C85.6341 430.973 84.7607 431.2 83.8141 431.2C82.8674 431.2 81.9941 430.973 81.1941 430.52C80.3941 430.053 79.7607 429.433 79.2941 428.66C78.8407 427.873 78.6141 427.02 78.6141 426.1ZM83.8141 428.7C84.5207 428.7 85.1141 428.453 85.5941 427.96C86.0741 427.467 86.3141 426.847 86.3141 426.1C86.3141 425.353 86.0741 424.733 85.5941 424.24C85.1141 423.747 84.5207 423.5 83.8141 423.5C83.1074 423.5 82.5141 423.747 82.0341 424.24C81.5541 424.733 81.3141 425.353 81.3141 426.1C81.3141 426.847 81.5541 427.467 82.0341 427.96C82.5141 428.453 83.1074 428.7 83.8141 428.7ZM92.5109 421.2L94.7709 427.8H94.8509L97.1109 421.2H100.011L96.3109 431H93.3109L89.6109 421.2H92.5109ZM110.006 430.06C109.553 430.38 108.96 430.653 108.226 430.88C107.493 431.093 106.686 431.2 105.806 431.2C104.86 431.2 103.986 430.973 103.186 430.52C102.386 430.053 101.753 429.433 101.286 428.66C100.833 427.873 100.606 427.02 100.606 426.1C100.606 425.18 100.833 424.333 101.286 423.56C101.753 422.773 102.373 422.153 103.146 421.7C103.933 421.233 104.786 421 105.706 421C106.586 421 107.4 421.22 108.146 421.66C108.906 422.1 109.506 422.7 109.946 423.46C110.386 424.207 110.606 425.02 110.606 425.9C110.606 426.34 110.573 426.74 110.506 427.1H103.406C103.566 427.593 103.86 428 104.286 428.32C104.726 428.64 105.3 428.8 106.006 428.8C106.566 428.8 107.066 428.74 107.506 428.62C107.96 428.487 108.326 428.333 108.606 428.16L110.006 430.06ZM107.806 425.1C107.646 424.62 107.366 424.22 106.966 423.9C106.58 423.567 106.126 423.4 105.606 423.4C105.086 423.4 104.626 423.567 104.226 423.9C103.84 424.22 103.566 424.62 103.406 425.1H107.806ZM115.313 422.3H115.413C115.599 421.993 115.899 421.733 116.312 421.52C116.726 421.307 117.246 421.2 117.873 421.2H118.513V423.8H117.613C116.946 423.8 116.393 424.04 115.953 424.52C115.526 424.987 115.313 425.613 115.313 426.4V431H112.613V421.2H115.313V422.3ZM128.815 430.06C128.362 430.38 127.768 430.653 127.035 430.88C126.302 431.093 125.495 431.2 124.615 431.2C123.668 431.2 122.795 430.973 121.995 430.52C121.195 430.053 120.562 429.433 120.095 428.66C119.642 427.873 119.415 427.02 119.415 426.1C119.415 425.18 119.642 424.333 120.095 423.56C120.562 422.773 121.182 422.153 121.955 421.7C122.742 421.233 123.595 421 124.515 421C125.395 421 126.208 421.22 126.955 421.66C127.715 422.1 128.315 422.7 128.755 423.46C129.195 424.207 129.415 425.02 129.415 425.9C129.415 426.34 129.382 426.74 129.315 427.1H122.215C122.375 427.593 122.668 428 123.095 428.32C123.535 428.64 124.108 428.8 124.815 428.8C125.375 428.8 125.875 428.74 126.315 428.62C126.768 428.487 127.135 428.333 127.415 428.16L128.815 430.06ZM126.615 425.1C126.455 424.62 126.175 424.22 125.775 423.9C125.388 423.567 124.935 423.4 124.415 423.4C123.895 423.4 123.435 423.567 123.035 423.9C122.648 424.22 122.375 424.62 122.215 425.1H126.615ZM138.321 429.6C138.014 430.04 137.594 430.42 137.061 430.74C136.528 431.047 135.914 431.2 135.221 431.2C134.448 431.2 133.721 430.98 133.041 430.54C132.374 430.1 131.834 429.493 131.421 428.72C131.021 427.947 130.821 427.073 130.821 426.1C130.821 425.127 131.021 424.253 131.421 423.48C131.834 422.707 132.374 422.1 133.041 421.66C133.721 421.22 134.448 421 135.221 421C135.914 421 136.528 421.16 137.061 421.48C137.594 421.787 138.014 422.16 138.321 422.6H138.421V417H141.121V431H138.421V429.6H138.321ZM136.021 428.7C136.728 428.7 137.321 428.453 137.801 427.96C138.281 427.467 138.521 426.847 138.521 426.1C138.521 425.353 138.281 424.733 137.801 424.24C137.321 423.747 136.728 423.5 136.021 423.5C135.314 423.5 134.721 423.747 134.241 424.24C133.761 424.733 133.521 425.353 133.521 426.1C133.521 426.847 133.761 427.467 134.241 427.96C134.721 428.453 135.314 428.7 136.021 428.7ZM146.323 426.7C146.19 426.42 146.123 426.12 146.123 425.8C146.123 425.133 146.303 424.587 146.663 424.16C147.023 423.72 147.537 423.267 148.203 422.8C148.697 422.453 149.057 422.16 149.283 421.92C149.51 421.68 149.623 421.407 149.623 421.1C149.623 420.727 149.457 420.4 149.123 420.12C148.79 419.84 148.357 419.7 147.823 419.7C147.237 419.7 146.73 419.86 146.303 420.18C145.877 420.487 145.55 420.86 145.323 421.3L142.723 420.1C143.083 419.18 143.697 418.4 144.563 417.76C145.43 417.12 146.517 416.8 147.823 416.8C148.823 416.8 149.703 416.987 150.463 417.36C151.223 417.733 151.803 418.233 152.203 418.86C152.617 419.487 152.823 420.167 152.823 420.9C152.823 421.473 152.717 421.973 152.503 422.4C152.303 422.813 152.057 423.16 151.763 423.44C151.47 423.707 151.09 424.013 150.623 424.36C150.05 424.773 149.623 425.147 149.343 425.48C149.063 425.8 148.923 426.207 148.923 426.7H146.323ZM145.923 429.6C145.923 429.147 146.077 428.767 146.383 428.46C146.69 428.153 147.07 428 147.523 428C147.977 428 148.357 428.153 148.663 428.46C148.97 428.767 149.123 429.147 149.123 429.6C149.123 430.053 148.97 430.433 148.663 430.74C148.357 431.047 147.977 431.2 147.523 431.2C147.07 431.2 146.69 431.047 146.383 430.74C146.077 430.433 145.923 430.053 145.923 429.6Z" fill="#25272E"/>
<g filter="url(#filter0_d)">
<rect x="16" y="471" width="343" height="84" rx="16" fill="white"/>
<path d="M39.12 492.8L43.44 504H40.88L39.92 501.44H35.6L34.64 504H32.08L36.4 492.8H39.12ZM37.792 495.6H37.728L36.4 499.28H39.12L37.792 495.6ZM50.0756 502.88C49.8303 503.232 49.4943 503.536 49.0676 503.792C48.641 504.037 48.1503 504.16 47.5956 504.16C46.977 504.16 46.3956 503.984 45.8516 503.632C45.3183 503.28 44.8863 502.795 44.5556 502.176C44.2356 501.557 44.0756 500.859 44.0756 500.08C44.0756 499.301 44.2356 498.603 44.5556 497.984C44.8863 497.365 45.3183 496.88 45.8516 496.528C46.3956 496.176 46.977 496 47.5956 496C48.1503 496 48.641 496.128 49.0676 496.384C49.4943 496.629 49.8303 496.928 50.0756 497.28H50.1556V492.8H52.3156V504H50.1556V502.88H50.0756ZM48.2356 502.16C48.801 502.16 49.2756 501.963 49.6596 501.568C50.0436 501.173 50.2356 500.677 50.2356 500.08C50.2356 499.483 50.0436 498.987 49.6596 498.592C49.2756 498.197 48.801 498 48.2356 498C47.6703 498 47.1956 498.197 46.8116 498.592C46.4276 498.987 46.2356 499.483 46.2356 500.08C46.2356 500.677 46.4276 501.173 46.8116 501.568C47.1956 501.963 47.6703 502.16 48.2356 502.16ZM59.9975 502.88C59.7522 503.232 59.4162 503.536 58.9895 503.792C58.5628 504.037 58.0722 504.16 57.5175 504.16C56.8988 504.16 56.3175 503.984 55.7735 503.632C55.2402 503.28 54.8082 502.795 54.4775 502.176C54.1575 501.557 53.9975 500.859 53.9975 500.08C53.9975 499.301 54.1575 498.603 54.4775 497.984C54.8082 497.365 55.2402 496.88 55.7735 496.528C56.3175 496.176 56.8988 496 57.5175 496C58.0722 496 58.5628 496.128 58.9895 496.384C59.4162 496.629 59.7522 496.928 59.9975 497.28H60.0775V492.8H62.2375V504H60.0775V502.88H59.9975ZM58.1575 502.16C58.7228 502.16 59.1975 501.963 59.5815 501.568C59.9655 501.173 60.1575 500.677 60.1575 500.08C60.1575 499.483 59.9655 498.987 59.5815 498.592C59.1975 498.197 58.7228 498 58.1575 498C57.5922 498 57.1175 498.197 56.7335 498.592C56.3495 498.987 56.1575 499.483 56.1575 500.08C56.1575 500.677 56.3495 501.173 56.7335 501.568C57.1175 501.963 57.5922 502.16 58.1575 502.16ZM71.4394 503.248C71.0767 503.504 70.602 503.723 70.0154 503.904C69.4287 504.075 68.7834 504.16 68.0794 504.16C67.322 504.16 66.6234 503.979 65.9834 503.616C65.3434 503.243 64.8367 502.747 64.4634 502.128C64.1007 501.499 63.9194 500.816 63.9194 500.08C63.9194 499.344 64.1007 498.667 64.4634 498.048C64.8367 497.419 65.3327 496.923 65.9514 496.56C66.5807 496.187 67.2634 496 67.9994 496C68.7034 496 69.354 496.176 69.9514 496.528C70.5594 496.88 71.0394 497.36 71.3914 497.968C71.7434 498.565 71.9194 499.216 71.9194 499.92C71.9194 500.272 71.8927 500.592 71.8394 500.88H66.1594C66.2874 501.275 66.522 501.6 66.8634 501.856C67.2154 502.112 67.674 502.24 68.2394 502.24C68.6874 502.24 69.0874 502.192 69.4394 502.096C69.802 501.989 70.0954 501.867 70.3194 501.728L71.4394 503.248ZM69.6794 499.28C69.5514 498.896 69.3274 498.576 69.0074 498.32C68.698 498.053 68.3354 497.92 67.9194 497.92C67.5034 497.92 67.1354 498.053 66.8154 498.32C66.506 498.576 66.2874 498.896 66.1594 499.28H69.6794ZM75.6844 497.04H75.7644C75.9137 496.795 76.1537 496.587 76.4844 496.416C76.815 496.245 77.231 496.16 77.7324 496.16H78.2444V498.24H77.5244C76.991 498.24 76.5484 498.432 76.1964 498.816C75.855 499.189 75.6844 499.691 75.6844 500.32V504H73.5244V496.16H75.6844V497.04ZM83.9225 503.04C83.6772 503.349 83.3518 503.616 82.9465 503.84C82.5518 504.053 82.1038 504.16 81.6025 504.16C80.8878 504.16 80.3065 503.952 79.8585 503.536C79.4212 503.109 79.2025 502.571 79.2025 501.92C79.2025 501.259 79.4105 500.693 79.8265 500.224C80.2532 499.755 80.8185 499.483 81.5225 499.408L84.0025 499.168C83.9598 498.848 83.8158 498.56 83.5705 498.304C83.3252 498.048 83.0158 497.92 82.6425 497.92C82.2798 497.92 81.9438 497.963 81.6345 498.048C81.3252 498.123 81.0745 498.213 80.8825 498.32L79.6025 497.04C79.9438 496.752 80.3918 496.507 80.9465 496.304C81.5012 496.101 82.1198 496 82.8025 496C83.4532 496 84.0345 496.139 84.5465 496.416C85.0585 496.683 85.4532 497.056 85.7305 497.536C86.0185 498.005 86.1625 498.533 86.1625 499.12V504H84.0025V503.04H83.9225ZM82.2425 500.752C81.9758 500.763 81.7625 500.853 81.6025 501.024C81.4425 501.195 81.3625 501.387 81.3625 501.6C81.3625 501.845 81.4425 502.043 81.6025 502.192C81.7732 502.331 82.0132 502.4 82.3225 502.4C82.8238 502.4 83.2292 502.267 83.5385 502C83.8478 501.733 84.0025 501.349 84.0025 500.848V500.688L82.2425 500.752ZM90.2488 492.8V504H88.0888V492.8H90.2488ZM94.655 492.8V504H92.495V492.8H94.655Z" fill="#25272E"/>
<circle cx="331" cy="499" r="12" fill="#F1F3F5" style="mix-blend-mode:multiply"/>
<path fill-rule="evenodd" clip-rule="evenodd" d="M332.934 502.065C333.246 502.377 333.752 502.377 334.065 502.065C334.377 501.752 334.377 501.246 334.065 500.934L332.131 498.999L334.065 497.065C334.378 496.752 334.378 496.246 334.065 495.934C333.753 495.621 333.246 495.621 332.934 495.934L330.999 497.868L329.065 495.934C328.752 495.621 328.246 495.621 327.934 495.934C327.621 496.246 327.621 496.752 327.934 497.065L329.868 498.999L327.934 500.934C327.622 501.246 327.622 501.752 327.934 502.065C328.246 502.377 328.753 502.377 329.065 502.065L330.999 500.131L332.934 502.065Z" fill="#25272E"/>
<path d="M32.84 526.1C32.84 525.185 33.064 524.341 33.512 523.566C33.96 522.791 34.5713 522.18 35.346 521.732C36.1207 521.284 36.9653 521.06 37.88 521.06C38.7947 521.06 39.6393 521.284 40.414 521.732C41.1887 522.18 41.8 522.791 42.248 523.566C42.696 524.341 42.92 525.185 42.92 526.1C42.92 527.015 42.696 527.859 42.248 528.634C41.8 529.409 41.1887 530.02 40.414 530.468C39.6393 530.916 38.7947 531.14 37.88 531.14C36.9653 531.14 36.1207 530.916 35.346 530.468C34.5713 530.02 33.96 529.409 33.512 528.634C33.064 527.859 32.84 527.015 32.84 526.1ZM37.88 530.16C38.6173 530.16 39.2893 529.983 39.896 529.628C40.5027 529.273 40.9833 528.788 41.338 528.172C41.6927 527.547 41.87 526.856 41.87 526.1C41.87 525.344 41.6927 524.658 41.338 524.042C40.9833 523.417 40.5027 522.927 39.896 522.572C39.2893 522.217 38.6173 522.04 37.88 522.04C37.1427 522.04 36.4707 522.217 35.864 522.572C35.2573 522.927 34.7767 523.417 34.422 524.042C34.0673 524.658 33.89 525.344 33.89 526.1C33.89 526.856 34.0673 527.547 34.422 528.172C34.7767 528.788 35.2573 529.273 35.864 529.628C36.4707 529.983 37.1427 530.16 37.88 530.16ZM45.8578 525.19C46.0351 524.901 46.3011 524.653 46.6558 524.448C47.0198 524.243 47.4538 524.14 47.9578 524.14H48.3778V525.12H47.9578C47.5845 525.12 47.2345 525.209 46.9078 525.386C46.5905 525.563 46.3338 525.82 46.1378 526.156C45.9511 526.483 45.8578 526.861 45.8578 527.29V531H44.8778V524.28H45.8578V525.19ZM53.764 530.09C53.5493 530.379 53.2553 530.627 52.882 530.832C52.5087 531.037 52.0793 531.14 51.594 531.14C51.146 531.14 50.74 531.047 50.376 530.86C50.012 530.673 49.7273 530.431 49.522 530.132C49.3167 529.824 49.214 529.507 49.214 529.18C49.214 528.611 49.382 528.144 49.718 527.78C50.0633 527.416 50.5487 527.206 51.174 527.15L53.764 526.926C53.764 526.599 53.6893 526.291 53.54 526.002C53.4 525.713 53.1993 525.484 52.938 525.316C52.686 525.139 52.4013 525.05 52.084 525.05C51.692 525.05 51.3327 525.097 51.006 525.19C50.6793 525.283 50.4087 525.4 50.194 525.54L49.564 524.91C49.844 524.695 50.2033 524.513 50.642 524.364C51.0807 524.215 51.5613 524.14 52.084 524.14C52.588 524.14 53.0407 524.257 53.442 524.49C53.8527 524.714 54.17 525.022 54.394 525.414C54.6273 525.806 54.744 526.245 54.744 526.73V531H53.764V530.09ZM51.454 527.99C51.0433 528.027 50.7307 528.153 50.516 528.368C50.3013 528.583 50.194 528.853 50.194 529.18C50.194 529.479 50.3153 529.731 50.558 529.936C50.81 530.132 51.1553 530.23 51.594 530.23C52.2473 530.23 52.77 530.053 53.162 529.698C53.5633 529.334 53.764 528.83 53.764 528.186V527.766L51.454 527.99ZM57.6173 521.2V531H56.6373V521.2H57.6173ZM67.1351 521.2C67.7324 521.2 68.2691 521.335 68.7451 521.606C69.2304 521.877 69.6084 522.245 69.8791 522.712C70.1497 523.179 70.2851 523.701 70.2851 524.28C70.2851 524.859 70.1497 525.381 69.8791 525.848C69.6084 526.315 69.2304 526.683 68.7451 526.954C68.2691 527.225 67.7324 527.36 67.1351 527.36H64.4751V531H63.4251V521.2H67.1351ZM67.1351 526.38C67.7697 526.38 68.2784 526.189 68.6611 525.806C69.0437 525.414 69.2351 524.905 69.2351 524.28C69.2351 523.645 69.0437 523.137 68.6611 522.754C68.2784 522.371 67.7697 522.18 67.1351 522.18H64.4751V526.38H67.1351ZM71.7671 522.04C71.7671 521.863 71.8278 521.713 71.9491 521.592C72.0704 521.471 72.2198 521.41 72.3971 521.41C72.5744 521.41 72.7238 521.471 72.8451 521.592C72.9664 521.713 73.0271 521.863 73.0271 522.04C73.0271 522.217 72.9664 522.367 72.8451 522.488C72.7238 522.609 72.5744 522.67 72.3971 522.67C72.2198 522.67 72.0704 522.609 71.9491 522.488C71.8278 522.367 71.7671 522.217 71.7671 522.04ZM72.8871 524.28V531H71.9071V524.28H72.8871ZM76.1837 521.2V531H75.2037V521.2H76.1837ZM79.547 521.2V531H78.567V521.2H79.547ZM82.6302 530.006L81.6502 532.54H81.0202L81.6502 530.006H82.6302ZM87.5209 522.53C88.0716 522.511 88.5243 522.376 88.8789 522.124C89.2336 521.863 89.4809 521.555 89.6209 521.2H90.3909V531H89.3409V523.16H87.5209V522.53ZM96.6295 531.14C95.9388 531.14 95.2901 530.935 94.6835 530.524C94.0861 530.113 93.6055 529.53 93.2415 528.774C92.8775 528.009 92.6955 527.117 92.6955 526.1C92.6955 525.092 92.8775 524.205 93.2415 523.44C93.6055 522.675 94.0861 522.087 94.6835 521.676C95.2808 521.265 95.9248 521.06 96.6155 521.06C97.3061 521.06 97.9501 521.265 98.5475 521.676C99.1448 522.087 99.6255 522.675 99.9895 523.44C100.353 524.205 100.535 525.092 100.535 526.1C100.535 527.108 100.353 527.995 99.9895 528.76C99.6255 529.525 99.1448 530.113 98.5475 530.524C97.9501 530.935 97.3108 531.14 96.6295 531.14ZM96.6295 530.16C97.1335 530.16 97.6001 530.001 98.0295 529.684C98.4681 529.367 98.8181 528.905 99.0795 528.298C99.3501 527.682 99.4855 526.949 99.4855 526.1C99.4855 525.251 99.3501 524.518 99.0795 523.902C98.8181 523.286 98.4681 522.824 98.0295 522.516C97.5908 522.199 97.1195 522.04 96.6155 522.04C96.1115 522.04 95.6401 522.199 95.2015 522.516C94.7628 522.824 94.4081 523.286 94.1375 523.902C93.8761 524.518 93.7455 525.251 93.7455 526.1C93.7455 526.949 93.8761 527.682 94.1375 528.298C94.4081 528.914 94.7628 529.381 95.2015 529.698C95.6495 530.006 96.1255 530.16 96.6295 530.16ZM103.471 525.12C103.648 524.849 103.896 524.621 104.213 524.434C104.54 524.238 104.922 524.14 105.361 524.14C105.884 524.14 106.332 524.257 106.705 524.49C107.078 524.714 107.354 524.994 107.531 525.33C107.727 524.994 108.021 524.714 108.413 524.49C108.814 524.257 109.29 524.14 109.841 524.14C110.606 524.14 111.227 524.392 111.703 524.896C112.188 525.4 112.431 526.105 112.431 527.01V531H111.451V527.01C111.451 526.385 111.297 525.904 110.989 525.568C110.681 525.223 110.275 525.05 109.771 525.05C109.444 525.05 109.141 525.143 108.861 525.33C108.581 525.507 108.357 525.769 108.189 526.114C108.03 526.45 107.951 526.842 107.951 527.29V531H106.971V527.01C106.971 526.394 106.817 525.913 106.509 525.568C106.201 525.223 105.795 525.05 105.291 525.05C104.964 525.05 104.661 525.143 104.381 525.33C104.101 525.507 103.877 525.769 103.709 526.114C103.55 526.45 103.471 526.842 103.471 527.29V531H102.491V524.28H103.471V525.12ZM115.093 532.134C115.326 532.386 115.629 532.596 116.003 532.764C116.385 532.941 116.805 533.03 117.263 533.03C117.683 533.03 118.065 532.923 118.411 532.708C118.765 532.493 119.045 532.199 119.251 531.826C119.465 531.453 119.573 531.037 119.573 530.58V529.81C119.377 530.099 119.083 530.347 118.691 530.552C118.308 530.757 117.855 530.86 117.333 530.86C116.754 530.86 116.222 530.711 115.737 530.412C115.261 530.113 114.883 529.707 114.603 529.194C114.323 528.681 114.183 528.116 114.183 527.5C114.183 526.884 114.323 526.319 114.603 525.806C114.883 525.293 115.261 524.887 115.737 524.588C116.222 524.289 116.754 524.14 117.333 524.14C117.855 524.14 118.308 524.243 118.691 524.448C119.083 524.653 119.377 524.901 119.573 525.19V524.28H120.553V530.58C120.553 531.196 120.403 531.761 120.105 532.274C119.815 532.787 119.419 533.193 118.915 533.492C118.411 533.791 117.86 533.94 117.263 533.94C116.647 533.94 116.096 533.823 115.611 533.59C115.125 533.366 114.743 533.091 114.463 532.764L115.093 532.134ZM117.333 529.95C117.743 529.95 118.121 529.843 118.467 529.628C118.812 529.413 119.083 529.119 119.279 528.746C119.475 528.373 119.573 527.957 119.573 527.5C119.573 527.043 119.475 526.627 119.279 526.254C119.083 525.881 118.812 525.587 118.467 525.372C118.121 525.157 117.743 525.05 117.333 525.05C116.941 525.05 116.577 525.157 116.241 525.372C115.914 525.587 115.653 525.881 115.457 526.254C115.261 526.627 115.163 527.043 115.163 527.5C115.163 527.957 115.261 528.373 115.457 528.746C115.653 529.119 115.914 529.413 116.241 529.628C116.577 529.843 116.941 529.95 117.333 529.95Z" fill="#70747D"/>
</g>
<g filter="url(#filter1_d)">
<path d="M0 641.79C0 619.58 0 608.475 4.39088 600.022C8.09102 592.899 13.8989 587.091 21.022 583.391C29.4748 579 40.5799 579 62.79 579H312.21C334.42 579 345.525 579 353.978 583.391C361.101 587.091 366.909 592.899 370.609 600.022C375 608.475 375 619.58 375 641.79V812H0V641.79Z" fill="white"/>
</g>
<path fill-rule="evenodd" clip-rule="evenodd" d="M163 593.5C163 592.119 164.119 591 165.5 591H208.5C209.881 591 211 592.119 211 593.5V593.5C211 594.881 209.881 596 208.5 596H165.5C164.119 596 163 594.881 163 593.5V593.5Z" fill="#E6E8EB"/>
<path d="M16 657C16 649.458 16 645.686 18.3431 643.343C20.6863 641 24.4575 641 32 641H343C350.542 641 354.314 641 356.657 643.343C359 645.686 359 649.458 359 657V665C359 672.542 359 676.314 356.657 678.657C354.314 681 350.542 681 343 681H32C24.4575 681 20.6863 681 18.3431 678.657C16 676.314 16 672.542 16 665V657Z" fill="white"/>
<path fill-rule="evenodd" clip-rule="evenodd" d="M343 642H32C28.2005 642 25.4515 642.002 23.3551 642.284C21.2875 642.562 20.0051 643.095 19.0503 644.05C18.0954 645.005 17.562 646.287 17.284 648.355C17.0021 650.451 17 653.2 17 657V665C17 668.8 17.0021 671.549 17.284 673.645C17.562 675.713 18.0954 676.995 19.0503 677.95C20.0051 678.905 21.2875 679.438 23.3551 679.716C25.4515 679.998 28.2005 680 32 680H343C346.799 680 349.549 679.998 351.645 679.716C353.713 679.438 354.995 678.905 355.95 677.95C356.905 676.995 357.438 675.713 357.716 673.645C357.998 671.549 358 668.8 358 665V657C358 653.2 357.998 650.451 357.716 648.355C357.438 646.287 356.905 645.005 355.95 644.05C354.995 643.095 353.713 642.562 351.645 642.284C349.549 642.002 346.799 642 343 642ZM18.3431 643.343C16 645.686 16 649.458 16 657V665C16 672.542 16 676.314 18.3431 678.657C20.6863 681 24.4575 681 32 681H343C350.542 681 354.314 681 356.657 678.657C359 676.314 359 672.542 359 665V657C359 649.458 359 645.686 356.657 643.343C354.314 641 350.542 641 343 641H32C24.4575 641 20.6863 641 18.3431 643.343Z" fill="#F1F3F5" style="mix-blend-mode:multiply"/>
<path opacity="0.7" d="M29.44 663.664C29.7387 664.048 30.1493 664.373 30.672 664.64C31.1947 664.907 31.7973 665.04 32.48 665.04C33.3013 665.04 33.9307 664.848 34.368 664.464C34.816 664.08 35.04 663.579 35.04 662.96C35.04 662.544 34.9227 662.208 34.688 661.952C34.4533 661.685 34.16 661.483 33.808 661.344C33.4667 661.195 32.9867 661.029 32.368 660.848C31.632 660.635 31.0347 660.427 30.576 660.224C30.128 660.011 29.744 659.701 29.424 659.296C29.1147 658.891 28.96 658.352 28.96 657.68C28.96 657.136 29.104 656.635 29.392 656.176C29.6907 655.707 30.112 655.333 30.656 655.056C31.2107 654.779 31.8453 654.64 32.56 654.64C33.264 654.64 33.8987 654.779 34.464 655.056C35.0293 655.333 35.488 655.675 35.84 656.08L35.04 656.88C34.784 656.571 34.4427 656.309 34.016 656.096C33.5893 655.872 33.104 655.76 32.56 655.76C32.0693 655.76 31.6427 655.851 31.28 656.032C30.9173 656.203 30.64 656.437 30.448 656.736C30.256 657.024 30.16 657.339 30.16 657.68C30.16 658.096 30.2773 658.437 30.512 658.704C30.7467 658.96 31.0347 659.163 31.376 659.312C31.728 659.451 32.2133 659.611 32.832 659.792C33.568 660.005 34.16 660.219 34.608 660.432C35.0667 660.635 35.4507 660.939 35.76 661.344C36.08 661.749 36.24 662.288 36.24 662.96C36.24 663.579 36.0907 664.133 35.792 664.624C35.4933 665.104 35.0613 665.483 34.496 665.76C33.9307 666.027 33.2587 666.16 32.48 666.16C31.6373 666.16 30.8907 666 30.24 665.68C29.6 665.349 29.0933 664.949 28.72 664.48L29.44 663.664ZM44.8069 664.848C44.4655 665.211 44.0175 665.52 43.4629 665.776C42.9082 666.032 42.2895 666.16 41.6069 666.16C40.9242 666.16 40.2842 665.984 39.6869 665.632C39.1002 665.269 38.6309 664.784 38.2789 664.176C37.9375 663.568 37.7669 662.896 37.7669 662.16C37.7669 661.435 37.9375 660.768 38.2789 660.16C38.6309 659.541 39.0949 659.056 39.6709 658.704C40.2469 658.341 40.8655 658.16 41.5269 658.16C42.2095 658.16 42.8335 658.325 43.3989 658.656C43.9642 658.987 44.4069 659.445 44.7269 660.032C45.0469 660.608 45.2069 661.264 45.2069 662C45.2069 662.203 45.1802 662.395 45.1269 662.576L38.8869 662.56C38.9082 663.008 39.0469 663.429 39.3029 663.824C39.5589 664.219 39.8895 664.533 40.2949 664.768C40.7002 665.003 41.1375 665.12 41.6069 665.12C42.1402 665.12 42.6202 665.024 43.0469 664.832C43.4735 664.64 43.8202 664.405 44.0869 664.128L44.8069 664.848ZM44.0869 661.6C44.0015 660.907 43.7189 660.336 43.2389 659.888C42.7695 659.429 42.1989 659.2 41.5269 659.2C41.0895 659.2 40.6789 659.312 40.2949 659.536C39.9109 659.749 39.5909 660.043 39.3349 660.416C39.0895 660.779 38.9402 661.173 38.8869 661.6H44.0869ZM51.8419 664.96C51.5965 665.291 51.2605 665.573 50.8339 665.808C50.4072 666.043 49.9165 666.16 49.3619 666.16C48.8499 666.16 48.3859 666.053 47.9699 665.84C47.5539 665.627 47.2285 665.349 46.9939 665.008C46.7592 664.656 46.6419 664.293 46.6419 663.92C46.6419 663.269 46.8339 662.736 47.2179 662.32C47.6125 661.904 48.1672 661.664 48.8819 661.6L51.8419 661.344C51.8419 660.971 51.7565 660.619 51.5859 660.288C51.4259 659.957 51.1965 659.696 50.8979 659.504C50.6099 659.301 50.2845 659.2 49.9219 659.2C49.4739 659.2 49.0632 659.253 48.6899 659.36C48.3165 659.467 48.0072 659.6 47.7619 659.76L47.0419 659.04C47.3619 658.795 47.7725 658.587 48.2739 658.416C48.7752 658.245 49.3245 658.16 49.9219 658.16C50.4979 658.16 51.0152 658.293 51.4739 658.56C51.9432 658.816 52.3059 659.168 52.5619 659.616C52.8285 660.064 52.9619 660.565 52.9619 661.12V666H51.8419V664.96ZM49.2019 662.56C48.7325 662.603 48.3752 662.747 48.1299 662.992C47.8845 663.237 47.7619 663.547 47.7619 663.92C47.7619 664.261 47.9005 664.549 48.1779 664.784C48.4659 665.008 48.8605 665.12 49.3619 665.12C50.1085 665.12 50.7059 664.917 51.1539 664.512C51.6125 664.096 51.8419 663.52 51.8419 662.784V662.304L49.2019 662.56ZM56.1656 659.36C56.3683 659.029 56.6723 658.747 57.0776 658.512C57.4936 658.277 57.9896 658.16 58.5656 658.16H59.0456V659.28H58.5656C58.139 659.28 57.739 659.381 57.3656 659.584C57.003 659.787 56.7096 660.08 56.4856 660.464C56.2723 660.837 56.1656 661.269 56.1656 661.76V666H55.0456V658.32H56.1656V659.36ZM66.885 664.56C66.5223 665.008 66.0583 665.387 65.493 665.696C64.9383 666.005 64.3357 666.16 63.685 666.16C63.0023 666.16 62.3623 665.984 61.765 665.632C61.1783 665.269 60.709 664.784 60.357 664.176C60.0157 663.568 59.845 662.896 59.845 662.16C59.845 661.424 60.0157 660.752 60.357 660.144C60.709 659.536 61.1783 659.056 61.765 658.704C62.3623 658.341 63.0023 658.16 63.685 658.16C64.3357 658.16 64.933 658.309 65.477 658.608C66.021 658.896 66.4637 659.253 66.805 659.68L66.005 660.48C65.7597 660.128 65.4343 659.829 65.029 659.584C64.6343 659.328 64.1863 659.2 63.685 659.2C63.205 659.2 62.757 659.333 62.341 659.6C61.925 659.856 61.589 660.213 61.333 660.672C61.0877 661.12 60.965 661.616 60.965 662.16C60.965 662.704 61.0877 663.205 61.333 663.664C61.589 664.112 61.925 664.469 62.341 664.736C62.757 664.992 63.205 665.12 63.685 665.12C64.1863 665.12 64.645 664.997 65.061 664.752C65.477 664.496 65.8183 664.192 66.085 663.84L66.885 664.56ZM69.8394 659.44C70.0847 659.088 70.4207 658.789 70.8474 658.544C71.274 658.288 71.7647 658.16 72.3194 658.16C72.9274 658.16 73.466 658.293 73.9354 658.56C74.4154 658.827 74.7834 659.211 75.0394 659.712C75.306 660.203 75.4394 660.779 75.4394 661.44V666H74.3194V661.44C74.3194 660.768 74.122 660.229 73.7274 659.824C73.3434 659.408 72.8474 659.2 72.2394 659.2C71.7914 659.2 71.3807 659.312 71.0074 659.536C70.6447 659.749 70.3567 660.048 70.1434 660.432C69.9407 660.816 69.8394 661.259 69.8394 661.76V666H68.7194V654.8H69.8394V659.44ZM86.2325 664.96C85.9872 665.291 85.6512 665.573 85.2245 665.808C84.7978 666.043 84.3072 666.16 83.7525 666.16C83.2405 666.16 82.7765 666.053 82.3605 665.84C81.9445 665.627 81.6192 665.349 81.3845 665.008C81.1498 664.656 81.0325 664.293 81.0325 663.92C81.0325 663.269 81.2245 662.736 81.6085 662.32C82.0032 661.904 82.5578 661.664 83.2725 661.6L86.2325 661.344C86.2325 660.971 86.1472 660.619 85.9765 660.288C85.8165 659.957 85.5872 659.696 85.2885 659.504C85.0005 659.301 84.6752 659.2 84.3125 659.2C83.8645 659.2 83.4538 659.253 83.0805 659.36C82.7072 659.467 82.3978 659.6 82.1525 659.76L81.4325 659.04C81.7525 658.795 82.1632 658.587 82.6645 658.416C83.1658 658.245 83.7152 658.16 84.3125 658.16C84.8885 658.16 85.4058 658.293 85.8645 658.56C86.3338 658.816 86.6965 659.168 86.9525 659.616C87.2192 660.064 87.3525 660.565 87.3525 661.12V666H86.2325V664.96ZM83.5925 662.56C83.1232 662.603 82.7658 662.747 82.5205 662.992C82.2752 663.237 82.1525 663.547 82.1525 663.92C82.1525 664.261 82.2912 664.549 82.5685 664.784C82.8565 665.008 83.2512 665.12 83.7525 665.12C84.4992 665.12 85.0965 664.917 85.5445 664.512C86.0032 664.096 86.2325 663.52 86.2325 662.784V662.304L83.5925 662.56ZM90.5563 659.44C90.8016 659.088 91.1376 658.789 91.5643 658.544C91.9909 658.288 92.4816 658.16 93.0363 658.16C93.6443 658.16 94.1829 658.293 94.6523 658.56C95.1323 658.827 95.5003 659.211 95.7563 659.712C96.0229 660.203 96.1562 660.779 96.1562 661.44V666H95.0363V661.44C95.0363 660.768 94.8389 660.229 94.4443 659.824C94.0603 659.408 93.5643 659.2 92.9563 659.2C92.5083 659.2 92.0976 659.312 91.7243 659.536C91.3616 659.749 91.0736 660.048 90.8603 660.432C90.6576 660.816 90.5563 661.259 90.5563 661.76V666H89.4363V658.32H90.5563V659.44ZM102.078 666.16C101.363 666.16 100.707 665.984 100.11 665.632C99.5122 665.269 99.0375 664.784 98.6855 664.176C98.3335 663.568 98.1575 662.896 98.1575 662.16C98.1575 661.424 98.3335 660.752 98.6855 660.144C99.0375 659.536 99.5122 659.056 100.11 658.704C100.707 658.341 101.363 658.16 102.078 658.16C102.792 658.16 103.448 658.341 104.046 658.704C104.643 659.056 105.118 659.536 105.47 660.144C105.822 660.752 105.998 661.424 105.998 662.16C105.998 662.896 105.822 663.568 105.47 664.176C105.118 664.784 104.643 665.269 104.046 665.632C103.448 665.984 102.792 666.16 102.078 666.16ZM102.078 665.12C102.579 665.12 103.043 664.992 103.47 664.736C103.896 664.469 104.238 664.112 104.494 663.664C104.75 663.205 104.878 662.704 104.878 662.16C104.878 661.616 104.75 661.12 104.494 660.672C104.238 660.213 103.896 659.856 103.47 659.6C103.043 659.333 102.579 659.2 102.078 659.2C101.576 659.2 101.112 659.333 100.686 659.6C100.259 659.856 99.9175 660.213 99.6615 660.672C99.4055 661.12 99.2775 661.616 99.2775 662.16C99.2775 662.704 99.4055 663.205 99.6615 663.664C99.9175 664.112 100.259 664.469 100.686 664.736C101.112 664.992 101.576 665.12 102.078 665.12ZM107.199 658.32H108.639V655.76H109.759V658.32H111.839V659.36H109.759V663.92C109.759 664.304 109.844 664.576 110.015 664.736C110.196 664.885 110.457 664.96 110.799 664.96H111.839V666H110.751C110.079 666 109.556 665.829 109.183 665.488C108.82 665.147 108.639 664.624 108.639 663.92V659.36H107.199V658.32ZM114.964 659.44C115.21 659.088 115.546 658.789 115.972 658.544C116.399 658.288 116.89 658.16 117.444 658.16C118.052 658.16 118.591 658.293 119.06 658.56C119.54 658.827 119.908 659.211 120.164 659.712C120.431 660.203 120.564 660.779 120.564 661.44V666H119.444V661.44C119.444 660.768 119.247 660.229 118.852 659.824C118.468 659.408 117.972 659.2 117.364 659.2C116.916 659.2 116.506 659.312 116.132 659.536C115.77 659.749 115.482 660.048 115.268 660.432C115.066 660.816 114.964 661.259 114.964 661.76V666H113.844V654.8H114.964V659.44ZM129.604 664.848C129.262 665.211 128.814 665.52 128.26 665.776C127.705 666.032 127.086 666.16 126.404 666.16C125.721 666.16 125.081 665.984 124.484 665.632C123.897 665.269 123.428 664.784 123.076 664.176C122.734 663.568 122.564 662.896 122.564 662.16C122.564 661.435 122.734 660.768 123.076 660.16C123.428 659.541 123.892 659.056 124.468 658.704C125.044 658.341 125.662 658.16 126.324 658.16C127.006 658.16 127.63 658.325 128.196 658.656C128.761 658.987 129.204 659.445 129.524 660.032C129.844 660.608 130.004 661.264 130.004 662C130.004 662.203 129.977 662.395 129.924 662.576L123.684 662.56C123.705 663.008 123.844 663.429 124.1 663.824C124.356 664.219 124.686 664.533 125.092 664.768C125.497 665.003 125.934 665.12 126.404 665.12C126.937 665.12 127.417 665.024 127.844 664.832C128.27 664.64 128.617 664.405 128.884 664.128L129.604 664.848ZM128.884 661.6C128.798 660.907 128.516 660.336 128.036 659.888C127.566 659.429 126.996 659.2 126.324 659.2C125.886 659.2 125.476 659.312 125.092 659.536C124.708 659.749 124.388 660.043 124.132 660.416C123.886 660.779 123.737 661.173 123.684 661.6H128.884ZM133.119 659.36C133.321 659.029 133.625 658.747 134.031 658.512C134.447 658.277 134.943 658.16 135.519 658.16H135.999V659.28H135.519C135.092 659.28 134.692 659.381 134.319 659.584C133.956 659.787 133.663 660.08 133.439 660.464C133.225 660.837 133.119 661.269 133.119 661.76V666H131.999V658.32H133.119V659.36ZM139.674 663.28C139.621 663.035 139.594 662.795 139.594 662.56C139.594 662.144 139.669 661.781 139.818 661.472C139.978 661.152 140.165 660.88 140.378 660.656C140.602 660.432 140.896 660.176 141.258 659.888C141.749 659.493 142.112 659.141 142.346 658.832C142.592 658.523 142.714 658.139 142.714 657.68C142.714 657.147 142.501 656.693 142.074 656.32C141.658 655.947 141.098 655.76 140.394 655.76C139.712 655.76 139.162 655.931 138.746 656.272C138.33 656.613 138.053 657.029 137.914 657.52L136.874 657.2C137.088 656.485 137.493 655.883 138.09 655.392C138.688 654.891 139.456 654.64 140.394 654.64C141.066 654.64 141.669 654.784 142.202 655.072C142.746 655.349 143.168 655.723 143.466 656.192C143.765 656.651 143.914 657.147 143.914 657.68C143.914 658.171 143.84 658.587 143.69 658.928C143.541 659.269 143.354 659.552 143.13 659.776C142.917 660 142.629 660.251 142.266 660.528C141.936 660.795 141.674 661.024 141.482 661.216C141.29 661.408 141.125 661.648 140.986 661.936C140.858 662.224 140.794 662.565 140.794 662.96V663.28H139.674ZM139.434 665.36C139.434 665.115 139.509 664.923 139.658 664.784C139.808 664.635 140 664.56 140.234 664.56C140.48 664.56 140.672 664.635 140.81 664.784C140.96 664.923 141.034 665.115 141.034 665.36C141.034 665.595 140.96 665.787 140.81 665.936C140.672 666.085 140.48 666.16 140.234 666.16C140 666.16 139.808 666.085 139.658 665.936C139.509 665.787 139.434 665.595 139.434 665.36Z" fill="#70747D"/>
<path d="M21.32 619.2C21.936 619.2 22.496 619.34 23 619.62C23.504 619.9 23.896 620.283 24.176 620.768C24.4653 621.244 24.61 621.771 24.61 622.35C24.61 622.929 24.4653 623.461 24.176 623.946C23.896 624.422 23.504 624.8 23 625.08C22.496 625.36 21.936 625.5 21.32 625.5H18.94V629H17.4V619.2H21.32ZM21.32 624.1C21.8147 624.1 22.23 623.932 22.566 623.596C22.902 623.251 23.07 622.835 23.07 622.35C23.07 621.855 22.902 621.44 22.566 621.104C22.23 620.768 21.8147 620.6 21.32 620.6H18.94V624.1H21.32ZM27.3488 623.19C27.5354 622.938 27.7828 622.723 28.0908 622.546C28.4081 622.369 28.7674 622.28 29.1688 622.28H29.7288V623.54H29.1688C28.8421 623.54 28.5388 623.629 28.2588 623.806C27.9788 623.974 27.7548 624.217 27.5868 624.534C27.4281 624.842 27.3488 625.187 27.3488 625.57V629H25.9488V622.28H27.3488V623.19ZM36.807 628.048C36.527 628.356 36.1396 628.617 35.645 628.832C35.1503 629.037 34.581 629.14 33.937 629.14C33.293 629.14 32.7003 628.986 32.159 628.678C31.627 628.37 31.207 627.95 30.899 627.418C30.591 626.877 30.437 626.284 30.437 625.64C30.437 624.996 30.591 624.408 30.899 623.876C31.207 623.344 31.6223 622.924 32.145 622.616C32.6676 622.299 33.2416 622.14 33.867 622.14C34.4923 622.14 35.0523 622.285 35.547 622.574C36.051 622.854 36.443 623.246 36.723 623.75C37.0123 624.245 37.157 624.805 37.157 625.43C37.157 625.691 37.1336 625.925 37.087 626.13H31.907C31.9816 626.597 32.215 626.993 32.607 627.32C32.999 627.647 33.4656 627.81 34.007 627.81C34.399 627.81 34.763 627.74 35.099 627.6C35.4443 627.451 35.7336 627.273 35.967 627.068L36.807 628.048ZM35.687 624.94C35.575 624.473 35.3603 624.1 35.043 623.82C34.735 623.54 34.343 623.4 33.867 623.4C33.363 623.4 32.9476 623.54 32.621 623.82C32.2943 624.091 32.0563 624.464 31.907 624.94H35.687ZM38.9709 626.97C39.1763 627.222 39.4329 627.437 39.7409 627.614C40.0489 627.791 40.3756 627.88 40.7209 627.88C41.0849 627.88 41.3743 627.796 41.5889 627.628C41.8036 627.46 41.9109 627.264 41.9109 627.04C41.9109 626.835 41.8083 626.681 41.6029 626.578C41.4069 626.466 41.0803 626.34 40.6229 626.2C40.1469 626.06 39.7549 625.92 39.4469 625.78C39.1483 625.64 38.8869 625.435 38.6629 625.164C38.4483 624.893 38.3409 624.539 38.3409 624.1C38.3409 623.745 38.4389 623.419 38.6349 623.12C38.8309 622.821 39.1156 622.583 39.4889 622.406C39.8623 622.229 40.2963 622.14 40.7909 622.14C41.3136 622.14 41.7803 622.229 42.1909 622.406C42.6109 622.583 42.9376 622.798 43.1709 623.05L42.2609 623.96C42.0929 623.801 41.8783 623.671 41.6169 623.568C41.3649 623.456 41.0896 623.4 40.7909 623.4C40.4643 623.4 40.2076 623.47 40.0209 623.61C39.8343 623.75 39.7409 623.913 39.7409 624.1C39.7409 624.305 39.8389 624.464 40.0349 624.576C40.2403 624.679 40.5716 624.8 41.0289 624.94C41.5049 625.08 41.8923 625.22 42.1909 625.36C42.4989 625.5 42.7603 625.705 42.9749 625.976C43.1989 626.247 43.3109 626.601 43.3109 627.04C43.3109 627.413 43.2036 627.763 42.9889 628.09C42.7836 628.407 42.4849 628.664 42.0929 628.86C41.7009 629.047 41.2436 629.14 40.7209 629.14C40.1516 629.14 39.6336 629.019 39.1669 628.776C38.7096 628.533 38.3409 628.235 38.0609 627.88L38.9709 626.97ZM50.7249 627.74C50.4263 628.132 50.0249 628.463 49.5209 628.734C49.0263 629.005 48.4709 629.14 47.8549 629.14C47.2109 629.14 46.6183 628.986 46.0769 628.678C45.5449 628.37 45.1249 627.95 44.8169 627.418C44.5089 626.877 44.3549 626.284 44.3549 625.64C44.3549 624.996 44.5089 624.408 44.8169 623.876C45.1249 623.335 45.5449 622.91 46.0769 622.602C46.6183 622.294 47.2109 622.14 47.8549 622.14C48.4709 622.14 49.0216 622.271 49.5069 622.532C49.9923 622.784 50.3749 623.097 50.6549 623.47L49.6749 624.38C49.4789 624.128 49.2223 623.913 48.9049 623.736C48.5969 623.559 48.2469 623.47 47.8549 623.47C47.4629 623.47 47.1036 623.563 46.7769 623.75C46.4596 623.937 46.2076 624.198 46.0209 624.534C45.8436 624.861 45.7549 625.229 45.7549 625.64C45.7549 626.051 45.8436 626.424 46.0209 626.76C46.2076 627.087 46.4596 627.343 46.7769 627.53C47.1036 627.717 47.4629 627.81 47.8549 627.81C48.2469 627.81 48.6063 627.717 48.9329 627.53C49.2596 627.334 49.5303 627.101 49.7449 626.83L50.7249 627.74ZM53.4484 623.19C53.635 622.938 53.8824 622.723 54.1904 622.546C54.5077 622.369 54.867 622.28 55.2684 622.28H55.8284V623.54H55.2684C54.9417 623.54 54.6384 623.629 54.3584 623.806C54.0784 623.974 53.8544 624.217 53.6864 624.534C53.5277 624.842 53.4484 625.187 53.4484 625.57V629H52.0484V622.28H53.4484V623.19ZM57.0233 620.18C57.0233 619.947 57.1073 619.751 57.2753 619.592C57.4526 619.424 57.6486 619.34 57.8633 619.34C58.0779 619.34 58.2693 619.424 58.4373 619.592C58.6146 619.751 58.7033 619.947 58.7033 620.18C58.7033 620.413 58.6146 620.614 58.4373 620.782C58.2693 620.941 58.0779 621.02 57.8633 621.02C57.6486 621.02 57.4526 620.941 57.2753 620.782C57.1073 620.614 57.0233 620.413 57.0233 620.18ZM58.5633 622.28V629H57.1633V622.28H58.5633ZM61.9933 623.26C62.2079 622.952 62.5159 622.691 62.9173 622.476C63.3186 622.252 63.7806 622.14 64.3033 622.14C64.8633 622.14 65.3813 622.294 65.8573 622.602C66.3426 622.901 66.7299 623.316 67.0193 623.848C67.3086 624.38 67.4533 624.977 67.4533 625.64C67.4533 626.303 67.3086 626.9 67.0193 627.432C66.7299 627.964 66.3426 628.384 65.8573 628.692C65.3813 628.991 64.8633 629.14 64.3033 629.14C63.7806 629.14 63.3186 629.033 62.9173 628.818C62.5159 628.594 62.2079 628.328 61.9933 628.02V631.94H60.5933V622.28H61.9933V623.26ZM64.0233 627.81C64.3966 627.81 64.7373 627.717 65.0453 627.53C65.3533 627.343 65.5959 627.087 65.7733 626.76C65.9599 626.424 66.0533 626.051 66.0533 625.64C66.0533 625.229 65.9599 624.861 65.7733 624.534C65.5959 624.198 65.3533 623.937 65.0453 623.75C64.7373 623.563 64.3966 623.47 64.0233 623.47C63.6499 623.47 63.3093 623.563 63.0013 623.75C62.6933 623.937 62.4459 624.198 62.2593 624.534C62.0819 624.861 61.9933 625.229 61.9933 625.64C61.9933 626.051 62.0819 626.424 62.2593 626.76C62.4459 627.087 62.6933 627.343 63.0013 627.53C63.3093 627.717 63.6499 627.81 64.0233 627.81ZM68.4278 622.28H69.6878V620.04H71.0878V622.28H72.8378V623.61H71.0878V626.76C71.0878 627.096 71.1671 627.334 71.3258 627.474C71.4845 627.605 71.7318 627.67 72.0678 627.67H72.8378V629H71.7878C70.3878 629 69.6878 628.3 69.6878 626.9V623.61H68.4278V622.28ZM74.4413 620.18C74.4413 619.947 74.5253 619.751 74.6933 619.592C74.8706 619.424 75.0666 619.34 75.2812 619.34C75.4959 619.34 75.6873 619.424 75.8553 619.592C76.0326 619.751 76.1213 619.947 76.1213 620.18C76.1213 620.413 76.0326 620.614 75.8553 620.782C75.6873 620.941 75.4959 621.02 75.2812 621.02C75.0666 621.02 74.8706 620.941 74.6933 620.782C74.5253 620.614 74.4413 620.413 74.4413 620.18ZM75.9813 622.28V629H74.5813V622.28H75.9813ZM77.5913 625.64C77.5913 624.996 77.7453 624.408 78.0533 623.876C78.3613 623.335 78.7813 622.91 79.3133 622.602C79.8546 622.294 80.4473 622.14 81.0913 622.14C81.7353 622.14 82.3233 622.294 82.8553 622.602C83.3966 622.91 83.8213 623.335 84.1293 623.876C84.4373 624.408 84.5913 624.996 84.5913 625.64C84.5913 626.284 84.4373 626.877 84.1293 627.418C83.8213 627.95 83.3966 628.37 82.8553 628.678C82.3233 628.986 81.7353 629.14 81.0913 629.14C80.4473 629.14 79.8546 628.986 79.3133 628.678C78.7813 628.37 78.3613 627.95 78.0533 627.418C77.7453 626.877 77.5913 626.284 77.5913 625.64ZM81.0913 627.81C81.4833 627.81 81.8379 627.717 82.1553 627.53C82.4819 627.343 82.7339 627.087 82.9113 626.76C83.0979 626.424 83.1913 626.051 83.1913 625.64C83.1913 625.229 83.0979 624.861 82.9113 624.534C82.7339 624.198 82.4819 623.937 82.1553 623.75C81.8379 623.563 81.4833 623.47 81.0913 623.47C80.6993 623.47 80.3399 623.563 80.0133 623.75C79.6959 623.937 79.4439 624.198 79.2573 624.534C79.0799 624.861 78.9913 625.229 78.9913 625.64C78.9913 626.051 79.0799 626.424 79.2573 626.76C79.4439 627.087 79.6959 627.343 80.0133 627.53C80.3399 627.717 80.6993 627.81 81.0913 627.81ZM87.5323 623.26C87.747 622.952 88.0363 622.691 88.4003 622.476C88.7643 622.252 89.175 622.14 89.6323 622.14C90.1457 622.14 90.603 622.261 91.0043 622.504C91.4057 622.737 91.7183 623.078 91.9423 623.526C92.1757 623.965 92.2923 624.483 92.2923 625.08V629H90.8923V625.08C90.8923 624.595 90.7477 624.207 90.4583 623.918C90.1783 623.619 89.8097 623.47 89.3523 623.47C88.8203 623.47 88.3817 623.647 88.0363 624.002C87.7003 624.347 87.5323 624.8 87.5323 625.36V629H86.1323V622.28H87.5323V623.26Z" fill="#25272E"/>
<path d="M346.911 667.032C347.16 667.281 347.299 667.619 347.299 667.971C347.299 668.323 347.16 668.661 346.911 668.91C346.662 669.159 346.325 669.299 345.973 669.299C345.621 669.299 345.284 669.159 345.035 668.91L340.924 664.806C339.765 665.573 338.39 665.956 336.997 665.894C335.519 665.828 334.106 665.266 332.986 664.298C331.865 663.331 331.103 662.014 330.82 660.559C330.538 659.105 330.753 657.598 331.429 656.28C332.106 654.963 333.206 653.911 334.552 653.296C335.898 652.68 337.411 652.536 338.849 652.887C340.286 653.237 341.564 654.062 342.477 655.228C343.389 656.394 343.884 657.833 343.88 659.315C343.884 660.597 343.507 661.85 342.8 662.915L346.911 667.032ZM340.563 657.134C340.133 656.489 339.522 655.985 338.806 655.688C338.09 655.39 337.303 655.312 336.543 655.462C335.783 655.613 335.084 655.985 334.535 656.533C333.986 657.081 333.612 657.78 333.459 658.541C333.306 659.302 333.382 660.091 333.677 660.809C333.972 661.527 334.473 662.141 335.116 662.574C335.759 663.007 336.515 663.239 337.29 663.242H337.303C337.818 663.244 338.329 663.143 338.806 662.947C339.282 662.75 339.715 662.461 340.079 662.096C340.443 661.731 340.732 661.298 340.928 660.82C341.125 660.343 341.225 659.831 341.223 659.315C341.223 658.539 340.994 657.78 340.563 657.134Z" fill="#CDCED1"/>
<g filter="url(#filter2_d)">
<circle cx="331" cy="741" r="28" fill="#25272E"/>
</g>
<path d="M344.527 742.022C343.903 742.568 336.745 749.804 336.745 749.804C335.859 750.579 334.471 749.95 334.471 748.772V743.498L319.923 743.498C318.574 743.498 317.48 742.375 317.48 740.99C317.48 739.604 318.574 738.481 319.923 738.481L334.471 738.481L334.471 733.208C334.471 732.03 335.859 731.4 336.745 732.176C336.745 732.176 343.903 739.411 344.527 739.958C345.152 740.504 345.152 741.475 344.527 742.022Z" fill="white"/>
<g filter="url(#filter3_b)">
<rect width="375" height="88" fill="white" fill-opacity="0.95"/>
<path opacity="0.35" d="M338.663 17.7988H355.329C356.525 17.7988 357.496 18.7689 357.496 19.9655V25.9439C357.496 27.1405 356.525 28.1106 355.329 28.1106H338.663C337.466 28.1106 336.496 27.1405 336.496 25.9439V19.9655C336.496 18.7689 337.466 17.7988 338.663 17.7988Z" stroke="black"/>
<path opacity="0.4" d="M358.996 20.959V24.9514C359.801 24.6132 360.324 23.8267 360.324 22.9552C360.324 22.0837 359.801 21.2971 358.996 20.959" fill="black"/>
<path d="M337.996 20.6283C337.996 19.8919 338.593 19.2949 339.329 19.2949H354.662C355.399 19.2949 355.996 19.8919 355.996 20.6283V25.281C355.996 26.0173 355.399 26.6143 354.662 26.6143H339.329C338.593 26.6143 337.996 26.0173 337.996 25.281V20.6283Z" fill="black"/>
<path fill-rule="evenodd" clip-rule="evenodd" d="M323.328 19.5699C325.544 19.57 327.675 20.4198 329.281 21.9437C329.402 22.0613 329.595 22.0598 329.714 21.9404L330.87 20.7759C330.93 20.7153 330.964 20.6332 330.963 20.5478C330.963 20.4624 330.928 20.3807 330.867 20.3208C326.652 16.2889 320.003 16.2889 315.788 20.3208C315.727 20.3806 315.692 20.4623 315.691 20.5477C315.691 20.6331 315.724 20.7153 315.785 20.7759L316.941 21.9404C317.06 22.06 317.253 22.0615 317.374 21.9437C318.98 20.4197 321.112 19.5699 323.328 19.5699ZM323.328 23.3583C324.545 23.3582 325.719 23.8099 326.622 24.6256C326.744 24.7413 326.936 24.7388 327.055 24.6199L328.21 23.4555C328.27 23.3944 328.304 23.3115 328.303 23.2254C328.302 23.1393 328.267 23.0572 328.205 22.9973C325.457 20.4458 321.201 20.4458 318.453 22.9973C318.391 23.0572 318.355 23.1394 318.355 23.2255C318.354 23.3116 318.388 23.3945 318.449 23.4555L319.603 24.6199C319.722 24.7388 319.914 24.7413 320.036 24.6256C320.938 23.8104 322.111 23.3588 323.328 23.3583ZM325.641 25.9073C325.643 25.9936 325.609 26.0769 325.547 26.1374L323.549 28.1492C323.491 28.2083 323.411 28.2416 323.328 28.2416C323.245 28.2416 323.165 28.2083 323.106 28.1492L321.109 26.1374C321.047 26.0768 321.013 25.9935 321.015 25.9072C321.017 25.8209 321.054 25.7391 321.118 25.6812C322.394 24.6044 324.262 24.6044 325.537 25.6812C325.602 25.7391 325.639 25.8209 325.641 25.9073Z" fill="black"/>
<path fill-rule="evenodd" clip-rule="evenodd" d="M309.664 17.6328H308.664C308.111 17.6328 307.664 18.0797 307.664 18.6309V27.2811C307.664 27.8323 308.111 28.2792 308.664 28.2792H309.664C310.216 28.2792 310.664 27.8323 310.664 27.2811V18.6309C310.664 18.0797 310.216 17.6328 309.664 17.6328ZM303.997 19.9617H304.997C305.549 19.9617 305.997 20.4086 305.997 20.9598V27.2811C305.997 27.8323 305.549 28.2792 304.997 28.2792H303.997C303.445 28.2792 302.997 27.8323 302.997 27.2811V20.9598C302.997 20.4086 303.445 19.9617 303.997 19.9617ZM300.331 22.2906H299.331C298.778 22.2906 298.331 22.7375 298.331 23.2887V27.2811C298.331 27.8323 298.778 28.2792 299.331 28.2792H300.331C300.883 28.2792 301.331 27.8323 301.331 27.2811V23.2887C301.331 22.7375 300.883 22.2906 300.331 22.2906ZM295.664 24.2868H294.664C294.112 24.2868 293.664 24.7337 293.664 25.2849V27.2811C293.664 27.8323 294.112 28.2792 294.664 28.2792H295.664C296.216 28.2792 296.664 27.8323 296.664 27.2811V25.2849C296.664 24.7337 296.216 24.2868 295.664 24.2868Z" fill="black"/>
<path d="M33.1637 20.4946V20.5239H34.9362V20.4946C34.9362 19.418 35.6833 18.6929 36.7892 18.6929C37.8293 18.6929 38.591 19.3667 38.591 20.2969C38.591 21.0439 38.2321 21.5933 36.7892 23.0581L33.2663 26.6616V27.9727H40.6052V26.3687H35.8591V26.2441L38.071 24.0249C39.8654 22.2524 40.444 21.3149 40.444 20.1797C40.444 18.4146 38.9352 17.1401 36.8478 17.1401C34.6799 17.1401 33.1637 18.5171 33.1637 20.4946ZM43.7768 26.8521C44.4726 26.8521 44.9487 26.354 44.9487 25.6948C44.9487 25.0283 44.4726 24.5376 43.7768 24.5376C43.0884 24.5376 42.605 25.0283 42.605 25.6948C42.605 26.354 43.0884 26.8521 43.7768 26.8521ZM43.7768 21.3589C44.4726 21.3589 44.9487 20.8682 44.9487 20.209C44.9487 19.5425 44.4726 19.0518 43.7768 19.0518C43.0884 19.0518 42.605 19.5425 42.605 20.209C42.605 20.8682 43.0884 21.3589 43.7768 21.3589ZM50.8596 28.2363C53.3865 28.2363 54.888 26.1855 54.888 22.6919C54.888 19.1836 53.3645 17.1401 50.8596 17.1401C48.3474 17.1401 46.824 19.1836 46.824 22.6772C46.824 26.1855 48.3255 28.2363 50.8596 28.2363ZM50.8596 26.6689C49.5193 26.6689 48.7356 25.2773 48.7356 22.6772C48.7356 20.0991 49.534 18.7148 50.8596 18.7148C52.1853 18.7148 52.9763 20.0918 52.9763 22.6772C52.9763 25.2773 52.2 26.6689 50.8596 26.6689ZM56.8218 27.9727H58.7994L63.3184 19.0151V17.4038H55.9649V18.9932H61.4141V19.1104L56.8218 27.9727Z" fill="black"/>
<path d="M351 75.5C356.247 75.5 360.5 71.2467 360.5 66C360.5 60.7533 356.247 56.5 351 56.5C345.753 56.5 341.5 60.7533 341.5 66C341.5 71.2467 345.753 75.5 351 75.5ZM351 77C344.925 77 340 72.0751 340 66C340 59.9249 344.925 55 351 55C357.075 55 362 59.9249 362 66C362 72.0751 357.075 77 351 77Z" fill="#25272E"/>
<path d="M349.81 67.5728C349.81 65.5428 352.19 65.5428 352.19 64.0528C352.179 63.9001 352.137 63.7513 352.067 63.6151C351.997 63.479 351.9 63.3583 351.783 63.2603C351.665 63.1623 351.529 63.089 351.383 63.0448C351.236 63.0005 351.082 62.9862 350.93 63.0028C350.564 62.9907 350.204 63.0957 349.902 63.3025C349.599 63.5093 349.371 63.8072 349.25 64.1528L347.5 63.3828C347.752 62.6638 348.228 62.0445 348.858 61.6161C349.488 61.1877 350.239 60.9727 351 61.0028C353.07 61.0028 354.36 62.3228 354.36 63.7928C354.36 66.3828 351.84 66.3828 351.84 68.2028H349.95C349.871 68.0014 349.823 67.7888 349.81 67.5728ZM349.67 70.0928C349.67 69.9471 349.699 69.8028 349.756 69.6686C349.812 69.5344 349.895 69.4128 350 69.3112C350.104 69.2096 350.228 69.1299 350.364 69.077C350.499 69.024 350.644 68.9988 350.79 69.0028C351.013 69.0028 351.23 69.0694 351.415 69.1938C351.6 69.3182 351.743 69.495 351.827 69.7014C351.911 69.9078 351.931 70.1345 351.886 70.3525C351.84 70.5706 351.73 70.77 351.571 70.9254C351.411 71.0808 351.209 71.185 350.99 71.2248C350.77 71.2645 350.544 71.238 350.34 71.1487C350.136 71.0593 349.963 70.911 349.844 70.723C349.725 70.5349 349.664 70.3155 349.67 70.0928Z" fill="#25272E"/>
<path fill-rule="evenodd" clip-rule="evenodd" d="M27.0023 57.3592L18.8447 65.1911C18.3851 65.6317 18.3851 66.3672 18.8447 66.8096L27.0023 74.6397C27.5026 75.1201 28.2924 75.1201 28.7927 74.6397C29.3219 74.1313 29.3219 73.2845 28.7927 72.7751L21.9605 66.2161C21.8365 66.0976 21.8365 65.9013 21.9605 65.7828L28.7927 59.2237C29.3219 58.7153 29.3219 57.8685 28.7927 57.3592C28.5421 57.1203 28.22 57 27.898 57C27.575 57 27.2529 57.1203 27.0023 57.3592Z" fill="#25272E"/>
<circle cx="141.5" cy="63.5" r="2.5" fill="#03948C"/>
<circle cx="154.5" cy="63.5" r="2.5" fill="#03948C"/>
<circle cx="167.5" cy="63.5" r="2.5" fill="#03948C"/>
<circle cx="180.5" cy="63.5" r="2.5" fill="#03948C"/>
<circle cx="193.5" cy="63.5" r="2.5" fill="#03948C"/>
<circle cx="206.5" cy="63.5" r="2.5" fill="#03948C"/>
<circle cx="219.5" cy="63.5" r="4" fill="#03948C"/>
<circle cx="232.5" cy="63.5" r="2.5" fill="#CEE1E5"/>
</g>
<path fill-rule="evenodd" clip-rule="evenodd" d="M121 800.5C121 799.119 122.119 798 123.5 798H252.5C253.881 798 255 799.119 255 800.5V800.5C255 801.881 253.881 803 252.5 803H123.5C122.119 803 121 801.881 121 800.5V800.5Z" fill="black"/>
</g>
<defs>
<filter id="filter0_d" x="0" y="455" width="375" height="116" filterUnits="userSpaceOnUse" color-interpolation-filters="sRGB">
<feFlood flood-opacity="0" result="BackgroundImageFix"/>
<feColorMatrix in="SourceAlpha" type="matrix" values="0 0 0 0 0 0 0 0 0 0 0 0 0 0 0 0 0 0 127 0"/>
<feOffset/>
<feGaussianBlur stdDeviation="8"/>
<feColorMatrix type="matrix" values="0 0 0 0 0.121569 0 0 0 0 0.145098 0 0 0 0 0.2 0 0 0 0.08 0"/>
<feBlend mode="normal" in2="BackgroundImageFix" result="effect1_dropShadow"/>
<feBlend mode="normal" in="SourceGraphic" in2="effect1_dropShadow" result="shape"/>
</filter>
<filter id="filter1_d" x="-36" y="543" width="447" height="305" filterUnits="userSpaceOnUse" color-interpolation-filters="sRGB">
<feFlood flood-opacity="0" result="BackgroundImageFix"/>
<feColorMatrix in="SourceAlpha" type="matrix" values="0 0 0 0 0 0 0 0 0 0 0 0 0 0 0 0 0 0 127 0"/>
<feMorphology radius="4" operator="dilate" in="SourceAlpha" result="effect1_dropShadow"/>
<feOffset/>
<feGaussianBlur stdDeviation="16"/>
<feColorMatrix type="matrix" values="0 0 0 0 0.4056 0 0 0 0 0.500104 0 0 0 0 0.52 0 0 0 0.12 0"/>
<feBlend mode="multiply" in2="BackgroundImageFix" result="effect1_dropShadow"/>
<feBlend mode="normal" in="SourceGraphic" in2="effect1_dropShadow" result="shape"/>
</filter>
<filter id="filter2_d" x="287" y="697" width="88" height="88" filterUnits="userSpaceOnUse" color-interpolation-filters="sRGB">
<feFlood flood-opacity="0" result="BackgroundImageFix"/>
<feColorMatrix in="SourceAlpha" type="matrix" values="0 0 0 0 0 0 0 0 0 0 0 0 0 0 0 0 0 0 127 0"/>
<feOffset/>
<feGaussianBlur stdDeviation="8"/>
<feColorMatrix type="matrix" values="0 0 0 0 0.121569 0 0 0 0 0.145098 0 0 0 0 0.2 0 0 0 0.08 0"/>
<feBlend mode="multiply" in2="BackgroundImageFix" result="effect1_dropShadow"/>
<feBlend mode="normal" in="SourceGraphic" in2="effect1_dropShadow" result="shape"/>
</filter>
<filter id="filter3_b" x="-16" y="-16" width="407" height="120" filterUnits="userSpaceOnUse" color-interpolation-filters="sRGB">
<feFlood flood-opacity="0" result="BackgroundImageFix"/>
<feGaussianBlur in="BackgroundImage" stdDeviation="8"/>
<feComposite in2="SourceAlpha" operator="in" result="effect1_backgroundBlur"/>
<feBlend mode="normal" in="SourceGraphic" in2="effect1_backgroundBlur" result="shape"/>
</filter>
<linearGradient id="paint0_linear" x1="111.5" y1="117.45" x2="254.217" y2="702.732" gradientUnits="userSpaceOnUse">
<stop stop-color="#E4F0F0" stop-opacity="0"/>
<stop offset="1" stop-color="#E4F0F0"/>
</linearGradient>
<clipPath id="clip0">
<rect width="375" height="812" fill="white"/>
</clipPath>
</defs>
</svg>
