<svg width="375" height="812" viewBox="0 0 375 812" fill="none" xmlns="http://www.w3.org/2000/svg">
<g clip-path="url(#clip0)">
<rect width="375" height="812" fill="white"/>
<rect y="98" width="375" height="616" fill="url(#paint0_linear)"/>
<path d="M20.5 532L27.3 540.7V532H30.3V546H27.6L20.8 537.3V546H17.8V532H20.5ZM42.1937 545.06C41.7404 545.38 41.1471 545.653 40.4138 545.88C39.6804 546.093 38.8738 546.2 37.9938 546.2C37.0471 546.2 36.1738 545.973 35.3738 545.52C34.5738 545.053 33.9404 544.433 33.4738 543.66C33.0204 542.873 32.7938 542.02 32.7938 541.1C32.7938 540.18 33.0204 539.333 33.4738 538.56C33.9404 537.773 34.5604 537.153 35.3338 536.7C36.1204 536.233 36.9738 536 37.8938 536C38.7738 536 39.5871 536.22 40.3338 536.66C41.0938 537.1 41.6938 537.7 42.1338 538.46C42.5738 539.207 42.7938 540.02 42.7938 540.9C42.7938 541.34 42.7604 541.74 42.6938 542.1H35.5938C35.7538 542.593 36.0471 543 36.4738 543.32C36.9138 543.64 37.4871 543.8 38.1938 543.8C38.7538 543.8 39.2538 543.74 39.6938 543.62C40.1471 543.487 40.5138 543.333 40.7938 543.16L42.1937 545.06ZM39.9938 540.1C39.8338 539.62 39.5538 539.22 39.1538 538.9C38.7671 538.567 38.3138 538.4 37.7938 538.4C37.2738 538.4 36.8138 538.567 36.4138 538.9C36.0271 539.22 35.7538 539.62 35.5938 540.1H39.9938ZM53.6 545.06C53.1467 545.38 52.5533 545.653 51.82 545.88C51.0867 546.093 50.28 546.2 49.4 546.2C48.4533 546.2 47.58 545.973 46.78 545.52C45.98 545.053 45.3467 544.433 44.88 543.66C44.4267 542.873 44.2 542.02 44.2 541.1C44.2 540.18 44.4267 539.333 44.88 538.56C45.3467 537.773 45.9667 537.153 46.74 536.7C47.5267 536.233 48.38 536 49.3 536C50.18 536 50.9933 536.22 51.74 536.66C52.5 537.1 53.1 537.7 53.54 538.46C53.98 539.207 54.2 540.02 54.2 540.9C54.2 541.34 54.1667 541.74 54.1 542.1H47C47.16 542.593 47.4533 543 47.88 543.32C48.32 543.64 48.8933 543.8 49.6 543.8C50.16 543.8 50.66 543.74 51.1 543.62C51.5533 543.487 51.92 543.333 52.2 543.16L53.6 545.06ZM51.4 540.1C51.24 539.62 50.96 539.22 50.56 538.9C50.1733 538.567 49.72 538.4 49.2 538.4C48.68 538.4 48.22 538.567 47.82 538.9C47.4333 539.22 47.16 539.62 47 540.1H51.4ZM63.1063 544.6C62.7996 545.04 62.3796 545.42 61.8463 545.74C61.3129 546.047 60.6996 546.2 60.0063 546.2C59.2329 546.2 58.5063 545.98 57.8263 545.54C57.1596 545.1 56.6196 544.493 56.2063 543.72C55.8063 542.947 55.6063 542.073 55.6063 541.1C55.6063 540.127 55.8063 539.253 56.2063 538.48C56.6196 537.707 57.1596 537.1 57.8263 536.66C58.5063 536.22 59.2329 536 60.0063 536C60.6996 536 61.3129 536.16 61.8463 536.48C62.3796 536.787 62.7996 537.16 63.1063 537.6H63.2063V532H65.9063V546H63.2063V544.6H63.1063ZM60.8063 543.7C61.5129 543.7 62.1063 543.453 62.5863 542.96C63.0663 542.467 63.3063 541.847 63.3063 541.1C63.3063 540.353 63.0663 539.733 62.5863 539.24C62.1063 538.747 61.5129 538.5 60.8063 538.5C60.0996 538.5 59.5063 538.747 59.0263 539.24C58.5463 539.733 58.3063 540.353 58.3063 541.1C58.3063 541.847 58.5463 542.467 59.0263 542.96C59.5063 543.453 60.0996 543.7 60.8063 543.7ZM78.618 544.8C78.3113 545.187 77.9046 545.52 77.398 545.8C76.9046 546.067 76.3446 546.2 75.718 546.2C74.8246 546.2 74.098 545.94 73.538 545.42C72.9913 544.887 72.718 544.213 72.718 543.4C72.718 542.573 72.978 541.867 73.498 541.28C74.0313 540.693 74.738 540.353 75.618 540.26L78.718 539.96C78.6646 539.56 78.4846 539.2 78.178 538.88C77.8713 538.56 77.4846 538.4 77.018 538.4C76.5646 538.4 76.1446 538.453 75.758 538.56C75.3713 538.653 75.058 538.767 74.818 538.9L73.218 537.3C73.6446 536.94 74.2046 536.633 74.898 536.38C75.5913 536.127 76.3646 536 77.218 536C78.0313 536 78.758 536.173 79.398 536.52C80.038 536.853 80.5313 537.32 80.878 537.92C81.238 538.507 81.418 539.167 81.418 539.9V546H78.718V544.8H78.618ZM76.518 541.94C76.1846 541.953 75.918 542.067 75.718 542.28C75.518 542.493 75.418 542.733 75.418 543C75.418 543.307 75.518 543.553 75.718 543.74C75.9313 543.913 76.2313 544 76.618 544C77.2446 544 77.7513 543.833 78.138 543.5C78.5246 543.167 78.718 542.687 78.718 542.06V541.86L76.518 541.94ZM92.4258 544.2C92.0258 544.76 91.4724 545.233 90.7658 545.62C90.0591 546.007 89.2458 546.2 88.3258 546.2C87.3791 546.2 86.5058 545.973 85.7058 545.52C84.9058 545.053 84.2724 544.433 83.8058 543.66C83.3524 542.873 83.1258 542.02 83.1258 541.1C83.1258 540.18 83.3524 539.333 83.8058 538.56C84.2724 537.773 84.9058 537.153 85.7058 536.7C86.5058 536.233 87.3791 536 88.3258 536C89.2458 536 90.0591 536.193 90.7658 536.58C91.4724 536.967 92.0258 537.44 92.4258 538L90.7258 539.7C90.4591 539.367 90.1124 539.087 89.6858 538.86C89.2724 538.62 88.8191 538.5 88.3258 538.5C87.6191 538.5 87.0258 538.747 86.5458 539.24C86.0658 539.733 85.8258 540.353 85.8258 541.1C85.8258 541.847 86.0658 542.467 86.5458 542.96C87.0258 543.453 87.6191 543.7 88.3258 543.7C88.8191 543.7 89.2724 543.587 89.6858 543.36C90.1124 543.12 90.4591 542.833 90.7258 542.5L92.4258 544.2ZM102.621 544.2C102.221 544.76 101.668 545.233 100.961 545.62C100.254 546.007 99.4411 546.2 98.5211 546.2C97.5744 546.2 96.7011 545.973 95.9011 545.52C95.1011 545.053 94.4678 544.433 94.0011 543.66C93.5478 542.873 93.3211 542.02 93.3211 541.1C93.3211 540.18 93.5478 539.333 94.0011 538.56C94.4678 537.773 95.1011 537.153 95.9011 536.7C96.7011 536.233 97.5744 536 98.5211 536C99.4411 536 100.254 536.193 100.961 536.58C101.668 536.967 102.221 537.44 102.621 538L100.921 539.7C100.654 539.367 100.308 539.087 99.8811 538.86C99.4678 538.62 99.0144 538.5 98.5211 538.5C97.8144 538.5 97.2211 538.747 96.7411 539.24C96.2611 539.733 96.0211 540.353 96.0211 541.1C96.0211 541.847 96.2611 542.467 96.7411 542.96C97.2211 543.453 97.8144 543.7 98.5211 543.7C99.0144 543.7 99.4678 543.587 99.8811 543.36C100.308 543.12 100.654 542.833 100.921 542.5L102.621 544.2ZM112.916 545.06C112.463 545.38 111.87 545.653 111.136 545.88C110.403 546.093 109.596 546.2 108.716 546.2C107.77 546.2 106.896 545.973 106.096 545.52C105.296 545.053 104.663 544.433 104.196 543.66C103.743 542.873 103.516 542.02 103.516 541.1C103.516 540.18 103.743 539.333 104.196 538.56C104.663 537.773 105.283 537.153 106.056 536.7C106.843 536.233 107.696 536 108.616 536C109.496 536 110.31 536.22 111.056 536.66C111.816 537.1 112.416 537.7 112.856 538.46C113.296 539.207 113.516 540.02 113.516 540.9C113.516 541.34 113.483 541.74 113.416 542.1H106.316C106.476 542.593 106.77 543 107.196 543.32C107.636 543.64 108.21 543.8 108.916 543.8C109.476 543.8 109.976 543.74 110.416 543.62C110.87 543.487 111.236 543.333 111.516 543.16L112.916 545.06ZM110.716 540.1C110.556 539.62 110.276 539.22 109.876 538.9C109.49 538.567 109.036 538.4 108.516 538.4C107.996 538.4 107.536 538.567 107.136 538.9C106.75 539.22 106.476 539.62 106.316 540.1H110.716ZM116.123 542.7C116.429 543.007 116.809 543.267 117.263 543.48C117.716 543.693 118.203 543.8 118.723 543.8C119.523 543.8 119.923 543.567 119.923 543.1C119.923 542.913 119.796 542.76 119.543 542.64C119.303 542.507 118.916 542.353 118.383 542.18C117.689 541.94 117.109 541.713 116.643 541.5C116.176 541.273 115.769 540.96 115.423 540.56C115.089 540.147 114.923 539.627 114.923 539C114.923 538.453 115.076 537.953 115.383 537.5C115.689 537.047 116.136 536.687 116.723 536.42C117.323 536.14 118.023 536 118.823 536C119.636 536 120.369 536.147 121.023 536.44C121.689 536.733 122.223 537.087 122.623 537.5L121.023 539.2C120.783 538.973 120.469 538.787 120.083 538.64C119.696 538.48 119.276 538.4 118.823 538.4C118.489 538.4 118.236 538.46 118.063 538.58C117.903 538.7 117.823 538.84 117.823 539C117.823 539.187 117.943 539.347 118.183 539.48C118.436 539.6 118.829 539.747 119.363 539.92C120.056 540.16 120.636 540.393 121.103 540.62C121.569 540.833 121.969 541.147 122.303 541.56C122.649 541.96 122.823 542.473 122.823 543.1C122.823 543.673 122.663 544.2 122.343 544.68C122.036 545.147 121.569 545.52 120.943 545.8C120.329 546.067 119.589 546.2 118.723 546.2C117.843 546.2 117.036 546.027 116.303 545.68C115.569 545.333 114.976 544.907 114.523 544.4L116.123 542.7ZM125.224 542.7C125.531 543.007 125.911 543.267 126.364 543.48C126.818 543.693 127.304 543.8 127.824 543.8C128.624 543.8 129.024 543.567 129.024 543.1C129.024 542.913 128.898 542.76 128.644 542.64C128.404 542.507 128.018 542.353 127.484 542.18C126.791 541.94 126.211 541.713 125.744 541.5C125.278 541.273 124.871 540.96 124.524 540.56C124.191 540.147 124.024 539.627 124.024 539C124.024 538.453 124.178 537.953 124.484 537.5C124.791 537.047 125.238 536.687 125.824 536.42C126.424 536.14 127.124 536 127.924 536C128.738 536 129.471 536.147 130.124 536.44C130.791 536.733 131.324 537.087 131.724 537.5L130.124 539.2C129.884 538.973 129.571 538.787 129.184 538.64C128.798 538.48 128.378 538.4 127.924 538.4C127.591 538.4 127.338 538.46 127.164 538.58C127.004 538.7 126.924 538.84 126.924 539C126.924 539.187 127.044 539.347 127.284 539.48C127.538 539.6 127.931 539.747 128.464 539.92C129.158 540.16 129.738 540.393 130.204 540.62C130.671 540.833 131.071 541.147 131.404 541.56C131.751 541.96 131.924 542.473 131.924 543.1C131.924 543.673 131.764 544.2 131.444 544.68C131.138 545.147 130.671 545.52 130.044 545.8C129.431 546.067 128.691 546.2 127.824 546.2C126.944 546.2 126.138 546.027 125.404 545.68C124.671 545.333 124.078 544.907 123.624 544.4L125.224 542.7ZM137.435 536.4H139.135V533.4H141.835V536.4H144.235V538.9H141.835V542.28C141.835 542.72 141.948 543.047 142.175 543.26C142.402 543.473 142.722 543.58 143.135 543.58H144.235V546H142.435C141.408 546 140.602 545.713 140.015 545.14C139.428 544.567 139.135 543.72 139.135 542.6V538.9H137.435V536.4ZM145.548 541.1C145.548 540.18 145.774 539.333 146.228 538.56C146.694 537.773 147.328 537.153 148.128 536.7C148.928 536.233 149.801 536 150.748 536C151.694 536 152.568 536.233 153.368 536.7C154.168 537.153 154.794 537.773 155.248 538.56C155.714 539.333 155.948 540.18 155.948 541.1C155.948 542.02 155.714 542.873 155.248 543.66C154.794 544.433 154.168 545.053 153.368 545.52C152.568 545.973 151.694 546.2 150.748 546.2C149.801 546.2 148.928 545.973 148.128 545.52C147.328 545.053 146.694 544.433 146.228 543.66C145.774 542.873 145.548 542.02 145.548 541.1ZM150.748 543.7C151.454 543.7 152.048 543.453 152.528 542.96C153.008 542.467 153.248 541.847 153.248 541.1C153.248 540.353 153.008 539.733 152.528 539.24C152.048 538.747 151.454 538.5 150.748 538.5C150.041 538.5 149.448 538.747 148.968 539.24C148.488 539.733 148.248 540.353 148.248 541.1C148.248 541.847 148.488 542.467 148.968 542.96C149.448 543.453 150.041 543.7 150.748 543.7ZM163.154 542.7C163.461 543.007 163.841 543.267 164.294 543.48C164.747 543.693 165.234 543.8 165.754 543.8C166.554 543.8 166.954 543.567 166.954 543.1C166.954 542.913 166.827 542.76 166.574 542.64C166.334 542.507 165.947 542.353 165.414 542.18C164.721 541.94 164.141 541.713 163.674 541.5C163.207 541.273 162.801 540.96 162.454 540.56C162.121 540.147 161.954 539.627 161.954 539C161.954 538.453 162.107 537.953 162.414 537.5C162.721 537.047 163.167 536.687 163.754 536.42C164.354 536.14 165.054 536 165.854 536C166.667 536 167.401 536.147 168.054 536.44C168.721 536.733 169.254 537.087 169.654 537.5L168.054 539.2C167.814 538.973 167.501 538.787 167.114 538.64C166.727 538.48 166.307 538.4 165.854 538.4C165.521 538.4 165.267 538.46 165.094 538.58C164.934 538.7 164.854 538.84 164.854 539C164.854 539.187 164.974 539.347 165.214 539.48C165.467 539.6 165.861 539.747 166.394 539.92C167.087 540.16 167.667 540.393 168.134 540.62C168.601 540.833 169.001 541.147 169.334 541.56C169.681 541.96 169.854 542.473 169.854 543.1C169.854 543.673 169.694 544.2 169.374 544.68C169.067 545.147 168.601 545.52 167.974 545.8C167.361 546.067 166.621 546.2 165.754 546.2C164.874 546.2 164.067 546.027 163.334 545.68C162.601 545.333 162.007 544.907 161.554 544.4L163.154 542.7ZM174.355 537.6H174.455C174.762 537.16 175.182 536.787 175.715 536.48C176.249 536.16 176.862 536 177.555 536C178.329 536 179.049 536.22 179.715 536.66C180.395 537.1 180.935 537.707 181.335 538.48C181.749 539.253 181.955 540.127 181.955 541.1C181.955 542.073 181.749 542.947 181.335 543.72C180.935 544.493 180.395 545.1 179.715 545.54C179.049 545.98 178.329 546.2 177.555 546.2C176.862 546.2 176.249 546.047 175.715 545.74C175.182 545.42 174.762 545.04 174.455 544.6H174.355V550.2H171.655V536.2H174.355V537.6ZM176.755 543.7C177.462 543.7 178.055 543.453 178.535 542.96C179.015 542.467 179.255 541.847 179.255 541.1C179.255 540.353 179.015 539.733 178.535 539.24C178.055 538.747 177.462 538.5 176.755 538.5C176.049 538.5 175.455 538.747 174.975 539.24C174.495 539.733 174.255 540.353 174.255 541.1C174.255 541.847 174.495 542.467 174.975 542.96C175.455 543.453 176.049 543.7 176.755 543.7ZM192.76 545.06C192.307 545.38 191.713 545.653 190.98 545.88C190.247 546.093 189.44 546.2 188.56 546.2C187.613 546.2 186.74 545.973 185.94 545.52C185.14 545.053 184.507 544.433 184.04 543.66C183.587 542.873 183.36 542.02 183.36 541.1C183.36 540.18 183.587 539.333 184.04 538.56C184.507 537.773 185.127 537.153 185.9 536.7C186.687 536.233 187.54 536 188.46 536C189.34 536 190.153 536.22 190.9 536.66C191.66 537.1 192.26 537.7 192.7 538.46C193.14 539.207 193.36 540.02 193.36 540.9C193.36 541.34 193.327 541.74 193.26 542.1H186.16C186.32 542.593 186.613 543 187.04 543.32C187.48 543.64 188.053 543.8 188.76 543.8C189.32 543.8 189.82 543.74 190.26 543.62C190.713 543.487 191.08 543.333 191.36 543.16L192.76 545.06ZM190.56 540.1C190.4 539.62 190.12 539.22 189.72 538.9C189.333 538.567 188.88 538.4 188.36 538.4C187.84 538.4 187.38 538.567 186.98 538.9C186.593 539.22 186.32 539.62 186.16 540.1H190.56ZM204.066 544.2C203.666 544.76 203.113 545.233 202.406 545.62C201.7 546.007 200.886 546.2 199.966 546.2C199.02 546.2 198.146 545.973 197.346 545.52C196.546 545.053 195.913 544.433 195.446 543.66C194.993 542.873 194.766 542.02 194.766 541.1C194.766 540.18 194.993 539.333 195.446 538.56C195.913 537.773 196.546 537.153 197.346 536.7C198.146 536.233 199.02 536 199.966 536C200.886 536 201.7 536.193 202.406 536.58C203.113 536.967 203.666 537.44 204.066 538L202.366 539.7C202.1 539.367 201.753 539.087 201.326 538.86C200.913 538.62 200.46 538.5 199.966 538.5C199.26 538.5 198.666 538.747 198.186 539.24C197.706 539.733 197.466 540.353 197.466 541.1C197.466 541.847 197.706 542.467 198.186 542.96C198.666 543.453 199.26 543.7 199.966 543.7C200.46 543.7 200.913 543.587 201.326 543.36C201.753 543.12 202.1 542.833 202.366 542.5L204.066 544.2ZM205.557 533.4C205.557 533 205.71 532.653 206.017 532.36C206.324 532.053 206.69 531.9 207.117 531.9C207.53 531.9 207.89 532.053 208.197 532.36C208.504 532.653 208.657 533 208.657 533.4C208.657 533.8 208.504 534.153 208.197 534.46C207.89 534.753 207.524 534.9 207.097 534.9C206.684 534.9 206.324 534.753 206.017 534.46C205.71 534.153 205.557 533.8 205.557 533.4ZM208.457 536.2V546H205.757V536.2H208.457ZM210.15 536.4H211.65V535.4C211.65 534.267 211.943 533.387 212.53 532.76C213.13 532.12 213.937 531.8 214.95 531.8C215.523 531.8 216.057 531.9 216.55 532.1V534.6C216.27 534.467 215.97 534.4 215.65 534.4C215.25 534.4 214.93 534.527 214.69 534.78C214.463 535.02 214.35 535.36 214.35 535.8V536.4H220.65V546H217.95V538.9H214.35V546H211.65V538.9H210.15V536.4ZM217.75 533.4C217.75 533 217.903 532.653 218.21 532.36C218.517 532.053 218.883 531.9 219.31 531.9C219.723 531.9 220.083 532.053 220.39 532.36C220.697 532.653 220.85 533 220.85 533.4C220.85 533.8 220.697 534.153 220.39 534.46C220.083 534.753 219.717 534.9 219.29 534.9C218.877 534.9 218.517 534.753 218.21 534.46C217.903 534.153 217.75 533.8 217.75 533.4ZM232.055 544.2C231.655 544.76 231.101 545.233 230.395 545.62C229.688 546.007 228.875 546.2 227.955 546.2C227.008 546.2 226.135 545.973 225.335 545.52C224.535 545.053 223.901 544.433 223.435 543.66C222.981 542.873 222.755 542.02 222.755 541.1C222.755 540.18 222.981 539.333 223.435 538.56C223.901 537.773 224.535 537.153 225.335 536.7C226.135 536.233 227.008 536 227.955 536C228.875 536 229.688 536.193 230.395 536.58C231.101 536.967 231.655 537.44 232.055 538L230.355 539.7C230.088 539.367 229.741 539.087 229.315 538.86C228.901 538.62 228.448 538.5 227.955 538.5C227.248 538.5 226.655 538.747 226.175 539.24C225.695 539.733 225.455 540.353 225.455 541.1C225.455 541.847 225.695 542.467 226.175 542.96C226.655 543.453 227.248 543.7 227.955 543.7C228.448 543.7 228.901 543.587 229.315 543.36C229.741 543.12 230.088 542.833 230.355 542.5L232.055 544.2ZM245.255 544.6C244.948 545.04 244.528 545.42 243.995 545.74C243.461 546.047 242.848 546.2 242.155 546.2C241.381 546.2 240.655 545.98 239.975 545.54C239.308 545.1 238.768 544.493 238.355 543.72C237.955 542.947 237.755 542.073 237.755 541.1C237.755 540.127 237.955 539.253 238.355 538.48C238.768 537.707 239.308 537.1 239.975 536.66C240.655 536.22 241.381 536 242.155 536C242.848 536 243.461 536.16 243.995 536.48C244.528 536.787 244.948 537.16 245.255 537.6H245.355V532H248.055V546H245.355V544.6H245.255ZM242.955 543.7C243.661 543.7 244.255 543.453 244.735 542.96C245.215 542.467 245.455 541.847 245.455 541.1C245.455 540.353 245.215 539.733 244.735 539.24C244.255 538.747 243.661 538.5 242.955 538.5C242.248 538.5 241.655 538.747 241.175 539.24C240.695 539.733 240.455 540.353 240.455 541.1C240.455 541.847 240.695 542.467 241.175 542.96C241.655 543.453 242.248 543.7 242.955 543.7ZM250.157 541.1C250.157 540.18 250.384 539.333 250.837 538.56C251.304 537.773 251.937 537.153 252.737 536.7C253.537 536.233 254.41 536 255.357 536C256.304 536 257.177 536.233 257.977 536.7C258.777 537.153 259.404 537.773 259.857 538.56C260.324 539.333 260.557 540.18 260.557 541.1C260.557 542.02 260.324 542.873 259.857 543.66C259.404 544.433 258.777 545.053 257.977 545.52C257.177 545.973 256.304 546.2 255.357 546.2C254.41 546.2 253.537 545.973 252.737 545.52C251.937 545.053 251.304 544.433 250.837 543.66C250.384 542.873 250.157 542.02 250.157 541.1ZM255.357 543.7C256.064 543.7 256.657 543.453 257.137 542.96C257.617 542.467 257.857 541.847 257.857 541.1C257.857 540.353 257.617 539.733 257.137 539.24C256.657 538.747 256.064 538.5 255.357 538.5C254.65 538.5 254.057 538.747 253.577 539.24C253.097 539.733 252.857 540.353 252.857 541.1C252.857 541.847 253.097 542.467 253.577 542.96C254.057 543.453 254.65 543.7 255.357 543.7ZM271.254 544.2C270.854 544.76 270.301 545.233 269.594 545.62C268.887 546.007 268.074 546.2 267.154 546.2C266.207 546.2 265.334 545.973 264.534 545.52C263.734 545.053 263.101 544.433 262.634 543.66C262.181 542.873 261.954 542.02 261.954 541.1C261.954 540.18 262.181 539.333 262.634 538.56C263.101 537.773 263.734 537.153 264.534 536.7C265.334 536.233 266.207 536 267.154 536C268.074 536 268.887 536.193 269.594 536.58C270.301 536.967 270.854 537.44 271.254 538L269.554 539.7C269.287 539.367 268.941 539.087 268.514 538.86C268.101 538.62 267.647 538.5 267.154 538.5C266.447 538.5 265.854 538.747 265.374 539.24C264.894 539.733 264.654 540.353 264.654 541.1C264.654 541.847 264.894 542.467 265.374 542.96C265.854 543.453 266.447 543.7 267.154 543.7C267.647 543.7 268.101 543.587 268.514 543.36C268.941 543.12 269.287 542.833 269.554 542.5L271.254 544.2ZM272.045 536.4H273.745V533.4H276.445V536.4H278.845V538.9H276.445V542.28C276.445 542.72 276.558 543.047 276.785 543.26C277.011 543.473 277.331 543.58 277.745 543.58H278.845V546H277.045C276.018 546 275.211 545.713 274.625 545.14C274.038 544.567 273.745 543.72 273.745 542.6V538.9H272.045V536.4ZM280.157 541.1C280.157 540.18 280.384 539.333 280.837 538.56C281.304 537.773 281.937 537.153 282.737 536.7C283.537 536.233 284.41 536 285.357 536C286.304 536 287.177 536.233 287.977 536.7C288.777 537.153 289.404 537.773 289.857 538.56C290.324 539.333 290.557 540.18 290.557 541.1C290.557 542.02 290.324 542.873 289.857 543.66C289.404 544.433 288.777 545.053 287.977 545.52C287.177 545.973 286.304 546.2 285.357 546.2C284.41 546.2 283.537 545.973 282.737 545.52C281.937 545.053 281.304 544.433 280.837 543.66C280.384 542.873 280.157 542.02 280.157 541.1ZM285.357 543.7C286.064 543.7 286.657 543.453 287.137 542.96C287.617 542.467 287.857 541.847 287.857 541.1C287.857 540.353 287.617 539.733 287.137 539.24C286.657 538.747 286.064 538.5 285.357 538.5C284.65 538.5 284.057 538.747 283.577 539.24C283.097 539.733 282.857 540.353 282.857 541.1C282.857 541.847 283.097 542.467 283.577 542.96C284.057 543.453 284.65 543.7 285.357 543.7ZM295.254 537.3H295.354C295.541 536.993 295.841 536.733 296.254 536.52C296.667 536.307 297.187 536.2 297.814 536.2H298.454V538.8H297.554C296.887 538.8 296.334 539.04 295.894 539.52C295.467 539.987 295.254 540.613 295.254 541.4V546H292.554V536.2H295.254V537.3ZM300.752 542.7C301.058 543.007 301.438 543.267 301.892 543.48C302.345 543.693 302.832 543.8 303.352 543.8C304.152 543.8 304.552 543.567 304.552 543.1C304.552 542.913 304.425 542.76 304.172 542.64C303.932 542.507 303.545 542.353 303.012 542.18C302.318 541.94 301.738 541.713 301.272 541.5C300.805 541.273 300.398 540.96 300.052 540.56C299.718 540.147 299.552 539.627 299.552 539C299.552 538.453 299.705 537.953 300.012 537.5C300.318 537.047 300.765 536.687 301.352 536.42C301.952 536.14 302.652 536 303.452 536C304.265 536 304.998 536.147 305.652 536.44C306.318 536.733 306.852 537.087 307.252 537.5L305.652 539.2C305.412 538.973 305.098 538.787 304.712 538.64C304.325 538.48 303.905 538.4 303.452 538.4C303.118 538.4 302.865 538.46 302.692 538.58C302.532 538.7 302.452 538.84 302.452 539C302.452 539.187 302.572 539.347 302.812 539.48C303.065 539.6 303.458 539.747 303.992 539.92C304.685 540.16 305.265 540.393 305.732 540.62C306.198 540.833 306.598 541.147 306.932 541.56C307.278 541.96 307.452 542.473 307.452 543.1C307.452 543.673 307.292 544.2 306.972 544.68C306.665 545.147 306.198 545.52 305.572 545.8C304.958 546.067 304.218 546.2 303.352 546.2C302.472 546.2 301.665 546.027 300.932 545.68C300.198 545.333 299.605 544.907 299.152 544.4L300.752 542.7ZM311.753 541.7C311.62 541.42 311.553 541.12 311.553 540.8C311.553 540.133 311.733 539.587 312.093 539.16C312.453 538.72 312.966 538.267 313.633 537.8C314.126 537.453 314.486 537.16 314.713 536.92C314.94 536.68 315.053 536.407 315.053 536.1C315.053 535.727 314.886 535.4 314.553 535.12C314.22 534.84 313.786 534.7 313.253 534.7C312.666 534.7 312.16 534.86 311.733 535.18C311.306 535.487 310.98 535.86 310.753 536.3L308.153 535.1C308.513 534.18 309.126 533.4 309.993 532.76C310.86 532.12 311.946 531.8 313.253 531.8C314.253 531.8 315.133 531.987 315.893 532.36C316.653 532.733 317.233 533.233 317.633 533.86C318.046 534.487 318.253 535.167 318.253 535.9C318.253 536.473 318.146 536.973 317.933 537.4C317.733 537.813 317.486 538.16 317.193 538.44C316.9 538.707 316.52 539.013 316.053 539.36C315.48 539.773 315.053 540.147 314.773 540.48C314.493 540.8 314.353 541.207 314.353 541.7H311.753ZM311.353 544.6C311.353 544.147 311.506 543.767 311.813 543.46C312.12 543.153 312.5 543 312.953 543C313.406 543 313.786 543.153 314.093 543.46C314.4 543.767 314.553 544.147 314.553 544.6C314.553 545.053 314.4 545.433 314.093 545.74C313.786 546.047 313.406 546.2 312.953 546.2C312.5 546.2 312.12 546.047 311.813 545.74C311.506 545.433 311.353 545.053 311.353 544.6Z" fill="#25272E"/>
<g filter="url(#filter0_d)">
<path d="M0 648.79C0 626.58 0 615.475 4.39088 607.022C8.09102 599.899 13.8989 594.091 21.022 590.391C29.4748 586 40.5799 586 62.79 586H312.21C334.42 586 345.525 586 353.978 590.391C361.101 594.091 366.909 599.899 370.609 607.022C375 615.475 375 626.58 375 648.79V812H0V648.79Z" fill="white"/>
</g>
<path fill-rule="evenodd" clip-rule="evenodd" d="M163 600.5C163 599.119 164.119 598 165.5 598H208.5C209.881 598 211 599.119 211 600.5V600.5C211 601.881 209.881 603 208.5 603H165.5C164.119 603 163 601.881 163 600.5V600.5Z" fill="#E6E8EB"/>
<path d="M16 664C16 656.458 16 652.686 18.3431 650.343C20.6863 648 24.4575 648 32 648H343C350.542 648 354.314 648 356.657 650.343C359 652.686 359 656.458 359 664V672C359 679.542 359 683.314 356.657 685.657C354.314 688 350.542 688 343 688H32C24.4575 688 20.6863 688 18.3431 685.657C16 683.314 16 679.542 16 672V664Z" fill="white"/>
<path fill-rule="evenodd" clip-rule="evenodd" d="M343 649H32C28.2005 649 25.4515 649.002 23.3551 649.284C21.2875 649.562 20.0051 650.095 19.0503 651.05C18.0954 652.005 17.562 653.287 17.284 655.355C17.0021 657.451 17 660.2 17 664V672C17 675.8 17.0021 678.549 17.284 680.645C17.562 682.713 18.0954 683.995 19.0503 684.95C20.0051 685.905 21.2875 686.438 23.3551 686.716C25.4515 686.998 28.2005 687 32 687H343C346.799 687 349.549 686.998 351.645 686.716C353.713 686.438 354.995 685.905 355.95 684.95C356.905 683.995 357.438 682.713 357.716 680.645C357.998 678.549 358 675.8 358 672V664C358 660.2 357.998 657.451 357.716 655.355C357.438 653.287 356.905 652.005 355.95 651.05C354.995 650.095 353.713 649.562 351.645 649.284C349.549 649.002 346.799 649 343 649ZM18.3431 650.343C16 652.686 16 656.458 16 664V672C16 679.542 16 683.314 18.3431 685.657C20.6863 688 24.4575 688 32 688H343C350.542 688 354.314 688 356.657 685.657C359 683.314 359 679.542 359 672V664C359 656.458 359 652.686 356.657 650.343C354.314 648 350.542 648 343 648H32C24.4575 648 20.6863 648 18.3431 650.343Z" fill="#F1F3F5" style="mix-blend-mode:multiply"/>
<path opacity="0.7" d="M29.44 670.664C29.7387 671.048 30.1493 671.373 30.672 671.64C31.1947 671.907 31.7973 672.04 32.48 672.04C33.3013 672.04 33.9307 671.848 34.368 671.464C34.816 671.08 35.04 670.579 35.04 669.96C35.04 669.544 34.9227 669.208 34.688 668.952C34.4533 668.685 34.16 668.483 33.808 668.344C33.4667 668.195 32.9867 668.029 32.368 667.848C31.632 667.635 31.0347 667.427 30.576 667.224C30.128 667.011 29.744 666.701 29.424 666.296C29.1147 665.891 28.96 665.352 28.96 664.68C28.96 664.136 29.104 663.635 29.392 663.176C29.6907 662.707 30.112 662.333 30.656 662.056C31.2107 661.779 31.8453 661.64 32.56 661.64C33.264 661.64 33.8987 661.779 34.464 662.056C35.0293 662.333 35.488 662.675 35.84 663.08L35.04 663.88C34.784 663.571 34.4427 663.309 34.016 663.096C33.5893 662.872 33.104 662.76 32.56 662.76C32.0693 662.76 31.6427 662.851 31.28 663.032C30.9173 663.203 30.64 663.437 30.448 663.736C30.256 664.024 30.16 664.339 30.16 664.68C30.16 665.096 30.2773 665.437 30.512 665.704C30.7467 665.96 31.0347 666.163 31.376 666.312C31.728 666.451 32.2133 666.611 32.832 666.792C33.568 667.005 34.16 667.219 34.608 667.432C35.0667 667.635 35.4507 667.939 35.76 668.344C36.08 668.749 36.24 669.288 36.24 669.96C36.24 670.579 36.0907 671.133 35.792 671.624C35.4933 672.104 35.0613 672.483 34.496 672.76C33.9307 673.027 33.2587 673.16 32.48 673.16C31.6373 673.16 30.8907 673 30.24 672.68C29.6 672.349 29.0933 671.949 28.72 671.48L29.44 670.664ZM44.8069 671.848C44.4655 672.211 44.0175 672.52 43.4629 672.776C42.9082 673.032 42.2895 673.16 41.6069 673.16C40.9242 673.16 40.2842 672.984 39.6869 672.632C39.1002 672.269 38.6309 671.784 38.2789 671.176C37.9375 670.568 37.7669 669.896 37.7669 669.16C37.7669 668.435 37.9375 667.768 38.2789 667.16C38.6309 666.541 39.0949 666.056 39.6709 665.704C40.2469 665.341 40.8655 665.16 41.5269 665.16C42.2095 665.16 42.8335 665.325 43.3989 665.656C43.9642 665.987 44.4069 666.445 44.7269 667.032C45.0469 667.608 45.2069 668.264 45.2069 669C45.2069 669.203 45.1802 669.395 45.1269 669.576L38.8869 669.56C38.9082 670.008 39.0469 670.429 39.3029 670.824C39.5589 671.219 39.8895 671.533 40.2949 671.768C40.7002 672.003 41.1375 672.12 41.6069 672.12C42.1402 672.12 42.6202 672.024 43.0469 671.832C43.4735 671.64 43.8202 671.405 44.0869 671.128L44.8069 671.848ZM44.0869 668.6C44.0015 667.907 43.7189 667.336 43.2389 666.888C42.7695 666.429 42.1989 666.2 41.5269 666.2C41.0895 666.2 40.6789 666.312 40.2949 666.536C39.9109 666.749 39.5909 667.043 39.3349 667.416C39.0895 667.779 38.9402 668.173 38.8869 668.6H44.0869ZM51.8419 671.96C51.5965 672.291 51.2605 672.573 50.8339 672.808C50.4072 673.043 49.9165 673.16 49.3619 673.16C48.8499 673.16 48.3859 673.053 47.9699 672.84C47.5539 672.627 47.2285 672.349 46.9939 672.008C46.7592 671.656 46.6419 671.293 46.6419 670.92C46.6419 670.269 46.8339 669.736 47.2179 669.32C47.6125 668.904 48.1672 668.664 48.8819 668.6L51.8419 668.344C51.8419 667.971 51.7565 667.619 51.5859 667.288C51.4259 666.957 51.1965 666.696 50.8979 666.504C50.6099 666.301 50.2845 666.2 49.9219 666.2C49.4739 666.2 49.0632 666.253 48.6899 666.36C48.3165 666.467 48.0072 666.6 47.7619 666.76L47.0419 666.04C47.3619 665.795 47.7725 665.587 48.2739 665.416C48.7752 665.245 49.3245 665.16 49.9219 665.16C50.4979 665.16 51.0152 665.293 51.4739 665.56C51.9432 665.816 52.3059 666.168 52.5619 666.616C52.8285 667.064 52.9619 667.565 52.9619 668.12V673H51.8419V671.96ZM49.2019 669.56C48.7325 669.603 48.3752 669.747 48.1299 669.992C47.8845 670.237 47.7619 670.547 47.7619 670.92C47.7619 671.261 47.9005 671.549 48.1779 671.784C48.4659 672.008 48.8605 672.12 49.3619 672.12C50.1085 672.12 50.7059 671.917 51.1539 671.512C51.6125 671.096 51.8419 670.52 51.8419 669.784V669.304L49.2019 669.56ZM56.1656 666.36C56.3683 666.029 56.6723 665.747 57.0776 665.512C57.4936 665.277 57.9896 665.16 58.5656 665.16H59.0456V666.28H58.5656C58.139 666.28 57.739 666.381 57.3656 666.584C57.003 666.787 56.7096 667.08 56.4856 667.464C56.2723 667.837 56.1656 668.269 56.1656 668.76V673H55.0456V665.32H56.1656V666.36ZM66.885 671.56C66.5223 672.008 66.0583 672.387 65.493 672.696C64.9383 673.005 64.3357 673.16 63.685 673.16C63.0023 673.16 62.3623 672.984 61.765 672.632C61.1783 672.269 60.709 671.784 60.357 671.176C60.0157 670.568 59.845 669.896 59.845 669.16C59.845 668.424 60.0157 667.752 60.357 667.144C60.709 666.536 61.1783 666.056 61.765 665.704C62.3623 665.341 63.0023 665.16 63.685 665.16C64.3357 665.16 64.933 665.309 65.477 665.608C66.021 665.896 66.4637 666.253 66.805 666.68L66.005 667.48C65.7597 667.128 65.4343 666.829 65.029 666.584C64.6343 666.328 64.1863 666.2 63.685 666.2C63.205 666.2 62.757 666.333 62.341 666.6C61.925 666.856 61.589 667.213 61.333 667.672C61.0877 668.12 60.965 668.616 60.965 669.16C60.965 669.704 61.0877 670.205 61.333 670.664C61.589 671.112 61.925 671.469 62.341 671.736C62.757 671.992 63.205 672.12 63.685 672.12C64.1863 672.12 64.645 671.997 65.061 671.752C65.477 671.496 65.8183 671.192 66.085 670.84L66.885 671.56ZM69.8394 666.44C70.0847 666.088 70.4207 665.789 70.8474 665.544C71.274 665.288 71.7647 665.16 72.3194 665.16C72.9274 665.16 73.466 665.293 73.9354 665.56C74.4154 665.827 74.7834 666.211 75.0394 666.712C75.306 667.203 75.4394 667.779 75.4394 668.44V673H74.3194V668.44C74.3194 667.768 74.122 667.229 73.7274 666.824C73.3434 666.408 72.8474 666.2 72.2394 666.2C71.7914 666.2 71.3807 666.312 71.0074 666.536C70.6447 666.749 70.3567 667.048 70.1434 667.432C69.9407 667.816 69.8394 668.259 69.8394 668.76V673H68.7194V661.8H69.8394V666.44ZM86.2325 671.96C85.9872 672.291 85.6512 672.573 85.2245 672.808C84.7978 673.043 84.3072 673.16 83.7525 673.16C83.2405 673.16 82.7765 673.053 82.3605 672.84C81.9445 672.627 81.6192 672.349 81.3845 672.008C81.1498 671.656 81.0325 671.293 81.0325 670.92C81.0325 670.269 81.2245 669.736 81.6085 669.32C82.0032 668.904 82.5578 668.664 83.2725 668.6L86.2325 668.344C86.2325 667.971 86.1472 667.619 85.9765 667.288C85.8165 666.957 85.5872 666.696 85.2885 666.504C85.0005 666.301 84.6752 666.2 84.3125 666.2C83.8645 666.2 83.4538 666.253 83.0805 666.36C82.7072 666.467 82.3978 666.6 82.1525 666.76L81.4325 666.04C81.7525 665.795 82.1632 665.587 82.6645 665.416C83.1658 665.245 83.7152 665.16 84.3125 665.16C84.8885 665.16 85.4058 665.293 85.8645 665.56C86.3338 665.816 86.6965 666.168 86.9525 666.616C87.2192 667.064 87.3525 667.565 87.3525 668.12V673H86.2325V671.96ZM83.5925 669.56C83.1232 669.603 82.7658 669.747 82.5205 669.992C82.2752 670.237 82.1525 670.547 82.1525 670.92C82.1525 671.261 82.2912 671.549 82.5685 671.784C82.8565 672.008 83.2512 672.12 83.7525 672.12C84.4992 672.12 85.0965 671.917 85.5445 671.512C86.0032 671.096 86.2325 670.52 86.2325 669.784V669.304L83.5925 669.56ZM98.87 671.88C98.6033 672.232 98.2407 672.536 97.782 672.792C97.3233 673.037 96.806 673.16 96.23 673.16C95.5473 673.16 94.918 672.989 94.342 672.648C93.766 672.296 93.3073 671.816 92.966 671.208C92.6353 670.6 92.47 669.917 92.47 669.16C92.47 668.403 92.6353 667.72 92.966 667.112C93.3073 666.504 93.766 666.029 94.342 665.688C94.918 665.336 95.5473 665.16 96.23 665.16C96.806 665.16 97.3233 665.288 97.782 665.544C98.2407 665.789 98.6033 666.088 98.87 666.44V661.8H99.99V673H98.87V671.88ZM96.23 672.12C96.678 672.12 97.1047 671.992 97.51 671.736C97.926 671.469 98.2567 671.112 98.502 670.664C98.7473 670.205 98.87 669.704 98.87 669.16C98.87 668.616 98.7473 668.12 98.502 667.672C98.2567 667.213 97.926 666.856 97.51 666.6C97.1047 666.333 96.678 666.2 96.23 666.2C95.75 666.2 95.3073 666.328 94.902 666.584C94.4967 666.829 94.1767 667.176 93.942 667.624C93.7073 668.072 93.59 668.584 93.59 669.16C93.59 669.736 93.7073 670.248 93.942 670.696C94.1767 671.144 94.4967 671.496 94.902 671.752C95.3073 671.997 95.75 672.12 96.23 672.12ZM105.984 673.16C105.269 673.16 104.613 672.984 104.016 672.632C103.418 672.269 102.944 671.784 102.592 671.176C102.24 670.568 102.064 669.896 102.064 669.16C102.064 668.424 102.24 667.752 102.592 667.144C102.944 666.536 103.418 666.056 104.016 665.704C104.613 665.341 105.269 665.16 105.984 665.16C106.698 665.16 107.354 665.341 107.952 665.704C108.549 666.056 109.024 666.536 109.376 667.144C109.728 667.752 109.904 668.424 109.904 669.16C109.904 669.896 109.728 670.568 109.376 671.176C109.024 671.784 108.549 672.269 107.952 672.632C107.354 672.984 106.698 673.16 105.984 673.16ZM105.984 672.12C106.485 672.12 106.949 671.992 107.376 671.736C107.802 671.469 108.144 671.112 108.4 670.664C108.656 670.205 108.784 669.704 108.784 669.16C108.784 668.616 108.656 668.12 108.4 667.672C108.144 667.213 107.802 666.856 107.376 666.6C106.949 666.333 106.485 666.2 105.984 666.2C105.482 666.2 105.018 666.333 104.592 666.6C104.165 666.856 103.824 667.213 103.568 667.672C103.312 668.12 103.184 668.616 103.184 669.16C103.184 669.704 103.312 670.205 103.568 670.664C103.824 671.112 104.165 671.469 104.592 671.736C105.018 671.992 105.482 672.12 105.984 672.12ZM118.385 671.56C118.022 672.008 117.558 672.387 116.993 672.696C116.438 673.005 115.836 673.16 115.185 673.16C114.502 673.16 113.862 672.984 113.265 672.632C112.678 672.269 112.209 671.784 111.857 671.176C111.516 670.568 111.345 669.896 111.345 669.16C111.345 668.424 111.516 667.752 111.857 667.144C112.209 666.536 112.678 666.056 113.265 665.704C113.862 665.341 114.502 665.16 115.185 665.16C115.836 665.16 116.433 665.309 116.977 665.608C117.521 665.896 117.964 666.253 118.305 666.68L117.505 667.48C117.26 667.128 116.934 666.829 116.529 666.584C116.134 666.328 115.686 666.2 115.185 666.2C114.705 666.2 114.257 666.333 113.841 666.6C113.425 666.856 113.089 667.213 112.833 667.672C112.588 668.12 112.465 668.616 112.465 669.16C112.465 669.704 112.588 670.205 112.833 670.664C113.089 671.112 113.425 671.469 113.841 671.736C114.257 671.992 114.705 672.12 115.185 672.12C115.686 672.12 116.145 671.997 116.561 671.752C116.977 671.496 117.318 671.192 117.585 670.84L118.385 671.56ZM119.339 665.32H120.779V662.76H121.899V665.32H123.979V666.36H121.899V670.92C121.899 671.304 121.985 671.576 122.155 671.736C122.337 671.885 122.598 671.96 122.939 671.96H123.979V673H122.891C122.219 673 121.697 672.829 121.323 672.488C120.961 672.147 120.779 671.624 120.779 670.92V666.36H119.339V665.32ZM129.109 673.16C128.394 673.16 127.738 672.984 127.141 672.632C126.543 672.269 126.069 671.784 125.717 671.176C125.365 670.568 125.189 669.896 125.189 669.16C125.189 668.424 125.365 667.752 125.717 667.144C126.069 666.536 126.543 666.056 127.141 665.704C127.738 665.341 128.394 665.16 129.109 665.16C129.823 665.16 130.479 665.341 131.077 665.704C131.674 666.056 132.149 666.536 132.501 667.144C132.853 667.752 133.029 668.424 133.029 669.16C133.029 669.896 132.853 670.568 132.501 671.176C132.149 671.784 131.674 672.269 131.077 672.632C130.479 672.984 129.823 673.16 129.109 673.16ZM129.109 672.12C129.61 672.12 130.074 671.992 130.501 671.736C130.927 671.469 131.269 671.112 131.525 670.664C131.781 670.205 131.909 669.704 131.909 669.16C131.909 668.616 131.781 668.12 131.525 667.672C131.269 667.213 130.927 666.856 130.501 666.6C130.074 666.333 129.61 666.2 129.109 666.2C128.607 666.2 128.143 666.333 127.717 666.6C127.29 666.856 126.949 667.213 126.693 667.672C126.437 668.12 126.309 668.616 126.309 669.16C126.309 669.704 126.437 670.205 126.693 670.664C126.949 671.112 127.29 671.469 127.717 671.736C128.143 671.992 128.607 672.12 129.109 672.12ZM136.15 666.36C136.353 666.029 136.657 665.747 137.062 665.512C137.478 665.277 137.974 665.16 138.55 665.16H139.03V666.28H138.55C138.123 666.28 137.723 666.381 137.35 666.584C136.987 666.787 136.694 667.08 136.47 667.464C136.257 667.837 136.15 668.269 136.15 668.76V673H135.03V665.32H136.15V666.36ZM147.187 673.16C146.472 673.16 145.816 672.984 145.219 672.632C144.622 672.269 144.147 671.784 143.795 671.176C143.443 670.568 143.267 669.896 143.267 669.16C143.267 668.424 143.443 667.752 143.795 667.144C144.147 666.536 144.622 666.056 145.219 665.704C145.816 665.341 146.472 665.16 147.187 665.16C147.902 665.16 148.558 665.341 149.155 665.704C149.752 666.056 150.227 666.536 150.579 667.144C150.931 667.752 151.107 668.424 151.107 669.16C151.107 669.896 150.931 670.568 150.579 671.176C150.227 671.784 149.752 672.269 149.155 672.632C148.558 672.984 147.902 673.16 147.187 673.16ZM147.187 672.12C147.688 672.12 148.152 671.992 148.579 671.736C149.006 671.469 149.347 671.112 149.603 670.664C149.859 670.205 149.987 669.704 149.987 669.16C149.987 668.616 149.859 668.12 149.603 667.672C149.347 667.213 149.006 666.856 148.579 666.6C148.152 666.333 147.688 666.2 147.187 666.2C146.686 666.2 146.222 666.333 145.795 666.6C145.368 666.856 145.027 667.213 144.771 667.672C144.515 668.12 144.387 668.616 144.387 669.16C144.387 669.704 144.515 670.205 144.771 670.664C145.027 671.112 145.368 671.469 145.795 671.736C146.222 671.992 146.686 672.12 147.187 672.12ZM154.228 666.36C154.431 666.029 154.735 665.747 155.14 665.512C155.556 665.277 156.052 665.16 156.628 665.16H157.108V666.28H156.628C156.201 666.28 155.801 666.381 155.428 666.584C155.065 666.787 154.772 667.08 154.548 667.464C154.335 667.837 154.228 668.269 154.228 668.76V673H153.108V665.32H154.228V666.36ZM161.985 671C162.198 671.309 162.481 671.576 162.833 671.8C163.185 672.013 163.569 672.12 163.985 672.12C164.529 672.12 164.945 672.003 165.233 671.768C165.521 671.523 165.665 671.213 165.665 670.84C165.665 670.488 165.516 670.221 165.217 670.04C164.929 669.859 164.492 669.683 163.905 669.512C163.382 669.352 162.961 669.203 162.641 669.064C162.332 668.915 162.065 668.701 161.841 668.424C161.617 668.136 161.505 667.768 161.505 667.32C161.505 666.947 161.612 666.595 161.825 666.264C162.049 665.933 162.353 665.667 162.737 665.464C163.132 665.261 163.574 665.16 164.065 665.16C164.588 665.16 165.062 665.261 165.489 665.464C165.926 665.667 166.278 665.912 166.545 666.2L165.745 667C165.574 666.776 165.34 666.589 165.041 666.44C164.753 666.28 164.428 666.2 164.065 666.2C163.638 666.2 163.292 666.312 163.025 666.536C162.758 666.76 162.625 667.021 162.625 667.32C162.625 667.651 162.764 667.901 163.041 668.072C163.318 668.232 163.75 668.397 164.337 668.568C164.86 668.728 165.281 668.883 165.601 669.032C165.932 669.181 166.209 669.405 166.433 669.704C166.668 669.992 166.785 670.371 166.785 670.84C166.785 671.267 166.673 671.656 166.449 672.008C166.225 672.36 165.9 672.643 165.473 672.856C165.046 673.059 164.55 673.16 163.985 673.16C163.356 673.16 162.801 673.032 162.321 672.776C161.841 672.509 161.462 672.184 161.185 671.8L161.985 671ZM169.9 666.44C170.167 666.088 170.529 665.789 170.988 665.544C171.447 665.288 171.964 665.16 172.54 665.16C173.223 665.16 173.852 665.336 174.428 665.688C175.004 666.029 175.457 666.504 175.788 667.112C176.129 667.72 176.3 668.403 176.3 669.16C176.3 669.917 176.129 670.6 175.788 671.208C175.457 671.816 175.004 672.296 174.428 672.648C173.852 672.989 173.223 673.16 172.54 673.16C171.964 673.16 171.447 673.037 170.988 672.792C170.529 672.536 170.167 672.232 169.9 671.88V676.36H168.78V665.32H169.9V666.44ZM172.54 672.12C173.02 672.12 173.463 671.997 173.868 671.752C174.273 671.496 174.593 671.144 174.828 670.696C175.063 670.248 175.18 669.736 175.18 669.16C175.18 668.584 175.063 668.072 174.828 667.624C174.593 667.176 174.273 666.829 173.868 666.584C173.463 666.328 173.02 666.2 172.54 666.2C172.092 666.2 171.66 666.333 171.244 666.6C170.839 666.856 170.513 667.213 170.268 667.672C170.023 668.12 169.9 668.616 169.9 669.16C169.9 669.704 170.023 670.205 170.268 670.664C170.513 671.112 170.839 671.469 171.244 671.736C171.66 671.992 172.092 672.12 172.54 672.12ZM184.776 671.848C184.434 672.211 183.986 672.52 183.432 672.776C182.877 673.032 182.258 673.16 181.576 673.16C180.893 673.16 180.253 672.984 179.656 672.632C179.069 672.269 178.6 671.784 178.248 671.176C177.906 670.568 177.736 669.896 177.736 669.16C177.736 668.435 177.906 667.768 178.248 667.16C178.6 666.541 179.064 666.056 179.64 665.704C180.216 665.341 180.834 665.16 181.496 665.16C182.178 665.16 182.802 665.325 183.368 665.656C183.933 665.987 184.376 666.445 184.696 667.032C185.016 667.608 185.176 668.264 185.176 669C185.176 669.203 185.149 669.395 185.096 669.576L178.856 669.56C178.877 670.008 179.016 670.429 179.272 670.824C179.528 671.219 179.858 671.533 180.264 671.768C180.669 672.003 181.106 672.12 181.576 672.12C182.109 672.12 182.589 672.024 183.016 671.832C183.442 671.64 183.789 671.405 184.056 671.128L184.776 671.848ZM184.056 668.6C183.97 667.907 183.688 667.336 183.208 666.888C182.738 666.429 182.168 666.2 181.496 666.2C181.058 666.2 180.648 666.312 180.264 666.536C179.88 666.749 179.56 667.043 179.304 667.416C179.058 667.779 178.909 668.173 178.856 668.6H184.056ZM193.651 671.56C193.288 672.008 192.824 672.387 192.259 672.696C191.704 673.005 191.101 673.16 190.451 673.16C189.768 673.16 189.128 672.984 188.531 672.632C187.944 672.269 187.475 671.784 187.123 671.176C186.781 670.568 186.611 669.896 186.611 669.16C186.611 668.424 186.781 667.752 187.123 667.144C187.475 666.536 187.944 666.056 188.531 665.704C189.128 665.341 189.768 665.16 190.451 665.16C191.101 665.16 191.699 665.309 192.243 665.608C192.787 665.896 193.229 666.253 193.571 666.68L192.771 667.48C192.525 667.128 192.2 666.829 191.795 666.584C191.4 666.328 190.952 666.2 190.451 666.2C189.971 666.2 189.523 666.333 189.107 666.6C188.691 666.856 188.355 667.213 188.099 667.672C187.853 668.12 187.731 668.616 187.731 669.16C187.731 669.704 187.853 670.205 188.099 670.664C188.355 671.112 188.691 671.469 189.107 671.736C189.523 671.992 189.971 672.12 190.451 672.12C190.952 672.12 191.411 671.997 191.827 671.752C192.243 671.496 192.584 671.192 192.851 670.84L193.651 671.56ZM195.245 662.76C195.245 662.557 195.314 662.387 195.453 662.248C195.592 662.109 195.762 662.04 195.965 662.04C196.168 662.04 196.338 662.109 196.477 662.248C196.616 662.387 196.685 662.557 196.685 662.76C196.685 662.963 196.616 663.133 196.477 663.272C196.338 663.411 196.168 663.48 195.965 663.48C195.762 663.48 195.592 663.411 195.453 663.272C195.314 663.133 195.245 662.963 195.245 662.76ZM196.525 665.32V673H195.405V665.32H196.525ZM203.733 671.96C203.487 672.291 203.151 672.573 202.725 672.808C202.298 673.043 201.807 673.16 201.253 673.16C200.741 673.16 200.277 673.053 199.861 672.84C199.445 672.627 199.119 672.349 198.885 672.008C198.65 671.656 198.533 671.293 198.533 670.92C198.533 670.269 198.725 669.736 199.109 669.32C199.503 668.904 200.058 668.664 200.773 668.6L203.733 668.344C203.733 667.971 203.647 667.619 203.477 667.288C203.317 666.957 203.087 666.696 202.789 666.504C202.501 666.301 202.175 666.2 201.812 666.2C201.365 666.2 200.954 666.253 200.581 666.36C200.207 666.467 199.898 666.6 199.653 666.76L198.933 666.04C199.253 665.795 199.663 665.587 200.164 665.416C200.666 665.245 201.215 665.16 201.812 665.16C202.389 665.16 202.906 665.293 203.365 665.56C203.834 665.816 204.197 666.168 204.453 666.616C204.719 667.064 204.853 667.565 204.853 668.12V673H203.733V671.96ZM201.093 669.56C200.623 669.603 200.266 669.747 200.021 669.992C199.775 670.237 199.653 670.547 199.653 670.92C199.653 671.261 199.791 671.549 200.069 671.784C200.357 672.008 200.751 672.12 201.253 672.12C201.999 672.12 202.597 671.917 203.045 671.512C203.503 671.096 203.733 670.52 203.733 669.784V669.304L201.093 669.56ZM208.136 661.8V673H207.016V661.8H208.136ZM210.62 662.76C210.62 662.557 210.689 662.387 210.828 662.248C210.967 662.109 211.137 662.04 211.34 662.04C211.543 662.04 211.713 662.109 211.852 662.248C211.991 662.387 212.06 662.557 212.06 662.76C212.06 662.963 211.991 663.133 211.852 663.272C211.713 663.411 211.543 663.48 211.34 663.48C211.137 663.48 210.967 663.411 210.828 663.272C210.689 663.133 210.62 662.963 210.62 662.76ZM211.9 665.32V673H210.78V665.32H211.9ZM214.548 671C214.761 671.309 215.044 671.576 215.396 671.8C215.748 672.013 216.132 672.12 216.548 672.12C217.092 672.12 217.508 672.003 217.796 671.768C218.084 671.523 218.228 671.213 218.228 670.84C218.228 670.488 218.078 670.221 217.78 670.04C217.492 669.859 217.054 669.683 216.468 669.512C215.945 669.352 215.524 669.203 215.204 669.064C214.894 668.915 214.628 668.701 214.404 668.424C214.18 668.136 214.068 667.768 214.068 667.32C214.068 666.947 214.174 666.595 214.388 666.264C214.612 665.933 214.916 665.667 215.299 665.464C215.694 665.261 216.137 665.16 216.628 665.16C217.15 665.16 217.625 665.261 218.052 665.464C218.489 665.667 218.841 665.912 219.108 666.2L218.308 667C218.137 666.776 217.902 666.589 217.604 666.44C217.316 666.28 216.99 666.2 216.628 666.2C216.201 666.2 215.854 666.312 215.588 666.536C215.321 666.76 215.188 667.021 215.188 667.32C215.188 667.651 215.326 667.901 215.604 668.072C215.881 668.232 216.313 668.397 216.9 668.568C217.422 668.728 217.844 668.883 218.164 669.032C218.494 669.181 218.772 669.405 218.996 669.704C219.23 669.992 219.348 670.371 219.348 670.84C219.348 671.267 219.236 671.656 219.012 672.008C218.788 672.36 218.462 672.643 218.036 672.856C217.609 673.059 217.113 673.16 216.548 673.16C215.918 673.16 215.364 673.032 214.884 672.776C214.404 672.509 214.025 672.184 213.748 671.8L214.548 671ZM220.543 665.32H221.983V662.76H223.103V665.32H225.183V666.36H223.103V670.92C223.103 671.304 223.188 671.576 223.359 671.736C223.54 671.885 223.801 671.96 224.143 671.96H225.183V673H224.095C223.423 673 222.9 672.829 222.527 672.488C222.164 672.147 221.983 671.624 221.983 670.92V666.36H220.543V665.32Z" fill="#70747D"/>
<path d="M20.69 626.2C21.6233 626.2 22.482 626.424 23.266 626.872C24.05 627.311 24.666 627.908 25.114 628.664C25.5713 629.411 25.8 630.223 25.8 631.1C25.8 631.977 25.5713 632.794 25.114 633.55C24.666 634.297 24.05 634.894 23.266 635.342C22.482 635.781 21.6233 636 20.69 636H17.4V626.2H20.69ZM20.69 634.6C21.3527 634.6 21.9547 634.446 22.496 634.138C23.0467 633.83 23.476 633.41 23.784 632.878C24.1013 632.337 24.26 631.744 24.26 631.1C24.26 630.456 24.1013 629.868 23.784 629.336C23.476 628.795 23.0467 628.37 22.496 628.062C21.9547 627.754 21.3527 627.6 20.69 627.6H18.94V634.6H20.69ZM27.1284 632.64C27.1284 631.996 27.2824 631.408 27.5904 630.876C27.8984 630.335 28.3184 629.91 28.8504 629.602C29.3917 629.294 29.9844 629.14 30.6284 629.14C31.2724 629.14 31.8604 629.294 32.3924 629.602C32.9337 629.91 33.3584 630.335 33.6664 630.876C33.9744 631.408 34.1284 631.996 34.1284 632.64C34.1284 633.284 33.9744 633.877 33.6664 634.418C33.3584 634.95 32.9337 635.37 32.3924 635.678C31.8604 635.986 31.2724 636.14 30.6284 636.14C29.9844 636.14 29.3917 635.986 28.8504 635.678C28.3184 635.37 27.8984 634.95 27.5904 634.418C27.2824 633.877 27.1284 633.284 27.1284 632.64ZM30.6284 634.81C31.0204 634.81 31.375 634.717 31.6924 634.53C32.019 634.343 32.271 634.087 32.4484 633.76C32.635 633.424 32.7284 633.051 32.7284 632.64C32.7284 632.229 32.635 631.861 32.4484 631.534C32.271 631.198 32.019 630.937 31.6924 630.75C31.375 630.563 31.0204 630.47 30.6284 630.47C30.2364 630.47 29.877 630.563 29.5504 630.75C29.233 630.937 28.981 631.198 28.7944 631.534C28.617 631.861 28.5284 632.229 28.5284 632.64C28.5284 633.051 28.617 633.424 28.7944 633.76C28.981 634.087 29.233 634.343 29.5504 634.53C29.877 634.717 30.2364 634.81 30.6284 634.81ZM41.6195 634.74C41.3208 635.132 40.9195 635.463 40.4155 635.734C39.9208 636.005 39.3655 636.14 38.7495 636.14C38.1055 636.14 37.5128 635.986 36.9715 635.678C36.4395 635.37 36.0195 634.95 35.7115 634.418C35.4035 633.877 35.2495 633.284 35.2495 632.64C35.2495 631.996 35.4035 631.408 35.7115 630.876C36.0195 630.335 36.4395 629.91 36.9715 629.602C37.5128 629.294 38.1055 629.14 38.7495 629.14C39.3655 629.14 39.9161 629.271 40.4015 629.532C40.8868 629.784 41.2695 630.097 41.5495 630.47L40.5695 631.38C40.3735 631.128 40.1168 630.913 39.7995 630.736C39.4915 630.559 39.1415 630.47 38.7495 630.47C38.3575 630.47 37.9981 630.563 37.6715 630.75C37.3541 630.937 37.1021 631.198 36.9155 631.534C36.7381 631.861 36.6495 632.229 36.6495 632.64C36.6495 633.051 36.7381 633.424 36.9155 633.76C37.1021 634.087 37.3541 634.343 37.6715 634.53C37.9981 634.717 38.3575 634.81 38.7495 634.81C39.1415 634.81 39.5008 634.717 39.8275 634.53C40.1541 634.334 40.4248 634.101 40.6395 633.83L41.6195 634.74ZM42.3829 629.28H43.6429V627.04H45.0429V629.28H46.7929V630.61H45.0429V633.76C45.0429 634.096 45.1222 634.334 45.2809 634.474C45.4396 634.605 45.6869 634.67 46.0229 634.67H46.7929V636H45.7429C44.3429 636 43.6429 635.3 43.6429 633.9V630.61H42.3829V629.28ZM47.9096 632.64C47.9096 631.996 48.0636 631.408 48.3716 630.876C48.6796 630.335 49.0996 629.91 49.6316 629.602C50.1729 629.294 50.7656 629.14 51.4096 629.14C52.0536 629.14 52.6416 629.294 53.1736 629.602C53.7149 629.91 54.1396 630.335 54.4476 630.876C54.7556 631.408 54.9096 631.996 54.9096 632.64C54.9096 633.284 54.7556 633.877 54.4476 634.418C54.1396 634.95 53.7149 635.37 53.1736 635.678C52.6416 635.986 52.0536 636.14 51.4096 636.14C50.7656 636.14 50.1729 635.986 49.6316 635.678C49.0996 635.37 48.6796 634.95 48.3716 634.418C48.0636 633.877 47.9096 633.284 47.9096 632.64ZM51.4096 634.81C51.8016 634.81 52.1563 634.717 52.4736 634.53C52.8003 634.343 53.0523 634.087 53.2296 633.76C53.4163 633.424 53.5096 633.051 53.5096 632.64C53.5096 632.229 53.4163 631.861 53.2296 631.534C53.0523 631.198 52.8003 630.937 52.4736 630.75C52.1563 630.563 51.8016 630.47 51.4096 630.47C51.0176 630.47 50.6583 630.563 50.3316 630.75C50.0143 630.937 49.7623 631.198 49.5756 631.534C49.3983 631.861 49.3096 632.229 49.3096 632.64C49.3096 633.051 49.3983 633.424 49.5756 633.76C49.7623 634.087 50.0143 634.343 50.3316 634.53C50.6583 634.717 51.0176 634.81 51.4096 634.81ZM57.8507 630.19C58.0374 629.938 58.2847 629.723 58.5927 629.546C58.91 629.369 59.2694 629.28 59.6707 629.28H60.2307V630.54H59.6707C59.344 630.54 59.0407 630.629 58.7607 630.806C58.4807 630.974 58.2567 631.217 58.0887 631.534C57.93 631.842 57.8507 632.187 57.8507 632.57V636H56.4507V629.28H57.8507V630.19Z" fill="#25272E"/>
<path d="M346.911 674.032C347.16 674.281 347.299 674.619 347.299 674.971C347.299 675.323 347.16 675.661 346.911 675.91C346.662 676.159 346.325 676.299 345.973 676.299C345.621 676.299 345.284 676.159 345.035 675.91L340.924 671.806C339.765 672.573 338.39 672.956 336.997 672.894C335.519 672.828 334.106 672.266 332.986 671.298C331.865 670.331 331.103 669.014 330.82 667.559C330.538 666.105 330.753 664.598 331.429 663.28C332.106 661.963 333.206 660.911 334.552 660.296C335.898 659.68 337.411 659.536 338.849 659.887C340.286 660.237 341.564 661.062 342.477 662.228C343.389 663.394 343.884 664.833 343.88 666.315C343.884 667.597 343.507 668.85 342.8 669.915L346.911 674.032ZM340.563 664.134C340.133 663.489 339.522 662.985 338.806 662.688C338.09 662.39 337.303 662.312 336.543 662.462C335.783 662.613 335.084 662.985 334.535 663.533C333.986 664.081 333.612 664.78 333.459 665.541C333.306 666.302 333.382 667.091 333.677 667.809C333.972 668.527 334.473 669.141 335.116 669.574C335.759 670.007 336.515 670.239 337.29 670.242H337.303C337.818 670.244 338.329 670.143 338.806 669.947C339.282 669.75 339.715 669.461 340.079 669.096C340.443 668.731 340.732 668.298 340.928 667.82C341.125 667.343 341.225 666.831 341.223 666.315C341.223 665.539 340.994 664.78 340.563 664.134Z" fill="#CDCED1"/>
<g style="mix-blend-mode:multiply">
<rect x="279" y="720" width="80" height="40" rx="20" fill="#F1F3F5" style="mix-blend-mode:multiply"/>
<path d="M305.164 742.28C305.442 742.632 305.82 742.936 306.3 743.192C306.78 743.437 307.335 743.56 307.964 743.56C308.658 743.56 309.202 743.4 309.596 743.08C310.002 742.749 310.204 742.349 310.204 741.88C310.204 741.539 310.098 741.261 309.884 741.048C309.682 740.835 309.42 740.664 309.1 740.536C308.791 740.408 308.359 740.269 307.804 740.12C307.047 739.896 306.439 739.683 305.98 739.48C305.522 739.267 305.122 738.941 304.78 738.504C304.45 738.067 304.284 737.485 304.284 736.76C304.284 736.195 304.439 735.677 304.748 735.208C305.058 734.728 305.5 734.349 306.076 734.072C306.663 733.784 307.346 733.64 308.124 733.64C308.882 733.64 309.564 733.779 310.172 734.056C310.791 734.333 311.282 734.675 311.644 735.08L310.444 736.28C310.199 735.992 309.874 735.747 309.468 735.544C309.074 735.341 308.626 735.24 308.124 735.24C307.474 735.24 306.962 735.389 306.588 735.688C306.226 735.976 306.044 736.333 306.044 736.76C306.044 737.101 306.146 737.379 306.348 737.592C306.562 737.805 306.823 737.976 307.132 738.104C307.452 738.232 307.89 738.371 308.444 738.52C309.202 738.744 309.81 738.963 310.268 739.176C310.727 739.379 311.122 739.699 311.452 740.136C311.794 740.573 311.964 741.155 311.964 741.88C311.964 742.467 311.799 743.011 311.468 743.512C311.148 744.013 310.684 744.413 310.076 744.712C309.468 745.011 308.764 745.16 307.964 745.16C307.079 745.16 306.29 745 305.596 744.68C304.903 744.349 304.359 743.949 303.964 743.48L305.164 742.28ZM315.409 733.8V740.84L318.689 737.32H320.689L317.729 740.44L320.929 745H319.089L316.689 741.56L315.409 742.92V745H313.809V733.8H315.409ZM321.962 734.92C321.962 734.653 322.058 734.429 322.25 734.248C322.453 734.056 322.677 733.96 322.922 733.96C323.167 733.96 323.386 734.056 323.578 734.248C323.781 734.429 323.882 734.653 323.882 734.92C323.882 735.187 323.781 735.416 323.578 735.608C323.386 735.789 323.167 735.88 322.922 735.88C322.677 735.88 322.453 735.789 322.25 735.608C322.058 735.416 321.962 735.187 321.962 734.92ZM323.722 737.32V745H322.122V737.32H323.722ZM327.642 738.44C327.887 738.088 328.239 737.789 328.698 737.544C329.157 737.288 329.685 737.16 330.282 737.16C330.922 737.16 331.514 737.336 332.058 737.688C332.613 738.029 333.055 738.504 333.386 739.112C333.717 739.72 333.882 740.403 333.882 741.16C333.882 741.917 333.717 742.6 333.386 743.208C333.055 743.816 332.613 744.296 332.058 744.648C331.514 744.989 330.922 745.16 330.282 745.16C329.685 745.16 329.157 745.037 328.698 744.792C328.239 744.536 327.887 744.232 327.642 743.88V748.36H326.042V737.32H327.642V738.44ZM329.962 743.64C330.389 743.64 330.778 743.533 331.13 743.32C331.482 743.107 331.759 742.813 331.962 742.44C332.175 742.056 332.282 741.629 332.282 741.16C332.282 740.691 332.175 740.269 331.962 739.896C331.759 739.512 331.482 739.213 331.13 739C330.778 738.787 330.389 738.68 329.962 738.68C329.535 738.68 329.146 738.787 328.794 739C328.442 739.213 328.159 739.512 327.946 739.896C327.743 740.269 327.642 740.691 327.642 741.16C327.642 741.629 327.743 742.056 327.946 742.44C328.159 742.813 328.442 743.107 328.794 743.32C329.146 743.533 329.535 743.64 329.962 743.64Z" fill="#25272E"/>
</g>
<path fill-rule="evenodd" clip-rule="evenodd" d="M121 800.5C121 799.119 122.119 798 123.5 798H252.5C253.881 798 255 799.119 255 800.5V800.5C255 801.881 253.881 803 252.5 803H123.5C122.119 803 121 801.881 121 800.5V800.5Z" fill="black"/>
<g filter="url(#filter1_b)">
<rect width="375" height="88" fill="white" fill-opacity="0.95"/>
<path opacity="0.35" d="M338.663 17.7988H355.329C356.525 17.7988 357.496 18.7689 357.496 19.9655V25.9439C357.496 27.1405 356.525 28.1106 355.329 28.1106H338.663C337.466 28.1106 336.496 27.1405 336.496 25.9439V19.9655C336.496 18.7689 337.466 17.7988 338.663 17.7988Z" stroke="black"/>
<path opacity="0.4" d="M358.996 20.959V24.9514C359.801 24.6132 360.324 23.8267 360.324 22.9552C360.324 22.0837 359.801 21.2971 358.996 20.959" fill="black"/>
<path d="M337.996 20.6283C337.996 19.8919 338.593 19.2949 339.329 19.2949H354.662C355.399 19.2949 355.996 19.8919 355.996 20.6283V25.281C355.996 26.0173 355.399 26.6143 354.662 26.6143H339.329C338.593 26.6143 337.996 26.0173 337.996 25.281V20.6283Z" fill="black"/>
<path fill-rule="evenodd" clip-rule="evenodd" d="M323.328 19.5699C325.544 19.57 327.675 20.4198 329.281 21.9437C329.402 22.0613 329.595 22.0598 329.714 21.9404L330.87 20.7759C330.93 20.7153 330.964 20.6332 330.963 20.5478C330.963 20.4624 330.928 20.3807 330.867 20.3208C326.652 16.2889 320.003 16.2889 315.788 20.3208C315.727 20.3806 315.692 20.4623 315.691 20.5477C315.691 20.6331 315.724 20.7153 315.785 20.7759L316.941 21.9404C317.06 22.06 317.253 22.0615 317.374 21.9437C318.98 20.4197 321.112 19.5699 323.328 19.5699ZM323.328 23.3583C324.545 23.3582 325.719 23.8099 326.622 24.6256C326.744 24.7413 326.936 24.7388 327.055 24.6199L328.21 23.4555C328.27 23.3944 328.304 23.3115 328.303 23.2254C328.302 23.1393 328.267 23.0572 328.205 22.9973C325.457 20.4458 321.201 20.4458 318.453 22.9973C318.391 23.0572 318.355 23.1394 318.355 23.2255C318.354 23.3116 318.388 23.3945 318.449 23.4555L319.603 24.6199C319.722 24.7388 319.914 24.7413 320.036 24.6256C320.938 23.8104 322.111 23.3588 323.328 23.3583ZM325.641 25.9073C325.643 25.9936 325.609 26.0769 325.547 26.1374L323.549 28.1492C323.491 28.2083 323.411 28.2416 323.328 28.2416C323.245 28.2416 323.165 28.2083 323.106 28.1492L321.109 26.1374C321.047 26.0768 321.013 25.9935 321.015 25.9072C321.017 25.8209 321.054 25.7391 321.118 25.6812C322.394 24.6044 324.262 24.6044 325.537 25.6812C325.602 25.7391 325.639 25.8209 325.641 25.9073Z" fill="black"/>
<path fill-rule="evenodd" clip-rule="evenodd" d="M309.664 17.6328H308.664C308.111 17.6328 307.664 18.0797 307.664 18.6309V27.2811C307.664 27.8323 308.111 28.2792 308.664 28.2792H309.664C310.216 28.2792 310.664 27.8323 310.664 27.2811V18.6309C310.664 18.0797 310.216 17.6328 309.664 17.6328ZM303.997 19.9617H304.997C305.549 19.9617 305.997 20.4086 305.997 20.9598V27.2811C305.997 27.8323 305.549 28.2792 304.997 28.2792H303.997C303.445 28.2792 302.997 27.8323 302.997 27.2811V20.9598C302.997 20.4086 303.445 19.9617 303.997 19.9617ZM300.331 22.2906H299.331C298.778 22.2906 298.331 22.7375 298.331 23.2887V27.2811C298.331 27.8323 298.778 28.2792 299.331 28.2792H300.331C300.883 28.2792 301.331 27.8323 301.331 27.2811V23.2887C301.331 22.7375 300.883 22.2906 300.331 22.2906ZM295.664 24.2868H294.664C294.112 24.2868 293.664 24.7337 293.664 25.2849V27.2811C293.664 27.8323 294.112 28.2792 294.664 28.2792H295.664C296.216 28.2792 296.664 27.8323 296.664 27.2811V25.2849C296.664 24.7337 296.216 24.2868 295.664 24.2868Z" fill="black"/>
<path d="M33.1637 20.4946V20.5239H34.9362V20.4946C34.9362 19.418 35.6833 18.6929 36.7892 18.6929C37.8293 18.6929 38.591 19.3667 38.591 20.2969C38.591 21.0439 38.2321 21.5933 36.7892 23.0581L33.2663 26.6616V27.9727H40.6052V26.3687H35.8591V26.2441L38.071 24.0249C39.8654 22.2524 40.444 21.3149 40.444 20.1797C40.444 18.4146 38.9352 17.1401 36.8478 17.1401C34.6799 17.1401 33.1637 18.5171 33.1637 20.4946ZM43.7768 26.8521C44.4726 26.8521 44.9487 26.354 44.9487 25.6948C44.9487 25.0283 44.4726 24.5376 43.7768 24.5376C43.0884 24.5376 42.605 25.0283 42.605 25.6948C42.605 26.354 43.0884 26.8521 43.7768 26.8521ZM43.7768 21.3589C44.4726 21.3589 44.9487 20.8682 44.9487 20.209C44.9487 19.5425 44.4726 19.0518 43.7768 19.0518C43.0884 19.0518 42.605 19.5425 42.605 20.209C42.605 20.8682 43.0884 21.3589 43.7768 21.3589ZM50.8596 28.2363C53.3865 28.2363 54.888 26.1855 54.888 22.6919C54.888 19.1836 53.3645 17.1401 50.8596 17.1401C48.3474 17.1401 46.824 19.1836 46.824 22.6772C46.824 26.1855 48.3255 28.2363 50.8596 28.2363ZM50.8596 26.6689C49.5193 26.6689 48.7356 25.2773 48.7356 22.6772C48.7356 20.0991 49.534 18.7148 50.8596 18.7148C52.1853 18.7148 52.9763 20.0918 52.9763 22.6772C52.9763 25.2773 52.2 26.6689 50.8596 26.6689ZM56.8218 27.9727H58.7994L63.3184 19.0151V17.4038H55.9649V18.9932H61.4141V19.1104L56.8218 27.9727Z" fill="black"/>
<path d="M351 75.5C356.247 75.5 360.5 71.2467 360.5 66C360.5 60.7533 356.247 56.5 351 56.5C345.753 56.5 341.5 60.7533 341.5 66C341.5 71.2467 345.753 75.5 351 75.5ZM351 77C344.925 77 340 72.0751 340 66C340 59.9249 344.925 55 351 55C357.075 55 362 59.9249 362 66C362 72.0751 357.075 77 351 77Z" fill="#25272E"/>
<path d="M349.81 67.5728C349.81 65.5428 352.19 65.5428 352.19 64.0528C352.179 63.9001 352.137 63.7513 352.067 63.6151C351.997 63.479 351.9 63.3583 351.783 63.2603C351.665 63.1623 351.529 63.089 351.383 63.0448C351.236 63.0005 351.082 62.9862 350.93 63.0028C350.564 62.9907 350.204 63.0957 349.902 63.3025C349.599 63.5093 349.371 63.8072 349.25 64.1528L347.5 63.3828C347.752 62.6638 348.228 62.0445 348.858 61.6161C349.488 61.1877 350.239 60.9727 351 61.0028C353.07 61.0028 354.36 62.3228 354.36 63.7928C354.36 66.3828 351.84 66.3828 351.84 68.2028H349.95C349.871 68.0014 349.823 67.7888 349.81 67.5728ZM349.67 70.0928C349.67 69.9471 349.699 69.8028 349.756 69.6686C349.812 69.5344 349.895 69.4128 350 69.3112C350.104 69.2096 350.228 69.1299 350.364 69.077C350.499 69.024 350.644 68.9988 350.79 69.0028C351.013 69.0028 351.23 69.0694 351.415 69.1938C351.6 69.3182 351.743 69.495 351.827 69.7014C351.911 69.9078 351.931 70.1345 351.886 70.3525C351.84 70.5706 351.73 70.77 351.571 70.9254C351.411 71.0808 351.209 71.185 350.99 71.2248C350.77 71.2645 350.544 71.238 350.34 71.1487C350.136 71.0593 349.963 70.911 349.844 70.723C349.725 70.5349 349.664 70.3155 349.67 70.0928Z" fill="#25272E"/>
<path fill-rule="evenodd" clip-rule="evenodd" d="M27.0023 57.3592L18.8447 65.1911C18.3851 65.6317 18.3851 66.3672 18.8447 66.8096L27.0023 74.6397C27.5026 75.1201 28.2924 75.1201 28.7927 74.6397C29.3219 74.1313 29.3219 73.2845 28.7927 72.7751L21.9605 66.2161C21.8365 66.0976 21.8365 65.9013 21.9605 65.7828L28.7927 59.2237C29.3219 58.7153 29.3219 57.8685 28.7927 57.3592C28.5421 57.1203 28.22 57 27.898 57C27.575 57 27.2529 57.1203 27.0023 57.3592Z" fill="#25272E"/>
<circle cx="141.5" cy="63.5" r="2.5" fill="#03948C"/>
<circle cx="154.5" cy="63.5" r="2.5" fill="#03948C"/>
<circle cx="167.5" cy="63.5" r="2.5" fill="#03948C"/>
<circle cx="180.5" cy="63.5" r="2.5" fill="#03948C"/>
<circle cx="193.5" cy="63.5" r="2.5" fill="#03948C"/>
<circle cx="206.5" cy="63.5" r="2.5" fill="#03948C"/>
<circle cx="219.5" cy="63.5" r="2.5" fill="#03948C"/>
<circle cx="232.5" cy="63.5" r="4" fill="#03948C"/>
</g>
</g>
<defs>
<filter id="filter0_d" x="-36" y="550" width="447" height="298" filterUnits="userSpaceOnUse" color-interpolation-filters="sRGB">
<feFlood flood-opacity="0" result="BackgroundImageFix"/>
<feColorMatrix in="SourceAlpha" type="matrix" values="0 0 0 0 0 0 0 0 0 0 0 0 0 0 0 0 0 0 127 0"/>
<feMorphology radius="4" operator="dilate" in="SourceAlpha" result="effect1_dropShadow"/>
<feOffset/>
<feGaussianBlur stdDeviation="16"/>
<feColorMatrix type="matrix" values="0 0 0 0 0.4056 0 0 0 0 0.500104 0 0 0 0 0.52 0 0 0 0.12 0"/>
<feBlend mode="multiply" in2="BackgroundImageFix" result="effect1_dropShadow"/>
<feBlend mode="normal" in="SourceGraphic" in2="effect1_dropShadow" result="shape"/>
</filter>
<filter id="filter1_b" x="-16" y="-16" width="407" height="120" filterUnits="userSpaceOnUse" color-interpolation-filters="sRGB">
<feFlood flood-opacity="0" result="BackgroundImageFix"/>
<feGaussianBlur in="BackgroundImage" stdDeviation="8"/>
<feComposite in2="SourceAlpha" operator="in" result="effect1_backgroundBlur"/>
<feBlend mode="normal" in="SourceGraphic" in2="effect1_backgroundBlur" result="shape"/>
</filter>
<linearGradient id="paint0_linear" x1="111.5" y1="117.293" x2="252.054" y2="698.386" gradientUnits="userSpaceOnUse">
<stop stop-color="#E4F0F0" stop-opacity="0"/>
<stop offset="1" stop-color="#E4F0F0"/>
</linearGradient>
<clipPath id="clip0">
<rect width="375" height="812" fill="white"/>
</clipPath>
</defs>
</svg>
