<svg xmlns="http://www.w3.org/2000/svg" width="375" height="812" fill="none" viewBox="0 0 375 812">
  <g class="14-he" clip-path="url(#clip0)">
    <path fill="#fff" d="M0 0h375v812H0z"/>
    <path fill="url(#paint0_linear)" d="M0 98h375v616H0z" class="Rectangle 480"/>
    <path fill="#25272E" d="M20.5 532l6.8 8.7V532h3v14h-2.7l-6.8-8.7v8.7h-3v-14h2.7zm21.694 13.06c-.454.32-1.047.593-1.78.82-.734.213-1.54.32-2.42.32-.947 0-1.82-.227-2.62-.68a5.3 5.3 0 01-1.9-1.86 5.04 5.04 0 01-.68-2.56c0-.92.226-1.767.68-2.54a5.175 5.175 0 011.86-1.86c.786-.467 1.64-.7 2.56-.7.88 0 1.693.22 2.44.66.76.44 1.36 1.04 1.8 1.8.44.747.66 1.56.66 2.44 0 .44-.034.84-.1 1.2h-7.1c.16.493.453.9.88 1.22.44.32 1.013.48 1.72.48.56 0 1.06-.06 1.5-.18.453-.133.82-.287 1.1-.46l1.4 1.9zm-2.2-4.96c-.16-.48-.44-.88-.84-1.2a2.02 2.02 0 00-1.36-.5c-.52 0-.98.167-1.38.5-.387.32-.66.72-.82 1.2h4.4zm13.606 4.96c-.453.32-1.047.593-1.78.82-.733.213-1.54.32-2.42.32-.947 0-1.82-.227-2.62-.68a5.3 5.3 0 01-1.9-1.86 5.04 5.04 0 01-.68-2.56c0-.92.227-1.767.68-2.54a5.176 5.176 0 011.86-1.86c.787-.467 1.64-.7 2.56-.7.88 0 1.693.22 2.44.66.76.44 1.36 1.04 1.8 1.8.44.747.66 1.56.66 2.44 0 .44-.033.84-.1 1.2H47c.16.493.453.9.88 1.22.44.32 1.013.48 1.72.48.56 0 1.06-.06 1.5-.18.453-.133.82-.287 1.1-.46l1.4 1.9zm-2.2-4.96c-.16-.48-.44-.88-.84-1.2a2.02 2.02 0 00-1.36-.5c-.52 0-.98.167-1.38.5-.387.32-.66.72-.82 1.2h4.4zm11.706 4.5c-.306.44-.726.82-1.26 1.14-.533.307-1.146.46-1.84.46-.773 0-1.5-.22-2.18-.66-.666-.44-1.206-1.047-1.62-1.82-.4-.773-.6-1.647-.6-2.62 0-.973.2-1.847.6-2.62.414-.773.954-1.38 1.62-1.82.68-.44 1.407-.66 2.18-.66.694 0 1.307.16 1.84.48.534.307.954.68 1.26 1.12h.1V532h2.7v14h-2.7v-1.4h-.1zm-2.3-.9c.707 0 1.3-.247 1.78-.74s.72-1.113.72-1.86c0-.747-.24-1.367-.72-1.86-.48-.493-1.073-.74-1.78-.74-.706 0-1.3.247-1.78.74s-.72 1.113-.72 1.86c0 .747.24 1.367.72 1.86.48.493 1.074.74 1.78.74zm17.812 1.1c-.307.387-.713.72-1.22 1-.493.267-1.053.4-1.68.4-.893 0-1.62-.26-2.18-.78-.547-.533-.82-1.207-.82-2.02 0-.827.26-1.533.78-2.12.533-.587 1.24-.927 2.12-1.02l3.1-.3c-.053-.4-.233-.76-.54-1.08-.307-.32-.693-.48-1.16-.48a4.71 4.71 0 00-1.26.16 3.79 3.79 0 00-.94.34l-1.6-1.6c.427-.36.987-.667 1.68-.92s1.467-.38 2.32-.38c.813 0 1.54.173 2.18.52.64.333 1.133.8 1.48 1.4.36.587.54 1.247.54 1.98v6.1h-2.7v-1.2h-.1zm-2.1-2.86c-.333.013-.6.127-.8.34-.2.213-.3.453-.3.72 0 .307.1.553.3.74.213.173.513.26.9.26.627 0 1.133-.167 1.52-.5.387-.333.58-.813.58-1.44v-.2l-2.2.08zm15.908 2.26c-.4.56-.954 1.033-1.66 1.42-.707.387-1.52.58-2.44.58-.947 0-1.82-.227-2.62-.68a5.3 5.3 0 01-1.9-1.86 5.04 5.04 0 01-.68-2.56c0-.92.226-1.767.68-2.54a5.082 5.082 0 011.9-1.86c.8-.467 1.673-.7 2.62-.7.92 0 1.733.193 2.44.58.706.387 1.26.86 1.66 1.42l-1.7 1.7a3.288 3.288 0 00-1.04-.84 2.66 2.66 0 00-1.36-.36c-.707 0-1.3.247-1.78.74s-.72 1.113-.72 1.86c0 .747.24 1.367.72 1.86.48.493 1.073.74 1.78.74.493 0 .946-.113 1.36-.34.426-.24.773-.527 1.04-.86l1.7 1.7zm10.195 0c-.4.56-.953 1.033-1.66 1.42s-1.52.58-2.44.58c-.947 0-1.82-.227-2.62-.68a5.3 5.3 0 01-1.9-1.86 5.04 5.04 0 01-.68-2.56c0-.92.227-1.767.68-2.54a5.083 5.083 0 011.9-1.86c.8-.467 1.673-.7 2.62-.7.92 0 1.733.193 2.44.58.707.387 1.26.86 1.66 1.42l-1.7 1.7a3.287 3.287 0 00-1.04-.84 2.66 2.66 0 00-1.36-.36c-.707 0-1.3.247-1.78.74s-.72 1.113-.72 1.86c0 .747.24 1.367.72 1.86.48.493 1.073.74 1.78.74.493 0 .947-.113 1.36-.34.427-.24.773-.527 1.04-.86l1.7 1.7zm10.295.86c-.453.32-1.046.593-1.78.82-.733.213-1.54.32-2.42.32-.946 0-1.82-.227-2.62-.68a5.302 5.302 0 01-1.9-1.86 5.044 5.044 0 01-.68-2.56c0-.92.227-1.767.68-2.54a5.181 5.181 0 011.86-1.86c.787-.467 1.64-.7 2.56-.7.88 0 1.694.22 2.44.66.76.44 1.36 1.04 1.8 1.8.44.747.66 1.56.66 2.44 0 .44-.033.84-.1 1.2h-7.1c.16.493.454.9.88 1.22.44.32 1.014.48 1.72.48.56 0 1.06-.06 1.5-.18.454-.133.82-.287 1.1-.46l1.4 1.9zm-2.2-4.96c-.16-.48-.44-.88-.84-1.2-.386-.333-.84-.5-1.36-.5-.52 0-.98.167-1.38.5-.386.32-.66.72-.82 1.2h4.4zm5.407 2.6c.306.307.686.567 1.14.78.453.213.94.32 1.46.32.8 0 1.2-.233 1.2-.7 0-.187-.127-.34-.38-.46-.24-.133-.627-.287-1.16-.46a19.963 19.963 0 01-1.74-.68 3.789 3.789 0 01-1.22-.94c-.334-.413-.5-.933-.5-1.56 0-.547.153-1.047.46-1.5.306-.453.753-.813 1.34-1.08.6-.28 1.3-.42 2.1-.42.813 0 1.546.147 2.2.44.666.293 1.2.647 1.6 1.06l-1.6 1.7c-.24-.227-.554-.413-.94-.56a3.265 3.265 0 00-1.26-.24c-.334 0-.587.06-.76.18-.16.12-.24.26-.24.42 0 .187.12.347.36.48.253.12.646.267 1.18.44.693.24 1.273.473 1.74.7.466.213.866.527 1.2.94.346.4.52.913.52 1.54 0 .573-.16 1.1-.48 1.58-.307.467-.774.84-1.4 1.12-.614.267-1.354.4-2.22.4-.88 0-1.687-.173-2.42-.52-.734-.347-1.327-.773-1.78-1.28l1.6-1.7zm9.101 0a4 4 0 001.14.78c.454.213.94.32 1.46.32.8 0 1.2-.233 1.2-.7 0-.187-.126-.34-.38-.46-.24-.133-.626-.287-1.16-.46a20.22 20.22 0 01-1.74-.68 3.81 3.81 0 01-1.22-.94c-.333-.413-.5-.933-.5-1.56 0-.547.154-1.047.46-1.5.307-.453.754-.813 1.34-1.08.6-.28 1.3-.42 2.1-.42.814 0 1.547.147 2.2.44.667.293 1.2.647 1.6 1.06l-1.6 1.7c-.24-.227-.553-.413-.94-.56a3.258 3.258 0 00-1.26-.24c-.333 0-.586.06-.76.18-.16.12-.24.26-.24.42 0 .187.12.347.36.48.254.12.647.267 1.18.44.694.24 1.274.473 1.74.7a3.27 3.27 0 011.2.94c.347.4.52.913.52 1.54 0 .573-.16 1.1-.48 1.58-.306.467-.773.84-1.4 1.12-.613.267-1.353.4-2.22.4-.88 0-1.686-.173-2.42-.52-.733-.347-1.326-.773-1.78-1.28l1.6-1.7zm12.211-6.3h1.7v-3h2.7v3h2.4v2.5h-2.4v3.38c0 .44.113.767.34.98.227.213.547.32.96.32h1.1V546h-1.8c-1.027 0-1.833-.287-2.42-.86s-.88-1.42-.88-2.54v-3.7h-1.7v-2.5zm8.113 4.7c0-.92.226-1.767.68-2.54a5.078 5.078 0 011.9-1.86c.8-.467 1.673-.7 2.62-.7.946 0 1.82.233 2.62.7a4.94 4.94 0 011.88 1.86c.466.773.7 1.62.7 2.54 0 .92-.234 1.773-.7 2.56a5.145 5.145 0 01-1.88 1.86c-.8.453-1.674.68-2.62.68-.947 0-1.82-.227-2.62-.68a5.295 5.295 0 01-1.9-1.86 5.034 5.034 0 01-.68-2.56zm5.2 2.6c.706 0 1.3-.247 1.78-.74s.72-1.113.72-1.86c0-.747-.24-1.367-.72-1.86-.48-.493-1.074-.74-1.78-.74-.707 0-1.3.247-1.78.74s-.72 1.113-.72 1.86c0 .747.24 1.367.72 1.86.48.493 1.073.74 1.78.74zm12.406-1a4 4 0 001.14.78c.453.213.94.32 1.46.32.8 0 1.2-.233 1.2-.7 0-.187-.127-.34-.38-.46-.24-.133-.627-.287-1.16-.46a20.22 20.22 0 01-1.74-.68 3.8 3.8 0 01-1.22-.94c-.333-.413-.5-.933-.5-1.56 0-.547.153-1.047.46-1.5.307-.453.753-.813 1.34-1.08.6-.28 1.3-.42 2.1-.42.813 0 1.547.147 2.2.44.667.293 1.2.647 1.6 1.06l-1.6 1.7c-.24-.227-.553-.413-.94-.56a3.265 3.265 0 00-1.26-.24c-.333 0-.587.06-.76.18-.16.12-.24.26-.24.42 0 .187.12.347.36.48.253.12.647.267 1.18.44.693.24 1.273.473 1.74.7a3.27 3.27 0 011.2.94c.347.4.52.913.52 1.54 0 .573-.16 1.1-.48 1.58-.307.467-.773.84-1.4 1.12-.613.267-1.353.4-2.22.4-.88 0-1.687-.173-2.42-.52-.733-.347-1.327-.773-1.78-1.28l1.6-1.7zm11.201-5.1h.1c.307-.44.727-.813 1.26-1.12.534-.32 1.147-.48 1.84-.48.774 0 1.494.22 2.16.66.68.44 1.22 1.047 1.62 1.82.414.773.62 1.647.62 2.62 0 .973-.206 1.847-.62 2.62-.4.773-.94 1.38-1.62 1.82-.666.44-1.386.66-2.16.66-.693 0-1.306-.153-1.84-.46-.533-.32-.953-.7-1.26-1.14h-.1v5.6h-2.7v-14h2.7v1.4zm2.4 6.1c.707 0 1.3-.247 1.78-.74s.72-1.113.72-1.86c0-.747-.24-1.367-.72-1.86-.48-.493-1.073-.74-1.78-.74-.706 0-1.3.247-1.78.74s-.72 1.113-.72 1.86c0 .747.24 1.367.72 1.86.48.493 1.074.74 1.78.74zm16.005 1.36c-.453.32-1.047.593-1.78.82-.733.213-1.54.32-2.42.32-.947 0-1.82-.227-2.62-.68a5.302 5.302 0 01-1.9-1.86 5.044 5.044 0 01-.68-2.56c0-.92.227-1.767.68-2.54a5.181 5.181 0 011.86-1.86c.787-.467 1.64-.7 2.56-.7.88 0 1.693.22 2.44.66.76.44 1.36 1.04 1.8 1.8.44.747.66 1.56.66 2.44 0 .44-.033.84-.1 1.2h-7.1c.16.493.453.9.88 1.22.44.32 1.013.48 1.72.48.56 0 1.06-.06 1.5-.18.453-.133.82-.287 1.1-.46l1.4 1.9zm-2.2-4.96c-.16-.48-.44-.88-.84-1.2a2.02 2.02 0 00-1.36-.5c-.52 0-.98.167-1.38.5-.387.32-.66.72-.82 1.2h4.4zm13.506 4.1c-.4.56-.953 1.033-1.66 1.42-.706.387-1.52.58-2.44.58-.946 0-1.82-.227-2.62-.68a5.302 5.302 0 01-1.9-1.86 5.044 5.044 0 01-.68-2.56c0-.92.227-1.767.68-2.54a5.085 5.085 0 011.9-1.86c.8-.467 1.674-.7 2.62-.7.92 0 1.734.193 2.44.58.707.387 1.26.86 1.66 1.42l-1.7 1.7a3.275 3.275 0 00-1.04-.84 2.658 2.658 0 00-1.36-.36c-.706 0-1.3.247-1.78.74s-.72 1.113-.72 1.86c0 .747.24 1.367.72 1.86.48.493 1.074.74 1.78.74.494 0 .947-.113 1.36-.34.427-.24.774-.527 1.04-.86l1.7 1.7zm1.491-10.8c0-.4.153-.747.46-1.04a1.5 1.5 0 011.1-.46c.413 0 .773.153 1.08.46.307.293.46.64.46 1.04s-.153.753-.46 1.06c-.307.293-.673.44-1.1.44-.413 0-.773-.147-1.08-.44-.307-.307-.46-.66-.46-1.06zm2.9 2.8v9.8h-2.7v-9.8h2.7zm1.693.2h1.5v-1c0-1.133.293-2.013.88-2.64.6-.64 1.407-.96 2.42-.96.573 0 1.107.1 1.6.3v2.5c-.28-.133-.58-.2-.9-.2-.4 0-.72.127-.96.38-.227.24-.34.58-.34 1.02v.6h6.3v9.6h-2.7v-7.1h-3.6v7.1h-2.7v-7.1h-1.5v-2.5zm7.6-3c0-.4.153-.747.46-1.04a1.5 1.5 0 011.1-.46c.413 0 .773.153 1.08.46.307.293.46.64.46 1.04s-.153.753-.46 1.06c-.307.293-.673.44-1.1.44-.413 0-.773-.147-1.08-.44-.307-.307-.46-.66-.46-1.06zm14.305 10.8c-.4.56-.954 1.033-1.66 1.42-.707.387-1.52.58-2.44.58-.947 0-1.82-.227-2.62-.68a5.295 5.295 0 01-1.9-1.86 5.034 5.034 0 01-.68-2.56c0-.92.226-1.767.68-2.54a5.078 5.078 0 011.9-1.86c.8-.467 1.673-.7 2.62-.7.92 0 1.733.193 2.44.58.706.387 1.26.86 1.66 1.42l-1.7 1.7a3.298 3.298 0 00-1.04-.84 2.663 2.663 0 00-1.36-.36c-.707 0-1.3.247-1.78.74s-.72 1.113-.72 1.86c0 .747.24 1.367.72 1.86.48.493 1.073.74 1.78.74.493 0 .946-.113 1.36-.34.426-.24.773-.527 1.04-.86l1.7 1.7zm13.2.4c-.307.44-.727.82-1.26 1.14-.534.307-1.147.46-1.84.46-.774 0-1.5-.22-2.18-.66-.667-.44-1.207-1.047-1.62-1.82-.4-.773-.6-1.647-.6-2.62 0-.973.2-1.847.6-2.62.413-.773.953-1.38 1.62-1.82a3.94 3.94 0 012.18-.66c.693 0 1.306.16 1.84.48.533.307.953.68 1.26 1.12h.1V532h2.7v14h-2.7v-1.4h-.1zm-2.3-.9c.706 0 1.3-.247 1.78-.74s.72-1.113.72-1.86c0-.747-.24-1.367-.72-1.86-.48-.493-1.074-.74-1.78-.74-.707 0-1.3.247-1.78.74s-.72 1.113-.72 1.86c0 .747.24 1.367.72 1.86.48.493 1.073.74 1.78.74zm7.202-2.6c0-.92.227-1.767.68-2.54a5.085 5.085 0 011.9-1.86c.8-.467 1.673-.7 2.62-.7.947 0 1.82.233 2.62.7a4.932 4.932 0 011.88 1.86c.467.773.7 1.62.7 2.54 0 .92-.233 1.773-.7 2.56a5.137 5.137 0 01-4.5 2.54c-.947 0-1.82-.227-2.62-.68a5.302 5.302 0 01-1.9-1.86 5.044 5.044 0 01-.68-2.56zm5.2 2.6c.707 0 1.3-.247 1.78-.74s.72-1.113.72-1.86c0-.747-.24-1.367-.72-1.86-.48-.493-1.073-.74-1.78-.74-.707 0-1.3.247-1.78.74s-.72 1.113-.72 1.86c0 .747.24 1.367.72 1.86.48.493 1.073.74 1.78.74zm15.897.5c-.4.56-.953 1.033-1.66 1.42s-1.52.58-2.44.58c-.947 0-1.82-.227-2.62-.68a5.302 5.302 0 01-1.9-1.86 5.044 5.044 0 01-.68-2.56c0-.92.227-1.767.68-2.54a5.085 5.085 0 011.9-1.86c.8-.467 1.673-.7 2.62-.7.92 0 1.733.193 2.44.58.707.387 1.26.86 1.66 1.42l-1.7 1.7a3.286 3.286 0 00-1.04-.84 2.66 2.66 0 00-1.36-.36c-.707 0-1.3.247-1.78.74s-.72 1.113-.72 1.86c0 .747.24 1.367.72 1.86.48.493 1.073.74 1.78.74.493 0 .947-.113 1.36-.34.427-.24.773-.527 1.04-.86l1.7 1.7zm.791-7.8h1.7v-3h2.7v3h2.4v2.5h-2.4v3.38c0 .44.113.767.34.98.226.213.546.32.96.32h1.1V546h-1.8c-1.027 0-1.834-.287-2.42-.86-.587-.573-.88-1.42-.88-2.54v-3.7h-1.7v-2.5zm8.112 4.7c0-.92.227-1.767.68-2.54a5.085 5.085 0 011.9-1.86c.8-.467 1.673-.7 2.62-.7.947 0 1.82.233 2.62.7a4.932 4.932 0 011.88 1.86c.467.773.7 1.62.7 2.54 0 .92-.233 1.773-.7 2.56a5.137 5.137 0 01-4.5 2.54c-.947 0-1.82-.227-2.62-.68a5.302 5.302 0 01-1.9-1.86 5.044 5.044 0 01-.68-2.56zm5.2 2.6c.707 0 1.3-.247 1.78-.74s.72-1.113.72-1.86c0-.747-.24-1.367-.72-1.86-.48-.493-1.073-.74-1.78-.74-.707 0-1.3.247-1.78.74s-.72 1.113-.72 1.86c0 .747.24 1.367.72 1.86.48.493 1.073.74 1.78.74zm9.897-6.4h.1c.187-.307.487-.567.9-.78.413-.213.933-.32 1.56-.32h.64v2.6h-.9c-.667 0-1.22.24-1.66.72-.427.467-.64 1.093-.64 1.88v4.6h-2.7v-9.8h2.7v1.1zm5.498 5.4c.306.307.686.567 1.14.78.453.213.94.32 1.46.32.8 0 1.2-.233 1.2-.7 0-.187-.127-.34-.38-.46-.24-.133-.627-.287-1.16-.46a19.963 19.963 0 01-1.74-.68 3.789 3.789 0 01-1.22-.94c-.334-.413-.5-.933-.5-1.56 0-.547.153-1.047.46-1.5.306-.453.753-.813 1.34-1.08.6-.28 1.3-.42 2.1-.42.813 0 1.546.147 2.2.44.666.293 1.2.647 1.6 1.06l-1.6 1.7c-.24-.227-.554-.413-.94-.56a3.265 3.265 0 00-1.26-.24c-.334 0-.587.06-.76.18-.16.12-.24.26-.24.42 0 .187.12.347.36.48.253.12.646.267 1.18.44.693.24 1.273.473 1.74.7.466.213.866.527 1.2.94.346.4.52.913.52 1.54 0 .573-.16 1.1-.48 1.58-.307.467-.774.84-1.4 1.12-.614.267-1.354.4-2.22.4-.88 0-1.687-.173-2.42-.52-.734-.347-1.327-.773-1.78-1.28l1.6-1.7zm11.001-1c-.133-.28-.2-.58-.2-.9 0-.667.18-1.213.54-1.64.36-.44.873-.893 1.54-1.36.493-.347.853-.64 1.08-.88.227-.24.34-.513.34-.82 0-.373-.167-.7-.5-.98-.333-.28-.767-.42-1.3-.42-.587 0-1.093.16-1.52.48-.427.307-.753.68-.98 1.12l-2.6-1.2c.36-.92.973-1.7 1.84-2.34.867-.64 1.953-.96 3.26-.96 1 0 1.88.187 2.64.56.76.373 1.34.873 1.74 1.5.413.627.62 1.307.62 2.04 0 .573-.107 1.073-.32 1.5-.2.413-.447.76-.74 1.04-.293.267-.673.573-1.14.92-.573.413-1 .787-1.28 1.12-.28.32-.42.727-.42 1.22h-2.6zm-.4 2.9c0-.453.153-.833.46-1.14.307-.307.687-.46 1.14-.46.453 0 .833.153 1.14.46.307.307.46.687.46 1.14 0 .453-.153.833-.46 1.14-.307.307-.687.46-1.14.46-.453 0-.833-.153-1.14-.46a1.548 1.548 0 01-.46-1.14z" class="Step Title"/>
    <g class="Rectangle 481" filter="url(#filter0_d)">
      <path fill="#fff" d="M0 648.79c0-22.21 0-33.315 4.39-41.768a39 39 0 0116.632-16.631C29.475 586 40.58 586 62.79 586h249.42c22.21 0 33.315 0 41.768 4.391a38.999 38.999 0 0116.631 16.631C375 615.475 375 626.58 375 648.79V812H0V648.79z"/>
    </g>
    <path fill="#E6E8EB" fill-rule="evenodd" d="M163 600.5a2.5 2.5 0 012.5-2.5h43a2.5 2.5 0 110 5h-43a2.5 2.5 0 01-2.5-2.5z" class="Rectangle" clip-rule="evenodd"/>
    <g class="Frame 1206">
      <g class="Text Fields/Standard/Empty">
        <g class="Field Input (standard)">
          <path fill="#fff" d="M16 664c0-7.542 0-11.314 2.343-13.657S24.457 648 32 648h311c7.542 0 11.314 0 13.657 2.343S359 656.458 359 664v8c0 7.542 0 11.314-2.343 13.657S350.542 688 343 688H32c-7.543 0-11.314 0-13.657-2.343S16 679.542 16 672v-8z" class="Input container"/>
          <path fill="#F1F3F5" fill-rule="evenodd" d="M343 649H32c-3.8 0-6.549.002-8.645.284-2.067.278-3.35.811-4.305 1.766-.955.955-1.488 2.237-1.766 4.305C17.002 657.451 17 660.2 17 664v8c0 3.8.002 6.549.284 8.645.278 2.068.811 3.35 1.766 4.305.955.955 2.238 1.488 4.305 1.766 2.096.282 4.846.284 8.645.284h311c3.799 0 6.549-.002 8.645-.284 2.068-.278 3.35-.811 4.305-1.766.955-.955 1.488-2.237 1.766-4.305.282-2.096.284-4.845.284-8.645v-8c0-3.8-.002-6.549-.284-8.645-.278-2.068-.811-3.35-1.766-4.305-.955-.955-2.237-1.488-4.305-1.766-2.096-.282-4.846-.284-8.645-.284zm-324.657 1.343C16 652.686 16 656.458 16 664v8c0 7.542 0 11.314 2.343 13.657S24.457 688 32 688h311c7.542 0 11.314 0 13.657-2.343S359 679.542 359 672v-8c0-7.542 0-11.314-2.343-13.657S350.542 648 343 648H32c-7.543 0-11.314 0-13.657 2.343z" clip-rule="evenodd" style="mix-blend-mode:multiply"/>
          <path fill="#70747D" d="M29.44 670.664c.299.384.71.709 1.232.976.523.267 1.125.4 1.808.4.821 0 1.45-.192 1.888-.576.448-.384.672-.885.672-1.504 0-.416-.117-.752-.352-1.008a2.249 2.249 0 00-.88-.608 12.648 12.648 0 00-1.44-.496c-.736-.213-1.333-.421-1.792-.624a3.217 3.217 0 01-1.152-.928c-.31-.405-.464-.944-.464-1.616 0-.544.144-1.045.432-1.504.299-.469.72-.843 1.264-1.12.555-.277 1.19-.416 1.904-.416.704 0 1.339.139 1.904.416.565.277 1.024.619 1.376 1.024l-.8.8a3.108 3.108 0 00-1.024-.784 3.085 3.085 0 00-1.456-.336c-.49 0-.917.091-1.28.272a1.94 1.94 0 00-.832.704 1.668 1.668 0 00-.288.944c0 .416.117.757.352 1.024.235.256.523.459.864.608.352.139.837.299 1.456.48.736.213 1.328.427 1.776.64.459.203.843.507 1.152.912.32.405.48.944.48 1.616 0 .619-.15 1.173-.448 1.664-.299.48-.73.859-1.296 1.136-.565.267-1.237.4-2.016.4-.843 0-1.59-.16-2.24-.48-.64-.331-1.147-.731-1.52-1.2l.72-.816zm15.367 1.184c-.342.363-.79.672-1.344.928a4.377 4.377 0 01-1.856.384 3.719 3.719 0 01-1.92-.528 4.097 4.097 0 01-1.408-1.456 4.047 4.047 0 01-.512-2.016c0-.725.17-1.392.512-2a3.969 3.969 0 011.392-1.456 3.418 3.418 0 011.856-.544c.682 0 1.306.165 1.872.496a3.507 3.507 0 011.328 1.376c.32.576.48 1.232.48 1.968 0 .203-.027.395-.08.576l-6.24-.016c.021.448.16.869.416 1.264s.587.709.992.944a2.57 2.57 0 001.312.352c.533 0 1.013-.096 1.44-.288a3.307 3.307 0 001.04-.704l.72.72zm-.72-3.248c-.086-.693-.368-1.264-.848-1.712a2.357 2.357 0 00-1.712-.688c-.438 0-.848.112-1.232.336a2.803 2.803 0 00-.96.88 2.678 2.678 0 00-.448 1.184h5.2zm7.755 3.36c-.245.331-.581.613-1.008.848-.427.235-.918.352-1.472.352a3.01 3.01 0 01-1.392-.32 2.587 2.587 0 01-.976-.832c-.235-.352-.352-.715-.352-1.088 0-.651.192-1.184.576-1.6.394-.416.95-.656 1.664-.72l2.96-.256c0-.373-.085-.725-.256-1.056a1.888 1.888 0 00-.688-.784 1.653 1.653 0 00-.976-.304c-.448 0-.859.053-1.232.16-.373.107-.683.24-.928.4l-.72-.72c.32-.245.73-.453 1.232-.624a5.076 5.076 0 011.648-.256c.576 0 1.093.133 1.552.4.47.256.832.608 1.088 1.056.267.448.4.949.4 1.504V673h-1.12v-1.04zm-2.64-2.4c-.47.043-.827.187-1.072.432a1.258 1.258 0 00-.368.928c0 .341.139.629.416.864.288.224.683.336 1.184.336.746 0 1.344-.203 1.792-.608.458-.416.688-.992.688-1.728v-.48l-2.64.256zm6.964-3.2c.202-.331.506-.613.912-.848.416-.235.912-.352 1.488-.352h.48v1.12h-.48c-.427 0-.827.101-1.2.304a2.326 2.326 0 00-.88.88c-.214.373-.32.805-.32 1.296V673h-1.12v-7.68h1.12v1.04zm10.719 5.2a4.604 4.604 0 01-1.392 1.136 3.654 3.654 0 01-1.808.464 3.719 3.719 0 01-1.92-.528 4.097 4.097 0 01-1.408-1.456 4.048 4.048 0 01-.512-2.016c0-.736.17-1.408.512-2.016a3.964 3.964 0 011.408-1.44 3.633 3.633 0 011.92-.544c.65 0 1.248.149 1.792.448.544.288.987.645 1.328 1.072l-.8.8a3.162 3.162 0 00-.976-.896 2.415 2.415 0 00-1.344-.384c-.48 0-.928.133-1.344.4a2.87 2.87 0 00-1.008 1.072 3.047 3.047 0 00-.368 1.488c0 .544.123 1.045.368 1.504.256.448.592.805 1.008 1.072.416.256.864.384 1.344.384.501 0 .96-.123 1.376-.368.416-.256.757-.56 1.024-.912l.8.72zm2.954-5.12a3.058 3.058 0 011.008-.896c.427-.256.918-.384 1.472-.384.608 0 1.147.133 1.616.4.48.267.848.651 1.104 1.152.267.491.4 1.067.4 1.728V673h-1.12v-4.56c0-.672-.197-1.211-.592-1.616-.384-.416-.88-.624-1.488-.624a2.35 2.35 0 00-1.232.336c-.362.213-.65.512-.864.896-.202.384-.304.827-.304 1.328V673h-1.12v-11.2h1.12v4.64zm16.394 5.52c-.246.331-.582.613-1.008.848-.427.235-.918.352-1.472.352a3.01 3.01 0 01-1.392-.32 2.588 2.588 0 01-.977-.832c-.234-.352-.352-.715-.352-1.088 0-.651.193-1.184.577-1.6.394-.416.949-.656 1.663-.72l2.96-.256c0-.373-.085-.725-.255-1.056a1.888 1.888 0 00-.689-.784 1.653 1.653 0 00-.975-.304c-.448 0-.86.053-1.233.16-.373.107-.682.24-.927.4l-.72-.72c.32-.245.73-.453 1.231-.624a5.077 5.077 0 011.648-.256c.576 0 1.094.133 1.553.4.469.256.832.608 1.088 1.056.266.448.4.949.4 1.504V673h-1.12v-1.04zm-2.64-2.4c-.47.043-.827.187-1.073.432a1.258 1.258 0 00-.367.928c0 .341.138.629.415.864.288.224.683.336 1.184.336.747 0 1.345-.203 1.793-.608.458-.416.688-.992.688-1.728v-.48l-2.64.256zm15.277 2.32c-.267.352-.63.656-1.088.912a3.242 3.242 0 01-1.552.368 3.64 3.64 0 01-1.888-.512 3.88 3.88 0 01-1.376-1.44c-.33-.608-.496-1.291-.496-2.048 0-.757.165-1.44.496-2.048.341-.608.8-1.083 1.376-1.424a3.553 3.553 0 011.888-.528 3.13 3.13 0 011.552.384c.459.245.821.544 1.088.896v-4.64h1.12V673h-1.12v-1.12zm-2.64.24a2.36 2.36 0 001.28-.384c.416-.267.747-.624.992-1.072a3.14 3.14 0 00.368-1.504c0-.544-.123-1.04-.368-1.488a2.75 2.75 0 00-.992-1.072 2.29 2.29 0 00-1.28-.4c-.48 0-.923.128-1.328.384a2.587 2.587 0 00-.96 1.04c-.235.448-.352.96-.352 1.536 0 .576.117 1.088.352 1.536.235.448.555.8.96 1.056a2.52 2.52 0 001.328.368zm9.754 1.04a3.804 3.804 0 01-1.968-.528 4.047 4.047 0 01-1.424-1.456 3.951 3.951 0 01-.528-2.016c0-.736.176-1.408.528-2.016a3.918 3.918 0 011.424-1.44 3.716 3.716 0 011.968-.544c.714 0 1.37.181 1.968.544a3.926 3.926 0 011.424 1.44c.352.608.528 1.28.528 2.016s-.176 1.408-.528 2.016a4.056 4.056 0 01-1.424 1.456 3.81 3.81 0 01-1.968.528zm0-1.04c.501 0 .965-.128 1.392-.384a3 3 0 001.024-1.072c.256-.459.384-.96.384-1.504s-.128-1.04-.384-1.488a2.833 2.833 0 00-1.024-1.072 2.576 2.576 0 00-1.392-.4 2.57 2.57 0 00-1.392.4 2.825 2.825 0 00-1.024 1.072 2.946 2.946 0 00-.384 1.488 2.992 2.992 0 001.408 2.576c.426.256.89.384 1.392.384zm12.401-.56a4.611 4.611 0 01-1.392 1.136 3.654 3.654 0 01-1.808.464 3.717 3.717 0 01-1.92-.528 4.094 4.094 0 01-1.408-1.456 4.05 4.05 0 01-.512-2.016c0-.736.171-1.408.512-2.016a3.961 3.961 0 011.408-1.44 3.631 3.631 0 011.92-.544c.651 0 1.248.149 1.792.448a4.16 4.16 0 011.328 1.072l-.8.8a3.162 3.162 0 00-.976-.896 2.417 2.417 0 00-1.344-.384c-.48 0-.928.133-1.344.4a2.87 2.87 0 00-1.008 1.072 3.05 3.05 0 00-.368 1.488c0 .544.123 1.045.368 1.504.256.448.592.805 1.008 1.072.416.256.864.384 1.344.384.501 0 .96-.123 1.376-.368a3.7 3.7 0 001.024-.912l.8.72zm.954-6.24h1.44v-2.56h1.12v2.56h2.08v1.04h-2.08v4.56c0 .384.086.656.256.816.182.149.443.224.784.224h1.04V673h-1.088c-.672 0-1.194-.171-1.568-.512-.362-.341-.544-.864-.544-1.568v-4.56h-1.44v-1.04zm9.77 7.84a3.804 3.804 0 01-1.968-.528 4.047 4.047 0 01-1.424-1.456 3.951 3.951 0 01-.528-2.016c0-.736.176-1.408.528-2.016a3.918 3.918 0 011.424-1.44 3.716 3.716 0 011.968-.544c.714 0 1.37.181 1.968.544a3.926 3.926 0 011.424 1.44c.352.608.528 1.28.528 2.016s-.176 1.408-.528 2.016a4.056 4.056 0 01-1.424 1.456 3.81 3.81 0 01-1.968.528zm0-1.04c.501 0 .965-.128 1.392-.384a3 3 0 001.024-1.072c.256-.459.384-.96.384-1.504s-.128-1.04-.384-1.488a2.833 2.833 0 00-1.024-1.072 2.576 2.576 0 00-1.392-.4 2.57 2.57 0 00-1.392.4 2.825 2.825 0 00-1.024 1.072 2.946 2.946 0 00-.384 1.488 2.992 2.992 0 001.408 2.576c.426.256.89.384 1.392.384zm7.041-5.76c.203-.331.507-.613.912-.848.416-.235.912-.352 1.488-.352h.48v1.12h-.48c-.427 0-.827.101-1.2.304a2.323 2.323 0 00-.88.88c-.213.373-.32.805-.32 1.296V673h-1.12v-7.68h1.12v1.04zm11.037 6.8a3.804 3.804 0 01-1.968-.528 4.056 4.056 0 01-1.424-1.456 3.951 3.951 0 01-.528-2.016c0-.736.176-1.408.528-2.016a3.926 3.926 0 011.424-1.44 3.716 3.716 0 011.968-.544c.715 0 1.371.181 1.968.544a3.926 3.926 0 011.424 1.44c.352.608.528 1.28.528 2.016s-.176 1.408-.528 2.016a4.056 4.056 0 01-1.424 1.456 3.804 3.804 0 01-1.968.528zm0-1.04c.501 0 .965-.128 1.392-.384a2.992 2.992 0 001.408-2.576c0-.544-.128-1.04-.384-1.488a2.825 2.825 0 00-1.024-1.072 2.576 2.576 0 00-1.392-.4c-.501 0-.965.133-1.392.4a2.825 2.825 0 00-1.024 1.072 2.946 2.946 0 00-.384 1.488 2.992 2.992 0 001.408 2.576c.427.256.891.384 1.392.384zm7.041-5.76c.203-.331.507-.613.912-.848.416-.235.912-.352 1.488-.352h.48v1.12h-.48c-.427 0-.827.101-1.2.304a2.323 2.323 0 00-.88.88c-.213.373-.32.805-.32 1.296V673h-1.12v-7.68h1.12v1.04zm7.757 4.64c.213.309.496.576.848.8.352.213.736.32 1.152.32.544 0 .96-.117 1.248-.352.288-.245.432-.555.432-.928a.878.878 0 00-.448-.8c-.288-.181-.725-.357-1.312-.528-.523-.16-.944-.309-1.264-.448a2.314 2.314 0 01-.8-.64c-.224-.288-.336-.656-.336-1.104 0-.373.107-.725.32-1.056.224-.331.528-.597.912-.8a2.86 2.86 0 011.328-.304c.523 0 .997.101 1.424.304.437.203.789.448 1.056.736l-.8.8a1.971 1.971 0 00-.704-.56 1.974 1.974 0 00-.976-.24c-.427 0-.773.112-1.04.336-.267.224-.4.485-.4.784a.83.83 0 00.416.752c.277.16.709.325 1.296.496.523.16.944.315 1.264.464.331.149.608.373.832.672.235.288.352.667.352 1.136 0 .427-.112.816-.336 1.168-.224.352-.549.635-.976.848-.427.203-.923.304-1.488.304-.629 0-1.184-.128-1.664-.384-.48-.267-.859-.592-1.136-.976l.8-.8zm7.915-4.56c.267-.352.629-.651 1.088-.896a3.13 3.13 0 011.552-.384c.683 0 1.312.176 1.888.528a3.642 3.642 0 011.36 1.424c.341.608.512 1.291.512 2.048 0 .757-.171 1.44-.512 2.048a3.761 3.761 0 01-1.36 1.44 3.639 3.639 0 01-1.888.512 3.243 3.243 0 01-1.552-.368c-.459-.256-.821-.56-1.088-.912v4.48h-1.12v-11.04h1.12v1.12zm2.64 5.68c.48 0 .923-.123 1.328-.368a2.71 2.71 0 00.96-1.056c.235-.448.352-.96.352-1.536 0-.576-.117-1.088-.352-1.536a2.591 2.591 0 00-.96-1.04 2.438 2.438 0 00-1.328-.384c-.448 0-.88.133-1.296.4a2.794 2.794 0 00-.976 1.072 3.05 3.05 0 00-.368 1.488c0 .544.123 1.045.368 1.504.245.448.571.805.976 1.072a2.44 2.44 0 001.296.384zm12.236-.272c-.342.363-.79.672-1.344.928a4.38 4.38 0 01-1.856.384 3.717 3.717 0 01-1.92-.528 4.094 4.094 0 01-1.408-1.456 4.04 4.04 0 01-.512-2.016c0-.725.17-1.392.512-2a3.969 3.969 0 011.392-1.456 3.417 3.417 0 011.856-.544 3.64 3.64 0 011.872.496 3.51 3.51 0 011.328 1.376c.32.576.48 1.232.48 1.968 0 .203-.027.395-.08.576l-6.24-.016c.021.448.16.869.416 1.264s.586.709.992.944c.405.235.842.352 1.312.352.533 0 1.013-.096 1.44-.288a3.318 3.318 0 001.04-.704l.72.72zm-.72-3.248c-.086-.693-.368-1.264-.848-1.712a2.358 2.358 0 00-1.712-.688c-.438 0-.848.112-1.232.336a2.803 2.803 0 00-.96.88 2.667 2.667 0 00-.448 1.184h5.2zm9.595 2.96a4.611 4.611 0 01-1.392 1.136 3.657 3.657 0 01-1.808.464 3.717 3.717 0 01-1.92-.528 4.094 4.094 0 01-1.408-1.456 4.04 4.04 0 01-.512-2.016c0-.736.17-1.408.512-2.016a3.961 3.961 0 011.408-1.44 3.631 3.631 0 011.92-.544c.65 0 1.248.149 1.792.448.544.288.986.645 1.328 1.072l-.8.8a3.173 3.173 0 00-.976-.896 2.417 2.417 0 00-1.344-.384c-.48 0-.928.133-1.344.4a2.87 2.87 0 00-1.008 1.072 3.04 3.04 0 00-.368 1.488c0 .544.122 1.045.368 1.504.256.448.592.805 1.008 1.072.416.256.864.384 1.344.384.501 0 .96-.123 1.376-.368a3.7 3.7 0 001.024-.912l.8.72zm1.594-8.8c0-.203.069-.373.208-.512a.695.695 0 01.512-.208c.203 0 .373.069.512.208a.695.695 0 01.208.512.695.695 0 01-.208.512.695.695 0 01-.512.208.695.695 0 01-.512-.208.695.695 0 01-.208-.512zm1.28 2.56V673h-1.12v-7.68h1.12zm7.208 6.64c-.246.331-.582.613-1.008.848-.427.235-.918.352-1.472.352a3.01 3.01 0 01-1.392-.32 2.582 2.582 0 01-.976-.832 1.936 1.936 0 01-.352-1.088c0-.651.192-1.184.576-1.6.394-.416.949-.656 1.664-.72l2.96-.256a2.28 2.28 0 00-.256-1.056 1.892 1.892 0 00-.688-.784 1.655 1.655 0 00-.977-.304c-.447 0-.858.053-1.231.16-.374.107-.683.24-.928.4l-.72-.72c.32-.245.73-.453 1.231-.624a5.08 5.08 0 011.648-.256 3.03 3.03 0 011.553.4c.469.256.832.608 1.088 1.056.266.448.4.949.4 1.504V673h-1.12v-1.04zm-2.64-2.4c-.47.043-.827.187-1.072.432-.246.245-.368.555-.368.928 0 .341.138.629.416.864.288.224.682.336 1.184.336.746 0 1.344-.203 1.792-.608.458-.416.688-.992.688-1.728v-.48l-2.64.256zm7.043-7.76V673h-1.12v-11.2h1.12zm2.484.96c0-.203.069-.373.208-.512a.695.695 0 01.512-.208c.203 0 .373.069.512.208a.695.695 0 01.208.512.695.695 0 01-.208.512.695.695 0 01-.512.208.695.695 0 01-.512-.208.695.695 0 01-.208-.512zm1.28 2.56V673h-1.12v-7.68h1.12zm2.648 5.68c.213.309.496.576.848.8.352.213.736.32 1.152.32.544 0 .96-.117 1.248-.352.288-.245.432-.555.432-.928a.88.88 0 00-.448-.8c-.288-.181-.726-.357-1.312-.528-.523-.16-.944-.309-1.264-.448a2.305 2.305 0 01-.8-.64c-.224-.288-.336-.656-.336-1.104 0-.373.106-.725.32-1.056.224-.331.528-.597.911-.8a2.864 2.864 0 011.329-.304c.522 0 .997.101 1.424.304.437.203.789.448 1.056.736l-.8.8a1.98 1.98 0 00-.704-.56 1.977 1.977 0 00-.976-.24c-.427 0-.774.112-1.04.336-.267.224-.4.485-.4.784 0 .331.138.581.416.752.277.16.709.325 1.296.496.522.16.944.315 1.264.464.33.149.608.373.832.672.234.288.352.667.352 1.136 0 .427-.112.816-.336 1.168-.224.352-.55.635-.976.848-.427.203-.923.304-1.488.304-.63 0-1.184-.128-1.664-.384-.48-.267-.859-.592-1.136-.976l.8-.8zm5.995-5.68h1.44v-2.56h1.12v2.56h2.08v1.04h-2.08v4.56c0 .384.085.656.256.816.181.149.442.224.784.224h1.04V673h-1.088c-.672 0-1.195-.171-1.568-.512-.363-.341-.544-.864-.544-1.568v-4.56h-1.44v-1.04z" class="Text (NO ICON)" opacity=".7"/>
        </g>
        <g class="Field Label">
          <path fill="#25272E" d="M20.69 626.2c.933 0 1.792.224 2.576.672a4.873 4.873 0 011.848 1.792 4.58 4.58 0 01.686 2.436 4.65 4.65 0 01-.686 2.45 5.008 5.008 0 01-1.848 1.792 5.183 5.183 0 01-2.576.658H17.4v-9.8h3.29zm0 8.4c.663 0 1.265-.154 1.806-.462.55-.308.98-.728 1.288-1.26a3.452 3.452 0 00.476-1.778 3.38 3.38 0 00-.476-1.764 3.316 3.316 0 00-1.288-1.274 3.587 3.587 0 00-1.806-.462h-1.75v7h1.75zm6.438-1.96c0-.644.154-1.232.462-1.764a3.373 3.373 0 011.26-1.274 3.533 3.533 0 011.778-.462c.644 0 1.232.154 1.764.462.542.308.966.733 1.274 1.274.308.532.462 1.12.462 1.764 0 .644-.154 1.237-.462 1.778a3.37 3.37 0 01-1.274 1.26 3.457 3.457 0 01-1.764.462 3.533 3.533 0 01-1.778-.462 3.4 3.4 0 01-1.26-1.26 3.532 3.532 0 01-.462-1.778zm3.5 2.17c.392 0 .747-.093 1.064-.28.327-.187.579-.443.756-.77.187-.336.28-.709.28-1.12a2.19 2.19 0 00-.28-1.106 1.915 1.915 0 00-.756-.784 2.056 2.056 0 00-1.064-.28c-.392 0-.751.093-1.078.28-.317.187-.569.448-.756.784a2.28 2.28 0 00-.266 1.106c0 .411.089.784.266 1.12.187.327.439.583.756.77.327.187.686.28 1.078.28zm10.992-.07c-.3.392-.7.723-1.204.994a3.41 3.41 0 01-1.666.406 3.533 3.533 0 01-1.779-.462 3.4 3.4 0 01-1.26-1.26 3.532 3.532 0 01-.462-1.778c0-.644.154-1.232.462-1.764a3.373 3.373 0 011.26-1.274 3.533 3.533 0 011.779-.462c.615 0 1.166.131 1.651.392.486.252.868.565 1.148.938l-.98.91a2.504 2.504 0 00-.77-.644 2.07 2.07 0 00-1.05-.266c-.392 0-.75.093-1.078.28-.317.187-.569.448-.755.784a2.28 2.28 0 00-.266 1.106c0 .411.088.784.266 1.12.186.327.438.583.756.77.326.187.686.28 1.078.28s.75-.093 1.078-.28c.326-.196.597-.429.811-.7l.98.91zm.763-5.46h1.26v-2.24h1.4v2.24h1.75v1.33h-1.75v3.15c0 .336.08.574.238.714.159.131.406.196.742.196h.77V636h-1.05c-1.4 0-2.1-.7-2.1-2.1v-3.29h-1.26v-1.33zm5.527 3.36c0-.644.154-1.232.462-1.764a3.373 3.373 0 011.26-1.274 3.533 3.533 0 011.778-.462c.644 0 1.232.154 1.764.462.54.308.966.733 1.274 1.274.308.532.462 1.12.462 1.764 0 .644-.154 1.237-.462 1.778a3.37 3.37 0 01-1.274 1.26 3.457 3.457 0 01-1.764.462 3.533 3.533 0 01-1.778-.462 3.4 3.4 0 01-1.26-1.26 3.532 3.532 0 01-.462-1.778zm3.5 2.17c.392 0 .746-.093 1.064-.28.326-.187.578-.443.756-.77.186-.336.28-.709.28-1.12 0-.411-.094-.779-.28-1.106a1.914 1.914 0 00-.756-.784 2.056 2.056 0 00-1.064-.28c-.392 0-.752.093-1.078.28a2.04 2.04 0 00-.756.784 2.28 2.28 0 00-.266 1.106c0 .411.088.784.266 1.12.186.327.438.583.756.77.326.187.686.28 1.078.28zm6.44-4.62c.187-.252.435-.467.743-.644a2.175 2.175 0 011.078-.266h.56v1.26h-.56c-.327 0-.63.089-.91.266-.28.168-.504.411-.672.728a2.227 2.227 0 00-.238 1.036V636h-1.4v-6.72h1.4v.91z" class="Field form label"/>
        </g>
      </g>
      <g class="Iconography/Glyphs/Large/Search">
        <path fill="#CDCED1" d="M346.912 674.032a1.327 1.327 0 01-1.876 1.878l-4.111-4.104a6.583 6.583 0 01-7.938-.508 6.6 6.6 0 01-2.166-3.739 6.617 6.617 0 01.609-4.279 6.595 6.595 0 013.123-2.984 6.59 6.59 0 017.925 1.932 6.605 6.605 0 011.403 4.087 6.474 6.474 0 01-1.08 3.6l4.111 4.117zm-6.348-9.898a3.916 3.916 0 00-6.028-.601 3.932 3.932 0 00.581 6.041 3.917 3.917 0 002.174.668h.013a3.909 3.909 0 003.92-3.927 3.93 3.93 0 00-.66-2.181z" class="Vector"/>
      </g>
    </g>
    <g class="Standard/Secondary" style="mix-blend-mode:multiply">
      <rect width="80" height="40" x="279" y="721" fill="#F1F3F5" rx="20" style="mix-blend-mode:multiply"/>
      <path fill="#25272E" d="M305.164 743.28c.278.352.656.656 1.136.912.48.245 1.035.368 1.664.368.694 0 1.238-.16 1.632-.48.406-.331.608-.731.608-1.2 0-.341-.106-.619-.32-.832a2.176 2.176 0 00-.784-.512 11.004 11.004 0 00-1.296-.416c-.757-.224-1.365-.437-1.824-.64a3.274 3.274 0 01-1.2-.976c-.33-.437-.496-1.019-.496-1.744 0-.565.155-1.083.464-1.552.31-.48.752-.859 1.328-1.136.587-.288 1.27-.432 2.048-.432.758 0 1.44.139 2.048.416.619.277 1.11.619 1.472 1.024l-1.2 1.2a3.047 3.047 0 00-.976-.736 2.892 2.892 0 00-1.344-.304c-.65 0-1.162.149-1.536.448-.362.288-.544.645-.544 1.072 0 .341.102.619.304.832.214.213.475.384.784.512.32.128.758.267 1.312.416.758.224 1.366.443 1.824.656.459.203.854.523 1.184.96.342.437.512 1.019.512 1.744 0 .587-.165 1.131-.496 1.632-.32.501-.784.901-1.392 1.2-.608.299-1.312.448-2.112.448-.885 0-1.674-.16-2.368-.48-.693-.331-1.237-.731-1.632-1.2l1.2-1.2zm10.245-8.48v7.04l3.28-3.52h2l-2.96 3.12 3.2 4.56h-1.84l-2.4-3.44-1.28 1.36V746h-1.6v-11.2h1.6zm6.553 1.12c0-.267.096-.491.288-.672.203-.192.427-.288.672-.288.245 0 .464.096.656.288a.864.864 0 01.304.672.913.913 0 01-.304.688.931.931 0 01-.656.272.988.988 0 01-.672-.272.938.938 0 01-.288-.688zm1.76 2.4V746h-1.6v-7.68h1.6zm3.92 1.12c.245-.352.597-.651 1.056-.896.459-.256.987-.384 1.584-.384.64 0 1.232.176 1.776.528.555.341.997.816 1.328 1.424.331.608.496 1.291.496 2.048 0 .757-.165 1.44-.496 2.048a3.844 3.844 0 01-1.328 1.44 3.281 3.281 0 01-1.776.512c-.597 0-1.125-.123-1.584-.368-.459-.256-.811-.56-1.056-.912v4.48h-1.6v-11.04h1.6v1.12zm2.32 5.2c.427 0 .816-.107 1.168-.32.352-.213.629-.507.832-.88.213-.384.32-.811.32-1.28s-.107-.891-.32-1.264a2.251 2.251 0 00-.832-.896 2.212 2.212 0 00-1.168-.32c-.427 0-.816.107-1.168.32a2.362 2.362 0 00-.848.896 2.602 2.602 0 00-.304 1.264c0 .469.101.896.304 1.28.213.373.496.667.848.88.352.213.741.32 1.168.32z" class="Label"/>
    </g>
    <g class="iOS/Home Bar/Black">
      <path fill="#000" fill-rule="evenodd" d="M121 800.5a2.5 2.5 0 012.5-2.5h129a2.5 2.5 0 110 5h-129a2.5 2.5 0 01-2.5-2.5z" class="Rectangle_2" clip-rule="evenodd"/>
    </g>
    <g class="Cluster">
      <g class="Battery">
        <path stroke="#000" d="M336.496 19.965c0-1.196.97-2.166 2.167-2.166h16.666c1.196 0 2.167.97 2.167 2.166v5.979a2.167 2.167 0 01-2.167 2.167h-16.666a2.167 2.167 0 01-2.167-2.167v-5.979z" class="Rectangle_3" opacity=".35"/>
        <path fill="#000" d="M358.996 20.959v3.992a2.167 2.167 0 001.328-1.996c0-.871-.524-1.658-1.328-1.996z" class="Combined Shape" opacity=".4"/>
        <path fill="#000" d="M337.996 20.628c0-.736.597-1.333 1.333-1.333h15.333c.737 0 1.334.597 1.334 1.333v4.653c0 .736-.597 1.333-1.334 1.333h-15.333a1.333 1.333 0 01-1.333-1.333v-4.653z" class="Rectangle_4"/>
      </g>
      <path fill="#000" fill-rule="evenodd" d="M323.327 19.57c2.216 0 4.347.85 5.953 2.374a.308.308 0 00.433-.004l1.156-1.164a.32.32 0 00-.003-.455c-4.215-4.032-10.864-4.032-15.079 0a.32.32 0 00-.003.455l1.156 1.164c.119.12.312.121.433.004a8.65 8.65 0 015.954-2.374zm0 3.788c1.217 0 2.391.452 3.294 1.268a.31.31 0 00.433-.006l1.155-1.165a.32.32 0 00.093-.23.318.318 0 00-.098-.228 7.169 7.169 0 00-9.752 0 .32.32 0 00-.004.458l1.154 1.165a.31.31 0 00.433.006 4.913 4.913 0 013.292-1.268zm2.313 2.55a.311.311 0 01-.094.23l-1.997 2.011a.314.314 0 01-.444 0l-1.997-2.012a.312.312 0 01.009-.456 3.426 3.426 0 014.419 0c.065.058.102.14.104.226z" class="Wifi" clip-rule="evenodd"/>
      <path fill="#000" fill-rule="evenodd" d="M309.664 17.633h-1c-.553 0-1 .447-1 .998v8.65c0 .551.447.998 1 .998h1a1 1 0 001-.998v-8.65a1 1 0 00-1-.998zm-5.667 2.329h1a1 1 0 011 .998v6.321a1 1 0 01-1 .998h-1a1 1 0 01-1-.998V20.96a1 1 0 011-.998zm-3.666 2.329h-1c-.553 0-1 .447-1 .998v3.992c0 .551.447.998 1 .998h1a1 1 0 001-.998V23.29a1 1 0 00-1-.998zm-4.667 1.996h-1a1 1 0 00-1 .998v1.996a1 1 0 001 .998h1a1 1 0 001-.998v-1.996a1 1 0 00-1-.998z" class="Mobile Signal" clip-rule="evenodd"/>
    </g>
    <g class="Time Style">
      <path fill="#000" d="M33.842 20.539v.021h1.772v-.029c0-1.047.82-1.823 1.92-1.823 1.047 0 1.83.695 1.83 1.567 0 .79-.33 1.333-1.53 2.556l-3.89 3.867v1.275h7.427v-1.546h-4.907v-.036l2.615-2.586c1.384-1.399 2.131-2.35 2.131-3.61 0-1.715-1.509-3.004-3.618-3.004-2.19 0-3.75 1.4-3.75 3.348zm9.888 5.888a1.04 1.04 0 001.047-1.054 1.04 1.04 0 00-1.047-1.055c-.593 0-1.055.461-1.055 1.055 0 .593.462 1.054 1.055 1.054zm0-5.288c.586 0 1.047-.469 1.047-1.055a1.04 1.04 0 00-1.047-1.054c-.593 0-1.055.461-1.055 1.054 0 .586.462 1.055 1.055 1.055zm6.49 7.046c2.585 0 4.123-2.131 4.123-5.515s-1.553-5.479-4.124-5.479c-2.578 0-4.138 2.11-4.138 5.486 0 3.391 1.546 5.508 4.138 5.508zm0-1.545c-1.407 0-2.234-1.48-2.234-3.97 0-2.446.842-3.933 2.233-3.933 1.385 0 2.212 1.472 2.212 3.94 0 2.49-.813 3.963-2.212 3.963zm5.53 1.333h1.977l4.52-8.994v-1.575h-7.354v1.545h5.493v.037l-4.637 8.987z" class="9:41"/>
    </g>
    <g class=".Navigation primitives/L1–2/Native/Nav bar (black)">
      <g class="Right">
        <g class="Navigation UI/Secondary/Native/Help">
          <g class="Vector_2">
            <path fill="#25272E" d="M351 75.5a9.5 9.5 0 009.5-9.5 9.5 9.5 0 00-9.5-9.5 9.5 9.5 0 00-9.5 9.5 9.5 9.5 0 009.5 9.5zm0 1.5c-6.075 0-11-4.925-11-11s4.925-11 11-11 11 4.925 11 11-4.925 11-11 11z"/>
            <path fill="#25272E" d="M349.81 67.573c0-2.03 2.38-2.03 2.38-3.52a1.136 1.136 0 00-.807-1.008 1.14 1.14 0 00-.453-.042 1.719 1.719 0 00-1.68 1.15l-1.75-.77a3.56 3.56 0 013.5-2.38c2.07 0 3.36 1.32 3.36 2.79 0 2.59-2.52 2.59-2.52 4.41h-1.89a2.067 2.067 0 01-.14-.63zm-.14 2.52a1.085 1.085 0 01.33-.782 1.083 1.083 0 01.79-.308 1.119 1.119 0 11-1.12 1.09z"/>
          </g>
        </g>
      </g>
      <g class="Left">
        <g class="Navigation UI/Secondary/Native/Back">
          <path fill="#25272E" fill-rule="evenodd" d="M27.002 57.36l-8.157 7.831c-.46.44-.46 1.176 0 1.619l8.157 7.83a1.292 1.292 0 101.79-1.865l-6.832-6.559a.299.299 0 010-.433l6.833-6.56a1.293 1.293 0 00-1.79-1.864z" class="Back" clip-rule="evenodd"/>
        </g>
      </g>
    </g>
    <g class="Explorer Step Dot/Complete">
      <circle cx="141.5" cy="63.5" r="2.5" fill="#03948C" class="Dot"/>
    </g>
    <g class="Explorer Step Dot/Complete_2">
      <circle cx="154.5" cy="63.5" r="2.5" fill="#03948C" class="Dot_2"/>
    </g>
    <g class="Explorer Step Dot/Complete_3">
      <circle cx="167.5" cy="63.5" r="2.5" fill="#03948C" class="Dot_3"/>
    </g>
    <g class="Explorer Step Dot/Complete_4">
      <circle cx="180.5" cy="63.5" r="2.5" fill="#03948C" class="Dot_4"/>
    </g>
    <g class="Explorer Step Dot/Complete_5">
      <circle cx="193.5" cy="63.5" r="2.5" fill="#03948C" class="Dot_5"/>
    </g>
    <g class="Explorer Step Dot/Complete_6">
      <circle cx="206.5" cy="63.5" r="2.5" fill="#03948C" class="Dot_6"/>
    </g>
    <g class="Explorer Step Dot/Complete_7">
      <circle cx="219.5" cy="63.5" r="2.5" fill="#03948C" class="Dot_7"/>
    </g>
    <g class="Explorer Step Dot/Current">
      <circle cx="232.5" cy="63.5" r="4" fill="#03948C" class="Grande Dot"/>
    </g>
  </g>
  <defs>
    <linearGradient id="paint0_linear" x1="111.5" x2="252.054" y1="117.293" y2="698.386" class="paint0_linear" gradientUnits="userSpaceOnUse">
      <stop stop-color="#E4F0F0" stop-opacity="0"/>
      <stop offset="1" stop-color="#E4F0F0"/>
    </linearGradient>
    <clipPath id="clip0" class="clip0">
      <path fill="#fff" d="M0 0h375v812H0z"/>
    </clipPath>
    <filter id="filter0_d" width="447" height="298" x="-36" y="550" class="filter0_d" color-interpolation-filters="sRGB" filterUnits="userSpaceOnUse">
      <feFlood flood-opacity="0" result="BackgroundImageFix"/>
      <feColorMatrix in="SourceAlpha" values="0 0 0 0 0 0 0 0 0 0 0 0 0 0 0 0 0 0 127 0"/>
      <feMorphology in="SourceAlpha" operator="dilate" radius="4" result="effect1_dropShadow"/>
      <feOffset/>
      <feGaussianBlur stdDeviation="16"/>
      <feColorMatrix values="0 0 0 0 0.4056 0 0 0 0 0.500104 0 0 0 0 0.52 0 0 0 0.12 0"/>
      <feBlend in2="BackgroundImageFix" mode="multiply" result="effect1_dropShadow"/>
      <feBlend in="SourceGraphic" in2="effect1_dropShadow" result="shape"/>
    </filter>
  </defs>
</svg>
