<?xml version="1.0" standalone="no"?>
<!DOCTYPE svg PUBLIC "-//W3C//DTD SVG 20010904//EN"
 "http://www.w3.org/TR/2001/REC-SVG-20010904/DTD/svg10.dtd">
<svg version="1.0" xmlns="http://www.w3.org/2000/svg"
 width="700.000000pt" height="700.000000pt" viewBox="0 0 700.000000 700.000000"
 preserveAspectRatio="xMidYMid meet">
<metadata>
Created by potrace 1.11, written by Peter Selinger 2001-2013
</metadata>
<g transform="translate(0.000000,700.000000) scale(0.100000,-0.100000)"
fill="#000000" stroke="none">
<path d="M24 5921 c-2 -2 -4 -298 -4 -658 l0 -653 951 0 950 0 -93 -122 c-51
-68 -96 -125 -99 -128 -3 -3 -54 -70 -115 -150 -60 -80 -115 -152 -121 -160
-7 -8 -87 -112 -177 -230 -91 -118 -169 -219 -173 -225 -5 -5 -22 -28 -38 -50
-17 -22 -32 -42 -36 -45 -3 -3 -25 -32 -50 -64 -54 -72 -44 -58 -268 -351
-248 -323 -294 -382 -387 -505 -43 -58 -81 -107 -84 -110 -3 -3 -63 -80 -133
-172 l-127 -167 2 -598 3 -598 3488 0 3487 0 0 657 0 658 -32 0 c-18 0 -444 1
-945 1 l-913 0 -2 1837 -3 1837 -2538 0 c-1396 0 -2540 -2 -2543 -4z m3573
-2641 l0 -1029 -794 0 -793 0 47 62 c26 34 50 64 53 67 3 3 54 70 115 150 129
170 380 497 400 522 8 9 74 95 146 190 312 407 734 955 753 979 12 14 32 40
45 57 13 18 25 32 26 32 1 0 2 -463 2 -1030z"/>
</g>
</svg>
