<?xml version="1.0" standalone="no"?>
<!DOCTYPE svg PUBLIC "-//W3C//DTD SVG 20010904//EN"
 "http://www.w3.org/TR/2001/REC-SVG-20010904/DTD/svg10.dtd">
<svg version="1.0" xmlns="http://www.w3.org/2000/svg"
 width="700.000000pt" height="700.000000pt" viewBox="0 0 700.000000 700.000000"
 preserveAspectRatio="xMidYMid meet">
<metadata>
Created by potrace 1.11, written by Peter Selinger 2001-2013
</metadata>
<g transform="translate(0.000000,700.000000) scale(0.100000,-0.100000)"
fill="#000000" stroke="none">
<path d="M870 4950 l0 -520 713 -2 713 -3 -146 -200 c-81 -110 -402 -549 -714
-975 l-566 -774 0 -473 0 -473 2630 0 2630 0 0 520 0 520 -710 0 -710 0 0
1450 0 1450 -1920 0 -1920 0 0 -520z m2687 -2377 c-2 -2 -268 -2 -590 -1
l-587 3 588 802 587 802 3 -801 c1 -441 1 -803 -1 -805z"/>
</g>
</svg>
