<svg width="24" height="24" viewBox="0 0 24 24" fill="none" xmlns="http://www.w3.org/2000/svg">
<path fill-rule="evenodd" clip-rule="evenodd" d="M12.5468 17.6952L17.4677 12.8716C17.7697 12.5756 17.7697 12.0956 17.4677 11.7996C17.1658 11.5036 16.6762 11.5036 16.3742 11.7996L12.7733 15.3294V2.75796C12.7733 2.33935 12.4271 2 12.0001 2C11.573 2 11.2268 2.33935 11.2268 2.75796V15.3294L7.62595 11.7996C7.32398 11.5036 6.83439 11.5036 6.53242 11.7996C6.23045 12.0956 6.23045 12.5756 6.53242 12.8716L11.4533 17.6952C11.7553 17.9912 12.2449 17.9912 12.5468 17.6952ZM1.53191 17.7453C1.53191 17.3307 1.18898 16.9945 0.765957 16.9945C0.342931 16.9945 0 17.3307 0 17.7453V21.2492C0 21.6638 0.342931 22 0.765957 22H23.234C23.6571 22 24 21.6638 24 21.2492V17.7453C24 17.3307 23.6571 16.9945 23.234 16.9945C22.811 16.9945 22.4681 17.3307 22.4681 17.7453V20.4984H1.53191V17.7453Z" fill="black"/>
</svg>
