<!-- Designed by Zack Labadie, 2018 -->
<svg xmlns="http://www.w3.org/2000/svg" viewBox="0 0 144 144"><title>Download resume</title><path d="M129.72,74.32v28.8a2.76,2.76,0,0,1-2.76,2.76H17a2.76,2.76,0,0,1-2.76-2.76V74.32a2.76,2.76,0,0,0-2.76-2.76H3.74A2.76,2.76,0,0,0,1,74.32V116.4a2.76,2.76,0,0,0,2.76,2.76h136.5A2.76,2.76,0,0,0,143,116.4V74.32a2.76,2.76,0,0,0-2.76-2.76h-7.77A2.76,2.76,0,0,0,129.72,74.32Z"/><path d="M78.64,69V27.43A2.44,2.44,0,0,0,76.21,25H67.8a2.44,2.44,0,0,0-2.44,2.44V69a2.44,2.44,0,0,1-2.44,2.44H50.63a2.44,2.44,0,0,0-1.76,4.12L70.24,98a2.44,2.44,0,0,0,3.53,0L95.14,75.53a2.44,2.44,0,0,0-1.76-4.12H81.08A2.44,2.44,0,0,1,78.64,69Z"/></svg>
