<svg xmlns="http://www.w3.org/2000/svg" viewBox="0 0 144 144"><defs><style>.a{fill:#fff;fill-rule:evenodd;}</style></defs><title>Artboard 6 copy 7</title><path class="a" d="M49.38,144v-.21c0-2.26-.08-8.29-.13-16.28C22.62,133.29,17,114.67,17,114.67c-4.34-11.06-10.63-14-10.63-14-8.68-5.94.67-5.82.67-5.82,9.61.68,14.66,9.87,14.66,9.87,8.55,14.63,22.41,10.41,27.86,7.95.88-6.18,3.35-10.41,6.08-12.8C34.37,97.45,12,89.24,12,52.56a37,37,0,0,1,9.86-25.69c-1-2.42-4.28-12.15.93-25.34,0,0,8-2.58,26.33,9.82a90.89,90.89,0,0,1,47.93,0c18.28-12.39,26.3-9.82,26.3-9.82,5.23,13.19,1.93,22.92,1,25.34a37,37,0,0,1,9.84,25.69c0,36.78-22.38,44.87-43.72,47.25,3.44,3,6.5,8.79,6.5,17.73,0,12.79-.12,23.11-.12,26.25Z"/></svg>