<svg xmlns="http://www.w3.org/2000/svg" viewBox="0 0 144 144"><defs><style>.a{fill:#fff;}</style></defs><title>Instagram</title><path class="a" d="M72,13c19.23,0,21.5.07,29.09.42,7,.32,10.83,1.49,13.37,2.48a22.31,22.31,0,0,1,8.28,5.39,22.31,22.31,0,0,1,5.39,8.28c1,2.54,2.16,6.35,2.48,13.37C131,50.5,131,52.77,131,72s-.07,21.5-.42,29.09c-.32,7-1.49,10.83-2.48,13.37a23.84,23.84,0,0,1-13.66,13.66c-2.54,1-6.35,2.16-13.37,2.48C93.5,131,91.23,131,72,131s-21.5-.07-29.09-.42c-7-.32-10.83-1.49-13.37-2.48a22.31,22.31,0,0,1-8.28-5.39,22.31,22.31,0,0,1-5.39-8.28c-1-2.54-2.16-6.35-2.48-13.37C13,93.5,13,91.23,13,72s.07-21.5.42-29.09c.32-7,1.49-10.83,2.48-13.37a22.31,22.31,0,0,1,5.39-8.28,22.31,22.31,0,0,1,8.28-5.39c2.54-1,6.35-2.16,13.37-2.48C50.5,13,52.78,13,72,13M72,0C52.45,0,50,.08,42.32.43A52.85,52.85,0,0,0,24.84,3.78a35.29,35.29,0,0,0-12.75,8.3,35.29,35.29,0,0,0-8.3,12.75A52.85,52.85,0,0,0,.43,42.31C.08,50,0,52.45,0,72s.08,22,.43,29.69a52.85,52.85,0,0,0,3.35,17.48,35.29,35.29,0,0,0,8.3,12.75,35.29,35.29,0,0,0,12.75,8.3,52.85,52.85,0,0,0,17.48,3.35c7.68.35,10.13.43,29.69.43s22-.08,29.69-.43a52.85,52.85,0,0,0,17.48-3.35,36.82,36.82,0,0,0,21.06-21.06,52.85,52.85,0,0,0,3.35-17.48C143.92,94,144,91.55,144,72s-.08-22-.43-29.69a52.85,52.85,0,0,0-3.35-17.48,35.29,35.29,0,0,0-8.3-12.75,35.29,35.29,0,0,0-12.75-8.3A52.85,52.85,0,0,0,101.69.43C94,.08,91.56,0,72,0Z"/><path class="a" d="M72,35a37,37,0,1,0,37,37A37,37,0,0,0,72,35Zm0,61A24,24,0,1,1,96,72,24,24,0,0,1,72,96Z"/><circle class="a" cx="110.44" cy="33.57" r="8.64"/></svg>
