<svg xmlns="http://www.w3.org/2000/svg" viewBox="0 0 144 144"><defs><style>.a{fill:#fff;}</style></defs><title>Artboard 6 copy 14</title><path class="a" d="M17.41,43.07a5.54,5.54,0,0,0-1.8-4.68L2.24,22.3v-2.4H43.74L75.81,90.23,104,19.89h39.56v2.4l-11.43,11a3.34,3.34,0,0,0-1.27,3.21V117a3.34,3.34,0,0,0,1.27,3.21l11.16,11v2.4H87.17v-2.4l11.56-11.22c1.14-1.14,1.14-1.47,1.14-3.21V51.62L67.72,133.25H63.38L26,51.62v54.71A7.55,7.55,0,0,0,28,112.61l15,18.24v2.4H.44v-2.4l15-18.24a7.28,7.28,0,0,0,1.94-6.28Z"/></svg>