<svg width="24" height="24" viewBox="0 0 24 24" fill="none" xmlns="http://www.w3.org/2000/svg">
<path fill-rule="evenodd" clip-rule="evenodd" d="M5 0C3.89543 0 3 0.89543 3 2V22C3 23.1046 3.89543 24 5 24H19C20.1046 24 21 23.1046 21 22V2C21 0.895431 20.1046 0 19 0H5ZM14.7274 5.72727C14.7274 7.2335 13.5063 8.45455 12.0001 8.45455C10.4939 8.45455 9.27283 7.2335 9.27283 5.72727C9.27283 4.22104 10.4939 3 12.0001 3C13.5063 3 14.7274 4.22104 14.7274 5.72727ZM16.3686 11.9464C16.6694 12.3585 16.3388 12.8864 15.8285 12.8864H8.09159C7.58138 12.8864 7.25072 12.3585 7.55154 11.9464C8.54357 10.5875 10.1487 9.70455 11.9601 9.70455C13.7714 9.70455 15.3766 10.5875 16.3686 11.9464ZM6 16.25C6 15.8358 6.33579 15.5 6.75 15.5H17.25C17.6642 15.5 18 15.8358 18 16.25C18 16.6642 17.6642 17 17.25 17H6.75C6.33579 17 6 16.6642 6 16.25ZM6 19.75C6 19.3358 6.33579 19 6.75 19H13.25C13.6642 19 14 19.3358 14 19.75C14 20.1642 13.6642 20.5 13.25 20.5H6.75C6.33579 20.5 6 20.1642 6 19.75Z" fill="black"/>
</svg>
