<svg xmlns="http://www.w3.org/2000/svg" viewBox="0 0 144 144"><defs><style>.a{fill:#fff;}</style></defs><title>Spotify</title><path class="a" d="M71.71,1.15a70.71,70.71,0,1,0,70.71,70.71A70.71,70.71,0,0,0,71.71,1.15Zm32.37,102.1a4.64,4.64,0,0,1-6.37,1.59c-27.85-16.75-60.86-7.06-61.18-7A4.64,4.64,0,0,1,33.82,89c1.51-.46,37.22-11,68.68,7.89A4.64,4.64,0,0,1,104.09,103.25Zm8.78-19.57a5.49,5.49,0,0,1-7.49,2c-35-20.12-70.22-8.41-70.57-8.29A5.49,5.49,0,1,1,31.24,67c1.63-.56,40.35-13.42,79.61,9.15A5.49,5.49,0,0,1,112.87,83.68Zm3.93-18.89a6.72,6.72,0,0,1-3.14-.78c-40.33-21.18-81.74-8.5-82.15-8.37a6.76,6.76,0,1,1-4.07-12.89c1.91-.6,47.25-14.48,92.5,9.29a6.76,6.76,0,0,1-3.15,12.74Z"/></svg>
