<svg xmlns="http://www.w3.org/2000/svg" viewBox="0 0 144 144"><defs><style>.a{fill:#fff;}</style></defs><title>twitter</title><path class="a" d="M45.29,133.16c54.34,0,84.06-45,84.06-84.06,0-1.28,0-2.55-.09-3.82A60,60,0,0,0,144,30a59.16,59.16,0,0,1-17,4.65A29.64,29.64,0,0,0,140,18.3a59.34,59.34,0,0,1-18.76,7.17A29.57,29.57,0,0,0,70.91,52.41,83.87,83.87,0,0,1,10,21.54,29.57,29.57,0,0,0,19.17,61,29.34,29.34,0,0,1,5.76,57.29v.37a29.55,29.55,0,0,0,23.7,29,29.48,29.48,0,0,1-13.34.51,29.59,29.59,0,0,0,27.6,20.52A59.3,59.3,0,0,1,7,120.32a61.13,61.13,0,0,1-7-.43,83.66,83.66,0,0,0,45.29,13.25"/></svg>