<svg xmlns="http://www.w3.org/2000/svg" xmlns:xlink="http://www.w3.org/1999/xlink" viewBox="0 0 467.64 357.63"><defs><style>.a,.aa,.ah,.ak,.ar,.at,.b,.f{fill:none;}.b{stroke:#000;stroke-linecap:square;stroke-width:2px;}.aa,.ah,.ar,.b,.e,.f{stroke-miterlimit:10;}.c{fill:#c8c6af;}.d{fill:#010101;}.e,.f{stroke:#c8c6af;}.g{clip-path:url(#a);}.h{fill:#c2c6c5;}.i{fill:#dae0df;}.j{fill:#dee7e6;}.k{fill:#9f9f9f;}.l{opacity:0.18;}.m{clip-path:url(#d);}.n{fill:#f8fcfd;}.o{opacity:0.29;}.p{clip-path:url(#e);}.q{opacity:0.45;}.r{fill:#f15b26;}.s{fill:#fff;}.t{clip-path:url(#g);}.u{clip-path:url(#j);}.v{clip-path:url(#k);}.w{fill:#afaeaf;}.x{fill:#f6b01a;}.y{clip-path:url(#m);}.z{fill:#efefed;}.aa{stroke:#cfcfce;stroke-width:0.04px;}.ab{fill:#e2e2e2;}.ac{fill:#f4de5e;}.ad{opacity:0.51;}.ae{clip-path:url(#p);}.af{fill:#975b2c;}.ag{fill:#80502f;}.ah,.ar{stroke:#492b1a;}.ah,.ak,.ar,.at{stroke-linecap:round;}.ah{stroke-width:0.89px;}.ai{opacity:0.41;}.aj{clip-path:url(#s);}.ak,.at{stroke:#fff;stroke-linejoin:round;}.ak{stroke-width:0.71px;}.al{clip-path:url(#t);}.am{clip-path:url(#w);}.an{fill:#8e896e;}.ao{clip-path:url(#x);}.ap{clip-path:url(#aa);}.aq{clip-path:url(#ab);}.ar{stroke-width:0.66px;}.as{clip-path:url(#ae);}.at{stroke-width:0.53px;}.au{clip-path:url(#af);}.av{clip-path:url(#ai);}.aw{clip-path:url(#aj);}.ax{fill:#909172;}.ay{opacity:0.89;}.az{clip-path:url(#am);}.ba{fill:#767159;}.bb{fill:#837f63;}.bc{opacity:0.34;}.bd{clip-path:url(#an);}.be{fill:#ecece1;}.bf{clip-path:url(#ao);}.bg{opacity:0.4;}.bh{clip-path:url(#ap);}.bi{clip-path:url(#aq);}.bj{clip-path:url(#ar);}.bk{clip-path:url(#as);}.bl{clip-path:url(#at);}.bm{clip-path:url(#au);}.bn{clip-path:url(#av);}.bo{clip-path:url(#aw);}.bp{clip-path:url(#ax);}.bq{clip-path:url(#ay);}.br{clip-path:url(#az);}.bs{clip-path:url(#ba);}.bt{clip-path:url(#bb);}.bu{clip-path:url(#bc);}.bv{clip-path:url(#bd);}.bw{opacity:0.47;}.bx{clip-path:url(#be);}.by{opacity:0.39;}.bz{clip-path:url(#bg);}.ca{fill:#484949;}.cb{fill:#8b8e91;}.cc{fill:#a92530;}.cd{fill:#d82e36;}.ce{fill:#c8c8d1;}.cf{fill:#dae0dc;}.cg{fill:#f2f4f3;}.ch{opacity:0.22;}</style><clipPath id="a"><rect class="a" x="178.37" y="72.27" width="76.24" height="61.33"/></clipPath><clipPath id="d"><rect class="a" x="220.55" y="89.49" width="13.33" height="36.88"/></clipPath><clipPath id="e"><rect class="a" x="194.85" y="89.45" width="6.06" height="36.93"/></clipPath><clipPath id="g"><rect class="a" x="360.7" y="70.72" width="76.24" height="61.33"/></clipPath><clipPath id="j"><rect class="a" x="402.88" y="87.94" width="13.33" height="36.88"/></clipPath><clipPath id="k"><rect class="a" x="377.18" y="87.9" width="6.06" height="36.93"/></clipPath><clipPath id="m"><rect class="a" x="246.74" y="28.02" width="30.9" height="42.92"/></clipPath><clipPath id="p"><rect class="a" x="61.13" y="236.04" width="23.13" height="72.8"/></clipPath><clipPath id="s"><rect class="a" x="74.26" y="243.88" width="4.62" height="57.44"/></clipPath><clipPath id="t"><rect class="a" x="203.11" y="236.04" width="23.13" height="72.8"/></clipPath><clipPath id="w"><rect class="a" x="216.23" y="243.88" width="4.62" height="57.44"/></clipPath><clipPath id="x"><rect class="a" x="335.91" y="223.04" width="23.13" height="72.8"/></clipPath><clipPath id="aa"><rect class="a" x="349.04" y="230.88" width="4.62" height="57.44"/></clipPath><clipPath id="ab"><rect class="a" x="322.61" y="233.27" width="17.28" height="54.38"/></clipPath><clipPath id="ae"><rect class="a" x="332.42" y="239.13" width="3.45" height="42.9"/></clipPath><clipPath id="af"><rect class="a" x="355.12" y="233.27" width="17.28" height="54.38"/></clipPath><clipPath id="ai"><rect class="a" x="364.92" y="239.13" width="3.45" height="42.9"/></clipPath><clipPath id="aj"><rect class="a" x="20.62" y="201.02" width="24.95" height="15.63"/></clipPath><clipPath id="am"><rect class="a" x="23.15" y="206.16" width="20.45" height="7.58"/></clipPath><clipPath id="an"><rect class="a" x="25.86" y="209.83" width="6.8" height="1.64"/></clipPath><clipPath id="ao"><rect class="a" x="33.13" y="210.13" width="5.95" height="1.52"/></clipPath><clipPath id="ap"><rect class="a" x="22.54" y="210.55" width="1.52" height="1.59"/></clipPath><clipPath id="aq"><rect class="a" x="23.66" y="211.37" width="1.18" height="1.7"/></clipPath><clipPath id="ar"><rect class="a" x="24.88" y="212.27" width="0.73" height="1.32"/></clipPath><clipPath id="as"><rect class="a" x="28.94" y="212.9" width="0.51" height="2.06"/></clipPath><clipPath id="at"><rect class="a" x="32.16" y="214.01" width="0.32" height="1.28"/></clipPath><clipPath id="au"><rect class="a" x="29.67" y="214.35" width="0.78" height="0.72"/></clipPath><clipPath id="av"><rect class="a" x="35.21" y="213.51" width="0.51" height="1.67"/></clipPath><clipPath id="aw"><rect class="a" x="36.74" y="213.72" width="1.21" height="1.07"/></clipPath><clipPath id="ax"><rect class="a" x="38.26" y="213.5" width="0.63" height="1.06"/></clipPath><clipPath id="ay"><rect class="a" x="39.66" y="212.84" width="1.16" height="0.78"/></clipPath><clipPath id="az"><rect class="a" x="43.03" y="208.77" width="1.16" height="0.78"/></clipPath><clipPath id="ba"><rect class="a" x="40.57" y="212" width="0.92" height="1.15"/></clipPath><clipPath id="bb"><rect class="a" x="26" y="213.14" width="0.78" height="1.21"/></clipPath><clipPath id="bc"><rect class="a" x="41.67" y="210.73" width="1.17" height="0.86"/></clipPath><clipPath id="bd"><rect class="a" x="27.43" y="213.44" width="0.62" height="1.29"/></clipPath><clipPath id="be"><rect class="a" x="44.1" y="206.92" width="0.82" height="0.62"/></clipPath><clipPath id="bg"><rect class="a" x="175.59" y="189.46" width="77.94" height="53.54" transform="translate(-22.96 25.51) rotate(-6.46)"/></clipPath></defs><title>info-beer4</title><line class="b" x1="-695.46" y1="115.37" x2="528.71" y2="115.37"/><line class="b" x1="-645.61" y1="265.84" x2="528.71" y2="265.84"/><line class="b" x1="-645.61" y1="174.1" x2="528.71" y2="174.1"/><line class="b" x1="-745.9" y1="323.61" x2="528.71" y2="323.61"/><rect class="c" x="167.9" y="41.82" width="61.87" height="17.15" rx="4.94" ry="4.94"/><path class="d" d="M184.07,46.89a1.1,1.1,0,0,0-.61.15,1.94,1.94,0,0,0-.4.34l-.23.25a.34.34,0,0,1-.27.12.45.45,0,0,1-.28-.11.35.35,0,0,1-.13-.26.53.53,0,0,1,.1-.29,1.37,1.37,0,0,1,.19-.21,2.88,2.88,0,0,1,.67-.52,2.16,2.16,0,0,1,1.08-.25,2,2,0,0,1,.64.1,1.55,1.55,0,0,1,.54.28,1.23,1.23,0,0,1,.37.47,1.62,1.62,0,0,1,.14.68,1.75,1.75,0,0,1-.12.65,2.22,2.22,0,0,1-.29.55,4.63,4.63,0,0,1-.4.48q-.23.23-.45.42c-.11.1-.23.19-.36.29l-.51.38h1.9q.33,0,.33.39a.6.6,0,0,1-.07.3.29.29,0,0,1-.28.13h-3a.27.27,0,0,1-.25-.11.53.53,0,0,1-.06-.24.52.52,0,0,1,.07-.29.89.89,0,0,1,.26-.25c.24-.17.49-.36.76-.58s.52-.43.76-.65a4.33,4.33,0,0,0,.57-.69,1.26,1.26,0,0,0,.23-.69.81.81,0,0,0-.23-.62A.92.92,0,0,0,184.07,46.89Zm4.78-.51a.37.37,0,0,1,.34-.24.55.55,0,0,1,.36.11.31.31,0,0,1,.14.24.49.49,0,0,1,0,.12.77.77,0,0,1-.06.15L186,54.17a.78.78,0,0,1-.14.2.37.37,0,0,1-.25.07.52.52,0,0,1-.33-.11.31.31,0,0,1-.14-.23.49.49,0,0,1,0-.12.77.77,0,0,1,.06-.15Zm1.77,2.74a1.93,1.93,0,0,1,1.19.33,1.13,1.13,0,0,1,.43,1,1.2,1.2,0,0,1-.24.75,1.46,1.46,0,0,1-.58.47,1.5,1.5,0,0,1,.72.41,1.1,1.1,0,0,1,.28.77,1.44,1.44,0,0,1-.16.67,1.54,1.54,0,0,1-.42.46,2,2,0,0,1-.6.27,2.48,2.48,0,0,1-.65.09,2.82,2.82,0,0,1-1-.16,2.5,2.5,0,0,1-.69-.39,2,2,0,0,1-.19-.22.46.46,0,0,1-.08-.27.35.35,0,0,1,.13-.28.39.39,0,0,1,.29-.13.38.38,0,0,1,.21.07l.22.18a3.22,3.22,0,0,0,.45.31,1.42,1.42,0,0,0,.65.14,1.14,1.14,0,0,0,.68-.19.63.63,0,0,0,.26-.55.7.7,0,0,0-.09-.37.61.61,0,0,0-.23-.22,1,1,0,0,0-.32-.12,2.31,2.31,0,0,0-.37,0h-.22a.2.2,0,0,1-.2-.13.59.59,0,0,1,0-.52.2.2,0,0,1,.2-.14h.2a1.13,1.13,0,0,0,.67-.18.61.61,0,0,0,.24-.54.58.58,0,0,0-.26-.54A1.24,1.24,0,0,0,190,50a2,2,0,0,0-.43.36,1.37,1.37,0,0,1-.19.17.24.24,0,0,1-.18.07.48.48,0,0,1-.3-.11.33.33,0,0,1-.13-.26.44.44,0,0,1,.09-.27,1.44,1.44,0,0,1,.19-.22,2.17,2.17,0,0,1,.66-.44A2.53,2.53,0,0,1,190.62,49.12Z"/><path class="d" d="M200.67,52.78a1.9,1.9,0,0,1,.23-.27.43.43,0,0,1,.24-.07.56.56,0,0,1,.33.12.36.36,0,0,1,.15.29.61.61,0,0,1-.08.32,2,2,0,0,1-.22.35,2.48,2.48,0,0,1-.43.43,2.64,2.64,0,0,1-.67.36,2.59,2.59,0,0,1-.93.15,2.94,2.94,0,0,1-1.19-.23,2.68,2.68,0,0,1-.87-.65,3.2,3.2,0,0,1-.54-1,4.3,4.3,0,0,1-.19-1.28,4.16,4.16,0,0,1,.19-1.26,3.09,3.09,0,0,1,.54-1,2.4,2.4,0,0,1,.87-.64,2.78,2.78,0,0,1,1.19-.23,2.93,2.93,0,0,1,.88.12,2.53,2.53,0,0,1,.66.31,2.27,2.27,0,0,1,.45.41,3,3,0,0,1,.26.41,1.08,1.08,0,0,1,.07.18.52.52,0,0,1,0,.18.41.41,0,0,1-.16.33.52.52,0,0,1-.33.12.36.36,0,0,1-.21,0,.75.75,0,0,1-.22-.24,2.4,2.4,0,0,1-.18-.25,1.79,1.79,0,0,0-.27-.29,1.7,1.7,0,0,0-.4-.24,1.47,1.47,0,0,0-.58-.1,1.5,1.5,0,0,0-1.31.6,2.79,2.79,0,0,0-.42,1.63A2.91,2.91,0,0,0,198,53a1.49,1.49,0,0,0,1.31.61,1.71,1.71,0,0,0,.54-.08,1.35,1.35,0,0,0,.38-.19,1.55,1.55,0,0,0,.26-.25Z"/><path class="d" d="M207,48.75a.45.45,0,0,1,.13-.37.68.68,0,0,1,.37-.09.65.65,0,0,1,.37.09.49.49,0,0,1,.13.37V53.9a.42.42,0,0,1-.12.35.58.58,0,0,1-.35.09.6.6,0,0,1-.36-.09.42.42,0,0,1-.13-.35v-.56a2,2,0,0,1-.44.56,2.76,2.76,0,0,1-.62.39,2.46,2.46,0,0,1-1,.17,2.55,2.55,0,0,1-.84-.13,1.66,1.66,0,0,1-.66-.38,1.78,1.78,0,0,1-.42-.66,2.59,2.59,0,0,1-.15-.93V48.7c0-.28.16-.41.48-.41s.51.13.51.41v3.41a1.67,1.67,0,0,0,.29,1.06,1.24,1.24,0,0,0,1,.36,1.43,1.43,0,0,0,.79-.2,1.71,1.71,0,0,0,.53-.54,2.36,2.36,0,0,0,.31-.74,3.74,3.74,0,0,0,.1-.81Z"/><path class="d" d="M209.82,48.73a.42.42,0,0,1,.12-.35.56.56,0,0,1,.35-.09.62.62,0,0,1,.36.09.42.42,0,0,1,.12.35v.58a2.14,2.14,0,0,1,2-1.14,2.39,2.39,0,0,1,1.09.23,2.15,2.15,0,0,1,.82.64,2.94,2.94,0,0,1,.51,1,5.2,5.2,0,0,1,0,2.56,3.15,3.15,0,0,1-.51,1,2.39,2.39,0,0,1-.82.65,2.53,2.53,0,0,1-1.09.23,2.33,2.33,0,0,1-1.21-.28,2,2,0,0,1-.7-.66v2.77a.43.43,0,0,1-.14.37.58.58,0,0,1-.37.1.55.55,0,0,1-.36-.1.43.43,0,0,1-.13-.37Zm4.44,2.6a2.88,2.88,0,0,0-.42-1.65,1.46,1.46,0,0,0-1.26-.61,1.61,1.61,0,0,0-.76.18,1.79,1.79,0,0,0-.56.5,2.41,2.41,0,0,0-.35.74,2.8,2.8,0,0,0-.13.88,2.6,2.6,0,0,0,.47,1.64,1.62,1.62,0,0,0,2.59,0,2,2,0,0,0,.31-.71A3.8,3.8,0,0,0,214.26,51.33Z"/><line class="e" x1="244.56" y1="50.8" x2="228.6" y2="50.8"/><polyline class="f" points="280.6 50.8 297.19 50.8 297.19 90.61 271.29 90.61"/><polygon class="c" points="272.46 86.62 265.55 90.61 272.46 94.59 272.46 86.62"/><g class="g"><g class="g"><g class="g"><path class="h" d="M187.86,83.51l-.08,37a7.69,7.69,0,0,0,1.6,3.72,11.3,11.3,0,0,0,1.72,2.3c.69.52,6.87,5.12,25,5.23S240.66,127,240.66,127a25.67,25.67,0,0,0,1.69-2.24,9.59,9.59,0,0,1,1.14-2c.22-.11.49-8.17.49-8.17l.49-22.54.1-8.57Z"/><path class="i" d="M246.06,81.85c0,2.93-13.36,5.3-29.84,5.3s-29.85-2.37-29.85-5.3,13.36-5.31,29.85-5.31,29.84,2.38,29.84,5.31"/><path class="h" d="M243.57,82.43c-1.91,1.78-12.54,4.15-27.81,4.15s-25.37-2.86-27.42-4.4c.84-2.06,10.45-3.63,23.91-3.87h3.51c15.27,0,28.66,2.38,27.81,4.14"/><path class="j" d="M212.25,78.32c-13.46.25-23.07,1.93-23.91,4.12,0-2.25,10.33-3.88,23.91-4.12"/><path class="k" d="M226.61,81.34c-.12.86-.57.71-.57.71a12.48,12.48,0,0,1-2.47-.55c-.25-.23-1.48-1-1.6-1.71a5.22,5.22,0,0,1-.68-1.42c0-.36-.39-2.46-3-2.21l-2.49,0h0l-2.49,0c-2.64-.25-3,1.85-3,2.21a3.56,3.56,0,0,1-.47,1.06c-.1.18-.19.36-.28.54-.27.62-1.31,1.32-1.54,1.53a12.4,12.4,0,0,1-2.46.55s-.46.15-.57-.71.57-.69.57-.69a3.29,3.29,0,0,0,3.1-2.27c.07-.31,1-2.27,1-2.27a3.07,3.07,0,0,1,2.83-1.39h6.68a3.07,3.07,0,0,1,2.83,1.39s.93,2,1,2.27A3.31,3.31,0,0,0,226,80.65s.68-.18.57.69"/><path class="k" d="M187.77,86.35l0,.06c.15.18,1,1.13,1.3,1s.07,4.29,0,5.38a.16.16,0,0,1-.23.14c-.48-.26-1.59-.88-1.59-1.24V86.16a.16.16,0,0,1,.26-.12.7.7,0,0,1,.22.31"/><path class="i" d="M188.08,89.09a.32.32,0,0,0-.3-.23c-.66,0-2.7-.13-3.16-.59s-2.72-2.65-3.31-3.22a.33.33,0,0,1-.08-.34,1.86,1.86,0,0,1,.36-.66.32.32,0,0,1,.45,0c.64.6,3.24,3,4.33,3.36l1.19.32a.33.33,0,0,0,.4-.34l-.08-1.09a.33.33,0,0,0-.31-.3A3.78,3.78,0,0,1,185,85a33.64,33.64,0,0,0-2.64-2.46.24.24,0,0,0-.09-.06,1.61,1.61,0,0,0-1.77.29,4.19,4.19,0,0,0-.8,2,.25.25,0,0,0,0,.17,9.15,9.15,0,0,0,2.46,3.42c1.51,1.11,2.67,2.17,5.55,2a.34.34,0,0,0,.3-.25,2.08,2.08,0,0,0,0-1"/><path class="k" d="M244.54,86.35l0,.06c-.15.18-1,1.13-1.3,1s-.07,4.29,0,5.38a.16.16,0,0,0,.23.14c.48-.26,1.59-.88,1.59-1.24V86.16a.16.16,0,0,0-.26-.12.7.7,0,0,0-.22.31"/><path class="i" d="M244.23,89.09a.32.32,0,0,1,.3-.23c.67,0,2.7-.13,3.16-.59s2.72-2.65,3.31-3.22a.33.33,0,0,0,.08-.34,1.86,1.86,0,0,0-.36-.66.32.32,0,0,0-.45,0c-.64.6-3.24,3-4.33,3.36l-1.19.32a.33.33,0,0,1-.4-.34l.08-1.09a.33.33,0,0,1,.31-.3,3.78,3.78,0,0,0,2.54-1,33.64,33.64,0,0,1,2.64-2.46.24.24,0,0,1,.09-.06,1.61,1.61,0,0,1,1.77.29,4.19,4.19,0,0,1,.8,2,.25.25,0,0,1,0,.17,9.15,9.15,0,0,1-2.46,3.42c-1.51,1.11-2.67,2.17-5.54,2a.34.34,0,0,1-.31-.25,2.08,2.08,0,0,1,0-1"/><g class="l"><g class="m"><path class="n" d="M220.55,93v33.29s9.71.58,12.46-1l.87-35.77s-9.27,1.59-13.33.86Z"/></g></g><g class="o"><g class="p"><path class="n" d="M200.88,93l-.36,33.29s-4.43.53-5.66-1.07V89.45s4.21,1.63,6.06.92Z"/></g></g></g></g></g><circle class="r" cx="215.14" cy="134.17" r="15.54"/><path class="s" d="M203.73,137.09c.63-3,3-5.52,3.15-8.56A9.08,9.08,0,0,1,208,133c2.8-3.43,5.7-8,5.07-12.22,0,0,5.31,1.67,7.46,9.81,1.27-1.13,1.15-3.46.52-4.83,1.88,1.37,12.7,13.57-1.7,21.71,2.71-5.27.7-12.38-4-15.67a9.93,9.93,0,0,1-2.16,7.42,5.11,5.11,0,0,0-.71-3.92,12.36,12.36,0,0,1-1.88,4.35c-1.37,2-2.31,4.12-.53,7.82C204.37,144.24,202.88,141.22,203.73,137.09Z"/><polyline class="f" points="48.42 206.84 72.17 206.84 72.17 224.65"/><polygon class="c" points="68.19 223.48 72.17 230.39 76.16 223.48 68.19 223.48"/><g class="t"><g class="t"><g class="t"><path class="h" d="M370.19,82l-.09,37a7.69,7.69,0,0,0,1.6,3.72,11.46,11.46,0,0,0,1.73,2.3c.68.52,6.86,5.12,25,5.23S423,125.49,423,125.49a25.85,25.85,0,0,0,1.68-2.24,10.06,10.06,0,0,1,1.15-2c.22-.11.49-8.17.49-8.17l.49-22.54.1-8.57Z"/><path class="i" d="M428.39,80.3c0,2.93-13.36,5.3-29.85,5.3s-29.84-2.37-29.84-5.3S382.06,75,398.54,75s29.85,2.38,29.85,5.31"/><path class="h" d="M425.9,80.88C424,82.66,413.36,85,398.09,85s-25.37-2.86-27.43-4.4c.85-2.06,10.46-3.63,23.91-3.87h3.52c15.27,0,28.65,2.38,27.81,4.14"/><path class="j" d="M394.57,76.77c-13.45.25-23.06,1.93-23.91,4.12,0-2.25,10.34-3.88,23.91-4.12"/><path class="k" d="M408.93,79.79c-.11.86-.57.71-.57.71A12.4,12.4,0,0,1,405.9,80c-.25-.23-1.49-1-1.6-1.71a5.22,5.22,0,0,1-.68-1.42c0-.36-.39-2.46-3-2.21l-2.49,0h0l-2.49,0c-2.65-.25-3,1.85-3,2.21a3.31,3.31,0,0,1-.47,1.06q-.15.27-.27.54c-.28.62-1.31,1.32-1.54,1.53a12.48,12.48,0,0,1-2.47.55s-.45.15-.57-.71.57-.69.57-.69a3.31,3.31,0,0,0,3.11-2.27c.07-.31,1-2.27,1-2.27a3.07,3.07,0,0,1,2.83-1.39h6.68a3.06,3.06,0,0,1,2.83,1.39s.94,2,1,2.27a3.29,3.29,0,0,0,3.1,2.27s.69-.18.57.69"/><path class="k" d="M370.09,84.8l0,.06c.15.18,1,1.13,1.3,1s.07,4.29,0,5.38a.15.15,0,0,1-.23.13c-.49-.25-1.6-.87-1.6-1.23V84.61a.16.16,0,0,1,.26-.12.58.58,0,0,1,.22.31"/><path class="i" d="M370.4,87.54a.3.3,0,0,0-.3-.23c-.66,0-2.7-.13-3.15-.59s-2.72-2.65-3.31-3.22a.33.33,0,0,1-.08-.34,1.86,1.86,0,0,1,.36-.66.31.31,0,0,1,.44,0c.64.6,3.24,3,4.34,3.36.55.16.93.26,1.18.32a.32.32,0,0,0,.4-.34l-.08-1.09a.32.32,0,0,0-.31-.3,3.78,3.78,0,0,1-2.53-1,33.64,33.64,0,0,0-2.64-2.46.21.21,0,0,0-.1-.06,1.61,1.61,0,0,0-1.77.29,4.3,4.3,0,0,0-.8,2,.32.32,0,0,0,0,.17,9.33,9.33,0,0,0,2.47,3.42c1.51,1.11,2.67,2.17,5.54,2a.32.32,0,0,0,.3-.25,2.08,2.08,0,0,0,0-1"/><path class="k" d="M426.87,84.8a.21.21,0,0,1,0,.06c-.15.18-1,1.13-1.29,1s-.08,4.29,0,5.38a.16.16,0,0,0,.24.13c.48-.25,1.59-.87,1.59-1.23V84.61a.16.16,0,0,0-.26-.12.58.58,0,0,0-.22.31"/><path class="i" d="M426.56,87.54a.3.3,0,0,1,.3-.23c.66,0,2.7-.13,3.15-.59s2.72-2.65,3.31-3.22a.31.31,0,0,0,.08-.34,1.72,1.72,0,0,0-.36-.66.31.31,0,0,0-.44,0c-.64.6-3.24,3-4.34,3.36-.55.16-.93.26-1.18.32a.32.32,0,0,1-.4-.34l.08-1.09a.32.32,0,0,1,.31-.3,3.78,3.78,0,0,0,2.53-1,31.55,31.55,0,0,1,2.65-2.46.18.18,0,0,1,.09-.06,1.61,1.61,0,0,1,1.77.29,4.3,4.3,0,0,1,.8,2,.32.32,0,0,1,0,.17,9.21,9.21,0,0,1-2.47,3.42c-1.5,1.11-2.67,2.17-5.54,2a.33.33,0,0,1-.3-.25,2.08,2.08,0,0,1,0-1"/><g class="l"><g class="u"><path class="n" d="M402.88,91.43v33.29s9.71.58,12.46-1l.87-35.77s-9.27,1.59-13.33.86Z"/></g></g><g class="o"><g class="v"><path class="n" d="M383.21,91.45l-.37,33.29s-4.42.53-5.66-1.08V87.9s4.2,1.63,6.06.92Z"/></g></g></g></g></g><circle class="r" cx="397.46" cy="132.62" r="15.54"/><path class="s" d="M386.06,135.54c.63-3,2.95-5.52,3.15-8.57a9.13,9.13,0,0,1,1.08,4.44c2.8-3.43,5.71-8,5.08-12.22,0,0,5.31,1.67,7.45,9.81,1.27-1.13,1.15-3.46.53-4.83,1.88,1.37,12.7,13.57-1.7,21.71,2.7-5.27.69-12.38-4-15.67a9.87,9.87,0,0,1-2.15,7.42,5.14,5.14,0,0,0-.71-3.93,12.6,12.6,0,0,1-1.88,4.36c-1.37,2-2.32,4.12-.54,7.82C386.7,142.69,385.21,139.67,386.06,135.54Z"/><path class="r" d="M420.22,134.77a.51.51,0,0,1-.18.23.56.56,0,0,1-.23.05.62.62,0,0,1-.34-.11.33.33,0,0,1-.16-.3.78.78,0,0,1,0-.21,1,1,0,0,1,.11-.27,3,3,0,0,1,.25-.4,2,2,0,0,1,.49-.48,2.66,2.66,0,0,1,.75-.41,3.14,3.14,0,0,1,1.08-.17,3.2,3.2,0,0,1,1,.15,2.08,2.08,0,0,1,.78.45,1.92,1.92,0,0,1,.51.73,2.6,2.6,0,0,1,.18,1,2.66,2.66,0,0,1-.13.78,4.27,4.27,0,0,1-.36.75,5.08,5.08,0,0,1-.54.73,7.51,7.51,0,0,1-.67.73l-.52.52-.56.53-.55.5-.5.42h3.6a.37.37,0,0,1,.32.12.52.52,0,0,1,.08.31.57.57,0,0,1-.08.31.4.4,0,0,1-.32.11h-4.42a.55.55,0,0,1-.43-.13.57.57,0,0,1-.11-.39.61.61,0,0,1,.07-.32.75.75,0,0,1,.23-.25l.51-.43c.21-.19.43-.38.65-.59l.65-.6.49-.48.62-.66a4.68,4.68,0,0,0,.5-.62,3.18,3.18,0,0,0,.33-.63,1.72,1.72,0,0,0,.13-.68,1.46,1.46,0,0,0-.43-1.15,1.57,1.57,0,0,0-1.12-.39,1.68,1.68,0,0,0-.72.14,1.84,1.84,0,0,0-.49.34,1.65,1.65,0,0,0-.32.4Z"/><path class="r" d="M427.34,140.85a.4.4,0,0,1-.32-.11.57.57,0,0,1-.08-.31.52.52,0,0,1,.08-.31.37.37,0,0,1,.32-.12h1.51v-5.91a7,7,0,0,1-.64.42,2.28,2.28,0,0,1-.44.24l-.2.09-.17,0a.32.32,0,0,1-.3-.18.63.63,0,0,1-.1-.34.36.36,0,0,1,.06-.2.89.89,0,0,1,.26-.17l.32-.17a3.73,3.73,0,0,0,.37-.23l.39-.25.34-.28a1.38,1.38,0,0,1,.23-.16.69.69,0,0,1,.33-.06h.05a.6.6,0,0,1,.37.1.43.43,0,0,1,.13.37V140h1.52a.35.35,0,0,1,.31.12.46.46,0,0,1,.09.31.5.5,0,0,1-.09.31.37.37,0,0,1-.31.11Z"/><path class="r" d="M434.55,134.77a.41.41,0,0,1-.41.28.62.62,0,0,1-.34-.11.34.34,0,0,1-.17-.3.82.82,0,0,1,0-.21.9.9,0,0,1,.1-.27,3.25,3.25,0,0,1,.26-.4,2.18,2.18,0,0,1,.48-.48,2.88,2.88,0,0,1,.76-.41,3.12,3.12,0,0,1,1.07-.17,3.22,3.22,0,0,1,1,.15,2.16,2.16,0,0,1,.78.45,1.92,1.92,0,0,1,.51.73,2.81,2.81,0,0,1,.17,1,2.36,2.36,0,0,1-.13.78,3.21,3.21,0,0,1-.36.75,5.86,5.86,0,0,1-.53.73,9,9,0,0,1-.67.73l-.52.52-.56.53-.55.5q-.27.24-.51.42h3.61a.37.37,0,0,1,.32.12.52.52,0,0,1,.08.31.57.57,0,0,1-.08.31.4.4,0,0,1-.32.11h-4.43a.54.54,0,0,1-.42-.13.57.57,0,0,1-.12-.39.72.72,0,0,1,.07-.32.93.93,0,0,1,.24-.25l.5-.43.66-.59.65-.6.49-.48.62-.66a4.59,4.59,0,0,0,.49-.62,3.24,3.24,0,0,0,.34-.63,1.91,1.91,0,0,0,.12-.68,1.46,1.46,0,0,0-.42-1.15,1.6,1.6,0,0,0-1.13-.39,1.66,1.66,0,0,0-.71.14,2.09,2.09,0,0,0-.5.34,1.88,1.88,0,0,0-.31.4Z"/><path class="r" d="M444.37,134.66a2.59,2.59,0,0,1-.16.91,2,2,0,0,1-.41.67,1.74,1.74,0,0,1-.64.42,2.16,2.16,0,0,1-.81.15,2,2,0,0,1-1.51-.56,2.19,2.19,0,0,1-.54-1.57,2.35,2.35,0,0,1,.16-.89,2,2,0,0,1,.42-.69,1.93,1.93,0,0,1,.66-.43,2,2,0,0,1,.82-.16,1.92,1.92,0,0,1,.81.16,1.76,1.76,0,0,1,.64.43,2.15,2.15,0,0,1,.41.67A2.52,2.52,0,0,1,444.37,134.66Zm-1,0a1.79,1.79,0,0,0-.26-1,.94.94,0,0,0-.8-.38,1,1,0,0,0-.8.38,1.65,1.65,0,0,0-.28,1,1.56,1.56,0,0,0,.27,1,1.08,1.08,0,0,0,1.61,0A1.63,1.63,0,0,0,443.41,134.7Z"/><path class="r" d="M448.6,133.21a.46.46,0,0,1,.15-.39.62.62,0,0,1,.4-.12h4.41a.46.46,0,0,1,.34.11.55.55,0,0,1,.09.34.57.57,0,0,1-.09.34.46.46,0,0,1-.34.11h-3.92v2.65h3.58a.39.39,0,0,1,.33.11.45.45,0,0,1,.1.33.48.48,0,0,1-.1.34.39.39,0,0,1-.33.12h-3.58v3.3a.46.46,0,0,1-.14.38.59.59,0,0,1-.38.1.61.61,0,0,1-.38-.1.46.46,0,0,1-.14-.38Z"/><path class="w" d="M379,286.58a.43.43,0,0,1-.12.17.29.29,0,0,1-.22.08.85.85,0,0,1-.38-.09.29.29,0,0,1-.19-.28.75.75,0,0,1,0-.2l.06-.2c.42-1.09.89-2.15,1.4-3.19s1.06-2.11,1.67-3.21h-3.77v.69a.36.36,0,0,1-.12.32.72.72,0,0,1-.66,0,.36.36,0,0,1-.12-.32v-1.09a.44.44,0,0,1,.15-.38.61.61,0,0,1,.39-.12h4.67a.47.47,0,0,1,.54.53.92.92,0,0,1-.05.28,1.74,1.74,0,0,1-.18.37c-.25.48-.52,1-.79,1.52s-.54,1.08-.81,1.64-.53,1.14-.79,1.72S379.21,286,379,286.58Z"/><path class="w" d="M389.55,282.7a6.82,6.82,0,0,1-.21,1.77,3.81,3.81,0,0,1-.59,1.32,2.64,2.64,0,0,1-.95.81,3.07,3.07,0,0,1-2.56,0,2.64,2.64,0,0,1-.95-.81,3.81,3.81,0,0,1-.59-1.32,6.82,6.82,0,0,1-.21-1.77,5,5,0,0,1,.8-3,2.87,2.87,0,0,1,4.47,0A5,5,0,0,1,389.55,282.7Zm-1,0a6,6,0,0,0-.13-1.32,3.56,3.56,0,0,0-.38-1,1.87,1.87,0,0,0-.63-.65,1.7,1.7,0,0,0-1.74,0,1.87,1.87,0,0,0-.63.65,3.56,3.56,0,0,0-.38,1,6.71,6.71,0,0,0-.13,1.32,6.87,6.87,0,0,0,.13,1.35,3.59,3.59,0,0,0,.38,1.05,1.94,1.94,0,0,0,.63.67,1.76,1.76,0,0,0,1.74,0,1.94,1.94,0,0,0,.63-.67,3.59,3.59,0,0,0,.38-1.05A6.19,6.19,0,0,0,388.53,282.7Z"/><path class="w" d="M391.54,284.25a.46.46,0,0,1-.34-.11.57.57,0,0,1-.1-.34.55.55,0,0,1,.1-.34.46.46,0,0,1,.34-.11h5a.42.42,0,0,1,.33.11.49.49,0,0,1,.1.34.51.51,0,0,1-.1.34.42.42,0,0,1-.33.11Z"/><path class="w" d="M404.49,284.54a2.39,2.39,0,0,1-.15.83,2.05,2.05,0,0,1-.5.76,2.49,2.49,0,0,1-.89.54,4,4,0,0,1-1.38.21,4,4,0,0,1-1.39-.21,2.59,2.59,0,0,1-.91-.54,2,2,0,0,1-.49-.76,2.39,2.39,0,0,1-.15-.83,2.09,2.09,0,0,1,.12-.72,1.92,1.92,0,0,1,.32-.58,2.22,2.22,0,0,1,.48-.44,2.25,2.25,0,0,1,.6-.3,2.25,2.25,0,0,1-.84-.66,1.63,1.63,0,0,1-.36-1.07,2,2,0,0,1,.24-1,1.9,1.9,0,0,1,.62-.67,2.66,2.66,0,0,1,.84-.37,3.59,3.59,0,0,1,1.84,0,2.66,2.66,0,0,1,.84.37,2,2,0,0,1,.61.67,2,2,0,0,1,.25,1,1.62,1.62,0,0,1-.36,1.06,2.33,2.33,0,0,1-.84.67,2.39,2.39,0,0,1,1.07.73A1.93,1.93,0,0,1,404.49,284.54Zm-1,0a1.47,1.47,0,0,0-.17-.72,1.42,1.42,0,0,0-.43-.48,1.68,1.68,0,0,0-.6-.29,3.06,3.06,0,0,0-1.39,0,1.91,1.91,0,0,0-.61.29,1.42,1.42,0,0,0-.43.48,1.61,1.61,0,0,0,0,1.44,1.45,1.45,0,0,0,.43.49,1.86,1.86,0,0,0,.61.27,3.27,3.27,0,0,0,.7.08,3.07,3.07,0,0,0,.67-.08,1.86,1.86,0,0,0,.61-.27,1.6,1.6,0,0,0,.44-.49A1.47,1.47,0,0,0,403.46,284.5Zm-.26-3.73a1.73,1.73,0,0,0-.08-.49,1.22,1.22,0,0,0-.28-.44,1.47,1.47,0,0,0-.5-.31,2.38,2.38,0,0,0-1.55,0,1.29,1.29,0,0,0-.5.31,1.07,1.07,0,0,0-.27.44,1.46,1.46,0,0,0-.09.49,1.15,1.15,0,0,0,.15.59,1.32,1.32,0,0,0,.38.43,1.74,1.74,0,0,0,.53.26,2.38,2.38,0,0,0,.58.08,2.3,2.3,0,0,0,.57-.08,1.64,1.64,0,0,0,.53-.26,1.22,1.22,0,0,0,.38-.43A1.15,1.15,0,0,0,403.2,280.77Z"/><path class="w" d="M411.75,282.7a6.82,6.82,0,0,1-.21,1.77,4,4,0,0,1-.59,1.32,2.73,2.73,0,0,1-.95.81,2.83,2.83,0,0,1-1.28.28,2.77,2.77,0,0,1-1.28-.28,2.56,2.56,0,0,1-.95-.81,4,4,0,0,1-.6-1.32,7.31,7.31,0,0,1-.2-1.77,4.92,4.92,0,0,1,.8-3,2.86,2.86,0,0,1,4.46,0A5,5,0,0,1,411.75,282.7Zm-1,0a6.71,6.71,0,0,0-.13-1.32,3.88,3.88,0,0,0-.38-1,1.87,1.87,0,0,0-.63-.65,1.7,1.7,0,0,0-1.74,0,1.87,1.87,0,0,0-.63.65,3.56,3.56,0,0,0-.38,1,6,6,0,0,0-.13,1.32,6.19,6.19,0,0,0,.13,1.35,3.59,3.59,0,0,0,.38,1.05,1.94,1.94,0,0,0,.63.67,1.76,1.76,0,0,0,1.74,0,1.94,1.94,0,0,0,.63-.67,3.9,3.9,0,0,0,.38-1.05A6.87,6.87,0,0,0,410.73,282.7Z"/><path class="w" d="M416.81,280.55a2.59,2.59,0,0,1-.15.91,2.06,2.06,0,0,1-.42.67,1.76,1.76,0,0,1-.64.43,2.38,2.38,0,0,1-.81.14,2,2,0,0,1-1.5-.56,2.18,2.18,0,0,1-.54-1.56,2.57,2.57,0,0,1,.15-.9,1.88,1.88,0,0,1,.43-.69,1.8,1.8,0,0,1,.65-.43,2.32,2.32,0,0,1,1.64,0,1.81,1.81,0,0,1,.63.43,2,2,0,0,1,.41.68A2.46,2.46,0,0,1,416.81,280.55Zm-.95,0a1.76,1.76,0,0,0-.27-1,1,1,0,0,0-1.59,0,1.62,1.62,0,0,0-.29,1,1.56,1.56,0,0,0,.27,1,1,1,0,0,0,.81.37,1,1,0,0,0,.8-.37A1.56,1.56,0,0,0,415.86,280.59Z"/><path class="w" d="M421.05,279.1a.5.5,0,0,1,.14-.39.62.62,0,0,1,.4-.12H426a.46.46,0,0,1,.34.11.63.63,0,0,1,0,.68.43.43,0,0,1-.34.12h-3.92v2.64h3.58a.46.46,0,0,1,.34.11.55.55,0,0,1,.1.34.57.57,0,0,1-.1.34.46.46,0,0,1-.34.11h-3.58v3.3a.46.46,0,0,1-.13.38.62.62,0,0,1-.39.11.61.61,0,0,1-.38-.11.46.46,0,0,1-.13-.38Z"/><circle class="x" cx="89.84" cy="254.61" r="15.33"/><path class="d" d="M84.34,252.53l.09-.09a.16.16,0,0,1,.1,0,.37.37,0,0,1,.16.05.19.19,0,0,1,.08.17.37.37,0,0,1-.09.21l-1.81,2.36,1.95,2.58a.5.5,0,0,1,.11.23.21.21,0,0,1-.09.16.28.28,0,0,1-.17.07.2.2,0,0,1-.11,0l-.12-.12-1.88-2.49-1.93,2.53a.24.24,0,0,1-.1.08l-.1,0a.25.25,0,0,1-.16-.06.17.17,0,0,1-.08-.15.3.3,0,0,1,0-.1l.06-.09,2-2.61-1.81-2.39a.41.41,0,0,1-.07-.11.22.22,0,0,1,0-.1.2.2,0,0,1,.09-.17.41.41,0,0,1,.17-.05.28.28,0,0,1,.13,0,.47.47,0,0,1,.1.1l1.73,2.3Z"/><path class="d" d="M88,252.1a.5.5,0,0,1-.19.24.51.51,0,0,1-.22,0,.62.62,0,0,1-.34-.11A.34.34,0,0,1,87,252a.89.89,0,0,1,0-.22,1.15,1.15,0,0,1,.1-.27c.06-.1.14-.23.26-.4a2.72,2.72,0,0,1,.48-.48,3,3,0,0,1,.76-.4,2.9,2.9,0,0,1,1.07-.17,3.22,3.22,0,0,1,1,.15,2.16,2.16,0,0,1,.78.45,2,2,0,0,1,.51.72,2.87,2.87,0,0,1,.17,1,2.36,2.36,0,0,1-.13.78,3.21,3.21,0,0,1-.36.75,6.71,6.71,0,0,1-.53.73c-.2.24-.43.49-.67.73l-.52.52-.56.52-.55.5c-.18.16-.35.31-.51.43H92a.37.37,0,0,1,.31.11.5.5,0,0,1,.09.31.51.51,0,0,1-.09.32.37.37,0,0,1-.31.11H87.57a.58.58,0,0,1-.42-.13.57.57,0,0,1-.12-.39.61.61,0,0,1,.07-.32,1.11,1.11,0,0,1,.24-.26l.5-.42.66-.59.65-.61c.21-.19.37-.35.49-.48s.42-.44.61-.65a4.53,4.53,0,0,0,.5-.62,3.24,3.24,0,0,0,.34-.63,1.91,1.91,0,0,0,.12-.68,1.5,1.5,0,0,0-.42-1.16,1.64,1.64,0,0,0-1.13-.38,1.74,1.74,0,0,0-.72.14,2,2,0,0,0-.49.34,1.6,1.6,0,0,0-.31.4Z"/><path class="d" d="M96.77,250.47a.66.66,0,0,1,.26-.24.9.9,0,0,1,.4-.07.65.65,0,0,1,.37.09.46.46,0,0,1,.14.38v5h.63c.16,0,.27,0,.32.1A.46.46,0,0,1,99,256a.61.61,0,0,1-.08.32c0,.08-.16.11-.32.11h-.63v1.39a.44.44,0,0,1-.13.37.57.57,0,0,1-.36.1.46.46,0,0,1-.34-.1.51.51,0,0,1-.11-.37v-1.39H93.72a.48.48,0,0,1-.56-.52.61.61,0,0,1,.06-.28,2.12,2.12,0,0,1,.18-.29Zm.23,5.12v-4.07l-2.82,4.07Z"/><g class="y"><g class="y"><path class="z" d="M248.93,29.53s.21,10.81.42,11.18.32,4.11.74,4.75,0,2.84,0,2.84a5.09,5.09,0,0,0,.53,2c.37.37-.53,1.85-.48,2.54s-.68,5.8-.68,5.8,0,4.32-.05,4.53.05,6.22.05,6.22a13.51,13.51,0,0,0,2.85-.79,6.7,6.7,0,0,1,2.53-1.21c1.11-.16,3.79-1,3.79-1a44.28,44.28,0,0,0,4.49.42,19.54,19.54,0,0,0,3.64-.47c.15-.16,1.84.42,2.42.31s4.69.32,5,.64,1.69,0,1.69,0,.63-.53,1-.43-.37-3.63-.37-3.63-.74-8-.53-9,.05-6.59.05-6.59a4.85,4.85,0,0,0,.32-1.32,30.12,30.12,0,0,0-1.05-4.43c-.27-.21-.32-4.06-.32-4.38s-.21-6.43-.21-6.43l.1-1.53-1.68.26-2,1.11s-9.64.53-10.44,1.06-2.69-.95-2.69-.95-2.63-.48-3.05-.48a12.71,12.71,0,0,1-3.17-1c-.63-.37-2.9,0-2.9,0"/><path class="aa" d="M248.93,29.53s.21,10.81.42,11.18.32,4.11.74,4.75,0,2.84,0,2.84a5.09,5.09,0,0,0,.53,2c.37.37-.53,1.85-.48,2.54s-.68,5.8-.68,5.8,0,4.32-.05,4.53.05,6.22.05,6.22a13.51,13.51,0,0,0,2.85-.79,6.7,6.7,0,0,1,2.53-1.21c1.11-.16,3.79-1,3.79-1a44.28,44.28,0,0,0,4.49.42,19.54,19.54,0,0,0,3.64-.47c.15-.16,1.84.42,2.42.31s4.69.32,5,.64,1.69,0,1.69,0,.63-.53,1-.43-.37-3.63-.37-3.63-.74-8-.53-9,.05-6.59.05-6.59a4.85,4.85,0,0,0,.32-1.32,30.12,30.12,0,0,0-1.05-4.43c-.27-.21-.32-4.06-.32-4.38s-.21-6.43-.21-6.43l.1-1.53-1.68.26-2,1.11s-9.64.53-10.44,1.06-2.69-.95-2.69-.95-2.63-.48-3.05-.48a12.71,12.71,0,0,1-3.17-1C251.2,29.16,248.93,29.53,248.93,29.53Z"/><path class="ab" d="M251.83,29.53l.66,8.11s.66,10.13.37,10.63-.43,4.42.07,5.07-.66,3.18-.55,4-.55,5.86-.55,5.86l.48,5.3a10,10,0,0,1-3.08.81s.44-3.81.17-4.29l.06-6.3.38-4.9.38-4.62a3.52,3.52,0,0,1-.11-1.07,5.56,5.56,0,0,0-.18-3.15c-.55-1-.58-4.32-.58-4.32l-.24-4.21-.18-7a6.88,6.88,0,0,1,2.9,0"/><path class="ab" d="M258.63,66.39s2.45-2.16,8.07-1c0,0,1.59.83,2.48,1.22a8.72,8.72,0,0,0-2.42-.31,21.78,21.78,0,0,1-8.13,0"/><path class="ab" d="M273.14,29.79l.38,7.63a30.05,30.05,0,0,1-.19,4.48,38.77,38.77,0,0,0,.2,6.13s.27,3.43,0,3.83S274.84,54,274.84,54l1.09.18.05-6.59s.52-.59.06-2.68a23.75,23.75,0,0,1-1.1-6.8c-.12-4,0-.65,0-.65l-.11-8a4.76,4.76,0,0,0-1.68.26"/><path class="ac" d="M268.16,59.29h-9.85a1,1,0,0,1-1-1V41.49a1,1,0,0,1,1-1h9.85a1,1,0,0,1,1,1V58.27a1,1,0,0,1-1,1"/><path d="M263.29,48.15a2.1,2.1,0,0,1-1.38.41h-1.15v2h-1.15V45H262a1.9,1.9,0,0,1,1.31.43,1.67,1.67,0,0,1,.48,1.32,1.72,1.72,0,0,1-.48,1.38m-.88-2a.94.94,0,0,0-.61-.18h-1v1.63h1a.9.9,0,0,0,.61-.2.81.81,0,0,0,.22-.63.77.77,0,0,0-.22-.62"/><path d="M263.51,53.35a1,1,0,0,0,.21.57,1.21,1.21,0,0,0,1,.34,2.15,2.15,0,0,0,.68-.09.64.64,0,0,0,.49-.64.47.47,0,0,0-.24-.42,2.42,2.42,0,0,0-.77-.26l-.59-.13a3.42,3.42,0,0,1-1.21-.43,1.32,1.32,0,0,1-.56-1.19,1.6,1.6,0,0,1,.54-1.23,2.33,2.33,0,0,1,1.61-.49,2.43,2.43,0,0,1,1.5.46,1.64,1.64,0,0,1,.66,1.34H265.7a.78.78,0,0,0-.45-.7,1.4,1.4,0,0,0-.68-.14,1.29,1.29,0,0,0-.73.18.57.57,0,0,0-.28.5.47.47,0,0,0,.27.44,3.88,3.88,0,0,0,.74.23l1,.23a2.41,2.41,0,0,1,1,.4,1.33,1.33,0,0,1,.49,1.12,1.57,1.57,0,0,1-.58,1.26,2.48,2.48,0,0,1-1.65.5,2.71,2.71,0,0,1-1.72-.49,1.65,1.65,0,0,1-.62-1.36Z"/></g></g><g class="ae"><g class="ae"><g class="ae"><path class="af" d="M81.06,271.08l-.27,31.86s1.3,3.86-8.29,4.15c-9.58-.26-8.29-4.15-8.29-4.15l-.27-31.86c-.33-3.52.76-5,.76-5l2-3.24a24.68,24.68,0,0,0,.39-3.59c0-1.17.62-9.63,1.09-10.84a32.54,32.54,0,0,0,.73-5.5,1.64,1.64,0,0,1,0-2.14,2.54,2.54,0,0,0,.09-1.49c-.65-1.74,2.53-1.72,3.33-1.69a2.16,2.16,0,0,0,.36,0c.81,0,4,0,3.33,1.69a2.63,2.63,0,0,0,.09,1.49,1.64,1.64,0,0,1,0,2.14,32.54,32.54,0,0,0,.73,5.5c.47,1.21,1.13,9.67,1.09,10.84a24.68,24.68,0,0,0,.39,3.59l2,3.24s1.09,1.47.76,5"/><path class="ag" d="M78.33,262.85a24.68,24.68,0,0,1-.39-3.59c0-.87-.33-5.8-.71-8.75-2.51.15-7.44-.11-9.39-.22-.39,2.92-.77,8.08-.74,9a24.68,24.68,0,0,1-.39,3.59l-2,3.24s-1.09,1.47-.76,5l.27,31.86s-1.29,3.89,8.29,4.15c9.59-.29,8.29-4.15,8.29-4.15l.27-31.86c.33-3.52-.76-5-.76-5Z"/><path class="ah" d="M65.92,303.16s5.06,2.46,12.59,0"/><path class="ah" d="M75,241.76a7.32,7.32,0,0,0-4.94,0"/><g class="ai"><g class="aj"><path class="ak" d="M74.61,244.24s2.11,14.75,1.7,18.22A12.27,12.27,0,0,1,78.52,268v33"/></g></g></g></g></g><circle class="x" cx="235.81" cy="289.61" r="15.33"/><path class="d" d="M230.31,287.53l.09-.09a.16.16,0,0,1,.1,0,.37.37,0,0,1,.16.05.2.2,0,0,1,.09.17.33.33,0,0,1-.1.21l-1.81,2.36,1.95,2.58a.42.42,0,0,1,.11.23.19.19,0,0,1-.08.16.34.34,0,0,1-.18.07.23.23,0,0,1-.11,0l-.12-.12-1.88-2.49-1.93,2.53a.19.19,0,0,1-.1.08l-.09,0a.27.27,0,0,1-.17-.06.19.19,0,0,1-.08-.15.17.17,0,0,1,0-.1.41.41,0,0,1,.05-.09l2-2.61-1.81-2.39-.07-.11a.44.44,0,0,1,0-.1.2.2,0,0,1,.09-.17.37.37,0,0,1,.17-.05l.12,0,.1.1,1.74,2.3Z"/><path class="d" d="M233.93,287.1a.45.45,0,0,1-.19.24.48.48,0,0,1-.22.05.62.62,0,0,1-.34-.11.33.33,0,0,1-.16-.3.86.86,0,0,1,0-.22,1.27,1.27,0,0,1,.11-.27c0-.1.14-.23.25-.4a2.49,2.49,0,0,1,.49-.48,2.92,2.92,0,0,1,1.83-.57,3.2,3.2,0,0,1,1,.15,2.16,2.16,0,0,1,.78.45,2,2,0,0,1,.51.72,2.88,2.88,0,0,1,0,1.8,4.27,4.27,0,0,1-.36.75,5.7,5.7,0,0,1-.54.73,8.89,8.89,0,0,1-.67.73l-.52.52c-.18.18-.37.35-.56.52s-.37.34-.55.5l-.5.43H238a.4.4,0,0,1,.32.11.57.57,0,0,1,.08.31.58.58,0,0,1-.08.32.4.4,0,0,1-.32.11h-4.43a.58.58,0,0,1-.42-.13.57.57,0,0,1-.12-.39.72.72,0,0,1,.07-.32,1.11,1.11,0,0,1,.24-.26l.5-.42.66-.59c.23-.21.45-.41.65-.61s.37-.35.49-.48.43-.44.62-.65a5.44,5.44,0,0,0,.5-.62,3.18,3.18,0,0,0,.33-.63,1.91,1.91,0,0,0,.13-.68,1.5,1.5,0,0,0-.43-1.16,1.64,1.64,0,0,0-1.13-.38,1.66,1.66,0,0,0-.71.14,1.84,1.84,0,0,0-.49.34,1.65,1.65,0,0,0-.32.4Z"/><path class="d" d="M242.74,285.47a.73.73,0,0,1,.26-.24.94.94,0,0,1,.41-.07.68.68,0,0,1,.37.09.46.46,0,0,1,.13.38v5h.64a.37.37,0,0,1,.31.1.4.4,0,0,1,.09.29.53.53,0,0,1-.09.32c-.05.08-.16.11-.31.11h-.64v1.39a.44.44,0,0,1-.13.37.53.53,0,0,1-.36.1.46.46,0,0,1-.34-.1.51.51,0,0,1-.11-.37v-1.39H239.7a.56.56,0,0,1-.44-.14.6.6,0,0,1-.13-.38.61.61,0,0,1,.06-.28,2.12,2.12,0,0,1,.18-.29Zm.23,5.12v-4.07l-2.81,4.07Z"/><g class="al"><g class="al"><g class="al"><path class="af" d="M223,271.08l-.27,31.86s1.3,3.86-8.3,4.15c-9.57-.26-8.29-4.15-8.29-4.15l-.27-31.86c-.33-3.52.76-5,.76-5l2-3.24a24.68,24.68,0,0,0,.39-3.59c0-1.17.63-9.63,1.1-10.84a33.63,33.63,0,0,0,.73-5.5,1.63,1.63,0,0,1,0-2.14,2.59,2.59,0,0,0,.08-1.49c-.64-1.74,2.53-1.72,3.33-1.69a2.29,2.29,0,0,0,.37,0c.8,0,4,0,3.32,1.69a2.63,2.63,0,0,0,.09,1.49,1.64,1.64,0,0,1,0,2.14,33.63,33.63,0,0,0,.73,5.5c.47,1.21,1.13,9.67,1.1,10.84a24.68,24.68,0,0,0,.39,3.59l2,3.24s1.09,1.47.76,5"/><path class="ag" d="M220.3,262.85a26.25,26.25,0,0,1-.39-3.59c0-.87-.33-5.8-.71-8.75-2.51.15-7.44-.11-9.39-.22-.39,2.92-.77,8.08-.74,9a24.68,24.68,0,0,1-.39,3.59l-2,3.24s-1.09,1.47-.76,5l.27,31.86s-1.28,3.89,8.29,4.15c9.59-.29,8.3-4.15,8.3-4.15l.27-31.86c.32-3.52-.77-5-.77-5Z"/><path class="ah" d="M207.89,303.16s5.07,2.46,12.59,0"/><path class="ah" d="M216.94,241.76a7.29,7.29,0,0,0-4.93,0"/><g class="ai"><g class="am"><path class="ak" d="M216.59,244.24s2.11,14.75,1.69,18.22a12.13,12.13,0,0,1,2.21,5.51v33"/></g></g></g></g></g><rect class="an" x="210.64" y="236.65" width="7.6" height="1.82" rx="0.91" ry="0.91"/><g class="ao"><g class="ao"><g class="ao"><path class="af" d="M355.85,258.08l-.28,31.86s1.3,3.86-8.29,4.15c-9.58-.26-8.29-4.15-8.29-4.15l-.27-31.86c-.33-3.52.76-5,.76-5l2-3.24a24.68,24.68,0,0,0,.39-3.59c0-1.17.62-9.63,1.09-10.84a32.54,32.54,0,0,0,.73-5.5,1.65,1.65,0,0,1,0-2.14,2.54,2.54,0,0,0,.09-1.49c-.65-1.74,2.53-1.72,3.33-1.69a2.16,2.16,0,0,0,.36,0c.81,0,4,0,3.33,1.69a2.63,2.63,0,0,0,.09,1.49,1.64,1.64,0,0,1,0,2.14,32.54,32.54,0,0,0,.73,5.5c.47,1.21,1.13,9.67,1.09,10.84a24.68,24.68,0,0,0,.39,3.59l2,3.24s1.09,1.47.77,5"/><path class="ag" d="M353.11,249.85a24.68,24.68,0,0,1-.39-3.59c0-.87-.33-5.8-.71-8.75-2.51.15-7.44-.11-9.39-.22-.39,2.92-.77,8.08-.74,9a24.68,24.68,0,0,1-.39,3.59l-2,3.24s-1.09,1.47-.76,5l.27,31.86s-1.29,3.89,8.29,4.15c9.59-.29,8.29-4.15,8.29-4.15l.27-31.86c.33-3.52-.76-5-.76-5Z"/><path class="ah" d="M340.7,290.16s5.06,2.46,12.59,0"/><path class="ah" d="M349.75,228.76a7.32,7.32,0,0,0-4.94,0"/><g class="ai"><g class="ap"><path class="ak" d="M349.39,231.24s2.12,14.75,1.7,18.22A12.13,12.13,0,0,1,353.3,255v33"/></g></g></g></g></g><rect class="an" x="343.45" y="223.65" width="7.6" height="1.82" rx="0.91" ry="0.91"/><g class="aq"><g class="aq"><g class="aq"><path class="af" d="M337.5,259.44l-.2,23.8s1,2.89-6.19,3.1c-7.16-.19-6.2-3.1-6.2-3.1l-.2-23.8c-.25-2.62.57-3.72.57-3.72l1.49-2.42a18.52,18.52,0,0,0,.29-2.68,59.11,59.11,0,0,1,.81-8.1,24.42,24.42,0,0,0,.55-4.1,1.23,1.23,0,0,1,0-1.61,1.84,1.84,0,0,0,.06-1.1c-.48-1.3,1.89-1.29,2.49-1.27h.27c.6,0,3,0,2.49,1.27a1.93,1.93,0,0,0,.06,1.1,1.23,1.23,0,0,1,0,1.61,24.42,24.42,0,0,0,.55,4.1,59.11,59.11,0,0,1,.81,8.1,19.61,19.61,0,0,0,.3,2.68l1.48,2.42s.82,1.1.57,3.72"/><path class="ag" d="M335.46,253.3a18.52,18.52,0,0,1-.29-2.68c0-.65-.25-4.34-.53-6.54-1.88.11-5.56-.08-7-.16-.29,2.18-.57,6-.55,6.7a18.52,18.52,0,0,1-.29,2.68l-1.49,2.42s-.81,1.1-.57,3.72l.21,23.8s-1,2.91,6.19,3.1c7.16-.21,6.19-3.1,6.19-3.1l.21-23.8c.24-2.62-.57-3.72-.57-3.72Z"/><path class="ar" d="M326.19,283.41s3.78,1.83,9.4,0"/><path class="ar" d="M333,237.55a5.44,5.44,0,0,0-3.69,0"/><g class="ai"><g class="as"><path class="at" d="M332.68,239.4s1.58,11,1.27,13.61a9.13,9.13,0,0,1,1.65,4.11v24.65"/></g></g></g></g></g><rect class="an" x="328.17" y="234.13" width="5.98" height="1.18" rx="0.59" ry="0.59"/><g class="au"><g class="au"><g class="au"><path class="af" d="M370,259.44l-.2,23.8s1,2.89-6.19,3.1c-7.16-.19-6.19-3.1-6.19-3.1l-.21-23.8c-.24-2.62.57-3.72.57-3.72l1.49-2.42a18.52,18.52,0,0,0,.29-2.68,59.14,59.14,0,0,1,.82-8.1,25.26,25.26,0,0,0,.54-4.1,1.25,1.25,0,0,1,0-1.61,1.87,1.87,0,0,0,.07-1.1c-.49-1.3,1.88-1.29,2.48-1.27h.27c.6,0,3,0,2.49,1.27a1.87,1.87,0,0,0,.07,1.1,1.25,1.25,0,0,1,0,1.61,24.17,24.17,0,0,0,.54,4.1,59.14,59.14,0,0,1,.82,8.1,18.52,18.52,0,0,0,.29,2.68l1.49,2.42s.81,1.1.56,3.72"/><path class="ag" d="M368,253.3a18.52,18.52,0,0,1-.29-2.68c0-.65-.25-4.34-.53-6.54-1.87.11-5.56-.08-7-.16-.29,2.18-.58,6-.56,6.7a18.52,18.52,0,0,1-.29,2.68l-1.48,2.42s-.82,1.1-.57,3.72l.2,23.8s-1,2.91,6.19,3.1c7.17-.21,6.2-3.1,6.2-3.1l.2-23.8c.24-2.62-.57-3.72-.57-3.72Z"/><path class="ar" d="M358.69,283.41s3.78,1.83,9.4,0"/><path class="ar" d="M365.45,237.55a5.42,5.42,0,0,0-3.68,0"/><g class="ai"><g class="av"><path class="at" d="M365.19,239.4s1.57,11,1.26,13.61a9.08,9.08,0,0,1,1.66,4.11v24.65"/></g></g></g></g></g><rect class="an" x="360.67" y="234.13" width="5.98" height="1.18" rx="0.59" ry="0.59"/><g class="aw"><g class="aw"><g class="aw"><path class="ax" d="M23.41,207.07a1.8,1.8,0,0,1-1,1.19,1.47,1.47,0,0,1,0,.82,3.5,3.5,0,0,1-.65.75,2.82,2.82,0,0,1,.65,2,3,3,0,0,1,1.21,1.36s-.05.11.27.31a4.57,4.57,0,0,1,2,1,16,16,0,0,1,2.93.93,15.62,15.62,0,0,1,2.68.22,5.45,5.45,0,0,0,1.64.09,6.21,6.21,0,0,1,2-.11,2.06,2.06,0,0,0,1.39-.18,2.51,2.51,0,0,1,1.59-.46c1.2-.06,1.36-.47,1.36-.47l1.43-.64s1.18-.41,1.16-.68a1.58,1.58,0,0,1,.36-1.11,4.64,4.64,0,0,0,.66-1,1.12,1.12,0,0,1,.63-.93c.51-.32.53-.58.51-.68a.75.75,0,0,1,0-.15c0-.19.08-.58.26-.58s-.36-.55-.36-.55-1-.56-.5-1.05l-.88-.91Z"/><g class="ay"><g class="az"><path class="ba" d="M23.15,208.18a3.78,3.78,0,0,1,.23,1.64s.06.75.49,1a.62.62,0,0,0,.72-.19.33.33,0,0,1,.35-.08c.13,0,.25.18.24.5a5.46,5.46,0,0,1-.08.71.13.13,0,0,0,.16.14.61.61,0,0,1,.56.2c.24.24.05.44.35.49.14,0,.34-.22.38-.32a.11.11,0,0,1,.18,0l.67.69a1.16,1.16,0,0,0,.46.29c.29.09.72.21.81.09a3.16,3.16,0,0,0,.21-.45.51.51,0,0,1,.35-.32c.22-.05.5,0,.58.46.17,1,1.68.75,1.68.75s.07-.34.3-.44a1.24,1.24,0,0,1,.87,0,.51.51,0,0,1,.47.34c.13.35,1.72.05,1.72.05s.18-1.25,1.09-.54a1.33,1.33,0,0,0,1.83-.23.66.66,0,0,1,1-.32c.64.37,1.55-.66,1.55-.66s0-.64.49-.59,1.17-.72,1.17-.72,0-.68.31-.74.5-1,.5-1a.51.51,0,0,1,.37-.23c.3-.06,0-1,0-1h.48a.42.42,0,0,1,0-.64l-.88-.86L23.38,207a1.84,1.84,0,0,1-.19.45,1.63,1.63,0,0,1,0,.71"/></g></g><path class="bb" d="M42.88,207.07c0,2.85-4.37,5.16-9.75,5.16s-9.75-2.31-9.75-5.16,4.37-5.16,9.75-5.16,9.75,2.31,9.75,5.16"/><g class="bc"><g class="bd"><path class="be" d="M25.86,209.83a17.09,17.09,0,0,0,6.8,1.34s-4.33,1.24-6.8-1.34"/></g></g><g class="bc"><g class="bf"><path class="be" d="M33.13,211.57A54.36,54.36,0,0,0,39,210.18a8.72,8.72,0,0,1-5.83,1.39"/></g></g><g class="bg"><g class="bh"><path class="be" d="M22.54,211.47l.84-.92s-.54,1.18.68.8c0,0-.58.76-1,.79a.68.68,0,0,0-.11-.47s-.19-.25-.42-.2"/></g></g><g class="bg"><g class="bi"><path class="be" d="M23.66,212.9l1-1.51s.18-.08.16.08a19.16,19.16,0,0,1-1.08,1.6,1.4,1.4,0,0,1-.1-.17"/></g></g><g class="bg"><g class="bj"><path class="be" d="M24.88,213.53l.5-1.26a2.15,2.15,0,0,1,.23.48c0,.14-.64.84-.64.84Z"/></g></g><g class="bg"><g class="bk"><path class="be" d="M28.94,215l.28-2s.16-.24.22,0a13.91,13.91,0,0,1-.28,2Z"/></g></g><g class="bg"><g class="bl"><polygon class="be" points="32.16 215.29 32.2 214.01 32.48 214.01 32.48 215.29 32.16 215.29"/></g></g><g class="bg"><g class="bm"><path class="be" d="M29.67,215.07l.51-.62s.25-.24.27,0l-.49.62Z"/></g></g><g class="bg"><g class="bn"><path class="be" d="M35.45,215.18l-.24-1.58s.13-.17.24,0a10.22,10.22,0,0,1,.28,1.62Z"/></g></g><g class="bg"><g class="bo"><path class="be" d="M36.75,213.83l.59-.11h0c.08,0,.33.07.37.2l.19.68a.14.14,0,0,1-.14.19.13.13,0,0,1-.13-.08l-.27-.57a.14.14,0,0,0-.07-.08.91.91,0,0,0-.49-.07s-.14-.08-.1-.16"/></g></g><g class="bg"><g class="bp"><path class="be" d="M38.74,214.56l-.48-.89s0-.21.16-.16.48,1,.48,1Z"/></g></g><g class="bg"><g class="bq"><path class="be" d="M39.66,213.11l.13-.17a.32.32,0,0,1,.19-.1c.09,0,.21,0,.26.07s.58.71.58.71a2.48,2.48,0,0,0-1.16-.51"/></g></g><g class="bg"><g class="br"><path class="be" d="M43,209l.13-.17a.32.32,0,0,1,.18-.1c.1,0,.22,0,.27.07s.58.71.58.71A2.48,2.48,0,0,0,43,209"/></g></g><g class="bg"><g class="bs"><path class="be" d="M40.57,212.13l.78,1,.14-.12-.74-1s-.19,0-.18.13"/></g></g><g class="bg"><g class="bt"><path class="be" d="M26,214.28l.56-1.05s.21-.21.22,0a4.58,4.58,0,0,1-.6,1.12Z"/></g></g><g class="bg"><g class="bu"><path class="be" d="M42.76,211.59l-1-.64s-.19-.22,0-.22a4.73,4.73,0,0,1,1.07.68Z"/></g></g><g class="bg"><g class="bv"><path class="be" d="M27.59,213.85s.15-.27.15-.27.12-.24.18-.09a3.08,3.08,0,0,0,.13.28s0,.36-.18.32-.3.64-.3.64l-.14-.32s.13-.52.16-.56"/></g></g><g class="bw"><g class="bx"><path class="s" d="M44.1,207l.61.52s.25,0,.21-.15-.55-.46-.55-.46-.25,0-.27.09"/></g></g></g></g></g><g class="bz"><g class="bz"><g class="bz"><path class="ca" d="M210,227.58l.07.64a.75.75,0,0,0-.59.26c-.17.28-.69,3.23-.69,3.23a.88.88,0,0,0,.44,1v.47s-2.36.91-3.1,2.1l-1-.26-3.75-3.65,2.06-.11.45,1,1,1,.65-.69,1.76-5,2-.68s.87.19.69.67"/><path class="cb" d="M210,227.58l.13,2.09s0,.24-.16.31a.69.69,0,0,0-.11.85c.23.22.77,1.26,5.3.94s3.94-1.6,3.94-1.6l-1.3-1.77-8-1.27Z"/><path class="cc" d="M210.08,236.82s.59-.4,2.81.18l.06-.15.15-1.24.3-.32-.35-.84-3.23.06-1.47.25-.31,1,1.11,1.32L210,237Z"/><path class="cc" d="M216.33,238.48s1.11-.84,1.2-1.29c0,0,1.71-.07,1.82-.78.13-.89-.17-.67-1.22-.65a1.46,1.46,0,0,1,.24-1,9.5,9.5,0,0,1,3.34-.22c1.62.06,1.06.91,1.06.91l.31,3.4-5.44,0-1.28-.08a.69.69,0,0,1,0-.28"/><path class="cd" d="M210,239.11l.77-.49.22-.85a.6.6,0,0,0-.45-.76c-.63-.22-1.71-.81-1.73-1a1,1,0,0,1,.81-1.15,10.81,10.81,0,0,1,3.34,0c.37.17,0,2.12,0,2.12a4.1,4.1,0,0,1,.43-1.23c.24-.25,1-.92,1-.92l0-1.1s.15-.31-.31-.36-2.25-.52-2.25-.52-2.31.19-2.62.23a4.11,4.11,0,0,0-.66.14,6.36,6.36,0,0,0-2.44,2l-.81.94,0,.62-.24,1.41,4.94,1Z"/><path class="cd" d="M217.14,240.48s-.47.09-.47-.27l-.43-1.49s-.12-.33,1.1-.46a21.37,21.37,0,0,0,4.29-1.59,4.07,4.07,0,0,0-.5-1.07c-.18-.15,1.19-.14,1.19-.14l.37,2.37-.48,1.42L218,240.59Z"/></g><g class="bz"><path class="cd" d="M195.73,217.59l-5.37,3.59a.45.45,0,0,1-.62-.13.49.49,0,0,1-.07-.19.45.45,0,0,1,.19-.43l.61-.4a.66.66,0,0,1-.36-.26l-14.24-21.31a.61.61,0,0,1,.17-.86l3.68-2.46a.62.62,0,0,1,.86.17l14.24,21.31a.61.61,0,0,1,.1.43l.31-.21a.45.45,0,0,1,.5.75"/><path class="cd" d="M248.39,194.75s-.44.15-.66-1-2.3-.61-2.3-.61a2.44,2.44,0,0,0-1.5,1.68L233.3,216.22s-3.74,1.66,1.21,3.88l.36,0s2.18.59,2.6.63,1.85.26,1.06-1.46l11.15-22.83s1.31-.51-1.29-1.73"/><path class="cc" d="M238.53,219.31s-.5.61-2,0l-1.94-.61,11.52-22.91s.9.21,1.08,0,1.33.89,2.49.75Z"/><polygon class="ce" points="191.35 220.51 201.49 235.6 204.88 231.19 206.23 228.76 204.66 227.8 202.15 229.55 194.59 218.34 191.35 220.51"/><path class="ce" d="M232.7,219l-7.45,15,1.19,3.29a1.25,1.25,0,0,1-.57,1.78l2-.44s.46-1.33.19-1.75l8.64-16.31Z"/><path class="ca" d="M227.7,229.44s-1.28-.72-1.59-3.41-3.21-2.85-3.21-2.85,1.59,5.11,4.8,6.26"/><path class="cb" d="M202.36,232.5a1.1,1.1,0,1,1-1.21-1,1.09,1.09,0,0,1,1.21,1"/><path class="cb" d="M222.9,223.18c-.5-1.31-5.69-3.69-5.69-3.69l-.64-2.35a1.71,1.71,0,0,0-.48-.78c-1.75-1.57-2.7.73-2.7.73l-.43,2.6c-4,1.46-4.78,3.4-4.78,3.4l15.08,5.7,4.06,1.75.38-1.1c-2.52-.95-4.29-5-4.8-6.26m-7-2.47a1.16,1.16,0,0,0-1.29.13l-.1-.88-.11-2.4a1,1,0,0,1,.22-.69c.16-.2.4-.32.67,0a1.3,1.3,0,0,1,.25.66Z"/><path class="ce" d="M215.35,222.07c-.57.14-.94-2.11-.94-2.11h0a2.56,2.56,0,0,0-1.14-2,2,2,0,0,0-2,.23,2.86,2.86,0,0,0-.64,2.39c.17,1.65-.91,1.62-.91,1.62-3.73,1.58-4.44,4-4.44,4l16.18,4.8,1.72.28,2.87,1.79,1.28-2.61a39.46,39.46,0,0,0-3.22-2.44c-3.45-2.5-8.48-6-8.74-5.94m-2,1.19s-.25-.31-1.24-.15h0l-.32-3.46s.28-.66.77-.43a.61.61,0,0,1,.32.47Z"/><path class="cf" d="M226.44,237.33l-3.15-8.67C223,227,220.6,226,220.6,226l-5.52-1.7-.92.1v0a1.76,1.76,0,0,0-3.14-.6s-5.22,1.58-6.4,2.37a5.64,5.64,0,0,0-1.77,2.06l-1.52,9s-.23.55.91,1.54l2,.81s1.35.41,1.42.78a3.1,3.1,0,0,0,2.26,1.22c.75-.09,1.73-.05,2-2.38l-4.94-1,.29-1.65a.42.42,0,0,1,.55-.33c.45.12.43-.82.43-.82l-.55-.49.54-3.48a5.29,5.29,0,0,0,1.72-.73,1.84,1.84,0,0,0,.07-2,.6.6,0,0,1,.1-.9l3.11-1.58a1.77,1.77,0,0,0,1.39.45,1.83,1.83,0,0,0,.84-.33,7.27,7.27,0,0,1,2.94,1s1.73.45,1.46.9a2.9,2.9,0,0,0-.2,1.35,2.57,2.57,0,0,0,2.34,1.67l.72,2s.82,1.8.55,2a.45.45,0,0,0-.12.52c.57,1.25.84,1.88.84,1.88l.19.92-.76.55-2.27.82-2,.55c1.37,1.64,2.51,1.07,2.51,1.07s4.41-1.85,6-2.35a1.24,1.24,0,0,0,.81-1.87m-21-8.38-.69,3.8a.61.61,0,0,1-.7.49l-.2,0a.6.6,0,0,1-.48-.7l.69-3.8a.6.6,0,0,1,.7-.48l.2,0a.6.6,0,0,1,.48.69M222,232.63l-1.77-4.16,0-.83,1.14.64a1.64,1.64,0,0,1,.6.93l1.13,2.91s0,1.38-1.12.51"/><path class="cb" d="M229.33,232.45a1.1,1.1,0,1,1-1.21-1,1.1,1.1,0,0,1,1.21,1"/><path class="cb" d="M221.46,228.92a1.4,1.4,0,1,1-2.79.32,1.4,1.4,0,0,1,2.79-.32"/><path class="cb" d="M207.28,229a1.4,1.4,0,1,1-1.56-1.23,1.4,1.4,0,0,1,1.56,1.23"/><path class="ca" d="M213,224.93a.63.63,0,1,1-.7-.56.63.63,0,0,1,.7.56"/><path class="cg" d="M220.46,229a.39.39,0,0,1-.35.44.4.4,0,0,1-.45-.35.42.42,0,0,1,.36-.45.4.4,0,0,1,.44.36"/><path class="cg" d="M228.64,232.53a.4.4,0,0,1-.36.44.39.39,0,0,1-.44-.35.4.4,0,0,1,.35-.45.41.41,0,0,1,.45.36"/><path class="cg" d="M201.67,232.58a.4.4,0,0,1-.8.09.4.4,0,1,1,.8-.09"/><path class="cg" d="M212.75,225a.35.35,0,0,1-.3.38.35.35,0,0,1-.38-.31.34.34,0,0,1,.3-.38.35.35,0,0,1,.38.31"/><path class="cg" d="M206.28,229.12a.39.39,0,0,1-.35.44.4.4,0,0,1-.45-.35.42.42,0,0,1,.36-.45.4.4,0,0,1,.44.36"/></g></g></g><path class="f" d="M246.62,211s15.46,7,2.82,18.86"/><polygon class="c" points="252.61 232.7 247.09 226.24 246.62 232.23 252.61 232.7"/><path class="f" d="M179.19,211s-15.46,7-2.82,18.86"/><polygon class="c" points="178.72 226.24 173.2 232.7 179.19 232.23 178.72 226.24"/></svg>