<?xml version="1.0" encoding="UTF-8"?>
<svg width="140px" height="91px" viewBox="0 0 140 91" version="1.1" xmlns="http://www.w3.org/2000/svg" xmlns:xlink="http://www.w3.org/1999/xlink">
    <title>Shapes</title>
    <defs></defs>
    <g id="Page-1" stroke="none" stroke-width="1" fill="none" fill-rule="evenodd">
        <g id="Desktop-Copy-42" transform="translate(-438.000000, -134.000000)">
            <g id="Group-4" transform="translate(438.000000, 134.000000)">
                <g id="Group-2">
                    <rect id="Rectangle-12-Copy" fill="#FF1351" style="mix-blend-mode: multiply;" x="33" y="0" width="62" height="62"></rect>
                    <rect id="Rectangle-12-Copy-2" fill="#00D8C1" style="mix-blend-mode: multiply;" x="63" y="29" width="62" height="62"></rect>
                    <g id="Group" transform="translate(0.000000, 24.000000)" fill="#000000" fill-rule="nonzero">
                        <path d="M7.53157227,5.42264444 L12.5076673,0.490968137 C13.0934854,-0.0896207258 14.0252553,-0.0710476043 14.5888336,0.532452365 C15.1524118,1.13595234 15.1343829,2.09584599 14.5485648,2.67643486 L9.65357441,7.5277305 L14.4884573,12.3240709 C15.0740043,12.90495 15.091585,13.8648525 14.527725,14.4680731 C13.9638649,15.0712937 13.0320865,15.0894051 12.4465396,14.508526 L7.53058955,9.63176471 L2.54139538,14.5764233 C1.95557726,15.1570121 1.02380737,15.138439 0.460229093,14.534939 C-0.10334919,13.9314391 -0.085320239,12.9715454 0.500497881,12.3909565 L5.40858741,7.52667866 L0.450925005,2.60853755 C-0.134621941,2.02765844 -0.152202666,1.06775596 0.411657355,0.464535352 C0.975517377,-0.138685258 1.90729583,-0.156796626 2.49284277,0.424082481 L7.53157227,5.42264444 Z" id="Combined-Shape"></path>
                    </g>
                    <circle id="Oval" fill="#000000" cx="118.5" cy="6.5" r="6.5"></circle>
                    <path d="M36,78.5887046 C38.7085144,73.9771389 41.3366641,73.9771389 43.8844492,78.5887046 C46.4322342,83.2002703 48.9707511,83.7140455 51.5,80.1300303 C54.6490274,76.7715057 56.8935788,77.4814722 58.233654,82.2599297 C59.5737292,87.0383871 62.4958445,85.8500706 67,78.69498" id="Path-3-Copy" stroke="#282828" stroke-width="3" stroke-linecap="round" transform="translate(51.500000, 80.130030) rotate(-24.000000) translate(-51.500000, -80.130030) "></path>
                </g>
                <path d="M113.994576,59.5 L137.042419,59.5" id="Line-3" stroke="#000000" stroke-width="4" stroke-linecap="round"></path>
            </g>
        </g>
    </g>
</svg>
