<svg xmlns="http://www.w3.org/2000/svg" xmlns:xlink="http://www.w3.org/1999/xlink" viewBox="0 0 711.34 989.58"><defs><style>.a{fill:none;}.b{clip-path:url(#a);}.c{fill:#67c6e7;}.d{fill:#ef5434;}.e{fill:#eedb37;}.f{fill:#fff;}.g{fill:#85d0f0;}</style><clipPath id="a"><rect class="a" x="60.57" y="71.6" width="590.19" height="859.38"/></clipPath></defs><title>spiccoli</title><g class="b"><path d="M47.77,823l44-41s11-5.88,18-3.94,32.89-24.4,32.89-24.4S232.8,667,307.28,682L599,601s72.77,25.06,75.77,57.51,8,287.46,8,287.46l-635,7Z"/><path class="c" d="M223.45,473.79s-5.36,11.69-17,9.7c0,0,4.5,22.5-.36,30,0,0,14.58-4.69,12.61,23.65s-21,30.26,24.53,83.35c0,0,37.52,24.56,4.51,82.78,0,0-19.83,23.22-33.67,20.72,0,0-10.07-5.63-10.21.18,0,0-18.36,2.82,0,8.82a49.54,49.54,0,0,1-36.3,7.5s-23.33-1.45-15.33,7c0,0,2,3.48,8.5,4.48,0,0-48,11-65-23.5,0,0-13-35,8-56.5,0,0,6.83-3.5,10.66-9.75,0,0-22.66.25-17.66-27.75,0,0,11-13,10-25.23,0,0-6-23.27-12-20.27,0,0-6,4.5,7-23.5,0,0,10-27.77,9-39.14,0,0,1.25-9.61,0-15.55,0,0-6.5-4.81-5.5-8.81,0,0,7.5-12.65,1-14.08,0,0-5-.42-5,3.58,0,0-5-17.66,1-26.33,0,0,8-20.84,4.5-33.51,0,0-6.5-33.53,14-52.1,0,0-2.5-5.06-10-2.06,0,0-4.25-13,6.5-15.75A30.58,30.58,0,0,1,107,355s13.73-5.3,26.75-4.76c0,0,2.5-8.74,5.5-4.24,0,0-7.19-7.17-9.25-13-1.08-3-13.75-50.5-5.75-86.5,0,0,25.5-64,45-78.5,0,0,48.87-39.46,64.5-46.17,0,0-14.67,4.67-20.34,6.67,0,0,13.34-8.84,20.84-10.17s-2.84-2-2.84-2-19.7-3.83-45.93,26.17c0,0,24.27-47.31,89.77-37.66,0,0,7.08-3.65,12.29,0,0,0-11.79-9.34-25.29-10.34,0,0,6.62-8,22.83.83,0,0,15-2,16.67,1,0,0-4-18.95-11-21.83,0,0,40.5-24.73,92-17.12,0,0,83,8.95,106,45.28,0,0-4.88,1.69-14.16-2.66,0,0,25.16,13.5,30.16,32.5,0,0,23.44,46,30.47,53,0,0-18.34-24-23.66-26,0,0,0,21.5,9.58,34.5,0,0,14.47,4.89,21.47,40.17,0,0-2.53,8.16,10.39,3.05,0,0-5.92,12.78,4.08,13.11,0,0-8.15,13,1.47,12.72,0,0,8.7.45,7.7-9.55,0,0,7.5,28.5,24,29,0,0-9.33,2.86-12.5,2.16,0,0-8,11.61-1.75,14.72s1.25.67,1.25.67A32.48,32.48,0,0,1,548,300s21.78,20,42.28,16.22c0,0-5.5,8-17,5a20.85,20.85,0,0,0,14.82,10.92s-8.07,13.08,2.18,22.08c0,0-9.17,17.08,13.16,21.5,0,0-2.66,15.62,3.34,21.1,0,0-7.34-2.17-3.34,9,0,0,12.67,16.2,14.67,35.35,0,0-3.33,31,18.67,46.73l6,4.41s-8,3.33-11,1.33,12.8,11.67,18,12.34c0,0-10.67,4.33-15.67,2,0,0,1.67,12.33,9,19.33,0,0-13,1.67-14.67-2,0,0,8,10.67,19,16.67,0,0-8.33,1-12.66-2.34,0,0,9.8,13.34,15,15.34,0,0-8.67-2.67-13-5.34,0,0,25.33,23,36.33,26.67s24.67,71.33,24.67,71.33-27.2.34-35-7.33-29.67-24.33-38-22.67-20.67-8.47-21-11.07-2.67,5.56,1.66,9.48c0,0-10-7.41-13-4.74,0,0-13.33,4-3.33,9.67,0,0-15.33,2-9.33,7,0,0,3,8.33-7,6,0,0-16.3,20.25-67.49-2.71L292.1,606.58,229.66,487.91Z"/><path class="d" d="M199.09,494.26l13,30.27,2,57.45,35.66,105.34s30-9,43.31-5.71L222.52,432.49Z"/><path class="e" d="M501.06,288.37c.74.5,20,13.31,39.07,10a.67.67,0,0,1,.72.37c.93,1.87,5.17,9.44,18.92,22.54,0,0,19.7,17.32,19.5,27.19a.63.63,0,0,1-.13.39c-1.17,1.62-9.93,14.84,3.57,30.67a.94.94,0,0,1,.09.12c.62,1.25,10,20.27,2.26,26a.65.65,0,0,1-.63.09c-2.39-.82-16.66-6.17-16.66-16.47,0,0,9.5,27.75,0,26.25-9.3-1.47-34.55-14.2-35.78,3.68a.68.68,0,0,1-1,.52l-20.57-13.63a.67.67,0,0,1-.3-.65c.73-5.75,8.28-70.37-15-120.19a.68.68,0,0,1,1-.83l4.9,3.95Z"/><path class="e" d="M283.43,143.65s-55.64,5.21-67.11,81.59c0,0,13.11-33.59,18.45-36.25,0,0-5.34,42.66-8,52.66,0,0,6.33-20,13.66-30,0,0-2.2,35.55-4.37,45,0,0,13-79,81.82-106.88C317.88,149.76,336.43,134,283.43,143.65Z"/><path class="e" d="M357.77,386.36s20.25-14.87,24-14.12c0,0,21.56,5.5,20.53,19.75v9.25s-29.87,16.59-52.2-13.33C350.1,387.91,353.27,392,357.77,386.36Z"/><path class="c" d="M496.52,511.74,508.1,624.32s-58,157.33-178,153.67L240.27,510.8S387.6,638.49,496.52,511.74Z"/><path class="e" d="M402.77,302.81s10.08-42.57,44.16-33.32c0,0,42.69,5.5,35.76,45,0,0,6.08,8.08,11.08,8.16,0,0-18.5,1.84-24-7.16,0,0-15.34-58-57.67-5.5C412.1,310,399.77,311.52,402.77,302.81Z"/><path class="e" d="M265,287.74s40.1-19.15,51.75,0c0,0,17.75,24.08,24,25.91,0,0,22.25,7.92,26-9.12,0,0-4-31.54-9-34.54,0,0,2.25-11.25-16.5-10.25l-11.17-.09s-48.17-13.66-72,10.84S265,287.74,265,287.74Z"/><path class="c" d="M426.77,567.65s-120,3.34-164-26.66c0,0-102.67-143.94-30.67-246.95,20.48-44.64,8.17-121,118.66-142.94,0,0,108.76-26.95,156.88,160.47,0,0,15.13,148.42-13.87,204.42C493.77,516,464.77,561.32,426.77,567.65Z"/><path class="c" d="M277.43,320.32s34.67-36,52.67-2Z"/><path class="e" d="M299.1,306.65s3,21.67,26,6.67C325.1,313.32,323.77,299.32,299.1,306.65Z"/><path class="d" d="M277.77,317.32s31-38,61.33,0h-9.67s-6.66-8.56-10.33-8.45c0,0-8,11.45-10.67-1.22,0,0-3.66-7.33-26.33,11.67Z"/><circle class="f" cx="316.77" cy="309.99" r="3.67"/><path class="c" d="M415.1,309.87s35-36.72,51,1.7Z"/><ellipse class="e" cx="446.93" cy="301.83" rx="11.5" ry="10.18"/><path class="d" d="M412.1,310s38.67-47,57.67,3.66l-9-1.64s-2-8.87-4.67-10.11c0,0-2.67,5.42-7.33,4.42s-6.34-3.67-7.84-8c0,0-2.5-6.67-23.83,11.67Z"/><circle class="f" cx="448.77" cy="303.71" r="3.67"/><path class="d" d="M337.77,307.38s11.66,2,9-2.85S331.43,285,305.1,290c0,0-27,5.66-38,32.66C267.1,322.65,312.77,269.43,337.77,307.38Z"/><path class="d" d="M478.43,312S476,271.4,427.28,280.07a69.33,69.33,0,0,0-18.85,15.49s14-12.47,36.67-9.57c0,0,15.12-4.67,27.34,24,.22.51.44,1,.66,1.58Z"/><path class="d" d="M344.43,277,330.1,259.65s-52.33-9.66-72,25c0,0,45.33-20.66,58.67-8.33Z"/><path class="d" d="M404.77,274.32l12-21.67,35.66-1.33s20,3.67,26,16.33c0,0-27.22-12.3-41.66,1.34C436.77,269,413.77,276.65,404.77,274.32Z"/><path class="d" d="M495,281.49s15.25,13,21,14.5c0,0,2.5,13.25,6.75,19,0,0-7,1.91-13.88-4.42C508.89,310.57,500.77,285.49,495,281.49Z"/><path class="d" d="M521.52,298.24h19.12s15.47,21.15,19.13,23c0,0-15.5,2.5-3.5,13.5l.25,5.25s-16-15.25-23-11.75c0,0,.5-4,2.25-4s-7.5-8-7.5-8,5.25-1.23,9,0-15.75-16.89-15.75-16.89"/><path class="d" d="M532.27,406.24s1.12,35-8.69,42.5c0,0-12.81-4.75-13.56-13l1.38-46.25s9.7,13.16,10,24.83C521.43,414.32,530.52,412.74,532.27,406.24Z"/><path class="e" d="M187.77,164.32s-57,35.89-60.34,114.78c0,0,21.34-52.78,35.34-61.78C162.77,217.32,173.1,178,187.77,164.32Z"/><path class="e" d="M224.1,147.65S141.43,201.32,193,330.19l23.4,4.95s-13.34-46.06-26-64.61c0,0-8.66-84.21,40-117.21,0,0,15.34-10.58,31.84-11.33,0,0-6.5-7.21-23.25-1.75Z"/><path class="e" d="M213.43,149.32s35.34-21,43-23c0,0-15.33-.33-25.33,4,0,0,12.67-11.67,19.33-11.33s3.34-2.67-7.33-6.34c0,0,39.24-5.87,63.33,9,0,0,24.67-4.66,25,21,0,0-34.17-14.25-59.33-4.88a24.92,24.92,0,0,1,16.33-7.36C299.1,129.65,241.39,131.94,213.43,149.32Z"/><path class="e" d="M319.21,122.67S363.77,77,376.1,80s50,12,79.33,40.33c0,0-3.33,13.33-14.66,14.67,0,0,46.66,16,53,36,0,0-9.34-11-19.67-13.34,0,0,14.33,16.35,14.67,25.51,0,0-9-10.51-15.67-17.84,0,0,13,23,11.33,32.67,0,0-37-48.34-41-46.34s-118-21.24-118-21.24l-7.55-8.16"/><path class="d" d="M255.43,206s10.67-19.67,20-20c0,0,133.34-118.9,206.67,77.05,0,0,11.83-136.55-70-123.55l-11.67-.88s15.34-10.62,25-9.29c0,0-7.33-6.33-11.33-5.67,0,0,11-6.33,15-3.66,0,0-13.33-4-21-.66,0,0-20.33,10.32-26.33,9.32,0,0,.33-10.66,7-12.33,0,0-1.67-6-11-4.67,0,0-2-6.66.66-8.33,0,0-45-2-51.33,24.33,0,0,5.33,11.67,4.33,15,0,0-14.33-12-33.33-5.66,0,0,12,1.33,16,5.66,0,0-19,4.34-21,7,0,0,17.67-.33,18,2.34,0,0-19.33,3.66-22.67,6.66,0,0-4.66-8.66-16.33-6.66,0,0-28.33,15.33-29,33,0,0,14-23.34,23.33-23.34,0,0-11.33,10.69-14.33,21.51,0,0,13.33-16.51,18-14.51,0,0-21,22.67-23.33,34,0,0,16.66-24.33,22.33-24.33C269.1,178.32,255.1,198.32,255.43,206Z"/><path class="e" d="M258.1,571s56.33,200,72,207c0,0,4-24.34,17.33-25,0,0,23,3.33,18.84-11.34l-8.5-51.33s-2.1-7.83-9-23.33a101.07,101.07,0,0,0-2-17.34s34,2.67-4.67-24.66c0,0-22-21.26-13.33-24l-83.34-77.49Z"/><path class="d" d="M350.1,458.32s51.67-43,91-6C441.1,452.32,377.1,467,350.1,458.32Z"/><path class="f" d="M424.91,442.66l-4.48,6.08s-7,1-9.33.44v3.14l-47.67,1.33,8.34-12.32S415.91,434.33,424.91,442.66Z"/><path class="e" d="M338.1,454.32S354,440,364.84,434.05a13.49,13.49,0,0,1,9.63-1.25c6.7,1.64,23,3.93,53-1.15,0,0,15-.06,21.34,19,0,0-5,5.11-7.67,3.7,0,0-15-13.67-20.67-12.67s-29-.09-40.5.12c0,0-27.87,13.38-27.18,17.3C352.75,459.07,337.77,459,338.1,454.32Z"/><path class="e" d="M357.77,466.65s38.33,26,78.33-3.33c0,0,15.33-2.33-4.33,10.67,0,0-11,14-75.67,11.66C356.1,485.65,325.77,468,357.77,466.65Z"/><path class="e" d="M424.91,361.24s30.19,24,33.52,34.5L454,411.49S431.06,387.74,424.91,361.24Z"/><path class="d" d="M363.43,393.65s16.33-12.66,30,2C393.43,395.65,375.1,404.65,363.43,393.65Z"/><path class="e" d="M415.1,315.49s33.47,11.65,48.67,8.83c0,0,7.76,4.21,10.66.44S444.77,349,415.1,315.49Z"/><path class="e" d="M316.77,332.16s25.33-6.17,27.66-9.51,13-1.75,16.67-4-10.8,30-10.8,30,3.13-9,0-18.33c0,0-9.87,11.67-18.53,14.67a44.1,44.1,0,0,0,7.46-11.42C342.1,327,333.77,337.66,316.77,332.16Z"/><path class="e" d="M408.43,558.69s-39-3-30-30.37c0,0,11.34-7.33,17.17,0,0,0-6.33-18.33-26.33-12.83,0,0-75.77-6.5-62.14-92.5,0,0,3.3-24.5,11-31,0,0-54.83,6.75-56.33-5.63,0,0-6.84-15.87,5.33-25.12,0,0-7.33-12.75-26.83,5.25,0,0,5.66-23.67,17.83-27.84,0,0-13.17-27.78,0-38.22,0,0-16.58-1.86-14.58-8.78,0,0-5.25-10.82-6,40.51,0,0-16.57,23.66-27.66,16.49,0,0-19.43,40,30.41,162.15C240.27,510.8,346.43,582.65,408.43,558.69Z"/><path class="d" d="M219.39,447.86S232.77,512,328.16,549.32c0,0,27,12.69,32.84,13.38,0,0-70.56-6.84-120.73-51.9,0,0-27.63-57.71-25.63-63C214.64,447.79,211.77,432.86,219.39,447.86Z"/><circle class="f" cx="389.3" cy="539.48" r="15.95"/><circle class="f" cx="421.47" cy="526.35" r="10.79"/><circle class="f" cx="408.43" cy="369.86" r="5.38"/><path class="e" d="M239.77,282.49s6.39-102.5,67.36-113.17c0,0,33.76-4.33,40,2.67,0,0-48.39,6.66-58.06,31,0,0,31.33-8.34,36-.34,0,0-37,16.34-33.67,28,0,0,9.67,17.67,23,20.67,0,0-56.33-7-68.33,29.67Z"/><path class="e" d="M492.27,515.49s-43.5,94.5-137.5,91c0,0-36-6-54-23,0,0-55.5-46.37-60.5-72.69C240.27,510.8,389.27,628,492.27,515.49Z"/><path class="d" d="M323,560.93s50.74,19.06,103.74,6.72c0,0-12,34.67-69,33.34,0,0-29-4.67-39.67-27.34,0,0,12.67.67,18-1.33S326.36,567.6,323,560.93Z"/><path class="d" d="M327.77,415.49s-8.21-24.25,19.39-45.63c0,0-11,23.38-9.07,33.88Z"/><path class="d" d="M350.1,387.91s8.87,14.58,17.77,20.95a13.37,13.37,0,0,0,8.61,2.48c7.41-.45,24.28-2.32,25.82-10.1,0,0-21.78,4.25-27.53,2.75S360.68,399.07,350.1,387.91Z"/><path class="e" d="M368.52,315.49l9.91,51.75s-24.19,12.91-24.66,17.5S358.27,326.24,368.52,315.49Z"/><path class="e" d="M398.1,311.57s20.33,17.75,23.33,30.42c0,0-1,14.83,0,19.25S398.43,320.15,398.1,311.57Z"/><path class="e" d="M406,389.24s20.53-11.25,21.76-9.5c0,0,9.15,12.25-12.68,23C415.1,402.74,403.27,399,406,389.24Z"/><path class="d" d="M412.1,389.86s25.67-20.15,11.33,4C423.43,393.85,430.43,380.39,412.1,389.86Z"/><path class="e" d="M160.77,225.24s-1.5,72.5,18.25,96.5l-27,25s-21.92.56-24.59-56.6C127.43,290.14,154.77,234.83,160.77,225.24Z"/><path class="e" d="M113.52,355.74s52.75-3,72-5.51c18.59-2.42,0,29.32,0,29.32s-50-11.31-73.23-6.31c0,0-1.5-9.63,15.16-8.75C133.44,364.8,113.27,357.49,113.52,355.74Z"/><path class="e" d="M132.77,380.49s-29,28.75-2.67,75.5c0,0,19,16.33-12.67,42.66,0,0,8.34-2,11-4.33,0,0-2,12-11,16.48,0,0,2,5.61-3,12.73,0,0,5.34,3.46,31.34-40.88,0,0,2.66-20.71-11.34-45.35,0,0-6-27.61,1.34-40.46l5.66-14.19S129.12,392.85,129,396,130,390.1,132.77,380.49Z"/><path class="e" d="M223.45,473.79s-12.24,10.7-17,9.7c0,0,4.5,23-.36,30,0,0,22.5-6.31,7.82,50.09,0,0,1.32,32.91,29.32,56.91,0,0,35.5,29.5,6,73l-9,7s8.58-30-6.71-53c0,0-17.18-29.5-17.24-35,0,0,7.2-.75,9.45,3.25,0,0-22.28-26.75-19.64-39,0,0,7.14-41.75,1.89-44.5,0,0-11.25-2.75-13.75,20,0,0-3.75-24,2-31,0,0,5.75-27,1-35.75,0,0-19.25-30.75-15.75-42.25l-.43-19s-9.82,27.1-.82,63.67c0,0-9.5,11.1-8,17.34,0,0-7.25-9-.16-17.34,0,0-1.59-12.92-3.59-4.17,0,0-7.25,18.25-13.5,25s-15.75,14.79-15.75,14.79,29.75-36.2,28.75-47c0,0-1-45.62-12.25-38,0,0-14.92-34.92-4.69-47.09,0,0,15.19,12.75,12.94,27.75,0,0-5.75-32.16,5.25-31.33s37.22,19.33,37.22,19.33Z"/><path class="d" d="M152.74,374.84s11.65-.85,14.29-2.56c0,0-3.35-1.28-11.73-4.15,0,0,17.54-7.62,22.82-11.37,0,0-4.66.74-16.34.27a46.83,46.83,0,0,0,9.24-5.82,58.36,58.36,0,0,1-7.73-4.21s13.79-12.89,19-19.31c0,0,8.47,8.2,17-2.27l-1.45-7,10.4,3.87s4.16,9.6,8.21,12.87c0,0-12.48,12-8.49,52.23,0,0,5.79,49.16,10.31,60.76,0,0-11.29,2.85-13.1,14.88,0,0-1.38-3.41-8.52-11.58,0,0,.25,15.38,3,20.67s-3.29,2.38-3.29,2.38-15.73-24.41-8.08-66.87c0,0-4.66.74-6.55,7.43,0,0-.47-8.32-.53-12.32,0,0-6-1.9-8.29,2.47,0,0-2.12-7.3.82-10.69,0,0-5.71-2.9-8.65.81,0,0-2.08-5-7.34-.55s-1-1.69-1-1.69,11.22-6.71,10.84-9.92C167.54,383.15,158.78,377.41,152.74,374.84Z"/><path class="e" d="M141.77,747.49s-22-20.5-7.5-47c0,0-4.5-12-1-18.5,0,0-21,2-23.5,41.5C109.77,723.49,135.27,748.49,141.77,747.49Z"/><path class="d" d="M193.27,682s21.44-22.5,13.22-58c0,0,19.78,31,19.28,65,0,0-7,7-9-3,0,0-10.56,4.5-10.28,14.5,0,0-3.47-14.25-1-16.25,0,0-8.5,10.75-10.25,14.75,0,0,6.5-15.25,7.25-20.75,0,0-13,13-13.25,18.75Z"/><path class="e" d="M179.27,606.58s37.5,34.91,0,73.41c0,0-11,9.5-8.5,20.5,0,0-9-7-9-14,0,0-9.5,2,5,24,0,0-22.5-3.5-27.5-31C139.27,679.49,190.27,670.68,179.27,606.58Z"/><path class="e" d="M152.74,520.49s-20.72,11.25-22.54,32c0,0-3.43,24,4.07,33.5,0,0,12.5-1.75,5,23.75,0,0,10.25-12.25,12,.5,0,0,18.25-16.75,1.47-46.66,0,0-26,2.84,0-40.05"/><path class="e" d="M185.5,567.76s-3,32.77,14.62,56.23c0,0,5.65,19,3.15,26.77,0,0-7.84-31.7-21.5-49.74C181.77,601,165.56,579.21,185.5,567.76Z"/><path class="d" d="M508.45,322.16a132.24,132.24,0,0,0,26.37,18.06s-8.12,5.43-13.18,3.43c0,0,6.94,12.05,15.44,18.78,0,0-9.42,5.48-4,11.1,0,0-15-8.88-21.64,9.13C511.48,382.66,510,342.31,508.45,322.16Z"/><path class="e" d="M510.65,431.65s18.19,4.65,21.65-4.51c0,0,.47,28.44,11,49.4,0,0,7.49,20.09-9.26,41.45,0,0-31.69,68.5-6.22,106,0,0,17.48,17.5,27,18,0,0-27,10.59-49.49-10.71,0,0-8.22-71.91-4.62-75.85,0,0,27.59-49.94,26.6-57.94s-20.6-37.5-20.6-37.5S510.53,437.32,510.65,431.65Z"/><path class="d" d="M506.66,460s-4.25,43.25-11.5,50.75c0,0,6.61,41.25,4.8,60.54,0,0,10.45-24.79,23.45-40.54,0,0,17.25-16.5,7.75-41.75,0,0-12-12.25-9-23,0,0-.5-14,1.5-16s-8.4,4.5-9.08,12C514.58,462,508.41,458.74,506.66,460Z"/><path class="e" d="M552.1,487.91s15.33,24.73-6,51.57c0,0-25,38.91-5.17,61.54,0,0,9.17,18,31.84,14.63,0,0-37.34-19.78-26-47.89,0,0,22.66-32.77,21.33-47.44C568.1,520.32,572.1,498.84,552.1,487.91Z"/><path class="e" d="M316.77,111.51s2-12.52,8.33-17.19c0,0-2.33-18.1-13-22.72,0,0,24-23.28,59.66-10.28,0,0,20.34,14.05,26.34,18.52s-30.73-12.19-44.37-4.19-27.11,27.63-27.11,27.63l-9.85,15Z"/><path class="e" d="M502.77,198s-.92,30.11,4.87,39.22c0,0-7.2,18.06-4.93,25.83,0,0-4.53-23.15-9.94-25.05-10.31-3.63,10-30.69-6-36a14.81,14.81,0,0,0,7-14.34S492.1,187.65,502.77,198Z"/><path class="f" d="M378.43,61.32S460,68.65,480.1,98.65c0,0-34.67-20.61-44.67-18.81,0,0,41.31,16.48,53.32,38.48,0,0-33.5-22-47.08-24.67C441.67,93.65,398.76,59,378.43,61.32Z"/><path class="f" d="M458.43,114.32s35.34,40,35.34,56.67c0,0,21.54,18,33.27,16.66,0,0-13.86-4.66-19.4-16.66,0,0-7.79-11.34,0-6.67,1.11,1.89,40.86,37.86,28.63,23.33,0,0-17.53-38.44-36.52-50.88C499.75,136.77,473.43,110.32,458.43,114.32Z"/><path class="f" d="M518.81,268.32s41.4,25.57,48-4.73c0,0,13.13,29.94-13.24,37.56C553.6,301.15,530.74,289.67,518.81,268.32Z"/><path class="f" d="M559.77,427.14S550.77,453,582.1,481c0,0,44,23.74,6,63.2,0,0-18.85,34.8,24,52.8,0,0-7.36-16.81-6.33-26,0,0,12.33-17.34,20.33,4.66,0,0-9.33-38,13.33-5.66,0,0-5.33-28-28-30.51,0,0,8.67-34.49-3.33-48.49,0,0-39.33-28.67-41.33-59.34C566.77,431.65,561.77,442,559.77,427.14Z"/><path class="f" d="M518.1,237.21s21.84,23.51,34.92,18.64c0,0-11.88,14.24-31.07,2.56C522,258.41,515.43,243.43,518.1,237.21Z"/><path class="f" d="M593.43,449.62s17.34,21.37,28.67,22.7c0,0,5.33,12.52,14.67,15.59a41.17,41.17,0,0,1-31.34-11.37C591.43,463,593.43,449.62,593.43,449.62Z"/><path class="f" d="M314.1,121.51s-16.67,2.31-21-5.77c0,0,7.91-13.42-5.54-17.42,0,0,11.87-3.4,16.21,5s5-7.91,0-15.43C303.77,87.85,322.53,107.68,314.1,121.51Z"/></g><polygon points="652.52 932.74 58.82 932.74 58.82 69.85 614.34 69.85 614.34 73.35 62.32 73.35 62.32 929.24 649.02 929.24 649.02 54.44 652.52 54.44 652.52 932.74"/><path d="M650.77,38.6c2.76,7.45,7.48,16.7,12.48,22.44l-12.48-4.52L638.28,61C643.28,55.3,648,46.05,650.77,38.6Z"/><circle class="d" cx="531.27" cy="389.49" r="8.5"/><circle class="g" cx="348.3" cy="665.98" r="15.95"/></svg>