<svg xmlns="http://www.w3.org/2000/svg" viewBox="0 0 888.44 530.93"><defs><style>.a{opacity:0.5;}.b{fill:#3fc6e6;}</style></defs><title>Artboard 1 copy 2</title><g class="a"><path class="b" d="M.42,88V46.89A44.58,44.58,0,0,1,3,30.22a43.16,43.16,0,0,1,7.92-13.7A44,44,0,0,1,38.58,1.74V19.47q-10.21,3.5-14,10.35T20.84,46.61H38.58V88Zm57.24,0V46.89a44.38,44.38,0,0,1,2.56-16.67,43.35,43.35,0,0,1,7.92-13.7A44,44,0,0,1,95.82,1.74V19.47q-10.21,3.5-14,10.35T78.08,46.61H95.82V88Z"/></g><path d="M71,102.63l-6-24.3h-.1l-6,24.3h-8l-9.45-35.7h7.85L55,91.23h.1l6.2-24.3h7.35l6.1,24.6h.1l5.85-24.6h7.7l-9.6,35.7Z"/><path d="M98.31,66.93V80.38h.15a8.19,8.19,0,0,1,3.45-3.27,9.21,9.21,0,0,1,4.1-1,12,12,0,0,1,4.67.78A6.84,6.84,0,0,1,113.56,79,8.21,8.21,0,0,1,115,82.36a21,21,0,0,1,.43,4.37v15.9h-7.1V88a9.11,9.11,0,0,0-1-4.77,3.88,3.88,0,0,0-3.55-1.58,4.9,4.9,0,0,0-4.2,1.73q-1.31,1.73-1.3,5.67v13.55h-7.1V66.93Z"/><path d="M128.46,96.43a7.29,7.29,0,0,0,8.3.48,4.53,4.53,0,0,0,1.9-2.28h6.25a11.88,11.88,0,0,1-4.6,6.65,13.58,13.58,0,0,1-7.5,2,14.73,14.73,0,0,1-5.5-1,11.36,11.36,0,0,1-4.15-2.78,12.42,12.42,0,0,1-2.63-4.3,15.68,15.68,0,0,1-.92-5.5,15,15,0,0,1,1-5.4,12.55,12.55,0,0,1,6.87-7.2,13.41,13.41,0,0,1,5.38-1,12.31,12.31,0,0,1,5.75,1.28,11.51,11.51,0,0,1,4,3.42,14.14,14.14,0,0,1,2.28,4.9,18.54,18.54,0,0,1,.5,5.75H126.71Q126.86,94.88,128.46,96.43Zm8-13.6a5,5,0,0,0-3.87-1.4,6.09,6.09,0,0,0-2.83.58,5.29,5.29,0,0,0-1.8,1.42,5.22,5.22,0,0,0-1,1.8,8.07,8.07,0,0,0-.32,1.7h11.55A8.25,8.25,0,0,0,136.48,82.83Z"/><path d="M156.31,76.78v3.6h.15a8.08,8.08,0,0,1,3.5-3.27,10,10,0,0,1,4.4-1,12,12,0,0,1,4.67.78A6.84,6.84,0,0,1,171.91,79a8.21,8.21,0,0,1,1.47,3.35,21,21,0,0,1,.43,4.37v15.9h-7.1V88a9.11,9.11,0,0,0-1-4.77,3.88,3.88,0,0,0-3.55-1.58,4.9,4.9,0,0,0-4.2,1.73q-1.31,1.73-1.3,5.67v13.55h-7.1V76.78Z"/><path d="M192.8,84.73a8.27,8.27,0,0,1,1.25-4.15,8.58,8.58,0,0,1,2.81-2.65,12,12,0,0,1,3.82-1.42,21.28,21.28,0,0,1,4.28-.43,27.89,27.89,0,0,1,3.94.28,11.94,11.94,0,0,1,3.65,1.07,7.17,7.17,0,0,1,2.7,2.23,6.13,6.13,0,0,1,1.05,3.77V96.88a27.67,27.67,0,0,0,.2,3.35,6,6,0,0,0,.71,2.4H210a10.43,10.43,0,0,1-.32-1.22c-.08-.42-.14-.85-.18-1.28a9.19,9.19,0,0,1-4,2.45,15.93,15.93,0,0,1-4.7.7,12.61,12.61,0,0,1-3.44-.45,8.06,8.06,0,0,1-2.81-1.4,6.45,6.45,0,0,1-1.87-2.4,8.13,8.13,0,0,1-.68-3.45,7.47,7.47,0,0,1,.78-3.62,6.53,6.53,0,0,1,2-2.28,8.84,8.84,0,0,1,2.8-1.27,29.36,29.36,0,0,1,3.17-.68c1.07-.17,2.12-.3,3.15-.4a18.57,18.57,0,0,0,2.75-.45,4.73,4.73,0,0,0,1.9-.87,2,2,0,0,0,.66-1.68,3.73,3.73,0,0,0-.38-1.82,2.73,2.73,0,0,0-1-1.05,3.9,3.9,0,0,0-1.45-.5,11,11,0,0,0-1.77-.13,5.44,5.44,0,0,0-3.31.9,4,4,0,0,0-1.4,3ZM209.21,90a3.25,3.25,0,0,1-1.13.63,11.36,11.36,0,0,1-1.45.37c-.52.1-1.06.18-1.63.25s-1.13.15-1.7.25a12.46,12.46,0,0,0-1.57.4,4.5,4.5,0,0,0-1.35.68,3.18,3.18,0,0,0-.92,1.07,3.36,3.36,0,0,0-.35,1.65,3.26,3.26,0,0,0,.35,1.6,2.67,2.67,0,0,0,.94,1,4,4,0,0,0,1.4.52,9.07,9.07,0,0,0,1.66.15,6.25,6.25,0,0,0,3.25-.7,4.66,4.66,0,0,0,1.69-1.67,5.25,5.25,0,0,0,.68-2,14.61,14.61,0,0,0,.13-1.6Z"/><path d="M248.05,81.43a4.92,4.92,0,0,0-2.84.78,6,6,0,0,0-1.88,2,8.6,8.6,0,0,0-1,2.7,14.55,14.55,0,0,0-.3,2.92,14.09,14.09,0,0,0,.3,2.85,8.89,8.89,0,0,0,1,2.63,5.66,5.66,0,0,0,1.82,1.92,5,5,0,0,0,2.8.75,5.22,5.22,0,0,0,3.93-1.42,6.71,6.71,0,0,0,1.72-3.83h6.85a11.69,11.69,0,0,1-4,7.85,12.87,12.87,0,0,1-8.44,2.7,14.16,14.16,0,0,1-5.33-1,11.82,11.82,0,0,1-4.13-2.73,12.65,12.65,0,0,1-2.65-4.17,14.6,14.6,0,0,1-.95-5.33,17.25,17.25,0,0,1,.88-5.57,12.5,12.5,0,0,1,2.57-4.45,11.89,11.89,0,0,1,4.15-2.93,14.12,14.12,0,0,1,5.6-1,16.23,16.23,0,0,1,4.43.6,11.75,11.75,0,0,1,3.8,1.83,9.45,9.45,0,0,1,3.92,7.37H253.3Q252.61,81.43,248.05,81.43Z"/><path d="M271.5,66.93V80.38h.15a8.19,8.19,0,0,1,3.45-3.27,9.24,9.24,0,0,1,4.1-1,12,12,0,0,1,4.68.78A6.81,6.81,0,0,1,286.75,79a8.22,8.22,0,0,1,1.48,3.35,21,21,0,0,1,.42,4.37v15.9h-7.1V88a9,9,0,0,0-1-4.77A3.87,3.87,0,0,0,277,81.68a4.93,4.93,0,0,0-4.2,1.73c-.86,1.15-1.3,3-1.3,5.67v13.55h-7.1V66.93Z"/><path d="M294.25,72.78V66.93h7.1v5.85Zm7.1,4v25.85h-7.1V76.78Z"/><path d="M314.25,66.93v35.7h-7.1V66.93Z"/><path d="M338.2,99.33a7.33,7.33,0,0,1-3.27,3,12,12,0,0,1-9.68-.2,10.31,10.31,0,0,1-3.62-3,13.83,13.83,0,0,1-2.15-4.43,18.35,18.35,0,0,1-.73-5.2,17.17,17.17,0,0,1,.73-5,13,13,0,0,1,2.15-4.28,10.45,10.45,0,0,1,8.57-4.1,10.16,10.16,0,0,1,4.38,1,7.59,7.59,0,0,1,3.27,2.87h.1v-13h7.1v35.7H338.3v-3.3Zm-.3-12.77a7.52,7.52,0,0,0-1-2.6A5.87,5.87,0,0,0,335,82.13a5.44,5.44,0,0,0-2.9-.7,5.75,5.75,0,0,0-3,.7A5.49,5.49,0,0,0,327.23,84a7.88,7.88,0,0,0-1.05,2.63,14,14,0,0,0-.33,3.07,13.35,13.35,0,0,0,.35,3,8.36,8.36,0,0,0,1.13,2.68,6.21,6.21,0,0,0,1.95,1.9,5.28,5.28,0,0,0,2.82.72,5.63,5.63,0,0,0,2.93-.7,5.32,5.32,0,0,0,1.87-1.87,8.41,8.41,0,0,0,1-2.68,15.75,15.75,0,0,0,.3-3.1A15.3,15.3,0,0,0,337.9,86.56Z"/><path d="M371.9,96.43a7.29,7.29,0,0,0,8.3.48,4.43,4.43,0,0,0,1.9-2.28h6.25a11.84,11.84,0,0,1-4.6,6.65,13.54,13.54,0,0,1-7.5,2,14.8,14.8,0,0,1-5.5-1,11.53,11.53,0,0,1-4.15-2.78,12.4,12.4,0,0,1-2.62-4.3,15.68,15.68,0,0,1-.93-5.5,15.18,15.18,0,0,1,.95-5.4,12.52,12.52,0,0,1,6.88-7.2,13.36,13.36,0,0,1,5.37-1A12.28,12.28,0,0,1,382,77.36a11.46,11.46,0,0,1,4,3.42,14,14,0,0,1,2.27,4.9,18,18,0,0,1,.5,5.75H370.15C370.25,93.73,370.84,95.4,371.9,96.43Zm8-13.6a5,5,0,0,0-3.88-1.4,6.08,6.08,0,0,0-2.82.58,5.29,5.29,0,0,0-1.8,1.42,5.22,5.22,0,0,0-.95,1.8,8.15,8.15,0,0,0-.33,1.7H381.7A8.16,8.16,0,0,0,379.93,82.83Z"/><path d="M399.75,76.78v3.6h.15a8.13,8.13,0,0,1,3.5-3.27,10.06,10.06,0,0,1,4.4-1,12,12,0,0,1,4.68.78A6.87,6.87,0,0,1,415.35,79a8.36,8.36,0,0,1,1.48,3.35,21,21,0,0,1,.42,4.37v15.9h-7.1V88a9,9,0,0,0-1-4.77,3.87,3.87,0,0,0-3.55-1.58,4.93,4.93,0,0,0-4.2,1.73c-.86,1.15-1.3,3-1.3,5.67v13.55H393V76.78Z"/><path d="M436.85,76.78v4.75h-5.2v12.8a2.4,2.4,0,0,0,3,3c.4,0,.79,0,1.15,0a8.29,8.29,0,0,0,1.05-.15v5.5a16.29,16.29,0,0,1-2,.2c-.73,0-1.45,0-2.15,0a20.65,20.65,0,0,1-3.12-.22,7.39,7.39,0,0,1-2.6-.88,4.6,4.6,0,0,1-1.78-1.85,6.65,6.65,0,0,1-.65-3.15V81.53h-4.3V76.78h4.3V69h7.1v7.75Z"/><path d="M447.85,96.43a7.29,7.29,0,0,0,8.3.48,4.48,4.48,0,0,0,1.9-2.28h6.25a11.84,11.84,0,0,1-4.6,6.65,13.58,13.58,0,0,1-7.5,2,14.76,14.76,0,0,1-5.5-1,11.45,11.45,0,0,1-4.15-2.78,12.4,12.4,0,0,1-2.62-4.3,15.68,15.68,0,0,1-.93-5.5,15.18,15.18,0,0,1,.95-5.4,12.46,12.46,0,0,1,2.7-4.32,12.69,12.69,0,0,1,4.18-2.88,13.33,13.33,0,0,1,5.37-1A12.28,12.28,0,0,1,458,77.36a11.54,11.54,0,0,1,4,3.42,14,14,0,0,1,2.27,4.9,18.24,18.24,0,0,1,.5,5.75H446.1C446.2,93.73,446.79,95.4,447.85,96.43Zm8-13.6a5,5,0,0,0-3.88-1.4,6.08,6.08,0,0,0-2.82.58,5.29,5.29,0,0,0-1.8,1.42,5.22,5.22,0,0,0-.95,1.8,7.55,7.55,0,0,0-.33,1.7h11.55A8.16,8.16,0,0,0,455.88,82.83Z"/><path d="M475.7,76.78v4.8h.1a8.46,8.46,0,0,1,1.35-2.22,8.74,8.74,0,0,1,2-1.75,9.43,9.43,0,0,1,2.35-1.13,8.36,8.36,0,0,1,2.6-.4,5.42,5.42,0,0,1,1.55.25v6.6c-.33-.07-.73-.12-1.2-.17a12.82,12.82,0,0,0-1.35-.08,7.61,7.61,0,0,0-3.3.65,5.68,5.68,0,0,0-2.17,1.78,7,7,0,0,0-1.18,2.62,14.46,14.46,0,0,0-.35,3.25v11.65H469V76.78Z"/><path d="M494.38,96.21a4.06,4.06,0,0,0,1.22,1.35,5.34,5.34,0,0,0,1.73.77,7.93,7.93,0,0,0,2,.25,8.11,8.11,0,0,0,1.58-.17,5.46,5.46,0,0,0,1.5-.55,3.47,3.47,0,0,0,1.12-1,2.66,2.66,0,0,0,.45-1.58c0-1.07-.71-1.87-2.12-2.4a42.8,42.8,0,0,0-5.93-1.6c-1-.23-2-.51-3-.82a10.66,10.66,0,0,1-2.63-1.25,6.15,6.15,0,0,1-1.85-1.95,5.54,5.54,0,0,1-.7-2.88,7.78,7.78,0,0,1,1-4.1,7.05,7.05,0,0,1,2.57-2.52,11.27,11.27,0,0,1,3.6-1.3,22.17,22.17,0,0,1,4.1-.38,20.31,20.31,0,0,1,4.08.4,10.93,10.93,0,0,1,3.52,1.35,8.19,8.19,0,0,1,2.58,2.53,8.46,8.46,0,0,1,1.22,4h-6.75a3.1,3.1,0,0,0-1.55-2.77,7,7,0,0,0-3.3-.73,12.39,12.39,0,0,0-1.3.08,4.15,4.15,0,0,0-1.27.32,2.63,2.63,0,0,0-1,.73,1.88,1.88,0,0,0-.4,1.27,1.94,1.94,0,0,0,.7,1.55,5.46,5.46,0,0,0,1.83,1,22.58,22.58,0,0,0,2.57.67c1,.2,1.95.42,2.95.65a30.85,30.85,0,0,1,3,.85,9.93,9.93,0,0,1,2.62,1.33,6.37,6.37,0,0,1,1.85,2,6,6,0,0,1,.7,3,7.81,7.81,0,0,1-3.7,7,11.13,11.13,0,0,1-3.77,1.48,22.3,22.3,0,0,1-4.33.42,21.4,21.4,0,0,1-4.4-.45,11.56,11.56,0,0,1-3.82-1.5,8.47,8.47,0,0,1-2.75-2.77,8.72,8.72,0,0,1-1.18-4.33h6.75A3.87,3.87,0,0,0,494.38,96.21Z"/><path d="M543.35,76.78v4.75h-5.2v12.8a2.4,2.4,0,0,0,3,3c.4,0,.78,0,1.15,0a8.29,8.29,0,0,0,1.05-.15v5.5a16.29,16.29,0,0,1-2,.2c-.73,0-1.45,0-2.15,0a20.65,20.65,0,0,1-3.12-.22,7.39,7.39,0,0,1-2.6-.88,4.6,4.6,0,0,1-1.78-1.85,6.65,6.65,0,0,1-.65-3.15V81.53h-4.3V76.78h4.3V69h7.1v7.75Z"/><path d="M553.85,66.93V80.38H554a8.19,8.19,0,0,1,3.45-3.27,9.24,9.24,0,0,1,4.1-1,11.94,11.94,0,0,1,4.67.78A6.84,6.84,0,0,1,569.1,79a8.36,8.36,0,0,1,1.48,3.35,21,21,0,0,1,.42,4.37v15.9h-7.1V88a9,9,0,0,0-1-4.77,3.88,3.88,0,0,0-3.55-1.58,4.93,4.93,0,0,0-4.2,1.73q-1.3,1.73-1.3,5.67v13.55h-7.1V66.93Z"/><path d="M584,96.43a7.29,7.29,0,0,0,8.3.48,4.48,4.48,0,0,0,1.9-2.28h6.25a11.84,11.84,0,0,1-4.6,6.65,13.58,13.58,0,0,1-7.5,2,14.76,14.76,0,0,1-5.5-1,11.45,11.45,0,0,1-4.15-2.78,12.57,12.57,0,0,1-2.63-4.3,15.91,15.91,0,0,1-.92-5.5,15.18,15.18,0,0,1,1-5.4A12.46,12.46,0,0,1,578.8,80,12.75,12.75,0,0,1,583,77.13a13.41,13.41,0,0,1,5.38-1,12.28,12.28,0,0,1,5.75,1.28,11.51,11.51,0,0,1,4,3.42,14.14,14.14,0,0,1,2.28,4.9,18.24,18.24,0,0,1,.5,5.75H582.25Q582.4,94.88,584,96.43Zm8-13.6a5,5,0,0,0-3.87-1.4,6.12,6.12,0,0,0-2.83.58,5.29,5.29,0,0,0-1.8,1.42,5.4,5.4,0,0,0-.95,1.8,8.07,8.07,0,0,0-.32,1.7H593.8A8.17,8.17,0,0,0,592,82.83Z"/><path d="M616.3,81.53V76.78h4.25v-2a7.76,7.76,0,0,1,2.15-5.65q2.14-2.2,6.5-2.2c.63,0,1.26,0,1.9.08l1.85.12v5.3a21.78,21.78,0,0,0-2.6-.15,2.74,2.74,0,0,0-2.08.68,3.33,3.33,0,0,0-.62,2.27v1.55h4.9v4.75h-4.9v21.1h-7.1V81.53Z"/><path d="M635.8,84.11a11.82,11.82,0,0,1,6.9-7,14.76,14.76,0,0,1,5.5-1,15,15,0,0,1,5.52,1A12,12,0,0,1,658,79.81a12.2,12.2,0,0,1,2.7,4.3,17,17,0,0,1,0,11.22,12.39,12.39,0,0,1-2.7,4.28,11.81,11.81,0,0,1-4.23,2.72,15.37,15.37,0,0,1-5.52,1,15.18,15.18,0,0,1-5.5-1,11.77,11.77,0,0,1-4.2-2.72,12.11,12.11,0,0,1-2.7-4.28,17,17,0,0,1,0-11.22Zm6.45,8.65a8.21,8.21,0,0,0,1,2.65,5.57,5.57,0,0,0,1.93,1.87,5.84,5.84,0,0,0,3,.7,6,6,0,0,0,3-.7,5.39,5.39,0,0,0,1.95-1.87,8,8,0,0,0,1-2.65,15.26,15.26,0,0,0,.3-3,15.54,15.54,0,0,0-.3-3,7.68,7.68,0,0,0-1-2.65,5.55,5.55,0,0,0-1.95-1.87,5.75,5.75,0,0,0-3-.73,5.65,5.65,0,0,0-3,.73A5.76,5.76,0,0,0,643.27,84a7.87,7.87,0,0,0-1,2.65,15.54,15.54,0,0,0-.3,3A15.26,15.26,0,0,0,642.25,92.76Z"/><path d="M672.17,96.21a4.2,4.2,0,0,0,1.23,1.35,5.29,5.29,0,0,0,1.72.77,7.88,7.88,0,0,0,3.6.08,5.46,5.46,0,0,0,1.5-.55,3.5,3.5,0,0,0,1.13-1,2.66,2.66,0,0,0,.45-1.58q0-1.61-2.13-2.4a42.2,42.2,0,0,0-5.92-1.6c-1-.23-2-.51-3-.82a10.59,10.59,0,0,1-2.62-1.25,6,6,0,0,1-1.85-1.95,5.54,5.54,0,0,1-.7-2.88,7.78,7.78,0,0,1,1-4.1,7.08,7.08,0,0,1,2.58-2.52,11.1,11.1,0,0,1,3.6-1.3,22.17,22.17,0,0,1,4.1-.38,20.14,20.14,0,0,1,4.07.4,11,11,0,0,1,3.53,1.35A8.06,8.06,0,0,1,687,80.36a8.46,8.46,0,0,1,1.23,4h-6.75a3.1,3.1,0,0,0-1.55-2.77,7,7,0,0,0-3.3-.73,12.23,12.23,0,0,0-1.3.08,4.29,4.29,0,0,0-1.28.32,2.59,2.59,0,0,0-1,.73,1.88,1.88,0,0,0-.4,1.27,1.94,1.94,0,0,0,.7,1.55,5.31,5.31,0,0,0,1.82,1,22.79,22.79,0,0,0,2.58.67c1,.2,2,.42,3,.65a29.9,29.9,0,0,1,3,.85,9.84,9.84,0,0,1,2.63,1.33,6.49,6.49,0,0,1,1.85,2,6,6,0,0,1,.7,3,7.86,7.86,0,0,1-3.7,7,11.11,11.11,0,0,1-3.78,1.48,22.2,22.2,0,0,1-4.32.42,21.4,21.4,0,0,1-4.4-.45,11.61,11.61,0,0,1-3.83-1.5,8.19,8.19,0,0,1-3.92-7.1h6.75A4,4,0,0,0,672.17,96.21Z"/><path d="M707.25,76.78v4.75h-5.2v12.8a2.4,2.4,0,0,0,3,3c.4,0,.78,0,1.15,0a8.85,8.85,0,0,0,1-.15v5.5a16.29,16.29,0,0,1-2,.2c-.74,0-1.45,0-2.15,0a20.88,20.88,0,0,1-3.13-.22,7.46,7.46,0,0,1-2.6-.88,4.58,4.58,0,0,1-1.77-1.85,6.53,6.53,0,0,1-.65-3.15V81.53h-4.3V76.78H695V69h7.1v7.75Z"/><path d="M718.25,96.43a7.29,7.29,0,0,0,8.3.48,4.53,4.53,0,0,0,1.9-2.28h6.25a11.88,11.88,0,0,1-4.6,6.65,13.58,13.58,0,0,1-7.5,2,14.73,14.73,0,0,1-5.5-1A11.36,11.36,0,0,1,713,99.53a12.42,12.42,0,0,1-2.63-4.3,15.91,15.91,0,0,1-.92-5.5,15,15,0,0,1,1-5.4,12.46,12.46,0,0,1,2.7-4.32,12.65,12.65,0,0,1,4.17-2.88,13.41,13.41,0,0,1,5.38-1,12.31,12.31,0,0,1,5.75,1.28,11.51,11.51,0,0,1,4,3.42,14.14,14.14,0,0,1,2.28,4.9,18.54,18.54,0,0,1,.5,5.75H716.5Q716.65,94.88,718.25,96.43Zm8-13.6a5,5,0,0,0-3.87-1.4,6.09,6.09,0,0,0-2.83.58,5.29,5.29,0,0,0-1.8,1.42,5.22,5.22,0,0,0-.95,1.8,8.07,8.07,0,0,0-.32,1.7h11.55A8.25,8.25,0,0,0,726.27,82.83Z"/><path d="M746.1,76.78v4.8h.1a8.46,8.46,0,0,1,1.35-2.22,8.33,8.33,0,0,1,2-1.75,9.26,9.26,0,0,1,2.35-1.13,8.36,8.36,0,0,1,2.6-.4,5.47,5.47,0,0,1,1.55.25v6.6c-.34-.07-.74-.12-1.2-.17a12.82,12.82,0,0,0-1.35-.08,7.61,7.61,0,0,0-3.3.65A5.71,5.71,0,0,0,748,85.11a7,7,0,0,0-1.17,2.62,13.9,13.9,0,0,0-.35,3.25v11.65h-7.1V76.78Z"/><path d="M56.36,154.43a4.93,4.93,0,0,0-2.85.78,6.11,6.11,0,0,0-1.88,2,8.59,8.59,0,0,0-1,2.7,14.55,14.55,0,0,0-.3,2.92,14.09,14.09,0,0,0,.3,2.85,8.88,8.88,0,0,0,1,2.63,5.6,5.6,0,0,0,1.83,1.92,5,5,0,0,0,2.8.75,5.19,5.19,0,0,0,3.92-1.42,6.78,6.78,0,0,0,1.73-3.83h6.85a11.73,11.73,0,0,1-4,7.85,12.92,12.92,0,0,1-8.45,2.7,14.16,14.16,0,0,1-5.33-1,11.69,11.69,0,0,1-4.12-2.73,12.33,12.33,0,0,1-2.65-4.17,14.39,14.39,0,0,1-.95-5.33,17.25,17.25,0,0,1,.87-5.57,12.52,12.52,0,0,1,2.58-4.45,11.71,11.71,0,0,1,4.15-2.93,14.09,14.09,0,0,1,5.6-1,16.15,16.15,0,0,1,4.42.6,11.65,11.65,0,0,1,3.8,1.83,9.42,9.42,0,0,1,3.93,7.37h-7Q60.91,154.43,56.36,154.43Z"/><path d="M72.41,157.73a8.17,8.17,0,0,1,1.25-4.15,8.45,8.45,0,0,1,2.8-2.65,12,12,0,0,1,3.82-1.42,21.28,21.28,0,0,1,4.28-.43,28,28,0,0,1,4,.28,12.11,12.11,0,0,1,3.65,1.07,7.17,7.17,0,0,1,2.7,2.23,6.19,6.19,0,0,1,1,3.77v13.45a25.78,25.78,0,0,0,.2,3.35,5.86,5.86,0,0,0,.7,2.4h-7.2a10.47,10.47,0,0,1-.33-1.22,10.93,10.93,0,0,1-.17-1.28,9.31,9.31,0,0,1-4,2.45,16,16,0,0,1-4.7.7,12.63,12.63,0,0,1-3.45-.45,7.93,7.93,0,0,1-2.8-1.4,6.48,6.48,0,0,1-1.88-2.4,8.14,8.14,0,0,1-.67-3.45,7.59,7.59,0,0,1,.77-3.62,6.53,6.53,0,0,1,2-2.28,8.84,8.84,0,0,1,2.8-1.27,29,29,0,0,1,3.18-.68c1.06-.17,2.11-.3,3.15-.4a19,19,0,0,0,2.75-.45,4.86,4.86,0,0,0,1.9-.87,2,2,0,0,0,.65-1.68,3.73,3.73,0,0,0-.38-1.82,2.73,2.73,0,0,0-1-1A3.9,3.9,0,0,0,86,154a11,11,0,0,0-1.77-.13,5.39,5.39,0,0,0-3.3.9,4,4,0,0,0-1.4,3ZM88.81,163a3.16,3.16,0,0,1-1.13.63,11.36,11.36,0,0,1-1.45.37c-.52.1-1.06.18-1.62.25s-1.14.15-1.7.25a12.18,12.18,0,0,0-1.58.4,4.62,4.62,0,0,0-1.35.68,3.18,3.18,0,0,0-.92,1.07,3.36,3.36,0,0,0-.35,1.65,3.26,3.26,0,0,0,.35,1.6,2.7,2.7,0,0,0,1,1,4,4,0,0,0,1.4.52,8.88,8.88,0,0,0,1.65.15,6.25,6.25,0,0,0,3.25-.7,4.78,4.78,0,0,0,1.7-1.67,5.41,5.41,0,0,0,.67-2,14.61,14.61,0,0,0,.13-1.6Z"/><path d="M108.16,149.78v4.8h.1a8.46,8.46,0,0,1,1.35-2.22,8.33,8.33,0,0,1,2-1.75,9.26,9.26,0,0,1,2.35-1.13,8.36,8.36,0,0,1,2.6-.4,5.47,5.47,0,0,1,1.55.25v6.6c-.34-.07-.74-.12-1.2-.17a12.82,12.82,0,0,0-1.35-.08,7.61,7.61,0,0,0-3.3.65,5.71,5.71,0,0,0-2.18,1.78,7,7,0,0,0-1.17,2.62,13.9,13.9,0,0,0-.35,3.25v11.65h-7.1V149.78Z"/><path d="M127.56,169.43a7.29,7.29,0,0,0,8.3.48,4.53,4.53,0,0,0,1.9-2.28H144a11.88,11.88,0,0,1-4.6,6.65,13.58,13.58,0,0,1-7.5,2,14.73,14.73,0,0,1-5.5-1,11.36,11.36,0,0,1-4.15-2.78,12.42,12.42,0,0,1-2.63-4.3,15.68,15.68,0,0,1-.92-5.5,15,15,0,0,1,1-5.4,12.55,12.55,0,0,1,6.87-7.2,13.41,13.41,0,0,1,5.38-1,12.31,12.31,0,0,1,5.75,1.28,11.51,11.51,0,0,1,4,3.42,14.14,14.14,0,0,1,2.28,4.9,18.54,18.54,0,0,1,.5,5.75H125.81Q126,167.88,127.56,169.43Zm8-13.6a5,5,0,0,0-3.87-1.4,6.09,6.09,0,0,0-2.83.58,5.29,5.29,0,0,0-1.8,1.42,5.22,5.22,0,0,0-1,1.8,8.07,8.07,0,0,0-.32,1.7h11.55A8.25,8.25,0,0,0,135.58,155.83Z"/><path d="M168.53,169.21a4.2,4.2,0,0,0,1.23,1.35,5.29,5.29,0,0,0,1.72.77,7.88,7.88,0,0,0,3.6.08,5.46,5.46,0,0,0,1.5-.55,3.5,3.5,0,0,0,1.13-1,2.66,2.66,0,0,0,.45-1.58q0-1.6-2.13-2.4a42.6,42.6,0,0,0-5.92-1.6c-1-.23-2.05-.51-3-.82a10.59,10.59,0,0,1-2.62-1.25,6,6,0,0,1-1.85-2,5.54,5.54,0,0,1-.7-2.88,7.78,7.78,0,0,1,1-4.1,7.08,7.08,0,0,1,2.58-2.52,11.1,11.1,0,0,1,3.6-1.3,22.17,22.17,0,0,1,4.1-.38,20.21,20.21,0,0,1,4.07.4,11,11,0,0,1,3.53,1.35,8.06,8.06,0,0,1,2.57,2.53,8.58,8.58,0,0,1,1.23,4h-6.75a3.1,3.1,0,0,0-1.55-2.77,7,7,0,0,0-3.3-.73,12.23,12.23,0,0,0-1.3.08,4.22,4.22,0,0,0-1.28.32,2.59,2.59,0,0,0-1,.73,1.88,1.88,0,0,0-.4,1.27,1.94,1.94,0,0,0,.7,1.55,5.31,5.31,0,0,0,1.82,1,22.79,22.79,0,0,0,2.58.67c1,.2,1.95.42,2.95.65a29.9,29.9,0,0,1,3,.85,10,10,0,0,1,2.63,1.33,6.49,6.49,0,0,1,1.85,2.05,6,6,0,0,1,.7,3,8.29,8.29,0,0,1-1,4.28,8.14,8.14,0,0,1-2.67,2.77,11.11,11.11,0,0,1-3.78,1.48,22.28,22.28,0,0,1-4.32.42,21.4,21.4,0,0,1-4.4-.45,11.61,11.61,0,0,1-3.83-1.5,8.19,8.19,0,0,1-3.92-7.1h6.75A3.87,3.87,0,0,0,168.53,169.21Z"/><path d="M199,183.33a10.31,10.31,0,0,1-5.7,1.35c-.74,0-1.46,0-2.18-.07l-2.17-.18v-5.85l2.05.2a14.73,14.73,0,0,0,2.1.05,2.76,2.76,0,0,0,2.07-1.1,3.53,3.53,0,0,0,.68-2.1,4.26,4.26,0,0,0-.3-1.6l-9-24.25H194l5.85,17.7h.1l5.65-17.7H213l-10.8,29.05A8.8,8.8,0,0,1,199,183.33Z"/><path d="M221.33,169.21a4.2,4.2,0,0,0,1.23,1.35,5.29,5.29,0,0,0,1.72.77,7.88,7.88,0,0,0,3.6.08,5.46,5.46,0,0,0,1.5-.55,3.5,3.5,0,0,0,1.13-1,2.66,2.66,0,0,0,.45-1.58q0-1.6-2.13-2.4a42.6,42.6,0,0,0-5.92-1.6c-1-.23-2-.51-3-.82a10.59,10.59,0,0,1-2.62-1.25,6,6,0,0,1-1.85-2,5.54,5.54,0,0,1-.7-2.88,7.78,7.78,0,0,1,1-4.1,7.08,7.08,0,0,1,2.58-2.52,11.1,11.1,0,0,1,3.6-1.3,22.17,22.17,0,0,1,4.1-.38,20.21,20.21,0,0,1,4.07.4,11,11,0,0,1,3.53,1.35,8.06,8.06,0,0,1,2.57,2.53,8.58,8.58,0,0,1,1.23,4h-6.75a3.1,3.1,0,0,0-1.55-2.77,7,7,0,0,0-3.3-.73,12.23,12.23,0,0,0-1.3.08,4.22,4.22,0,0,0-1.28.32,2.59,2.59,0,0,0-1,.73,1.88,1.88,0,0,0-.4,1.27,1.94,1.94,0,0,0,.7,1.55,5.31,5.31,0,0,0,1.82,1,22.79,22.79,0,0,0,2.58.67c1,.2,2,.42,3,.65a29.9,29.9,0,0,1,3,.85,10,10,0,0,1,2.63,1.33,6.49,6.49,0,0,1,1.85,2.05,6,6,0,0,1,.7,3,8.29,8.29,0,0,1-1,4.28,8.14,8.14,0,0,1-2.67,2.77,11.11,11.11,0,0,1-3.78,1.48,22.28,22.28,0,0,1-4.32.42,21.4,21.4,0,0,1-4.4-.45,11.61,11.61,0,0,1-3.83-1.5,8.19,8.19,0,0,1-3.92-7.1h6.75A3.87,3.87,0,0,0,221.33,169.21Z"/><path d="M256.4,149.78v4.75h-5.19v12.8a2.4,2.4,0,0,0,3,3c.4,0,.78,0,1.15-.05a8.39,8.39,0,0,0,1-.15v5.5a16.09,16.09,0,0,1-2,.2c-.73,0-1.44,0-2.15,0a20.65,20.65,0,0,1-3.12-.22,7.46,7.46,0,0,1-2.6-.88,4.67,4.67,0,0,1-1.78-1.85,6.65,6.65,0,0,1-.64-3.15V154.53H239.8v-4.75h4.31V142h7.1v7.75Z"/><path d="M267.4,169.43a7.31,7.31,0,0,0,8.31.48,4.45,4.45,0,0,0,1.89-2.28h6.25a11.84,11.84,0,0,1-4.6,6.65,13.54,13.54,0,0,1-7.5,2,14.8,14.8,0,0,1-5.5-1,11.53,11.53,0,0,1-4.15-2.78,12.55,12.55,0,0,1-2.62-4.3,15.68,15.68,0,0,1-.93-5.5,15.18,15.18,0,0,1,.95-5.4,12.6,12.6,0,0,1,6.88-7.2,13.4,13.4,0,0,1,5.37-1,12.25,12.25,0,0,1,5.75,1.28,11.46,11.46,0,0,1,4,3.42,14,14,0,0,1,2.27,4.9,18,18,0,0,1,.5,5.75H265.65C265.75,166.73,266.34,168.4,267.4,169.43Zm8-13.6a5,5,0,0,0-3.88-1.4,6.08,6.08,0,0,0-2.82.58,5.29,5.29,0,0,0-1.8,1.42,5.22,5.22,0,0,0-.95,1.8,8.85,8.85,0,0,0-.33,1.7h11.56A8.25,8.25,0,0,0,275.43,155.83Z"/><path d="M295.4,149.78v3.5h.1a10.16,10.16,0,0,1,3.38-3.1,9.17,9.17,0,0,1,4.52-1.1,10.46,10.46,0,0,1,4.48.95,6.27,6.27,0,0,1,3.07,3.35,11.12,11.12,0,0,1,3.13-3,8.27,8.27,0,0,1,4.67-1.3,13.86,13.86,0,0,1,3.8.5,7.6,7.6,0,0,1,3,1.6,7.14,7.14,0,0,1,1.95,2.88,11.54,11.54,0,0,1,.7,4.27v17.3h-7.1V161c0-.87,0-1.68-.1-2.45a5.08,5.08,0,0,0-.55-2,3.3,3.3,0,0,0-1.32-1.35,4.87,4.87,0,0,0-2.38-.5,4.47,4.47,0,0,0-2.42.58,4.09,4.09,0,0,0-1.45,1.5,5.79,5.79,0,0,0-.7,2.1,15.56,15.56,0,0,0-.18,2.37v14.4h-7.1v-14.5c0-.77,0-1.52,0-2.27a6.31,6.31,0,0,0-.42-2.08,3.2,3.2,0,0,0-1.25-1.52,4.65,4.65,0,0,0-2.58-.58,5.36,5.36,0,0,0-1.32.23,4.37,4.37,0,0,0-1.6.85,4.86,4.86,0,0,0-1.33,1.8,7.37,7.37,0,0,0-.55,3.07v15h-7.1V149.78Z"/><path d="M342,167.93v7.7a7.84,7.84,0,0,1-.62,3.13,8.06,8.06,0,0,1-1.68,2.47,8.77,8.77,0,0,1-2.47,1.73,11.1,11.1,0,0,1-3,.92v-3.6a4,4,0,0,0,1.43-.6,5.2,5.2,0,0,0,1.17-1.07,4.22,4.22,0,0,0,.75-1.4,4.07,4.07,0,0,0,.2-1.58h-3.6v-7.7Z"/><path d="M375.8,149.78v4.75h-5.2v12.8a2.4,2.4,0,0,0,3,3c.4,0,.79,0,1.15-.05a8.29,8.29,0,0,0,1.05-.15v5.5a16.09,16.09,0,0,1-2,.2c-.73,0-1.45,0-2.15,0a20.65,20.65,0,0,1-3.12-.22,7.39,7.39,0,0,1-2.6-.88,4.67,4.67,0,0,1-1.78-1.85,6.65,6.65,0,0,1-.65-3.15V154.53h-4.3v-4.75h4.3V142h7.1v7.75Z"/><path d="M386.3,139.93v13.45h.15a8.19,8.19,0,0,1,3.45-3.27,9.24,9.24,0,0,1,4.1-1,12,12,0,0,1,4.68.78,6.87,6.87,0,0,1,2.87,2.15,8.36,8.36,0,0,1,1.48,3.35,21,21,0,0,1,.42,4.37v15.9h-7.1V161a9,9,0,0,0-1-4.77,3.87,3.87,0,0,0-3.55-1.58,4.93,4.93,0,0,0-4.2,1.73c-.86,1.15-1.3,3-1.3,5.67v13.55h-7.1v-35.7Z"/><path d="M416.45,169.43a7.29,7.29,0,0,0,8.3.48,4.43,4.43,0,0,0,1.9-2.28h6.25a11.84,11.84,0,0,1-4.6,6.65,13.54,13.54,0,0,1-7.5,2,14.8,14.8,0,0,1-5.5-1,11.53,11.53,0,0,1-4.15-2.78,12.4,12.4,0,0,1-2.62-4.3,15.68,15.68,0,0,1-.93-5.5,15.18,15.18,0,0,1,.95-5.4,12.52,12.52,0,0,1,6.88-7.2,13.33,13.33,0,0,1,5.37-1,12.28,12.28,0,0,1,5.75,1.28,11.46,11.46,0,0,1,4,3.42,14.13,14.13,0,0,1,2.27,4.9,18,18,0,0,1,.5,5.75H414.7Q414.85,167.88,416.45,169.43Zm8-13.6a5,5,0,0,0-3.88-1.4,6.08,6.08,0,0,0-2.82.58,5.29,5.29,0,0,0-1.8,1.42,5.22,5.22,0,0,0-1,1.8,8.15,8.15,0,0,0-.33,1.7h11.55A8.16,8.16,0,0,0,424.48,155.83Z"/><path d="M437.75,145.78v-5.85h7.1v5.85Zm7.1,4v25.85h-7.1V149.78Z"/><path d="M457.2,149.78v4.8h.1a8.46,8.46,0,0,1,1.35-2.22,8.74,8.74,0,0,1,2-1.75,9.43,9.43,0,0,1,2.35-1.13,8.41,8.41,0,0,1,2.6-.4,5.37,5.37,0,0,1,1.55.25v6.6c-.33-.07-.73-.12-1.2-.17a12.82,12.82,0,0,0-1.35-.08,7.61,7.61,0,0,0-3.3.65,5.68,5.68,0,0,0-2.17,1.78,7,7,0,0,0-1.18,2.62,14.46,14.46,0,0,0-.35,3.25v11.65h-7.1V149.78Z"/><path d="M484,157.11a11.93,11.93,0,0,1,2.7-4.3,12.07,12.07,0,0,1,4.2-2.75,14.76,14.76,0,0,1,5.5-1,15,15,0,0,1,5.53,1,11.78,11.78,0,0,1,6.92,7.05,17,17,0,0,1,0,11.22,12.11,12.11,0,0,1-2.7,4.28,11.76,11.76,0,0,1-4.22,2.72,15.42,15.42,0,0,1-5.53.95,15.18,15.18,0,0,1-5.5-.95,11.86,11.86,0,0,1-4.2-2.72,12.11,12.11,0,0,1-2.7-4.28,17,17,0,0,1,0-11.22Zm6.45,8.65a8,8,0,0,0,1,2.65,5.46,5.46,0,0,0,1.92,1.87,5.84,5.84,0,0,0,3,.7,6,6,0,0,0,3-.7,5.55,5.55,0,0,0,1.95-1.87,8.21,8.21,0,0,0,1-2.65,15.26,15.26,0,0,0,.3-3,15.54,15.54,0,0,0-.3-3,7.87,7.87,0,0,0-1-2.65,5.73,5.73,0,0,0-1.95-1.87,5.81,5.81,0,0,0-3-.73,5.47,5.47,0,0,0-4.92,2.6,7.68,7.68,0,0,0-1,2.65,15.54,15.54,0,0,0-.3,3A15.26,15.26,0,0,0,490.4,165.76Z"/><path d="M521.1,149.78v3.6h.15a8.13,8.13,0,0,1,3.5-3.27,10,10,0,0,1,4.4-1,12,12,0,0,1,4.68.78A6.87,6.87,0,0,1,536.7,152a8.36,8.36,0,0,1,1.48,3.35,21,21,0,0,1,.42,4.37v15.9h-7.1V161a9,9,0,0,0-1-4.77,3.88,3.88,0,0,0-3.55-1.58,4.93,4.93,0,0,0-4.2,1.73q-1.31,1.72-1.3,5.67v13.55h-7.1V149.78Z"/><path d="M551.3,139.93v35.7h-7.1v-35.7Z"/><path d="M566.45,183.33a10.31,10.31,0,0,1-5.7,1.35c-.73,0-1.46,0-2.17-.07l-2.18-.18v-5.85l2.05.2a14.73,14.73,0,0,0,2.1.05,2.76,2.76,0,0,0,2.07-1.1,3.47,3.47,0,0,0,.68-2.1,4.26,4.26,0,0,0-.3-1.6l-9-24.25h7.55l5.85,17.7h.1l5.65-17.7h7.35l-10.8,29.05A8.74,8.74,0,0,1,566.45,183.33Z"/><path d="M603.5,149.78v4.8h.1a8.46,8.46,0,0,1,1.35-2.22,8.74,8.74,0,0,1,1.95-1.75,9.43,9.43,0,0,1,2.35-1.13,8.36,8.36,0,0,1,2.6-.4,5.42,5.42,0,0,1,1.55.25v6.6c-.33-.07-.73-.12-1.2-.17a12.82,12.82,0,0,0-1.35-.08,7.61,7.61,0,0,0-3.3.65,5.68,5.68,0,0,0-2.17,1.78,7,7,0,0,0-1.18,2.62,14.46,14.46,0,0,0-.35,3.25v11.65h-7.1V149.78Z"/><path d="M622.9,169.43a7.29,7.29,0,0,0,8.3.48,4.48,4.48,0,0,0,1.9-2.28h6.25a11.84,11.84,0,0,1-4.6,6.65,13.58,13.58,0,0,1-7.5,2,14.76,14.76,0,0,1-5.5-1,11.45,11.45,0,0,1-4.15-2.78,12.4,12.4,0,0,1-2.62-4.3,15.68,15.68,0,0,1-.93-5.5,15.18,15.18,0,0,1,1-5.4,12.46,12.46,0,0,1,2.7-4.32,12.69,12.69,0,0,1,4.18-2.88,13.33,13.33,0,0,1,5.37-1,12.28,12.28,0,0,1,5.75,1.28,11.54,11.54,0,0,1,4,3.42,14.13,14.13,0,0,1,2.27,4.9,18.24,18.24,0,0,1,.5,5.75H621.15Q621.3,167.88,622.9,169.43Zm8-13.6a5,5,0,0,0-3.88-1.4,6.08,6.08,0,0,0-2.82.58,5.29,5.29,0,0,0-1.8,1.42,5.22,5.22,0,0,0-.95,1.8,7.55,7.55,0,0,0-.33,1.7H632.7A8.16,8.16,0,0,0,630.93,155.83Z"/><path d="M643.7,157.73a8.27,8.27,0,0,1,1.25-4.15,8.55,8.55,0,0,1,2.8-2.65,12,12,0,0,1,3.83-1.42,21.18,21.18,0,0,1,4.27-.43,27.92,27.92,0,0,1,3.95.28,12.11,12.11,0,0,1,3.65,1.07,7.17,7.17,0,0,1,2.7,2.23,6.19,6.19,0,0,1,1.05,3.77v13.45a27.67,27.67,0,0,0,.2,3.35,6,6,0,0,0,.7,2.4h-7.2a10.43,10.43,0,0,1-.32-1.22,9.17,9.17,0,0,1-.18-1.28,9.25,9.25,0,0,1-4,2.45,15.93,15.93,0,0,1-4.7.7,12.73,12.73,0,0,1-3.45-.45,7.93,7.93,0,0,1-2.8-1.4,6.35,6.35,0,0,1-1.87-2.4,8,8,0,0,1-.68-3.45,7.59,7.59,0,0,1,.77-3.62,6.63,6.63,0,0,1,2-2.28,8.84,8.84,0,0,1,2.8-1.27,29,29,0,0,1,3.18-.68c1.07-.17,2.12-.3,3.15-.4a19,19,0,0,0,2.75-.45,4.86,4.86,0,0,0,1.9-.87,1.94,1.94,0,0,0,.65-1.68,3.73,3.73,0,0,0-.38-1.82,2.73,2.73,0,0,0-1-1,3.77,3.77,0,0,0-1.45-.5,11,11,0,0,0-1.77-.13,5.39,5.39,0,0,0-3.3.9,4,4,0,0,0-1.4,3ZM660.1,163a3.16,3.16,0,0,1-1.13.63,11.36,11.36,0,0,1-1.45.37c-.51.1-1,.18-1.62.25s-1.13.15-1.7.25a12.61,12.61,0,0,0-1.58.4,4.75,4.75,0,0,0-1.35.68,3.18,3.18,0,0,0-.92,1.07,3.48,3.48,0,0,0-.35,1.65,3.38,3.38,0,0,0,.35,1.6,2.7,2.7,0,0,0,.95,1,4,4,0,0,0,1.4.52,8.88,8.88,0,0,0,1.65.15,6.25,6.25,0,0,0,3.25-.7,4.7,4.7,0,0,0,1.7-1.67,5.23,5.23,0,0,0,.67-2,12.46,12.46,0,0,0,.13-1.6Z"/><path d="M680,139.93v35.7h-7.1v-35.7Z"/><path d="M50.76,222.78v3.3h.1a7.71,7.71,0,0,1,3.3-3.05,10.16,10.16,0,0,1,4.4-.95,11.17,11.17,0,0,1,5.25,1.15,10.94,10.94,0,0,1,3.65,3.05,13.06,13.06,0,0,1,2.15,4.43,19.89,19.89,0,0,1,.7,5.27,18,18,0,0,1-.7,5,12.77,12.77,0,0,1-2.13,4.25,10.5,10.5,0,0,1-3.55,3,10.68,10.68,0,0,1-5,1.1,10.08,10.08,0,0,1-4.43-1,8.3,8.3,0,0,1-3.32-2.88h-.1v12.25H44v-34.9ZM60,243.28a5.62,5.62,0,0,0,1.9-1.82,7.42,7.42,0,0,0,1-2.63,15.54,15.54,0,0,0,.3-3.05,14.18,14.18,0,0,0-.33-3.05,7.92,7.92,0,0,0-1.07-2.67,5.84,5.84,0,0,0-1.93-1.9,5.3,5.3,0,0,0-2.87-.73,5.44,5.44,0,0,0-2.93.73,5.85,5.85,0,0,0-1.9,1.87,7.87,7.87,0,0,0-1,2.65,15.75,15.75,0,0,0-.3,3.1,14.17,14.17,0,0,0,.32,3.05,8.05,8.05,0,0,0,1,2.63A6.06,6.06,0,0,0,60,243.28Z"/><path d="M74.26,230.73a8.17,8.17,0,0,1,1.25-4.15,8.45,8.45,0,0,1,2.8-2.65,12,12,0,0,1,3.82-1.42,21.28,21.28,0,0,1,4.28-.43,28,28,0,0,1,4,.28A12.11,12.11,0,0,1,94,223.43a7.17,7.17,0,0,1,2.7,2.23,6.19,6.19,0,0,1,1.05,3.77v13.45a25.78,25.78,0,0,0,.2,3.35,5.86,5.86,0,0,0,.7,2.4h-7.2a8.81,8.81,0,0,1-.33-1.22,10.93,10.93,0,0,1-.17-1.28,9.31,9.31,0,0,1-4,2.45,16,16,0,0,1-4.7.7,12.63,12.63,0,0,1-3.45-.45,7.93,7.93,0,0,1-2.8-1.4,6.48,6.48,0,0,1-1.88-2.4,8.14,8.14,0,0,1-.67-3.45,7.47,7.47,0,0,1,.77-3.62,6.53,6.53,0,0,1,2-2.28,8.84,8.84,0,0,1,2.8-1.27,29,29,0,0,1,3.18-.68c1.06-.17,2.11-.3,3.15-.4a19,19,0,0,0,2.75-.45A4.86,4.86,0,0,0,90,232a2,2,0,0,0,.65-1.68,3.73,3.73,0,0,0-.38-1.82,2.73,2.73,0,0,0-1-1,3.83,3.83,0,0,0-1.45-.5,11,11,0,0,0-1.77-.13,5.39,5.39,0,0,0-3.3.9,4,4,0,0,0-1.4,3ZM90.66,236a3.16,3.16,0,0,1-1.13.63,11.36,11.36,0,0,1-1.45.37c-.52.1-1.06.18-1.62.25s-1.14.15-1.7.25a12.18,12.18,0,0,0-1.58.4,4.5,4.5,0,0,0-1.35.68,3.18,3.18,0,0,0-.92,1.07,3.36,3.36,0,0,0-.35,1.65,3.26,3.26,0,0,0,.35,1.6,2.7,2.7,0,0,0,1,1,4,4,0,0,0,1.4.52,8.88,8.88,0,0,0,1.65.15,6.25,6.25,0,0,0,3.25-.7,4.78,4.78,0,0,0,1.7-1.67,5.41,5.41,0,0,0,.67-2,12.46,12.46,0,0,0,.13-1.6Z"/><path d="M110,222.78v4.8h.1a8.46,8.46,0,0,1,1.35-2.22,8.33,8.33,0,0,1,2-1.75,9.26,9.26,0,0,1,2.35-1.13,8.36,8.36,0,0,1,2.6-.4,5.47,5.47,0,0,1,1.55.25v6.6c-.34-.07-.74-.12-1.2-.17a12.82,12.82,0,0,0-1.35-.08,7.61,7.61,0,0,0-3.3.65,5.71,5.71,0,0,0-2.18,1.78,7,7,0,0,0-1.17,2.62,13.9,13.9,0,0,0-.35,3.25v11.65h-7.1V222.78Z"/><path d="M129.41,242.43a7.29,7.29,0,0,0,8.3.48,4.53,4.53,0,0,0,1.9-2.28h6.25a11.88,11.88,0,0,1-4.6,6.65,13.58,13.58,0,0,1-7.5,2,14.73,14.73,0,0,1-5.5-1,11.36,11.36,0,0,1-4.15-2.78,12.42,12.42,0,0,1-2.63-4.3,15.91,15.91,0,0,1-.92-5.5,15,15,0,0,1,1-5.4,12.55,12.55,0,0,1,6.87-7.2,13.41,13.41,0,0,1,5.38-1,12.31,12.31,0,0,1,5.75,1.28,11.51,11.51,0,0,1,4,3.42,14.14,14.14,0,0,1,2.28,4.9,18.54,18.54,0,0,1,.5,5.75H127.66Q127.81,240.88,129.41,242.43Zm8-13.6a5,5,0,0,0-3.87-1.4,6.09,6.09,0,0,0-2.83.58,5.29,5.29,0,0,0-1.8,1.42,5.22,5.22,0,0,0-1,1.8,8.07,8.07,0,0,0-.32,1.7h11.55A8.25,8.25,0,0,0,137.43,228.83Z"/><path d="M157.26,222.78v3.6h.15a8.08,8.08,0,0,1,3.5-3.27,10,10,0,0,1,4.4-1,12,12,0,0,1,4.67.78,6.84,6.84,0,0,1,2.88,2.15,8.21,8.21,0,0,1,1.47,3.35,21,21,0,0,1,.43,4.37v15.9h-7.1V234a9.11,9.11,0,0,0-1-4.77,3.88,3.88,0,0,0-3.55-1.58,4.9,4.9,0,0,0-4.2,1.73q-1.31,1.72-1.3,5.67v13.55h-7.1V222.78Z"/><path d="M194.36,222.78v4.75h-5.2v12.8a2.4,2.4,0,0,0,3,3c.4,0,.78,0,1.15-.05a8.85,8.85,0,0,0,1.05-.15v5.5a16.29,16.29,0,0,1-2,.2c-.74,0-1.45,0-2.15,0a20.78,20.78,0,0,1-3.13-.22,7.46,7.46,0,0,1-2.6-.88,4.58,4.58,0,0,1-1.77-1.85,6.53,6.53,0,0,1-.65-3.15V227.53h-4.3v-4.75h4.3V215h7.1v7.75Z"/><path d="M211.86,218.78v-5.85H219v5.85Zm7.1,4v25.85h-7.1V222.78Z"/><path d="M230.53,242.21a4.2,4.2,0,0,0,1.23,1.35,5.29,5.29,0,0,0,1.72.77,7.88,7.88,0,0,0,3.6.08,5.46,5.46,0,0,0,1.5-.55,3.5,3.5,0,0,0,1.13-1,2.66,2.66,0,0,0,.45-1.58q0-1.6-2.13-2.4a42.6,42.6,0,0,0-5.92-1.6c-1-.23-2.05-.51-3-.82a10.59,10.59,0,0,1-2.62-1.25,6,6,0,0,1-1.85-2,5.54,5.54,0,0,1-.7-2.88,7.78,7.78,0,0,1,1-4.1,7.08,7.08,0,0,1,2.58-2.52,11.1,11.1,0,0,1,3.6-1.3,22.17,22.17,0,0,1,4.1-.38,20.21,20.21,0,0,1,4.07.4,11,11,0,0,1,3.53,1.35,8.06,8.06,0,0,1,2.57,2.53,8.58,8.58,0,0,1,1.23,4h-6.75a3.1,3.1,0,0,0-1.55-2.77,7,7,0,0,0-3.3-.73,12.23,12.23,0,0,0-1.3.08,4.22,4.22,0,0,0-1.28.32,2.59,2.59,0,0,0-1,.73,1.88,1.88,0,0,0-.4,1.27,1.94,1.94,0,0,0,.7,1.55,5.31,5.31,0,0,0,1.82,1,22.79,22.79,0,0,0,2.58.67c1,.2,1.95.42,2.95.65a29.9,29.9,0,0,1,3,.85,10,10,0,0,1,2.63,1.33,6.49,6.49,0,0,1,1.85,2.05,6,6,0,0,1,.7,3,8.29,8.29,0,0,1-1,4.28,8.14,8.14,0,0,1-2.67,2.77,11.11,11.11,0,0,1-3.78,1.48,22.28,22.28,0,0,1-4.32.42,21.4,21.4,0,0,1-4.4-.45,11.61,11.61,0,0,1-3.83-1.5,8.19,8.19,0,0,1-3.92-7.1h6.75A3.87,3.87,0,0,0,230.53,242.21Z"/><path d="M279.5,222.78v4.75h-5.2v12.8a2.4,2.4,0,0,0,3,3c.41,0,.79,0,1.16-.05a8.39,8.39,0,0,0,1-.15v5.5a16.09,16.09,0,0,1-2,.2c-.73,0-1.45,0-2.14,0a20.69,20.69,0,0,1-3.13-.22,7.46,7.46,0,0,1-2.6-.88,4.58,4.58,0,0,1-1.77-1.85,6.53,6.53,0,0,1-.65-3.15V227.53H262.9v-4.75h4.31V215h7.09v7.75Z"/><path d="M290,212.93v13.45h.15a8.25,8.25,0,0,1,3.45-3.27,9.25,9.25,0,0,1,4.11-1,12,12,0,0,1,4.67.78,6.81,6.81,0,0,1,2.87,2.15,8.09,8.09,0,0,1,1.48,3.35,21,21,0,0,1,.42,4.37v15.9h-7.1V234a9,9,0,0,0-1-4.77,3.86,3.86,0,0,0-3.55-1.58,4.93,4.93,0,0,0-4.2,1.73c-.86,1.15-1.3,3-1.3,5.67v13.55h-7.1v-35.7Z"/><path d="M320.15,242.43a7.29,7.29,0,0,0,8.3.48,4.43,4.43,0,0,0,1.9-2.28h6.25a11.84,11.84,0,0,1-4.6,6.65,13.54,13.54,0,0,1-7.5,2,14.8,14.8,0,0,1-5.5-1,11.53,11.53,0,0,1-4.15-2.78,12.55,12.55,0,0,1-2.62-4.3,15.68,15.68,0,0,1-.93-5.5,15.18,15.18,0,0,1,.95-5.4,12.52,12.52,0,0,1,6.88-7.2,13.4,13.4,0,0,1,5.37-1,12.28,12.28,0,0,1,5.75,1.28,11.46,11.46,0,0,1,4,3.42,14,14,0,0,1,2.27,4.9,18,18,0,0,1,.5,5.75H318.4C318.5,239.73,319.09,241.4,320.15,242.43Zm8-13.6a5,5,0,0,0-3.88-1.4,6.08,6.08,0,0,0-2.82.58,5.29,5.29,0,0,0-1.8,1.42,5.22,5.22,0,0,0-.95,1.8,8.15,8.15,0,0,0-.33,1.7H330A8.16,8.16,0,0,0,328.18,228.83Z"/><path d="M361.13,242.21a4.17,4.17,0,0,0,1.22,1.35,5.34,5.34,0,0,0,1.73.77,7.93,7.93,0,0,0,2,.25,8.11,8.11,0,0,0,1.58-.17,5.46,5.46,0,0,0,1.5-.55,3.47,3.47,0,0,0,1.12-1,2.66,2.66,0,0,0,.45-1.58c0-1.07-.71-1.87-2.12-2.4a42.41,42.41,0,0,0-5.93-1.6c-1-.23-2-.51-3-.82a10.84,10.84,0,0,1-2.63-1.25,6.26,6.26,0,0,1-1.85-2,5.64,5.64,0,0,1-.7-2.88,7.78,7.78,0,0,1,1-4.1,7.13,7.13,0,0,1,2.57-2.52,11.27,11.27,0,0,1,3.6-1.3,22.26,22.26,0,0,1,4.1-.38,20.31,20.31,0,0,1,4.08.4,10.93,10.93,0,0,1,3.52,1.35,8,8,0,0,1,2.58,2.53,8.46,8.46,0,0,1,1.22,4H370.4a3.08,3.08,0,0,0-1.55-2.77,7,7,0,0,0-3.3-.73,12.39,12.39,0,0,0-1.3.08,4.23,4.23,0,0,0-1.27.32,2.71,2.71,0,0,0-1,.73,1.93,1.93,0,0,0-.4,1.27,2,2,0,0,0,.7,1.55,5.46,5.46,0,0,0,1.83,1,23.15,23.15,0,0,0,2.57.67c1,.2,1.95.42,2.95.65a29.37,29.37,0,0,1,3,.85,9.78,9.78,0,0,1,2.62,1.33,6.26,6.26,0,0,1,1.85,2.05,6,6,0,0,1,.7,3,7.81,7.81,0,0,1-3.7,7,11.13,11.13,0,0,1-3.77,1.48,22.3,22.3,0,0,1-4.33.42,21.47,21.47,0,0,1-4.4-.45,11.64,11.64,0,0,1-3.82-1.5,8.47,8.47,0,0,1-2.75-2.77,8.72,8.72,0,0,1-1.18-4.33h6.75A3.87,3.87,0,0,0,361.13,242.21Z"/><path d="M396.2,222.78v4.75H391v12.8a2.4,2.4,0,0,0,3,3c.4,0,.79,0,1.15-.05a8.29,8.29,0,0,0,1.05-.15v5.5a16.09,16.09,0,0,1-2,.2c-.73,0-1.45,0-2.15,0a20.65,20.65,0,0,1-3.12-.22,7.39,7.39,0,0,1-2.6-.88,4.67,4.67,0,0,1-1.78-1.85,6.65,6.65,0,0,1-.65-3.15V227.53h-4.3v-4.75h4.3V215H391v7.75Z"/><path d="M399.3,230.73a8.27,8.27,0,0,1,1.25-4.15,8.64,8.64,0,0,1,2.8-2.65,12.09,12.09,0,0,1,3.83-1.42,21.18,21.18,0,0,1,4.27-.43,27.92,27.92,0,0,1,3.95.28,12,12,0,0,1,3.65,1.07,7.17,7.17,0,0,1,2.7,2.23,6.19,6.19,0,0,1,1.05,3.77v13.45a27.67,27.67,0,0,0,.2,3.35,6,6,0,0,0,.7,2.4h-7.2a10.43,10.43,0,0,1-.32-1.22,11,11,0,0,1-.18-1.28,9.19,9.19,0,0,1-4,2.45,15.93,15.93,0,0,1-4.7.7,12.73,12.73,0,0,1-3.45-.45,8,8,0,0,1-2.8-1.4,6.45,6.45,0,0,1-1.87-2.4,8.13,8.13,0,0,1-.68-3.45,7.47,7.47,0,0,1,.78-3.62,6.43,6.43,0,0,1,2-2.28,8.74,8.74,0,0,1,2.8-1.27,29.36,29.36,0,0,1,3.17-.68c1.07-.17,2.12-.3,3.15-.4a18.79,18.79,0,0,0,2.75-.45,4.86,4.86,0,0,0,1.9-.87,1.92,1.92,0,0,0,.65-1.68,3.74,3.74,0,0,0-.37-1.82,2.81,2.81,0,0,0-1-1,3.9,3.9,0,0,0-1.45-.5,11,11,0,0,0-1.78-.13,5.39,5.39,0,0,0-3.3.9,4,4,0,0,0-1.4,3ZM415.7,236a3.12,3.12,0,0,1-1.12.63,11.8,11.8,0,0,1-1.45.37c-.52.1-1.06.18-1.63.25s-1.13.15-1.7.25a12,12,0,0,0-1.57.4,4.5,4.5,0,0,0-1.35.68,3.21,3.21,0,0,0-.93,1.07,3.48,3.48,0,0,0-.35,1.65,3.38,3.38,0,0,0,.35,1.6,2.78,2.78,0,0,0,.95,1,4,4,0,0,0,1.4.52,8.88,8.88,0,0,0,1.65.15,6.23,6.23,0,0,0,3.25-.7,4.62,4.62,0,0,0,1.7-1.67,5.43,5.43,0,0,0,.68-2,14.18,14.18,0,0,0,.12-1.6Z"/><path d="M442.5,222.78v4.75h-5.2v12.8a2.4,2.4,0,0,0,3,3c.4,0,.78,0,1.15-.05a8.29,8.29,0,0,0,1.05-.15v5.5a16.29,16.29,0,0,1-2,.2c-.73,0-1.45,0-2.15,0a20.65,20.65,0,0,1-3.12-.22,7.39,7.39,0,0,1-2.6-.88,4.67,4.67,0,0,1-1.78-1.85,6.65,6.65,0,0,1-.65-3.15V227.53h-4.3v-4.75h4.3V215h7.1v7.75Z"/><path d="M453.5,242.43a7.29,7.29,0,0,0,8.3.48,4.48,4.48,0,0,0,1.9-2.28H470a11.84,11.84,0,0,1-4.6,6.65,13.54,13.54,0,0,1-7.5,2,14.76,14.76,0,0,1-5.5-1,11.45,11.45,0,0,1-4.15-2.78,12.4,12.4,0,0,1-2.62-4.3,15.68,15.68,0,0,1-.93-5.5,15.18,15.18,0,0,1,1-5.4,12.46,12.46,0,0,1,2.7-4.32,12.69,12.69,0,0,1,4.18-2.88,13.33,13.33,0,0,1,5.37-1,12.28,12.28,0,0,1,5.75,1.28,11.54,11.54,0,0,1,4,3.42,14.13,14.13,0,0,1,2.27,4.9,18,18,0,0,1,.5,5.75H451.75Q451.9,240.88,453.5,242.43Zm8-13.6a5,5,0,0,0-3.88-1.4,6.08,6.08,0,0,0-2.82.58,5.29,5.29,0,0,0-1.8,1.42,5.22,5.22,0,0,0-.95,1.8,8.15,8.15,0,0,0-.33,1.7H463.3A8.16,8.16,0,0,0,461.53,228.83Z"/><path d="M482.75,240.93v7.7H474.9v-7.7Z"/><path d="M500.35,219.53v-6.6H529.6v6.6H518.9v29.1h-7.85v-29.1Z"/><path d="M540.05,212.93v13.45h.15a8.19,8.19,0,0,1,3.45-3.27,9.24,9.24,0,0,1,4.1-1,12,12,0,0,1,4.68.78A6.87,6.87,0,0,1,555.3,225a8.36,8.36,0,0,1,1.48,3.35,21,21,0,0,1,.42,4.37v15.9h-7.1V234a9,9,0,0,0-1-4.77,3.88,3.88,0,0,0-3.55-1.58,4.93,4.93,0,0,0-4.2,1.73q-1.3,1.72-1.3,5.67v13.55H533v-35.7Z"/><path d="M570.2,242.43a7.29,7.29,0,0,0,8.3.48,4.48,4.48,0,0,0,1.9-2.28h6.25a11.84,11.84,0,0,1-4.6,6.65,13.58,13.58,0,0,1-7.5,2,14.76,14.76,0,0,1-5.5-1,11.45,11.45,0,0,1-4.15-2.78,12.4,12.4,0,0,1-2.62-4.3,15.68,15.68,0,0,1-.93-5.5,15.18,15.18,0,0,1,.95-5.4A12.46,12.46,0,0,1,565,226a12.69,12.69,0,0,1,4.18-2.88,13.33,13.33,0,0,1,5.37-1,12.28,12.28,0,0,1,5.75,1.28,11.54,11.54,0,0,1,4,3.42,14.13,14.13,0,0,1,2.27,4.9,18.24,18.24,0,0,1,.5,5.75H568.45Q568.6,240.88,570.2,242.43Zm8-13.6a5,5,0,0,0-3.88-1.4,6.08,6.08,0,0,0-2.82.58,5.29,5.29,0,0,0-1.8,1.42,5.22,5.22,0,0,0-1,1.8,7.55,7.55,0,0,0-.33,1.7H580A8.16,8.16,0,0,0,578.23,228.83Z"/><path d="M611.17,242.21a4.2,4.2,0,0,0,1.23,1.35,5.29,5.29,0,0,0,1.72.77,7.88,7.88,0,0,0,3.6.08,5.23,5.23,0,0,0,1.5-.55,3.5,3.5,0,0,0,1.13-1,2.66,2.66,0,0,0,.45-1.58q0-1.6-2.13-2.4a42.2,42.2,0,0,0-5.92-1.6c-1-.23-2-.51-3-.82a10.77,10.77,0,0,1-2.62-1.25,6.15,6.15,0,0,1-1.85-2,5.54,5.54,0,0,1-.7-2.88,7.78,7.78,0,0,1,1-4.1,7,7,0,0,1,2.57-2.52,11.27,11.27,0,0,1,3.6-1.3,22.17,22.17,0,0,1,4.1-.38,20.31,20.31,0,0,1,4.08.4,10.93,10.93,0,0,1,3.52,1.35,8.06,8.06,0,0,1,2.57,2.53,8.35,8.35,0,0,1,1.23,4h-6.75a3.1,3.1,0,0,0-1.55-2.77,7,7,0,0,0-3.3-.73,12.39,12.39,0,0,0-1.3.08,4.15,4.15,0,0,0-1.27.32,2.63,2.63,0,0,0-1,.73,1.88,1.88,0,0,0-.4,1.27,1.94,1.94,0,0,0,.7,1.55,5.41,5.41,0,0,0,1.82,1,22.79,22.79,0,0,0,2.58.67c1,.2,2,.42,3,.65a29.9,29.9,0,0,1,3,.85,9.84,9.84,0,0,1,2.63,1.33,6.37,6.37,0,0,1,1.85,2.05,6,6,0,0,1,.7,3,7.81,7.81,0,0,1-3.7,7,11.11,11.11,0,0,1-3.78,1.48,22.13,22.13,0,0,1-4.32.42,21.4,21.4,0,0,1-4.4-.45,11.56,11.56,0,0,1-3.82-1.5,8.59,8.59,0,0,1-2.76-2.77,8.83,8.83,0,0,1-1.17-4.33h6.75A4,4,0,0,0,611.17,242.21Z"/><path d="M646.25,222.78v4.75h-5.2v12.8a2.4,2.4,0,0,0,3,3c.4,0,.78,0,1.15-.05a8.29,8.29,0,0,0,1-.15v5.5a16.29,16.29,0,0,1-2,.2c-.73,0-1.45,0-2.15,0a20.88,20.88,0,0,1-3.13-.22,7.34,7.34,0,0,1-2.59-.88,4.54,4.54,0,0,1-1.78-1.85,6.65,6.65,0,0,1-.65-3.15V227.53h-4.3v-4.75H634V215h7.1v7.75Z"/><path d="M649.35,230.73a8.27,8.27,0,0,1,1.25-4.15,8.55,8.55,0,0,1,2.8-2.65,12,12,0,0,1,3.82-1.42,21.36,21.36,0,0,1,4.28-.43,27.92,27.92,0,0,1,4,.28,12.11,12.11,0,0,1,3.65,1.07,7.17,7.17,0,0,1,2.7,2.23,6.19,6.19,0,0,1,1.05,3.77v13.45a27.67,27.67,0,0,0,.2,3.35,6,6,0,0,0,.7,2.4h-7.2c-.13-.4-.24-.81-.33-1.22a10.93,10.93,0,0,1-.17-1.28,9.25,9.25,0,0,1-4,2.45,15.93,15.93,0,0,1-4.7.7,12.73,12.73,0,0,1-3.45-.45,7.93,7.93,0,0,1-2.8-1.4,6.48,6.48,0,0,1-1.88-2.4,8.14,8.14,0,0,1-.67-3.45,7.59,7.59,0,0,1,.77-3.62,6.63,6.63,0,0,1,2-2.28,8.84,8.84,0,0,1,2.8-1.27,29,29,0,0,1,3.18-.68c1.07-.17,2.12-.3,3.15-.4a19,19,0,0,0,2.75-.45,4.86,4.86,0,0,0,1.9-.87,1.94,1.94,0,0,0,.65-1.68,3.73,3.73,0,0,0-.38-1.82,2.73,2.73,0,0,0-1-1,3.83,3.83,0,0,0-1.45-.5,11,11,0,0,0-1.77-.13,5.39,5.39,0,0,0-3.3.9,4,4,0,0,0-1.4,3Zm16.4,5.25a3.16,3.16,0,0,1-1.13.63,11.36,11.36,0,0,1-1.45.37c-.51.1-1,.18-1.62.25s-1.13.15-1.7.25a12.61,12.61,0,0,0-1.58.4,4.75,4.75,0,0,0-1.35.68,3.18,3.18,0,0,0-.92,1.07,3.48,3.48,0,0,0-.35,1.65,3.38,3.38,0,0,0,.35,1.6,2.7,2.7,0,0,0,1,1,4,4,0,0,0,1.4.52,8.88,8.88,0,0,0,1.65.15,6.25,6.25,0,0,0,3.25-.7,4.7,4.7,0,0,0,1.7-1.67,5.23,5.23,0,0,0,.67-2,12.46,12.46,0,0,0,.13-1.6Z"/><path d="M692.55,222.78v4.75h-5.2v12.8a2.4,2.4,0,0,0,3,3c.4,0,.78,0,1.15-.05a8.56,8.56,0,0,0,1-.15v5.5a16.29,16.29,0,0,1-2,.2c-.74,0-1.45,0-2.15,0a20.88,20.88,0,0,1-3.13-.22,7.46,7.46,0,0,1-2.6-.88,4.58,4.58,0,0,1-1.77-1.85,6.53,6.53,0,0,1-.65-3.15V227.53H676v-4.75h4.3V215h7.1v7.75Z"/><path d="M703.55,242.43a7.29,7.29,0,0,0,8.3.48,4.53,4.53,0,0,0,1.9-2.28H720a11.88,11.88,0,0,1-4.6,6.65,13.58,13.58,0,0,1-7.5,2,14.73,14.73,0,0,1-5.5-1,11.36,11.36,0,0,1-4.15-2.78,12.42,12.42,0,0,1-2.63-4.3,15.91,15.91,0,0,1-.92-5.5,15,15,0,0,1,.95-5.4,12.46,12.46,0,0,1,2.7-4.32,12.65,12.65,0,0,1,4.17-2.88,13.41,13.41,0,0,1,5.38-1,12.31,12.31,0,0,1,5.75,1.28,11.51,11.51,0,0,1,4,3.42,14.14,14.14,0,0,1,2.28,4.9,18.54,18.54,0,0,1,.5,5.75H701.8Q702,240.88,703.55,242.43Zm8-13.6a5,5,0,0,0-3.87-1.4,6.09,6.09,0,0,0-2.83.58,5.29,5.29,0,0,0-1.8,1.42,5.4,5.4,0,0,0-1,1.8,8.07,8.07,0,0,0-.32,1.7h11.55A8.25,8.25,0,0,0,711.57,228.83Z"/><path d="M738.75,218.78v-5.85h7.1v5.85Zm7.1,4v25.85h-7.1V222.78Z"/><path d="M757.42,242.21a4.2,4.2,0,0,0,1.23,1.35,5.29,5.29,0,0,0,1.72.77,7.88,7.88,0,0,0,3.6.08,5.46,5.46,0,0,0,1.5-.55,3.5,3.5,0,0,0,1.13-1,2.66,2.66,0,0,0,.45-1.58q0-1.6-2.13-2.4a42.6,42.6,0,0,0-5.92-1.6c-1-.23-2-.51-3-.82a10.59,10.59,0,0,1-2.62-1.25,6,6,0,0,1-1.85-2,5.54,5.54,0,0,1-.7-2.88,7.78,7.78,0,0,1,1-4.1,7.08,7.08,0,0,1,2.58-2.52,11.1,11.1,0,0,1,3.6-1.3,22.17,22.17,0,0,1,4.1-.38,20.21,20.21,0,0,1,4.07.4,11,11,0,0,1,3.53,1.35,8.06,8.06,0,0,1,2.57,2.53,8.46,8.46,0,0,1,1.23,4H766.7a3.1,3.1,0,0,0-1.55-2.77,7,7,0,0,0-3.3-.73,12.23,12.23,0,0,0-1.3.08,4.29,4.29,0,0,0-1.28.32,2.59,2.59,0,0,0-1,.73,1.88,1.88,0,0,0-.4,1.27,1.94,1.94,0,0,0,.7,1.55,5.31,5.31,0,0,0,1.82,1,22.79,22.79,0,0,0,2.58.67c1,.2,2,.42,3,.65a29.9,29.9,0,0,1,3,.85,9.84,9.84,0,0,1,2.63,1.33,6.49,6.49,0,0,1,1.85,2.05,6,6,0,0,1,.7,3,8.29,8.29,0,0,1-1,4.28,8.14,8.14,0,0,1-2.67,2.77,11.11,11.11,0,0,1-3.78,1.48,22.28,22.28,0,0,1-4.32.42,21.4,21.4,0,0,1-4.4-.45,11.61,11.61,0,0,1-3.83-1.5,8.56,8.56,0,0,1-2.75-2.77,8.72,8.72,0,0,1-1.17-4.33H757A3.87,3.87,0,0,0,757.42,242.21Z"/><path d="M50.76,295.78v3.6h.15a8.08,8.08,0,0,1,3.5-3.27,10,10,0,0,1,4.4-1,11.94,11.94,0,0,1,4.67.78A6.84,6.84,0,0,1,66.36,298a8.21,8.21,0,0,1,1.47,3.35,20.29,20.29,0,0,1,.43,4.37v15.9h-7.1V307a9.11,9.11,0,0,0-1-4.77,3.88,3.88,0,0,0-3.55-1.58,4.9,4.9,0,0,0-4.2,1.73q-1.3,1.72-1.3,5.67v13.55H44V295.78Z"/><path d="M73.81,303.11a11.82,11.82,0,0,1,6.9-7.05,14.73,14.73,0,0,1,5.5-1,15,15,0,0,1,5.52,1A12,12,0,0,1,96,298.81a12.2,12.2,0,0,1,2.7,4.3,17,17,0,0,1,0,11.22,12.39,12.39,0,0,1-2.7,4.28,11.81,11.81,0,0,1-4.23,2.72,15.37,15.37,0,0,1-5.52.95,15.14,15.14,0,0,1-5.5-.95,11.68,11.68,0,0,1-4.2-2.72,12.11,12.11,0,0,1-2.7-4.28,17,17,0,0,1,0-11.22Zm6.45,8.65a8.21,8.21,0,0,0,1,2.65,5.49,5.49,0,0,0,1.93,1.87,5.84,5.84,0,0,0,3,.7,6,6,0,0,0,3-.7,5.39,5.39,0,0,0,2-1.87,8.23,8.23,0,0,0,1-2.65,15.26,15.26,0,0,0,.3-3,15.54,15.54,0,0,0-.3-3.05,7.88,7.88,0,0,0-1-2.65,5.55,5.55,0,0,0-2-1.87,5.77,5.77,0,0,0-3-.73,5.5,5.5,0,0,0-4.93,2.6,7.87,7.87,0,0,0-1,2.65,15.54,15.54,0,0,0-.3,3.05A15.26,15.26,0,0,0,80.26,311.76Z"/><path d="M118.41,295.78v4.75h-5.2v12.8a2.4,2.4,0,0,0,3,3c.4,0,.78,0,1.15-.05a8.85,8.85,0,0,0,1-.15v5.5a16.29,16.29,0,0,1-2,.2c-.74,0-1.45.05-2.15.05a20.78,20.78,0,0,1-3.13-.22,7.46,7.46,0,0,1-2.6-.88,4.58,4.58,0,0,1-1.77-1.85,6.53,6.53,0,0,1-.65-3.15V300.53h-4.3v-4.75h4.3V288h7.1v7.75Z"/><path d="M135.41,303.73a8.17,8.17,0,0,1,1.25-4.15,8.45,8.45,0,0,1,2.8-2.65,12,12,0,0,1,3.82-1.42,21.28,21.28,0,0,1,4.28-.43,28,28,0,0,1,3.95.28,12.11,12.11,0,0,1,3.65,1.07,7.17,7.17,0,0,1,2.7,2.23,6.19,6.19,0,0,1,1,3.77v13.45a25.78,25.78,0,0,0,.2,3.35,5.86,5.86,0,0,0,.7,2.4h-7.2a8.81,8.81,0,0,1-.33-1.22,10.93,10.93,0,0,1-.17-1.28,9.31,9.31,0,0,1-4,2.45,16,16,0,0,1-4.7.7,12.63,12.63,0,0,1-3.45-.45,7.93,7.93,0,0,1-2.8-1.4,6.48,6.48,0,0,1-1.88-2.4,8.14,8.14,0,0,1-.67-3.45,7.47,7.47,0,0,1,.77-3.62,6.53,6.53,0,0,1,2-2.28,8.84,8.84,0,0,1,2.8-1.27,29,29,0,0,1,3.18-.68c1.06-.17,2.11-.3,3.15-.4a19,19,0,0,0,2.75-.45,4.86,4.86,0,0,0,1.9-.87,2,2,0,0,0,.65-1.68,3.73,3.73,0,0,0-.38-1.82,2.73,2.73,0,0,0-1-1.05A3.9,3.9,0,0,0,149,300a11,11,0,0,0-1.77-.13,5.39,5.39,0,0,0-3.3.9,4,4,0,0,0-1.4,3Zm16.4,5.25a3.16,3.16,0,0,1-1.13.63,11.36,11.36,0,0,1-1.45.37c-.52.1-1.06.18-1.62.25s-1.14.15-1.7.25a12.18,12.18,0,0,0-1.58.4,4.5,4.5,0,0,0-1.35.68,3.18,3.18,0,0,0-.92,1.07,3.36,3.36,0,0,0-.35,1.65,3.26,3.26,0,0,0,.35,1.6,2.7,2.7,0,0,0,.95,1,4,4,0,0,0,1.4.52,8.88,8.88,0,0,0,1.65.15,6.25,6.25,0,0,0,3.25-.7,4.78,4.78,0,0,0,1.7-1.67,5.41,5.41,0,0,0,.67-2,14.61,14.61,0,0,0,.13-1.6Z"/><path d="M185.06,295.78v3.3h.1a7.71,7.71,0,0,1,3.3-3.05,10.16,10.16,0,0,1,4.4-.95,11.17,11.17,0,0,1,5.25,1.15,10.94,10.94,0,0,1,3.65,3,13.06,13.06,0,0,1,2.15,4.43,19.89,19.89,0,0,1,.7,5.27,18,18,0,0,1-.7,5,12.77,12.77,0,0,1-2.13,4.25,10.5,10.5,0,0,1-3.55,2.95,10.71,10.71,0,0,1-5,1.1,10.08,10.08,0,0,1-4.43-1,8.3,8.3,0,0,1-3.32-2.88h-.1v12.25h-7.1v-34.9Zm9.22,20.5a5.71,5.71,0,0,0,1.9-1.82,7.61,7.61,0,0,0,1-2.63,15.54,15.54,0,0,0,.3-3.05,14.18,14.18,0,0,0-.33-3,8.13,8.13,0,0,0-1.07-2.67,5.94,5.94,0,0,0-1.93-1.9,5.3,5.3,0,0,0-2.87-.73,5.42,5.42,0,0,0-2.93.73,5.76,5.76,0,0,0-1.9,1.87,7.87,7.87,0,0,0-1,2.65,15.75,15.75,0,0,0-.3,3.1,14.17,14.17,0,0,0,.32,3.05,8.05,8.05,0,0,0,1.05,2.63,6.06,6.06,0,0,0,7.75,1.82Z"/><path d="M208.55,303.73a8.37,8.37,0,0,1,1.25-4.15,8.58,8.58,0,0,1,2.81-2.65,12,12,0,0,1,3.82-1.42,21.28,21.28,0,0,1,4.28-.43,28,28,0,0,1,3.95.28,12,12,0,0,1,3.64,1.07,7.21,7.21,0,0,1,2.71,2.23,6.19,6.19,0,0,1,1,3.77v13.45a25.74,25.74,0,0,0,.21,3.35,5.86,5.86,0,0,0,.7,2.4h-7.2a8.81,8.81,0,0,1-.33-1.22,10.93,10.93,0,0,1-.17-1.28,9.31,9.31,0,0,1-4,2.45,16,16,0,0,1-4.71.7,12.61,12.61,0,0,1-3.44-.45,8.06,8.06,0,0,1-2.81-1.4,6.55,6.55,0,0,1-1.87-2.4,8.14,8.14,0,0,1-.67-3.45,7.47,7.47,0,0,1,.77-3.62,6.53,6.53,0,0,1,2-2.28,8.84,8.84,0,0,1,2.8-1.27,29,29,0,0,1,3.18-.68c1.06-.17,2.11-.3,3.15-.4a19,19,0,0,0,2.75-.45,4.75,4.75,0,0,0,1.89-.87,2,2,0,0,0,.66-1.68,3.73,3.73,0,0,0-.38-1.82,2.73,2.73,0,0,0-1-1.05,3.9,3.9,0,0,0-1.45-.5,11,11,0,0,0-1.77-.13,5.44,5.44,0,0,0-3.31.9,4,4,0,0,0-1.39,3ZM225,309a3.16,3.16,0,0,1-1.13.63,11.36,11.36,0,0,1-1.45.37c-.52.1-1.06.18-1.62.25s-1.14.15-1.71.25a12.46,12.46,0,0,0-1.57.4,4.5,4.5,0,0,0-1.35.68,3.18,3.18,0,0,0-.92,1.07,3.36,3.36,0,0,0-.35,1.65,3.26,3.26,0,0,0,.35,1.6,2.7,2.7,0,0,0,.95,1,3.9,3.9,0,0,0,1.39.52,9.07,9.07,0,0,0,1.66.15,6.25,6.25,0,0,0,3.25-.7,4.78,4.78,0,0,0,1.7-1.67,5.41,5.41,0,0,0,.67-2,14.61,14.61,0,0,0,.13-1.6Z"/><path d="M244.3,295.78v4.8h.1a9,9,0,0,1,1.35-2.22,8.58,8.58,0,0,1,2-1.75,9.36,9.36,0,0,1,2.34-1.13,8.41,8.41,0,0,1,2.6-.4,5.48,5.48,0,0,1,1.56.25v6.6c-.34-.07-.74-.12-1.21-.17a12.52,12.52,0,0,0-1.35-.08,7.57,7.57,0,0,0-3.29.65,5.71,5.71,0,0,0-2.18,1.78,7.21,7.21,0,0,0-1.18,2.62,14.46,14.46,0,0,0-.35,3.25v11.65h-7.1V295.78Z"/><path d="M263.71,315.43A6.33,6.33,0,0,0,268.3,317a6.41,6.41,0,0,0,3.71-1.07,4.53,4.53,0,0,0,1.9-2.28h6.25a11.85,11.85,0,0,1-4.61,6.65,13.54,13.54,0,0,1-7.5,2,14.8,14.8,0,0,1-5.5-1,11.41,11.41,0,0,1-4.14-2.78,12.42,12.42,0,0,1-2.63-4.3,15.68,15.68,0,0,1-.92-5.5,15.17,15.17,0,0,1,.94-5.4,12.6,12.6,0,0,1,6.88-7.2,13.4,13.4,0,0,1,5.37-1.05,12.25,12.25,0,0,1,5.75,1.28,11.46,11.46,0,0,1,4,3.42,14.14,14.14,0,0,1,2.28,4.9,18.54,18.54,0,0,1,.5,5.75H262C262.05,312.73,262.64,314.4,263.71,315.43Zm8-13.6a5,5,0,0,0-3.87-1.4A6.09,6.09,0,0,0,265,301a5.29,5.29,0,0,0-1.8,1.42,5.22,5.22,0,0,0-1,1.8,8.07,8.07,0,0,0-.32,1.7h11.55A8.25,8.25,0,0,0,271.73,301.83Z"/><path d="M291.55,295.78v3.6h.16a8.08,8.08,0,0,1,3.5-3.27,10,10,0,0,1,4.4-1,12,12,0,0,1,4.67.78,6.75,6.75,0,0,1,2.87,2.15,8.09,8.09,0,0,1,1.48,3.35,21,21,0,0,1,.42,4.37v15.9H302V307a9.11,9.11,0,0,0-1-4.77,3.89,3.89,0,0,0-3.56-1.58,4.9,4.9,0,0,0-4.19,1.73q-1.31,1.72-1.31,5.67v13.55h-7.1V295.78Z"/><path d="M328.65,295.78v4.75h-5.19v12.8a2.4,2.4,0,0,0,3,3c.39,0,.78,0,1.14-.05a8.29,8.29,0,0,0,1-.15v5.5a16.09,16.09,0,0,1-2,.2c-.73,0-1.44.05-2.15.05a20.65,20.65,0,0,1-3.12-.22,7.46,7.46,0,0,1-2.6-.88,4.67,4.67,0,0,1-1.78-1.85,6.65,6.65,0,0,1-.65-3.15V300.53h-4.3v-4.75h4.3V288h7.11v7.75Z"/><path d="M340.25,313.93v7.7a7.84,7.84,0,0,1-.62,3.13,8.06,8.06,0,0,1-1.68,2.47,8.77,8.77,0,0,1-2.47,1.73,11.1,11.1,0,0,1-3,.92v-3.6a4,4,0,0,0,1.43-.6,5.2,5.2,0,0,0,1.17-1.07,4.22,4.22,0,0,0,.75-1.4,4.07,4.07,0,0,0,.2-1.58h-3.6v-7.7Z"/><path d="M360.05,291.78v-5.85h7.1v5.85Zm7.1,4v25.85h-7.1V295.78Z"/><path d="M387,295.78v4.75h-5.2v12.8a2.4,2.4,0,0,0,3,3c.4,0,.79,0,1.15-.05a8.29,8.29,0,0,0,1.05-.15v5.5a16.09,16.09,0,0,1-2,.2c-.73,0-1.45.05-2.15.05a20.65,20.65,0,0,1-3.12-.22,7.46,7.46,0,0,1-2.6-.88,4.67,4.67,0,0,1-1.78-1.85,6.65,6.65,0,0,1-.65-3.15V300.53h-4.3v-4.75h4.3V288h7.1v7.75Z"/><path d="M416.6,300.43a5,5,0,0,0-2.85.78,6.08,6.08,0,0,0-1.87,2,8.37,8.37,0,0,0-1,2.7,14.55,14.55,0,0,0-.3,2.92,14.09,14.09,0,0,0,.3,2.85,8.89,8.89,0,0,0,1,2.63,5.66,5.66,0,0,0,1.82,1.92,5,5,0,0,0,2.8.75,5.22,5.22,0,0,0,3.93-1.42,6.77,6.77,0,0,0,1.72-3.83H429a11.69,11.69,0,0,1-4,7.85,12.9,12.9,0,0,1-8.45,2.7,14.11,14.11,0,0,1-5.32-1,11.82,11.82,0,0,1-4.13-2.73,12.65,12.65,0,0,1-2.65-4.17,14.6,14.6,0,0,1-.95-5.33,17,17,0,0,1,.88-5.57,12.5,12.5,0,0,1,2.57-4.45,11.89,11.89,0,0,1,4.15-2.93,14.12,14.12,0,0,1,5.6-1.05,16.23,16.23,0,0,1,4.43.6,11.85,11.85,0,0,1,3.8,1.83,9.45,9.45,0,0,1,3.92,7.37h-6.95Q421.16,300.43,416.6,300.43Z"/><path d="M432.65,303.73a8.27,8.27,0,0,1,1.25-4.15,8.64,8.64,0,0,1,2.8-2.65,12.09,12.09,0,0,1,3.83-1.42,21.18,21.18,0,0,1,4.27-.43,27.92,27.92,0,0,1,3.95.28,12,12,0,0,1,3.65,1.07,7.17,7.17,0,0,1,2.7,2.23,6.19,6.19,0,0,1,1,3.77v13.45a27.67,27.67,0,0,0,.2,3.35,6.19,6.19,0,0,0,.7,2.4h-7.2a10.43,10.43,0,0,1-.32-1.22,11,11,0,0,1-.18-1.28,9.19,9.19,0,0,1-4,2.45,15.93,15.93,0,0,1-4.7.7,12.73,12.73,0,0,1-3.45-.45,8,8,0,0,1-2.8-1.4,6.45,6.45,0,0,1-1.87-2.4,8.13,8.13,0,0,1-.68-3.45,7.47,7.47,0,0,1,.78-3.62,6.43,6.43,0,0,1,2-2.28,8.74,8.74,0,0,1,2.8-1.27,29.36,29.36,0,0,1,3.17-.68c1.07-.17,2.12-.3,3.15-.4a18.79,18.79,0,0,0,2.75-.45,4.79,4.79,0,0,0,1.9-.87,1.92,1.92,0,0,0,.65-1.68,3.74,3.74,0,0,0-.37-1.82,2.81,2.81,0,0,0-1-1.05,3.9,3.9,0,0,0-1.45-.5,11,11,0,0,0-1.78-.13,5.39,5.39,0,0,0-3.3.9,4,4,0,0,0-1.4,3Zm16.4,5.25a3.12,3.12,0,0,1-1.12.63,11.8,11.8,0,0,1-1.45.37c-.52.1-1.06.18-1.63.25s-1.13.15-1.7.25a12,12,0,0,0-1.57.4,4.5,4.5,0,0,0-1.35.68,3.21,3.21,0,0,0-.93,1.07,3.48,3.48,0,0,0-.35,1.65,3.38,3.38,0,0,0,.35,1.6,2.78,2.78,0,0,0,.95,1,4,4,0,0,0,1.4.52,9,9,0,0,0,1.65.15,6.23,6.23,0,0,0,3.25-.7,4.62,4.62,0,0,0,1.7-1.67,5.43,5.43,0,0,0,.68-2,14.18,14.18,0,0,0,.12-1.6Z"/><path d="M468.4,295.78v3.6h.15a8.13,8.13,0,0,1,3.5-3.27,10.06,10.06,0,0,1,4.4-1,12,12,0,0,1,4.68.78A6.87,6.87,0,0,1,484,298a8.36,8.36,0,0,1,1.48,3.35,21,21,0,0,1,.42,4.37v15.9h-7.1V307a9,9,0,0,0-1-4.77,3.88,3.88,0,0,0-3.55-1.58,4.93,4.93,0,0,0-4.2,1.73c-.86,1.15-1.3,3-1.3,5.67v13.55h-7.1V295.78Z"/><path d="M498.05,295.78v3.6h.15a8.13,8.13,0,0,1,3.5-3.27,10,10,0,0,1,4.4-1,12,12,0,0,1,4.68.78,6.87,6.87,0,0,1,2.87,2.15,8.36,8.36,0,0,1,1.48,3.35,21,21,0,0,1,.42,4.37v15.9h-7.1V307a9,9,0,0,0-1-4.77,3.87,3.87,0,0,0-3.55-1.58,4.93,4.93,0,0,0-4.2,1.73q-1.31,1.72-1.3,5.67v13.55h-7.1V295.78Z"/><path d="M521.1,303.11a11.93,11.93,0,0,1,2.7-4.3,12.07,12.07,0,0,1,4.2-2.75,14.76,14.76,0,0,1,5.5-1,15,15,0,0,1,5.53,1,11.78,11.78,0,0,1,6.92,7.05,17,17,0,0,1,0,11.22,12.11,12.11,0,0,1-2.7,4.28,11.76,11.76,0,0,1-4.22,2.72,15.42,15.42,0,0,1-5.53.95,15.18,15.18,0,0,1-5.5-.95,11.86,11.86,0,0,1-4.2-2.72,12.11,12.11,0,0,1-2.7-4.28,17,17,0,0,1,0-11.22Zm6.45,8.65a8,8,0,0,0,1,2.65,5.46,5.46,0,0,0,1.92,1.87,5.84,5.84,0,0,0,3,.7,6,6,0,0,0,3-.7,5.55,5.55,0,0,0,2-1.87,8.21,8.21,0,0,0,1-2.65,15.26,15.26,0,0,0,.3-3,15.54,15.54,0,0,0-.3-3.05,7.87,7.87,0,0,0-1-2.65,5.73,5.73,0,0,0-2-1.87,5.81,5.81,0,0,0-3-.73,5.47,5.47,0,0,0-4.92,2.6,7.68,7.68,0,0,0-1,2.65,15.54,15.54,0,0,0-.3,3.05A15.26,15.26,0,0,0,527.55,311.76Z"/><path d="M565.7,295.78v4.75h-5.2v12.8a2.4,2.4,0,0,0,3,3c.4,0,.78,0,1.15-.05a8.29,8.29,0,0,0,1.05-.15v5.5a16.29,16.29,0,0,1-2,.2c-.73,0-1.45.05-2.15.05a20.65,20.65,0,0,1-3.12-.22,7.39,7.39,0,0,1-2.6-.88,4.6,4.6,0,0,1-1.78-1.85,6.65,6.65,0,0,1-.65-3.15V300.53h-4.3v-4.75h4.3V288h7.1v7.75Z"/><path d="M589.75,295.78v3.3h.1a7.83,7.83,0,0,1,3.3-3.05,10.16,10.16,0,0,1,4.4-.95,11.17,11.17,0,0,1,5.25,1.15,10.84,10.84,0,0,1,3.65,3,12.88,12.88,0,0,1,2.15,4.43,19.49,19.49,0,0,1,.7,5.27,17.66,17.66,0,0,1-.7,5,12.75,12.75,0,0,1-2.12,4.25,10.59,10.59,0,0,1-3.55,2.95,10.75,10.75,0,0,1-5,1.1,10,10,0,0,1-4.42-1,8.4,8.4,0,0,1-3.33-2.88h-.1v12.25H583v-34.9Zm9.23,20.5a5.8,5.8,0,0,0,1.9-1.82,7.6,7.6,0,0,0,1-2.63,15.54,15.54,0,0,0,.3-3.05,14.83,14.83,0,0,0-.32-3,8.14,8.14,0,0,0-1.08-2.67,5.91,5.91,0,0,0-1.92-1.9,6.13,6.13,0,0,0-5.8,0,5.66,5.66,0,0,0-1.9,1.87,7.68,7.68,0,0,0-1,2.65,15.75,15.75,0,0,0-.3,3.1,14.18,14.18,0,0,0,.33,3.05,7.64,7.64,0,0,0,1.05,2.63,6.06,6.06,0,0,0,7.75,1.82Z"/><path d="M620.3,295.78v4.8h.1a8.46,8.46,0,0,1,1.35-2.22,8.74,8.74,0,0,1,2-1.75,9.43,9.43,0,0,1,2.35-1.13,8.36,8.36,0,0,1,2.6-.4,5.42,5.42,0,0,1,1.55.25v6.6c-.33-.07-.73-.12-1.2-.17a12.82,12.82,0,0,0-1.35-.08,7.61,7.61,0,0,0-3.3.65,5.68,5.68,0,0,0-2.17,1.78,7,7,0,0,0-1.18,2.62,14.46,14.46,0,0,0-.35,3.25v11.65h-7.1V295.78Z"/><path d="M632.25,303.11a11.93,11.93,0,0,1,2.7-4.3,12.07,12.07,0,0,1,4.2-2.75,14.76,14.76,0,0,1,5.5-1,15,15,0,0,1,5.53,1,11.78,11.78,0,0,1,6.92,7.05,17,17,0,0,1,0,11.22,12.11,12.11,0,0,1-2.7,4.28,11.76,11.76,0,0,1-4.22,2.72,15.42,15.42,0,0,1-5.53.95,15.18,15.18,0,0,1-5.5-.95,11.86,11.86,0,0,1-4.2-2.72,12.11,12.11,0,0,1-2.7-4.28,17,17,0,0,1,0-11.22Zm6.45,8.65a8,8,0,0,0,1,2.65,5.46,5.46,0,0,0,1.92,1.87,5.84,5.84,0,0,0,3,.7,6,6,0,0,0,3-.7,5.44,5.44,0,0,0,1.94-1.87,8,8,0,0,0,1-2.65,15.26,15.26,0,0,0,.3-3,15.54,15.54,0,0,0-.3-3.05,7.68,7.68,0,0,0-1-2.65,5.61,5.61,0,0,0-1.94-1.87,5.81,5.81,0,0,0-3-.73,5.47,5.47,0,0,0-4.92,2.6,7.68,7.68,0,0,0-1,2.65,15.54,15.54,0,0,0-.3,3.05A15.26,15.26,0,0,0,638.7,311.76Z"/><path d="M669.4,295.78v3.3h.1a7.83,7.83,0,0,1,3.3-3.05,10.16,10.16,0,0,1,4.4-.95,11.17,11.17,0,0,1,5.25,1.15,10.84,10.84,0,0,1,3.65,3,12.88,12.88,0,0,1,2.15,4.43A19.49,19.49,0,0,1,689,309a17.66,17.66,0,0,1-.7,5,12.58,12.58,0,0,1-2.13,4.25,10.56,10.56,0,0,1-3.54,2.95,10.75,10.75,0,0,1-5,1.1,10.12,10.12,0,0,1-4.43-1,8.44,8.44,0,0,1-3.32-2.88h-.1v12.25h-7.1v-34.9Zm9.22,20.5a5.74,5.74,0,0,0,1.91-1.82,7.6,7.6,0,0,0,1-2.63,15.54,15.54,0,0,0,.3-3.05,14.83,14.83,0,0,0-.32-3,8.14,8.14,0,0,0-1.08-2.67,5.91,5.91,0,0,0-1.92-1.9,6.13,6.13,0,0,0-5.8,0,5.66,5.66,0,0,0-1.9,1.87,7.68,7.68,0,0,0-1,2.65,15.75,15.75,0,0,0-.3,3.1,14.18,14.18,0,0,0,.33,3.05,7.64,7.64,0,0,0,1,2.63,6,6,0,0,0,7.74,1.82Z"/><path d="M700.8,315.43a7.29,7.29,0,0,0,8.3.48,4.48,4.48,0,0,0,1.9-2.28h6.25a11.84,11.84,0,0,1-4.6,6.65,13.58,13.58,0,0,1-7.5,2,14.76,14.76,0,0,1-5.5-1,11.45,11.45,0,0,1-4.15-2.78,12.4,12.4,0,0,1-2.62-4.3,15.68,15.68,0,0,1-.93-5.5,15.18,15.18,0,0,1,.95-5.4,12.46,12.46,0,0,1,2.7-4.32,12.69,12.69,0,0,1,4.18-2.88,13.33,13.33,0,0,1,5.37-1.05,12.28,12.28,0,0,1,5.75,1.28,11.42,11.42,0,0,1,4,3.42,14.14,14.14,0,0,1,2.28,4.9,18.24,18.24,0,0,1,.5,5.75H699.05Q699.2,313.88,700.8,315.43Zm8-13.6a5,5,0,0,0-3.88-1.4,6.15,6.15,0,0,0-2.83.58,5.34,5.34,0,0,0-1.79,1.42,5.22,5.22,0,0,0-1,1.8,7.55,7.55,0,0,0-.33,1.7H710.6A8.25,8.25,0,0,0,708.83,301.83Z"/><path d="M728.65,295.78v4.8h.1a8.46,8.46,0,0,1,1.35-2.22,8.74,8.74,0,0,1,1.95-1.75,9.43,9.43,0,0,1,2.35-1.13,8.36,8.36,0,0,1,2.6-.4,5.42,5.42,0,0,1,1.55.25v6.6c-.33-.07-.73-.12-1.2-.17a12.82,12.82,0,0,0-1.35-.08,7.61,7.61,0,0,0-3.3.65,5.71,5.71,0,0,0-2.18,1.78,7,7,0,0,0-1.17,2.62A14.46,14.46,0,0,0,729,310v11.65h-7.1V295.78Z"/><path d="M748.65,285.93v35.7h-7.1v-35.7Z"/><path d="M763.8,329.33a10.31,10.31,0,0,1-5.7,1.35c-.74,0-1.46,0-2.18-.07l-2.17-.18v-5.85l2,.2a14.73,14.73,0,0,0,2.1.05,2.76,2.76,0,0,0,2.07-1.1,3.53,3.53,0,0,0,.68-2.1,4.26,4.26,0,0,0-.3-1.6l-9.05-24.25h7.55l5.85,17.7h.1l5.65-17.7h7.35L767,324.83A8.8,8.8,0,0,1,763.8,329.33Z"/><path d="M56.36,373.43a4.93,4.93,0,0,0-2.85.78,6.11,6.11,0,0,0-1.88,2,8.59,8.59,0,0,0-1,2.7,14.55,14.55,0,0,0-.3,2.92,14.09,14.09,0,0,0,.3,2.85,8.88,8.88,0,0,0,1,2.63,5.6,5.6,0,0,0,1.83,1.92,5,5,0,0,0,2.8.75,5.19,5.19,0,0,0,3.92-1.42,6.78,6.78,0,0,0,1.73-3.83h6.85a11.73,11.73,0,0,1-4,7.85,12.92,12.92,0,0,1-8.45,2.7,14.16,14.16,0,0,1-5.33-1,11.69,11.69,0,0,1-4.12-2.73,12.33,12.33,0,0,1-2.65-4.17,14.39,14.39,0,0,1-.95-5.33,17.25,17.25,0,0,1,.87-5.57,12.52,12.52,0,0,1,2.58-4.45,11.71,11.71,0,0,1,4.15-2.93,14.09,14.09,0,0,1,5.6-1.05,16.15,16.15,0,0,1,4.42.6,11.65,11.65,0,0,1,3.8,1.83,9.42,9.42,0,0,1,3.93,7.37h-7Q60.91,373.43,56.36,373.43Z"/><path d="M72.41,376.73a8.17,8.17,0,0,1,1.25-4.15,8.45,8.45,0,0,1,2.8-2.65,12,12,0,0,1,3.82-1.42,21.28,21.28,0,0,1,4.28-.43,28,28,0,0,1,4,.28,12.11,12.11,0,0,1,3.65,1.07,7.17,7.17,0,0,1,2.7,2.23,6.19,6.19,0,0,1,1,3.77v13.45a25.78,25.78,0,0,0,.2,3.35,5.86,5.86,0,0,0,.7,2.4h-7.2a10.47,10.47,0,0,1-.33-1.22,10.93,10.93,0,0,1-.17-1.28,9.31,9.31,0,0,1-4,2.45,16,16,0,0,1-4.7.7,12.63,12.63,0,0,1-3.45-.45,7.93,7.93,0,0,1-2.8-1.4,6.48,6.48,0,0,1-1.88-2.4,8.14,8.14,0,0,1-.67-3.45,7.59,7.59,0,0,1,.77-3.62,6.53,6.53,0,0,1,2-2.28,8.84,8.84,0,0,1,2.8-1.27,29,29,0,0,1,3.18-.68c1.06-.17,2.11-.3,3.15-.4a19,19,0,0,0,2.75-.45,4.86,4.86,0,0,0,1.9-.87,2,2,0,0,0,.65-1.68,3.73,3.73,0,0,0-.38-1.82,2.73,2.73,0,0,0-1-1.05A3.9,3.9,0,0,0,86,373a11,11,0,0,0-1.77-.13,5.39,5.39,0,0,0-3.3.9,4,4,0,0,0-1.4,3ZM88.81,382a3.16,3.16,0,0,1-1.13.63,11.36,11.36,0,0,1-1.45.37c-.52.1-1.06.18-1.62.25s-1.14.15-1.7.25a12.18,12.18,0,0,0-1.58.4,4.62,4.62,0,0,0-1.35.68,3.18,3.18,0,0,0-.92,1.07,3.36,3.36,0,0,0-.35,1.65,3.26,3.26,0,0,0,.35,1.6,2.7,2.7,0,0,0,1,1,4,4,0,0,0,1.4.52,8.88,8.88,0,0,0,1.65.15,6.25,6.25,0,0,0,3.25-.7,4.78,4.78,0,0,0,1.7-1.67,5.41,5.41,0,0,0,.67-2,14.61,14.61,0,0,0,.13-1.6Z"/><path d="M108.16,368.78v4.8h.1a8.46,8.46,0,0,1,1.35-2.22,8.33,8.33,0,0,1,2-1.75,9.26,9.26,0,0,1,2.35-1.13,8.36,8.36,0,0,1,2.6-.4,5.47,5.47,0,0,1,1.55.25v6.6c-.34-.07-.74-.12-1.2-.17a12.82,12.82,0,0,0-1.35-.08,7.61,7.61,0,0,0-3.3.65,5.71,5.71,0,0,0-2.18,1.78,7,7,0,0,0-1.17,2.62,13.9,13.9,0,0,0-.35,3.25v11.65h-7.1V368.78Z"/><path d="M127.56,388.43a7.29,7.29,0,0,0,8.3.48,4.53,4.53,0,0,0,1.9-2.28H144a11.88,11.88,0,0,1-4.6,6.65,13.58,13.58,0,0,1-7.5,2,14.73,14.73,0,0,1-5.5-1,11.36,11.36,0,0,1-4.15-2.78,12.42,12.42,0,0,1-2.63-4.3,15.68,15.68,0,0,1-.92-5.5,15,15,0,0,1,1-5.4,12.55,12.55,0,0,1,6.87-7.2,13.41,13.41,0,0,1,5.38-1.05,12.31,12.31,0,0,1,5.75,1.28,11.51,11.51,0,0,1,4,3.42,14.14,14.14,0,0,1,2.28,4.9,18.54,18.54,0,0,1,.5,5.75H125.81Q126,386.88,127.56,388.43Zm8-13.6a5,5,0,0,0-3.87-1.4,6.09,6.09,0,0,0-2.83.58,5.29,5.29,0,0,0-1.8,1.42,5.22,5.22,0,0,0-1,1.8,8.07,8.07,0,0,0-.32,1.7h11.55A8.25,8.25,0,0,0,135.58,374.83Z"/><path d="M159.86,373.53v-4.75h4.25v-2a7.72,7.72,0,0,1,2.15-5.65q2.15-2.2,6.5-2.2c.63,0,1.26,0,1.9.08l1.85.12v5.3a21.9,21.9,0,0,0-2.6-.15,2.74,2.74,0,0,0-2.08.68,3.28,3.28,0,0,0-.62,2.27v1.55h4.9v4.75h-4.9v21.1h-7.1v-21.1Z"/><path d="M179.36,376.11a11.82,11.82,0,0,1,6.9-7.05,14.73,14.73,0,0,1,5.5-1,15,15,0,0,1,5.52,1,12,12,0,0,1,4.23,2.75,12.2,12.2,0,0,1,2.7,4.3,17,17,0,0,1,0,11.22,12.39,12.39,0,0,1-2.7,4.28,11.81,11.81,0,0,1-4.23,2.72,15.37,15.37,0,0,1-5.52.95,15.14,15.14,0,0,1-5.5-.95,11.68,11.68,0,0,1-4.2-2.72,12.11,12.11,0,0,1-2.7-4.28,17,17,0,0,1,0-11.22Zm6.45,8.65a8.21,8.21,0,0,0,1,2.65,5.49,5.49,0,0,0,1.93,1.87,5.84,5.84,0,0,0,3,.7,6,6,0,0,0,3-.7,5.39,5.39,0,0,0,1.95-1.87,8.23,8.23,0,0,0,1-2.65,15.26,15.26,0,0,0,.3-3,15.54,15.54,0,0,0-.3-3.05,7.88,7.88,0,0,0-1-2.65,5.55,5.55,0,0,0-1.95-1.87,5.77,5.77,0,0,0-3-.73,5.5,5.5,0,0,0-4.93,2.6,7.87,7.87,0,0,0-1,2.65,15.54,15.54,0,0,0-.3,3.05A15.26,15.26,0,0,0,185.81,384.76Z"/><path d="M216.51,368.78v4.8h.1a8.46,8.46,0,0,1,1.35-2.22,8.33,8.33,0,0,1,1.95-1.75,9.26,9.26,0,0,1,2.35-1.13,8.36,8.36,0,0,1,2.6-.4,5.47,5.47,0,0,1,1.55.25v6.6c-.34-.07-.74-.12-1.2-.17a12.82,12.82,0,0,0-1.35-.08,7.61,7.61,0,0,0-3.3.65,5.71,5.71,0,0,0-2.18,1.78,7,7,0,0,0-1.17,2.62,13.9,13.9,0,0,0-.35,3.25v11.65h-7.1V368.78Z"/><path d="M242.8,376.73a8.37,8.37,0,0,1,1.25-4.15,8.58,8.58,0,0,1,2.81-2.65,12,12,0,0,1,3.82-1.42,21.28,21.28,0,0,1,4.28-.43,28,28,0,0,1,4,.28,12,12,0,0,1,3.64,1.07,7.21,7.21,0,0,1,2.71,2.23,6.19,6.19,0,0,1,1,3.77v13.45a25.74,25.74,0,0,0,.21,3.35,5.86,5.86,0,0,0,.7,2.4H260a8.81,8.81,0,0,1-.33-1.22,10.93,10.93,0,0,1-.17-1.28,9.31,9.31,0,0,1-4,2.45,16,16,0,0,1-4.71.7,12.61,12.61,0,0,1-3.44-.45,8.06,8.06,0,0,1-2.81-1.4,6.55,6.55,0,0,1-1.87-2.4,8.14,8.14,0,0,1-.67-3.45,7.47,7.47,0,0,1,.77-3.62,6.53,6.53,0,0,1,2-2.28,8.84,8.84,0,0,1,2.8-1.27,29,29,0,0,1,3.18-.68c1.06-.17,2.11-.3,3.15-.4a19,19,0,0,0,2.75-.45,4.75,4.75,0,0,0,1.89-.87,2,2,0,0,0,.66-1.68,3.73,3.73,0,0,0-.38-1.82,2.73,2.73,0,0,0-1-1.05,3.9,3.9,0,0,0-1.45-.5,11,11,0,0,0-1.77-.13,5.44,5.44,0,0,0-3.31.9,4,4,0,0,0-1.39,3ZM259.21,382a3.16,3.16,0,0,1-1.13.63,11.36,11.36,0,0,1-1.45.37c-.52.1-1.06.18-1.62.25s-1.14.15-1.71.25a12.46,12.46,0,0,0-1.57.4,4.5,4.5,0,0,0-1.35.68,3.18,3.18,0,0,0-.92,1.07,3.36,3.36,0,0,0-.35,1.65,3.26,3.26,0,0,0,.35,1.6,2.7,2.7,0,0,0,.95,1,3.9,3.9,0,0,0,1.39.52,9.07,9.07,0,0,0,1.66.15,6.25,6.25,0,0,0,3.25-.7,4.78,4.78,0,0,0,1.7-1.67,5.41,5.41,0,0,0,.67-2,14.61,14.61,0,0,0,.13-1.6Z"/><path d="M298.05,373.43a4.92,4.92,0,0,0-2.84.78,6,6,0,0,0-1.88,2,8.6,8.6,0,0,0-1,2.7,15.31,15.31,0,0,0-.3,2.92,14.85,14.85,0,0,0,.3,2.85,8.89,8.89,0,0,0,1,2.63,5.6,5.6,0,0,0,1.83,1.92,5,5,0,0,0,2.79.75,5.2,5.2,0,0,0,3.93-1.42,6.71,6.71,0,0,0,1.72-3.83h6.85a11.65,11.65,0,0,1-4,7.85,12.87,12.87,0,0,1-8.44,2.7,14.16,14.16,0,0,1-5.33-1,11.82,11.82,0,0,1-4.13-2.73,12.46,12.46,0,0,1-2.64-4.17,14.4,14.4,0,0,1-1-5.33,17.25,17.25,0,0,1,.88-5.57,12.38,12.38,0,0,1,2.58-4.45,11.76,11.76,0,0,1,4.14-2.93,14.14,14.14,0,0,1,5.61-1.05,16.21,16.21,0,0,1,4.42.6,11.75,11.75,0,0,1,3.8,1.83,9.49,9.49,0,0,1,2.72,3.05,9.67,9.67,0,0,1,1.2,4.32H303.3Q302.61,373.43,298.05,373.43Z"/><path d="M321.5,358.93v13.45h.15a8.25,8.25,0,0,1,3.45-3.27,9.25,9.25,0,0,1,4.11-1,12,12,0,0,1,4.67.78,6.81,6.81,0,0,1,2.87,2.15,8.09,8.09,0,0,1,1.48,3.35,21,21,0,0,1,.42,4.37v15.9h-7.1V380a9,9,0,0,0-1-4.77,3.86,3.86,0,0,0-3.55-1.58,4.93,4.93,0,0,0-4.2,1.73c-.86,1.15-1.3,3-1.3,5.67v13.55h-7.1v-35.7Z"/><path d="M344.25,364.78v-5.85h7.1v5.85Zm7.1,4v25.85h-7.1V368.78Z"/><path d="M364.25,358.93v35.7h-7.1v-35.7Z"/><path d="M388.2,391.33a7.33,7.33,0,0,1-3.27,3,12,12,0,0,1-9.68-.2,10.31,10.31,0,0,1-3.62-3.05,13.83,13.83,0,0,1-2.15-4.43,18.72,18.72,0,0,1-.73-5.2,17.52,17.52,0,0,1,.73-5,13,13,0,0,1,2.15-4.28,10.45,10.45,0,0,1,8.57-4.1,10.16,10.16,0,0,1,4.38,1,7.59,7.59,0,0,1,3.27,2.87h.1v-13h7.1v35.7H388.3v-3.3Zm-.3-12.77a7.52,7.52,0,0,0-1-2.6,5.87,5.87,0,0,0-1.88-1.83,5.44,5.44,0,0,0-2.9-.7,5.75,5.75,0,0,0-3,.7,5.49,5.49,0,0,0-1.92,1.85,8.1,8.1,0,0,0-1.05,2.63,14,14,0,0,0-.33,3.07,13.35,13.35,0,0,0,.35,3,8.36,8.36,0,0,0,1.13,2.68,6.42,6.42,0,0,0,1.95,1.9,5.28,5.28,0,0,0,2.82.72,5.6,5.6,0,0,0,2.93-.7,5.32,5.32,0,0,0,1.87-1.87,8.41,8.41,0,0,0,1-2.68,15.75,15.75,0,0,0,.3-3.1A15.3,15.3,0,0,0,387.9,378.56Z"/><path d="M408.55,386.93v7.7H400.7v-7.7Z"/><path d="M421.4,358.93v7.65a8.16,8.16,0,0,1-.47,3.1,7.87,7.87,0,0,1-1.48,2.55,8.31,8.31,0,0,1-2.27,1.83,8.11,8.11,0,0,1-2.88.92v-3.3a4.37,4.37,0,0,0,2.6-1.92,6.41,6.41,0,0,0,.7-3.13h-3.3v-7.7Zm10.65,0v7.65a8.16,8.16,0,0,1-.47,3.1,7.87,7.87,0,0,1-1.48,2.55,8.31,8.31,0,0,1-2.27,1.83A8,8,0,0,1,425,375v-3.3a4.37,4.37,0,0,0,2.6-1.92,6.41,6.41,0,0,0,.7-3.13H425v-7.7Z"/><path class="b" d="M50.78,488.29a3.65,3.65,0,0,1-.77,1.37,3.85,3.85,0,0,1-1.43,1,5.94,5.94,0,0,1-2.21.36A4.66,4.66,0,0,1,43,489.84a4.55,4.55,0,0,1-1.19-3.4v-1h2.09v.66a6.92,6.92,0,0,0,.11,1.25,2.57,2.57,0,0,0,.39,1,1.76,1.76,0,0,0,.77.65,2.9,2.9,0,0,0,1.26.23,2.23,2.23,0,0,0,2-.77,3.53,3.53,0,0,0,.54-2.07V474.93H51v11.79A5.63,5.63,0,0,1,50.78,488.29Z"/><path class="b" d="M67.05,474.93v1.76H58.29v5h8.16v1.77H58.29v5.43h8.82v1.76H56.2V474.93Z"/><path class="b" d="M73.6,474.93l8.28,12.74h0V474.93h2v15.71H81.61L73.4,478h0v12.61h-2V474.93Z"/><path class="b" d="M91.25,474.93l8.27,12.74h0V474.93h2v15.71H99.25L91.05,478h0v12.61H89V474.93Z"/><path class="b" d="M108.87,474.93v15.71h-2.09V474.93Z"/><path class="b" d="M124.47,474.93v1.76h-8.23v5h7.21v1.77h-7.21v7.19h-2.09V474.93Z"/><path class="b" d="M139.38,474.93v1.76h-8.75v5h8.16v1.77h-8.16v5.43h8.82v1.76H128.54V474.93Z"/><path class="b" d="M151.13,474.93a5.2,5.2,0,0,1,3.51,1.1,3.79,3.79,0,0,1,1.26,3,4.7,4.7,0,0,1-.65,2.51,3.35,3.35,0,0,1-2.07,1.48v0a3,3,0,0,1,1.11.44,2.52,2.52,0,0,1,.68.74,3.15,3.15,0,0,1,.37,1,9.16,9.16,0,0,1,.19,1.09c0,.39.05.77.07,1.17a8.92,8.92,0,0,0,.11,1.17,6.41,6.41,0,0,0,.25,1.09,2.67,2.67,0,0,0,.49.91h-2.33a1.26,1.26,0,0,1-.29-.66,5.21,5.21,0,0,1-.1-.94c0-.34,0-.71,0-1.11a7.49,7.49,0,0,0-.13-1.16,10.49,10.49,0,0,0-.22-1.09,2.5,2.5,0,0,0-.42-.9,2,2,0,0,0-.75-.62,2.78,2.78,0,0,0-1.23-.23h-5.1v6.71h-2.09V474.93Zm.44,7.13a3,3,0,0,0,1.15-.43,2.37,2.37,0,0,0,.8-.86,3,3,0,0,0,.29-1.39,2.82,2.82,0,0,0-.66-1.94,2.7,2.7,0,0,0-2.13-.75h-5.19v5.48h4.35A8.8,8.8,0,0,0,151.57,482.06Z"/><path class="b" d="M176.31,477.08a4.42,4.42,0,0,0-2.67-.76,6.23,6.23,0,0,0-1.3.13,3.33,3.33,0,0,0-1.13.44,2.33,2.33,0,0,0-.8.82,2.56,2.56,0,0,0-.29,1.29,1.67,1.67,0,0,0,.42,1.18,3.2,3.2,0,0,0,1.15.73,9.4,9.4,0,0,0,1.62.48c.6.12,1.21.26,1.83.4s1.24.32,1.84.52a6.14,6.14,0,0,1,1.62.81,3.76,3.76,0,0,1,1.14,1.27,3.9,3.9,0,0,1,.43,1.94,4,4,0,0,1-.56,2.14,4.64,4.64,0,0,1-1.44,1.45,6.27,6.27,0,0,1-2,.82A9.51,9.51,0,0,1,174,491a9.13,9.13,0,0,1-2.49-.33,6,6,0,0,1-2.07-1,4.65,4.65,0,0,1-1.41-1.72,5.42,5.42,0,0,1-.52-2.47h2a3.47,3.47,0,0,0,.39,1.7,3.4,3.4,0,0,0,1,1.18,4.09,4.09,0,0,0,1.46.68,6.6,6.6,0,0,0,1.72.22,7.66,7.66,0,0,0,1.42-.13,4.31,4.31,0,0,0,1.28-.45,2.51,2.51,0,0,0,.93-.87,2.63,2.63,0,0,0,.35-1.41,2,2,0,0,0-.43-1.32,3.19,3.19,0,0,0-1.14-.82,8.56,8.56,0,0,0-1.62-.52l-1.84-.41q-.93-.21-1.83-.48a6.49,6.49,0,0,1-1.62-.73,3.25,3.25,0,0,1-1.57-3,4.17,4.17,0,0,1,.48-2,4.12,4.12,0,0,1,1.29-1.43,5.73,5.73,0,0,1,1.82-.84,8.23,8.23,0,0,1,2.1-.27,8.46,8.46,0,0,1,2.25.28,5,5,0,0,1,1.81.9A4.54,4.54,0,0,1,179,477.3a5.51,5.51,0,0,1,.49,2.23h-2A3.25,3.25,0,0,0,176.31,477.08Z"/><path class="b" d="M191,474.93l6.14,15.71h-2.31l-1.72-4.73h-6.64l-1.76,4.73h-2.14l6.12-15.71Zm1.45,9.22-2.62-7.33h0l-2.66,7.33Z"/><path class="b" d="M207.87,474.93a5.22,5.22,0,0,1,3.51,1.1,3.79,3.79,0,0,1,1.26,3,4.7,4.7,0,0,1-.65,2.51,3.34,3.34,0,0,1-2.08,1.48v0a3,3,0,0,1,1.12.44,2.52,2.52,0,0,1,.68.74,3.15,3.15,0,0,1,.37,1c.08.35.14.71.19,1.09s0,.77.06,1.17a11,11,0,0,0,.11,1.17,7.54,7.54,0,0,0,.26,1.09,2.67,2.67,0,0,0,.49.91h-2.33a1.27,1.27,0,0,1-.3-.66,8,8,0,0,1-.1-.94c0-.34,0-.71,0-1.11a9,9,0,0,0-.13-1.16,10.49,10.49,0,0,0-.22-1.09,2.5,2.5,0,0,0-.42-.9,2,2,0,0,0-.75-.62,2.84,2.84,0,0,0-1.23-.23h-5.1v6.71h-2.09V474.93Zm.44,7.13a3,3,0,0,0,1.15-.43,2.26,2.26,0,0,0,.79-.86,3.25,3.25,0,0,0-.36-3.33,2.7,2.7,0,0,0-2.13-.75h-5.19v5.48h4.35A8.8,8.8,0,0,0,208.31,482.06Z"/><path class="b" d="M215.24,476.69v-1.76H227.8v1.76h-5.24v13.95h-2.09V476.69Z"/><path class="b" d="M230.89,479.69a8,8,0,0,1,1.42-2.63,6.85,6.85,0,0,1,2.35-1.82,8.25,8.25,0,0,1,6.56,0,6.85,6.85,0,0,1,2.35,1.82,7.78,7.78,0,0,1,1.42,2.63,10.43,10.43,0,0,1,0,6.19,7.64,7.64,0,0,1-1.42,2.62,6.73,6.73,0,0,1-2.35,1.82,8.36,8.36,0,0,1-6.56,0,6.73,6.73,0,0,1-2.35-1.82,7.82,7.82,0,0,1-1.42-2.62,10.43,10.43,0,0,1,0-6.19Zm1.93,5.44a6.28,6.28,0,0,0,1,2.08,5,5,0,0,0,1.7,1.48,5.15,5.15,0,0,0,6.62-1.48,6.51,6.51,0,0,0,1-2.08,9,9,0,0,0,0-4.69,6.51,6.51,0,0,0-1-2.08,5.4,5.4,0,0,0-6.62-1.48,5,5,0,0,0-1.7,1.48,6.28,6.28,0,0,0-1,2.08,9,9,0,0,0,0,4.69Z"/><path class="b" d="M257.17,474.93a5.2,5.2,0,0,1,3.51,1.1,3.79,3.79,0,0,1,1.26,3,4.7,4.7,0,0,1-.65,2.51,3.34,3.34,0,0,1-2.08,1.48v0a3,3,0,0,1,1.12.44,2.52,2.52,0,0,1,.68.74,3.15,3.15,0,0,1,.37,1,9.16,9.16,0,0,1,.19,1.09c0,.39.05.77.07,1.17a8.92,8.92,0,0,0,.11,1.17,6.41,6.41,0,0,0,.25,1.09,2.67,2.67,0,0,0,.49.91h-2.33a1.26,1.26,0,0,1-.29-.66,5.21,5.21,0,0,1-.1-.94c0-.34,0-.71,0-1.11a7.49,7.49,0,0,0-.13-1.16,10.49,10.49,0,0,0-.22-1.09,2.5,2.5,0,0,0-.42-.9,2,2,0,0,0-.75-.62,2.81,2.81,0,0,0-1.23-.23h-5.1v6.71h-2.09V474.93Zm.44,7.13a3,3,0,0,0,1.15-.43,2.37,2.37,0,0,0,.8-.86,3,3,0,0,0,.29-1.39,2.82,2.82,0,0,0-.66-1.94,2.7,2.7,0,0,0-2.13-.75h-5.19v5.48h4.35A8.8,8.8,0,0,0,257.61,482.06Z"/><path class="b" d="M268.79,474.93v15.71H266.7V474.93Z"/><path d="M49.6,509.93l6.14,15.71H53.43l-1.72-4.73H45.07l-1.76,4.73H41.18l6.11-15.71Zm1.45,9.22-2.61-7.33h0l-2.66,7.33Z"/><path d="M64.43,509.93A7.85,7.85,0,0,1,70,511.78q2,1.85,2,5.63a12.87,12.87,0,0,1-.43,3.51,6.53,6.53,0,0,1-1.37,2.57,6,6,0,0,1-2.35,1.6,9.41,9.41,0,0,1-3.39.55H59V509.93Zm.18,13.95a7.93,7.93,0,0,0,.87-.06,4.57,4.57,0,0,0,1.13-.26,5.41,5.41,0,0,0,1.17-.6,4.17,4.17,0,0,0,1-1.08,6.16,6.16,0,0,0,.76-1.71,8.91,8.91,0,0,0,.29-2.47,10.7,10.7,0,0,0-.27-2.52,4.75,4.75,0,0,0-.9-1.89,4,4,0,0,0-1.62-1.19,6.44,6.44,0,0,0-2.44-.41H61.13v12.19Z"/><path d="M75.88,514.69a8,8,0,0,1,1.42-2.63,6.85,6.85,0,0,1,2.35-1.82,8.25,8.25,0,0,1,6.56,0,6.85,6.85,0,0,1,2.35,1.82A7.78,7.78,0,0,1,90,514.69a10.22,10.22,0,0,1,0,6.19,7.64,7.64,0,0,1-1.42,2.62,6.73,6.73,0,0,1-2.35,1.82,8.36,8.36,0,0,1-6.56,0,6.73,6.73,0,0,1-2.35-1.82,7.82,7.82,0,0,1-1.42-2.62,10.43,10.43,0,0,1,0-6.19Zm1.92,5.44a6.51,6.51,0,0,0,1,2.08,5,5,0,0,0,1.7,1.48,5.68,5.68,0,0,0,4.92,0,5,5,0,0,0,1.7-1.48,6.51,6.51,0,0,0,1-2.08,9,9,0,0,0,0-4.69,6.51,6.51,0,0,0-1-2.08,4.9,4.9,0,0,0-4.16-2,5,5,0,0,0-2.46.56,5,5,0,0,0-1.7,1.48,6.51,6.51,0,0,0-1,2.08,9.32,9.32,0,0,0,0,4.69Z"/><path d="M101.65,509.93a4.89,4.89,0,0,1,3.6,1.22,5.42,5.42,0,0,1,0,6.85,4.72,4.72,0,0,1-3.6,1.21H96.86v6.43H94.77V509.93Zm-.7,7.53a3.71,3.71,0,0,0,2.6-.73,2.74,2.74,0,0,0,.83-2.16,2.68,2.68,0,0,0-.83-2.14,3.81,3.81,0,0,0-2.6-.74H96.86v5.77Z"/><path d="M109.11,511.69v-1.76h12.56v1.76h-5.23v13.95h-2.09V511.69Z"/><path d="M127.35,509.93v15.71h-2.09V509.93Z"/><path d="M136.43,525.64l-5.52-15.71h2.25l4.48,13.62h.05l4.53-13.62h2.18l-5.59,15.71Z"/><path d="M158.68,509.93v1.76h-8.76v5h8.16v1.77h-8.16v5.43h8.82v1.76H147.83V509.93Z"/><path d="M177.79,509.93a4.89,4.89,0,0,1,3.6,1.22,5.42,5.42,0,0,1,0,6.85,4.72,4.72,0,0,1-3.6,1.21H173v6.43h-2.09V509.93Zm-.7,7.53a3.75,3.75,0,0,0,2.61-.73,2.77,2.77,0,0,0,.82-2.16,2.71,2.71,0,0,0-.82-2.14,3.86,3.86,0,0,0-2.61-.74H173v5.77Z"/><path d="M191.87,509.93,198,525.64H195.7L194,520.91h-6.65l-1.76,4.73h-2.13l6.11-15.71Zm1.46,9.22-2.62-7.33h-.05L188,519.15Z"/><path d="M208.7,509.93a5.18,5.18,0,0,1,3.51,1.1,3.76,3.76,0,0,1,1.27,3,4.79,4.79,0,0,1-.65,2.51,3.37,3.37,0,0,1-2.08,1.48v0a3,3,0,0,1,1.11.44,2.39,2.39,0,0,1,.68.74,3.16,3.16,0,0,1,.38,1,9.18,9.18,0,0,1,.18,1.09c0,.39.05.77.07,1.17a8.92,8.92,0,0,0,.11,1.17,7.53,7.53,0,0,0,.25,1.09,2.69,2.69,0,0,0,.5.91H211.7a1.27,1.27,0,0,1-.3-.66,6.31,6.31,0,0,1-.1-.94c0-.34,0-.71,0-1.11a7.5,7.5,0,0,0-.14-1.16,10.49,10.49,0,0,0-.22-1.09,2.33,2.33,0,0,0-.41-.9,2.07,2.07,0,0,0-.75-.62,2.84,2.84,0,0,0-1.23-.23H203.4v6.71h-2.09V509.93Zm.44,7.13a3,3,0,0,0,1.16-.43,2.34,2.34,0,0,0,.79-.86,3.25,3.25,0,0,0-.36-3.33,2.71,2.71,0,0,0-2.14-.75H203.4v5.48h4.36A8.77,8.77,0,0,0,209.14,517.06Z"/><path d="M229,509.93v1.76h-8.76v5h8.16v1.77h-8.16v5.43h8.82v1.76H218.14V509.93Z"/><path d="M235.54,509.93l8.28,12.74h0V509.93h2v15.71h-2.29L235.35,513h0v12.61h-2V509.93Z"/><path d="M249.32,511.69v-1.76h12.56v1.76h-5.24v13.95h-2.09V511.69Z"/></svg>