<svg xmlns="http://www.w3.org/2000/svg" viewBox="0 0 888.44 530.93"><defs><style>.a{opacity:0.5;}.b{fill:#3fc6e6;}</style></defs><title>Artboard 1 copy</title><g class="a"><path class="b" d="M.42,88V46.89A44.58,44.58,0,0,1,3,30.22a43.16,43.16,0,0,1,7.92-13.7A44,44,0,0,1,38.58,1.74V19.47q-10.21,3.5-14,10.35T20.84,46.61H38.58V88Zm57.24,0V46.89a44.38,44.38,0,0,1,2.56-16.67,43.35,43.35,0,0,1,7.92-13.7A44,44,0,0,1,95.82,1.74V19.47q-10.21,3.5-14,10.35T78.08,46.61H95.82V88Z"/></g><path d="M52.61,66.93v35.7H44.76V66.93Z"/><path d="M79.41,76.78v3.3h.1a7.71,7.71,0,0,1,3.3-3,10.16,10.16,0,0,1,4.4-1,11.17,11.17,0,0,1,5.25,1.15,10.94,10.94,0,0,1,3.65,3,13.06,13.06,0,0,1,2.15,4.43A19.89,19.89,0,0,1,99,90a18,18,0,0,1-.7,5,12.77,12.77,0,0,1-2.13,4.25,10.5,10.5,0,0,1-3.55,3,10.68,10.68,0,0,1-5,1.1,10.08,10.08,0,0,1-4.43-1,8.3,8.3,0,0,1-3.32-2.88h-.1v12.25h-7.1V76.78Zm9.22,20.5a5.62,5.62,0,0,0,1.9-1.82,7.61,7.61,0,0,0,1-2.63,15.54,15.54,0,0,0,.3-3,14.18,14.18,0,0,0-.33-3,8.13,8.13,0,0,0-1.07-2.67,5.94,5.94,0,0,0-1.93-1.9,5.3,5.3,0,0,0-2.87-.73,5.42,5.42,0,0,0-2.93.73A5.76,5.76,0,0,0,80.83,84a7.87,7.87,0,0,0-1,2.65,15.75,15.75,0,0,0-.3,3.1,14.83,14.83,0,0,0,.32,3,8.05,8.05,0,0,0,1,2.63,5.71,5.71,0,0,0,1.93,1.82,6.4,6.4,0,0,0,5.82,0Z"/><path d="M103.41,72.78V66.93h7.1v5.85Zm7.1,4v25.85h-7.1V76.78Z"/><path d="M128.46,81.43a4.93,4.93,0,0,0-2.85.78,6,6,0,0,0-1.88,2,8.59,8.59,0,0,0-1,2.7,14.55,14.55,0,0,0-.3,2.92,14.09,14.09,0,0,0,.3,2.85,8.88,8.88,0,0,0,1,2.63,5.6,5.6,0,0,0,1.83,1.92,5,5,0,0,0,2.8.75,5.19,5.19,0,0,0,3.92-1.42A6.78,6.78,0,0,0,134,92.73h6.85a11.73,11.73,0,0,1-4,7.85,12.92,12.92,0,0,1-8.45,2.7,14.16,14.16,0,0,1-5.33-1,11.69,11.69,0,0,1-4.12-2.73,12.33,12.33,0,0,1-2.65-4.17,14.39,14.39,0,0,1-1-5.33,17.25,17.25,0,0,1,.87-5.57,12.38,12.38,0,0,1,2.58-4.45,11.71,11.71,0,0,1,4.15-2.93,14.09,14.09,0,0,1,5.6-1,16.21,16.21,0,0,1,4.42.6,11.65,11.65,0,0,1,3.8,1.83,9.42,9.42,0,0,1,3.93,7.37h-6.95Q133,81.43,128.46,81.43Z"/><path d="M152.56,66.93V86.08l8.95-9.3h8.4l-9.75,9.5L171,102.63h-8.6l-7.1-11.55-2.75,2.65v8.9h-7.1V66.93Z"/><path d="M181.11,96.43a7.29,7.29,0,0,0,8.3.48,4.53,4.53,0,0,0,1.9-2.28h6.25a11.88,11.88,0,0,1-4.6,6.65,13.58,13.58,0,0,1-7.5,2,14.73,14.73,0,0,1-5.5-1,11.36,11.36,0,0,1-4.15-2.78,12.42,12.42,0,0,1-2.63-4.3,15.68,15.68,0,0,1-.92-5.5,15,15,0,0,1,1-5.4,12.55,12.55,0,0,1,6.87-7.2,13.41,13.41,0,0,1,5.38-1,12.31,12.31,0,0,1,5.75,1.28,11.51,11.51,0,0,1,4,3.42,14.14,14.14,0,0,1,2.28,4.9,18.54,18.54,0,0,1,.5,5.75H179.36Q179.51,94.88,181.11,96.43Zm8-13.6a5,5,0,0,0-3.87-1.4,6.09,6.09,0,0,0-2.83.58,5.29,5.29,0,0,0-1.8,1.42,5.22,5.22,0,0,0-.95,1.8,8.07,8.07,0,0,0-.32,1.7h11.55A8.25,8.25,0,0,0,189.13,82.83Z"/><path d="M220.56,99.33a7.4,7.4,0,0,1-3.28,3,12,12,0,0,1-9.67-.2,10.26,10.26,0,0,1-3.63-3,13.83,13.83,0,0,1-2.15-4.43,18.71,18.71,0,0,1-.72-5.2,17.51,17.51,0,0,1,.72-5A13,13,0,0,1,204,80.18a10.49,10.49,0,0,1,8.58-4.1,10.15,10.15,0,0,1,4.37,1,7.62,7.62,0,0,1,3.28,2.87h.1v-13h7.1v35.7h-6.75v-3.3Zm-.3-12.77a7.53,7.53,0,0,0-1-2.6,5.84,5.84,0,0,0-1.87-1.83,5.49,5.49,0,0,0-2.9-.7,5.73,5.73,0,0,0-3,.7A5.52,5.52,0,0,0,209.58,84a8.33,8.33,0,0,0-1.05,2.63,14,14,0,0,0-.32,3.07,12.8,12.8,0,0,0,.35,3,8.13,8.13,0,0,0,1.12,2.68,6.42,6.42,0,0,0,1.95,1.9,5.31,5.31,0,0,0,2.83.72,5.59,5.59,0,0,0,2.92-.7,5.43,5.43,0,0,0,1.88-1.87,8.66,8.66,0,0,0,1-2.68,15.75,15.75,0,0,0,.3-3.1A15.3,15.3,0,0,0,220.26,86.56Z"/><path d="M253.56,76.78v3.5h.1a10,10,0,0,1,3.37-3.1,9.21,9.21,0,0,1,4.53-1.1A10.44,10.44,0,0,1,266,77a6.28,6.28,0,0,1,3.08,3.35,10.94,10.94,0,0,1,3.12-3,8.31,8.31,0,0,1,4.68-1.3,14,14,0,0,1,3.8.5,7.74,7.74,0,0,1,3,1.6,7.35,7.35,0,0,1,2,2.88,11.75,11.75,0,0,1,.7,4.27v17.3h-7.1V88c0-.87,0-1.68-.1-2.45a5.26,5.26,0,0,0-.55-2,3.32,3.32,0,0,0-1.33-1.35,4.8,4.8,0,0,0-2.37-.5,4.51,4.51,0,0,0-2.43.58,4.09,4.09,0,0,0-1.45,1.5,6,6,0,0,0-.7,2.1,15.56,15.56,0,0,0-.17,2.37v14.4h-7.1V88.13c0-.77,0-1.52-.05-2.27a6.58,6.58,0,0,0-.43-2.08,3.2,3.2,0,0,0-1.25-1.52,4.63,4.63,0,0,0-2.57-.58,5.35,5.35,0,0,0-1.33.23,4.37,4.37,0,0,0-1.6.85,4.74,4.74,0,0,0-1.32,1.8,7.21,7.21,0,0,0-.55,3.07v15h-7.1V76.78Z"/><path d="M301.5,110.33a10.27,10.27,0,0,1-5.7,1.35c-.73,0-1.45,0-2.17-.07l-2.17-.18v-5.85l2,.2a14.87,14.87,0,0,0,2.11,0,2.76,2.76,0,0,0,2.07-1.1,3.53,3.53,0,0,0,.68-2.1,4.26,4.26,0,0,0-.31-1.6L289,76.78h7.55l5.85,17.7h.1l5.65-17.7h7.35l-10.79,29.05A8.76,8.76,0,0,1,301.5,110.33Z"/><path d="M323.88,96.21a4.17,4.17,0,0,0,1.22,1.35,5.34,5.34,0,0,0,1.73.77,7.93,7.93,0,0,0,2,.25,8.11,8.11,0,0,0,1.58-.17,5.46,5.46,0,0,0,1.5-.55,3.47,3.47,0,0,0,1.12-1,2.66,2.66,0,0,0,.45-1.58c0-1.07-.7-1.87-2.12-2.4a42.6,42.6,0,0,0-5.92-1.6c-1-.23-2-.51-3-.82a10.84,10.84,0,0,1-2.63-1.25A6.12,6.12,0,0,1,318,87.26a5.54,5.54,0,0,1-.71-2.88,7.78,7.78,0,0,1,1-4.1,7.13,7.13,0,0,1,2.57-2.52,11.27,11.27,0,0,1,3.6-1.3,22.26,22.26,0,0,1,4.1-.38,20.31,20.31,0,0,1,4.08.4,10.84,10.84,0,0,1,3.52,1.35,8,8,0,0,1,2.58,2.53,8.46,8.46,0,0,1,1.22,4h-6.75a3.08,3.08,0,0,0-1.55-2.77,7,7,0,0,0-3.3-.73,12.39,12.39,0,0,0-1.3.08,4.23,4.23,0,0,0-1.27.32,2.71,2.71,0,0,0-1,.73,1.93,1.93,0,0,0-.4,1.27,2,2,0,0,0,.7,1.55,5.46,5.46,0,0,0,1.83,1,22.79,22.79,0,0,0,2.58.67c1,.2,1.94.42,2.94.65a29.37,29.37,0,0,1,3,.85,9.78,9.78,0,0,1,2.62,1.33,6.26,6.26,0,0,1,1.85,2,6,6,0,0,1,.7,3,8.29,8.29,0,0,1-1,4.28,8.17,8.17,0,0,1-2.68,2.77,11.05,11.05,0,0,1-3.77,1.48,22.3,22.3,0,0,1-4.33.42,21.47,21.47,0,0,1-4.4-.45,11.64,11.64,0,0,1-3.82-1.5,8.56,8.56,0,0,1-2.75-2.77,8.72,8.72,0,0,1-1.18-4.33h6.75A3.87,3.87,0,0,0,323.88,96.21Z"/><path d="M352.35,96.43a7.29,7.29,0,0,0,8.3.48,4.43,4.43,0,0,0,1.9-2.28h6.25a11.84,11.84,0,0,1-4.6,6.65,13.54,13.54,0,0,1-7.5,2,14.8,14.8,0,0,1-5.5-1,11.53,11.53,0,0,1-4.15-2.78,12.4,12.4,0,0,1-2.62-4.3,15.68,15.68,0,0,1-.93-5.5,15.18,15.18,0,0,1,.95-5.4,12.52,12.52,0,0,1,6.88-7.2,13.4,13.4,0,0,1,5.37-1,12.28,12.28,0,0,1,5.75,1.28,11.46,11.46,0,0,1,4,3.42,14,14,0,0,1,2.27,4.9,18,18,0,0,1,.5,5.75H350.6C350.7,93.73,351.29,95.4,352.35,96.43Zm8-13.6a5,5,0,0,0-3.88-1.4,6.08,6.08,0,0,0-2.82.58,5.29,5.29,0,0,0-1.8,1.42,5.22,5.22,0,0,0-.95,1.8,8.85,8.85,0,0,0-.33,1.7h11.55A8.16,8.16,0,0,0,360.38,82.83Z"/><path d="M380.75,66.93v35.7h-7.1V66.93Z"/><path d="M383.65,81.53V76.78h4.25v-2a7.76,7.76,0,0,1,2.15-5.65c1.44-1.47,3.6-2.2,6.5-2.2.64,0,1.27,0,1.9.08l1.85.12v5.3a21.78,21.78,0,0,0-2.6-.15,2.71,2.71,0,0,0-2.07.68,3.28,3.28,0,0,0-.63,2.27v1.55h4.9v4.75H395v21.1h-7.1V81.53Z"/><path d="M434.4,102.63V99h-.15a8,8,0,0,1-3.5,3.25,10.27,10.27,0,0,1-4.4,1,12.37,12.37,0,0,1-4.67-.75,6.79,6.79,0,0,1-2.88-2.12,8.33,8.33,0,0,1-1.47-3.35,20.46,20.46,0,0,1-.43-4.38V76.78H424v14.6a9.15,9.15,0,0,0,1,4.78,3.87,3.87,0,0,0,3.55,1.57,4.91,4.91,0,0,0,4.2-1.72c.87-1.15,1.3-3.05,1.3-5.68V76.78h7.1v25.85Z"/><path d="M453.3,76.78v3.3h.1a7.83,7.83,0,0,1,3.3-3,10.19,10.19,0,0,1,4.4-1,11.17,11.17,0,0,1,5.25,1.15,10.74,10.74,0,0,1,3.65,3,12.7,12.7,0,0,1,2.15,4.43,19.49,19.49,0,0,1,.7,5.27,17.66,17.66,0,0,1-.7,5A12.57,12.57,0,0,1,470,99.23a10.59,10.59,0,0,1-3.55,3,10.75,10.75,0,0,1-5,1.1,10,10,0,0,1-4.42-1,8.4,8.4,0,0,1-3.33-2.88h-.1v12.25h-7.1V76.78Zm9.23,20.5a5.8,5.8,0,0,0,1.9-1.82,7.6,7.6,0,0,0,1-2.63,15.54,15.54,0,0,0,.3-3,14.83,14.83,0,0,0-.32-3,8.14,8.14,0,0,0-1.08-2.67,5.91,5.91,0,0,0-1.92-1.9,6.13,6.13,0,0,0-5.8,0,5.66,5.66,0,0,0-1.9,1.87,7.68,7.68,0,0,0-1,2.65,15.75,15.75,0,0,0-.3,3.1,14.18,14.18,0,0,0,.33,3,7.64,7.64,0,0,0,1,2.63,6.06,6.06,0,0,0,7.75,1.82Z"/><path d="M513.25,102.63l-4.6-17.35h-.1l-4.4,17.35H496.8l-8.2-25.85h7.5l4.75,17.55h.1l4.3-17.55h6.9l4.4,17.5h.1l4.75-17.5h7.3l-8.15,25.85Z"/><path d="M538.8,66.93V80.38H539a8.19,8.19,0,0,1,3.45-3.27,9.24,9.24,0,0,1,4.1-1,12,12,0,0,1,4.68.78A6.87,6.87,0,0,1,554.05,79a8.36,8.36,0,0,1,1.48,3.35,21,21,0,0,1,.42,4.37v15.9h-7.1V88a9,9,0,0,0-1-4.77,3.88,3.88,0,0,0-3.55-1.58,4.93,4.93,0,0,0-4.2,1.73q-1.3,1.73-1.3,5.67v13.55h-7.1V66.93Z"/><path d="M569,96.43a7.29,7.29,0,0,0,8.3.48,4.48,4.48,0,0,0,1.9-2.28h6.25a11.84,11.84,0,0,1-4.6,6.65,13.58,13.58,0,0,1-7.5,2,14.76,14.76,0,0,1-5.5-1,11.45,11.45,0,0,1-4.15-2.78,12.4,12.4,0,0,1-2.62-4.3,15.68,15.68,0,0,1-.93-5.5,15.18,15.18,0,0,1,.95-5.4,12.46,12.46,0,0,1,2.7-4.32,12.69,12.69,0,0,1,4.18-2.88,13.33,13.33,0,0,1,5.37-1,12.28,12.28,0,0,1,5.75,1.28,11.54,11.54,0,0,1,4,3.42,14.31,14.31,0,0,1,2.27,4.9,18.24,18.24,0,0,1,.5,5.75H567.2Q567.35,94.88,569,96.43Zm8-13.6a5,5,0,0,0-3.88-1.4,6.08,6.08,0,0,0-2.82.58,5.29,5.29,0,0,0-1.8,1.42,5.22,5.22,0,0,0-1,1.8,7.55,7.55,0,0,0-.33,1.7h11.55A8.16,8.16,0,0,0,577,82.83Z"/><path d="M596.8,76.78v3.6H597a8.13,8.13,0,0,1,3.5-3.27,10,10,0,0,1,4.4-1,11.94,11.94,0,0,1,4.67.78A6.84,6.84,0,0,1,612.4,79a8.36,8.36,0,0,1,1.48,3.35,21,21,0,0,1,.42,4.37v15.9h-7.1V88a9,9,0,0,0-1-4.77,3.88,3.88,0,0,0-3.55-1.58,4.93,4.93,0,0,0-4.2,1.73q-1.31,1.73-1.3,5.67v13.55h-7.1V76.78Z"/><path d="M642.2,66.93v35.7h-7.85V66.93Z"/><path d="M669.35,66.93V80.38h.15A8.19,8.19,0,0,1,673,77.11a9.24,9.24,0,0,1,4.1-1,11.94,11.94,0,0,1,4.67.78A6.84,6.84,0,0,1,684.6,79a8.36,8.36,0,0,1,1.48,3.35,21,21,0,0,1,.42,4.37v15.9h-7.1V88a9,9,0,0,0-1-4.77,3.88,3.88,0,0,0-3.55-1.58,4.93,4.93,0,0,0-4.2,1.73q-1.3,1.73-1.3,5.67v13.55h-7.1V66.93Z"/><path d="M691.6,84.73a8.27,8.27,0,0,1,1.25-4.15,8.55,8.55,0,0,1,2.8-2.65,12,12,0,0,1,3.82-1.42,21.36,21.36,0,0,1,4.28-.43,27.92,27.92,0,0,1,4,.28,12.11,12.11,0,0,1,3.65,1.07,7.17,7.17,0,0,1,2.7,2.23,6.19,6.19,0,0,1,1.05,3.77V96.88a27.67,27.67,0,0,0,.2,3.35,6,6,0,0,0,.7,2.4h-7.2c-.13-.4-.24-.81-.33-1.22a10.93,10.93,0,0,1-.17-1.28,9.25,9.25,0,0,1-4,2.45,15.93,15.93,0,0,1-4.7.7,12.73,12.73,0,0,1-3.45-.45,7.93,7.93,0,0,1-2.8-1.4,6.48,6.48,0,0,1-1.88-2.4,8.14,8.14,0,0,1-.67-3.45,7.59,7.59,0,0,1,.77-3.62,6.63,6.63,0,0,1,2-2.28,8.84,8.84,0,0,1,2.8-1.27,29,29,0,0,1,3.18-.68c1.07-.17,2.12-.3,3.15-.4a19,19,0,0,0,2.75-.45,4.86,4.86,0,0,0,1.9-.87,1.94,1.94,0,0,0,.65-1.68,3.73,3.73,0,0,0-.38-1.82,2.73,2.73,0,0,0-1-1.05,3.83,3.83,0,0,0-1.45-.5,11,11,0,0,0-1.77-.13,5.39,5.39,0,0,0-3.3.9,4,4,0,0,0-1.4,3ZM708,90a3.16,3.16,0,0,1-1.13.63,11.36,11.36,0,0,1-1.45.37c-.51.1-1,.18-1.62.25s-1.13.15-1.7.25a12.61,12.61,0,0,0-1.58.4,4.75,4.75,0,0,0-1.35.68,3.18,3.18,0,0,0-.92,1.07,3.48,3.48,0,0,0-.35,1.65,3.38,3.38,0,0,0,.35,1.6,2.7,2.7,0,0,0,1,1,4,4,0,0,0,1.4.52,8.88,8.88,0,0,0,1.65.15,6.25,6.25,0,0,0,3.25-.7,4.7,4.7,0,0,0,1.7-1.67,5.23,5.23,0,0,0,.67-2,12.46,12.46,0,0,0,.13-1.6Z"/><path d="M739,99.33a7.35,7.35,0,0,1-3.28,3,12,12,0,0,1-9.67-.2,10.26,10.26,0,0,1-3.63-3,14,14,0,0,1-2.15-4.43,18.71,18.71,0,0,1-.72-5.2,17.51,17.51,0,0,1,.72-5,13.15,13.15,0,0,1,2.15-4.28,10.49,10.49,0,0,1,8.58-4.1,10.15,10.15,0,0,1,4.37,1,7.56,7.56,0,0,1,3.28,2.87h.1v-13h7.1v35.7h-6.75v-3.3Zm-.3-12.77a7.34,7.34,0,0,0-1-2.6,5.84,5.84,0,0,0-1.87-1.83,5.49,5.49,0,0,0-2.9-.7,5.73,5.73,0,0,0-3,.7A5.61,5.61,0,0,0,728,84a8.33,8.33,0,0,0-1.05,2.63,14.59,14.59,0,0,0-.32,3.07,12.8,12.8,0,0,0,.35,3,8.35,8.35,0,0,0,1.12,2.68,6.42,6.42,0,0,0,1.95,1.9,5.34,5.34,0,0,0,2.83.72,5.59,5.59,0,0,0,2.92-.7,5.34,5.34,0,0,0,1.88-1.87,8.41,8.41,0,0,0,1-2.68,15.75,15.75,0,0,0,.3-3.1A15.3,15.3,0,0,0,738.65,86.56Z"/><path d="M779.25,76.78v4.75h-5.2v12.8a2.4,2.4,0,0,0,3,3c.4,0,.78,0,1.15,0a8.29,8.29,0,0,0,1-.15v5.5a16.29,16.29,0,0,1-2,.2c-.74,0-1.45,0-2.15,0a20.88,20.88,0,0,1-3.13-.22,7.46,7.46,0,0,1-2.6-.88,4.58,4.58,0,0,1-1.77-1.85,6.65,6.65,0,0,1-.65-3.15V81.53h-4.3V76.78H767V69h7.1v7.75Z"/><path d="M789.75,66.93V80.38h.15a8.19,8.19,0,0,1,3.45-3.27,9.21,9.21,0,0,1,4.1-1,11.94,11.94,0,0,1,4.67.78A6.84,6.84,0,0,1,805,79a8.21,8.21,0,0,1,1.47,3.35,20.29,20.29,0,0,1,.43,4.37v15.9h-7.1V88a9.11,9.11,0,0,0-1-4.77,3.88,3.88,0,0,0-3.55-1.58,4.92,4.92,0,0,0-4.2,1.73q-1.31,1.73-1.3,5.67v13.55h-7.1V66.93Z"/><path d="M819.9,96.43a7.29,7.29,0,0,0,8.3.48,4.53,4.53,0,0,0,1.9-2.28h6.25a11.88,11.88,0,0,1-4.6,6.65,13.58,13.58,0,0,1-7.5,2,14.73,14.73,0,0,1-5.5-1,11.36,11.36,0,0,1-4.15-2.78,12.42,12.42,0,0,1-2.63-4.3,15.91,15.91,0,0,1-.92-5.5,15,15,0,0,1,1-5.4A12.46,12.46,0,0,1,814.7,80a12.65,12.65,0,0,1,4.17-2.88,13.41,13.41,0,0,1,5.38-1A12.31,12.31,0,0,1,830,77.36a11.51,11.51,0,0,1,4,3.42,14.14,14.14,0,0,1,2.28,4.9,18.54,18.54,0,0,1,.5,5.75H818.15Q818.3,94.88,819.9,96.43Zm8-13.6a5,5,0,0,0-3.87-1.4,6.09,6.09,0,0,0-2.83.58,5.29,5.29,0,0,0-1.8,1.42,5.4,5.4,0,0,0-.95,1.8,8.07,8.07,0,0,0-.32,1.7H829.7A8.25,8.25,0,0,0,827.92,82.83Z"/><path d="M50,169.21a4.2,4.2,0,0,0,1.23,1.35,5.29,5.29,0,0,0,1.72.77,7.88,7.88,0,0,0,3.6.08,5.46,5.46,0,0,0,1.5-.55,3.5,3.5,0,0,0,1.13-1,2.66,2.66,0,0,0,.45-1.58q0-1.6-2.13-2.4a42.6,42.6,0,0,0-5.92-1.6c-1-.23-2-.51-3-.82a10.59,10.59,0,0,1-2.62-1.25,6,6,0,0,1-1.85-2,5.54,5.54,0,0,1-.7-2.88,7.78,7.78,0,0,1,1-4.1,7.08,7.08,0,0,1,2.58-2.52,11.1,11.1,0,0,1,3.6-1.3,22.17,22.17,0,0,1,4.1-.38,20.14,20.14,0,0,1,4.07.4,11,11,0,0,1,3.53,1.35,8.06,8.06,0,0,1,2.57,2.53,8.58,8.58,0,0,1,1.23,4H59.26a3.1,3.1,0,0,0-1.55-2.77,7,7,0,0,0-3.3-.73,12.23,12.23,0,0,0-1.3.08,4.22,4.22,0,0,0-1.28.32,2.59,2.59,0,0,0-1,.73,1.88,1.88,0,0,0-.4,1.27,1.94,1.94,0,0,0,.7,1.55,5.31,5.31,0,0,0,1.82,1,22.79,22.79,0,0,0,2.58.67c1,.2,1.95.42,2.95.65a29.9,29.9,0,0,1,3,.85,9.84,9.84,0,0,1,2.63,1.33A6.49,6.49,0,0,1,66,164.31a6,6,0,0,1,.7,3,7.86,7.86,0,0,1-3.7,7,11.11,11.11,0,0,1-3.78,1.48,22.28,22.28,0,0,1-4.32.42,21.4,21.4,0,0,1-4.4-.45,11.61,11.61,0,0,1-3.83-1.5,8.19,8.19,0,0,1-3.92-7.1h6.75A4,4,0,0,0,50,169.21Z"/><path d="M85.06,149.78v4.75h-5.2v12.8a3.47,3.47,0,0,0,.6,2.4,3.47,3.47,0,0,0,2.4.6c.4,0,.78,0,1.15-.05a8.85,8.85,0,0,0,1-.15v5.5a16.29,16.29,0,0,1-2,.2c-.74,0-1.45,0-2.15,0a20.78,20.78,0,0,1-3.13-.22,7.46,7.46,0,0,1-2.6-.88,4.58,4.58,0,0,1-1.77-1.85,6.53,6.53,0,0,1-.65-3.15V154.53h-4.3v-4.75h4.3V142h7.1v7.75Z"/><path d="M95.21,149.78v4.8h.1a8.46,8.46,0,0,1,1.35-2.22,8.33,8.33,0,0,1,2-1.75,9.26,9.26,0,0,1,2.35-1.13,8.36,8.36,0,0,1,2.6-.4,5.47,5.47,0,0,1,1.55.25v6.6c-.34-.07-.74-.12-1.2-.17a12.82,12.82,0,0,0-1.35-.08,7.61,7.61,0,0,0-3.3.65,5.71,5.71,0,0,0-2.18,1.78,7,7,0,0,0-1.17,2.62,13.9,13.9,0,0,0-.35,3.25v11.65h-7.1V149.78Z"/><path d="M114.61,169.43a7.29,7.29,0,0,0,8.3.48,4.53,4.53,0,0,0,1.9-2.28h6.25a11.88,11.88,0,0,1-4.6,6.65,13.58,13.58,0,0,1-7.5,2,14.73,14.73,0,0,1-5.5-1,11.36,11.36,0,0,1-4.15-2.78,12.42,12.42,0,0,1-2.63-4.3,15.68,15.68,0,0,1-.92-5.5,15,15,0,0,1,.95-5.4,12.55,12.55,0,0,1,6.87-7.2,13.41,13.41,0,0,1,5.38-1,12.31,12.31,0,0,1,5.75,1.28,11.51,11.51,0,0,1,4,3.42,14.14,14.14,0,0,1,2.28,4.9,18.54,18.54,0,0,1,.5,5.75H112.86Q113,167.88,114.61,169.43Zm8-13.6a5,5,0,0,0-3.87-1.4,6.09,6.09,0,0,0-2.83.58,5.29,5.29,0,0,0-1.8,1.42,5.22,5.22,0,0,0-.95,1.8,8.07,8.07,0,0,0-.32,1.7h11.55A8.25,8.25,0,0,0,122.63,155.83Z"/><path d="M142.46,149.78v3.6h.15a8.08,8.08,0,0,1,3.5-3.27,10,10,0,0,1,4.4-1,12,12,0,0,1,4.67.78,6.84,6.84,0,0,1,2.88,2.15,8.21,8.21,0,0,1,1.47,3.35,21,21,0,0,1,.43,4.37v15.9h-7.1V161a9.11,9.11,0,0,0-1-4.77,3.88,3.88,0,0,0-3.55-1.58,4.9,4.9,0,0,0-4.2,1.73q-1.31,1.72-1.3,5.67v13.55h-7.1V149.78Z"/><path d="M189.78,177.53a8.78,8.78,0,0,1-1.82,3.73,11,11,0,0,1-4.05,2.92,17.51,17.51,0,0,1-7.11,1.2,16.91,16.91,0,0,1-3.87-.47,12.24,12.24,0,0,1-3.6-1.48,9,9,0,0,1-2.7-2.57,7.44,7.44,0,0,1-1.22-3.78h7.05a4.06,4.06,0,0,0,1.95,2.78,7,7,0,0,0,3.35.77,5.15,5.15,0,0,0,4.37-1.8,7.07,7.07,0,0,0,1.33-4.55v-3.4h-.1a7,7,0,0,1-3.28,3,10.61,10.61,0,0,1-4.47,1,11.32,11.32,0,0,1-5-1,9.51,9.51,0,0,1-3.45-2.8,11.83,11.83,0,0,1-2-4.15,19.58,19.58,0,0,1-.63-5,16.17,16.17,0,0,1,.73-4.82,12.4,12.4,0,0,1,2.13-4.1,10.19,10.19,0,0,1,3.47-2.83,10.45,10.45,0,0,1,4.78-1,10,10,0,0,1,4.47.95,7.75,7.75,0,0,1,3.23,3.2h.1v-3.45h6.75V174A17.58,17.58,0,0,1,189.78,177.53Zm-9.73-8.6a5.51,5.51,0,0,0,1.91-1.6,7.08,7.08,0,0,0,1.12-2.27,9.49,9.49,0,0,0,.38-2.68,14.59,14.59,0,0,0-.3-3,7.7,7.7,0,0,0-1-2.53,5.21,5.21,0,0,0-1.86-1.75,5.83,5.83,0,0,0-2.89-.65,5.23,5.23,0,0,0-2.58.6,5.3,5.3,0,0,0-1.8,1.63A6.89,6.89,0,0,0,172,159a11.36,11.36,0,0,0-.32,2.77,14.47,14.47,0,0,0,.27,2.78,7.43,7.43,0,0,0,.95,2.47,5.56,5.56,0,0,0,1.78,1.8,5,5,0,0,0,2.75.7A5.59,5.59,0,0,0,180.05,168.93Z"/><path d="M210.11,149.78v4.75h-5.2v12.8a2.4,2.4,0,0,0,3,3c.39,0,.78,0,1.14-.05a8.73,8.73,0,0,0,1.06-.15v5.5a16.49,16.49,0,0,1-2,.2c-.74,0-1.45,0-2.15,0a20.78,20.78,0,0,1-3.13-.22,7.46,7.46,0,0,1-2.6-.88,4.58,4.58,0,0,1-1.77-1.85,6.52,6.52,0,0,1-.66-3.15V154.53h-4.3v-4.75h4.3V142h7.11v7.75Z"/><path d="M220.6,139.93v13.45h.15a8.15,8.15,0,0,1,3.46-3.27,9.17,9.17,0,0,1,4.09-1,12,12,0,0,1,4.68.78,6.81,6.81,0,0,1,2.87,2.15,8.22,8.22,0,0,1,1.48,3.35,21,21,0,0,1,.42,4.37v15.9h-7.1V161a9,9,0,0,0-1-4.77,3.87,3.87,0,0,0-3.55-1.58,4.93,4.93,0,0,0-4.2,1.73c-.86,1.15-1.3,3-1.3,5.67v13.55h-7.1v-35.7Z"/><path d="M251.35,167.93v7.7a7.67,7.67,0,0,1-.62,3.13,8.06,8.06,0,0,1-1.68,2.47,8.77,8.77,0,0,1-2.47,1.73,11.1,11.1,0,0,1-3,.92v-3.6a4,4,0,0,0,1.43-.6,5.2,5.2,0,0,0,1.17-1.07,4.22,4.22,0,0,0,.75-1.4,4.07,4.07,0,0,0,.2-1.58h-3.6v-7.7Z"/><path d="M278.05,139.93v13h.1a7.59,7.59,0,0,1,3.53-2.92,11.84,11.84,0,0,1,4.62-.93,9.88,9.88,0,0,1,7.28,3.25,12.4,12.4,0,0,1,2.47,4.23,20.22,20.22,0,0,1,0,12.25,12.45,12.45,0,0,1-2.47,4.22,9.88,9.88,0,0,1-7.28,3.25,13.64,13.64,0,0,1-5.1-.9,6.5,6.5,0,0,1-3.4-3h-.1v3.3H271v-35.7Zm11.5,19.65a8.19,8.19,0,0,0-1.1-2.65,5.7,5.7,0,0,0-1.87-1.82,5.76,5.76,0,0,0-5.43,0,5.69,5.69,0,0,0-1.9,1.82,8.41,8.41,0,0,0-1.1,2.65,14,14,0,0,0-.35,3.15,13.77,13.77,0,0,0,.35,3.1,8.41,8.41,0,0,0,1.1,2.65,5.72,5.72,0,0,0,1.9,1.83,5.84,5.84,0,0,0,5.43,0,5.73,5.73,0,0,0,1.87-1.83,8.19,8.19,0,0,0,1.1-2.65,13.21,13.21,0,0,0,.35-3.1A13.46,13.46,0,0,0,289.55,159.58Z"/><path d="M319,175.63V172h-.15a8,8,0,0,1-3.5,3.25,10.27,10.27,0,0,1-4.4,1,12.4,12.4,0,0,1-4.67-.75,6.79,6.79,0,0,1-2.88-2.12,8.33,8.33,0,0,1-1.47-3.35,20.46,20.46,0,0,1-.43-4.38v-15.9h7.1v14.6a9.15,9.15,0,0,0,1,4.78,3.87,3.87,0,0,0,3.55,1.57,4.9,4.9,0,0,0,4.2-1.72c.87-1.15,1.3-3,1.3-5.68V149.78h7.1v25.85Z"/><path d="M345.35,149.78v4.75h-5.2v12.8a2.4,2.4,0,0,0,3,3c.4,0,.79,0,1.15-.05a8.29,8.29,0,0,0,1.05-.15v5.5a16.09,16.09,0,0,1-2,.2c-.73,0-1.45,0-2.15,0a20.65,20.65,0,0,1-3.12-.22,7.39,7.39,0,0,1-2.6-.88,4.67,4.67,0,0,1-1.78-1.85,6.65,6.65,0,0,1-.65-3.15V154.53h-4.3v-4.75h4.3V142h7.1v7.75Z"/><path d="M362.35,157.73a8.27,8.27,0,0,1,1.25-4.15,8.64,8.64,0,0,1,2.8-2.65,12.09,12.09,0,0,1,3.83-1.42,21.18,21.18,0,0,1,4.27-.43,27.92,27.92,0,0,1,3.95.28,12,12,0,0,1,3.65,1.07,7.17,7.17,0,0,1,2.7,2.23,6.19,6.19,0,0,1,1.05,3.77v13.45a27.67,27.67,0,0,0,.2,3.35,6.19,6.19,0,0,0,.7,2.4h-7.2a10.43,10.43,0,0,1-.32-1.22,11,11,0,0,1-.18-1.28,9.19,9.19,0,0,1-4,2.45,15.93,15.93,0,0,1-4.7.7,12.73,12.73,0,0,1-3.45-.45,8,8,0,0,1-2.8-1.4,6.45,6.45,0,0,1-1.87-2.4,8.13,8.13,0,0,1-.68-3.45,7.47,7.47,0,0,1,.78-3.62,6.43,6.43,0,0,1,2-2.28,8.74,8.74,0,0,1,2.8-1.27,29.36,29.36,0,0,1,3.17-.68c1.07-.17,2.12-.3,3.15-.4a18.79,18.79,0,0,0,2.75-.45,4.86,4.86,0,0,0,1.9-.87,1.92,1.92,0,0,0,.65-1.68,3.74,3.74,0,0,0-.37-1.82,2.81,2.81,0,0,0-1-1,3.9,3.9,0,0,0-1.45-.5,11,11,0,0,0-1.78-.13,5.39,5.39,0,0,0-3.3.9,4,4,0,0,0-1.4,3Zm16.4,5.25a3.12,3.12,0,0,1-1.12.63,11.8,11.8,0,0,1-1.45.37c-.52.1-1.06.18-1.63.25s-1.13.15-1.7.25a12,12,0,0,0-1.57.4,4.5,4.5,0,0,0-1.35.68,3.21,3.21,0,0,0-.93,1.07,3.48,3.48,0,0,0-.35,1.65,3.38,3.38,0,0,0,.35,1.6,2.78,2.78,0,0,0,.95,1,4,4,0,0,0,1.4.52,9,9,0,0,0,1.65.15,6.23,6.23,0,0,0,3.25-.7,4.62,4.62,0,0,0,1.7-1.67,5.43,5.43,0,0,0,.68-2,14.18,14.18,0,0,0,.12-1.6Z"/><path d="M398.65,139.93v35.7h-7.1v-35.7Z"/><path d="M426.5,175.63l-4.6-17.35h-.1l-4.4,17.35h-7.35l-8.2-25.85h7.5l4.75,17.55h.1l4.3-17.55h6.9l4.4,17.5h.1l4.75-17.5H442l-8.15,25.85Z"/><path d="M444.65,157.73a8.27,8.27,0,0,1,1.25-4.15,8.55,8.55,0,0,1,2.8-2.65,12,12,0,0,1,3.83-1.42,21.18,21.18,0,0,1,4.27-.43,27.92,27.92,0,0,1,3.95.28,12.11,12.11,0,0,1,3.65,1.07,7.17,7.17,0,0,1,2.7,2.23,6.19,6.19,0,0,1,1,3.77v13.45a27.67,27.67,0,0,0,.2,3.35,6,6,0,0,0,.7,2.4h-7.2a10.43,10.43,0,0,1-.32-1.22,9.17,9.17,0,0,1-.18-1.28,9.25,9.25,0,0,1-4,2.45,15.93,15.93,0,0,1-4.7.7,12.73,12.73,0,0,1-3.45-.45,7.93,7.93,0,0,1-2.8-1.4,6.45,6.45,0,0,1-1.87-2.4,8.13,8.13,0,0,1-.68-3.45,7.47,7.47,0,0,1,.78-3.62,6.43,6.43,0,0,1,2-2.28,8.74,8.74,0,0,1,2.8-1.27,29.36,29.36,0,0,1,3.17-.68c1.07-.17,2.12-.3,3.15-.4a18.79,18.79,0,0,0,2.75-.45,4.86,4.86,0,0,0,1.9-.87,1.94,1.94,0,0,0,.65-1.68,3.74,3.74,0,0,0-.37-1.82,2.81,2.81,0,0,0-1-1,3.9,3.9,0,0,0-1.45-.5,11.12,11.12,0,0,0-1.78-.13,5.39,5.39,0,0,0-3.3.9,4,4,0,0,0-1.4,3Zm16.4,5.25a3.12,3.12,0,0,1-1.12.63,11.8,11.8,0,0,1-1.45.37c-.52.1-1.06.18-1.63.25s-1.13.15-1.7.25a12,12,0,0,0-1.57.4,4.5,4.5,0,0,0-1.35.68,3.21,3.21,0,0,0-.93,1.07,3.48,3.48,0,0,0-.35,1.65,3.38,3.38,0,0,0,.35,1.6,2.78,2.78,0,0,0,.95,1,4,4,0,0,0,1.4.52,8.88,8.88,0,0,0,1.65.15,6.23,6.23,0,0,0,3.25-.7,4.7,4.7,0,0,0,1.7-1.67,5.43,5.43,0,0,0,.68-2,14.18,14.18,0,0,0,.12-1.6Z"/><path d="M483.2,183.33a10.31,10.31,0,0,1-5.7,1.35c-.73,0-1.46,0-2.17-.07l-2.18-.18v-5.85l2.05.2a14.73,14.73,0,0,0,2.1.05,2.79,2.79,0,0,0,2.08-1.1,3.53,3.53,0,0,0,.67-2.1,4.26,4.26,0,0,0-.3-1.6l-9.05-24.25h7.55l5.85,17.7h.1l5.65-17.7h7.35l-10.8,29.05A8.74,8.74,0,0,1,483.2,183.33Z"/><path d="M505.58,169.21a4.06,4.06,0,0,0,1.22,1.35,5.34,5.34,0,0,0,1.73.77,7.93,7.93,0,0,0,2,.25,8.11,8.11,0,0,0,1.58-.17,5.46,5.46,0,0,0,1.5-.55,3.47,3.47,0,0,0,1.12-1,2.66,2.66,0,0,0,.45-1.58c0-1.07-.71-1.87-2.12-2.4a42.8,42.8,0,0,0-5.93-1.6c-1-.23-2-.51-3-.82a10.66,10.66,0,0,1-2.63-1.25,6.15,6.15,0,0,1-1.85-2,5.54,5.54,0,0,1-.7-2.88,7.78,7.78,0,0,1,1-4.1,7.05,7.05,0,0,1,2.57-2.52,11.27,11.27,0,0,1,3.6-1.3,22.17,22.17,0,0,1,4.1-.38,20.31,20.31,0,0,1,4.08.4,10.93,10.93,0,0,1,3.52,1.35,8.19,8.19,0,0,1,2.58,2.53,8.46,8.46,0,0,1,1.22,4h-6.75a3.1,3.1,0,0,0-1.55-2.77,7,7,0,0,0-3.3-.73,12.39,12.39,0,0,0-1.3.08,4.15,4.15,0,0,0-1.27.32,2.63,2.63,0,0,0-1,.73,1.88,1.88,0,0,0-.4,1.27,1.94,1.94,0,0,0,.7,1.55,5.46,5.46,0,0,0,1.83,1,22.58,22.58,0,0,0,2.57.67c1,.2,2,.42,3,.65a30.85,30.85,0,0,1,3,.85,9.93,9.93,0,0,1,2.62,1.33,6.37,6.37,0,0,1,1.85,2.05,6,6,0,0,1,.7,3,7.81,7.81,0,0,1-3.7,7,11.13,11.13,0,0,1-3.77,1.48,22.3,22.3,0,0,1-4.33.42,21.4,21.4,0,0,1-4.4-.45,11.56,11.56,0,0,1-3.82-1.5,8.47,8.47,0,0,1-2.75-2.77,8.72,8.72,0,0,1-1.18-4.33h6.75A3.87,3.87,0,0,0,505.58,169.21Z"/><path d="M537.65,154.53v-4.75h4.25v-2a7.76,7.76,0,0,1,2.15-5.65q2.15-2.2,6.5-2.2c.63,0,1.27,0,1.9.08l1.85.12v5.3a21.78,21.78,0,0,0-2.6-.15,2.7,2.7,0,0,0-2.07.68,3.28,3.28,0,0,0-.63,2.27v1.55h4.9v4.75H549v21.1h-7.1v-21.1Z"/><path d="M557.15,157.11a11.93,11.93,0,0,1,2.7-4.3,12.07,12.07,0,0,1,4.2-2.75,14.76,14.76,0,0,1,5.5-1,15,15,0,0,1,5.53,1,11.78,11.78,0,0,1,6.92,7.05,17,17,0,0,1,0,11.22,12.11,12.11,0,0,1-2.7,4.28,11.76,11.76,0,0,1-4.22,2.72,15.42,15.42,0,0,1-5.53.95,15.18,15.18,0,0,1-5.5-.95,11.86,11.86,0,0,1-4.2-2.72,12.11,12.11,0,0,1-2.7-4.28,17,17,0,0,1,0-11.22Zm6.45,8.65a8,8,0,0,0,1,2.65,5.46,5.46,0,0,0,1.92,1.87,5.84,5.84,0,0,0,3,.7,6,6,0,0,0,3-.7,5.55,5.55,0,0,0,1.95-1.87,8.21,8.21,0,0,0,1-2.65,15.26,15.26,0,0,0,.3-3,15.54,15.54,0,0,0-.3-3,7.87,7.87,0,0,0-1-2.65,5.73,5.73,0,0,0-1.95-1.87,5.81,5.81,0,0,0-3-.73,5.47,5.47,0,0,0-4.92,2.6,7.68,7.68,0,0,0-1,2.65,15.54,15.54,0,0,0-.3,3A15.26,15.26,0,0,0,563.6,165.76Z"/><path d="M605.05,175.63V172h-.15a8,8,0,0,1-3.5,3.25,10.27,10.27,0,0,1-4.4,1,12.37,12.37,0,0,1-4.67-.75,6.79,6.79,0,0,1-2.88-2.12,8.33,8.33,0,0,1-1.47-3.35,20.46,20.46,0,0,1-.43-4.38v-15.9h7.1v14.6a9.05,9.05,0,0,0,1,4.78,3.87,3.87,0,0,0,3.55,1.57,4.92,4.92,0,0,0,4.2-1.72c.87-1.15,1.3-3,1.3-5.68V149.78h7.1v25.85Z"/><path d="M624,149.78v3.6h.15a8.13,8.13,0,0,1,3.5-3.27,10,10,0,0,1,4.4-1,11.94,11.94,0,0,1,4.67.78,6.84,6.84,0,0,1,2.88,2.15,8.36,8.36,0,0,1,1.48,3.35,21,21,0,0,1,.42,4.37v15.9h-7.1V161a9,9,0,0,0-1-4.77,3.88,3.88,0,0,0-3.55-1.58,4.93,4.93,0,0,0-4.2,1.73q-1.3,1.72-1.3,5.67v13.55h-7.1V149.78Z"/><path d="M665.2,172.33a7.35,7.35,0,0,1-3.28,3,12,12,0,0,1-9.67-.2,10.26,10.26,0,0,1-3.63-3,14,14,0,0,1-2.15-4.43,18.71,18.71,0,0,1-.72-5.2,17.51,17.51,0,0,1,.72-5,13.15,13.15,0,0,1,2.15-4.28,10.8,10.8,0,0,1,3.58-3,10.63,10.63,0,0,1,5-1.13,10.15,10.15,0,0,1,4.37,1,7.56,7.56,0,0,1,3.28,2.87h.1v-13h7.1v35.7H665.3v-3.3Zm-.3-12.77a7.34,7.34,0,0,0-1-2.6,5.74,5.74,0,0,0-1.87-1.83,5.46,5.46,0,0,0-2.9-.7,5.73,5.73,0,0,0-3,.7,5.61,5.61,0,0,0-1.93,1.85,8.33,8.33,0,0,0-1.05,2.63,14.59,14.59,0,0,0-.32,3.07,13.35,13.35,0,0,0,.35,3,8.35,8.35,0,0,0,1.12,2.68,6.42,6.42,0,0,0,1.95,1.9,5.34,5.34,0,0,0,2.83.72,5.56,5.56,0,0,0,2.92-.7,5.34,5.34,0,0,0,1.88-1.87,8.41,8.41,0,0,0,1-2.68,15.75,15.75,0,0,0,.3-3.1A15.3,15.3,0,0,0,664.9,159.56Z"/><path d="M50.91,222.78v3.5H51a10,10,0,0,1,3.37-3.1,9.21,9.21,0,0,1,4.53-1.1,10.44,10.44,0,0,1,4.47.95,6.28,6.28,0,0,1,3.08,3.35,11.07,11.07,0,0,1,3.12-3,8.31,8.31,0,0,1,4.68-1.3,14,14,0,0,1,3.8.5,7.74,7.74,0,0,1,3,1.6,7.35,7.35,0,0,1,2,2.88,11.75,11.75,0,0,1,.7,4.27v17.3h-7.1V234c0-.87,0-1.68-.1-2.45a5.26,5.26,0,0,0-.55-2,3.32,3.32,0,0,0-1.33-1.35,4.8,4.8,0,0,0-2.37-.5,4.51,4.51,0,0,0-2.43.58,4.09,4.09,0,0,0-1.45,1.5,6,6,0,0,0-.7,2.1,15.56,15.56,0,0,0-.17,2.37v14.4h-7.1v-14.5c0-.77,0-1.52,0-2.27a6.58,6.58,0,0,0-.43-2.08,3.14,3.14,0,0,0-1.25-1.52,4.63,4.63,0,0,0-2.57-.58,5.35,5.35,0,0,0-1.33.23,4.37,4.37,0,0,0-1.6.85,4.84,4.84,0,0,0-1.32,1.8,7.21,7.21,0,0,0-.55,3.07v15h-7.1V222.78Z"/><path d="M98.86,256.33a10.31,10.31,0,0,1-5.7,1.35c-.74,0-1.46,0-2.18-.07l-2.17-.18v-5.85l2,.2a14.73,14.73,0,0,0,2.1.05,2.76,2.76,0,0,0,2.07-1.1,3.53,3.53,0,0,0,.68-2.1,4.26,4.26,0,0,0-.3-1.6l-9-24.25h7.55l5.85,17.7h.1l5.65-17.7h7.35l-10.8,29.05A8.8,8.8,0,0,1,98.86,256.33Z"/><path d="M121.23,242.21a4.2,4.2,0,0,0,1.23,1.35,5.29,5.29,0,0,0,1.72.77,7.88,7.88,0,0,0,3.6.08,5.46,5.46,0,0,0,1.5-.55,3.5,3.5,0,0,0,1.13-1,2.66,2.66,0,0,0,.45-1.58q0-1.6-2.13-2.4a42.6,42.6,0,0,0-5.92-1.6c-1-.23-2-.51-3-.82a10.59,10.59,0,0,1-2.62-1.25,6,6,0,0,1-1.85-2,5.54,5.54,0,0,1-.7-2.88,7.78,7.78,0,0,1,1-4.1,7.08,7.08,0,0,1,2.58-2.52,11.1,11.1,0,0,1,3.6-1.3,22.17,22.17,0,0,1,4.1-.38,20.21,20.21,0,0,1,4.07.4,11,11,0,0,1,3.53,1.35,8.06,8.06,0,0,1,2.57,2.53,8.58,8.58,0,0,1,1.23,4h-6.75a3.1,3.1,0,0,0-1.55-2.77,7,7,0,0,0-3.3-.73,12.23,12.23,0,0,0-1.3.08,4.22,4.22,0,0,0-1.28.32,2.59,2.59,0,0,0-1,.73,1.88,1.88,0,0,0-.4,1.27,1.94,1.94,0,0,0,.7,1.55,5.31,5.31,0,0,0,1.82,1,22.79,22.79,0,0,0,2.58.67c1,.2,1.95.42,2.95.65a29.9,29.9,0,0,1,3,.85,10,10,0,0,1,2.63,1.33,6.49,6.49,0,0,1,1.85,2.05,6,6,0,0,1,.7,3,8.29,8.29,0,0,1-1,4.28,8.14,8.14,0,0,1-2.67,2.77,11.11,11.11,0,0,1-3.78,1.48,22.28,22.28,0,0,1-4.32.42,21.4,21.4,0,0,1-4.4-.45,11.61,11.61,0,0,1-3.83-1.5,8.19,8.19,0,0,1-3.92-7.1h6.75A3.87,3.87,0,0,0,121.23,242.21Z"/><path d="M149.71,242.43A6.33,6.33,0,0,0,154.3,244a6.41,6.41,0,0,0,3.71-1.07,4.53,4.53,0,0,0,1.9-2.28h6.25a11.85,11.85,0,0,1-4.61,6.65,13.54,13.54,0,0,1-7.5,2,14.8,14.8,0,0,1-5.5-1,11.41,11.41,0,0,1-4.14-2.78,12.42,12.42,0,0,1-2.63-4.3,15.68,15.68,0,0,1-.92-5.5,15.17,15.17,0,0,1,.94-5.4,12.6,12.6,0,0,1,6.88-7.2,13.4,13.4,0,0,1,5.37-1,12.25,12.25,0,0,1,5.75,1.28,11.46,11.46,0,0,1,4,3.42,14.14,14.14,0,0,1,2.28,4.9,18.54,18.54,0,0,1,.5,5.75H148C148.05,239.73,148.64,241.4,149.71,242.43Zm8-13.6a5,5,0,0,0-3.87-1.4A6.09,6.09,0,0,0,151,228a5.29,5.29,0,0,0-1.8,1.42,5.22,5.22,0,0,0-.95,1.8,8.07,8.07,0,0,0-.32,1.7h11.55A8.25,8.25,0,0,0,157.73,228.83Z"/><path d="M178.11,212.93v35.7H171v-35.7Z"/><path d="M181,227.53v-4.75h4.25v-2a7.76,7.76,0,0,1,2.15-5.65c1.44-1.47,3.6-2.2,6.5-2.2.64,0,1.27,0,1.9.08l1.85.12v5.3a21.66,21.66,0,0,0-2.6-.15A2.73,2.73,0,0,0,193,219a3.28,3.28,0,0,0-.62,2.27v1.55h4.89v4.75h-4.89v21.1h-7.11v-21.1Z"/><path d="M211.55,227.53v-4.75h4.25v-2a7.76,7.76,0,0,1,2.15-5.65c1.44-1.47,3.6-2.2,6.5-2.2.64,0,1.27,0,1.9.08l1.85.12v5.3a21.78,21.78,0,0,0-2.6-.15,2.73,2.73,0,0,0-2.07.68,3.28,3.28,0,0,0-.63,2.27v1.55h4.9v4.75h-4.9v21.1h-7.1v-21.1Z"/><path d="M230.6,230.73a8.27,8.27,0,0,1,1.25-4.15,8.64,8.64,0,0,1,2.8-2.65,12.09,12.09,0,0,1,3.83-1.42,21.18,21.18,0,0,1,4.27-.43,27.92,27.92,0,0,1,3.95.28,12,12,0,0,1,3.65,1.07,7.17,7.17,0,0,1,2.7,2.23,6.19,6.19,0,0,1,1,3.77v13.45a27.67,27.67,0,0,0,.2,3.35,6.19,6.19,0,0,0,.7,2.4h-7.2a10.43,10.43,0,0,1-.32-1.22,11,11,0,0,1-.18-1.28,9.19,9.19,0,0,1-4,2.45,15.93,15.93,0,0,1-4.7.7,12.73,12.73,0,0,1-3.45-.45,8,8,0,0,1-2.8-1.4,6.45,6.45,0,0,1-1.87-2.4,8.13,8.13,0,0,1-.68-3.45,7.47,7.47,0,0,1,.78-3.62,6.53,6.53,0,0,1,2-2.28,8.74,8.74,0,0,1,2.8-1.27,29.36,29.36,0,0,1,3.17-.68c1.07-.17,2.12-.3,3.15-.4a18.79,18.79,0,0,0,2.75-.45,4.79,4.79,0,0,0,1.9-.87,1.92,1.92,0,0,0,.65-1.68,3.74,3.74,0,0,0-.37-1.82,2.81,2.81,0,0,0-1-1,3.9,3.9,0,0,0-1.45-.5,11,11,0,0,0-1.78-.13,5.39,5.39,0,0,0-3.3.9,4,4,0,0,0-1.4,3ZM247,236a3.12,3.12,0,0,1-1.12.63,11.36,11.36,0,0,1-1.45.37c-.52.1-1.06.18-1.63.25s-1.13.15-1.7.25a12,12,0,0,0-1.57.4,4.5,4.5,0,0,0-1.35.68,3.21,3.21,0,0,0-.93,1.07,3.48,3.48,0,0,0-.35,1.65,3.38,3.38,0,0,0,.35,1.6,2.78,2.78,0,0,0,.95,1,4,4,0,0,0,1.4.52,9,9,0,0,0,1.65.15,6.23,6.23,0,0,0,3.25-.7,4.62,4.62,0,0,0,1.7-1.67,5.43,5.43,0,0,0,.68-2,14.18,14.18,0,0,0,.12-1.6Z"/><path d="M266.9,212.93v35.7h-7.1v-35.7Z"/><path d="M279.8,212.93v35.7h-7.1v-35.7Z"/><path d="M285.6,218.78v-5.85h7.1v5.85Zm7.1,4v25.85h-7.1V222.78Z"/><path d="M305.05,222.78v3.6h.15a8.13,8.13,0,0,1,3.5-3.27,10.06,10.06,0,0,1,4.4-1,12,12,0,0,1,4.68.78,6.87,6.87,0,0,1,2.87,2.15,8.36,8.36,0,0,1,1.48,3.35,21,21,0,0,1,.42,4.37v15.9h-7.1V234a9,9,0,0,0-1-4.77,3.87,3.87,0,0,0-3.55-1.58,4.93,4.93,0,0,0-4.2,1.73c-.86,1.15-1.3,3-1.3,5.67v13.55h-7.1V222.78Z"/><path d="M352.38,250.53a8.8,8.8,0,0,1-1.83,3.73,10.81,10.81,0,0,1-4.05,2.92,17.43,17.43,0,0,1-7.1,1.2,16.78,16.78,0,0,1-3.87-.47,12.24,12.24,0,0,1-3.6-1.48,8.72,8.72,0,0,1-2.7-2.57,7.44,7.44,0,0,1-1.23-3.78h7.05a4.09,4.09,0,0,0,1.95,2.78,7.1,7.1,0,0,0,3.35.77,5.17,5.17,0,0,0,4.38-1.8,7.06,7.06,0,0,0,1.32-4.55v-3.4H346a7,7,0,0,1-3.27,3,10.63,10.63,0,0,1-4.48,1,11.35,11.35,0,0,1-5-1,9.59,9.59,0,0,1-3.45-2.8,11.64,11.64,0,0,1-2-4.15,19.58,19.58,0,0,1-.63-5,15.86,15.86,0,0,1,.73-4.82A12.57,12.57,0,0,1,330,226a10.22,10.22,0,0,1,3.48-2.83,10.4,10.4,0,0,1,4.77-1,10.08,10.08,0,0,1,4.48.95,7.67,7.67,0,0,1,3.22,3.2h.1v-3.45h6.75V247A17.5,17.5,0,0,1,352.38,250.53Zm-9.73-8.6a5.48,5.48,0,0,0,1.9-1.6,7.11,7.11,0,0,0,1.13-2.27,9.48,9.48,0,0,0,.37-2.68,14.59,14.59,0,0,0-.3-3,7.49,7.49,0,0,0-1-2.53,5.1,5.1,0,0,0-1.85-1.75,5.87,5.87,0,0,0-2.9-.65,5.17,5.17,0,0,0-2.57.6,5.3,5.3,0,0,0-1.8,1.63,6.53,6.53,0,0,0-1.05,2.35,11.36,11.36,0,0,0-.33,2.77,13.73,13.73,0,0,0,.28,2.78,7.43,7.43,0,0,0,1,2.47,5.63,5.63,0,0,0,1.77,1.8,5,5,0,0,0,2.75.7A5.66,5.66,0,0,0,342.65,241.93Z"/><path d="M372.1,230.73a8.27,8.27,0,0,1,1.25-4.15,8.55,8.55,0,0,1,2.8-2.65,12.09,12.09,0,0,1,3.83-1.42,21.18,21.18,0,0,1,4.27-.43,27.92,27.92,0,0,1,3.95.28,12,12,0,0,1,3.65,1.07,7.17,7.17,0,0,1,2.7,2.23,6.19,6.19,0,0,1,1.05,3.77v13.45a27.67,27.67,0,0,0,.2,3.35,6.19,6.19,0,0,0,.7,2.4h-7.2a10.43,10.43,0,0,1-.32-1.22,9.17,9.17,0,0,1-.18-1.28,9.25,9.25,0,0,1-4,2.45,15.93,15.93,0,0,1-4.7.7,12.73,12.73,0,0,1-3.45-.45,7.93,7.93,0,0,1-2.8-1.4A6.45,6.45,0,0,1,372,245a8.13,8.13,0,0,1-.68-3.45,7.47,7.47,0,0,1,.78-3.62,6.43,6.43,0,0,1,2-2.28,8.74,8.74,0,0,1,2.8-1.27,28.85,28.85,0,0,1,3.17-.68c1.07-.17,2.12-.3,3.15-.4a19,19,0,0,0,2.75-.45,4.86,4.86,0,0,0,1.9-.87,1.92,1.92,0,0,0,.65-1.68,3.74,3.74,0,0,0-.37-1.82,2.81,2.81,0,0,0-1-1,3.9,3.9,0,0,0-1.45-.5,11,11,0,0,0-1.78-.13,5.39,5.39,0,0,0-3.3.9,4,4,0,0,0-1.4,3ZM388.5,236a3.12,3.12,0,0,1-1.12.63,11.8,11.8,0,0,1-1.45.37c-.52.1-1.06.18-1.63.25s-1.13.15-1.7.25a12,12,0,0,0-1.57.4,4.5,4.5,0,0,0-1.35.68,3.1,3.1,0,0,0-.93,1.07,3.48,3.48,0,0,0-.35,1.65,3.38,3.38,0,0,0,.35,1.6,2.7,2.7,0,0,0,.95,1,4,4,0,0,0,1.4.52,9,9,0,0,0,1.65.15,6.25,6.25,0,0,0,3.25-.7,4.7,4.7,0,0,0,1.7-1.67,5.43,5.43,0,0,0,.68-2,14.18,14.18,0,0,0,.12-1.6Z"/><path d="M425.53,250.53a8.92,8.92,0,0,1-1.83,3.73,10.81,10.81,0,0,1-4.05,2.92,17.46,17.46,0,0,1-7.1,1.2,16.84,16.84,0,0,1-3.87-.47,12.24,12.24,0,0,1-3.6-1.48,8.72,8.72,0,0,1-2.7-2.57,7.44,7.44,0,0,1-1.23-3.78h7.05a4.09,4.09,0,0,0,1.95,2.78,7.08,7.08,0,0,0,3.35.77,5.17,5.17,0,0,0,4.38-1.8,7.12,7.12,0,0,0,1.32-4.55v-3.4h-.1a7.06,7.06,0,0,1-3.27,3,10.63,10.63,0,0,1-4.48,1,11.35,11.35,0,0,1-5-1,9.59,9.59,0,0,1-3.45-2.8,11.64,11.64,0,0,1-2-4.15,19.58,19.58,0,0,1-.63-5,15.86,15.86,0,0,1,.73-4.82,12.57,12.57,0,0,1,2.12-4.1,10.13,10.13,0,0,1,3.48-2.83,10.4,10.4,0,0,1,4.77-1,10.08,10.08,0,0,1,4.48.95,7.73,7.73,0,0,1,3.22,3.2h.1v-3.45H426V247A17.5,17.5,0,0,1,425.53,250.53Zm-9.73-8.6a5.48,5.48,0,0,0,1.9-1.6,7.11,7.11,0,0,0,1.13-2.27,9.48,9.48,0,0,0,.37-2.68,14.59,14.59,0,0,0-.3-3,7.49,7.49,0,0,0-1-2.53,5.18,5.18,0,0,0-1.85-1.75,5.84,5.84,0,0,0-2.9-.65,5.17,5.17,0,0,0-2.57.6,5.3,5.3,0,0,0-1.8,1.63,6.53,6.53,0,0,0-1,2.35,11.36,11.36,0,0,0-.33,2.77,13.73,13.73,0,0,0,.28,2.78,7.43,7.43,0,0,0,.95,2.47,5.63,5.63,0,0,0,1.77,1.8,5,5,0,0,0,2.75.7A5.63,5.63,0,0,0,415.8,241.93Z"/><path d="M431.35,230.73a8.27,8.27,0,0,1,1.25-4.15,8.55,8.55,0,0,1,2.8-2.65,12.09,12.09,0,0,1,3.83-1.42,21.18,21.18,0,0,1,4.27-.43,27.92,27.92,0,0,1,3.95.28,12,12,0,0,1,3.65,1.07,7.17,7.17,0,0,1,2.7,2.23,6.19,6.19,0,0,1,1.05,3.77v13.45a27.67,27.67,0,0,0,.2,3.35,6,6,0,0,0,.7,2.4h-7.2a10.43,10.43,0,0,1-.32-1.22,9.17,9.17,0,0,1-.18-1.28,9.25,9.25,0,0,1-4,2.45,15.93,15.93,0,0,1-4.7.7,12.73,12.73,0,0,1-3.45-.45,7.93,7.93,0,0,1-2.8-1.4,6.45,6.45,0,0,1-1.87-2.4,8.13,8.13,0,0,1-.68-3.45,7.47,7.47,0,0,1,.78-3.62,6.43,6.43,0,0,1,2-2.28,8.74,8.74,0,0,1,2.8-1.27,28.85,28.85,0,0,1,3.17-.68c1.07-.17,2.12-.3,3.15-.4a19,19,0,0,0,2.75-.45,4.86,4.86,0,0,0,1.9-.87,1.92,1.92,0,0,0,.65-1.68,3.74,3.74,0,0,0-.37-1.82,2.81,2.81,0,0,0-1-1,3.9,3.9,0,0,0-1.45-.5,11,11,0,0,0-1.78-.13,5.39,5.39,0,0,0-3.3.9,4,4,0,0,0-1.4,3Zm16.4,5.25a3.12,3.12,0,0,1-1.12.63,11.8,11.8,0,0,1-1.45.37c-.52.1-1.06.18-1.63.25s-1.13.15-1.7.25a12,12,0,0,0-1.57.4,4.5,4.5,0,0,0-1.35.68,3.1,3.1,0,0,0-.93,1.07,3.48,3.48,0,0,0-.35,1.65,3.38,3.38,0,0,0,.35,1.6,2.7,2.7,0,0,0,.95,1,4,4,0,0,0,1.4.52,8.88,8.88,0,0,0,1.65.15,6.25,6.25,0,0,0,3.25-.7,4.7,4.7,0,0,0,1.7-1.67,5.43,5.43,0,0,0,.68-2,14.18,14.18,0,0,0,.12-1.6Z"/><path d="M460.55,218.78v-5.85h7.1v5.85Zm7.1,4v25.85h-7.1V222.78Z"/><path d="M480,222.78v3.6h.15a8.13,8.13,0,0,1,3.5-3.27,10,10,0,0,1,4.4-1,12,12,0,0,1,4.68.78A6.87,6.87,0,0,1,495.6,225a8.36,8.36,0,0,1,1.48,3.35,21,21,0,0,1,.42,4.37v15.9h-7.1V234a9,9,0,0,0-1-4.77,3.88,3.88,0,0,0-3.55-1.58,4.93,4.93,0,0,0-4.2,1.73q-1.31,1.72-1.3,5.67v13.55h-7.1V222.78Z"/><path d="M539.05,248.63l-4.6-17.35h-.1L530,248.63H522.6l-8.2-25.85h7.5l4.75,17.55h.1l4.3-17.55H538l4.4,17.5h.1l4.75-17.5h7.3l-8.15,25.85Z"/><path d="M557.7,218.78v-5.85h7.1v5.85Zm7.1,4v25.85h-7.1V222.78Z"/><path d="M584.6,222.78v4.75h-5.2v12.8a2.4,2.4,0,0,0,3,3c.4,0,.78,0,1.15-.05a8.29,8.29,0,0,0,1.05-.15v5.5a16.29,16.29,0,0,1-2,.2c-.73,0-1.45,0-2.15,0a20.65,20.65,0,0,1-3.12-.22,7.39,7.39,0,0,1-2.6-.88,4.6,4.6,0,0,1-1.78-1.85,6.65,6.65,0,0,1-.65-3.15V227.53H568v-4.75h4.3V215h7.1v7.75Z"/><path d="M595.1,212.93v13.45h.15a8.19,8.19,0,0,1,3.45-3.27,9.24,9.24,0,0,1,4.1-1,11.94,11.94,0,0,1,4.67.78,6.84,6.84,0,0,1,2.88,2.15,8.36,8.36,0,0,1,1.48,3.35,21,21,0,0,1,.42,4.37v15.9h-7.1V234a9,9,0,0,0-1-4.77,3.88,3.88,0,0,0-3.55-1.58,4.93,4.93,0,0,0-4.2,1.73q-1.3,1.72-1.3,5.67v13.55H588v-35.7Z"/><path d="M617.8,230.11a11.93,11.93,0,0,1,2.7-4.3,12.07,12.07,0,0,1,4.2-2.75,14.76,14.76,0,0,1,5.5-1,15,15,0,0,1,5.52,1,11.76,11.76,0,0,1,6.93,7.05,17,17,0,0,1,0,11.22,12.11,12.11,0,0,1-2.7,4.28,11.81,11.81,0,0,1-4.23,2.72,15.37,15.37,0,0,1-5.52.95,15.18,15.18,0,0,1-5.5-.95,11.86,11.86,0,0,1-4.2-2.72,12.11,12.11,0,0,1-2.7-4.28,17,17,0,0,1,0-11.22Zm6.45,8.65a8.21,8.21,0,0,0,1,2.65,5.57,5.57,0,0,0,1.93,1.87,5.84,5.84,0,0,0,3,.7,6,6,0,0,0,3-.7,5.39,5.39,0,0,0,1.95-1.87,8,8,0,0,0,1-2.65,15.26,15.26,0,0,0,.3-3,15.54,15.54,0,0,0-.3-3,7.68,7.68,0,0,0-1-2.65,5.55,5.55,0,0,0-1.95-1.87,5.75,5.75,0,0,0-3-.73,5.65,5.65,0,0,0-3,.73,5.76,5.76,0,0,0-1.93,1.87,7.87,7.87,0,0,0-1,2.65,15.54,15.54,0,0,0-.3,3A15.26,15.26,0,0,0,624.25,238.76Z"/><path d="M665.7,248.63V245h-.15a8,8,0,0,1-3.5,3.25,10.27,10.27,0,0,1-4.4,1,12.46,12.46,0,0,1-4.68-.75,6.82,6.82,0,0,1-2.87-2.12,8.48,8.48,0,0,1-1.48-3.35,21.15,21.15,0,0,1-.42-4.38v-15.9h7.1v14.6a9.05,9.05,0,0,0,1,4.78,3.87,3.87,0,0,0,3.55,1.57,4.92,4.92,0,0,0,4.2-1.72c.87-1.15,1.3-3,1.3-5.68V222.78h7.1v25.85Z"/><path d="M692.05,222.78v4.75h-5.2v12.8a2.4,2.4,0,0,0,3,3c.4,0,.78,0,1.15-.05a8.56,8.56,0,0,0,1-.15v5.5a16.29,16.29,0,0,1-2,.2c-.74,0-1.45,0-2.15,0a20.88,20.88,0,0,1-3.13-.22,7.46,7.46,0,0,1-2.6-.88,4.58,4.58,0,0,1-1.77-1.85,6.53,6.53,0,0,1-.65-3.15V227.53h-4.3v-4.75h4.3V215h7.1v7.75Z"/><path d="M709.05,230.73a8.17,8.17,0,0,1,1.25-4.15,8.45,8.45,0,0,1,2.8-2.65,12,12,0,0,1,3.82-1.42,21.28,21.28,0,0,1,4.28-.43,28,28,0,0,1,3.95.28,12.11,12.11,0,0,1,3.65,1.07,7.17,7.17,0,0,1,2.7,2.23,6.19,6.19,0,0,1,1,3.77v13.45a27.67,27.67,0,0,0,.2,3.35,6,6,0,0,0,.7,2.4h-7.2c-.13-.4-.24-.81-.33-1.22a10.93,10.93,0,0,1-.17-1.28,9.25,9.25,0,0,1-4,2.45,16,16,0,0,1-4.7.7,12.68,12.68,0,0,1-3.45-.45,7.93,7.93,0,0,1-2.8-1.4,6.48,6.48,0,0,1-1.88-2.4,8.14,8.14,0,0,1-.67-3.45A7.59,7.59,0,0,1,709,238a6.63,6.63,0,0,1,2-2.28,8.84,8.84,0,0,1,2.8-1.27,29,29,0,0,1,3.18-.68c1.06-.17,2.12-.3,3.15-.4a19,19,0,0,0,2.75-.45,4.86,4.86,0,0,0,1.9-.87,2,2,0,0,0,.65-1.68,3.73,3.73,0,0,0-.38-1.82,2.73,2.73,0,0,0-1-1,3.83,3.83,0,0,0-1.45-.5,11,11,0,0,0-1.77-.13,5.39,5.39,0,0,0-3.3.9,4,4,0,0,0-1.4,3Zm16.4,5.25a3.16,3.16,0,0,1-1.13.63,11.36,11.36,0,0,1-1.45.37c-.51.1-1.06.18-1.62.25s-1.13.15-1.7.25a12.18,12.18,0,0,0-1.58.4,4.75,4.75,0,0,0-1.35.68,3.18,3.18,0,0,0-.92,1.07,3.36,3.36,0,0,0-.35,1.65,3.26,3.26,0,0,0,.35,1.6,2.7,2.7,0,0,0,.95,1,4,4,0,0,0,1.4.52,8.88,8.88,0,0,0,1.65.15,6.25,6.25,0,0,0,3.25-.7,4.78,4.78,0,0,0,1.7-1.67,5.41,5.41,0,0,0,.67-2,12.46,12.46,0,0,0,.13-1.6Z"/><path d="M744.8,222.78v3.6H745a8.08,8.08,0,0,1,3.5-3.27,10,10,0,0,1,4.4-1,11.94,11.94,0,0,1,4.67.78A6.84,6.84,0,0,1,760.4,225a8.21,8.21,0,0,1,1.47,3.35,20.29,20.29,0,0,1,.43,4.37v15.9h-7.1V234a9.11,9.11,0,0,0-1-4.77,3.88,3.88,0,0,0-3.55-1.58,4.9,4.9,0,0,0-4.2,1.73q-1.31,1.72-1.3,5.67v13.55h-7.1V222.78Z"/><path d="M777.25,256.33a10.31,10.31,0,0,1-5.7,1.35c-.74,0-1.46,0-2.18-.07l-2.17-.18v-5.85l2,.2a14.73,14.73,0,0,0,2.1.05,2.76,2.76,0,0,0,2.07-1.1,3.53,3.53,0,0,0,.68-2.1,4.26,4.26,0,0,0-.3-1.6l-9-24.25h7.55l5.85,17.7h.1l5.65-17.7h7.35l-10.8,29.05A8.8,8.8,0,0,1,777.25,256.33Z"/><path d="M44.21,291.78v-5.85h7.1v5.85Zm7.1,4v25.85h-7.1V295.78Z"/><path d="M63.66,295.78v3.6h.15a8.08,8.08,0,0,1,3.5-3.27,10,10,0,0,1,4.4-1,11.94,11.94,0,0,1,4.67.78A6.84,6.84,0,0,1,79.26,298a8.21,8.21,0,0,1,1.47,3.35,21,21,0,0,1,.43,4.37v15.9h-7.1V307a9.11,9.11,0,0,0-1-4.77,3.88,3.88,0,0,0-3.55-1.58,4.9,4.9,0,0,0-4.2,1.73Q64,304.14,64,308.08v13.55h-7.1V295.78Z"/><path d="M100.76,295.78v4.75h-5.2v12.8a2.4,2.4,0,0,0,3,3c.4,0,.78,0,1.15-.05a8.85,8.85,0,0,0,1.05-.15v5.5a16.29,16.29,0,0,1-2,.2c-.74,0-1.45.05-2.15.05a20.78,20.78,0,0,1-3.13-.22,7.46,7.46,0,0,1-2.6-.88,4.58,4.58,0,0,1-1.77-1.85,6.53,6.53,0,0,1-.65-3.15V300.53h-4.3v-4.75h4.3V288h7.1v7.75Z"/><path d="M111.76,315.43a7.29,7.29,0,0,0,8.3.48,4.53,4.53,0,0,0,1.9-2.28h6.25a11.88,11.88,0,0,1-4.6,6.65,13.58,13.58,0,0,1-7.5,2,14.73,14.73,0,0,1-5.5-1,11.36,11.36,0,0,1-4.15-2.78,12.42,12.42,0,0,1-2.63-4.3,15.68,15.68,0,0,1-.92-5.5,15,15,0,0,1,1-5.4,12.55,12.55,0,0,1,6.87-7.2,13.41,13.41,0,0,1,5.38-1.05,12.31,12.31,0,0,1,5.75,1.28,11.51,11.51,0,0,1,4,3.42,14.14,14.14,0,0,1,2.28,4.9,18.54,18.54,0,0,1,.5,5.75H110Q110.16,313.88,111.76,315.43Zm8-13.6a5,5,0,0,0-3.87-1.4,6.09,6.09,0,0,0-2.83.58,5.29,5.29,0,0,0-1.8,1.42,5.22,5.22,0,0,0-1,1.8,8.07,8.07,0,0,0-.32,1.7h11.55A8.25,8.25,0,0,0,119.78,301.83Z"/><path d="M139.61,295.78v4.8h.1a8.46,8.46,0,0,1,1.35-2.22,8.33,8.33,0,0,1,1.95-1.75,9.26,9.26,0,0,1,2.35-1.13,8.36,8.36,0,0,1,2.6-.4,5.47,5.47,0,0,1,1.55.25v6.6c-.34-.07-.74-.12-1.2-.17a12.82,12.82,0,0,0-1.35-.08,7.61,7.61,0,0,0-3.3.65,5.71,5.71,0,0,0-2.18,1.78,7,7,0,0,0-1.17,2.62A13.9,13.9,0,0,0,140,310v11.65h-7.1V295.78Z"/><path d="M160,295.78v3.6h.15a8,8,0,0,1,3.5-3.27,10,10,0,0,1,4.39-1,12,12,0,0,1,4.68.78,6.75,6.75,0,0,1,2.87,2.15,8.22,8.22,0,0,1,1.48,3.35,21,21,0,0,1,.43,4.37v15.9h-7.1V307a9.11,9.11,0,0,0-1-4.77,3.9,3.9,0,0,0-3.56-1.58,4.9,4.9,0,0,0-4.19,1.73q-1.31,1.72-1.31,5.67v13.55h-7.09V295.78Z"/><path d="M182.55,303.73a8.27,8.27,0,0,1,1.25-4.15,8.64,8.64,0,0,1,2.8-2.65,12.09,12.09,0,0,1,3.83-1.42,21.26,21.26,0,0,1,4.27-.43,27.92,27.92,0,0,1,4,.28,12,12,0,0,1,3.65,1.07,7.17,7.17,0,0,1,2.7,2.23,6.19,6.19,0,0,1,1.05,3.77v13.45a27.67,27.67,0,0,0,.2,3.35,6.19,6.19,0,0,0,.7,2.4h-7.2a10.43,10.43,0,0,1-.32-1.22c-.08-.42-.14-.85-.18-1.28a9.19,9.19,0,0,1-4,2.45,15.93,15.93,0,0,1-4.7.7,12.73,12.73,0,0,1-3.45-.45,8,8,0,0,1-2.8-1.4,6.45,6.45,0,0,1-1.87-2.4,8.13,8.13,0,0,1-.68-3.45,7.47,7.47,0,0,1,.78-3.62,6.53,6.53,0,0,1,2-2.28,8.84,8.84,0,0,1,2.8-1.27,29.36,29.36,0,0,1,3.17-.68c1.07-.17,2.12-.3,3.15-.4a18.79,18.79,0,0,0,2.75-.45,4.79,4.79,0,0,0,1.9-.87,1.92,1.92,0,0,0,.65-1.68,3.74,3.74,0,0,0-.37-1.82,2.73,2.73,0,0,0-1-1.05,3.9,3.9,0,0,0-1.45-.5,11,11,0,0,0-1.78-.13,5.39,5.39,0,0,0-3.3.9,4,4,0,0,0-1.4,3ZM199,309a3.12,3.12,0,0,1-1.12.63,11.36,11.36,0,0,1-1.45.37c-.52.1-1.06.18-1.63.25s-1.13.15-1.7.25a12.46,12.46,0,0,0-1.57.4,4.5,4.5,0,0,0-1.35.68,3.32,3.32,0,0,0-.93,1.07,3.48,3.48,0,0,0-.35,1.65,3.38,3.38,0,0,0,.35,1.6,2.78,2.78,0,0,0,1,1,4,4,0,0,0,1.4.52,9,9,0,0,0,1.65.15,6.23,6.23,0,0,0,3.25-.7,4.62,4.62,0,0,0,1.7-1.67,5.25,5.25,0,0,0,.68-2,14.18,14.18,0,0,0,.12-1.6Z"/><path d="M218.85,285.93v35.7h-7.1v-35.7Z"/><path d="M224.65,291.78v-5.85h7.1v5.85Zm7.1,4v25.85h-7.1V295.78Z"/><path d="M249.2,301.13H236.75v-5.35h21.8v5.35L245.1,316.28h14.4v5.35H235.75v-5.35Z"/><path d="M270.9,315.43a7.29,7.29,0,0,0,8.3.48,4.43,4.43,0,0,0,1.9-2.28h6.25a11.84,11.84,0,0,1-4.6,6.65,13.54,13.54,0,0,1-7.5,2,14.8,14.8,0,0,1-5.5-1,11.53,11.53,0,0,1-4.15-2.78,12.4,12.4,0,0,1-2.62-4.3,15.68,15.68,0,0,1-.93-5.5,15.18,15.18,0,0,1,.95-5.4,12.52,12.52,0,0,1,6.88-7.2,13.4,13.4,0,0,1,5.37-1.05,12.28,12.28,0,0,1,5.75,1.28,11.46,11.46,0,0,1,4,3.42,14,14,0,0,1,2.27,4.9,18,18,0,0,1,.5,5.75H269.15C269.25,312.73,269.84,314.4,270.9,315.43Zm8-13.6a5,5,0,0,0-3.88-1.4,6.08,6.08,0,0,0-2.82.58,5.29,5.29,0,0,0-1.8,1.42,5.22,5.22,0,0,0-.95,1.8,8.15,8.15,0,0,0-.33,1.7H280.7A8.16,8.16,0,0,0,278.93,301.83Z"/><path d="M310.35,318.33a7.33,7.33,0,0,1-3.27,3,12,12,0,0,1-9.68-.2,10.31,10.31,0,0,1-3.62-3.05,13.83,13.83,0,0,1-2.15-4.43,18.35,18.35,0,0,1-.73-5.2,17.17,17.17,0,0,1,.73-5,13,13,0,0,1,2.15-4.28,10.45,10.45,0,0,1,8.57-4.1,10.19,10.19,0,0,1,4.38,1,7.59,7.59,0,0,1,3.27,2.87h.1v-13h7.1v35.7h-6.75v-3.3Zm-.3-12.77a7.52,7.52,0,0,0-1-2.6,5.87,5.87,0,0,0-1.88-1.83,5.44,5.44,0,0,0-2.9-.7,5.75,5.75,0,0,0-2.95.7,5.49,5.49,0,0,0-1.92,1.85,7.88,7.88,0,0,0-1.05,2.63,14,14,0,0,0-.33,3.07,13.35,13.35,0,0,0,.35,3,8.36,8.36,0,0,0,1.13,2.68,6.21,6.21,0,0,0,1.95,1.9,5.28,5.28,0,0,0,2.82.72,5.63,5.63,0,0,0,2.93-.7,5.32,5.32,0,0,0,1.87-1.87,8.41,8.41,0,0,0,1-2.68,15.75,15.75,0,0,0,.3-3.1A15.3,15.3,0,0,0,310.05,305.56Z"/><path d="M354,321.63V318h-.15a8,8,0,0,1-3.5,3.25,10.27,10.27,0,0,1-4.4,1,12.37,12.37,0,0,1-4.67-.75,6.79,6.79,0,0,1-2.88-2.12,8.33,8.33,0,0,1-1.47-3.35,20.46,20.46,0,0,1-.43-4.38v-15.9h7.1v14.6a9.15,9.15,0,0,0,1,4.78,3.87,3.87,0,0,0,3.55,1.57,4.9,4.9,0,0,0,4.2-1.72c.87-1.15,1.3-3.05,1.3-5.68V295.78h7.1v25.85Z"/><path d="M372.85,295.78v3.6H373a8.13,8.13,0,0,1,3.5-3.27,10.06,10.06,0,0,1,4.4-1,12,12,0,0,1,4.68.78,6.87,6.87,0,0,1,2.87,2.15,8.36,8.36,0,0,1,1.48,3.35,21,21,0,0,1,.42,4.37v15.9h-7.1V307a9,9,0,0,0-1-4.77,3.88,3.88,0,0,0-3.55-1.58,4.93,4.93,0,0,0-4.2,1.73q-1.31,1.72-1.3,5.67v13.55h-7.1V295.78Z"/><path d="M408.1,300.43a5,5,0,0,0-2.85.78,6,6,0,0,0-1.87,2,8.37,8.37,0,0,0-1,2.7,14.55,14.55,0,0,0-.3,2.92,14.09,14.09,0,0,0,.3,2.85,8.89,8.89,0,0,0,1,2.63,5.57,5.57,0,0,0,1.82,1.92,5,5,0,0,0,2.8.75,5.22,5.22,0,0,0,3.93-1.42,6.77,6.77,0,0,0,1.72-3.83h6.85a11.73,11.73,0,0,1-4,7.85,12.92,12.92,0,0,1-8.45,2.7,14.11,14.11,0,0,1-5.32-1,11.73,11.73,0,0,1-4.13-2.73,12.65,12.65,0,0,1-2.65-4.17,14.6,14.6,0,0,1-.95-5.33,17,17,0,0,1,.88-5.57,12.5,12.5,0,0,1,2.57-4.45,11.89,11.89,0,0,1,4.15-2.93,14.09,14.09,0,0,1,5.6-1.05,16.28,16.28,0,0,1,4.43.6,11.85,11.85,0,0,1,3.8,1.83,9.45,9.45,0,0,1,3.92,7.37h-6.95Q412.65,300.43,408.1,300.43Z"/><path d="M424.6,303.11a11.93,11.93,0,0,1,2.7-4.3,12.07,12.07,0,0,1,4.2-2.75,14.76,14.76,0,0,1,5.5-1,15,15,0,0,1,5.53,1,11.78,11.78,0,0,1,6.92,7.05,17,17,0,0,1,0,11.22,12.11,12.11,0,0,1-2.7,4.28,11.76,11.76,0,0,1-4.22,2.72,15.42,15.42,0,0,1-5.53.95,15.18,15.18,0,0,1-5.5-.95,11.86,11.86,0,0,1-4.2-2.72,12.11,12.11,0,0,1-2.7-4.28,17,17,0,0,1,0-11.22Zm6.45,8.65a8,8,0,0,0,1,2.65,5.46,5.46,0,0,0,1.92,1.87,5.84,5.84,0,0,0,3,.7,6,6,0,0,0,3-.7,5.55,5.55,0,0,0,2-1.87,8.21,8.21,0,0,0,1-2.65,15.26,15.26,0,0,0,.3-3,15.54,15.54,0,0,0-.3-3.05,7.87,7.87,0,0,0-1-2.65,5.73,5.73,0,0,0-2-1.87,5.81,5.81,0,0,0-3-.73,5.47,5.47,0,0,0-4.92,2.6,7.68,7.68,0,0,0-1,2.65,15.54,15.54,0,0,0-.3,3.05A15.26,15.26,0,0,0,431.05,311.76Z"/><path d="M461.75,295.78v3.6h.15a8.13,8.13,0,0,1,3.5-3.27,10,10,0,0,1,4.4-1,12,12,0,0,1,4.68.78,6.87,6.87,0,0,1,2.87,2.15,8.36,8.36,0,0,1,1.48,3.35,21,21,0,0,1,.42,4.37v15.9h-7.1V307a9,9,0,0,0-1-4.77,3.88,3.88,0,0,0-3.55-1.58,4.93,4.93,0,0,0-4.2,1.73q-1.31,1.72-1.3,5.67v13.55H455V295.78Z"/><path d="M503,318.33a7.33,7.33,0,0,1-3.27,3,12,12,0,0,1-9.68-.2,10.23,10.23,0,0,1-3.62-3.05,13.83,13.83,0,0,1-2.15-4.43,18.35,18.35,0,0,1-.73-5.2,17.17,17.17,0,0,1,.73-5,13,13,0,0,1,2.15-4.28,10.76,10.76,0,0,1,3.57-3,10.63,10.63,0,0,1,5-1.13,10.22,10.22,0,0,1,4.38,1,7.59,7.59,0,0,1,3.27,2.87h.1v-13h7.1v35.7H503.1v-3.3Zm-.3-12.77a7.52,7.52,0,0,0-1-2.6,5.87,5.87,0,0,0-1.88-1.83,5.46,5.46,0,0,0-2.9-.7,5.73,5.73,0,0,0-2.95.7A5.49,5.49,0,0,0,492,303a7.88,7.88,0,0,0-1,2.63,14,14,0,0,0-.33,3.07,13.35,13.35,0,0,0,.35,3,8.35,8.35,0,0,0,1.12,2.68,6.34,6.34,0,0,0,2,1.9,5.28,5.28,0,0,0,2.82.72,5.63,5.63,0,0,0,2.93-.7,5.4,5.4,0,0,0,1.87-1.87,8.41,8.41,0,0,0,1-2.68,15.75,15.75,0,0,0,.3-3.1A15.3,15.3,0,0,0,502.7,305.56Z"/><path d="M515.4,291.78v-5.85h7.1v5.85Zm7.1,4v25.85h-7.1V295.78Z"/><path d="M542.3,295.78v4.75h-5.2v12.8a2.4,2.4,0,0,0,3,3c.4,0,.78,0,1.15-.05a8.29,8.29,0,0,0,1-.15v5.5a16.29,16.29,0,0,1-2,.2c-.73,0-1.45.05-2.15.05a20.65,20.65,0,0,1-3.12-.22,7.39,7.39,0,0,1-2.6-.88,4.6,4.6,0,0,1-1.78-1.85,6.65,6.65,0,0,1-.65-3.15V300.53h-4.3v-4.75H530V288h7.1v7.75Z"/><path d="M545.9,291.78v-5.85H553v5.85Zm7.1,4v25.85h-7.1V295.78Z"/><path d="M558.75,303.11a11.93,11.93,0,0,1,2.7-4.3,12.07,12.07,0,0,1,4.2-2.75,14.76,14.76,0,0,1,5.5-1,15,15,0,0,1,5.52,1,11.76,11.76,0,0,1,6.93,7.05,17,17,0,0,1,0,11.22,12.11,12.11,0,0,1-2.7,4.28,11.81,11.81,0,0,1-4.23,2.72,15.37,15.37,0,0,1-5.52.95,15.18,15.18,0,0,1-5.5-.95,11.86,11.86,0,0,1-4.2-2.72,12.11,12.11,0,0,1-2.7-4.28,17,17,0,0,1,0-11.22Zm6.45,8.65a8.21,8.21,0,0,0,1,2.65,5.57,5.57,0,0,0,1.93,1.87,5.84,5.84,0,0,0,3,.7,6,6,0,0,0,3-.7,5.39,5.39,0,0,0,2-1.87,8,8,0,0,0,1-2.65,15.26,15.26,0,0,0,.3-3,15.54,15.54,0,0,0-.3-3.05,7.68,7.68,0,0,0-1-2.65,5.55,5.55,0,0,0-2-1.87,5.75,5.75,0,0,0-3-.73,5.65,5.65,0,0,0-3,.73,5.76,5.76,0,0,0-1.93,1.87,7.87,7.87,0,0,0-1,2.65,15.54,15.54,0,0,0-.3,3.05A15.26,15.26,0,0,0,565.2,311.76Z"/><path d="M595.9,295.78v3.6h.15a8.13,8.13,0,0,1,3.5-3.27,10,10,0,0,1,4.4-1,11.94,11.94,0,0,1,4.67.78A6.84,6.84,0,0,1,611.5,298a8.21,8.21,0,0,1,1.47,3.35,20.29,20.29,0,0,1,.43,4.37v15.9h-7.1V307a9,9,0,0,0-1-4.77,3.88,3.88,0,0,0-3.55-1.58,4.93,4.93,0,0,0-4.2,1.73q-1.31,1.72-1.3,5.67v13.55h-7.1V295.78Z"/><path d="M618.5,303.73a8.17,8.17,0,0,1,1.25-4.15,8.55,8.55,0,0,1,2.8-2.65,12,12,0,0,1,3.82-1.42,21.28,21.28,0,0,1,4.28-.43,28,28,0,0,1,4,.28,12.11,12.11,0,0,1,3.65,1.07,7.17,7.17,0,0,1,2.7,2.23,6.19,6.19,0,0,1,1,3.77v13.45a27.67,27.67,0,0,0,.2,3.35,6,6,0,0,0,.7,2.4h-7.2c-.13-.4-.24-.81-.33-1.22a10.93,10.93,0,0,1-.17-1.28,9.25,9.25,0,0,1-4,2.45,15.93,15.93,0,0,1-4.7.7,12.68,12.68,0,0,1-3.45-.45,7.93,7.93,0,0,1-2.8-1.4,6.48,6.48,0,0,1-1.88-2.4,8.14,8.14,0,0,1-.67-3.45,7.59,7.59,0,0,1,.77-3.62,6.63,6.63,0,0,1,2-2.28,8.84,8.84,0,0,1,2.8-1.27,29,29,0,0,1,3.18-.68c1.06-.17,2.12-.3,3.15-.4a19,19,0,0,0,2.75-.45,4.86,4.86,0,0,0,1.9-.87,2,2,0,0,0,.65-1.68,3.73,3.73,0,0,0-.38-1.82,2.73,2.73,0,0,0-1-1.05,3.83,3.83,0,0,0-1.45-.5,11,11,0,0,0-1.77-.13,5.39,5.39,0,0,0-3.3.9,4,4,0,0,0-1.4,3ZM634.9,309a3.16,3.16,0,0,1-1.13.63,11.36,11.36,0,0,1-1.45.37c-.51.1-1.06.18-1.62.25s-1.13.15-1.7.25a12.18,12.18,0,0,0-1.58.4,4.75,4.75,0,0,0-1.35.68,3.18,3.18,0,0,0-.92,1.07,3.48,3.48,0,0,0-.35,1.65,3.38,3.38,0,0,0,.35,1.6,2.7,2.7,0,0,0,1,1,4,4,0,0,0,1.4.52,8.88,8.88,0,0,0,1.65.15,6.25,6.25,0,0,0,3.25-.7,4.7,4.7,0,0,0,1.7-1.67,5.41,5.41,0,0,0,.67-2,12.46,12.46,0,0,0,.13-1.6Z"/><path d="M654.8,285.93v35.7h-7.1v-35.7Z"/><path d="M681.6,285.93v35.7h-7.1v-35.7Z"/><path d="M687.35,303.11a11.82,11.82,0,0,1,6.9-7.05,14.73,14.73,0,0,1,5.5-1,15,15,0,0,1,5.52,1,12,12,0,0,1,4.23,2.75,12.2,12.2,0,0,1,2.7,4.3,17,17,0,0,1,0,11.22,12.39,12.39,0,0,1-2.7,4.28,11.81,11.81,0,0,1-4.23,2.72,15.37,15.37,0,0,1-5.52.95,15.14,15.14,0,0,1-5.5-.95,11.68,11.68,0,0,1-4.2-2.72,12.11,12.11,0,0,1-2.7-4.28,17,17,0,0,1,0-11.22Zm6.45,8.65a8.21,8.21,0,0,0,1,2.65,5.49,5.49,0,0,0,1.93,1.87,5.84,5.84,0,0,0,3,.7,6,6,0,0,0,3-.7,5.39,5.39,0,0,0,2-1.87,8,8,0,0,0,1-2.65,15.26,15.26,0,0,0,.3-3,15.54,15.54,0,0,0-.3-3.05,7.68,7.68,0,0,0-1-2.65,5.55,5.55,0,0,0-2-1.87,5.75,5.75,0,0,0-3-.73,5.5,5.5,0,0,0-4.93,2.6,7.87,7.87,0,0,0-1,2.65,15.54,15.54,0,0,0-.3,3.05A15.26,15.26,0,0,0,693.8,311.76Z"/><path d="M724.15,321.63l-8.85-25.85h7.45l5.45,17.65h.1l5.45-17.65h7l-8.75,25.85Z"/><path d="M751.35,315.43a7.29,7.29,0,0,0,8.3.48,4.53,4.53,0,0,0,1.9-2.28h6.25a11.88,11.88,0,0,1-4.6,6.65,13.58,13.58,0,0,1-7.5,2,14.73,14.73,0,0,1-5.5-1,11.36,11.36,0,0,1-4.15-2.78,12.42,12.42,0,0,1-2.63-4.3,15.68,15.68,0,0,1-.92-5.5,15,15,0,0,1,1-5.4,12.55,12.55,0,0,1,6.87-7.2,13.41,13.41,0,0,1,5.38-1.05,12.31,12.31,0,0,1,5.75,1.28,11.51,11.51,0,0,1,4,3.42,14.14,14.14,0,0,1,2.28,4.9,18.54,18.54,0,0,1,.5,5.75H749.6Q749.75,313.88,751.35,315.43Zm8-13.6a5,5,0,0,0-3.87-1.4,6.09,6.09,0,0,0-2.83.58,5.29,5.29,0,0,0-1.8,1.42,5.22,5.22,0,0,0-1,1.8,8.07,8.07,0,0,0-.32,1.7h11.55A8.25,8.25,0,0,0,759.37,301.83Z"/><path d="M44.16,376.11a11.82,11.82,0,0,1,6.9-7.05,14.73,14.73,0,0,1,5.5-1,15,15,0,0,1,5.52,1,12,12,0,0,1,4.23,2.75,12.2,12.2,0,0,1,2.7,4.3,17,17,0,0,1,0,11.22,12.39,12.39,0,0,1-2.7,4.28,11.81,11.81,0,0,1-4.23,2.72,15.37,15.37,0,0,1-5.52.95,15.14,15.14,0,0,1-5.5-.95,11.68,11.68,0,0,1-4.2-2.72,12.11,12.11,0,0,1-2.7-4.28,17,17,0,0,1,0-11.22Zm6.45,8.65a8.21,8.21,0,0,0,1,2.65,5.57,5.57,0,0,0,1.93,1.87,5.84,5.84,0,0,0,3,.7,6,6,0,0,0,3-.7,5.39,5.39,0,0,0,2-1.87,8,8,0,0,0,1-2.65,15.26,15.26,0,0,0,.3-3,15.54,15.54,0,0,0-.3-3.05,7.68,7.68,0,0,0-1-2.65,5.55,5.55,0,0,0-2-1.87,5.75,5.75,0,0,0-3-.73,5.65,5.65,0,0,0-3,.73A5.76,5.76,0,0,0,51.63,376a7.87,7.87,0,0,0-1,2.65,15.54,15.54,0,0,0-.3,3.05A15.26,15.26,0,0,0,50.61,384.76Z"/><path d="M81.31,368.78v3.6h.15a8.08,8.08,0,0,1,3.5-3.27,10,10,0,0,1,4.4-1,12,12,0,0,1,4.67.78A6.84,6.84,0,0,1,96.91,371a8.21,8.21,0,0,1,1.47,3.35,21,21,0,0,1,.43,4.37v15.9h-7.1V380a9.11,9.11,0,0,0-1-4.77,3.88,3.88,0,0,0-3.55-1.58,4.9,4.9,0,0,0-4.2,1.73q-1.3,1.72-1.3,5.67v13.55h-7.1V368.78Z"/><path d="M140.36,394.63l-4.6-17.35h-.1l-4.4,17.35h-7.35l-8.2-25.85h7.5L128,386.33h.1l4.3-17.55h6.9l4.4,17.5h.1l4.75-17.5h7.3l-8.15,25.85Z"/><path d="M165.91,358.93v13.45h.15a8.19,8.19,0,0,1,3.45-3.27,9.21,9.21,0,0,1,4.1-1,12,12,0,0,1,4.67.78,6.84,6.84,0,0,1,2.88,2.15,8.21,8.21,0,0,1,1.47,3.35,21,21,0,0,1,.43,4.37v15.9H176V380a9.11,9.11,0,0,0-1-4.77,3.88,3.88,0,0,0-3.55-1.58,4.9,4.9,0,0,0-4.2,1.73q-1.31,1.72-1.3,5.67v13.55h-7.1v-35.7Z"/><path d="M188.66,364.78v-5.85h7.1v5.85Zm7.1,4v25.85h-7.1V368.78Z"/><path d="M213.71,373.43a4.93,4.93,0,0,0-2.85.78,6,6,0,0,0-1.88,2,8.59,8.59,0,0,0-1,2.7,14.55,14.55,0,0,0-.3,2.92,14.09,14.09,0,0,0,.3,2.85,8.88,8.88,0,0,0,1,2.63,5.6,5.6,0,0,0,1.83,1.92,5,5,0,0,0,2.79.75,5.2,5.2,0,0,0,3.93-1.42,6.78,6.78,0,0,0,1.73-3.83h6.84a11.65,11.65,0,0,1-4,7.85,12.87,12.87,0,0,1-8.44,2.7,14.16,14.16,0,0,1-5.33-1,11.69,11.69,0,0,1-4.12-2.73,12.33,12.33,0,0,1-2.65-4.17,14.4,14.4,0,0,1-1-5.33,17.25,17.25,0,0,1,.88-5.57,12.38,12.38,0,0,1,2.58-4.45,11.71,11.71,0,0,1,4.15-2.93,14.09,14.09,0,0,1,5.6-1.05,16.21,16.21,0,0,1,4.42.6,11.75,11.75,0,0,1,3.8,1.83,9.63,9.63,0,0,1,2.73,3.05,9.8,9.8,0,0,1,1.2,4.32H219Q218.26,373.43,213.71,373.43Z"/><path d="M237.15,358.93v13.45h.15a8.3,8.3,0,0,1,3.45-3.27,9.25,9.25,0,0,1,4.11-1,12,12,0,0,1,4.67.78A6.75,6.75,0,0,1,252.4,371a8.09,8.09,0,0,1,1.48,3.35,21,21,0,0,1,.42,4.37v15.9h-7.09V380a9.11,9.11,0,0,0-1-4.77,3.89,3.89,0,0,0-3.56-1.58,4.9,4.9,0,0,0-4.19,1.73q-1.31,1.72-1.31,5.67v13.55h-7.1v-35.7Z"/><path d="M282.2,358.93v35.7h-7.85v-35.7Z"/><path d="M314.6,373.43a5,5,0,0,0-2.85.78,6.08,6.08,0,0,0-1.87,2,8.6,8.6,0,0,0-1,2.7,14.55,14.55,0,0,0-.3,2.92,14.09,14.09,0,0,0,.3,2.85,8.89,8.89,0,0,0,1,2.63,5.66,5.66,0,0,0,1.82,1.92,5,5,0,0,0,2.8.75,5.22,5.22,0,0,0,3.93-1.42,6.77,6.77,0,0,0,1.72-3.83H327a11.69,11.69,0,0,1-4,7.85,12.9,12.9,0,0,1-8.45,2.7,14.11,14.11,0,0,1-5.32-1,11.82,11.82,0,0,1-4.13-2.73,12.65,12.65,0,0,1-2.65-4.17,14.6,14.6,0,0,1-.95-5.33,17.25,17.25,0,0,1,.88-5.57,12.5,12.5,0,0,1,2.57-4.45,11.89,11.89,0,0,1,4.15-2.93,14.12,14.12,0,0,1,5.6-1.05,16.23,16.23,0,0,1,4.43.6,11.75,11.75,0,0,1,3.8,1.83,9.45,9.45,0,0,1,3.92,7.37h-6.95Q319.16,373.43,314.6,373.43Z"/><path d="M331.1,376.11a12.2,12.2,0,0,1,2.7-4.3,12.07,12.07,0,0,1,4.2-2.75,14.8,14.8,0,0,1,5.5-1,15,15,0,0,1,5.53,1,11.78,11.78,0,0,1,6.92,7.05,17,17,0,0,1,0,11.22,12.11,12.11,0,0,1-2.7,4.28,11.68,11.68,0,0,1-4.22,2.72,15.39,15.39,0,0,1-5.53.95,15.22,15.22,0,0,1-5.5-.95,11.86,11.86,0,0,1-4.2-2.72,12.39,12.39,0,0,1-2.7-4.28,17,17,0,0,1,0-11.22Zm6.45,8.65a8.23,8.23,0,0,0,1,2.65,5.46,5.46,0,0,0,1.92,1.87,5.84,5.84,0,0,0,3,.7,6,6,0,0,0,3-.7,5.39,5.39,0,0,0,2-1.87,8.21,8.21,0,0,0,1-2.65,15.26,15.26,0,0,0,.3-3,15.54,15.54,0,0,0-.3-3.05,7.87,7.87,0,0,0-1-2.65,5.55,5.55,0,0,0-2-1.87,5.81,5.81,0,0,0-3-.73,5.47,5.47,0,0,0-4.92,2.6,7.88,7.88,0,0,0-1,2.65,15.54,15.54,0,0,0-.3,3.05A15.26,15.26,0,0,0,337.55,384.76Z"/><path d="M379,394.63V391h-.15a8,8,0,0,1-3.5,3.25,10.27,10.27,0,0,1-4.4,1,12.4,12.4,0,0,1-4.67-.75,6.79,6.79,0,0,1-2.88-2.12,8.33,8.33,0,0,1-1.47-3.35,20.46,20.46,0,0,1-.43-4.38v-15.9h7.1v14.6a9.15,9.15,0,0,0,1,4.78,3.87,3.87,0,0,0,3.55,1.57,4.9,4.9,0,0,0,4.2-1.72c.87-1.15,1.3-3.05,1.3-5.68V368.78h7.1v25.85Z"/><path d="M398.45,358.93v35.7h-7.1v-35.7Z"/><path d="M422.4,391.33a7.33,7.33,0,0,1-3.27,3,12,12,0,0,1-9.68-.2,10.31,10.31,0,0,1-3.62-3.05,13.83,13.83,0,0,1-2.15-4.43,18.35,18.35,0,0,1-.73-5.2,17.17,17.17,0,0,1,.73-5,13,13,0,0,1,2.15-4.28,10.45,10.45,0,0,1,8.57-4.1,10.19,10.19,0,0,1,4.38,1,7.59,7.59,0,0,1,3.27,2.87h.1v-13h7.1v35.7H422.5v-3.3Zm-.3-12.77a7.52,7.52,0,0,0-1-2.6,5.87,5.87,0,0,0-1.88-1.83,5.44,5.44,0,0,0-2.9-.7,5.75,5.75,0,0,0-2.95.7,5.49,5.49,0,0,0-1.92,1.85,7.88,7.88,0,0,0-1.05,2.63,14,14,0,0,0-.33,3.07,13.35,13.35,0,0,0,.35,3,8.36,8.36,0,0,0,1.13,2.68,6.21,6.21,0,0,0,2,1.9,5.28,5.28,0,0,0,2.82.72,5.63,5.63,0,0,0,2.93-.7,5.32,5.32,0,0,0,1.87-1.87,8.41,8.41,0,0,0,1-2.68,15.75,15.75,0,0,0,.3-3.1A15.3,15.3,0,0,0,422.1,378.56Z"/><path d="M454.48,388.21a4.06,4.06,0,0,0,1.22,1.35,5.34,5.34,0,0,0,1.73.77,7.93,7.93,0,0,0,2,.25,8.11,8.11,0,0,0,1.58-.17,5.46,5.46,0,0,0,1.5-.55,3.47,3.47,0,0,0,1.12-1,2.66,2.66,0,0,0,.45-1.58c0-1.07-.71-1.87-2.12-2.4a42.41,42.41,0,0,0-5.93-1.6c-1-.23-2-.51-3-.82a10.66,10.66,0,0,1-2.63-1.25,6.26,6.26,0,0,1-1.85-1.95,5.64,5.64,0,0,1-.7-2.88,7.78,7.78,0,0,1,1-4.1,7.13,7.13,0,0,1,2.57-2.52,11.27,11.27,0,0,1,3.6-1.3,22.26,22.26,0,0,1,4.1-.38,20.31,20.31,0,0,1,4.08.4,10.93,10.93,0,0,1,3.52,1.35,8.09,8.09,0,0,1,2.58,2.53,8.46,8.46,0,0,1,1.22,4h-6.75a3.08,3.08,0,0,0-1.55-2.77,7,7,0,0,0-3.3-.73,12.39,12.39,0,0,0-1.3.08,4.23,4.23,0,0,0-1.27.32,2.63,2.63,0,0,0-1,.73,1.93,1.93,0,0,0-.4,1.27,2,2,0,0,0,.7,1.55,5.46,5.46,0,0,0,1.83,1,23.15,23.15,0,0,0,2.57.67c1,.2,1.95.42,2.95.65a30.09,30.09,0,0,1,3,.85,9.78,9.78,0,0,1,2.62,1.33,6.26,6.26,0,0,1,1.85,2.05,6,6,0,0,1,.7,3,7.81,7.81,0,0,1-3.7,7.05,11.13,11.13,0,0,1-3.77,1.48,22.3,22.3,0,0,1-4.33.42,21.47,21.47,0,0,1-4.4-.45,11.56,11.56,0,0,1-3.82-1.5,8.47,8.47,0,0,1-2.75-2.77,8.72,8.72,0,0,1-1.18-4.33H454A3.87,3.87,0,0,0,454.48,388.21Z"/><path d="M489.55,368.78v4.75h-5.2v12.8a2.4,2.4,0,0,0,3,3c.4,0,.78,0,1.15-.05a8.29,8.29,0,0,0,1.05-.15v5.5a16.09,16.09,0,0,1-2,.2c-.73,0-1.45.05-2.15.05a20.65,20.65,0,0,1-3.12-.22,7.39,7.39,0,0,1-2.6-.88,4.6,4.6,0,0,1-1.78-1.85,6.65,6.65,0,0,1-.65-3.15V373.53H473v-4.75h4.3V361h7.1v7.75Z"/><path d="M492.65,376.73a8.27,8.27,0,0,1,1.25-4.15,8.55,8.55,0,0,1,2.8-2.65,12,12,0,0,1,3.83-1.42,21.18,21.18,0,0,1,4.27-.43,27.92,27.92,0,0,1,3.95.28,12.11,12.11,0,0,1,3.65,1.07,7.17,7.17,0,0,1,2.7,2.23,6.19,6.19,0,0,1,1,3.77v13.45a27.67,27.67,0,0,0,.2,3.35,6,6,0,0,0,.7,2.4h-7.2a10.43,10.43,0,0,1-.32-1.22,9.17,9.17,0,0,1-.18-1.28,9.25,9.25,0,0,1-4,2.45,15.93,15.93,0,0,1-4.7.7,12.73,12.73,0,0,1-3.45-.45,7.93,7.93,0,0,1-2.8-1.4,6.45,6.45,0,0,1-1.87-2.4,8.13,8.13,0,0,1-.68-3.45,7.47,7.47,0,0,1,.78-3.62,6.43,6.43,0,0,1,2-2.28,8.74,8.74,0,0,1,2.8-1.27,29.36,29.36,0,0,1,3.17-.68c1.07-.17,2.12-.3,3.15-.4a18.79,18.79,0,0,0,2.75-.45,4.86,4.86,0,0,0,1.9-.87,1.94,1.94,0,0,0,.65-1.68,3.74,3.74,0,0,0-.37-1.82,2.81,2.81,0,0,0-1-1.05,3.9,3.9,0,0,0-1.45-.5,11.12,11.12,0,0,0-1.78-.13,5.39,5.39,0,0,0-3.3.9,4,4,0,0,0-1.4,3Zm16.4,5.25a3.12,3.12,0,0,1-1.12.63,11.8,11.8,0,0,1-1.45.37c-.52.1-1.06.18-1.63.25s-1.13.15-1.7.25a12,12,0,0,0-1.57.4,4.5,4.5,0,0,0-1.35.68,3.21,3.21,0,0,0-.93,1.07,3.48,3.48,0,0,0-.35,1.65,3.38,3.38,0,0,0,.35,1.6,2.78,2.78,0,0,0,.95,1,4,4,0,0,0,1.4.52,8.88,8.88,0,0,0,1.65.15,6.23,6.23,0,0,0,3.25-.7,4.7,4.7,0,0,0,1.7-1.67,5.43,5.43,0,0,0,.68-2,14.18,14.18,0,0,0,.12-1.6Z"/><path d="M528.4,368.78v3.6h.15a8.13,8.13,0,0,1,3.5-3.27,10,10,0,0,1,4.4-1,12,12,0,0,1,4.68.78A6.87,6.87,0,0,1,544,371a8.36,8.36,0,0,1,1.48,3.35,21,21,0,0,1,.42,4.37v15.9h-7.1V380a9,9,0,0,0-1-4.77,3.88,3.88,0,0,0-3.55-1.58,4.93,4.93,0,0,0-4.2,1.73q-1.31,1.72-1.3,5.67v13.55h-7.1V368.78Z"/><path d="M569.65,391.33a7.33,7.33,0,0,1-3.27,3,12,12,0,0,1-9.68-.2,10.23,10.23,0,0,1-3.62-3.05,13.83,13.83,0,0,1-2.15-4.43,18.35,18.35,0,0,1-.73-5.2,17.17,17.17,0,0,1,.73-5,13,13,0,0,1,2.15-4.28,10.76,10.76,0,0,1,3.57-3,10.63,10.63,0,0,1,5-1.13,10.22,10.22,0,0,1,4.38,1,7.59,7.59,0,0,1,3.27,2.87h.1v-13h7.1v35.7h-6.75v-3.3Zm-.3-12.77a7.52,7.52,0,0,0-1-2.6,5.87,5.87,0,0,0-1.88-1.83,5.46,5.46,0,0,0-2.9-.7,5.73,5.73,0,0,0-2.95.7,5.49,5.49,0,0,0-1.92,1.85,7.88,7.88,0,0,0-1,2.63,14,14,0,0,0-.33,3.07,13.35,13.35,0,0,0,.35,3,8.15,8.15,0,0,0,1.13,2.68,6.21,6.21,0,0,0,2,1.9,5.28,5.28,0,0,0,2.82.72,5.63,5.63,0,0,0,2.93-.7,5.4,5.4,0,0,0,1.87-1.87,8.41,8.41,0,0,0,1-2.68,15.75,15.75,0,0,0,.3-3.1A15.3,15.3,0,0,0,569.35,378.56Z"/><path d="M590,386.93v7.7h-7.85v-7.7Z"/><path d="M602.85,358.93v7.65a8.36,8.36,0,0,1-.47,3.1,8.06,8.06,0,0,1-1.48,2.55,8.31,8.31,0,0,1-2.27,1.83,8.17,8.17,0,0,1-2.88.92v-3.3a4.4,4.4,0,0,0,2.6-1.92,6.41,6.41,0,0,0,.7-3.13h-3.3v-7.7Zm10.65,0v7.65a8.36,8.36,0,0,1-.47,3.1,8.06,8.06,0,0,1-1.48,2.55,8.31,8.31,0,0,1-2.27,1.83,8.17,8.17,0,0,1-2.88.92v-3.3a4.4,4.4,0,0,0,2.6-1.92,6.41,6.41,0,0,0,.7-3.13h-3.3v-7.7Z"/><path class="b" d="M50.78,488.29a3.65,3.65,0,0,1-.77,1.37,3.85,3.85,0,0,1-1.43,1,5.94,5.94,0,0,1-2.21.36A4.66,4.66,0,0,1,43,489.84a4.55,4.55,0,0,1-1.19-3.4v-1h2.09v.66a6.92,6.92,0,0,0,.11,1.25,2.57,2.57,0,0,0,.39,1,1.76,1.76,0,0,0,.77.65,2.9,2.9,0,0,0,1.26.23,2.23,2.23,0,0,0,2-.77,3.53,3.53,0,0,0,.54-2.07V474.93H51v11.79A5.63,5.63,0,0,1,50.78,488.29Z"/><path class="b" d="M67.13,489.48A6.4,6.4,0,0,1,62.56,491a7.12,7.12,0,0,1-4.74-1.44A5.68,5.68,0,0,1,56.11,485v-10H58.2v10a4.28,4.28,0,0,0,1.12,3.2,4.46,4.46,0,0,0,3.24,1.09,4,4,0,0,0,3-1.09,4.46,4.46,0,0,0,1-3.2v-10h2.09v10A5.87,5.87,0,0,1,67.13,489.48Z"/><path class="b" d="M75.94,474.93v13.95h8.31v1.76H73.84V474.93Z"/><path class="b" d="M90,474.93v15.71H87.92V474.93Z"/><path class="b" d="M101.87,474.93,108,490.64H105.7L104,485.91H97.34l-1.76,4.73H93.45l6.11-15.71Zm1.45,9.22-2.61-7.33h0L98,484.15Z"/><path class="b" d="M113.51,474.93l8.27,12.74h0V474.93h2v15.71h-2.29L113.31,478h0v12.61h-2V474.93Z"/><path class="b" d="M138.92,474.93v7.83l8-7.83h2.71L143,481.27l6.88,9.37h-2.64l-5.67-7.94-2.62,2.44v5.5h-2.09V474.93Z"/><path class="b" d="M164.11,474.93v1.76h-8.76v5h8.17v1.77h-8.17v5.43h8.83v1.76H153.26V474.93Z"/><path class="b" d="M170.56,474.93v13.95h8.31v1.76h-10.4V474.93Z"/><path class="b" d="M184.55,474.93v13.95h8.31v1.76h-10.4V474.93Z"/><path class="b" d="M200.5,490.64h-2.09v-6.43l-6.07-9.28h2.48l4.71,7.48,4.6-7.48h2.37l-6,9.28Z"/><path d="M53.34,509.93v1.76H45.11v5h7.22v1.77H45.11v7.19H43V509.93Z"/><path d="M57,514.69a8,8,0,0,1,1.42-2.63,6.89,6.89,0,0,1,2.36-1.82,8.23,8.23,0,0,1,6.55,0,6.89,6.89,0,0,1,2.36,1.82,8,8,0,0,1,1.42,2.63,10.43,10.43,0,0,1,0,6.19,7.82,7.82,0,0,1-1.42,2.62,6.77,6.77,0,0,1-2.36,1.82,8.34,8.34,0,0,1-6.55,0,6.77,6.77,0,0,1-2.36-1.82A7.82,7.82,0,0,1,57,520.88a10.43,10.43,0,0,1,0-6.19Zm1.93,5.44a6.3,6.3,0,0,0,1,2.08,4.94,4.94,0,0,0,1.69,1.48,5.71,5.71,0,0,0,4.93,0,4.94,4.94,0,0,0,1.69-1.48,6.51,6.51,0,0,0,1-2.08,9,9,0,0,0,0-4.69,6.51,6.51,0,0,0-1-2.08,4.94,4.94,0,0,0-1.69-1.48,5.71,5.71,0,0,0-4.93,0,4.94,4.94,0,0,0-1.69,1.48,6.3,6.3,0,0,0-1,2.08,9,9,0,0,0,0,4.69Z"/><path d="M83.76,512.08a4.43,4.43,0,0,0-2.68-.76,6.14,6.14,0,0,0-1.29.13,3.39,3.39,0,0,0-1.14.44,2.3,2.3,0,0,0-.79.82,2.56,2.56,0,0,0-.3,1.29,1.68,1.68,0,0,0,.43,1.18,3.2,3.2,0,0,0,1.15.73,9,9,0,0,0,1.61.48c.6.12,1.22.26,1.84.4s1.24.32,1.84.52a5.93,5.93,0,0,1,1.61.81,3.79,3.79,0,0,1,1.15,1.27,4,4,0,0,1,.43,1.94,4,4,0,0,1-.56,2.14,4.64,4.64,0,0,1-1.44,1.45,6.27,6.27,0,0,1-2,.82,9.51,9.51,0,0,1-2.17.25,9.26,9.26,0,0,1-2.5-.33,6.22,6.22,0,0,1-2.07-1,4.73,4.73,0,0,1-1.4-1.72,5.42,5.42,0,0,1-.52-2.47h2a3.59,3.59,0,0,0,.38,1.7,3.54,3.54,0,0,0,1,1.18,4,4,0,0,0,1.46.68,6.58,6.58,0,0,0,1.71.22,7.58,7.58,0,0,0,1.42-.13,4.28,4.28,0,0,0,1.29-.45,2.48,2.48,0,0,0,.92-.87,2.54,2.54,0,0,0,.36-1.41,2,2,0,0,0-.43-1.32,3.23,3.23,0,0,0-1.15-.82,8.23,8.23,0,0,0-1.61-.52l-1.84-.41c-.62-.14-1.24-.3-1.84-.48a6.42,6.42,0,0,1-1.61-.73,3.23,3.23,0,0,1-1.58-3,4.07,4.07,0,0,1,.49-2,4.2,4.2,0,0,1,1.28-1.43,5.89,5.89,0,0,1,1.83-.84,8.17,8.17,0,0,1,2.1-.27,8.51,8.51,0,0,1,2.25.28,5.13,5.13,0,0,1,1.81.9,4.4,4.4,0,0,1,1.23,1.56,5.51,5.51,0,0,1,.5,2.23H85A3.28,3.28,0,0,0,83.76,512.08Z"/><path d="M90.23,511.69v-1.76H102.8v1.76H97.56v13.95H95.47V511.69Z"/><path d="M117.14,509.93v1.76h-8.76v5h8.17v1.77h-8.17v5.43h8.83v1.76H106.29V509.93Z"/><path d="M128.89,509.93a5.22,5.22,0,0,1,3.51,1.1,3.79,3.79,0,0,1,1.26,3,4.7,4.7,0,0,1-.65,2.51,3.34,3.34,0,0,1-2.08,1.48v0a2.83,2.83,0,0,1,1.11.44,2.42,2.42,0,0,1,.69.74,3.15,3.15,0,0,1,.37,1c.08.35.14.71.19,1.09s.05.77.06,1.17.06.79.11,1.17a7.54,7.54,0,0,0,.26,1.09,2.67,2.67,0,0,0,.49.91h-2.33a1.27,1.27,0,0,1-.3-.66,8,8,0,0,1-.1-.94c0-.34,0-.71,0-1.11a7.49,7.49,0,0,0-.13-1.16,10.49,10.49,0,0,0-.22-1.09,2.5,2.5,0,0,0-.42-.9,2,2,0,0,0-.75-.62,2.84,2.84,0,0,0-1.23-.23h-5.1v6.71H121.5V509.93Zm.44,7.13a3,3,0,0,0,1.15-.43,2.37,2.37,0,0,0,.8-.86,3,3,0,0,0,.29-1.39,2.82,2.82,0,0,0-.66-1.94,2.7,2.7,0,0,0-2.13-.75h-5.19v5.48h4.35A8.8,8.8,0,0,0,129.33,517.06Z"/><path d="M155.7,512.15a4.91,4.91,0,0,0-2.85-.83,5.11,5.11,0,0,0-2.41.52,4.84,4.84,0,0,0-1.65,1.42,6.18,6.18,0,0,0-1,2,8.86,8.86,0,0,0-.31,2.37,10,10,0,0,0,.31,2.55,6.08,6.08,0,0,0,1,2.09,4.65,4.65,0,0,0,1.66,1.41,5.06,5.06,0,0,0,2.42.53,4.64,4.64,0,0,0,1.84-.34,4.28,4.28,0,0,0,1.38-.94,4.47,4.47,0,0,0,.91-1.44,5.9,5.9,0,0,0,.4-1.81h2.09a7.11,7.11,0,0,1-2.05,4.62,6.6,6.6,0,0,1-4.75,1.65,7.53,7.53,0,0,1-3.19-.63,6.16,6.16,0,0,1-2.26-1.72,7.33,7.33,0,0,1-1.36-2.6,11.12,11.12,0,0,1-.45-3.21,10.2,10.2,0,0,1,.49-3.22,7.5,7.5,0,0,1,1.42-2.63,6.53,6.53,0,0,1,2.33-1.77,7.41,7.41,0,0,1,3.2-.65,8.05,8.05,0,0,1,2.33.33,6.4,6.4,0,0,1,2,1,5.5,5.5,0,0,1,1.43,1.6,5.9,5.9,0,0,1,.75,2.21h-2.09A4,4,0,0,0,155.7,512.15Z"/><path d="M170.42,509.93l6.14,15.71h-2.31l-1.71-4.73h-6.65l-1.76,4.73H162l6.11-15.71Zm1.46,9.22-2.62-7.33h0l-2.66,7.33Z"/><path d="M187.25,509.93a5.18,5.18,0,0,1,3.51,1.1,3.76,3.76,0,0,1,1.27,3,4.79,4.79,0,0,1-.65,2.51A3.37,3.37,0,0,1,189.3,518v0a3,3,0,0,1,1.11.44,2.39,2.39,0,0,1,.68.74,3.16,3.16,0,0,1,.38,1,9.18,9.18,0,0,1,.18,1.09c0,.39.06.77.07,1.17a8.92,8.92,0,0,0,.11,1.17,7.53,7.53,0,0,0,.25,1.09,2.69,2.69,0,0,0,.5.91h-2.33a1.27,1.27,0,0,1-.3-.66,6.31,6.31,0,0,1-.1-.94c0-.34,0-.71,0-1.11a7.5,7.5,0,0,0-.14-1.16,8.4,8.4,0,0,0-.22-1.09,2.33,2.33,0,0,0-.41-.9,2,2,0,0,0-.75-.62,2.84,2.84,0,0,0-1.23-.23H182v6.71h-2.09V509.93Zm.44,7.13a3,3,0,0,0,1.16-.43,2.34,2.34,0,0,0,.79-.86,3.25,3.25,0,0,0-.36-3.33,2.71,2.71,0,0,0-2.14-.75H182v5.48h4.36A8.77,8.77,0,0,0,187.69,517.06Z"/><path d="M207.54,509.93v1.76h-8.76v5h8.16v1.77h-8.16v5.43h8.82v1.76H196.69V509.93Z"/><path d="M226.26,525.64h-2.09v-6.43l-6.07-9.28h2.48l4.71,7.48,4.6-7.48h2.38l-6,9.28Z"/><path d="M235.38,514.69a7.78,7.78,0,0,1,1.42-2.63,6.85,6.85,0,0,1,2.35-1.82,8.25,8.25,0,0,1,6.56,0,6.85,6.85,0,0,1,2.35,1.82,7.78,7.78,0,0,1,1.42,2.63,10.43,10.43,0,0,1,0,6.19,7.64,7.64,0,0,1-1.42,2.62,6.73,6.73,0,0,1-2.35,1.82,8.36,8.36,0,0,1-6.56,0,6.73,6.73,0,0,1-2.35-1.82,7.64,7.64,0,0,1-1.42-2.62,10.43,10.43,0,0,1,0-6.19Zm1.92,5.44a6.51,6.51,0,0,0,1,2.08,5,5,0,0,0,1.7,1.48,5.68,5.68,0,0,0,4.92,0,5,5,0,0,0,1.7-1.48,6.51,6.51,0,0,0,1-2.08,9.32,9.32,0,0,0,0-4.69,6.51,6.51,0,0,0-1-2.08,5,5,0,0,0-1.7-1.48,5.68,5.68,0,0,0-4.92,0,5,5,0,0,0-1.7,1.48,6.51,6.51,0,0,0-1,2.08,9.32,9.32,0,0,0,0,4.69Z"/><path d="M265.2,524.48a6.42,6.42,0,0,1-4.58,1.51,7.14,7.14,0,0,1-4.74-1.44,5.71,5.71,0,0,1-1.7-4.59v-10h2.09v10a4.24,4.24,0,0,0,1.12,3.2,4.45,4.45,0,0,0,3.23,1.09,4,4,0,0,0,3.05-1.09,4.42,4.42,0,0,0,1.05-3.2v-10h2.09v10A5.91,5.91,0,0,1,265.2,524.48Z"/><path d="M270.24,511.69v-1.76H282.8v1.76h-5.24v13.95h-2.09V511.69Z"/><path d="M288.39,509.93v6.75h8.27v-6.75h2.09v15.71h-2.09v-7.19h-8.27v7.19H286.3V509.93Z"/><path d="M318.4,509.93l6.13,15.71h-2.31l-1.71-4.73h-6.65l-1.76,4.73H310l6.12-15.71Zm1.45,9.22-2.62-7.33h0l-2.67,7.33Z"/><path d="M330,509.93l8.27,12.74h.05V509.93h2v15.71H338L329.83,513h0v12.61h-2V509.93Z"/><path d="M350.87,509.93a7.85,7.85,0,0,1,5.59,1.85q1.95,1.85,2,5.63a12.48,12.48,0,0,1-.44,3.51,6.52,6.52,0,0,1-1.36,2.57,6,6,0,0,1-2.35,1.6,9.41,9.41,0,0,1-3.39.55h-5.39V509.93Zm.17,13.95a7.93,7.93,0,0,0,.88-.06,4.4,4.4,0,0,0,1.12-.26,5.26,5.26,0,0,0,1.18-.6,4.17,4.17,0,0,0,1-1.08,6.16,6.16,0,0,0,.76-1.71,9.3,9.3,0,0,0,.29-2.47,10.7,10.7,0,0,0-.27-2.52,4.88,4.88,0,0,0-.9-1.89,4,4,0,0,0-1.62-1.19,6.48,6.48,0,0,0-2.44-.41h-3.52v12.19Z"/><path d="M377.18,509.93l6.14,15.71H381l-1.72-4.73h-6.64l-1.76,4.73h-2.14l6.12-15.71Zm1.45,9.22L376,511.82h0l-2.66,7.33Z"/><path d="M392,509.93a7.81,7.81,0,0,1,5.58,1.85q2,1.85,2,5.63a12.48,12.48,0,0,1-.44,3.51,6.39,6.39,0,0,1-1.36,2.57,5.92,5.92,0,0,1-2.36,1.6,9.32,9.32,0,0,1-3.38.55h-5.39V509.93Zm.17,13.95a7.93,7.93,0,0,0,.88-.06,4.57,4.57,0,0,0,1.13-.26,5.41,5.41,0,0,0,1.17-.6,4.17,4.17,0,0,0,1.05-1.08,6.47,6.47,0,0,0,.76-1.71,9.3,9.3,0,0,0,.29-2.47,10.7,10.7,0,0,0-.27-2.52,5,5,0,0,0-.9-1.89,4,4,0,0,0-1.62-1.19,6.44,6.44,0,0,0-2.44-.41h-3.52v12.19Z"/><path d="M403.46,514.69a7.78,7.78,0,0,1,1.42-2.63,6.85,6.85,0,0,1,2.35-1.82,8.25,8.25,0,0,1,6.56,0,6.85,6.85,0,0,1,2.35,1.82,8,8,0,0,1,1.42,2.63,10.43,10.43,0,0,1,0,6.19,7.82,7.82,0,0,1-1.42,2.62,6.73,6.73,0,0,1-2.35,1.82,8.36,8.36,0,0,1-6.56,0,6.73,6.73,0,0,1-2.35-1.82,7.64,7.64,0,0,1-1.42-2.62,10.22,10.22,0,0,1,0-6.19Zm1.92,5.44a6.51,6.51,0,0,0,1,2.08,5.4,5.4,0,0,0,6.62,1.48,5,5,0,0,0,1.7-1.48,6.28,6.28,0,0,0,1-2.08,9,9,0,0,0,0-4.69,6.28,6.28,0,0,0-1-2.08,5,5,0,0,0-1.7-1.48,5.15,5.15,0,0,0-6.62,1.48,6.51,6.51,0,0,0-1,2.08,9,9,0,0,0,0,4.69Z"/><path d="M429.23,509.93a4.92,4.92,0,0,1,3.6,1.22,5.42,5.42,0,0,1,0,6.85,4.75,4.75,0,0,1-3.6,1.21h-4.8v6.43h-2.09V509.93Zm-.7,7.53a3.74,3.74,0,0,0,2.6-.73,2.77,2.77,0,0,0,.83-2.16,2.71,2.71,0,0,0-.83-2.14,3.84,3.84,0,0,0-2.6-.74h-4.1v5.77Z"/><path d="M436.69,511.69v-1.76h12.56v1.76H444v13.95h-2.09V511.69Z"/><path d="M463.59,509.93v1.76h-8.75v5H463v1.77h-8.16v5.43h8.82v1.76H452.75V509.93Z"/><path d="M478.8,509.93v1.76H470v5h8.16v1.77H470v5.43h8.82v1.76H468V509.93Z"/></svg>