<svg xmlns="http://www.w3.org/2000/svg" viewBox="0 0 1200 1200"><defs><style>.a{isolation:isolate;}.b{opacity:0.25;mix-blend-mode:multiply;}.c{fill:#3fc6e6;}.d{fill:#333;}</style></defs><title>Artboard 1</title><g class="a"><g class="b"><circle class="c" cx="601" cy="600" r="600"/></g><g class="b"><circle class="c" cx="601" cy="600" r="450"/></g><g class="b"><circle class="c" cx="601" cy="600" r="300"/></g><g class="b"><circle class="c" cx="600" cy="600" r="150"/></g><path class="d" d="M600.49,596.24c10.17,0,13.83-10.18,14.78-18.54,1.18-10.3-3.69-18.06-14.78-18.06s-16,7.76-14.78,18.06C586.66,586.06,590.32,596.24,600.49,596.24Z"/><path class="d" d="M578.49,366.24c10.17,0,13.83-10.18,14.78-18.54,1.18-10.3-3.69-18.06-14.78-18.06s-16,7.76-14.78,18.06C564.66,356.06,568.32,366.24,578.49,366.24Z"/><path class="d" d="M606,390.49a71.58,71.58,0,0,0-1.06-9.7c-.69-3.87-1.56-9.55-4.94-12.07-2-1.46-4.48-1.94-6.72-2.81a29.79,29.79,0,0,1-3-1.34,16.1,16.1,0,0,1-23.62,0,29.79,29.79,0,0,1-3,1.34c-2.24.87-4.77,1.35-6.72,2.81-3.38,2.52-4.25,8.2-4.94,12.07a70,70,0,0,0-1.06,9.7c-.08,2.51,1.16,2.86,3.26,3.62a59.82,59.82,0,0,0,8.09,2.23,65.65,65.65,0,0,0,32.32,0,59.82,59.82,0,0,0,8.09-2.23C604.84,393.35,606.08,393,606,390.49Z"/><path class="d" d="M620.49,366.24c10.17,0,13.83-10.18,14.78-18.54,1.18-10.3-3.69-18.06-14.78-18.06s-16,7.76-14.78,18.06C606.66,356.06,610.32,366.24,620.49,366.24Z"/><path class="d" d="M648,390.49a71.58,71.58,0,0,0-1.06-9.7c-.69-3.87-1.56-9.55-4.94-12.07-2-1.46-4.48-1.94-6.72-2.81a29.79,29.79,0,0,1-3-1.34,16.1,16.1,0,0,1-23.62,0,29.79,29.79,0,0,1-3,1.34c-2.24.87-4.77,1.35-6.72,2.81-3.38,2.52-4.25,8.2-4.94,12.07a70,70,0,0,0-1.06,9.7c-.08,2.51,1.16,2.86,3.26,3.62a59.82,59.82,0,0,0,8.09,2.23,65.65,65.65,0,0,0,32.32,0,59.82,59.82,0,0,0,8.09-2.23C646.84,393.35,648.08,393,648,390.49Z"/><path class="d" d="M1102.5,586.77c4.62,0,6.28-4.63,6.72-8.43.53-4.68-1.68-8.21-6.72-8.21s-7.25,3.53-6.72,8.21C1096.22,582.14,1097.88,586.77,1102.5,586.77Z"/><path class="d" d="M1115,597.78a32.85,32.85,0,0,0-.48-4.41c-.31-1.75-.71-4.33-2.25-5.48a12.46,12.46,0,0,0-3-1.28,11.36,11.36,0,0,1-1.35-.61,7.31,7.31,0,0,1-10.74,0,11.36,11.36,0,0,1-1.35.61,12.46,12.46,0,0,0-3,1.28c-1.54,1.15-1.94,3.73-2.25,5.48a32.85,32.85,0,0,0-.48,4.41c0,1.14.53,1.3,1.48,1.65a27.43,27.43,0,0,0,3.68,1,29.74,29.74,0,0,0,14.68,0,27.43,27.43,0,0,0,3.68-1C1114.47,599.08,1115,598.92,1115,597.78Z"/><path class="d" d="M1153.5,586.77c4.62,0,6.28-4.63,6.72-8.43.53-4.68-1.68-8.21-6.72-8.21s-7.25,3.53-6.72,8.21C1147.22,582.14,1148.88,586.77,1153.5,586.77Z"/><path class="d" d="M1166,597.78a32.85,32.85,0,0,0-.48-4.41c-.31-1.75-.71-4.33-2.25-5.48a12.46,12.46,0,0,0-3-1.28,11.36,11.36,0,0,1-1.35-.61,7.31,7.31,0,0,1-10.74,0,11.36,11.36,0,0,1-1.35.61,12.46,12.46,0,0,0-3,1.28c-1.54,1.15-1.94,3.73-2.25,5.48a32.85,32.85,0,0,0-.48,4.41c0,1.14.53,1.3,1.48,1.65a27.43,27.43,0,0,0,3.68,1,29.74,29.74,0,0,0,14.68,0,27.43,27.43,0,0,0,3.68-1C1165.47,599.08,1166,598.92,1166,597.78Z"/><path class="d" d="M1127.84,601.16c6.71,0,9.13-6.72,9.76-12.24.78-6.8-2.44-11.92-9.76-11.92s-10.54,5.12-9.76,11.92C1118.71,594.44,1121.13,601.16,1127.84,601.16Z"/><path class="d" d="M1146,617.16a47.45,47.45,0,0,0-.7-6.4c-.45-2.56-1-6.3-3.26-8-1.29-1-3-1.27-4.44-1.85a20.07,20.07,0,0,1-2-.89,10.61,10.61,0,0,1-15.59,0,21.44,21.44,0,0,1-2,.89c-1.48.58-3.15.89-4.44,1.85-2.23,1.67-2.8,5.41-3.26,8a47.45,47.45,0,0,0-.7,6.4c0,1.66.77,1.89,2.16,2.39a39.34,39.34,0,0,0,5.33,1.48,43.47,43.47,0,0,0,21.34,0,39.88,39.88,0,0,0,5.34-1.48C1145.23,619.05,1146.05,618.82,1146,617.16Z"/><path class="d" d="M46.5,586.77c4.62,0,6.28-4.63,6.72-8.43.53-4.68-1.68-8.21-6.72-8.21s-7.25,3.53-6.72,8.21C40.22,582.14,41.88,586.77,46.5,586.77Z"/><path class="d" d="M59,597.78a32.85,32.85,0,0,0-.48-4.41c-.31-1.75-.71-4.33-2.25-5.48a12.46,12.46,0,0,0-3.05-1.28,11.36,11.36,0,0,1-1.35-.61,7.31,7.31,0,0,1-10.74,0,11.36,11.36,0,0,1-1.35.61,12.46,12.46,0,0,0-3.05,1.28c-1.54,1.15-1.94,3.73-2.25,5.48a32.85,32.85,0,0,0-.48,4.41c0,1.14.53,1.3,1.48,1.65a27.43,27.43,0,0,0,3.68,1,37,37,0,0,0,7.34.92,37,37,0,0,0,7.34-.92,27.43,27.43,0,0,0,3.68-1C58.47,599.08,59,598.92,59,597.78Z"/><path class="d" d="M97.5,586.77c4.62,0,6.28-4.63,6.72-8.43.53-4.68-1.68-8.21-6.72-8.21s-7.25,3.53-6.72,8.21C91.22,582.14,92.88,586.77,97.5,586.77Z"/><path class="d" d="M110,597.78a32.85,32.85,0,0,0-.48-4.41c-.31-1.75-.71-4.33-2.25-5.48a12.46,12.46,0,0,0-3-1.28,11.36,11.36,0,0,1-1.35-.61,7.31,7.31,0,0,1-10.74,0,11.36,11.36,0,0,1-1.35.61,12.46,12.46,0,0,0-3,1.28c-1.54,1.15-1.94,3.73-2.25,5.48a32.85,32.85,0,0,0-.48,4.41c0,1.14.53,1.3,1.48,1.65a27.43,27.43,0,0,0,3.68,1,37,37,0,0,0,7.34.92,37,37,0,0,0,7.34-.92,27.43,27.43,0,0,0,3.68-1C109.47,599.08,110,598.92,110,597.78Z"/><path class="d" d="M71.84,601.16c6.71,0,9.13-6.72,9.76-12.24.78-6.8-2.44-11.92-9.76-11.92s-10.54,5.12-9.76,11.92C62.71,594.44,65.13,601.16,71.84,601.16Z"/><path class="d" d="M90,617.16a47.45,47.45,0,0,0-.7-6.4c-.45-2.56-1-6.3-3.26-8-1.29-1-3-1.27-4.44-1.85a20.07,20.07,0,0,1-2-.89,10.61,10.61,0,0,1-15.59,0,21.44,21.44,0,0,1-2,.89c-1.48.58-3.15.89-4.44,1.85-2.23,1.67-2.8,5.41-3.26,8a47.45,47.45,0,0,0-.7,6.4c0,1.66.77,1.89,2.16,2.39A39.34,39.34,0,0,0,61.17,621a54,54,0,0,0,10.67,1.33A54,54,0,0,0,82.51,621a39.88,39.88,0,0,0,5.34-1.48C89.23,619.05,90.05,618.82,90,617.16Z"/><path class="d" d="M578.49,806.24c10.17,0,13.83-10.18,14.78-18.54,1.18-10.3-3.69-18.06-14.78-18.06s-16,7.76-14.78,18.06C564.66,796.06,568.32,806.24,578.49,806.24Z"/><path class="d" d="M606,830.49a71.58,71.58,0,0,0-1.06-9.7c-.69-3.87-1.56-9.55-4.94-12.07-2-1.46-4.48-1.94-6.72-2.81a29.79,29.79,0,0,1-3-1.34,16.1,16.1,0,0,1-23.62,0,29.79,29.79,0,0,1-3,1.34c-2.24.87-4.77,1.35-6.72,2.81-3.38,2.52-4.25,8.2-4.94,12.07a70,70,0,0,0-1.06,9.7c-.08,2.51,1.16,2.86,3.26,3.62a59.82,59.82,0,0,0,8.09,2.23,65.65,65.65,0,0,0,32.32,0,59.82,59.82,0,0,0,8.09-2.23C604.84,833.35,606.08,833,606,830.49Z"/><path class="d" d="M620.49,806.24c10.17,0,13.83-10.18,14.78-18.54,1.18-10.3-3.69-18.06-14.78-18.06s-16,7.76-14.78,18.06C606.66,796.06,610.32,806.24,620.49,806.24Z"/><path class="d" d="M648,830.49a71.58,71.58,0,0,0-1.06-9.7c-.69-3.87-1.56-9.55-4.94-12.07-2-1.46-4.48-1.94-6.72-2.81a29.79,29.79,0,0,1-3-1.34,16.1,16.1,0,0,1-23.62,0,29.79,29.79,0,0,1-3,1.34c-2.24.87-4.77,1.35-6.72,2.81-3.38,2.52-4.25,8.2-4.94,12.07a70,70,0,0,0-1.06,9.7c-.08,2.51,1.16,2.86,3.26,3.62a59.82,59.82,0,0,0,8.09,2.23,65.65,65.65,0,0,0,32.32,0,59.82,59.82,0,0,0,8.09-2.23C646.84,833.35,648.08,833,648,830.49Z"/><path class="d" d="M360.49,596.24c10.17,0,13.83-10.18,14.78-18.54,1.18-10.3-3.69-18.06-14.78-18.06s-16,7.76-14.78,18.06C346.66,586.06,350.32,596.24,360.49,596.24Z"/><path class="d" d="M388,620.49a71.58,71.58,0,0,0-1.06-9.7c-.69-3.87-1.56-9.55-4.94-12.07-1.95-1.46-4.48-1.94-6.72-2.81a29.79,29.79,0,0,1-3-1.34,16.1,16.1,0,0,1-23.62,0,29.79,29.79,0,0,1-3,1.34c-2.24.87-4.77,1.35-6.72,2.81-3.38,2.52-4.25,8.2-4.94,12.07a70,70,0,0,0-1.06,9.7c-.08,2.51,1.16,2.86,3.26,3.62a59.82,59.82,0,0,0,8.09,2.23,81.39,81.39,0,0,0,16.16,2,81.48,81.48,0,0,0,16.16-2,59.82,59.82,0,0,0,8.09-2.23C386.84,623.35,388.08,623,388,620.49Z"/><path class="d" d="M402.49,596.24c10.17,0,13.83-10.18,14.78-18.54,1.18-10.3-3.69-18.06-14.78-18.06s-16,7.76-14.78,18.06C388.66,586.06,392.32,596.24,402.49,596.24Z"/><path class="d" d="M430,620.49a71.58,71.58,0,0,0-1.06-9.7c-.69-3.87-1.56-9.55-4.94-12.07-1.95-1.46-4.48-1.94-6.72-2.81a29.79,29.79,0,0,1-3-1.34,16.1,16.1,0,0,1-23.62,0,29.79,29.79,0,0,1-3,1.34c-2.24.87-4.77,1.35-6.72,2.81-3.38,2.52-4.25,8.2-4.94,12.07a70,70,0,0,0-1.06,9.7c-.08,2.51,1.16,2.86,3.26,3.62a59.82,59.82,0,0,0,8.09,2.23,65.65,65.65,0,0,0,32.32,0,59.82,59.82,0,0,0,8.09-2.23C428.84,623.35,430.08,623,430,620.49Z"/><path class="d" d="M835.06,555.37c8.27-.33,13.6,4.35,14.58,10.12.33,1.41-.43,11.09-.87,12.51-1.2,2.94-2,5.66-4,7.4-5.87,4.89-16.42,2.93-19.47-3.27-.44-1-.76-2.61-1.31-3.91-1.08-2.51-1.19-11.86-1-13.39C824,559.83,828.64,555.59,835.06,555.37Z"/><path class="d" d="M826.68,589.64c1.09,4.13,3.92,33.29,5.55,34.6,1-2.29.33-22.85,1.2-25.35,1,0,2.94-.33,3.92,0,.32,2.83.43,22.52,1,25.24,1.42-.22,4.14-30,5.77-34.38,14.25-1.42,16.1,26.44,16.43,39h-50.7C810.47,616.08,812.32,588.12,826.68,589.64Z"/><path class="d" d="M840.17,593.56c-1.08,1.52-2.93,4-2.93,4l-3.59-.11s-2.83-2.61-3.16-3.7C832,592.58,839.2,592.9,840.17,593.56Z"/><path class="d" d="M806.77,625.22c.33-8.49,4.57-31.55,9.69-35.25-2.4-1.85-4.25-4.25-9.14-3.81-1.53,4.46-4.25,34.27-5.77,34.38-.43-2.61-.65-22.3-1-25.24-1-.33-3.05,0-3.92,0-.87,2.5-.21,23-1.19,25.35-1.63-1.31-4.46-30.47-5.55-34.6-14.25-1.41-16,26.77-16.43,39.17Z"/><path class="d" d="M798.07,551c8.27-.33,13.6,4.35,14.58,10.11.32,1.42-.44,11.1-.87,12.52-1.2,2.93-2,5.65-4,7.4-5.87,4.89-16.43,2.93-19.47-3.27-.44-1-.77-2.61-1.31-3.92-1-2.5-1.2-12-.87-13.38C786.86,555.59,791.54,551.23,798.07,551Z"/><path class="d" d="M803.18,589.53c-1.09,1.52-2.94,4-2.94,4l-3.59-.11s-2.82-2.61-3.15-3.7C795,588.55,802.2,588.77,803.18,589.53Z"/><rect class="d" x="566.03" y="244.12" width="70.93" height="3.38"/><path class="d" d="M636.12,212H625.49a24.28,24.28,0,0,0-22.37-22.11,2.8,2.8,0,0,0,.07-.92v-5.3c5.07-1.73,9.29,4.39,13.51.82V174.14c-4.22,3.57-9-2.55-13.51-.83a1.7,1.7,0,1,0-3.38,0V189a2.8,2.8,0,0,0,.09.92A24.28,24.28,0,0,0,577.51,212H566.88v29.56h69.24Zm-54,22.59a3,3,0,0,1-5.91,0v-13.7a3,3,0,0,1,5.91,0Zm15.2,0a3,3,0,0,1-5.91,0v-13.7a3,3,0,0,1,5.91,0Zm14.35,0a3,3,0,0,1-5.91,0v-13.7a3,3,0,0,1,5.91,0Zm15.2,0a3,3,0,0,1-5.91,0v-13.7a3,3,0,0,1,5.91,0Z"/><path class="d" d="M891.49,357.24c10.17,0,13.83-10.18,14.78-18.54,1.18-10.3-3.69-18.06-14.78-18.06s-16,7.76-14.78,18.06C877.66,347.06,881.32,357.24,891.49,357.24Z"/><path class="d" d="M919,381.49a71.58,71.58,0,0,0-1.06-9.7c-.69-3.87-1.56-9.55-4.94-12.07-2-1.46-4.48-1.94-6.72-2.81a29.79,29.79,0,0,1-3-1.34,16.1,16.1,0,0,1-23.62,0,29.79,29.79,0,0,1-3,1.34c-2.24.87-4.77,1.35-6.72,2.81-3.38,2.52-4.25,8.2-4.94,12.07a70,70,0,0,0-1.06,9.7c-.08,2.51,1.16,2.86,3.26,3.62a59.82,59.82,0,0,0,8.09,2.23,65.65,65.65,0,0,0,32.32,0,59.82,59.82,0,0,0,8.09-2.23C917.84,384.35,919.08,384,919,381.49Z"/><path class="d" d="M932.88,341.41H920.65l-6.11,6.12V326.12a6.13,6.13,0,0,1,6.11-6.11h12.23a6.13,6.13,0,0,1,6.12,6.11v9.18A6.13,6.13,0,0,1,932.88,341.41Z"/><path class="d" d="M626.94,610.79c-.69-3.87-1.56-9.55-4.94-12.07-2-1.46-4.48-1.94-6.72-2.81a29.79,29.79,0,0,1-3-1.34,16.1,16.1,0,0,1-23.62,0,29.79,29.79,0,0,1-3,1.34c-2.24.87-4.77,1.35-6.72,2.81-3.38,2.52-4.25,8.2-4.94,12.07a70,70,0,0,0-1.06,9.7c-.08,2.51,1.16,2.86,3.26,3.62a59.82,59.82,0,0,0,8.09,2.23,65.65,65.65,0,0,0,32.32,0,59.82,59.82,0,0,0,8.09-2.23c2.1-.76,3.34-1.11,3.26-3.62A71.58,71.58,0,0,0,626.94,610.79ZM606,621l-5.52-2.9-5.52,2.9,1.06-6.14-4.47-4.35,6.17-.9,2.76-5.59,2.76,5.59,6.17.9-4.47,4.35Z"/><path class="d" d="M905.79,785.48a18.29,18.29,0,0,1,15.58,18.57,36.68,36.68,0,0,1-1.34,9.32,35.76,35.76,0,0,1-10.44,17.3,13,13,0,0,1-11,3.13c-1.73-.27-3.39-.8-5.06-1.2a3.14,3.14,0,0,0-1.06,0l-3.79,1a13.42,13.42,0,0,1-11.85-2.66,27.07,27.07,0,0,1-3.53-3.66,36.25,36.25,0,0,1-7.12-13.38,34.34,34.34,0,0,1-1.4-8.25,22,22,0,0,1,.13-5.06,17.89,17.89,0,0,1,5.93-10.72c4.06-3.59,8.92-4.86,14.24-4.52a34.7,34.7,0,0,1,5.93.93c.33.06.39,0,.39-.34a8.2,8.2,0,0,0-.26-2.19,10.09,10.09,0,0,0-4.93-6.66c-.53-.33-.53-.33-.26-.93s.73-1.4,1-2.13a.39.39,0,0,1,.59-.2,14,14,0,0,1,1.4.87,13.35,13.35,0,0,1,4.33,4.92c.2.33.26.33.46,0a9.55,9.55,0,0,1,1.27-1.53,14.91,14.91,0,0,1,10.65-4.59,17.6,17.6,0,0,1,6.92,1.53c.27.13.27.26.13.46a20,20,0,0,1-3.86,4.73,15,15,0,0,1-9.32,3.53,13.9,13.9,0,0,1-4.65-.67c-.2-.06-.4-.13-.34.2a9.19,9.19,0,0,1,.27,2.73c0,.27.07.27.33.2a32.22,32.22,0,0,1,8.32-1C903.86,785.28,904.86,785.35,905.79,785.48Zm-24.63,6.65A11.47,11.47,0,0,0,871.31,803a1.84,1.84,0,0,0,2.53,2,1.7,1.7,0,0,0,.94-1.53,7.21,7.21,0,0,1,.46-2.6,8.08,8.08,0,0,1,7.66-5.39,1.66,1.66,0,0,0,1.66-1.4,1.76,1.76,0,0,0-1.2-2,4.17,4.17,0,0,0-.93-.07A10.33,10.33,0,0,0,881.16,792.13Z"/><path class="d" d="M631.77,950.84c-.35,2.21-4,5.7-5.76,6.48,0,0,1.35.36-.15,2v.07s-12.59,7.12-25.26,7.12-25.26-7.12-25.26-7.12h0c-1.43-1.63-.15-2-.15-2-1.7-.78-5.41-4.34-5.76-6.48s-.5-4.12,5.05-7.18a131.24,131.24,0,0,1,15.8-7.76c8.47-3.63,10.25-3.27,10.25-3.27s1.85-.36,10.32,3.27a131.24,131.24,0,0,1,15.8,7.76C632.27,946.79,632.13,948.71,631.77,950.84Zm-25.19-10.67c-2.78,2.77-5.91-1.28-5.91-1.28s-3.13,4.13-5.91,1.35l-2.27,3.84s2.49.79,1.42,3.85-.92,6.12,0,7.4a25.54,25.54,0,0,0,4.77,4,9.84,9.84,0,0,1,1.92,1.5,15.56,15.56,0,0,1,2-1.57,25.39,25.39,0,0,0,4.77-4c.93-1.29,1.14-4.35,0-7.41s1.42-3.84,1.42-3.84ZM575.9,963.8v-.22s12.39,7.12,24.77,7.12,24.84-7.12,24.84-7.12v.14s1.14.36,0,1.64c0,0,5.62,5.77,1.28,10.11S611.2,985.86,600.67,986h0c-10.53-.21-21.63-6.12-26-10.46s1.29-10.11,1.29-10.11C574.77,964.15,575.9,963.8,575.9,963.8Z"/><path class="d" d="M317,816.5a4.23,4.23,0,0,1-3,1.2,4.28,4.28,0,0,1-2.2-.6,4.17,4.17,0,0,1-1.1,3.8,4.23,4.23,0,0,1-3,1.2,3.78,3.78,0,0,1-2.7-1,4.32,4.32,0,0,1-1.2,3.7,4.23,4.23,0,0,1-3,1.2,5.37,5.37,0,0,1-2.1-.5,3.53,3.53,0,0,1-.3,1.4,4.37,4.37,0,0,1-1,1.5c-.1.1-.2.2-.3.2H297a4.27,4.27,0,0,1-2.7,1,4.55,4.55,0,0,1-2-.5l-1.4-1,3.3-4.1c3-3.7,1-7.2-1.4-9.2h0a5.84,5.84,0,0,0-4.7-1.2,5.53,5.53,0,0,0-2-4.4h0a5.84,5.84,0,0,0-4.7-1.2,5.53,5.53,0,0,0-2-4.4h0a5.84,5.84,0,0,0-4.7-1.2,5.53,5.53,0,0,0-2-4.4h0c-2.9-2.6-6.3-3.5-9.3-.3l-4.8,5.9-.2.2-.2-.1a4.35,4.35,0,0,1-.7-.6c-1.7-1.4-7.2-5.2-9-6.6a1.75,1.75,0,0,1-.6-2.3c1.6-3.5,3.3-6.9,4.9-10.3.8-1.8,1.7-3.6,2.5-5.5a2,2,0,0,1,1.1-1.1,1.9,1.9,0,0,1,1.4.3,60.45,60.45,0,0,0,6.9,4.2,15.48,15.48,0,0,0,5.1,1.6,17.22,17.22,0,0,0,3.1-.1,11.36,11.36,0,0,0,2.5-.6c.1,0,.3-.1.4-.1a5.64,5.64,0,0,0,1.2-.4c.1,0,.1,0,.2-.1s.2-.1.4-.1c1.7-.4,3.5-.8,5.2-1.1l-5.3,5.3c-.2.2-.3.4-.5.5s-.4.5-.5.6h0a7,7,0,0,0-1.2,2.8v.1a9.44,9.44,0,0,0,7.6,10.2,15,15,0,0,0,2,.2,12.6,12.6,0,0,0,7.9-2.7c1.1-.9,2.3-1.9,3.5-2.8l.1-.1c.3-.3.6-.5.9-.8a.1.1,0,0,0,.1-.1l.1-.1a2.2,2.2,0,0,1,.8.1,3.08,3.08,0,0,1,1.2.5,5.5,5.5,0,0,1,.9.7l.6.6.4.4.1.1,1.5,1.5,1,1,1.7,1.8L307,802l.2.2,9.5,8.2A4.22,4.22,0,0,1,317,816.5Z"/><path class="d" d="M333.5,791.4c-1.7,1.4-8.4,6.5-10.1,8-1.1,1-2.9,2.4-4,3.4a1.76,1.76,0,0,1-.5.4h0c-.1.1-.2.1-.3.2a.9.9,0,0,1-.5.1,1.85,1.85,0,0,1-.7-.2L315,801h0l-5.6-5.2-.3-.3-.3-.3-2.6-2.4c-.7-.7-1.4-1.4-2.2-2.1-.3-.2-.5-.5-.8-.7l-.1-.1-.3-.3h-.1a7,7,0,0,0-2.3-1.1,5.9,5.9,0,0,0-1.4-.2h-.2a5.78,5.78,0,0,0-3.2,1h0a6.47,6.47,0,0,0-.9.8.1.1,0,0,0-.1.1c-.3.3-.7.5-1,.8-1.2,1-2.4,1.9-3.4,2.8-.1.1-.1.1-.2.1a7.6,7.6,0,0,1-4.5,1.5,5.7,5.7,0,0,1-1.3-.1c-1.7-.3-3.6-2.6-3.3-4.3a2.12,2.12,0,0,1,.3-.7l.2-.2.3-.3.4-.4,5-5,.3-.3.3-.3,5.4-5.4h0l1.4-1.4.2-.1a3.8,3.8,0,0,1,2.7-.8,18,18,0,0,1,5.2,1.3c1.2.4,2.4.8,3.6,1.1a18.35,18.35,0,0,0,4.7.6h.9c3.6-.2,9.8-4.8,11.8-6.3a1.86,1.86,0,0,1,1.1-.4,1.33,1.33,0,0,1,.8.3l.2.2a4.23,4.23,0,0,1,.5.7l2.7,5.4c1.8,3.4,3.6,6.8,5.3,10.2A1.81,1.81,0,0,1,333.5,791.4Z"/><path class="d" d="M270.5,805.8l-4.8,5.8-.1.1a3,3,0,0,1-4.3.4c-.1-.1-.2-.2-.3-.2a5.55,5.55,0,0,1-.6-.8c0-.1-.1-.2-.1-.3s-.1-.3-.1-.5v-1a4.33,4.33,0,0,1,.1-.5l.3-.6c0-.1.1-.1.1-.2a.1.1,0,0,1,.1-.1l4.8-5.9a3,3,0,0,1,4.3-.4h0c.1.1.2.2.3.2a.1.1,0,0,1,.1.1c.1.1.1.1.1.2s.1.2.2.3.1.1.1.2a.37.37,0,0,1,.1.3c0,.1.1.2.1.3A2.49,2.49,0,0,1,270.5,805.8Z"/><path class="d" d="M277.2,811.4l-4.5,5.4-.4.4a3,3,0,0,1-4.3.4h0c-.1-.1-.2-.2-.3-.2a1.76,1.76,0,0,1-.4-.5l-.3-.6h0c0-.1,0-.2-.1-.2s0-.2-.1-.2v-.7h0V815c0-.2.1-.3.1-.5v-.1a4.05,4.05,0,0,1,.5-.9l.2-.2,4.6-5.6a3,3,0,0,1,4.3-.4h0l.2.2h0c.1.1.1.1.1.2l.2.2c.1.1.1.2.2.3s.1.3.2.5.1.2.1.3A2,2,0,0,1,277.2,811.4Z"/><path class="d" d="M284.6,815.2v.6h0c0,.1-.1.2-.1.4a.35.35,0,0,1-.1.2c-.1.1-.1.2-.2.4s-.2.2-.2.3l-4.2,5.1-.6.8a3,3,0,0,1-4.3.4h0c-.1-.1-.2-.2-.3-.2a4.13,4.13,0,0,1-.7-1.1c0-.1-.1-.2-.1-.3a3.11,3.11,0,0,1,.6-2.6l.5-.6,4.4-5.3a3,3,0,0,1,4.3-.4h0c.1.1.2.2.3.2s.1.2.2.2.1.2.2.3l.3.6h0a.35.35,0,0,0,.1.2v.2A1.27,1.27,0,0,0,284.6,815.2Z"/><path class="d" d="M291.3,820.7h0v.6h0c0,.1-.1.2-.1.4a.35.35,0,0,1-.1.2c-.1.1-.1.2-.2.3s-.2.2-.2.3l-3.8,4.7-1,1.2a3,3,0,0,1-4.3.4h0c-.1-.1-.2-.2-.3-.2a.1.1,0,0,1-.1-.1c0-.1-.1-.1-.1-.2s-.1-.2-.2-.3-.1-.1-.1-.2a.37.37,0,0,1-.1-.3c0-.1-.1-.2-.1-.3a3.11,3.11,0,0,1,.6-2.6l.8-.9,4.1-5a3,3,0,0,1,4.3-.4h0c.1.1.2.2.3.2s.2.2.2.3.1.1.1.2.1.1.1.2v.1h0c0,.1.1.1.1.2s.1.1.1.2h0a.35.35,0,0,0,.1.2v.2A1.76,1.76,0,0,0,291.3,820.7Z"/><path class="d" d="M310.88,328H280.65a15.16,15.16,0,0,0-15.11,15.11v22.67a15.16,15.16,0,0,0,15.11,15.12h30.23L326,396V343.12A15.16,15.16,0,0,0,310.88,328Zm-2,24c-.46,1.35-2.82,6.74-13,13.94l-.27.08c-10.16-7.2-12.25-12.67-12.71-14a7,7,0,0,1,6.33-9.33c.8,0,4.74,0,6.65,3.48,1.91-3.53,5.85-3.52,6.66-3.48a7,7,0,0,1,6.32,9.33Z"/><path d="M561,637h7.18v1.77H563.1v2.32h4.46v1.75H563.1v4.23H561Z"/><path d="M575.69,646.15a4.09,4.09,0,0,1-5.73,0,4.63,4.63,0,0,1,0-5.59,4.07,4.07,0,0,1,5.73,0,4.63,4.63,0,0,1,0,5.59Zm-1.56-1.07a2.87,2.87,0,0,0,.46-1.73,2.82,2.82,0,0,0-.46-1.72,1.53,1.53,0,0,0-1.31-.61,1.55,1.55,0,0,0-1.32.61,2.75,2.75,0,0,0-.46,1.72,2.8,2.8,0,0,0,.46,1.73,1.58,1.58,0,0,0,1.32.61A1.56,1.56,0,0,0,574.13,645.08Z"/><path d="M579.61,644.69a1.39,1.39,0,0,0,.26.74,1.85,1.85,0,0,0,1.35.38,2,2,0,0,0,.92-.17.57.57,0,0,0,.06-1,11.55,11.55,0,0,0-2-.59,4.24,4.24,0,0,1-1.79-.78,1.7,1.7,0,0,1-.52-1.34,2.34,2.34,0,0,1,.81-1.78,3.27,3.27,0,0,1,2.28-.74,4.23,4.23,0,0,1,2.28.56,2.38,2.38,0,0,1,1,1.92h-2a1.12,1.12,0,0,0-.21-.59,1.35,1.35,0,0,0-1.1-.4,1.57,1.57,0,0,0-.9.2.59.59,0,0,0-.28.47.51.51,0,0,0,.29.48,11.32,11.32,0,0,0,2,.54,3.72,3.72,0,0,1,1.74.83,1.89,1.89,0,0,1,.58,1.4,2.27,2.27,0,0,1-.83,1.81,5,5,0,0,1-5.15,0,2.43,2.43,0,0,1-.84-1.89Z"/><path d="M585.19,641.07v-1.39h1v-2.07h1.92v2.07h1.21v1.39h-1.21V645a.88.88,0,0,0,.12.57,1.34,1.34,0,0,0,.71.11h.38v1.45l-.92,0a2.5,2.5,0,0,1-1.89-.48,1.41,1.41,0,0,1-.32-1v-4.59Z"/><path d="M595.54,639.77a3,3,0,0,1,1.29,1.1,3.67,3.67,0,0,1,.59,1.54,9.86,9.86,0,0,1,.06,1.48h-5.42a1.79,1.79,0,0,0,.78,1.57,1.92,1.92,0,0,0,1.07.28,1.63,1.63,0,0,0,1.08-.34,1.56,1.56,0,0,0,.4-.52h2a2.37,2.37,0,0,1-.72,1.35,3.6,3.6,0,0,1-2.8,1.09,4.09,4.09,0,0,1-2.63-.92,3.59,3.59,0,0,1-1.13-3,4.05,4.05,0,0,1,1-3,3.59,3.59,0,0,1,2.67-1A4.11,4.11,0,0,1,595.54,639.77Zm-2.92,1.68a2,2,0,0,0-.51,1.15h3.35a1.61,1.61,0,0,0-.52-1.18,1.73,1.73,0,0,0-1.15-.4A1.59,1.59,0,0,0,592.62,641.45Z"/><path d="M602.68,639.44h.17v2l-.33,0h-.23a1.62,1.62,0,0,0-1.58.77,2.94,2.94,0,0,0-.23,1.32v3.57h-2v-7.45h1.86v1.29a4.23,4.23,0,0,1,.79-1,2.14,2.14,0,0,1,1.42-.45Z"/><path d="M612.47,642.29a1.63,1.63,0,0,0-.28-.75,1.16,1.16,0,0,0-1-.46,1.36,1.36,0,0,0-1.35,1,4.32,4.32,0,0,0-.19,1.38,4,4,0,0,0,.19,1.32,1.31,1.31,0,0,0,1.32.93,1.17,1.17,0,0,0,1-.37,1.87,1.87,0,0,0,.35-1h2a3.33,3.33,0,0,1-.64,1.68,3.14,3.14,0,0,1-2.72,1.28,3.19,3.19,0,0,1-2.65-1.07,4.33,4.33,0,0,1-.85-2.76,4.41,4.41,0,0,1,.94-3,3.28,3.28,0,0,1,2.59-1.06,3.87,3.87,0,0,1,2.29.63,2.91,2.91,0,0,1,1.06,2.22Z"/><path d="M621.23,639.66a2.19,2.19,0,0,1,.92.73,1.93,1.93,0,0,1,.38.86,11.94,11.94,0,0,1,.06,1.44v4.38h-2v-4.54a1.94,1.94,0,0,0-.2-1,1,1,0,0,0-1-.52,1.39,1.39,0,0,0-1.17.51,2.44,2.44,0,0,0-.39,1.48v4h-2V637h2v3.56a2.39,2.39,0,0,1,1-.91,2.77,2.77,0,0,1,1.17-.25A3.17,3.17,0,0,1,621.23,639.66Z"/><path d="M626.5,638.73h-2v-1.8h2Zm-2,.89h2v7.45h-2Z"/><path d="M630.45,647.07h-2V637h2Z"/><path d="M636.37,639.73a2.41,2.41,0,0,1,.85.83V637h2v10.07h-1.9v-1a2.6,2.6,0,0,1-.95,1,2.66,2.66,0,0,1-1.32.3,2.75,2.75,0,0,1-2.2-1.06,4,4,0,0,1-.89-2.71,4.7,4.7,0,0,1,.87-3,2.86,2.86,0,0,1,2.35-1.09A2.52,2.52,0,0,1,636.37,639.73Zm.47,5.31a2.69,2.69,0,0,0,.44-1.59,2.47,2.47,0,0,0-.7-2,1.51,1.51,0,0,0-1-.35,1.34,1.34,0,0,0-1.25.65,3.5,3.5,0,0,0,0,3.25,1.39,1.39,0,0,0,1.24.62A1.42,1.42,0,0,0,636.84,645Z"/><path d="M778,643.83a2.75,2.75,0,0,0,.39,1.38,2.51,2.51,0,0,0,2.29,1A3.9,3.9,0,0,0,782,646a1.54,1.54,0,0,0,1.17-1.52,1.32,1.32,0,0,0-.5-1.16,4.84,4.84,0,0,0-1.57-.6l-1.32-.31a5.94,5.94,0,0,1-1.83-.66,2.11,2.11,0,0,1-.93-1.88,3,3,0,0,1,.91-2.22,3.61,3.61,0,0,1,2.59-.87,4.47,4.47,0,0,1,2.61.76,2.8,2.8,0,0,1,1.07,2.44h-1.28a2.48,2.48,0,0,0-.42-1.24,2.39,2.39,0,0,0-2-.78,2.32,2.32,0,0,0-1.66.5,1.61,1.61,0,0,0-.51,1.18,1.16,1.16,0,0,0,.6,1.08,8.94,8.94,0,0,0,1.77.55l1.36.32a4.05,4.05,0,0,1,1.53.63,2.4,2.4,0,0,1,.92,2,2.56,2.56,0,0,1-1.18,2.38,5.2,5.2,0,0,1-2.75.72,4,4,0,0,1-2.86-1,3.23,3.23,0,0,1-1-2.57Z"/><path d="M791.65,640.47a3.74,3.74,0,0,1,1,2.78,4.77,4.77,0,0,1-.86,2.92,3.08,3.08,0,0,1-2.65,1.16,3,3,0,0,1-2.39-1,4.08,4.08,0,0,1-.88-2.74,4.39,4.39,0,0,1,.93-2.94,3.13,3.13,0,0,1,2.5-1.09A3.32,3.32,0,0,1,791.65,640.47Zm-.77,4.87a4.65,4.65,0,0,0,.45-2.06,3.74,3.74,0,0,0-.32-1.66,1.83,1.83,0,0,0-1.77-1,1.74,1.74,0,0,0-1.63.86,4.07,4.07,0,0,0-.5,2.07,3.57,3.57,0,0,0,.5,2,1.79,1.79,0,0,0,1.61.78A1.67,1.67,0,0,0,790.88,645.34Z"/><path d="M799,640.13a2.93,2.93,0,0,1,.94,2.08h-1.2a2.18,2.18,0,0,0-.5-1.13,1.56,1.56,0,0,0-1.25-.45,1.74,1.74,0,0,0-1.68,1.15,4.55,4.55,0,0,0-.33,1.84,3.46,3.46,0,0,0,.47,1.85,1.59,1.59,0,0,0,1.46.75,1.6,1.6,0,0,0,1.21-.47,2.49,2.49,0,0,0,.62-1.28H800a2.91,2.91,0,0,1-3.13,2.81,2.81,2.81,0,0,1-2.29-1,4,4,0,0,1-.85-2.62,4.42,4.42,0,0,1,.93-3,3,3,0,0,1,2.39-1.08A3.16,3.16,0,0,1,799,640.13Z"/><path d="M801.27,637h1.25v1.4h-1.25Zm0,2.76h1.25v7.29h-1.25Z"/><path d="M808.37,642.63a.67.67,0,0,0,.57-.35,1.17,1.17,0,0,0,.08-.47,1,1,0,0,0-.45-.92,2.36,2.36,0,0,0-1.28-.28,1.61,1.61,0,0,0-1.36.52,1.67,1.67,0,0,0-.29.86h-1.15a2.09,2.09,0,0,1,.88-1.89,3.52,3.52,0,0,1,2-.53,4,4,0,0,1,2.1.49,1.68,1.68,0,0,1,.8,1.53v4.22a.49.49,0,0,0,.08.31.39.39,0,0,0,.33.11h.18l.22,0v.91a3.47,3.47,0,0,1-.44.1,2.31,2.31,0,0,1-.41,0,1,1,0,0,1-.92-.45,1.71,1.71,0,0,1-.21-.67A3.19,3.19,0,0,1,808,647a3.37,3.37,0,0,1-1.55.36,2.29,2.29,0,0,1-1.67-.62,2,2,0,0,1-.64-1.54,2,2,0,0,1,.63-1.58,3.1,3.1,0,0,1,1.67-.69ZM805.78,646a1.48,1.48,0,0,0,.92.31A2.78,2.78,0,0,0,808,646a1.71,1.71,0,0,0,1-1.64v-1a2.26,2.26,0,0,1-.58.23,3.62,3.62,0,0,1-.7.14l-.74.1a2.87,2.87,0,0,0-1,.28,1.08,1.08,0,0,0-.57,1A1,1,0,0,0,805.78,646Z"/><path d="M812.34,637h1.23v10.05h-1.23Z"/><path d="M820,639.74l1.4,5.77,1.43-5.77h1.38l1.44,5.74,1.5-5.74h1.23l-2.13,7.33H825l-1.49-5.67-1.44,5.67h-1.28l-2.11-7.33Z"/><path d="M834.93,640.47a3.7,3.7,0,0,1,1,2.78,4.71,4.71,0,0,1-.86,2.92,3.08,3.08,0,0,1-2.65,1.16,3,3,0,0,1-2.38-1,4,4,0,0,1-.89-2.74,4.44,4.44,0,0,1,.93-2.94,3.16,3.16,0,0,1,2.5-1.09A3.32,3.32,0,0,1,834.93,640.47Zm-.76,4.87a4.79,4.79,0,0,0,.45-2.06,3.6,3.6,0,0,0-.33-1.66,1.81,1.81,0,0,0-1.77-1,1.72,1.72,0,0,0-1.62.86,4,4,0,0,0-.51,2.07,3.49,3.49,0,0,0,.51,2,1.77,1.77,0,0,0,1.61.78A1.68,1.68,0,0,0,834.17,645.34Z"/><path d="M837.51,639.74h1.17V641a2.73,2.73,0,0,1,.71-.9,1.82,1.82,0,0,1,1.29-.53h.12l.28,0v1.29l-.2,0h-.21a1.77,1.77,0,0,0-1.43.6,2.1,2.1,0,0,0-.49,1.38v4.21h-1.24Z"/><path d="M842.19,637h1.18v5.83l3.15-3.11h1.58l-2.82,2.73,3,4.6h-1.57l-2.3-3.73-1,1v2.75h-1.18Z"/><path d="M853.8,640a2.74,2.74,0,0,1,1.11.94,3.17,3.17,0,0,1,.49,1.3,8.58,8.58,0,0,1,.11,1.61h-5.32a3.11,3.11,0,0,0,.52,1.79,1.74,1.74,0,0,0,1.51.68,2,2,0,0,0,1.53-.64,2.29,2.29,0,0,0,.45-.86h1.21a2.51,2.51,0,0,1-.32.9,3.28,3.28,0,0,1-.6.81,2.89,2.89,0,0,1-1.38.74,4.31,4.31,0,0,1-1,.11,3.07,3.07,0,0,1-2.3-1,3.88,3.88,0,0,1-.94-2.79,4.2,4.2,0,0,1,1-2.86,3.13,3.13,0,0,1,2.48-1.1A3.2,3.2,0,0,1,853.8,640Zm.45,2.87a3.25,3.25,0,0,0-.35-1.28,1.76,1.76,0,0,0-1.67-.89,1.85,1.85,0,0,0-1.41.62,2.28,2.28,0,0,0-.61,1.55Z"/><path d="M857.17,639.74h1.17V641a2.73,2.73,0,0,1,.71-.9,1.82,1.82,0,0,1,1.29-.53h.11l.28,0v1.29l-.2,0h-.2a1.75,1.75,0,0,0-1.43.6,2.11,2.11,0,0,0-.5,1.38v4.21h-1.23Z"/><path d="M862.6,644.77a1.72,1.72,0,0,0,.32.94,2,2,0,0,0,1.64.6,2.44,2.44,0,0,0,1.23-.3,1,1,0,0,0,.53-.92.8.8,0,0,0-.42-.72,5.67,5.67,0,0,0-1.07-.35l-1-.24a5.11,5.11,0,0,1-1.4-.52,1.55,1.55,0,0,1-.81-1.38,2.09,2.09,0,0,1,.76-1.68,3.06,3.06,0,0,1,2-.65,2.87,2.87,0,0,1,2.42,1,2.1,2.1,0,0,1,.45,1.33h-1.16a1.31,1.31,0,0,0-.3-.75,1.93,1.93,0,0,0-1.51-.49,1.83,1.83,0,0,0-1.08.27.83.83,0,0,0-.36.7.85.85,0,0,0,.48.76,2.53,2.53,0,0,0,.82.3l.83.2a6.77,6.77,0,0,1,1.81.62,1.66,1.66,0,0,1,.72,1.49,2.23,2.23,0,0,1-.75,1.68,3.21,3.21,0,0,1-2.29.72,3.07,3.07,0,0,1-2.34-.75,2.75,2.75,0,0,1-.74-1.83Z"/><path d="M330.94,637h1.53l3.65,10.05h-1.49l-1.05-3h-3.94l-1.09,3h-1.39Zm2.25,5.93-1.54-4.44L330,643Z"/><path d="M341.27,640a3.47,3.47,0,0,1,.75.72V637h1.18v10.08h-1.11v-1a2.77,2.77,0,0,1-1,1,2.92,2.92,0,0,1-1.35.3,2.74,2.74,0,0,1-2.11-1,4.07,4.07,0,0,1-.89-2.74,4.74,4.74,0,0,1,.81-2.77,2.68,2.68,0,0,1,2.33-1.17A2.53,2.53,0,0,1,341.27,640Zm-2.74,5.49a1.73,1.73,0,0,0,1.59.79,1.67,1.67,0,0,0,1.4-.73,3.54,3.54,0,0,0,.54-2.11,3.13,3.13,0,0,0-.56-2.06,1.77,1.77,0,0,0-1.4-.66,1.84,1.84,0,0,0-1.5.71,3.28,3.28,0,0,0-.57,2.09A3.67,3.67,0,0,0,338.53,645.46Z"/><path d="M350.41,640.47a3.7,3.7,0,0,1,1,2.78,4.77,4.77,0,0,1-.85,2.92,3.1,3.1,0,0,1-2.66,1.16,3,3,0,0,1-2.38-1,4,4,0,0,1-.88-2.74,4.39,4.39,0,0,1,.93-2.94,3.13,3.13,0,0,1,2.5-1.09A3.3,3.3,0,0,1,350.41,640.47Zm-.76,4.87a4.65,4.65,0,0,0,.45-2.06,3.6,3.6,0,0,0-.33-1.66,1.81,1.81,0,0,0-1.77-1,1.73,1.73,0,0,0-1.62.86,4,4,0,0,0-.51,2.07,3.49,3.49,0,0,0,.51,2,1.78,1.78,0,0,0,1.61.78A1.67,1.67,0,0,0,349.65,645.34Z"/><path d="M352.86,639.78h1.2v1a3.07,3.07,0,0,1,.81-.77,2.58,2.58,0,0,1,1.47-.41,2.75,2.75,0,0,1,2.12.95,3.9,3.9,0,0,1,.87,2.72,4.16,4.16,0,0,1-1.26,3.42,2.81,2.81,0,0,1-1.85.65,2.52,2.52,0,0,1-1.39-.36,3.31,3.31,0,0,1-.74-.7V650h-1.23Zm4.63,5.74a3.44,3.44,0,0,0,.57-2.16,4,4,0,0,0-.25-1.5,1.86,1.86,0,0,0-3.51.07,5,5,0,0,0-.26,1.73,3.6,3.6,0,0,0,.26,1.44,1.74,1.74,0,0,0,1.75,1.14A1.76,1.76,0,0,0,357.49,645.52Z"/><path d="M361.07,637.7h1.24v2h1.17v1h-1.17v4.78a.53.53,0,0,0,.26.51,1.09,1.09,0,0,0,.48.08h.19l.24,0v1a2.14,2.14,0,0,1-.44.08,4,4,0,0,1-.5,0,1.33,1.33,0,0,1-1.17-.44,2,2,0,0,1-.3-1.14v-4.85h-1v-1h1Z"/><path d="M364.78,637H366v1.4h-1.25Zm0,2.76H366v7.29h-1.25Z"/><path d="M368.56,639.74l2,6,2-6h1.34l-2.75,7.33h-1.31l-2.7-7.33Z"/><path d="M379.55,640a2.74,2.74,0,0,1,1.11.94,3.32,3.32,0,0,1,.49,1.3,8.58,8.58,0,0,1,.11,1.61h-5.33a3.19,3.19,0,0,0,.52,1.79,1.76,1.76,0,0,0,1.52.68,2,2,0,0,0,1.52-.64,2,2,0,0,0,.45-.86h1.21a2.48,2.48,0,0,1-.31.9,3.07,3.07,0,0,1-.61.81,2.91,2.91,0,0,1-1.37.74,4.37,4.37,0,0,1-1,.11,3.06,3.06,0,0,1-2.3-1,3.88,3.88,0,0,1-.95-2.79,4.25,4.25,0,0,1,.95-2.86,3.16,3.16,0,0,1,2.49-1.1A3.2,3.2,0,0,1,379.55,640Zm.44,2.87a3.26,3.26,0,0,0-.34-1.28,1.79,1.79,0,0,0-1.68-.89,1.85,1.85,0,0,0-1.41.62,2.27,2.27,0,0,0-.6,1.55Z"/><path d="M386.74,639.78H388v1a2.9,2.9,0,0,1,.8-.77,2.58,2.58,0,0,1,1.47-.41,2.75,2.75,0,0,1,2.12.95,3.9,3.9,0,0,1,.87,2.72,4.16,4.16,0,0,1-1.26,3.42,2.79,2.79,0,0,1-1.85.65,2.52,2.52,0,0,1-1.39-.36,3.31,3.31,0,0,1-.74-.7V650h-1.23Zm4.63,5.74a3.44,3.44,0,0,0,.57-2.16,4,4,0,0,0-.25-1.5,1.86,1.86,0,0,0-3.51.07,5,5,0,0,0-.25,1.73,3.61,3.61,0,0,0,.25,1.44,1.86,1.86,0,0,0,3.19.42Z"/><path d="M398.63,642.63a.64.64,0,0,0,.56-.35,1,1,0,0,0,.08-.47,1,1,0,0,0-.44-.92,2.41,2.41,0,0,0-1.28-.28,1.63,1.63,0,0,0-1.37.52,1.77,1.77,0,0,0-.29.86h-1.15a2.14,2.14,0,0,1,.88-1.89,3.53,3.53,0,0,1,2-.53,3.92,3.92,0,0,1,2.09.49,1.66,1.66,0,0,1,.8,1.53v4.22a.57.57,0,0,0,.08.31.39.39,0,0,0,.33.11h.19l.21,0v.91a3.41,3.41,0,0,1-.43.1,2.37,2.37,0,0,1-.41,0,1,1,0,0,1-.93-.45,1.71,1.71,0,0,1-.21-.67,3.19,3.19,0,0,1-1.08.85,3.34,3.34,0,0,1-1.55.36,2.26,2.26,0,0,1-1.66-.62,2,2,0,0,1-.65-1.54,2,2,0,0,1,.64-1.58,3.06,3.06,0,0,1,1.66-.69ZM396,646a1.49,1.49,0,0,0,.93.31,2.84,2.84,0,0,0,1.26-.3,1.71,1.71,0,0,0,1-1.64v-1a2.12,2.12,0,0,1-.58.23,3.62,3.62,0,0,1-.7.14l-.74.1a2.81,2.81,0,0,0-1,.28,1.08,1.08,0,0,0-.57,1A1,1,0,0,0,396,646Z"/><path d="M402.59,639.74h1.17V641a2.81,2.81,0,0,1,.7-.9,1.86,1.86,0,0,1,1.3-.53h.11l.28,0v1.29l-.2,0h-.2a1.75,1.75,0,0,0-1.43.6,2.11,2.11,0,0,0-.5,1.38v4.21h-1.23Z"/><path d="M411.81,640a2.74,2.74,0,0,1,1.11.94,3.32,3.32,0,0,1,.49,1.3,8.58,8.58,0,0,1,.11,1.61h-5.33a3.19,3.19,0,0,0,.52,1.79,1.76,1.76,0,0,0,1.52.68,2,2,0,0,0,1.52-.64,2,2,0,0,0,.45-.86h1.21a2.48,2.48,0,0,1-.31.9,3.07,3.07,0,0,1-.61.81,2.91,2.91,0,0,1-1.37.74,4.37,4.37,0,0,1-1,.11,3.06,3.06,0,0,1-2.3-1,3.88,3.88,0,0,1-.95-2.79,4.25,4.25,0,0,1,.95-2.86,3.16,3.16,0,0,1,2.49-1.1A3.2,3.2,0,0,1,411.81,640Zm.44,2.87a3.26,3.26,0,0,0-.34-1.28,1.79,1.79,0,0,0-1.68-.89,1.85,1.85,0,0,0-1.41.62,2.27,2.27,0,0,0-.6,1.55Z"/><path d="M415.15,639.74h1.16v1a3.45,3.45,0,0,1,1.11-.92,2.84,2.84,0,0,1,1.29-.28,2.11,2.11,0,0,1,2.1,1.09,3.83,3.83,0,0,1,.3,1.7v4.7h-1.25v-4.62a2.37,2.37,0,0,0-.2-1.08,1.19,1.19,0,0,0-1.18-.68,2.34,2.34,0,0,0-.72.09,1.82,1.82,0,0,0-.89.6,1.72,1.72,0,0,0-.4.75,5.06,5.06,0,0,0-.09,1.1v3.84h-1.23Z"/><path d="M423.25,637.7h1.24v2h1.17v1h-1.17v4.78a.53.53,0,0,0,.26.51,1.12,1.12,0,0,0,.48.08h.19l.24,0v1a2.14,2.14,0,0,1-.44.08,3.84,3.84,0,0,1-.5,0,1.3,1.3,0,0,1-1.16-.44,1.9,1.9,0,0,1-.31-1.14v-4.85h-1v-1h1Z"/><path d="M427.69,644.77a1.72,1.72,0,0,0,.32.94,2,2,0,0,0,1.64.6,2.44,2.44,0,0,0,1.23-.3,1,1,0,0,0,.53-.92.8.8,0,0,0-.42-.72,5.67,5.67,0,0,0-1.07-.35l-1-.24a5.11,5.11,0,0,1-1.4-.52,1.54,1.54,0,0,1-.8-1.38,2.08,2.08,0,0,1,.75-1.68,3.06,3.06,0,0,1,2-.65,2.87,2.87,0,0,1,2.42,1,2.1,2.1,0,0,1,.45,1.33h-1.16a1.31,1.31,0,0,0-.3-.75,1.93,1.93,0,0,0-1.51-.49,1.83,1.83,0,0,0-1.08.27.83.83,0,0,0-.36.7.85.85,0,0,0,.48.76,2.53,2.53,0,0,0,.82.3l.83.2a6.77,6.77,0,0,1,1.81.62,1.66,1.66,0,0,1,.72,1.49,2.23,2.23,0,0,1-.75,1.68,3.21,3.21,0,0,1-2.29.72,3.07,3.07,0,0,1-2.34-.75,2.75,2.75,0,0,1-.74-1.83Z"/><path d="M29.2,637h7v1.23H30.56v3h4.93v1.2H30.56v4.57H29.2Z"/><path d="M37.57,639.74h1.16V641a2.87,2.87,0,0,1,.71-.9,1.82,1.82,0,0,1,1.29-.53h.12l.28,0v1.29l-.2,0h-.21a1.73,1.73,0,0,0-1.42.6,2.06,2.06,0,0,0-.5,1.38v4.21H37.57Z"/><path d="M42.26,637h1.26v1.4H42.26Zm0,2.76h1.26v7.29H42.26Z"/><path d="M50,640a2.77,2.77,0,0,1,1.1.94,3.17,3.17,0,0,1,.49,1.3,7.79,7.79,0,0,1,.11,1.61H46.35a3.11,3.11,0,0,0,.52,1.79,1.74,1.74,0,0,0,1.51.68,2,2,0,0,0,1.53-.64,2.29,2.29,0,0,0,.45-.86h1.21a2.51,2.51,0,0,1-.32.9,3.28,3.28,0,0,1-.6.81,2.89,2.89,0,0,1-1.38.74,4.25,4.25,0,0,1-1,.11,3.07,3.07,0,0,1-2.3-1,3.88,3.88,0,0,1-.94-2.79,4.2,4.2,0,0,1,.95-2.86,3.13,3.13,0,0,1,2.48-1.1A3.27,3.27,0,0,1,50,640Zm.44,2.87a3.25,3.25,0,0,0-.35-1.28,1.76,1.76,0,0,0-1.67-.89,1.85,1.85,0,0,0-1.41.62,2.33,2.33,0,0,0-.61,1.55Z"/><path d="M53.3,639.74h1.17v1a3.42,3.42,0,0,1,1.1-.92,2.9,2.9,0,0,1,1.29-.28A2.13,2.13,0,0,1,59,640.67a3.83,3.83,0,0,1,.3,1.7v4.7H58v-4.62a2.51,2.51,0,0,0-.2-1.08,1.21,1.21,0,0,0-1.19-.68,2.43,2.43,0,0,0-.72.09,1.86,1.86,0,0,0-.89.6,1.83,1.83,0,0,0-.4.75,5.06,5.06,0,0,0-.09,1.1v3.84H53.3Z"/><path d="M65.18,640a3.46,3.46,0,0,1,.74.72V637H67.1v10.08H66v-1a2.79,2.79,0,0,1-1,1,2.91,2.91,0,0,1-1.34.3,2.73,2.73,0,0,1-2.11-1,4,4,0,0,1-.89-2.74,4.74,4.74,0,0,1,.81-2.77,2.66,2.66,0,0,1,2.33-1.17A2.58,2.58,0,0,1,65.18,640Zm-2.75,5.49a1.73,1.73,0,0,0,1.59.79,1.66,1.66,0,0,0,1.4-.73,3.47,3.47,0,0,0,.55-2.11,3.13,3.13,0,0,0-.57-2.06,1.75,1.75,0,0,0-1.39-.66,1.81,1.81,0,0,0-1.5.71,3.28,3.28,0,0,0-.57,2.09A3.67,3.67,0,0,0,62.43,645.46Z"/><path d="M69.74,644.77a1.8,1.8,0,0,0,.32.94,2,2,0,0,0,1.64.6,2.44,2.44,0,0,0,1.23-.3,1,1,0,0,0,.53-.92.8.8,0,0,0-.42-.72A5.67,5.67,0,0,0,72,644l-1-.24a5.07,5.07,0,0,1-1.41-.52,1.56,1.56,0,0,1-.8-1.38,2.06,2.06,0,0,1,.76-1.68,3,3,0,0,1,2-.65,2.86,2.86,0,0,1,2.41,1,2.1,2.1,0,0,1,.45,1.33H73.27a1.31,1.31,0,0,0-.3-.75,1.92,1.92,0,0,0-1.5-.49,1.85,1.85,0,0,0-1.09.27.83.83,0,0,0-.36.7.85.85,0,0,0,.48.76,2.62,2.62,0,0,0,.82.3l.83.2a6.64,6.64,0,0,1,1.81.62,1.66,1.66,0,0,1,.72,1.49,2.23,2.23,0,0,1-.75,1.68,3.19,3.19,0,0,1-2.29.72,3.07,3.07,0,0,1-2.34-.75,2.75,2.75,0,0,1-.74-1.83Z"/><path d="M78.37,637h1l-3.19,10.05h-1Z"/><path d="M80.34,637h4.49a3,3,0,0,1,2.15.76,2.72,2.72,0,0,1,.82,2.12,3.07,3.07,0,0,1-.73,2.05,2.76,2.76,0,0,1-2.24.87H81.7v4.25H80.34Zm5.27,1.38a3,3,0,0,0-1.23-.21H81.7v3.48h2.68a2.56,2.56,0,0,0,1.48-.39,1.54,1.54,0,0,0,.57-1.37A1.52,1.52,0,0,0,85.61,638.4Z"/><path d="M94,640a2.74,2.74,0,0,1,1.11.94,3.32,3.32,0,0,1,.49,1.3,8.58,8.58,0,0,1,.11,1.61H90.35a3.19,3.19,0,0,0,.53,1.79,1.72,1.72,0,0,0,1.51.68,2,2,0,0,0,1.52-.64,2.18,2.18,0,0,0,.46-.86h1.21a2.72,2.72,0,0,1-.32.9,3.07,3.07,0,0,1-.61.81,2.91,2.91,0,0,1-1.37.74,4.37,4.37,0,0,1-1,.11,3.06,3.06,0,0,1-2.3-1,3.88,3.88,0,0,1-1-2.79,4.25,4.25,0,0,1,1-2.86,3.16,3.16,0,0,1,2.49-1.1A3.2,3.2,0,0,1,94,640Zm.44,2.87a3.26,3.26,0,0,0-.34-1.28,1.79,1.79,0,0,0-1.68-.89,1.85,1.85,0,0,0-1.41.62,2.27,2.27,0,0,0-.6,1.55Z"/><path d="M101.83,640a2.87,2.87,0,0,1,1.11.94,3.49,3.49,0,0,1,.49,1.3,8.8,8.8,0,0,1,.1,1.61H98.21a3.19,3.19,0,0,0,.52,1.79,1.75,1.75,0,0,0,1.51.68,2,2,0,0,0,1.53-.64,2.29,2.29,0,0,0,.45-.86h1.21a2.51,2.51,0,0,1-.32.9,3.28,3.28,0,0,1-.6.81,2.89,2.89,0,0,1-1.38.74,4.22,4.22,0,0,1-1,.11,3.08,3.08,0,0,1-2.31-1,3.88,3.88,0,0,1-.94-2.79,4.25,4.25,0,0,1,1-2.86,3.13,3.13,0,0,1,2.49-1.1A3.26,3.26,0,0,1,101.83,640Zm.44,2.87a3.25,3.25,0,0,0-.35-1.28,1.76,1.76,0,0,0-1.67-.89,1.85,1.85,0,0,0-1.41.62,2.27,2.27,0,0,0-.6,1.55Z"/><path d="M105.2,639.74h1.17V641a2.67,2.67,0,0,1,.7-.9,1.82,1.82,0,0,1,1.29-.53h.12l.28,0v1.29l-.2,0h-.21a1.74,1.74,0,0,0-1.42.6,2.06,2.06,0,0,0-.5,1.38v4.21H105.2Z"/><path d="M110.63,644.77a1.72,1.72,0,0,0,.31.94,2,2,0,0,0,1.65.6,2.42,2.42,0,0,0,1.22-.3,1,1,0,0,0,.53-.92.8.8,0,0,0-.42-.72,5.67,5.67,0,0,0-1.07-.35l-1-.24a5.2,5.2,0,0,1-1.41-.52,1.56,1.56,0,0,1-.8-1.38,2.06,2.06,0,0,1,.76-1.68,3,3,0,0,1,2-.65,2.86,2.86,0,0,1,2.41,1,2.17,2.17,0,0,1,.46,1.33h-1.17a1.31,1.31,0,0,0-.3-.75,1.92,1.92,0,0,0-1.5-.49,1.79,1.79,0,0,0-1.08.27.82.82,0,0,0-.37.7.85.85,0,0,0,.48.76,2.62,2.62,0,0,0,.82.3l.83.2a6.64,6.64,0,0,1,1.81.62,1.66,1.66,0,0,1,.72,1.49,2.23,2.23,0,0,1-.75,1.68,3.19,3.19,0,0,1-2.29.72,3.07,3.07,0,0,1-2.34-.75,2.8,2.8,0,0,1-.74-1.83Z"/><path d="M1102.79,637.74h7V639h-5.61v3h4.93v1.2h-4.93v4.56h-1.36Z"/><path d="M1115.64,640.66a2.75,2.75,0,0,1,1.11,1,3.18,3.18,0,0,1,.49,1.29,8.78,8.78,0,0,1,.11,1.62H1112a3.19,3.19,0,0,0,.53,1.79,1.73,1.73,0,0,0,1.51.67,1.9,1.9,0,0,0,1.52-.64,2.07,2.07,0,0,0,.46-.85h1.21a2.76,2.76,0,0,1-.32.89,3.35,3.35,0,0,1-.6.82,2.8,2.8,0,0,1-1.38.73,3.88,3.88,0,0,1-1,.11,3.07,3.07,0,0,1-2.3-1,3.89,3.89,0,0,1-.94-2.79,4.19,4.19,0,0,1,1-2.86,3.1,3.1,0,0,1,2.48-1.1A3.31,3.31,0,0,1,1115.64,640.66Zm.44,2.88a3.05,3.05,0,0,0-.34-1.28,1.78,1.78,0,0,0-1.68-.89,1.84,1.84,0,0,0-1.41.61,2.37,2.37,0,0,0-.6,1.56Z"/><path d="M1119,637.74h1.23v10H1119Z"/><path d="M1122.19,637.74h1.23v10h-1.23Z"/><path d="M1130.64,641.19a3.68,3.68,0,0,1,1,2.77,4.8,4.8,0,0,1-.85,2.93,3.09,3.09,0,0,1-2.66,1.15,3,3,0,0,1-2.38-1,4,4,0,0,1-.88-2.74,4.39,4.39,0,0,1,.93-2.94,3.1,3.1,0,0,1,2.5-1.09A3.26,3.26,0,0,1,1130.64,641.19Zm-.76,4.87a4.68,4.68,0,0,0,.45-2.06,3.68,3.68,0,0,0-.33-1.67,1.82,1.82,0,0,0-1.77-1,1.75,1.75,0,0,0-1.62.86,4,4,0,0,0-.51,2.08,3.49,3.49,0,0,0,.51,2,1.79,1.79,0,0,0,1.61.77A1.68,1.68,0,0,0,1129.88,646.06Z"/><path d="M1133.77,640.46l1.4,5.77,1.43-5.77H1138l1.44,5.74,1.5-5.74h1.23l-2.13,7.32h-1.28l-1.49-5.66-1.44,5.66h-1.28l-2.11-7.32Z"/><path d="M1079,655a1.88,1.88,0,0,1,1.66-.63h.24l.28,0v1.12h-.44c-.38,0-.6.09-.68.29a5.77,5.77,0,0,0-.11,1.47h1.23v1H1080v6.31h-1.22v-6.31h-1v-1h1v-1.14A2.18,2.18,0,0,1,1079,655Z"/><path d="M1087.71,658a3.68,3.68,0,0,1,1,2.77,4.8,4.8,0,0,1-.85,2.93,3.09,3.09,0,0,1-2.66,1.15,3,3,0,0,1-2.38-1,4,4,0,0,1-.88-2.74,4.39,4.39,0,0,1,.93-2.94,3.1,3.1,0,0,1,2.5-1.09A3.27,3.27,0,0,1,1087.71,658Zm-.76,4.87a4.68,4.68,0,0,0,.45-2.06,3.68,3.68,0,0,0-.33-1.67,1.82,1.82,0,0,0-1.77-1,1.75,1.75,0,0,0-1.62.86,4,4,0,0,0-.51,2.08,3.44,3.44,0,0,0,.51,1.94,1.78,1.78,0,0,0,1.61.78A1.69,1.69,0,0,0,1087,662.86Z"/><path d="M1091,662.29a1.8,1.8,0,0,0,.32.94,2,2,0,0,0,1.65.59,2.53,2.53,0,0,0,1.22-.29,1,1,0,0,0,.53-.92.78.78,0,0,0-.42-.72,5,5,0,0,0-1.07-.35l-1-.25a4.81,4.81,0,0,1-1.41-.51,1.58,1.58,0,0,1-.8-1.39,2.09,2.09,0,0,1,.76-1.68,3,3,0,0,1,2-.64,2.83,2.83,0,0,1,2.41,1,2.08,2.08,0,0,1,.45,1.33h-1.16a1.36,1.36,0,0,0-.3-.76,2,2,0,0,0-1.5-.48,1.93,1.93,0,0,0-1.09.26.85.85,0,0,0-.36.71.87.87,0,0,0,.48.76,3.25,3.25,0,0,0,.82.3l.83.2a6.3,6.3,0,0,1,1.81.62,1.64,1.64,0,0,1,.72,1.48,2.23,2.23,0,0,1-.75,1.69,3.19,3.19,0,0,1-2.29.71,3.07,3.07,0,0,1-2.34-.74,2.77,2.77,0,0,1-.74-1.83Z"/><path d="M1097.58,655.22h1.24v2H1100v1h-1.17V663a.53.53,0,0,0,.26.52,1.15,1.15,0,0,0,.48.07h.19l.24,0v1a3.12,3.12,0,0,1-.44.09,3.79,3.79,0,0,1-.49,0,1.33,1.33,0,0,1-1.17-.44,2,2,0,0,1-.31-1.15v-4.84h-1v-1h1Z"/><path d="M1105.81,657.46a2.75,2.75,0,0,1,1.11.95,3.18,3.18,0,0,1,.49,1.29,8.73,8.73,0,0,1,.11,1.61h-5.32a3.12,3.12,0,0,0,.52,1.8,1.73,1.73,0,0,0,1.51.67,1.94,1.94,0,0,0,1.53-.64,2.18,2.18,0,0,0,.45-.85h1.21a2.54,2.54,0,0,1-.32.89,2.94,2.94,0,0,1-.6.81,2.73,2.73,0,0,1-1.38.74,3.83,3.83,0,0,1-1,.11,3.07,3.07,0,0,1-2.3-1,3.89,3.89,0,0,1-.94-2.79,4.19,4.19,0,0,1,.95-2.86,3.1,3.1,0,0,1,2.48-1.1A3.31,3.31,0,0,1,1105.81,657.46Zm.45,2.88a3.2,3.2,0,0,0-.35-1.28,1.76,1.76,0,0,0-1.67-.89,1.86,1.86,0,0,0-1.41.61,2.33,2.33,0,0,0-.61,1.56Z"/><path d="M1109.18,657.26h1.17v1.27a2.73,2.73,0,0,1,.71-.9,1.78,1.78,0,0,1,1.29-.53h.11l.28,0v1.3l-.2,0h-.2a1.79,1.79,0,0,0-1.43.59,2.11,2.11,0,0,0-.5,1.38v4.21h-1.23Z"/><path d="M1122.68,657.65a2.88,2.88,0,0,1,.93,2.07h-1.2a2.25,2.25,0,0,0-.49-1.12,1.59,1.59,0,0,0-1.26-.45,1.73,1.73,0,0,0-1.68,1.15,4.5,4.5,0,0,0-.33,1.83,3.43,3.43,0,0,0,.47,1.85,1.81,1.81,0,0,0,2.67.29,2.53,2.53,0,0,0,.62-1.28h1.2a3.22,3.22,0,0,1-1,2.13,3.16,3.16,0,0,1-2.09.67,2.79,2.79,0,0,1-2.29-1,4.06,4.06,0,0,1-.86-2.63,4.4,4.4,0,0,1,.94-3,3,3,0,0,1,2.38-1.07A3.21,3.21,0,0,1,1122.68,657.65Z"/><path d="M1124.91,654.51h1.23v3.74a3.55,3.55,0,0,1,.79-.78,2.63,2.63,0,0,1,1.48-.39,2.21,2.21,0,0,1,2.16,1.12,3.72,3.72,0,0,1,.31,1.69v4.69h-1.27V660a2.66,2.66,0,0,0-.2-1.18,1.29,1.29,0,0,0-1.26-.61,2.12,2.12,0,0,0-1.39.53,2.54,2.54,0,0,0-.62,2v3.88h-1.23Z"/><path d="M1132.77,654.54H1134v1.4h-1.25Zm0,2.75H1134v7.29h-1.25Z"/><path d="M1136,654.54h1.23v10H1136Z"/><path d="M1143.15,657.49a2.86,2.86,0,0,1,.74.72v-3.7h1.18v10.07H1144v-1a2.64,2.64,0,0,1-1,1,2.88,2.88,0,0,1-1.34.3,2.7,2.7,0,0,1-2.11-1,4,4,0,0,1-.89-2.73,4.79,4.79,0,0,1,.81-2.78,2.66,2.66,0,0,1,2.33-1.17A2.56,2.56,0,0,1,1143.15,657.49ZM1140.4,663a1.75,1.75,0,0,0,1.59.79,1.67,1.67,0,0,0,1.4-.74,3.43,3.43,0,0,0,.55-2.1,3.19,3.19,0,0,0-.56-2.06,1.79,1.79,0,0,0-1.4-.66,1.82,1.82,0,0,0-1.5.71,3.28,3.28,0,0,0-.57,2.09A3.67,3.67,0,0,0,1140.4,663Z"/><path d="M1147,657.26h1.17v1.27a2.67,2.67,0,0,1,.7-.9,1.8,1.8,0,0,1,1.29-.53h.12l.28,0v1.3l-.2,0h-.2a1.78,1.78,0,0,0-1.43.59,2.06,2.06,0,0,0-.5,1.38v4.21H1147Z"/><path d="M1156.24,657.46a2.9,2.9,0,0,1,1.11.95,3.33,3.33,0,0,1,.48,1.29,7.92,7.92,0,0,1,.11,1.61h-5.32a3.12,3.12,0,0,0,.52,1.8,1.74,1.74,0,0,0,1.51.67,1.94,1.94,0,0,0,1.53-.64,2.18,2.18,0,0,0,.45-.85h1.21a2.54,2.54,0,0,1-.32.89,2.94,2.94,0,0,1-.6.81,2.73,2.73,0,0,1-1.38.74,3.75,3.75,0,0,1-1,.11,3.07,3.07,0,0,1-2.31-1,3.89,3.89,0,0,1-.94-2.79,4.24,4.24,0,0,1,1-2.86,3.1,3.1,0,0,1,2.49-1.1A3.38,3.38,0,0,1,1156.24,657.46Zm.44,2.88a3.2,3.2,0,0,0-.35-1.28,1.76,1.76,0,0,0-1.67-.89,1.88,1.88,0,0,0-1.41.61,2.32,2.32,0,0,0-.6,1.56Z"/><path d="M1159.57,657.26h1.17v1a3.18,3.18,0,0,1,1.1-.92,2.9,2.9,0,0,1,1.29-.28,2.14,2.14,0,0,1,2.11,1.08,3.91,3.91,0,0,1,.3,1.71v4.69h-1.25V660a2.51,2.51,0,0,0-.2-1.08,1.2,1.2,0,0,0-1.19-.68,2.47,2.47,0,0,0-.72.08,1.91,1.91,0,0,0-.89.6,2.12,2.12,0,0,0-.4.75,5.23,5.23,0,0,0-.09,1.11v3.83h-1.23Z"/><path d="M543,846v1.2H539.6v8.85h-1.38v-8.85h-3.38V846Z"/><path d="M547.11,849a2.87,2.87,0,0,1,1.11.94,3.49,3.49,0,0,1,.49,1.3,8.8,8.8,0,0,1,.1,1.61h-5.32a3.19,3.19,0,0,0,.52,1.79,1.75,1.75,0,0,0,1.51.68,2,2,0,0,0,1.53-.64,2.29,2.29,0,0,0,.45-.86h1.21a2.51,2.51,0,0,1-.32.9,3.28,3.28,0,0,1-.6.81,2.91,2.91,0,0,1-1.37.74,4.37,4.37,0,0,1-1,.11,3.08,3.08,0,0,1-2.31-1,3.88,3.88,0,0,1-.94-2.79,4.25,4.25,0,0,1,1-2.86,3.15,3.15,0,0,1,2.49-1.1A3.26,3.26,0,0,1,547.11,849Zm.44,2.87a3.09,3.09,0,0,0-.35-1.28,1.76,1.76,0,0,0-1.67-.89,1.85,1.85,0,0,0-1.41.62,2.27,2.27,0,0,0-.6,1.55Z"/><path d="M550.44,848.74h1.22v1a4.06,4.06,0,0,1,.79-.78,2.39,2.39,0,0,1,1.38-.42,2.14,2.14,0,0,1,1.41.43,2.29,2.29,0,0,1,.55.73,2.58,2.58,0,0,1,1-.88,2.83,2.83,0,0,1,1.25-.28,2,2,0,0,1,2,1.07,3.47,3.47,0,0,1,.28,1.54v4.88H559V851a1.22,1.22,0,0,0-.37-1,1.45,1.45,0,0,0-.89-.27,1.76,1.76,0,0,0-1.25.49,2.11,2.11,0,0,0-.52,1.62v4.26h-1.25v-4.78a2.47,2.47,0,0,0-.18-1.09,1.1,1.1,0,0,0-1-.51,1.79,1.79,0,0,0-1.26.54,2.6,2.6,0,0,0-.58,1.95v3.89h-1.23Z"/><path d="M562.07,848.78h1.21v1a2.9,2.9,0,0,1,.8-.77,2.58,2.58,0,0,1,1.47-.41,2.75,2.75,0,0,1,2.12.95,3.9,3.9,0,0,1,.87,2.72,4.16,4.16,0,0,1-1.26,3.42,2.79,2.79,0,0,1-1.85.65A2.52,2.52,0,0,1,564,856a3.31,3.31,0,0,1-.74-.7V859h-1.23Zm4.63,5.74a3.44,3.44,0,0,0,.58-2.16,4,4,0,0,0-.26-1.5,1.86,1.86,0,0,0-3.51.07,5,5,0,0,0-.25,1.73,3.61,3.61,0,0,0,.25,1.44,1.86,1.86,0,0,0,3.19.42Z"/><path d="M575.34,849.47a3.74,3.74,0,0,1,1,2.78,4.77,4.77,0,0,1-.86,2.92,3.08,3.08,0,0,1-2.65,1.16,3,3,0,0,1-2.38-1,4,4,0,0,1-.89-2.74,4.39,4.39,0,0,1,.93-2.94,3.15,3.15,0,0,1,2.5-1.09A3.32,3.32,0,0,1,575.34,849.47Zm-.77,4.87a4.65,4.65,0,0,0,.45-2.06,3.74,3.74,0,0,0-.32-1.66,1.83,1.83,0,0,0-1.77-1,1.74,1.74,0,0,0-1.63.86,4.07,4.07,0,0,0-.5,2.07,3.57,3.57,0,0,0,.5,2,1.79,1.79,0,0,0,1.61.78A1.67,1.67,0,0,0,574.57,854.34Z"/><path d="M577.92,848.74h1.17V850a2.73,2.73,0,0,1,.71-.9,1.82,1.82,0,0,1,1.29-.53h.11l.28,0v1.29l-.2,0h-.2a1.75,1.75,0,0,0-1.43.6,2.11,2.11,0,0,0-.5,1.38v4.21h-1.23Z"/><path d="M586.54,851.63a.64.64,0,0,0,.57-.35,1.24,1.24,0,0,0-.36-1.39,2.41,2.41,0,0,0-1.28-.28,1.63,1.63,0,0,0-1.37.52,1.67,1.67,0,0,0-.29.86h-1.15a2.11,2.11,0,0,1,.88-1.89,3.52,3.52,0,0,1,2-.53,4,4,0,0,1,2.1.49,1.68,1.68,0,0,1,.8,1.53v4.22a.57.57,0,0,0,.08.31.39.39,0,0,0,.33.11H589a1.66,1.66,0,0,0,.22,0v.91a3.41,3.41,0,0,1-.43.1,2.37,2.37,0,0,1-.41,0,1,1,0,0,1-.93-.45,1.71,1.71,0,0,1-.21-.67,3.19,3.19,0,0,1-1.08.85,3.37,3.37,0,0,1-1.55.36,2.29,2.29,0,0,1-1.67-.62,2,2,0,0,1-.64-1.54,2,2,0,0,1,.63-1.58,3.1,3.1,0,0,1,1.67-.69ZM584,855a1.49,1.49,0,0,0,.93.31,2.77,2.77,0,0,0,1.25-.3,1.7,1.7,0,0,0,1-1.64v-1a2.12,2.12,0,0,1-.58.23,3.62,3.62,0,0,1-.7.14l-.74.1a2.87,2.87,0,0,0-1,.28,1.08,1.08,0,0,0-.57,1A1,1,0,0,0,584,855Z"/><path d="M590.51,848.74h1.17V850a2.81,2.81,0,0,1,.7-.9,1.86,1.86,0,0,1,1.3-.53h.11l.28,0v1.29l-.2,0h-.2a1.75,1.75,0,0,0-1.43.6,2.11,2.11,0,0,0-.5,1.38v4.21h-1.23Z"/><path d="M599.79,848.74h1.36c-.18.47-.56,1.55-1.16,3.22-.45,1.26-.82,2.28-1.12,3.08a21.14,21.14,0,0,1-1.5,3.41,1.73,1.73,0,0,1-1.51.62l-.4,0-.34-.08v-1.12a3.45,3.45,0,0,0,.46.11l.26,0a1,1,0,0,0,.5-.11,1.44,1.44,0,0,0,.27-.28s.1-.22.24-.56.25-.58.31-.75l-2.71-7.54h1.4l2,6Z"/><path d="M610.31,849a3.32,3.32,0,0,1,.71.7v-.93h1.13v6.66a4.82,4.82,0,0,1-.41,2.2,2.92,2.92,0,0,1-2.88,1.49,3.44,3.44,0,0,1-2-.53A2,2,0,0,1,606,857h1.25a1.42,1.42,0,0,0,.35.76,2.24,2.24,0,0,0,3.15-.58,5.83,5.83,0,0,0,.24-2.1,2.42,2.42,0,0,1-.89.83,3,3,0,0,1-1.37.27,2.91,2.91,0,0,1-2.07-.84,3.72,3.72,0,0,1-.89-2.79,4.2,4.2,0,0,1,.9-2.87,2.76,2.76,0,0,1,2.16-1A2.69,2.69,0,0,1,610.31,849Zm.15,1.32a1.88,1.88,0,0,0-3.19.56,4.73,4.73,0,0,0-.25,1.7,3,3,0,0,0,.5,1.88,1.61,1.61,0,0,0,1.34.65,1.89,1.89,0,0,0,1.86-1.2,3.82,3.82,0,0,0,.3-1.57A3.06,3.06,0,0,0,610.46,850.36Z"/><path d="M615.32,848.74v4.87a2,2,0,0,0,.18.91,1.2,1.2,0,0,0,1.19.66,1.69,1.69,0,0,0,1.7-1.15,4.53,4.53,0,0,0,.25-1.69v-3.6h1.23v7.33h-1.16V855a2.47,2.47,0,0,1-.58.7,2.55,2.55,0,0,1-1.68.57,2.14,2.14,0,0,1-2.09-1,3.2,3.2,0,0,1-.3-1.5v-5Z"/><path d="M625.87,851.63a.64.64,0,0,0,.57-.35,1,1,0,0,0,.08-.47,1,1,0,0,0-.44-.92,2.41,2.41,0,0,0-1.28-.28,1.63,1.63,0,0,0-1.37.52,1.77,1.77,0,0,0-.29.86H622a2.11,2.11,0,0,1,.88-1.89,3.52,3.52,0,0,1,2-.53,4,4,0,0,1,2.1.49,1.68,1.68,0,0,1,.8,1.53v4.22a.57.57,0,0,0,.08.31.39.39,0,0,0,.33.11h.18a1.66,1.66,0,0,0,.22,0v.91a3.41,3.41,0,0,1-.43.1,2.37,2.37,0,0,1-.41,0,1,1,0,0,1-.93-.45,1.71,1.71,0,0,1-.21-.67,3.19,3.19,0,0,1-1.08.85,3.37,3.37,0,0,1-1.55.36,2.3,2.3,0,0,1-1.67-.62,2,2,0,0,1-.64-1.54,2,2,0,0,1,.63-1.58,3.1,3.1,0,0,1,1.67-.69ZM623.28,855a1.49,1.49,0,0,0,.93.31,2.77,2.77,0,0,0,1.25-.3,1.7,1.7,0,0,0,1-1.64v-1a2.12,2.12,0,0,1-.58.23,3.62,3.62,0,0,1-.7.14l-.74.1a2.87,2.87,0,0,0-1,.28,1.08,1.08,0,0,0-.57,1A1,1,0,0,0,623.28,855Z"/><path d="M629.84,848.74H631V850a2.81,2.81,0,0,1,.7-.9,1.86,1.86,0,0,1,1.3-.53h.11l.28,0v1.29l-.2,0H633a1.75,1.75,0,0,0-1.43.6,2.11,2.11,0,0,0-.5,1.38v4.21h-1.23Z"/><path d="M638.56,849a3.24,3.24,0,0,1,.74.72V846h1.19v10.08h-1.11v-1a2.79,2.79,0,0,1-1,1,2.88,2.88,0,0,1-1.34.3,2.74,2.74,0,0,1-2.11-1,4.07,4.07,0,0,1-.89-2.74,4.74,4.74,0,0,1,.81-2.77,2.68,2.68,0,0,1,2.33-1.17A2.55,2.55,0,0,1,638.56,849Zm-2.75,5.49a1.76,1.76,0,0,0,1.6.79,1.66,1.66,0,0,0,1.39-.73,3.47,3.47,0,0,0,.55-2.11,3.19,3.19,0,0,0-.56-2.06,1.77,1.77,0,0,0-1.4-.66,1.84,1.84,0,0,0-1.5.71,3.28,3.28,0,0,0-.57,2.09A3.67,3.67,0,0,0,635.81,854.46Z"/><path d="M642.39,846h1.26v1.4h-1.26Zm0,2.76h1.26v7.29h-1.26Z"/><path d="M649.5,851.63a.67.67,0,0,0,.57-.35,1.17,1.17,0,0,0,.08-.47,1,1,0,0,0-.45-.92,2.38,2.38,0,0,0-1.28-.28,1.61,1.61,0,0,0-1.36.52,1.77,1.77,0,0,0-.3.86h-1.14a2.11,2.11,0,0,1,.87-1.89,3.58,3.58,0,0,1,2-.53,4,4,0,0,1,2.1.49,1.67,1.67,0,0,1,.79,1.53v4.22a.57.57,0,0,0,.08.31.42.42,0,0,0,.33.11h.19l.22,0v.91a3.47,3.47,0,0,1-.44.1,2.37,2.37,0,0,1-.41,0,1,1,0,0,1-.92-.45,1.71,1.71,0,0,1-.21-.67,3.29,3.29,0,0,1-1.08.85,3.38,3.38,0,0,1-1.56.36,2.28,2.28,0,0,1-1.66-.62,2,2,0,0,1-.65-1.54,2,2,0,0,1,.64-1.58,3.07,3.07,0,0,1,1.67-.69ZM646.91,855a1.48,1.48,0,0,0,.92.31,2.84,2.84,0,0,0,1.26-.3,1.71,1.71,0,0,0,1-1.64v-1a2.12,2.12,0,0,1-.58.23,3.38,3.38,0,0,1-.69.14l-.75.1a2.81,2.81,0,0,0-1,.28,1.08,1.08,0,0,0-.57,1A1,1,0,0,0,646.91,855Z"/><path d="M653.43,848.74h1.17v1a3.42,3.42,0,0,1,1.1-.92,2.9,2.9,0,0,1,1.29-.28,2.13,2.13,0,0,1,2.11,1.09,3.83,3.83,0,0,1,.3,1.7v4.7h-1.25v-4.62a2.51,2.51,0,0,0-.2-1.08,1.21,1.21,0,0,0-1.19-.68,2.43,2.43,0,0,0-.72.09,1.91,1.91,0,0,0-.89.6,2,2,0,0,0-.4.75,5.06,5.06,0,0,0-.09,1.1v3.84h-1.23Z"/><path d="M662,853.77a1.8,1.8,0,0,0,.31.94,2,2,0,0,0,1.65.6,2.49,2.49,0,0,0,1.23-.3,1,1,0,0,0,.53-.92.79.79,0,0,0-.43-.72,5.41,5.41,0,0,0-1.07-.35l-1-.24a5.11,5.11,0,0,1-1.4-.52,1.55,1.55,0,0,1-.81-1.38,2.06,2.06,0,0,1,.76-1.68,3,3,0,0,1,2-.65,2.88,2.88,0,0,1,2.42,1,2.1,2.1,0,0,1,.45,1.33h-1.16a1.46,1.46,0,0,0-.3-.75,1.94,1.94,0,0,0-1.51-.49,1.79,1.79,0,0,0-1.08.27.82.82,0,0,0-.37.7.85.85,0,0,0,.49.76,2.44,2.44,0,0,0,.82.3l.83.2a6.77,6.77,0,0,1,1.81.62A1.67,1.67,0,0,1,667,854a2.23,2.23,0,0,1-.75,1.68,3.18,3.18,0,0,1-2.28.72,3.08,3.08,0,0,1-2.35-.75,2.74,2.74,0,0,1-.73-1.83Z"/><path d="M546.18,407h4.34a2.9,2.9,0,0,1,2.53,1.06,2.42,2.42,0,0,1,.44,1.43,2.24,2.24,0,0,1-.54,1.56,2.65,2.65,0,0,1-.81.59,3.44,3.44,0,0,1,1.16.66,2.41,2.41,0,0,1,.68,1.81,2.78,2.78,0,0,1-.62,1.76,3.47,3.47,0,0,1-2.91,1.18h-4.27Zm3.84,4.25a3.08,3.08,0,0,0,1.35-.24,1.37,1.37,0,0,0,.76-1.35,1.31,1.31,0,0,0-.81-1.33,3.58,3.58,0,0,0-1.35-.19h-2.45v3.11Zm.46,4.63a2.11,2.11,0,0,0,1.8-.72,1.87,1.87,0,0,0,.33-1.11,1.47,1.47,0,0,0-1-1.49,3.8,3.8,0,0,0-1.39-.21h-2.72v3.53Z"/><path d="M555.46,407h1.25v1.4h-1.25Zm0,2.76h1.25v7.29h-1.25Z"/><path d="M564,410.48a3.7,3.7,0,0,1,1,2.77,4.77,4.77,0,0,1-.86,2.92,3.08,3.08,0,0,1-2.65,1.16,3,3,0,0,1-2.39-1,4.08,4.08,0,0,1-.88-2.74,4.35,4.35,0,0,1,.93-2.93,3.11,3.11,0,0,1,2.5-1.1A3.29,3.29,0,0,1,564,410.48Zm-.77,4.86a4.65,4.65,0,0,0,.45-2.06,3.74,3.74,0,0,0-.32-1.66,1.83,1.83,0,0,0-1.77-1,1.74,1.74,0,0,0-1.63.86,4.07,4.07,0,0,0-.5,2.07,3.57,3.57,0,0,0,.5,1.95,1.79,1.79,0,0,0,1.61.78A1.67,1.67,0,0,0,563.18,415.34Z"/><path d="M566.53,407h1.23v10.05h-1.23Z"/><path d="M575,410.48a3.66,3.66,0,0,1,1,2.77,4.77,4.77,0,0,1-.85,2.92,3.1,3.1,0,0,1-2.66,1.16,3,3,0,0,1-2.38-1,4,4,0,0,1-.88-2.74,4.35,4.35,0,0,1,.93-2.93,3.11,3.11,0,0,1,2.5-1.1A3.28,3.28,0,0,1,575,410.48Zm-.76,4.86a4.65,4.65,0,0,0,.45-2.06,3.6,3.6,0,0,0-.33-1.66,1.81,1.81,0,0,0-1.77-1,1.73,1.73,0,0,0-1.62.86,4,4,0,0,0-.51,2.07,3.49,3.49,0,0,0,.51,1.95,1.78,1.78,0,0,0,1.61.78A1.68,1.68,0,0,0,574.22,415.34Z"/><path d="M581.6,410a3.32,3.32,0,0,1,.71.7v-.93h1.14v6.66a5,5,0,0,1-.41,2.2,2.92,2.92,0,0,1-2.88,1.49,3.5,3.5,0,0,1-2-.53,2.08,2.08,0,0,1-.9-1.65h1.25a1.36,1.36,0,0,0,.36.75,1.75,1.75,0,0,0,1.3.41,1.81,1.81,0,0,0,1.85-1,5.66,5.66,0,0,0,.23-2.1,2.39,2.39,0,0,1-.88.83,3,3,0,0,1-1.37.27,2.91,2.91,0,0,1-2.07-.84,3.68,3.68,0,0,1-.89-2.79,4.25,4.25,0,0,1,.89-2.87,2.78,2.78,0,0,1,2.17-1A2.64,2.64,0,0,1,581.6,410Zm.15,1.32a1.88,1.88,0,0,0-3.19.56,5,5,0,0,0-.25,1.7,3,3,0,0,0,.5,1.88,1.63,1.63,0,0,0,1.35.65A1.88,1.88,0,0,0,582,415a3.84,3.84,0,0,0,.3-1.58A3,3,0,0,0,581.75,411.36Z"/><path d="M585.39,407h1.25v1.4h-1.25Zm0,2.76h1.25v7.29h-1.25Z"/><path d="M593.41,410.13a3,3,0,0,1,.93,2.08h-1.2a2.18,2.18,0,0,0-.5-1.13,1.56,1.56,0,0,0-1.25-.45,1.74,1.74,0,0,0-1.68,1.15,4.55,4.55,0,0,0-.33,1.84,3.46,3.46,0,0,0,.47,1.85,1.79,1.79,0,0,0,2.67.28,2.49,2.49,0,0,0,.62-1.27h1.2a2.91,2.91,0,0,1-3.12,2.8,2.8,2.8,0,0,1-2.29-1,4,4,0,0,1-.86-2.62,4.37,4.37,0,0,1,.94-3,3,3,0,0,1,2.38-1.08A3.21,3.21,0,0,1,593.41,410.13Z"/><path d="M599.56,412.64a.67.67,0,0,0,.57-.36,1.24,1.24,0,0,0-.36-1.39,2.41,2.41,0,0,0-1.28-.28,1.63,1.63,0,0,0-1.37.52,1.67,1.67,0,0,0-.29.86h-1.15a2.11,2.11,0,0,1,.88-1.89,3.52,3.52,0,0,1,2-.53,4,4,0,0,1,2.1.49,1.68,1.68,0,0,1,.8,1.53v4.22a.57.57,0,0,0,.08.31.39.39,0,0,0,.33.11H602l.22,0v.91a3.86,3.86,0,0,1-.43.1,2.37,2.37,0,0,1-.41,0,1,1,0,0,1-.93-.45,1.71,1.71,0,0,1-.21-.67,3.19,3.19,0,0,1-1.08.85,3.37,3.37,0,0,1-1.55.36,2.29,2.29,0,0,1-1.67-.62,2,2,0,0,1-.64-1.54,2,2,0,0,1,.63-1.58,3.1,3.1,0,0,1,1.67-.69ZM597,416a1.49,1.49,0,0,0,.93.31,2.77,2.77,0,0,0,1.25-.3,1.7,1.7,0,0,0,1-1.64v-1a2.12,2.12,0,0,1-.58.23,4.56,4.56,0,0,1-.7.14l-.74.1a2.87,2.87,0,0,0-1,.28,1.08,1.08,0,0,0-.57,1A1,1,0,0,0,597,416Z"/><path d="M603.53,407h1.23v10.05h-1.23Z"/><path d="M610.53,409.78h1.21v1a2.9,2.9,0,0,1,.8-.77,2.58,2.58,0,0,1,1.47-.41,2.75,2.75,0,0,1,2.12.95,3.9,3.9,0,0,1,.87,2.72,4.16,4.16,0,0,1-1.26,3.42,2.79,2.79,0,0,1-1.85.65,2.52,2.52,0,0,1-1.39-.36,3.31,3.31,0,0,1-.74-.7V420h-1.23Zm4.63,5.74a3.44,3.44,0,0,0,.58-2.16,4,4,0,0,0-.26-1.5,1.86,1.86,0,0,0-3.51.07,5,5,0,0,0-.25,1.73,3.61,3.61,0,0,0,.25,1.44,1.86,1.86,0,0,0,3.19.42Z"/><path d="M622.42,412.64a.66.66,0,0,0,.56-.36,1,1,0,0,0,.08-.47,1,1,0,0,0-.44-.92,2.41,2.41,0,0,0-1.28-.28,1.63,1.63,0,0,0-1.37.52,1.77,1.77,0,0,0-.29.86h-1.15a2.14,2.14,0,0,1,.88-1.89,3.53,3.53,0,0,1,2-.53,3.92,3.92,0,0,1,2.09.49,1.66,1.66,0,0,1,.8,1.53v4.22a.57.57,0,0,0,.08.31.39.39,0,0,0,.33.11h.19l.21,0v.91a3.41,3.41,0,0,1-.43.1,2.37,2.37,0,0,1-.41,0,1,1,0,0,1-.93-.45,1.71,1.71,0,0,1-.21-.67A3.19,3.19,0,0,1,622,417a3.34,3.34,0,0,1-1.55.36,2.26,2.26,0,0,1-1.66-.62,2,2,0,0,1-.65-1.54,2,2,0,0,1,.64-1.58,3.06,3.06,0,0,1,1.66-.69Zm-2.6,3.32a1.49,1.49,0,0,0,.93.31A2.84,2.84,0,0,0,622,416a1.71,1.71,0,0,0,1-1.64v-1a2.12,2.12,0,0,1-.58.23,4.56,4.56,0,0,1-.7.14l-.74.1a2.81,2.81,0,0,0-1,.28,1.06,1.06,0,0,0-.57,1A1,1,0,0,0,619.82,416Z"/><path d="M626.38,409.74h1.17V411a2.73,2.73,0,0,1,.71-.9,1.82,1.82,0,0,1,1.29-.53h.11l.28,0v1.3l-.2,0h-.2a1.75,1.75,0,0,0-1.43.6,2.1,2.1,0,0,0-.5,1.37v4.22h-1.23Z"/><path d="M635.6,410a2.74,2.74,0,0,1,1.11.94,3.32,3.32,0,0,1,.49,1.3,8.58,8.58,0,0,1,.11,1.61H632a3.19,3.19,0,0,0,.52,1.79,1.76,1.76,0,0,0,1.52.68,2,2,0,0,0,1.52-.64,2.18,2.18,0,0,0,.46-.86h1.21a2.72,2.72,0,0,1-.32.9,3.28,3.28,0,0,1-.6.81,2.94,2.94,0,0,1-1.38.74,4.37,4.37,0,0,1-1,.11,3.06,3.06,0,0,1-2.3-1,3.87,3.87,0,0,1-1-2.78,4.26,4.26,0,0,1,1-2.87,3.16,3.16,0,0,1,2.49-1.1A3.2,3.2,0,0,1,635.6,410Zm.44,2.87a3.26,3.26,0,0,0-.34-1.28,1.79,1.79,0,0,0-1.68-.89,1.85,1.85,0,0,0-1.41.62,2.27,2.27,0,0,0-.6,1.55Z"/><path d="M638.94,409.74h1.17v1a3.32,3.32,0,0,1,1.1-.92,2.84,2.84,0,0,1,1.29-.28,2.11,2.11,0,0,1,2.1,1.09,3.83,3.83,0,0,1,.3,1.7v4.7h-1.25v-4.62a2.55,2.55,0,0,0-.19-1.08,1.21,1.21,0,0,0-1.19-.68,2.34,2.34,0,0,0-.72.09,1.82,1.82,0,0,0-.89.6,1.72,1.72,0,0,0-.4.75,5.06,5.06,0,0,0-.09,1.1v3.84h-1.23Z"/><path d="M647,407.7h1.24v2h1.17v1h-1.17v4.78a.53.53,0,0,0,.26.51,1.12,1.12,0,0,0,.48.08h.19l.24,0v1a2.14,2.14,0,0,1-.44.08,3.79,3.79,0,0,1-.49,0,1.31,1.31,0,0,1-1.17-.44,1.9,1.9,0,0,1-.31-1.14v-4.85h-1v-1h1Z"/><path d="M651.48,414.77a1.72,1.72,0,0,0,.32.94,2,2,0,0,0,1.64.6,2.44,2.44,0,0,0,1.23-.3,1,1,0,0,0,.53-.92.8.8,0,0,0-.42-.72,5.67,5.67,0,0,0-1.07-.35l-1-.24a5.11,5.11,0,0,1-1.4-.52,1.53,1.53,0,0,1-.8-1.38,2.08,2.08,0,0,1,.75-1.68,3.06,3.06,0,0,1,2-.65,2.87,2.87,0,0,1,2.42,1,2.1,2.1,0,0,1,.45,1.33H655a1.31,1.31,0,0,0-.3-.75,1.92,1.92,0,0,0-1.5-.49,1.85,1.85,0,0,0-1.09.27.83.83,0,0,0-.36.7.85.85,0,0,0,.48.76,2.62,2.62,0,0,0,.82.3l.83.2a6.77,6.77,0,0,1,1.81.62,1.66,1.66,0,0,1,.72,1.49,2.26,2.26,0,0,1-.75,1.69,3.25,3.25,0,0,1-2.29.71,3.07,3.07,0,0,1-2.34-.75,2.75,2.75,0,0,1-.74-1.83Z"/><path d="M547.18,264.83a2.85,2.85,0,0,0,.38,1.38,2.53,2.53,0,0,0,2.3,1,3.9,3.9,0,0,0,1.35-.22,1.54,1.54,0,0,0,1.17-1.51,1.33,1.33,0,0,0-.5-1.17,4.82,4.82,0,0,0-1.58-.6L549,263.4a5.94,5.94,0,0,1-1.83-.66,2.12,2.12,0,0,1-.93-1.88,3,3,0,0,1,.91-2.22,3.6,3.6,0,0,1,2.58-.87,4.41,4.41,0,0,1,2.62.76,2.8,2.8,0,0,1,1.07,2.44h-1.28a2.48,2.48,0,0,0-.42-1.24,2.39,2.39,0,0,0-2-.78,2.3,2.3,0,0,0-1.66.5,1.61,1.61,0,0,0-.51,1.18,1.16,1.16,0,0,0,.6,1.08,8.94,8.94,0,0,0,1.77.55l1.36.32a4.05,4.05,0,0,1,1.53.63,2.43,2.43,0,0,1,.92,2.05,2.56,2.56,0,0,1-1.18,2.38,5.2,5.2,0,0,1-2.75.72,4,4,0,0,1-2.86-1,3.23,3.23,0,0,1-1-2.57Z"/><path d="M555.78,258.7H557v2h1.17v1H557v4.78a.53.53,0,0,0,.26.51,1.12,1.12,0,0,0,.48.08H558l.24,0v1a2.14,2.14,0,0,1-.44.08,3.84,3.84,0,0,1-.5,0,1.33,1.33,0,0,1-1.17-.44,2,2,0,0,1-.3-1.14v-4.85h-1v-1h1Z"/><path d="M563.41,263.64a.67.67,0,0,0,.57-.36,1.24,1.24,0,0,0-.36-1.39,2.41,2.41,0,0,0-1.28-.28,1.63,1.63,0,0,0-1.37.52,1.77,1.77,0,0,0-.29.86h-1.15a2.11,2.11,0,0,1,.88-1.89,3.52,3.52,0,0,1,2-.53,4,4,0,0,1,2.1.49,1.68,1.68,0,0,1,.8,1.53v4.22a.57.57,0,0,0,.08.31.39.39,0,0,0,.33.11h.18l.22,0v.91a3.41,3.41,0,0,1-.43.1,2.37,2.37,0,0,1-.41,0,1,1,0,0,1-.93-.45,1.71,1.71,0,0,1-.21-.67A3.19,3.19,0,0,1,563,268a3.37,3.37,0,0,1-1.55.36,2.3,2.3,0,0,1-1.67-.62,2,2,0,0,1-.64-1.54,2,2,0,0,1,.63-1.58,3.1,3.1,0,0,1,1.67-.69ZM560.82,267a1.49,1.49,0,0,0,.93.31A2.77,2.77,0,0,0,563,267a1.7,1.7,0,0,0,1-1.64v-1a2.12,2.12,0,0,1-.58.23,4.56,4.56,0,0,1-.7.14l-.74.1a2.87,2.87,0,0,0-1,.28,1.08,1.08,0,0,0-.57,1A1,1,0,0,0,560.82,267Z"/><path d="M567.59,258.7h1.25v2H570v1h-1.17v4.78a.51.51,0,0,0,.26.51,1,1,0,0,0,.47.08h.2l.24,0v1a2.23,2.23,0,0,1-.45.08,3.68,3.68,0,0,1-.49,0,1.31,1.31,0,0,1-1.17-.44,1.9,1.9,0,0,1-.31-1.14v-4.85h-1v-1h1Z"/><path d="M575.83,261a2.87,2.87,0,0,1,1.11.94,3.31,3.31,0,0,1,.48,1.3,7.79,7.79,0,0,1,.11,1.61h-5.32a3.11,3.11,0,0,0,.52,1.79,1.75,1.75,0,0,0,1.51.68,2,2,0,0,0,1.53-.64,2.29,2.29,0,0,0,.45-.86h1.21a2.51,2.51,0,0,1-.32.9,3.28,3.28,0,0,1-.6.81,2.89,2.89,0,0,1-1.38.74,4.22,4.22,0,0,1-1,.11,3.08,3.08,0,0,1-2.31-1,3.87,3.87,0,0,1-.94-2.78,4.26,4.26,0,0,1,1-2.87,3.13,3.13,0,0,1,2.49-1.1A3.26,3.26,0,0,1,575.83,261Zm.44,2.87a3.25,3.25,0,0,0-.35-1.28,1.76,1.76,0,0,0-1.67-.89,1.85,1.85,0,0,0-1.41.62,2.27,2.27,0,0,0-.6,1.55Z"/><path d="M587.19,261a3.32,3.32,0,0,1,.71.7v-.93H589v6.66a5,5,0,0,1-.4,2.2,2.93,2.93,0,0,1-2.89,1.49,3.49,3.49,0,0,1-2-.53,2.08,2.08,0,0,1-.9-1.65h1.25a1.36,1.36,0,0,0,.36.75,1.75,1.75,0,0,0,1.3.41,1.79,1.79,0,0,0,1.84-1,5.4,5.4,0,0,0,.24-2.1,2.39,2.39,0,0,1-.88.83,3.2,3.2,0,0,1-3.45-.57,3.72,3.72,0,0,1-.88-2.79,4.2,4.2,0,0,1,.89-2.87,2.77,2.77,0,0,1,2.16-1A2.65,2.65,0,0,1,587.19,261Zm.15,1.32a1.88,1.88,0,0,0-3.19.56,4.73,4.73,0,0,0-.25,1.7,3,3,0,0,0,.5,1.88,1.61,1.61,0,0,0,1.34.65,1.89,1.89,0,0,0,1.86-1.2,3.84,3.84,0,0,0,.3-1.58A3.07,3.07,0,0,0,587.34,262.36Z"/><path d="M596.28,261.48a3.66,3.66,0,0,1,1,2.77,4.77,4.77,0,0,1-.85,2.92,3.1,3.1,0,0,1-2.66,1.16,3,3,0,0,1-2.38-1,4,4,0,0,1-.88-2.74,4.35,4.35,0,0,1,.93-2.93,3.11,3.11,0,0,1,2.5-1.1A3.27,3.27,0,0,1,596.28,261.48Zm-.76,4.86a4.65,4.65,0,0,0,.45-2.06,3.6,3.6,0,0,0-.33-1.66,1.81,1.81,0,0,0-1.77-1,1.73,1.73,0,0,0-1.62.86,4,4,0,0,0-.51,2.07,3.49,3.49,0,0,0,.51,1.95,1.78,1.78,0,0,0,1.61.78A1.67,1.67,0,0,0,595.52,266.34Z"/><path d="M599.44,260.74l1.95,6,2-6h1.35L602,268.07h-1.31l-2.7-7.33Z"/><path d="M610.43,261a2.77,2.77,0,0,1,1.1.94,3.17,3.17,0,0,1,.49,1.3,7.79,7.79,0,0,1,.11,1.61h-5.32a3.11,3.11,0,0,0,.52,1.79,1.74,1.74,0,0,0,1.51.68,2,2,0,0,0,1.53-.64,2.29,2.29,0,0,0,.45-.86H612a2.51,2.51,0,0,1-.32.9,3.28,3.28,0,0,1-.6.81,2.89,2.89,0,0,1-1.38.74,4.25,4.25,0,0,1-1,.11,3.07,3.07,0,0,1-2.3-1,3.87,3.87,0,0,1-.94-2.78,4.21,4.21,0,0,1,1-2.87,3.13,3.13,0,0,1,2.48-1.1A3.27,3.27,0,0,1,610.43,261Zm.44,2.87a3.25,3.25,0,0,0-.35-1.28,1.76,1.76,0,0,0-1.67-.89,1.85,1.85,0,0,0-1.41.62,2.33,2.33,0,0,0-.61,1.55Z"/><path d="M613.79,260.74H615V262a2.73,2.73,0,0,1,.71-.9,1.82,1.82,0,0,1,1.29-.53h.12l.28,0v1.3l-.21,0H617a1.77,1.77,0,0,0-1.43.6,2.09,2.09,0,0,0-.49,1.37v4.22h-1.24Z"/><path d="M618.49,260.74h1.17v1a3.53,3.53,0,0,1,1.1-.92,2.9,2.9,0,0,1,1.29-.28,2.13,2.13,0,0,1,2.11,1.09,3.83,3.83,0,0,1,.3,1.7v4.7h-1.25v-4.62a2.54,2.54,0,0,0-.2-1.08,1.2,1.2,0,0,0-1.19-.68,2.43,2.43,0,0,0-.72.09,1.91,1.91,0,0,0-.89.6,2,2,0,0,0-.4.75,5.06,5.06,0,0,0-.09,1.1v3.84h-1.23Z"/><path d="M626.35,260.74h1.21v1a4.07,4.07,0,0,1,.8-.78,2.35,2.35,0,0,1,1.38-.42,2.18,2.18,0,0,1,1.41.43,2.27,2.27,0,0,1,.54.73,2.68,2.68,0,0,1,1-.88,2.79,2.79,0,0,1,1.24-.28,2,2,0,0,1,2,1.07,3.46,3.46,0,0,1,.29,1.54v4.88h-1.28V263a1.15,1.15,0,0,0-.37-1,1.39,1.39,0,0,0-.89-.28,1.72,1.72,0,0,0-1.24.49,2.12,2.12,0,0,0-.53,1.62v4.26h-1.25v-4.78a2.47,2.47,0,0,0-.18-1.09,1.07,1.07,0,0,0-1-.51,1.8,1.8,0,0,0-1.27.54,2.64,2.64,0,0,0-.57,1.95v3.89h-1.23Z"/><path d="M642.6,261a2.74,2.74,0,0,1,1.11.94,3.17,3.17,0,0,1,.49,1.3,8.58,8.58,0,0,1,.11,1.61H639a3.19,3.19,0,0,0,.53,1.79,1.72,1.72,0,0,0,1.51.68,2,2,0,0,0,1.52-.64,2.18,2.18,0,0,0,.46-.86h1.21a2.72,2.72,0,0,1-.32.9,3.28,3.28,0,0,1-.6.81,2.94,2.94,0,0,1-1.38.74,4.37,4.37,0,0,1-1,.11,3.06,3.06,0,0,1-2.3-1,3.87,3.87,0,0,1-1-2.78,4.22,4.22,0,0,1,1-2.87,3.13,3.13,0,0,1,2.48-1.1A3.2,3.2,0,0,1,642.6,261Zm.44,2.87a3.26,3.26,0,0,0-.34-1.28,1.79,1.79,0,0,0-1.68-.89,1.85,1.85,0,0,0-1.41.62,2.27,2.27,0,0,0-.6,1.55Z"/><path d="M645.94,260.74h1.17v1a3.32,3.32,0,0,1,1.1-.92,2.84,2.84,0,0,1,1.29-.28,2.11,2.11,0,0,1,2.1,1.09,3.83,3.83,0,0,1,.3,1.7v4.7h-1.25v-4.62a2.55,2.55,0,0,0-.19-1.08,1.21,1.21,0,0,0-1.19-.68,2.34,2.34,0,0,0-.72.09,1.82,1.82,0,0,0-.89.6,1.72,1.72,0,0,0-.4.75,5.06,5.06,0,0,0-.09,1.1v3.84h-1.23Z"/><path d="M654,258.7h1.24v2h1.17v1h-1.17v4.78a.53.53,0,0,0,.26.51,1.12,1.12,0,0,0,.48.08h.19l.24,0v1a2.14,2.14,0,0,1-.44.08,3.79,3.79,0,0,1-.49,0,1.31,1.31,0,0,1-1.17-.44,1.9,1.9,0,0,1-.31-1.14v-4.85h-1v-1h1Z"/><path d="M547.88,998h1.36v8.85h5v1.2h-6.4Z"/><path d="M559.5,1003.63a.64.64,0,0,0,.56-.35,1.2,1.2,0,0,0-.36-1.39,2.41,2.41,0,0,0-1.28-.28,1.63,1.63,0,0,0-1.37.52,1.77,1.77,0,0,0-.29.86h-1.15a2.14,2.14,0,0,1,.88-1.89,3.53,3.53,0,0,1,2-.53,3.92,3.92,0,0,1,2.09.49,1.66,1.66,0,0,1,.8,1.53v4.22a.57.57,0,0,0,.08.31.39.39,0,0,0,.33.11h.19l.21,0v.91a3.41,3.41,0,0,1-.43.1,2.37,2.37,0,0,1-.41,0,1,1,0,0,1-.93-.45,1.71,1.71,0,0,1-.21-.67,3.19,3.19,0,0,1-1.08.85,3.34,3.34,0,0,1-1.55.36,2.26,2.26,0,0,1-1.66-.62,2,2,0,0,1-.65-1.54,2,2,0,0,1,.64-1.58,3.06,3.06,0,0,1,1.66-.69Zm-2.6,3.33a1.49,1.49,0,0,0,.93.31,2.84,2.84,0,0,0,1.26-.3,1.71,1.71,0,0,0,1-1.64v-1a2.12,2.12,0,0,1-.58.23,3.62,3.62,0,0,1-.7.14l-.74.1a2.81,2.81,0,0,0-1,.28,1.08,1.08,0,0,0-.57,1A1,1,0,0,0,556.9,1007Z"/><path d="M564,1000.74l1.41,5.77,1.43-5.77h1.38l1.43,5.74,1.5-5.74h1.23l-2.13,7.33H569l-1.49-5.67-1.45,5.67h-1.28l-2.11-7.33Z"/><path d="M582.09,1001a2.87,2.87,0,0,1,1.11.94,3.49,3.49,0,0,1,.49,1.3,8.58,8.58,0,0,1,.11,1.61h-5.33a3.19,3.19,0,0,0,.52,1.79,1.75,1.75,0,0,0,1.51.68,2,2,0,0,0,1.53-.64,2.29,2.29,0,0,0,.45-.86h1.21a2.48,2.48,0,0,1-.31.9,3.57,3.57,0,0,1-.61.81,2.91,2.91,0,0,1-1.37.74,4.37,4.37,0,0,1-1,.11,3,3,0,0,1-2.3-1,3.88,3.88,0,0,1-1-2.79,4.25,4.25,0,0,1,1-2.86,3.15,3.15,0,0,1,2.49-1.1A3.23,3.23,0,0,1,582.09,1001Zm.44,2.87a3.26,3.26,0,0,0-.34-1.28,1.79,1.79,0,0,0-1.68-.89,1.85,1.85,0,0,0-1.41.62,2.27,2.27,0,0,0-.6,1.55Z"/><path d="M585.42,1000.74h1.17v1a3.53,3.53,0,0,1,1.1-.92,2.92,2.92,0,0,1,1.3-.28,2.12,2.12,0,0,1,2.1,1.09,3.83,3.83,0,0,1,.3,1.7v4.7h-1.25v-4.62a2.37,2.37,0,0,0-.2-1.08,1.2,1.2,0,0,0-1.19-.68,2.32,2.32,0,0,0-.71.09,1.82,1.82,0,0,0-.89.6,1.72,1.72,0,0,0-.4.75,5,5,0,0,0-.1,1.1v3.84h-1.23Z"/><path d="M593.85,998.51a1.9,1.9,0,0,1,1.67-.63h.23l.29,0V999l-.28,0h-.17c-.38,0-.6.1-.67.29a5.25,5.25,0,0,0-.12,1.48H596v1H594.8v6.32h-1.21v-6.32h-1v-1h1v-1.15A2.22,2.22,0,0,1,593.85,998.51Z"/><path d="M602.54,1001.47a3.71,3.71,0,0,1,1,2.78,4.77,4.77,0,0,1-.86,2.92,3.08,3.08,0,0,1-2.65,1.16,3,3,0,0,1-2.39-1,4.08,4.08,0,0,1-.88-2.74,4.39,4.39,0,0,1,.93-2.94,3.13,3.13,0,0,1,2.5-1.09A3.28,3.28,0,0,1,602.54,1001.47Zm-.76,4.87a4.65,4.65,0,0,0,.45-2.06,3.74,3.74,0,0,0-.32-1.66,1.83,1.83,0,0,0-1.77-1,1.74,1.74,0,0,0-1.63.86,4,4,0,0,0-.5,2.07,3.49,3.49,0,0,0,.5,2,1.79,1.79,0,0,0,1.61.78A1.67,1.67,0,0,0,601.78,1006.34Z"/><path d="M605.13,1000.74h1.17V1002a2.67,2.67,0,0,1,.7-.9,1.86,1.86,0,0,1,1.29-.53h.12l.28,0v1.29l-.2,0h-.2a1.75,1.75,0,0,0-1.43.6,2.11,2.11,0,0,0-.5,1.38v4.21h-1.23Z"/><path d="M614.66,1001.13a2.93,2.93,0,0,1,.94,2.08h-1.2a2.18,2.18,0,0,0-.5-1.13,1.56,1.56,0,0,0-1.25-.45,1.74,1.74,0,0,0-1.68,1.15,4.55,4.55,0,0,0-.33,1.84,3.46,3.46,0,0,0,.47,1.85,1.59,1.59,0,0,0,1.46.75,1.6,1.6,0,0,0,1.21-.47,2.49,2.49,0,0,0,.62-1.28h1.2a2.91,2.91,0,0,1-3.13,2.81,2.81,2.81,0,0,1-2.29-1,4,4,0,0,1-.85-2.62,4.37,4.37,0,0,1,.94-3,3,3,0,0,1,2.38-1.08A3.16,3.16,0,0,1,614.66,1001.13Z"/><path d="M621.42,1001a2.8,2.8,0,0,1,1.11.94,3.32,3.32,0,0,1,.49,1.3,8.58,8.58,0,0,1,.11,1.61H617.8a3.19,3.19,0,0,0,.52,1.79,1.76,1.76,0,0,0,1.52.68,2,2,0,0,0,1.52-.64,2.29,2.29,0,0,0,.45-.86H623a2.48,2.48,0,0,1-.31.9,3.3,3.3,0,0,1-.61.81,2.91,2.91,0,0,1-1.37.74,4.37,4.37,0,0,1-1,.11,3,3,0,0,1-2.3-1,3.88,3.88,0,0,1-.95-2.79,4.25,4.25,0,0,1,.95-2.86,3.16,3.16,0,0,1,2.49-1.1A3.2,3.2,0,0,1,621.42,1001Zm.44,2.87a3.26,3.26,0,0,0-.34-1.28,1.79,1.79,0,0,0-1.68-.89,1.85,1.85,0,0,0-1.41.62,2.27,2.27,0,0,0-.6,1.55Z"/><path d="M624.75,1000.74H626v1a4.06,4.06,0,0,1,.79-.78,2.39,2.39,0,0,1,1.38-.42,2.14,2.14,0,0,1,1.41.43,2.29,2.29,0,0,1,.55.73,2.66,2.66,0,0,1,1-.88,2.83,2.83,0,0,1,1.25-.28,2,2,0,0,1,2,1.07,3.46,3.46,0,0,1,.29,1.54v4.88h-1.28V1003a1.19,1.19,0,0,0-.37-1,1.45,1.45,0,0,0-.89-.27,1.76,1.76,0,0,0-1.25.49,2.11,2.11,0,0,0-.52,1.62v4.26h-1.25v-4.78a2.47,2.47,0,0,0-.18-1.09,1.1,1.1,0,0,0-1-.51,1.79,1.79,0,0,0-1.26.54,2.64,2.64,0,0,0-.58,1.95v3.89h-1.23Z"/><path d="M641,1001a2.87,2.87,0,0,1,1.11.94,3.49,3.49,0,0,1,.49,1.3,8.8,8.8,0,0,1,.1,1.61h-5.32a3.19,3.19,0,0,0,.52,1.79,1.75,1.75,0,0,0,1.51.68,2,2,0,0,0,1.53-.64,2.29,2.29,0,0,0,.45-.86h1.21a2.51,2.51,0,0,1-.32.9,3.28,3.28,0,0,1-.6.81,2.89,2.89,0,0,1-1.38.74,4.22,4.22,0,0,1-1,.11,3.08,3.08,0,0,1-2.31-1,3.88,3.88,0,0,1-.94-2.79,4.25,4.25,0,0,1,.95-2.86,3.13,3.13,0,0,1,2.49-1.1A3.26,3.26,0,0,1,641,1001Zm.44,2.87a3.25,3.25,0,0,0-.35-1.28,1.76,1.76,0,0,0-1.67-.89,1.85,1.85,0,0,0-1.41.62,2.27,2.27,0,0,0-.6,1.55Z"/><path d="M644.34,1000.74h1.17v1a3.42,3.42,0,0,1,1.1-.92,2.9,2.9,0,0,1,1.29-.28,2.13,2.13,0,0,1,2.11,1.09,3.83,3.83,0,0,1,.3,1.7v4.7h-1.25v-4.62a2.51,2.51,0,0,0-.2-1.08,1.2,1.2,0,0,0-1.19-.68,2.43,2.43,0,0,0-.72.09,1.84,1.84,0,0,0-.88.6,1.72,1.72,0,0,0-.4.75,4.41,4.41,0,0,0-.1,1.1v3.84h-1.23Z"/><path d="M652.45,998.7h1.24v2h1.17v1h-1.17v4.78a.53.53,0,0,0,.26.51,1.06,1.06,0,0,0,.48.08h.19l.24,0v1a2.14,2.14,0,0,1-.44.08,4,4,0,0,1-.5,0,1.33,1.33,0,0,1-1.17-.44,2,2,0,0,1-.3-1.14v-4.85h-1v-1h1Z"/><path d="M852.75,401h4.49a3.09,3.09,0,0,1,2.16.76,2.76,2.76,0,0,1,.82,2.12,3.07,3.07,0,0,1-.74,2.05,2.74,2.74,0,0,1-2.23.87h-3.14v4.25h-1.36ZM858,402.4a3,3,0,0,0-1.23-.21h-2.69v3.48h2.69a2.56,2.56,0,0,0,1.48-.39,1.57,1.57,0,0,0,.56-1.37A1.53,1.53,0,0,0,858,402.4Z"/><path d="M863.1,403.74v4.86a2,2,0,0,0,.17.92,1.2,1.2,0,0,0,1.19.66,1.69,1.69,0,0,0,1.7-1.15,4.53,4.53,0,0,0,.25-1.69v-3.6h1.23v7.33h-1.16V410a2.47,2.47,0,0,1-.58.7,2.55,2.55,0,0,1-1.68.57,2.14,2.14,0,0,1-2.09-1,3.2,3.2,0,0,1-.3-1.5v-5Z"/><path d="M869.62,401h1.19v3.64a2.74,2.74,0,0,1,1-.8,2.8,2.8,0,0,1,1.22-.28,2.89,2.89,0,0,1,2.23.94,4,4,0,0,1,.86,2.78,4.77,4.77,0,0,1-.85,2.88,2.73,2.73,0,0,1-2.34,1.15,2.44,2.44,0,0,1-1.41-.4,3.43,3.43,0,0,1-.74-.77v.94h-1.13Zm4.7,8.43a3.92,3.92,0,0,0,.5-2.09,3.47,3.47,0,0,0-.5-1.92,1.65,1.65,0,0,0-1.46-.76,2,2,0,0,0-1.48.63,2.78,2.78,0,0,0-.63,2.05A4.4,4.4,0,0,0,871,409a1.79,1.79,0,0,0,1.81,1.21A1.64,1.64,0,0,0,874.32,409.42Z"/><path d="M877.61,401h1.23v10.05h-1.23Z"/><path d="M880.76,401H882v1.4h-1.25Zm0,2.76H882v7.29h-1.25Z"/><path d="M888.77,404.13a2.93,2.93,0,0,1,.94,2.08h-1.2a2.18,2.18,0,0,0-.5-1.13,1.56,1.56,0,0,0-1.25-.45,1.74,1.74,0,0,0-1.68,1.15,4.55,4.55,0,0,0-.33,1.84,3.46,3.46,0,0,0,.47,1.85,1.59,1.59,0,0,0,1.46.75,1.6,1.6,0,0,0,1.21-.47,2.49,2.49,0,0,0,.62-1.27h1.2a2.91,2.91,0,0,1-3.13,2.8,2.81,2.81,0,0,1-2.29-1,4,4,0,0,1-.85-2.62,4.37,4.37,0,0,1,.94-3,3,3,0,0,1,2.38-1.08A3.16,3.16,0,0,1,888.77,404.13Z"/><path d="M898.89,406.64a.69.69,0,0,0,.57-.36,1.17,1.17,0,0,0,.08-.47,1,1,0,0,0-.45-.92,2.36,2.36,0,0,0-1.28-.28,1.61,1.61,0,0,0-1.36.52,1.67,1.67,0,0,0-.29.86H895a2.09,2.09,0,0,1,.88-1.89,3.52,3.52,0,0,1,2-.53,4,4,0,0,1,2.1.49,1.68,1.68,0,0,1,.8,1.53v4.22a.49.49,0,0,0,.08.31.39.39,0,0,0,.33.11h.18l.22,0v.91a3.47,3.47,0,0,1-.44.1,2.31,2.31,0,0,1-.41,0,1,1,0,0,1-.92-.45,1.71,1.71,0,0,1-.21-.67,3.19,3.19,0,0,1-1.08.85,3.37,3.37,0,0,1-1.55.36,2.29,2.29,0,0,1-1.67-.62,2,2,0,0,1-.64-1.54,2,2,0,0,1,.63-1.58,3.1,3.1,0,0,1,1.67-.69ZM896.3,410a1.48,1.48,0,0,0,.92.31,2.78,2.78,0,0,0,1.26-.3,1.7,1.7,0,0,0,1-1.64v-1a2.26,2.26,0,0,1-.58.23,4.56,4.56,0,0,1-.7.14l-.74.1a2.87,2.87,0,0,0-1,.28,1.08,1.08,0,0,0-.57,1A1,1,0,0,0,896.3,410Z"/><path d="M906.85,404a3.71,3.71,0,0,1,.74.72V401h1.18v10.08h-1.11v-1a2.59,2.59,0,0,1-1,1,2.79,2.79,0,0,1-1.34.31,2.71,2.71,0,0,1-2.11-1,4,4,0,0,1-.9-2.74,4.74,4.74,0,0,1,.82-2.77,2.67,2.67,0,0,1,2.32-1.18A2.59,2.59,0,0,1,906.85,404Zm-2.75,5.49a1.73,1.73,0,0,0,1.59.79,1.67,1.67,0,0,0,1.4-.73,3.53,3.53,0,0,0,.55-2.11,3.13,3.13,0,0,0-.57-2.06,1.75,1.75,0,0,0-1.39-.66,1.81,1.81,0,0,0-1.5.71,3.22,3.22,0,0,0-.58,2.09A3.67,3.67,0,0,0,904.1,409.46Z"/><path d="M911.29,403.74l2,6,2-6h1.34l-2.75,7.33h-1.31l-2.7-7.33Z"/><path d="M923.05,404.48a3.67,3.67,0,0,1,1,2.77,4.77,4.77,0,0,1-.86,2.92,3.09,3.09,0,0,1-2.65,1.16,3,3,0,0,1-2.39-1,4,4,0,0,1-.88-2.74,4.35,4.35,0,0,1,.93-2.93,3.11,3.11,0,0,1,2.5-1.1A3.25,3.25,0,0,1,923.05,404.48Zm-.76,4.86a4.65,4.65,0,0,0,.45-2.06,3.74,3.74,0,0,0-.32-1.66,1.83,1.83,0,0,0-1.78-1,1.73,1.73,0,0,0-1.62.86,4,4,0,0,0-.5,2.07,3.49,3.49,0,0,0,.5,1.95,1.79,1.79,0,0,0,1.61.78A1.67,1.67,0,0,0,922.29,409.34Z"/><path d="M930.44,404.13a2.93,2.93,0,0,1,.94,2.08h-1.2a2.18,2.18,0,0,0-.5-1.13,1.58,1.58,0,0,0-1.25-.45,1.73,1.73,0,0,0-1.68,1.15,4.55,4.55,0,0,0-.33,1.84,3.46,3.46,0,0,0,.46,1.85,1.81,1.81,0,0,0,2.68.28,2.49,2.49,0,0,0,.62-1.27h1.2a3.17,3.17,0,0,1-1,2.12,3.21,3.21,0,0,1-2.1.68,2.8,2.8,0,0,1-2.29-1,4,4,0,0,1-.85-2.62,4.42,4.42,0,0,1,.93-3,3,3,0,0,1,2.39-1.08A3.18,3.18,0,0,1,930.44,404.13Z"/><path d="M936.6,406.64a.69.69,0,0,0,.57-.36,1.17,1.17,0,0,0,.08-.47,1,1,0,0,0-.45-.92,2.38,2.38,0,0,0-1.28-.28,1.61,1.61,0,0,0-1.36.52,1.67,1.67,0,0,0-.29.86h-1.15a2.11,2.11,0,0,1,.87-1.89,3.58,3.58,0,0,1,2-.53,4,4,0,0,1,2.1.49,1.68,1.68,0,0,1,.8,1.53v4.22a.57.57,0,0,0,.07.31.43.43,0,0,0,.34.11H939l.22,0v.91a3.47,3.47,0,0,1-.44.1,2.37,2.37,0,0,1-.41,0,1,1,0,0,1-.92-.45,1.71,1.71,0,0,1-.21-.67,3.19,3.19,0,0,1-1.08.85,3.38,3.38,0,0,1-1.56.36,2.26,2.26,0,0,1-1.66-.62,2,2,0,0,1-.65-1.54,2,2,0,0,1,.64-1.58,3.07,3.07,0,0,1,1.67-.69ZM934,410a1.48,1.48,0,0,0,.92.31,2.81,2.81,0,0,0,1.26-.3,1.71,1.71,0,0,0,1-1.64v-1a2.12,2.12,0,0,1-.58.23,4.22,4.22,0,0,1-.69.14l-.74.1a2.81,2.81,0,0,0-1,.28,1.08,1.08,0,0,0-.57,1A1,1,0,0,0,934,410Z"/><path d="M940.78,401.7H942v2h1.17v1H942v4.78a.53.53,0,0,0,.26.51,1.12,1.12,0,0,0,.48.08H943l.24,0v1a2.14,2.14,0,0,1-.44.08,3.84,3.84,0,0,1-.5,0,1.3,1.3,0,0,1-1.16-.44,1.9,1.9,0,0,1-.31-1.14v-4.85h-1v-1h1Z"/><path d="M949,404a2.74,2.74,0,0,1,1.11.94,3.17,3.17,0,0,1,.49,1.3,8.58,8.58,0,0,1,.11,1.61h-5.33a3.19,3.19,0,0,0,.53,1.79,1.74,1.74,0,0,0,1.51.68,2,2,0,0,0,1.53-.64,2.29,2.29,0,0,0,.45-.86h1.21a2.72,2.72,0,0,1-.32.9,3.28,3.28,0,0,1-.6.81,2.89,2.89,0,0,1-1.38.74,4.31,4.31,0,0,1-1,.11,3.07,3.07,0,0,1-2.3-1,3.87,3.87,0,0,1-.95-2.78,4.22,4.22,0,0,1,1-2.87,3.13,3.13,0,0,1,2.48-1.1A3.2,3.2,0,0,1,949,404Zm.45,2.87a3.43,3.43,0,0,0-.35-1.28,1.78,1.78,0,0,0-1.68-.89,1.81,1.81,0,0,0-1.4.62,2.24,2.24,0,0,0-.61,1.55Z"/><path d="M953.08,408.77a1.8,1.8,0,0,0,.31.94,2,2,0,0,0,1.65.6,2.49,2.49,0,0,0,1.23-.3,1,1,0,0,0,.53-.92.79.79,0,0,0-.43-.72,5.41,5.41,0,0,0-1.07-.35l-1-.24a5.11,5.11,0,0,1-1.4-.52,1.54,1.54,0,0,1-.81-1.38,2.06,2.06,0,0,1,.76-1.68,3.06,3.06,0,0,1,2-.65,2.88,2.88,0,0,1,2.42,1,2.1,2.1,0,0,1,.45,1.33h-1.16a1.46,1.46,0,0,0-.3-.75,1.94,1.94,0,0,0-1.51-.49,1.81,1.81,0,0,0-1.08.27.82.82,0,0,0-.37.7.85.85,0,0,0,.49.76,2.44,2.44,0,0,0,.82.3l.83.2a6.77,6.77,0,0,1,1.81.62A1.65,1.65,0,0,1,958,409a2.26,2.26,0,0,1-.75,1.69,3.23,3.23,0,0,1-2.28.71,3.08,3.08,0,0,1-2.35-.75,2.74,2.74,0,0,1-.73-1.83Z"/><path d="M870.72,847v1.2h-3.39v8.85H866v-8.85h-3.38V847Z"/><path d="M874.85,850a2.77,2.77,0,0,1,1.1.94,3.17,3.17,0,0,1,.49,1.3,7.79,7.79,0,0,1,.11,1.61h-5.32a3.11,3.11,0,0,0,.52,1.79,1.74,1.74,0,0,0,1.51.68,2,2,0,0,0,1.53-.64,2.29,2.29,0,0,0,.45-.86h1.21a2.51,2.51,0,0,1-.32.9,3.28,3.28,0,0,1-.6.81,2.89,2.89,0,0,1-1.38.74,4.25,4.25,0,0,1-1,.11,3.07,3.07,0,0,1-2.3-1,3.88,3.88,0,0,1-.94-2.79,4.2,4.2,0,0,1,1-2.86,3.13,3.13,0,0,1,2.48-1.1A3.27,3.27,0,0,1,874.85,850Zm.44,2.87a3.25,3.25,0,0,0-.35-1.28,1.76,1.76,0,0,0-1.67-.89,1.85,1.85,0,0,0-1.41.62,2.33,2.33,0,0,0-.61,1.55Z"/><path d="M882.1,852.63a.64.64,0,0,0,.57-.35,1.24,1.24,0,0,0-.36-1.39,2.41,2.41,0,0,0-1.28-.28,1.63,1.63,0,0,0-1.37.52,1.77,1.77,0,0,0-.29.86h-1.15a2.11,2.11,0,0,1,.88-1.89,3.52,3.52,0,0,1,1.95-.53,4,4,0,0,1,2.1.49,1.68,1.68,0,0,1,.8,1.53v4.22a.57.57,0,0,0,.08.31.39.39,0,0,0,.33.11h.18a1.66,1.66,0,0,0,.22,0v.91a3.41,3.41,0,0,1-.43.1,2.37,2.37,0,0,1-.41,0,1,1,0,0,1-.93-.45,1.71,1.71,0,0,1-.21-.67,3.19,3.19,0,0,1-1.08.85,3.37,3.37,0,0,1-1.55.36,2.3,2.3,0,0,1-1.67-.62,2,2,0,0,1-.64-1.54,2,2,0,0,1,.63-1.58,3.1,3.1,0,0,1,1.67-.69ZM879.51,856a1.49,1.49,0,0,0,.93.31,2.77,2.77,0,0,0,1.25-.3,1.7,1.7,0,0,0,1-1.64v-1a2.12,2.12,0,0,1-.58.23,3.62,3.62,0,0,1-.7.14l-.74.1a2.87,2.87,0,0,0-1,.28,1.08,1.08,0,0,0-.57,1A1,1,0,0,0,879.51,856Z"/><path d="M890.87,850.13a2.93,2.93,0,0,1,.94,2.08h-1.2a2.18,2.18,0,0,0-.5-1.13,1.58,1.58,0,0,0-1.25-.45,1.74,1.74,0,0,0-1.68,1.15,4.55,4.55,0,0,0-.33,1.84,3.46,3.46,0,0,0,.46,1.85,1.81,1.81,0,0,0,2.68.28,2.49,2.49,0,0,0,.62-1.28h1.2a3.17,3.17,0,0,1-1,2.13,3.21,3.21,0,0,1-2.1.68,2.8,2.8,0,0,1-2.29-1,4,4,0,0,1-.85-2.62,4.42,4.42,0,0,1,.93-3,3,3,0,0,1,2.39-1.08A3.18,3.18,0,0,1,890.87,850.13Z"/><path d="M893.11,847h1.23v3.75a3.54,3.54,0,0,1,.78-.78,2.66,2.66,0,0,1,1.49-.39,2.2,2.2,0,0,1,2.16,1.11,3.9,3.9,0,0,1,.3,1.69v4.7h-1.26v-4.62a2.51,2.51,0,0,0-.21-1.18,1.3,1.3,0,0,0-1.25-.6,2.09,2.09,0,0,0-1.39.52,2.52,2.52,0,0,0-.62,2v3.89h-1.23Z"/><path d="M905.48,850a2.74,2.74,0,0,1,1.11.94,3.17,3.17,0,0,1,.49,1.3,8.58,8.58,0,0,1,.11,1.61h-5.32a3.11,3.11,0,0,0,.52,1.79,1.74,1.74,0,0,0,1.51.68,2,2,0,0,0,1.53-.64,2.29,2.29,0,0,0,.45-.86h1.21a2.51,2.51,0,0,1-.32.9,3.28,3.28,0,0,1-.6.81,2.89,2.89,0,0,1-1.38.74,4.31,4.31,0,0,1-1,.11,3.07,3.07,0,0,1-2.3-1,3.88,3.88,0,0,1-1-2.79,4.21,4.21,0,0,1,1-2.86,3.13,3.13,0,0,1,2.48-1.1A3.2,3.2,0,0,1,905.48,850Zm.45,2.87a3.25,3.25,0,0,0-.35-1.28,1.76,1.76,0,0,0-1.67-.89,1.84,1.84,0,0,0-1.41.62,2.28,2.28,0,0,0-.61,1.55Z"/><path d="M908.85,849.74H910V851a2.73,2.73,0,0,1,.71-.9,1.82,1.82,0,0,1,1.29-.53h.11l.28,0v1.29l-.2,0H912a1.75,1.75,0,0,0-1.43.6,2.11,2.11,0,0,0-.5,1.38v4.21h-1.23Z"/><path d="M914.28,854.77a1.72,1.72,0,0,0,.32.94,2,2,0,0,0,1.64.6,2.44,2.44,0,0,0,1.23-.3,1,1,0,0,0,.53-.92.8.8,0,0,0-.42-.72,5.67,5.67,0,0,0-1.07-.35l-1-.24a5.11,5.11,0,0,1-1.4-.52,1.55,1.55,0,0,1-.81-1.38,2.09,2.09,0,0,1,.76-1.68,3.06,3.06,0,0,1,2-.65,2.87,2.87,0,0,1,2.42,1,2.1,2.1,0,0,1,.45,1.33h-1.16a1.31,1.31,0,0,0-.3-.75,1.93,1.93,0,0,0-1.51-.49,1.83,1.83,0,0,0-1.08.27.83.83,0,0,0-.36.7.85.85,0,0,0,.48.76,2.53,2.53,0,0,0,.82.3l.83.2a6.77,6.77,0,0,1,1.81.62,1.66,1.66,0,0,1,.72,1.49,2.23,2.23,0,0,1-.75,1.68,3.21,3.21,0,0,1-2.29.72,3.07,3.07,0,0,1-2.34-.75,2.75,2.75,0,0,1-.74-1.83Z"/><path d="M262.48,845h1.6l5,8.12V845h1.3v10.05h-1.53L263.78,847v8.11h-1.3Z"/><path d="M277.8,848.47a3.7,3.7,0,0,1,1,2.78,4.77,4.77,0,0,1-.85,2.92,3.1,3.1,0,0,1-2.66,1.16,3,3,0,0,1-2.38-1,4,4,0,0,1-.88-2.74,4.39,4.39,0,0,1,.93-2.94,3.13,3.13,0,0,1,2.5-1.09A3.3,3.3,0,0,1,277.8,848.47Zm-.76,4.87a4.65,4.65,0,0,0,.45-2.06,3.6,3.6,0,0,0-.33-1.66,1.81,1.81,0,0,0-1.77-1,1.73,1.73,0,0,0-1.62.86,4,4,0,0,0-.51,2.07,3.49,3.49,0,0,0,.51,2,1.78,1.78,0,0,0,1.61.78A1.67,1.67,0,0,0,277,853.34Z"/><path d="M280.35,847.74h1.17v1a3.53,3.53,0,0,1,1.1-.92,2.92,2.92,0,0,1,1.3-.28,2.11,2.11,0,0,1,2.1,1.09,3.83,3.83,0,0,1,.3,1.7v4.7h-1.25v-4.62a2.37,2.37,0,0,0-.2-1.08,1.2,1.2,0,0,0-1.19-.68,2.32,2.32,0,0,0-.71.09,1.82,1.82,0,0,0-.89.6,1.72,1.72,0,0,0-.4.75,5,5,0,0,0-.1,1.1v3.84h-1.23Z"/><path d="M287.89,850.53h3.43v1.27h-3.43Z"/><path d="M292.84,847.78H294v1a3.07,3.07,0,0,1,.81-.77,2.58,2.58,0,0,1,1.47-.41,2.75,2.75,0,0,1,2.12.95,3.9,3.9,0,0,1,.87,2.72,4.16,4.16,0,0,1-1.26,3.42,2.81,2.81,0,0,1-1.85.65,2.56,2.56,0,0,1-1.4-.36,3.29,3.29,0,0,1-.73-.7V858h-1.23Zm4.63,5.74a3.44,3.44,0,0,0,.57-2.16,4,4,0,0,0-.25-1.5,1.86,1.86,0,0,0-3.51.07,5,5,0,0,0-.26,1.73,3.6,3.6,0,0,0,.26,1.44,1.74,1.74,0,0,0,1.75,1.14A1.76,1.76,0,0,0,297.47,853.52Z"/><path d="M300.83,847.74H302V849a2.73,2.73,0,0,1,.71-.9,1.82,1.82,0,0,1,1.29-.53h.11l.28,0v1.29l-.2,0H304a1.77,1.77,0,0,0-1.43.6,2.11,2.11,0,0,0-.5,1.38v4.21h-1.23Z"/><path d="M310.84,848.47a3.74,3.74,0,0,1,1,2.78,4.77,4.77,0,0,1-.86,2.92,3.08,3.08,0,0,1-2.65,1.16,3,3,0,0,1-2.39-1,4.08,4.08,0,0,1-.88-2.74,4.39,4.39,0,0,1,.93-2.94,3.13,3.13,0,0,1,2.5-1.09A3.32,3.32,0,0,1,310.84,848.47Zm-.77,4.87a4.65,4.65,0,0,0,.45-2.06,3.74,3.74,0,0,0-.32-1.66,1.83,1.83,0,0,0-1.77-1,1.74,1.74,0,0,0-1.63.86,4.07,4.07,0,0,0-.5,2.07,3.57,3.57,0,0,0,.5,2,1.79,1.79,0,0,0,1.61.78A1.67,1.67,0,0,0,310.07,853.34Z"/><path d="M314,845.51a1.88,1.88,0,0,1,1.66-.63h.24l.28,0V846l-.28,0h-.16c-.38,0-.6.1-.68.29a5.87,5.87,0,0,0-.11,1.48h1.23v1h-1.23v6.32h-1.22v-6.32h-1v-1h1v-1.15A2.21,2.21,0,0,1,314,845.51Z"/><path d="M317.35,845h1.25v1.4h-1.25Zm0,2.76h1.25v7.29h-1.25Z"/><path d="M320.77,845.7H322v2h1.17v1H322v4.78a.51.51,0,0,0,.26.51,1.06,1.06,0,0,0,.48.08H323l.24,0v1a2.26,2.26,0,0,1-.44.08,4,4,0,0,1-.5,0,1.33,1.33,0,0,1-1.17-.44,2,2,0,0,1-.31-1.14v-4.85h-1v-1h1Z"/><path d="M325.22,852.77a1.8,1.8,0,0,0,.31.94,2,2,0,0,0,1.65.6,2.49,2.49,0,0,0,1.23-.3,1,1,0,0,0,.53-.92.79.79,0,0,0-.43-.72,5.41,5.41,0,0,0-1.07-.35l-1-.24a5.11,5.11,0,0,1-1.4-.52,1.55,1.55,0,0,1-.81-1.38,2.06,2.06,0,0,1,.76-1.68,3,3,0,0,1,2-.65,2.88,2.88,0,0,1,2.42,1,2.1,2.1,0,0,1,.45,1.33h-1.16a1.39,1.39,0,0,0-.31-.75,1.9,1.9,0,0,0-1.5-.49,1.79,1.79,0,0,0-1.08.27.82.82,0,0,0-.37.7.85.85,0,0,0,.48.76,2.6,2.6,0,0,0,.83.3l.82.2a6.74,6.74,0,0,1,1.82.62,1.67,1.67,0,0,1,.71,1.49,2.23,2.23,0,0,1-.75,1.68,3.18,3.18,0,0,1-2.28.72,3.08,3.08,0,0,1-2.35-.75,2.74,2.74,0,0,1-.73-1.83Z"/><path d="M268.45,403.76A3.54,3.54,0,0,1,269.6,406h-1.32a2.8,2.8,0,0,0-.89-1.54,2.75,2.75,0,0,0-1.85-.57,3,3,0,0,0-2.36,1.05,4.84,4.84,0,0,0-.89,3.19,4.72,4.72,0,0,0,.81,2.87,2.81,2.81,0,0,0,2.41,1.1,2.53,2.53,0,0,0,2.25-1.16,4.39,4.39,0,0,0,.61-1.6h1.33a4.6,4.6,0,0,1-1.16,2.66,4.56,4.56,0,0,1-6.1.23,6.55,6.55,0,0,1-.38-8,4.21,4.21,0,0,1,3.46-1.55A4.06,4.06,0,0,1,268.45,403.76Z"/><path d="M276.67,406.48a3.7,3.7,0,0,1,1,2.77,4.77,4.77,0,0,1-.86,2.92,3.08,3.08,0,0,1-2.65,1.16,3,3,0,0,1-2.39-1,4.08,4.08,0,0,1-.88-2.74,4.35,4.35,0,0,1,.93-2.93,3.11,3.11,0,0,1,2.5-1.1A3.29,3.29,0,0,1,276.67,406.48Zm-.77,4.86a4.65,4.65,0,0,0,.45-2.06,3.74,3.74,0,0,0-.32-1.66,1.83,1.83,0,0,0-1.77-1,1.74,1.74,0,0,0-1.63.86,4.07,4.07,0,0,0-.5,2.07,3.57,3.57,0,0,0,.5,1.95,1.79,1.79,0,0,0,1.61.78A1.67,1.67,0,0,0,275.9,411.34Z"/><path d="M280.45,405.74v4.86a2.19,2.19,0,0,0,.17.92,1.2,1.2,0,0,0,1.19.66,1.7,1.7,0,0,0,1.71-1.15,4.77,4.77,0,0,0,.24-1.69v-3.6H285v7.33h-1.16l0-1.08a2.68,2.68,0,0,1-.59.7,2.55,2.55,0,0,1-1.68.57,2.14,2.14,0,0,1-2.09-1,3.2,3.2,0,0,1-.3-1.5v-5Z"/><path d="M287.07,405.74h1.17v1a3.53,3.53,0,0,1,1.1-.92,2.9,2.9,0,0,1,1.29-.28,2.13,2.13,0,0,1,2.11,1.09,3.83,3.83,0,0,1,.3,1.7v4.7h-1.25v-4.62a2.54,2.54,0,0,0-.2-1.08,1.2,1.2,0,0,0-1.19-.68,2.43,2.43,0,0,0-.72.09,1.84,1.84,0,0,0-.88.6,1.72,1.72,0,0,0-.4.75,4.41,4.41,0,0,0-.1,1.1v3.84h-1.23Z"/><path d="M295.66,410.77a1.8,1.8,0,0,0,.31.94,2,2,0,0,0,1.65.6,2.44,2.44,0,0,0,1.23-.3,1,1,0,0,0,.53-.92.8.8,0,0,0-.42-.72,5.94,5.94,0,0,0-1.07-.35l-1-.24a5.11,5.11,0,0,1-1.4-.52,1.54,1.54,0,0,1-.81-1.38,2.09,2.09,0,0,1,.76-1.68,3.06,3.06,0,0,1,2-.65,2.87,2.87,0,0,1,2.42,1,2.1,2.1,0,0,1,.45,1.33h-1.16a1.46,1.46,0,0,0-.3-.75,1.93,1.93,0,0,0-1.51-.49,1.83,1.83,0,0,0-1.08.27.84.84,0,0,0,.12,1.46,2.53,2.53,0,0,0,.82.3l.83.2a6.77,6.77,0,0,1,1.81.62,1.66,1.66,0,0,1,.72,1.49,2.26,2.26,0,0,1-.75,1.69,3.27,3.27,0,0,1-2.29.71,3.05,3.05,0,0,1-2.34-.75,2.75,2.75,0,0,1-.74-1.83Z"/><path d="M306.52,406a2.74,2.74,0,0,1,1.11.94,3.32,3.32,0,0,1,.49,1.3,8.58,8.58,0,0,1,.11,1.61H302.9a3.19,3.19,0,0,0,.52,1.79,1.76,1.76,0,0,0,1.52.68,2,2,0,0,0,1.52-.64,2,2,0,0,0,.45-.86h1.21a2.48,2.48,0,0,1-.31.9,3.07,3.07,0,0,1-.61.81,2.91,2.91,0,0,1-1.37.74,4.37,4.37,0,0,1-1,.11,3.06,3.06,0,0,1-2.3-1,3.87,3.87,0,0,1-.95-2.78,4.26,4.26,0,0,1,.95-2.87,3.16,3.16,0,0,1,2.49-1.1A3.2,3.2,0,0,1,306.52,406Zm.44,2.87a3.26,3.26,0,0,0-.34-1.28,1.79,1.79,0,0,0-1.68-.89,1.85,1.85,0,0,0-1.41.62,2.27,2.27,0,0,0-.6,1.55Z"/><path d="M309.89,403h1.23v10.05h-1.23Z"/><path d="M318.34,406.48a3.66,3.66,0,0,1,1,2.77,4.77,4.77,0,0,1-.85,2.92,3.1,3.1,0,0,1-2.66,1.16,3,3,0,0,1-2.38-1,4,4,0,0,1-.88-2.74,4.35,4.35,0,0,1,.93-2.93,3.1,3.1,0,0,1,2.49-1.1A3.29,3.29,0,0,1,318.34,406.48Zm-.76,4.86a4.65,4.65,0,0,0,.45-2.06,3.6,3.6,0,0,0-.33-1.66,1.81,1.81,0,0,0-1.77-1,1.73,1.73,0,0,0-1.62.86,4,4,0,0,0-.51,2.07,3.49,3.49,0,0,0,.51,1.95,1.78,1.78,0,0,0,1.61.78A1.68,1.68,0,0,0,317.58,411.34Z"/><path d="M320.93,405.74h1.17V407a2.67,2.67,0,0,1,.7-.9,1.82,1.82,0,0,1,1.29-.53h.12l.28,0v1.3l-.2,0h-.21a1.73,1.73,0,0,0-1.42.6,2.05,2.05,0,0,0-.5,1.37v4.22h-1.23Z"/><path d="M326.36,410.77a1.72,1.72,0,0,0,.31.94,2,2,0,0,0,1.65.6,2.42,2.42,0,0,0,1.22-.3,1,1,0,0,0,.53-.92.8.8,0,0,0-.42-.72,5.67,5.67,0,0,0-1.07-.35l-1-.24a5.07,5.07,0,0,1-1.41-.52,1.55,1.55,0,0,1-.8-1.38,2.06,2.06,0,0,1,.76-1.68,3,3,0,0,1,2-.65,2.86,2.86,0,0,1,2.41,1,2.1,2.1,0,0,1,.45,1.33h-1.16a1.31,1.31,0,0,0-.3-.75,1.92,1.92,0,0,0-1.5-.49,1.79,1.79,0,0,0-1.08.27.82.82,0,0,0-.37.7.85.85,0,0,0,.48.76,2.62,2.62,0,0,0,.82.3l.83.2a6.64,6.64,0,0,1,1.81.62,1.66,1.66,0,0,1,.72,1.49,2.26,2.26,0,0,1-.75,1.69,3.24,3.24,0,0,1-2.29.71,3.07,3.07,0,0,1-2.34-.75,2.8,2.8,0,0,1-.74-1.83Z"/></g></svg>