<svg xmlns="http://www.w3.org/2000/svg" xmlns:xlink="http://www.w3.org/1999/xlink" viewBox="-1418 -21455 3004 1080"><defs><style>.a{clip-path:url(#b);}.b{fill:#363636;}.c{fill:#2890ff;}.d{fill:#2ee5b3;}.e{fill:#fff;}.f,.g,.h,.i,.k{fill:none;}.f{stroke:#363636;}.f,.g,.h{stroke-width:3px;}.g{stroke:#fff;}.h,.i{stroke:#fa48e6;}.i{stroke-width:2px;}.j{stroke:none;}</style><clipPath id="b"><rect x="-1418" y="-21455" width="3004" height="1080"/></clipPath></defs><g id="a" class="a"><rect class="e" x="-1418" y="-21455" width="3004" height="1080"/><rect class="b" width="1920" height="540" transform="translate(-335 -20915)"/><g transform="translate(-135 -20774)"><path class="c" d="M205.743,205.743H0V0Z"/><path class="d" d="M0,205.743V0H205.743Z"/><circle class="e" cx="17.022" cy="17.022" r="17.022" transform="translate(173.179 85.85)"/><g transform="translate(2.812 226.909)"><path class="e" d="M1.9,153.5H6.785v18.206H16.7V176H1.9V153.5Z" transform="translate(-1.9 -153.204)"/><path class="e" d="M38.529,153.5h4.737L52.443,176H47.114l-1.776-4.737H36.309L34.533,176H29.5Zm-.592,13.914h6.069l-.888-2.516c-.592-1.776-1.48-4-2.072-5.773h0c-.592,1.776-1.332,4-2.072,5.773Z" transform="translate(11.353 -153.204)"/><path class="e" d="M63.74,169.878a14.306,14.306,0,0,0,7.1,2.368c1.776,0,3.108-.74,3.108-2.368,0-2.072-2.072-2.22-5.033-3.256C65.812,165.585,63,164.105,63,160.109c0-4.144,3.108-6.809,7.845-6.809a15.376,15.376,0,0,1,6.809,1.628v4.885a14.529,14.529,0,0,0-6.957-2.22c-1.628,0-2.96.592-2.96,2.072,0,1.924,2.072,2.072,4.737,3.108,3.4,1.184,6.069,2.664,6.069,6.661,0,4.44-3.256,6.957-8.141,6.957a17.174,17.174,0,0,1-7.1-1.628v-4.885Z" transform="translate(27.438 -153.3)"/><path class="e" d="M92.992,169.878a14.33,14.33,0,0,0,7.253,2.368c1.776,0,3.108-.74,3.108-2.368,0-2.072-2.072-2.22-5.033-3.256-3.108-1.036-5.921-2.516-5.921-6.513,0-4.144,3.108-6.809,7.845-6.809a15.376,15.376,0,0,1,6.809,1.628v4.885a14.529,14.529,0,0,0-6.957-2.22c-1.628,0-2.96.592-2.96,2.072,0,1.924,2.072,2.072,4.737,3.108,3.4,1.184,6.069,2.664,6.069,6.661,0,4.44-3.256,6.957-8.141,6.957a17.174,17.174,0,0,1-7.1-1.628v-4.885Z" transform="translate(41.555 -153.3)"/><path class="e" d="M121.7,164.845a11.694,11.694,0,1,1,11.693,11.545A11.41,11.41,0,0,1,121.7,164.845Zm18.5,0a6.815,6.815,0,1,0-6.809,7.1A6.861,6.861,0,0,0,140.2,164.845Z" transform="translate(55.624 -153.3)"/></g></g><g transform="translate(-135 -21305)"><path class="c" d="M205.743,205.743H0V0Z"/><path class="d" d="M0,205.743V0H205.743Z"/><circle class="b" cx="17.022" cy="17.022" r="17.022" transform="translate(173.179 85.85)"/><g transform="translate(2.812 226.909)"><path class="b" d="M1.9,153.5H6.785v18.206H16.7V176H1.9V153.5Z" transform="translate(-1.9 -153.204)"/><path class="b" d="M38.529,153.5h4.737L52.443,176H47.114l-1.776-4.737H36.309L34.533,176H29.5Zm-.592,13.914h6.069l-.888-2.516c-.592-1.776-1.48-4-2.072-5.773h0c-.592,1.776-1.332,4-2.072,5.773Z" transform="translate(11.353 -153.204)"/><path class="b" d="M63.74,169.878a14.306,14.306,0,0,0,7.1,2.368c1.776,0,3.108-.74,3.108-2.368,0-2.072-2.072-2.22-5.033-3.256C65.812,165.585,63,164.105,63,160.109c0-4.144,3.108-6.809,7.845-6.809a15.376,15.376,0,0,1,6.809,1.628v4.885a14.529,14.529,0,0,0-6.957-2.22c-1.628,0-2.96.592-2.96,2.072,0,1.924,2.072,2.072,4.737,3.108,3.4,1.184,6.069,2.664,6.069,6.661,0,4.44-3.256,6.957-8.141,6.957a17.174,17.174,0,0,1-7.1-1.628v-4.885Z" transform="translate(27.438 -153.3)"/><path class="b" d="M92.992,169.878a14.33,14.33,0,0,0,7.253,2.368c1.776,0,3.108-.74,3.108-2.368,0-2.072-2.072-2.22-5.033-3.256-3.108-1.036-5.921-2.516-5.921-6.513,0-4.144,3.108-6.809,7.845-6.809a15.376,15.376,0,0,1,6.809,1.628v4.885a14.529,14.529,0,0,0-6.957-2.22c-1.628,0-2.96.592-2.96,2.072,0,1.924,2.072,2.072,4.737,3.108,3.4,1.184,6.069,2.664,6.069,6.661,0,4.44-3.256,6.957-8.141,6.957a17.174,17.174,0,0,1-7.1-1.628v-4.885Z" transform="translate(41.555 -153.3)"/><path class="b" d="M121.7,164.845a11.694,11.694,0,1,1,11.693,11.545A11.41,11.41,0,0,1,121.7,164.845Zm18.5,0a6.815,6.815,0,1,0-6.809,7.1A6.861,6.861,0,0,0,140.2,164.845Z" transform="translate(55.624 -153.3)"/></g></g><g transform="translate(738.5 -20774)"><path class="e" d="M205.743,205.743H0V0Z"/><path class="e" d="M0,205.743V0H205.743Z"/><circle class="e" cx="17.022" cy="17.022" r="17.022" transform="translate(173.179 85.85)"/><g transform="translate(2.812 226.909)"><path class="e" d="M1.9,153.5H6.785v18.206H16.7V176H1.9V153.5Z" transform="translate(-1.9 -153.204)"/><path class="e" d="M38.529,153.5h4.737L52.443,176H47.114l-1.776-4.737H36.309L34.533,176H29.5Zm-.592,13.914h6.069l-.888-2.516c-.592-1.776-1.48-4-2.072-5.773h0c-.592,1.776-1.332,4-2.072,5.773Z" transform="translate(11.353 -153.204)"/><path class="e" d="M63.74,169.878a14.306,14.306,0,0,0,7.1,2.368c1.776,0,3.108-.74,3.108-2.368,0-2.072-2.072-2.22-5.033-3.256C65.812,165.585,63,164.105,63,160.109c0-4.144,3.108-6.809,7.845-6.809a15.376,15.376,0,0,1,6.809,1.628v4.885a14.529,14.529,0,0,0-6.957-2.22c-1.628,0-2.96.592-2.96,2.072,0,1.924,2.072,2.072,4.737,3.108,3.4,1.184,6.069,2.664,6.069,6.661,0,4.44-3.256,6.957-8.141,6.957a17.174,17.174,0,0,1-7.1-1.628v-4.885Z" transform="translate(27.438 -153.3)"/><path class="e" d="M92.992,169.878a14.33,14.33,0,0,0,7.253,2.368c1.776,0,3.108-.74,3.108-2.368,0-2.072-2.072-2.22-5.033-3.256-3.108-1.036-5.921-2.516-5.921-6.513,0-4.144,3.108-6.809,7.845-6.809a15.376,15.376,0,0,1,6.809,1.628v4.885a14.529,14.529,0,0,0-6.957-2.22c-1.628,0-2.96.592-2.96,2.072,0,1.924,2.072,2.072,4.737,3.108,3.4,1.184,6.069,2.664,6.069,6.661,0,4.44-3.256,6.957-8.141,6.957a17.174,17.174,0,0,1-7.1-1.628v-4.885Z" transform="translate(41.555 -153.3)"/><path class="e" d="M121.7,164.845a11.694,11.694,0,1,1,11.693,11.545A11.41,11.41,0,0,1,121.7,164.845Zm18.5,0a6.815,6.815,0,1,0-6.809,7.1A6.861,6.861,0,0,0,140.2,164.845Z" transform="translate(55.624 -153.3)"/></g><line class="f" x1="212" y2="212" transform="translate(-4.5 -2.5)"/></g><g transform="translate(738.5 -21305)"><path class="b" d="M205.743,205.743H0V0Z"/><path class="b" d="M0,205.743V0H205.743Z"/><circle class="b" cx="17.022" cy="17.022" r="17.022" transform="translate(173.179 85.85)"/><g transform="translate(2.812 226.909)"><path class="b" d="M1.9,153.5H6.785v18.206H16.7V176H1.9V153.5Z" transform="translate(-1.9 -153.204)"/><path class="b" d="M38.529,153.5h4.737L52.443,176H47.114l-1.776-4.737H36.309L34.533,176H29.5Zm-.592,13.914h6.069l-.888-2.516c-.592-1.776-1.48-4-2.072-5.773h0c-.592,1.776-1.332,4-2.072,5.773Z" transform="translate(11.353 -153.204)"/><path class="b" d="M63.74,169.878a14.306,14.306,0,0,0,7.1,2.368c1.776,0,3.108-.74,3.108-2.368,0-2.072-2.072-2.22-5.033-3.256C65.812,165.585,63,164.105,63,160.109c0-4.144,3.108-6.809,7.845-6.809a15.376,15.376,0,0,1,6.809,1.628v4.885a14.529,14.529,0,0,0-6.957-2.22c-1.628,0-2.96.592-2.96,2.072,0,1.924,2.072,2.072,4.737,3.108,3.4,1.184,6.069,2.664,6.069,6.661,0,4.44-3.256,6.957-8.141,6.957a17.174,17.174,0,0,1-7.1-1.628v-4.885Z" transform="translate(27.438 -153.3)"/><path class="b" d="M92.992,169.878a14.33,14.33,0,0,0,7.253,2.368c1.776,0,3.108-.74,3.108-2.368,0-2.072-2.072-2.22-5.033-3.256-3.108-1.036-5.921-2.516-5.921-6.513,0-4.144,3.108-6.809,7.845-6.809a15.376,15.376,0,0,1,6.809,1.628v4.885a14.529,14.529,0,0,0-6.957-2.22c-1.628,0-2.96.592-2.96,2.072,0,1.924,2.072,2.072,4.737,3.108,3.4,1.184,6.069,2.664,6.069,6.661,0,4.44-3.256,6.957-8.141,6.957a17.174,17.174,0,0,1-7.1-1.628v-4.885Z" transform="translate(41.555 -153.3)"/><path class="b" d="M121.7,164.845a11.694,11.694,0,1,1,11.693,11.545A11.41,11.41,0,0,1,121.7,164.845Zm18.5,0a6.815,6.815,0,1,0-6.809,7.1A6.861,6.861,0,0,0,140.2,164.845Z" transform="translate(55.624 -153.3)"/></g><line class="g" x1="212" y2="212" transform="translate(-4.5 -2.5)"/></g><g transform="translate(1178.5 -20774)"><path class="e" d="M205.743,205.743H0V0Z"/><path class="e" d="M0,205.743V0H205.743Z"/><circle class="e" cx="17.022" cy="17.022" r="17.022" transform="translate(173.179 85.85)"/><line class="f" x1="212" y2="212" transform="translate(-4.5 -2.5)"/></g><g transform="translate(1178.5 -21305)"><path class="b" d="M205.743,205.743H0V0Z"/><path class="b" d="M0,205.743V0H205.743Z"/><circle class="b" cx="17.022" cy="17.022" r="17.022" transform="translate(173.179 85.85)"/><line class="g" x1="212" y2="212" transform="translate(-4.5 -2.5)"/></g><g transform="translate(300 -20774)"><path class="c" d="M205,205H0V0Z"/><path class="d" d="M0,205V0H205Z"/><circle class="e" cx="16.96" cy="16.96" r="16.96" transform="translate(172.554 85.54)"/></g><g transform="translate(300 -21305)"><path class="c" d="M205,205H0V0Z"/><path class="d" d="M0,205V0H205Z"/><circle class="b" cx="16.96" cy="16.96" r="16.96" transform="translate(172.554 85.54)"/></g><rect class="b" width="1080" height="1080" transform="translate(-1418 -21455)"/><g transform="translate(-1384.838 -21482.5)"><g transform="translate(336.458 333.086)"><path class="c" d="M339.417,339.417H0V0Z"/><path class="d" d="M0,339.417V0H339.417Z"/><ellipse class="e" cx="28.081" cy="28.081" rx="28.081" ry="28.081" transform="translate(283.696 141.627)"/><g transform="translate(0 385.717)"><path class="e" d="M1.9,153.5h8.32v31.009H27.111v7.311H1.9V153.5Z" transform="translate(-1.9 -152.996)"/><path class="e" d="M44.879,153.5h8.067l15.631,38.32H59.5l-3.025-8.067H41.1l-3.025,8.067H29.5ZM43.87,177.2H54.207l-1.513-4.286c-1.008-3.025-2.521-6.807-3.53-9.832h0c-1.008,3.025-2.269,6.807-3.53,9.832Z" transform="translate(40.082 -152.996)"/><path class="e" d="M64.261,181.536a24.367,24.367,0,0,0,12.1,4.034c3.025,0,5.294-1.261,5.294-4.034,0-3.53-3.53-3.782-8.572-5.546C67.79,174.225,63,171.7,63,164.9c0-7.059,5.294-11.6,13.362-11.6a26.189,26.189,0,0,1,11.6,2.773v8.32a24.747,24.747,0,0,0-11.849-3.782c-2.773,0-5.042,1.008-5.042,3.53,0,3.277,3.53,3.53,8.067,5.294,5.8,2.017,10.336,4.538,10.336,11.345,0,7.563-5.546,11.849-13.866,11.849a29.251,29.251,0,0,1-12.1-2.773v-8.32Z" transform="translate(91.038 -153.3)"/><path class="e" d="M93.408,181.536a24.408,24.408,0,0,0,12.353,4.034c3.025,0,5.294-1.261,5.294-4.034,0-3.53-3.53-3.782-8.572-5.546C97.19,174.225,92.4,171.7,92.4,164.9c0-7.059,5.294-11.6,13.362-11.6a26.189,26.189,0,0,1,11.6,2.773v8.32a24.747,24.747,0,0,0-11.849-3.782c-2.773,0-5.042,1.008-5.042,3.53,0,3.277,3.53,3.53,8.067,5.294,5.8,2.017,10.336,4.538,10.336,11.345,0,7.563-5.546,11.849-13.866,11.849a29.251,29.251,0,0,1-12.1-2.773v-8.32Z" transform="translate(135.758 -153.3)"/><path class="e" d="M121.7,172.964c0-11.093,8.572-19.664,19.917-19.664s19.917,8.572,19.917,19.664-8.572,19.664-19.917,19.664S121.7,184.057,121.7,172.964Zm31.514,0c0-6.807-5.042-12.1-11.6-12.1s-11.6,5.294-11.6,12.1,5.042,12.1,11.6,12.1S153.214,179.771,153.214,172.964Z" transform="translate(178.326 -153.3)"/></g></g><path class="h" d="M341.779,0H0" transform="translate(336.893 502.887)"/><line class="h" x2="342" transform="translate(336.338 716.384)"/><line class="h" x2="342" transform="translate(336.338 802.384)"/><g class="h" transform="translate(208.838 205.5)"><rect class="j" width="596.252" height="723.25"/><rect class="k" x="1.5" y="1.5" width="593.252" height="720.25"/></g><path class="h" d="M341.779,0H0" transform="translate(336.893 673.887)"/><path class="h" d="M341.779,0H0" transform="translate(336.893 759.887)"/><path class="i" d="M341.779,0H0" transform="translate(336.893 331.887)"/><line class="h" y2="382.547" transform="translate(506.915 333.453)"/><line class="h" y2="468.932" transform="translate(677.915 333.453)"/><line class="i" y2="468.932" transform="translate(336.915 333.453)"/></g><g class="h" transform="translate(-708 -20682)"><rect class="j" width="128" height="128"/><rect class="k" x="1.5" y="1.5" width="125" height="125"/></g><g class="h" transform="translate(-1175 -21277)"><rect class="j" width="128" height="128"/><rect class="k" x="1.5" y="1.5" width="125" height="125"/></g></g></svg>