<svg xmlns="http://www.w3.org/2000/svg" xmlns:xlink="http://www.w3.org/1999/xlink" viewBox="5982 -13215 1920 1080"><defs><style>.a{clip-path:url(#b);}.b{fill:#929292;}.c{fill:#2ee5b3;}.d,.e,.h{fill:none;}.d{stroke:#2e2e2e;stroke-width:6px;}.e,.h{stroke:#fff;}.e{stroke-width:4px;}.f,.g,.j,.l,.n,.o{fill:#fff;}.f,.o{font-size:28px;}.f,.l,.n{font-family:AzoSans-Regular, Azo Sans;}.g{font-size:20px;font-family:HelveticaNeue, Helvetica Neue;letter-spacing:0.1em;}.i{opacity:0.496;}.k,.p{fill:#2e2e2e;}.k{font-size:18px;}.k,.o{font-family:AzoSans-Bold, Azo Sans;font-weight:700;}.l{font-size:58px;}.m{fill:#2890ff;}.n{font-size:36px;}</style><clipPath id="b"><rect x="5982" y="-13215" width="1920" height="1080"/></clipPath></defs><g id="a" class="a"><rect class="p" x="5982" y="-13215" width="1920" height="1080"/><rect class="b" width="1920" height="11.06" transform="translate(5982 -13215)"/><rect class="c" width="321" height="11.06" transform="translate(5982 -13215)"/><line class="d" y2="21.479" transform="translate(6622.5 -13214.709)"/><line class="d" y2="21.479" transform="translate(6942.5 -13214.709)"/><line class="d" y2="21.479" transform="translate(7582.5 -13214.709)"/><line class="d" y2="21.479" transform="translate(7262.5 -13214.709)"/><line class="d" y2="21.479" transform="translate(6302.5 -13214.709)"/><line class="e" x2="443.254" transform="translate(6141 -12702.5)"/><line class="e" x2="443.254" transform="translate(6720.303 -12702.5)"/><line class="e" x2="443.254" transform="translate(7299.604 -12702.5)"/><text class="f" transform="translate(6184 -12636)"><tspan x="0" y="28">Workplace comedies</tspan></text><text class="f" transform="translate(6763 -12636)"><tspan x="0" y="28">Crime drama</tspan></text><text class="f" transform="translate(7342 -12636)"><tspan x="0" y="28">Romantic comedies</tspan></text><text class="f" transform="translate(7342 -12580)"><tspan x="0" y="28">Horror</tspan></text><text class="f" transform="translate(7342 -12524)"><tspan x="0" y="28">Reality TV</tspan></text><text class="f" transform="translate(6763 -12580)"><tspan x="0" y="28">Thrillers</tspan></text><text class="f" transform="translate(6763 -12524)"><tspan x="0" y="28">Animated</tspan></text><text class="f" transform="translate(6763 -12468)"><tspan x="0" y="28">Slice of life</tspan></text><text class="f" transform="translate(6763 -12412)"><tspan x="0" y="28">Syndicated sitcoms</tspan></text><text class="f" transform="translate(6184 -12580)"><tspan x="0" y="28">Standup comedy</tspan></text><text class="f" transform="translate(6184 -12524)"><tspan x="0" y="28">Late night talk shows</tspan></text><text class="f" transform="translate(6184 -12468)"><tspan x="0" y="28">Docu-series</tspan></text><text class="f" transform="translate(6184 -12412)"><tspan x="0" y="28">Period piece dramas</tspan></text><text class="f" transform="translate(6184 -12356)"><tspan x="0" y="28">Coming of age</tspan></text><text class="g" transform="translate(6143 -12687)"><tspan x="0" y="19">LOVE IT</tspan></text><text class="g" transform="translate(6720 -12687)"><tspan x="0" y="19">LIKE IT</tspan></text><text class="g" transform="translate(7297 -12687)"><tspan x="0" y="19">SKEPTICAL AT BEST</tspan></text><g transform="translate(5982 -13246)"><line class="h" x2="26.863" transform="translate(159.5 618.5)"/><line class="h" x2="26.863" transform="translate(159.5 627.5)"/><line class="h" x2="26.863" transform="translate(159.5 636.5)"/></g><g transform="translate(6561 -13246)"><line class="h" x2="26.863" transform="translate(159.5 618.5)"/><line class="h" x2="26.863" transform="translate(159.5 627.5)"/><line class="h" x2="26.863" transform="translate(159.5 636.5)"/></g><g transform="translate(7140 -13246)"><line class="h" x2="26.863" transform="translate(159.5 618.5)"/><line class="h" x2="26.863" transform="translate(159.5 627.5)"/><line class="h" x2="26.863" transform="translate(159.5 636.5)"/></g><g transform="translate(7140 -13190)"><line class="h" x2="26.863" transform="translate(159.5 618.5)"/><line class="h" x2="26.863" transform="translate(159.5 627.5)"/><line class="h" x2="26.863" transform="translate(159.5 636.5)"/></g><g transform="translate(7140 -13134)"><line class="h" x2="26.863" transform="translate(159.5 618.5)"/><line class="h" x2="26.863" transform="translate(159.5 627.5)"/><line class="h" x2="26.863" transform="translate(159.5 636.5)"/></g><g transform="translate(6561 -13190)"><line class="h" x2="26.863" transform="translate(159.5 618.5)"/><line class="h" x2="26.863" transform="translate(159.5 627.5)"/><line class="h" x2="26.863" transform="translate(159.5 636.5)"/></g><g transform="translate(6561 -13134)"><line class="h" x2="26.863" transform="translate(159.5 618.5)"/><line class="h" x2="26.863" transform="translate(159.5 627.5)"/><line class="h" x2="26.863" transform="translate(159.5 636.5)"/></g><g transform="translate(6561 -13078)"><line class="h" x2="26.863" transform="translate(159.5 618.5)"/><line class="h" x2="26.863" transform="translate(159.5 627.5)"/><line class="h" x2="26.863" transform="translate(159.5 636.5)"/></g><g transform="translate(6561 -13022)"><line class="h" x2="26.863" transform="translate(159.5 618.5)"/><line class="h" x2="26.863" transform="translate(159.5 627.5)"/><line class="h" x2="26.863" transform="translate(159.5 636.5)"/></g><g transform="translate(5982 -13190)"><line class="h" x2="26.863" transform="translate(159.5 618.5)"/><line class="h" x2="26.863" transform="translate(159.5 627.5)"/><line class="h" x2="26.863" transform="translate(159.5 636.5)"/></g><g transform="translate(5982 -13134)"><line class="h" x2="26.863" transform="translate(159.5 618.5)"/><line class="h" x2="26.863" transform="translate(159.5 627.5)"/><line class="h" x2="26.863" transform="translate(159.5 636.5)"/></g><g transform="translate(5982 -13078)"><line class="h" x2="26.863" transform="translate(159.5 618.5)"/><line class="h" x2="26.863" transform="translate(159.5 627.5)"/><line class="h" x2="26.863" transform="translate(159.5 636.5)"/></g><g transform="translate(5982 -13022)"><line class="h" x2="26.863" transform="translate(159.5 618.5)"/><line class="h" x2="26.863" transform="translate(159.5 627.5)"/><line class="h" x2="26.863" transform="translate(159.5 636.5)"/></g><g transform="translate(5982 -12966)"><line class="h" x2="26.863" transform="translate(159.5 618.5)"/><line class="h" x2="26.863" transform="translate(159.5 627.5)"/><line class="h" x2="26.863" transform="translate(159.5 636.5)"/></g><g class="i" transform="translate(6082 -13226)"><ellipse class="j" cx="10.5" cy="11" rx="10.5" ry="11" transform="translate(479 599)"/><text class="k" transform="translate(477 598)"><tspan x="9.998" y="18">i</tspan></text></g><g class="i" transform="translate(6661 -13226)"><ellipse class="j" cx="10.5" cy="11" rx="10.5" ry="11" transform="translate(479 599)"/><text class="k" transform="translate(477 598)"><tspan x="9.998" y="18">i</tspan></text></g><g class="i" transform="translate(7240 -13226)"><ellipse class="j" cx="10.5" cy="11" rx="10.5" ry="11" transform="translate(479 599)"/><text class="k" transform="translate(477 598)"><tspan x="9.998" y="18">i</tspan></text></g><g class="i" transform="translate(7240 -13170)"><ellipse class="j" cx="10.5" cy="11" rx="10.5" ry="11" transform="translate(479 599)"/><text class="k" transform="translate(477 598)"><tspan x="9.998" y="18">i</tspan></text></g><g class="i" transform="translate(7240 -13114)"><ellipse class="j" cx="10.5" cy="11" rx="10.5" ry="11" transform="translate(479 599)"/><text class="k" transform="translate(477 598)"><tspan x="9.998" y="18">i</tspan></text></g><g class="i" transform="translate(6661 -13170)"><ellipse class="j" cx="10.5" cy="11" rx="10.5" ry="11" transform="translate(479 599)"/><text class="k" transform="translate(477 598)"><tspan x="9.998" y="18">i</tspan></text></g><g class="i" transform="translate(6661 -13114)"><ellipse class="j" cx="10.5" cy="11" rx="10.5" ry="11" transform="translate(479 599)"/><text class="k" transform="translate(477 598)"><tspan x="9.998" y="18">i</tspan></text></g><g class="i" transform="translate(6661 -13058)"><ellipse class="j" cx="10.5" cy="11" rx="10.5" ry="11" transform="translate(479 599)"/><text class="k" transform="translate(477 598)"><tspan x="9.998" y="18">i</tspan></text></g><g class="i" transform="translate(6661 -13002)"><ellipse class="j" cx="10.5" cy="11" rx="10.5" ry="11" transform="translate(479 599)"/><text class="k" transform="translate(477 598)"><tspan x="9.998" y="18">i</tspan></text></g><g class="i" transform="translate(6082 -13170)"><ellipse class="j" cx="10.5" cy="11" rx="10.5" ry="11" transform="translate(479 599)"/><text class="k" transform="translate(477 598)"><tspan x="9.998" y="18">i</tspan></text></g><g class="i" transform="translate(6082 -13114)"><ellipse class="j" cx="10.5" cy="11" rx="10.5" ry="11" transform="translate(479 599)"/><text class="k" transform="translate(477 598)"><tspan x="9.998" y="18">i</tspan></text></g><g class="i" transform="translate(6082 -13058)"><ellipse class="j" cx="10.5" cy="11" rx="10.5" ry="11" transform="translate(479 599)"/><text class="k" transform="translate(477 598)"><tspan x="9.998" y="18">i</tspan></text></g><g class="i" transform="translate(6082 -13002)"><ellipse class="j" cx="10.5" cy="11" rx="10.5" ry="11" transform="translate(479 599)"/><text class="k" transform="translate(477 598)"><tspan x="9.998" y="18">i</tspan></text></g><g class="i" transform="translate(6082 -12946)"><ellipse class="j" cx="10.5" cy="11" rx="10.5" ry="11" transform="translate(479 599)"/><text class="k" transform="translate(477 598)"><tspan x="9.998" y="18">i</tspan></text></g><text class="l" transform="translate(6143 -13051)"><tspan x="0" y="59">Drag and drop these genres </tspan><tspan x="0" y="147">into the correct columns.</tspan></text><rect class="m" width="481" height="81" rx="9" transform="translate(7261 -12983)"/><text class="n" transform="translate(7261 -12965)"><tspan x="163.694" y="36">Continue</tspan></text><text class="o" transform="translate(6018 -13169)"><tspan x="0" y="28">Cancel</tspan></text></g></svg>