<svg xmlns="http://www.w3.org/2000/svg" xmlns:xlink="http://www.w3.org/1999/xlink" viewBox="9962 -13215 1920 1080"><defs><style>.a{clip-path:url(#d);}.b{fill:#929292;}.c{fill:#2ee5b3;}.d,.g,.h{fill:none;}.d{stroke:#2e2e2e;stroke-width:6px;}.e,.f,.j,.k{fill:#fff;}.e,.k{font-size:28px;}.e{font-family:AzoSans-Bold, Azo Sans;font-weight:700;}.f{font-size:58px;}.f,.j{font-family:AzoSans-Regular, Azo Sans;}.g,.h{stroke:#fff;}.h{stroke-width:4px;}.i{fill:#2890ff;}.j{font-size:36px;}.k{font-family:AktivGrotesk-Light, Aktiv Grotesk;font-weight:300;}.l{fill:#2e2e2e;}.m{filter:url(#a);}</style><filter id="a" x="10892.5" y="-12691.5" width="64" height="63" filterUnits="userSpaceOnUse"><feOffset dx="2" dy="4" input="SourceAlpha"/><feGaussianBlur stdDeviation="2.5" result="b"/><feFlood flood-opacity="0.341"/><feComposite operator="in" in2="b"/><feComposite in="SourceGraphic"/></filter><clipPath id="d"><rect x="9962" y="-13215" width="1920" height="1080"/></clipPath></defs><g id="c" class="a"><rect class="l" x="9962" y="-13215" width="1920" height="1080"/><rect class="b" width="1920" height="11.06" transform="translate(9962 -13215)"/><rect class="c" width="1601" height="11.06" transform="translate(9962 -13215)"/><line class="d" y2="21.479" transform="translate(10602.5 -13214.709)"/><line class="d" y2="21.479" transform="translate(10922.5 -13214.709)"/><line class="d" y2="21.479" transform="translate(11562.5 -13214.709)"/><line class="d" y2="21.479" transform="translate(11242.5 -13214.709)"/><line class="d" y2="21.479" transform="translate(10282.5 -13214.709)"/><text class="e" transform="translate(9998 -13169)"><tspan x="0" y="28">Cancel</tspan></text><text class="f" transform="translate(10349 -13063)"><tspan x="36.362" y="59">Are you usually interested in the movies </tspan><tspan x="211.116" y="147">and TV your friends watch?</tspan></text><line class="g" x2="1540" transform="translate(10152.5 -12664.5)"/><line class="h" y2="26" transform="translate(10152.5 -12678.5)"/><line class="h" y2="26" transform="translate(10922.5 -12678.5)"/><line class="h" y2="26" transform="translate(10730.5 -12678.5)"/><line class="h" y2="26" transform="translate(11307.5 -12678.5)"/><line class="h" y2="26" transform="translate(10537.5 -12678.5)"/><line class="h" y2="26" transform="translate(11500.5 -12678.5)"/><line class="h" y2="26" transform="translate(10345.5 -12678.5)"/><line class="h" y2="26" transform="translate(11115.5 -12678.5)"/><line class="h" y2="26" transform="translate(11692.5 -12678.5)"/><g class="m" transform="matrix(1, 0, 0, 1, 0, 0)"><ellipse class="c" cx="24.5" cy="24" rx="24.5" ry="24" transform="translate(10898 -12688)"/></g><rect class="i" width="481" height="81" rx="8" transform="translate(10682 -12322)"/><text class="j" transform="translate(10682 -12304)"><tspan x="163.694" y="36">Continue</tspan></text><text class="k" transform="translate(10075 -12609)"><tspan x="23.754" y="25">Not at all</tspan></text><text class="k" transform="translate(10784 -12609)"><tspan x="93.438" y="25">Neutral</tspan></text><text class="k" transform="translate(11593 -12609)"><tspan x="33.878" y="25">Very much</tspan></text></g></svg>