<svg xmlns="http://www.w3.org/2000/svg" xmlns:xlink="http://www.w3.org/1999/xlink" viewBox="7972 -13215 1920 1080"><defs><style>.a{clip-path:url(#b);}.b{fill:#929292;}.c{fill:#2ee5b3;}.d,.j{fill:none;}.d{stroke:#2e2e2e;stroke-width:6px;}.e,.f,.h,.i,.k{fill:#fff;}.e{font-size:28px;font-family:AzoSans-Bold, Azo Sans;font-weight:700;}.f{font-size:58px;}.f,.h{font-family:AzoSans-Regular, Azo Sans;}.g{fill:#2890ff;}.g,.h{opacity:0.4;}.h,.i{font-size:36px;}.i{font-family:AktivGrotesk-Light, Aktiv Grotesk;font-weight:300;}.j{stroke:#95989a;}.l{fill:#2e2e2e;}</style><clipPath id="b"><rect x="7972" y="-13215" width="1920" height="1080"/></clipPath></defs><g id="a" class="a"><rect class="l" x="7972" y="-13215" width="1920" height="1080"/><rect class="b" width="1920" height="11.06" transform="translate(7972 -13215)"/><rect class="c" width="1281" height="11.06" transform="translate(7972 -13215)"/><line class="d" y2="21.479" transform="translate(8612.5 -13214.709)"/><line class="d" y2="21.479" transform="translate(8932.5 -13214.709)"/><line class="d" y2="21.479" transform="translate(9572.5 -13214.709)"/><line class="d" y2="21.479" transform="translate(9252.5 -13214.709)"/><line class="d" y2="21.479" transform="translate(8292.5 -13214.709)"/><text class="e" transform="translate(8008 -13169)"><tspan x="0" y="28">Cancel</tspan></text><text class="f" transform="translate(8359 -13063)"><tspan x="137.659" y="59">Why do you usually find yourself </tspan><tspan x="140.327" y="147">rewatching a movie or TV show?</tspan></text><rect class="g" width="481" height="81" rx="8" transform="translate(8692 -12322)"/><text class="h" transform="translate(8692 -12304)"><tspan x="163.694" y="36">Continue</tspan></text><text class="i" transform="translate(8334 -12761)"><tspan x="0" y="33">It’s a favorite of mine</tspan></text><text class="i" transform="translate(9093 -12761)"><tspan x="0" y="33">I put it on while multi-tasking</tspan></text><text class="i" transform="translate(8334 -12664)"><tspan x="0" y="33">I don’t know what to watch</tspan></text><text class="i" transform="translate(9093 -12664)"><tspan x="0" y="33">I rewatch it by accident</tspan></text><text class="i" transform="translate(8334 -12560)"><tspan x="0" y="33">I’m watching with others</tspan></text><text class="i" transform="translate(9093 -12560)"><tspan x="0" y="33">I fell asleep while watching</tspan></text><line class="j" x2="511.018" transform="translate(8333.799 -12687.5)"/><line class="j" x2="511.018" transform="translate(9092.799 -12687.5)"/><line class="j" x2="511.018" transform="translate(8333.799 -12588.5)"/><line class="j" x2="511.018" transform="translate(9092.799 -12588.5)"/><rect class="k" width="36" height="36" rx="7" transform="translate(8265 -12553)"/><rect class="k" width="36" height="36" rx="7" transform="translate(9020 -12553)"/><rect class="k" width="36" height="36" rx="7" transform="translate(8265 -12656)"/><rect class="k" width="36" height="36" rx="7" transform="translate(9020 -12656)"/><rect class="k" width="36" height="36" rx="7" transform="translate(8265 -12753)"/><rect class="k" width="36" height="36" rx="7" transform="translate(9020 -12753)"/></g></svg>