<svg xmlns="http://www.w3.org/2000/svg" xmlns:xlink="http://www.w3.org/1999/xlink" viewBox="0 0 716.23 432.67"><defs><style>.a,.f{fill:none;}.b{clip-path:url(#a);}.c,.h,.i{fill:#fff;}.d{fill:#2ee5b3;}.e{fill:#666;}.f{stroke:#000;stroke-linecap:square;stroke-miterlimit:11.47;stroke-width:0.73px;}.g,.h,.i,.j,.k{font-size:9.52px;}.g{fill:#282828;font-family:HelveticaNeue-Bold, Helvetica Neue;font-weight:700;}.h{font-family:HelveticaNeue, Helvetica Neue;}.i{font-family:HelveticaNeue-Italic, Helvetica Neue;}.i,.k{font-style:italic;}.j{font-family:ArialMT, Arial;}.k{font-family:Arial-ItalicMT, Arial;}</style><clipPath id="a"><rect class="a" x="-1.39" width="718.46" height="422.4"/></clipPath></defs><title>Artboard 1</title><g class="b"><rect class="c" x="-0.66" y="61.34" width="717.73" height="361.06"/><rect class="d" x="-1.39" width="718.46" height="27.65"/><rect class="e" x="-1.39" y="26.92" width="718.46" height="34.42"/><line class="f" x1="20.21" y1="95.4" x2="691.8" y2="95.4"/><line class="f" x1="20.21" y1="133.48" x2="691.8" y2="133.48"/><line class="f" x1="20.21" y1="175.96" x2="691.8" y2="175.96"/><line class="f" x1="20.21" y1="210.38" x2="691.8" y2="210.38"/><line class="f" x1="20.21" y1="244.8" x2="691.8" y2="244.8"/><line class="f" x1="20.21" y1="279.22" x2="691.8" y2="279.22"/><line class="f" x1="20.21" y1="313.65" x2="691.8" y2="313.65"/><line class="f" x1="20.21" y1="348.07" x2="691.8" y2="348.07"/><line class="f" x1="20.21" y1="385.42" x2="691.8" y2="385.42"/><text class="g" transform="translate(22.77 20.07)">Priority</text><text class="g" transform="translate(131.17 20.07)">Role</text><text class="g" transform="translate(264.46 20.07)">Task</text><text class="g" transform="translate(465.27 20.07)">Goal</text><text class="h" transform="translate(22.77 47.17)">Low, Medium, High</text><text class="h" transform="translate(131.17 47.17)">Alias for the target user</text><text class="i" transform="translate(264.46 47.17)">What</text><text class="h" transform="translate(286.51 47.17)"><tspan xml:space="preserve"> is it that the user wants to do?</tspan></text><text class="i" transform="translate(465.27 47.17)">Why</text><text class="h" transform="translate(483.96 47.17)"><tspan xml:space="preserve"> does the user want to accomplish their task?</tspan></text><text class="j" transform="translate(22.77 81.26)">High</text><text class="j" transform="translate(131.17 81.26)">Teenager</text><text class="j" transform="translate(264.46 76.13)">Watch the next episode (E9, S4) of </text><text class="k" transform="translate(414.76 76.13)">Gossip </text><text class="k" transform="translate(264.46 87.08)">Girl</text><text class="j" transform="translate(465.27 76.13)">I&apos;m done homework for the night and the last episode </text><text class="j" transform="translate(465.27 87.08)">ended with a cliffhanger.</text><text class="j" transform="translate(22.77 117.88)">High</text><text class="j" transform="translate(131.17 117.88)">College student (lives alone)</text><text class="j" transform="translate(264.46 117.88)">Find a new TV show to watch</text><text class="j" transform="translate(465.27 112.02)">I just finished West World and now I&apos;m looking for </text><text class="j" transform="translate(465.27 122.97)">something new to watch.</text><text class="j" transform="translate(22.77 158.16)">Medium</text><text class="j" transform="translate(131.17 152.3)">College student (has </text><text class="j" transform="translate(131.17 163.25)">roommates)</text><text class="j" transform="translate(264.46 158.16)">Play a show I&apos;ve recently watched</text><text class="j" transform="translate(465.27 152.3)">I like to re-watch old episodes of The Office before </text><text class="j" transform="translate(465.27 163.25)">falling asleep.</text><text class="j" transform="translate(22.77 196.24)">High</text><text class="j" transform="translate(131.17 196.24)">College student with friends</text><text class="j" transform="translate(264.46 191.11)">Pick a well-rated comedy to watch with </text><text class="j" transform="translate(264.46 202.06)">friends.</text><text class="j" transform="translate(465.27 191.11)">I want to quickly find a movie that will be funny and </text><text class="j" transform="translate(465.27 202.06)">please (most of) my friends.</text><text class="j" transform="translate(22.77 230.66)">High</text><text class="j" transform="translate(131.17 230.66)">Single adult</text><text class="j" transform="translate(264.46 230.66)">Watch </text><text class="k" transform="translate(294.09 230.66)">The Edge of Seventeen</text><text class="j" transform="translate(465.27 225.54)">Someone from my office told me I&apos;d enjoy it and I trust </text><text class="j" transform="translate(465.27 236.48)">her judgement.</text><text class="j" transform="translate(22.77 265.08)">Medium</text><text class="j" transform="translate(131.17 265.08)">Adult couple</text><text class="j" transform="translate(264.46 265.08)">Browse recently-released dramas</text><text class="j" transform="translate(465.27 259.96)">We&apos;re staying in for the night and are curious what&apos;s </text><text class="j" transform="translate(465.27 270.91)">new.</text><text class="j" transform="translate(22.77 299.51)">Low</text><text class="j" transform="translate(131.17 299.51)">Parent</text><text class="j" transform="translate(264.46 299.51)">Receive accurate movie suggestions</text><text class="j" transform="translate(465.27 294.38)">I&apos;m tired of Netflix recommending me </text><text class="k" transform="translate(624.65 294.38)">My Little Pony</text><text class="j" transform="translate(676.45 294.38)"> </text><text class="j" transform="translate(465.27 305.33)">because my daughter uses my account during the day</text><text class="j" transform="translate(22.77 333.93)">High</text><text class="j" transform="translate(131.17 333.93)">Novice</text><text class="j" transform="translate(264.46 333.93)">Browse my available library of content</text><text class="j" transform="translate(465.27 328.8)">I paid for access to these platforms, I&apos;m new to this </text><text class="j" transform="translate(465.27 339.75)">app, and my time is valuable</text><text class="j" transform="translate(22.77 368.46)">Medium</text><text class="j" transform="translate(131.17 369.81)">Novice</text><text class="j" transform="translate(264.46 365.62)">Add a new 3rd-party service to my Lasso </text><text class="j" transform="translate(264.46 376.57)">account</text><text class="j" transform="translate(465.27 365.62)">My new cable package includes HBO, which I didn&apos;t </text><text class="j" transform="translate(465.27 376.57)">have access to before</text><text class="j" transform="translate(22.77 406.35)">Low</text><text class="j" transform="translate(131.17 407.17)">Novice</text><text class="j" transform="translate(264.46 407.19)">Add a new user profile to my Lasso account</text><text class="j" transform="translate(465.27 406.24)">I want to keep viewing history and suggestions </text><text class="j" transform="translate(465.27 417.19)">relevant to my tastes, not my family&apos;s</text></g></svg>