<svg xmlns="http://www.w3.org/2000/svg" xmlns:xlink="http://www.w3.org/1999/xlink" viewBox="-3749 -18794 1920 1080"><defs><style>.a{clip-path:url(#b);}.b,.d,.e,.f,.g,.h,.i,.k,.o{fill:#fff;}.b{font-size:48px;}.b,.f,.g{font-family:AzoSans-Regular, Azo Sans;}.c,.m{fill:#2ee5b3;}.c,.d{font-size:24px;font-family:HelveticaNeue-Light, Helvetica Neue;}.c,.d,.e,.j,.k{font-weight:300;}.e{font-size:18px;}.e,.j,.k{font-family:AktivGrotesk-Light, Aktiv Grotesk;}.f{font-size:58px;}.g{font-size:40px;}.h{font-size:32px;font-family:AzoSans-Bold, Azo Sans;}.h,.i{font-weight:700;}.i{font-size:26px;font-family:AktivGrotesk-Bold, Aktiv Grotesk;}.k{font-size:14px;letter-spacing:0.1em;}.l,.p,.r{fill:none;}.l{stroke:#fff;stroke-width:3px;}.n{fill:#2890ff;}.p{stroke:#95989a;}.q{stroke:none;}.s{fill:#363636;}</style><clipPath id="b"><rect x="-3749" y="-18794" width="1920" height="1080"/></clipPath></defs><g id="a" class="a"><rect class="s" x="-3749" y="-18794" width="1920" height="1080"/><text class="b" transform="translate(-3606 -18492)"><tspan x="0" y="49">Heading 2</tspan></text><text class="c" transform="translate(-3606 -18419)"><tspan x="0" y="23">2.7em Azo Sans</tspan></text><text class="c" transform="translate(-3606 -18278)"><tspan x="0" y="23">2.2em Azo Sans</tspan></text><text class="c" transform="translate(-3606 -18149)"><tspan x="0" y="23">1.8em Azo Sans Bold</tspan></text><text class="c" transform="translate(-3606 -18021)"><tspan x="0" y="23">1.4em Aktiv Grotesk (mixed weights)</tspan></text><text class="c" transform="translate(-3606 -17911)"><tspan x="0" y="23">.8em Aktiv Grotesk Light (uppercase, .25em tracking)</tspan></text><text class="c" transform="translate(-3606 -18579)"><tspan x="0" y="23">3.2em Azo Sans</tspan></text><text class="c" transform="translate(-2788 -18586)"><tspan x="0" y="23">3px rule, 15px bottom margin</tspan></text><text class="c" transform="translate(-2788 -18235)"><tspan x="0" y="23">18px Aktiv Grotesk Light, 1.5 line height</tspan></text><text class="d" transform="translate(-2789 -17936)"><tspan x="3.576" y="23">#2EE5B3</tspan></text><text class="d" transform="translate(-2600 -17936)"><tspan x="6.252" y="23">#2890FF</tspan></text><text class="d" transform="translate(-2411 -17936)"><tspan x="7.164" y="23">#FFFFFF</tspan></text><text class="d" transform="translate(-2222 -17936)"><tspan x="5.796" y="23">#363636</tspan></text><text class="e" transform="translate(-2788 -18436)"><tspan x="0" y="16">This is what body text looks like this is what body text looks like this is what body text </tspan><tspan x="0" y="42">looks like this is what body text looks like this is what body text looks like this is what </tspan><tspan x="0" y="68">body text looks like this is what body text looks like this is what body text looks like this </tspan><tspan x="0" y="94">is what body text looks like this is what body text looks like this is what body text looks </tspan><tspan x="0" y="120">like this is what body text looks like this is what body text looks like this is what body </tspan><tspan x="0" y="146">text looks like this is what body text looks like this is what body text looks like this is </tspan><tspan x="0" y="172">what body text looks like</tspan></text><text class="f" transform="translate(-3606 -18666)"><tspan x="0" y="59">Heading 1</tspan></text><text class="g" transform="translate(-3606 -18342)"><tspan x="0" y="40">Heading 3</tspan></text><text class="h" transform="translate(-3606 -18202)"><tspan x="0" y="32">Heading 4</tspan></text><text class="i" transform="translate(-3606 -18066)"><tspan x="0" y="24" xml:space="preserve">Heading 5  </tspan><tspan class="j" y="24">Heading 5</tspan></text><text class="k" transform="translate(-3606 -17938)"><tspan x="0" y="13">HEADING 6</tspan></text><line class="l" x2="729" transform="translate(-2788.5 -18604.5)"/><rect class="m" width="104.556" height="104.556" rx="52" transform="translate(-2789 -18067.278)"/><rect class="n" width="104.556" height="104.556" rx="52" transform="translate(-2600 -18067.278)"/><rect class="o" width="104.556" height="104.556" rx="52" transform="translate(-2411 -18067.278)"/><g class="p" transform="translate(-2222 -18067.278)"><rect class="q" width="104.556" height="104.556" rx="52"/><rect class="r" x="0.5" y="0.5" width="103.556" height="103.556" rx="51.5"/></g></g></svg>