<svg xmlns="http://www.w3.org/2000/svg" xmlns:xlink="http://www.w3.org/1999/xlink" viewBox="8780 -10911 1920 1077"><defs><style>.a{clip-path:url(#b);}.b{fill:#363636;}.c,.d,.e,.m,.p,.r,.t,.u{fill:#fff;}.c{font-size:58px;}.c,.r,.u{font-family:AzoSans-Regular, Azo Sans;}.d,.u{font-size:28px;}.d{font-family:AzoSans-Bold, Azo Sans;font-weight:700;}.e,.r{font-size:36px;}.e,.p{font-family:AktivGrotesk-Light, Aktiv Grotesk;font-weight:300;}.f,.o,.s,.v,.x{fill:none;}.f{stroke:#95989a;}.g{fill:#f09826;}.h{fill:#348fc6;}.i{fill:#ce7705;}.j{fill:#028cbf;}.k{fill:#9c3;}.l{fill:#009fdb;}.n{fill:#2488ff;}.o,.s,.x{stroke:#fff;}.o,.v,.x{stroke-width:6px;}.p,.t{font-size:20px;letter-spacing:0.1em;}.p{opacity:0.398;}.q{fill:#2890ff;}.s{stroke-width:4px;}.t{font-family:HelveticaNeue, Helvetica Neue;}.v{stroke:#2ee5b3;}.w{fill:#95989a;}.w,.x{opacity:0.504;}</style><clipPath id="b"><rect x="8780" y="-10911" width="1920" height="1077"/></clipPath></defs><g id="a" class="a"><rect class="b" x="8780" y="-10911" width="1920" height="1077"/><rect class="b" width="511" height="115" transform="translate(9211 -9983)"/><rect class="b" width="511" height="115" transform="translate(9211 -9859)"/><text class="c" transform="translate(8780 -10757)"><tspan x="589.931" y="59">Which services do you use?</tspan></text><text class="d" transform="translate(8816 -10872)"><tspan x="0" y="28">Cancel</tspan></text><text class="e" transform="translate(9322 -10524)"><tspan x="0" y="33">Amazon Prime</tspan></text><text class="e" transform="translate(9322 -10423)"><tspan x="0" y="33">CBS All Access</tspan></text><text class="e" transform="translate(9322 -10294)"><tspan x="0" y="33">Crackle</tspan></text><text class="e" transform="translate(9322 -10178)"><tspan x="0" y="33">DirecTV Now</tspan></text><text class="e" transform="translate(9322 -10078)"><tspan x="0" y="33">HBO Now</tspan></text><text class="e" transform="translate(9322 -9948)"><tspan x="0" y="33">Hulu</tspan></text><line class="f" x2="511.018" transform="translate(9210.799 -10444.5)"/><line class="f" x2="511.018" transform="translate(9210.799 -10329.5)"/><line class="f" x2="511.018" transform="translate(9210.799 -10214.5)"/><line class="f" x2="511.018" transform="translate(9210.799 -10099.5)"/><line class="f" x2="511.018" transform="translate(9210.799 -9983.5)"/><line class="f" x2="511.018" transform="translate(9210.799 -9868.5)"/><ellipse class="g" cx="27.5" cy="27" rx="27.5" ry="27" transform="translate(9239 -10529)"/><ellipse class="h" cx="27.5" cy="27" rx="27.5" ry="27" transform="translate(9239 -10069)"/><ellipse class="i" cx="27.5" cy="27" rx="27.5" ry="27" transform="translate(9239 -10299)"/><ellipse class="j" cx="27.5" cy="27" rx="27.5" ry="27" transform="translate(9239 -10414)"/><ellipse class="k" cx="27.5" cy="27" rx="27.5" ry="27" transform="translate(9239 -9953)"/><ellipse class="l" cx="27.5" cy="27" rx="27.5" ry="27" transform="translate(9239 -10184)"/><rect class="m" width="44" height="44" rx="7" transform="translate(9138 -10524)"/><rect class="n" width="44" height="44" rx="7" transform="translate(9138 -9949)"/><rect class="m" width="44" height="44" rx="7" transform="translate(9138 -10294)"/><rect class="m" width="44" height="44" rx="7" transform="translate(9138 -10178)"/><path class="o" d="M-10623.113,2169.359l10.719,10.719,21.308-21.307" transform="translate(19766.964 -12096.77)"/><text class="p" transform="translate(9322 -10030)"><tspan x="0" y="18">INCLUDED IN CABLE PACKAGE</tspan></text><text class="p" transform="translate(9322 -10376)"><tspan x="0" y="18">INCLUDED IN CABLE PACKAGE</tspan></text><rect class="q" width="481" height="81" rx="8" transform="translate(9860 -10019)"/><text class="r" transform="translate(9860 -10001)"><tspan x="163.694" y="36">Continue</tspan></text><line class="s" x2="481.178" transform="translate(9860.322 -10528.5)"/><text class="t" transform="translate(9860 -10514)"><tspan x="0" y="19">SERVICES TO LINK</tspan></text><text class="u" transform="translate(9860 -10458)"><tspan x="0" y="28">CBS All Access</tspan><tspan x="0" y="74">HBO Now</tspan><tspan x="0" y="120">Hulu</tspan><tspan x="0" y="166">Netflix</tspan></text><path class="v" d="M-10623.113,2169.359l10.719,10.719,21.308-21.307" transform="translate(20932.613 -12613.77)"/><path class="v" d="M-10623.113,2169.359l10.719,10.719,21.308-21.307" transform="translate(20932.613 -12566.77)"/><rect class="w" width="44" height="44" rx="7" transform="translate(9138 -10409)"/><rect class="w" width="44" height="44" rx="7" transform="translate(9138 -10063)"/><path class="x" d="M-10623.113,2169.359l10.719,10.719,21.308-21.307" transform="translate(19766.964 -12556.77)"/><path class="x" d="M-10623.113,2169.359l10.719,10.719,21.308-21.307" transform="translate(19766.964 -12210.77)"/></g></svg>