<svg xmlns="http://www.w3.org/2000/svg" xmlns:xlink="http://www.w3.org/1999/xlink" viewBox="-14389 -17527 1920 1080"><defs><style>.a{clip-path:url(#b);}.b{fill:#585858;font-size:64px;}.b,.j{font-family:HelveticaNeue-Light, Helvetica Neue;}.b,.e,.j,.l,.o,.r{font-weight:300;}.c,.d,.e,.i,.j,.n,.q,.r{fill:#fff;}.c{font-size:28px;font-family:AzoSans-Bold, Azo Sans;font-weight:700;}.d{font-size:58px;}.d,.q{font-family:AzoSans-Regular, Azo Sans;}.e,.j,.q{font-size:36px;}.e,.l,.o,.r{font-family:AktivGrotesk-Light, Aktiv Grotesk;}.f,.k,.m{fill:none;}.f{stroke:#929292;stroke-width:2px;}.g,.p{fill:#2890ff;}.h,.o{fill:#2ee5b3;}.k{stroke:#2ee5b3;stroke-width:4px;}.l{fill:#c7c7c7;font-size:20px;letter-spacing:0.1em;}.m{stroke:#fff;}.n{opacity:0;}.o,.r{font-size:26px;}.p,.q{opacity:0.297;}.s{fill:#363636;}</style><clipPath id="b"><rect x="-14389" y="-17527" width="1920" height="1080"/></clipPath></defs><g id="a" class="a"><rect class="s" x="-14389" y="-17527" width="1920" height="1080"/><text class="b" transform="translate(-12711 -17373)"><tspan x="474.432" y="62">Mind telling us a bit about yourself?</tspan></text><text class="c" transform="translate(-14353 -17488)"><tspan x="0" y="28">Back</tspan></text><text class="d" transform="translate(-14389 -17269)"><tspan x="870.477" y="59">Sign In</tspan></text><text class="e" transform="translate(-13682 -16926)"><tspan x="0" y="33">Password</tspan></text><line class="f" x2="505" transform="translate(-13681.5 -16874.5)"/><g transform="translate(-13473.089 -17386.51)"><path class="g" d="M87.873,87.873H0V0Z"/><path class="h" d="M0,87.873V0H87.873Z"/><circle class="i" cx="7.27" cy="7.27" r="7.27" transform="translate(73.965 36.666)"/></g><text class="j" transform="translate(-13682 -17054)"><tspan x="0" y="35">zacklab</tspan></text><line class="k" x2="505" transform="translate(-13681.5 -17001.5)"/><text class="l" transform="translate(-13681 -17088)"><tspan x="0" y="18">EMAIL ADDRESS</tspan></text><line class="m" y2="41" transform="translate(-13560.5 -17051.5)"/><rect class="n" width="506" height="67" transform="translate(-13682 -17068)"/><text class="o" transform="translate(-13682 -16826)"><tspan x="224.446" y="24">Reset email or password</tspan></text><rect class="p" width="481" height="81" rx="8" transform="translate(-13669 -16654)"/><text class="q" transform="translate(-13669 -16636)"><tspan x="163.694" y="36">Continue</tspan></text><text class="r" transform="translate(-13669 -16547)"><tspan x="134.667" y="24">Create an account</tspan></text></g></svg>