<svg xmlns="http://www.w3.org/2000/svg" xmlns:xlink="http://www.w3.org/1999/xlink" viewBox="-6137 -18751 1920 1080"><defs><style>.a{clip-path:url(#b);}.b,.f,.h,.i,.p{fill:#fff;}.b{stroke:#95989a;opacity:0.165;}.c{fill:#929292;}.d{fill:#2ee5b3;}.e,.k,.o,.r{fill:none;}.e{stroke:#363636;stroke-width:6px;}.f{font-size:28px;font-family:AzoSans-Bold, Azo Sans;font-weight:700;}.g{fill:#2890ff;}.i,.j{font-size:36px;}.i,.j,.p{font-family:AzoSans-Regular, Azo Sans;}.j,.m,.s{fill:#363636;}.k{stroke:#2ee5b3;}.k,.o{stroke-width:7px;}.l{fill:#f2f2f2;}.m{opacity:0.505;}.n{fill:#555;}.o{stroke:#868686;}.p{font-size:58px;}.q{stroke:none;}</style><clipPath id="b"><rect x="-6137" y="-18751" width="1920" height="1080"/></clipPath></defs><g id="a" class="a"><rect class="s" x="-6137" y="-18751" width="1920" height="1080"/><g class="b" transform="translate(-5405 -18421.262)"><rect class="q" width="455.243" height="225.255"/><rect class="r" x="0.5" y="0.5" width="454.243" height="224.255"/></g><rect class="c" width="1920" height="11.06" transform="translate(-6137 -18751)"/><rect class="d" width="641" height="11.06" transform="translate(-6137 -18751)"/><line class="e" y2="21.479" transform="translate(-5816.5 -18750.709)"/><line class="e" y2="21.479" transform="translate(-5496.5 -18750.709)"/><line class="e" y2="21.479" transform="translate(-5176.5 -18750.709)"/><line class="e" y2="21.479" transform="translate(-4536.5 -18750.709)"/><line class="e" y2="21.479" transform="translate(-4856.5 -18750.709)"/><text class="f" transform="translate(-6101 -18712)"><tspan x="0" y="28">Back</tspan></text><rect class="g" width="481" height="81" rx="8" transform="translate(-5417 -17964)"/><rect class="h" width="481" height="81" rx="8" transform="translate(-5417 -17850)"/><text class="i" transform="translate(-5417 -17946)"><tspan x="211.646" y="36">Yes</tspan></text><text class="j" transform="translate(-5417 -17832)"><tspan x="215.624" y="36">No</tspan></text><g transform="translate(-5227.067 -18386.873)"><g transform="translate(4.512 38.379) rotate(-45)"><path class="k" d="M0,0S35.791,7.272,42.847,44.859" transform="translate(11.429 0)"/><path class="k" d="M0,0S27.157,5.518,32.512,34.044" transform="translate(6.494 16.129)"/><path class="k" d="M0,0S18.922,3.844,22.648,23.715" transform="translate(0 33.1)"/></g><rect class="l" width="86.989" height="258.456" rx="30" transform="translate(0 86.695)"/><rect class="m" width="37.639" height="6.691" rx="3.346" transform="translate(25.093 86.695)"/><ellipse class="n" cx="5.437" cy="5.437" rx="5.437" ry="5.437" transform="translate(11.71 105.097)"/><ellipse class="g" cx="9.619" cy="9.619" rx="9.619" ry="9.619" transform="translate(34.293 105.097)"/><ellipse class="n" cx="5.437" cy="5.437" rx="5.437" ry="5.437" transform="translate(63.568 105.097)"/><ellipse class="n" cx="5.437" cy="5.437" rx="5.437" ry="5.437" transform="translate(13.382 241.435)"/><ellipse class="n" cx="5.437" cy="5.437" rx="5.437" ry="5.437" transform="translate(13.382 259)"/><ellipse class="n" cx="5.437" cy="5.437" rx="5.437" ry="5.437" transform="translate(13.382 276.565)"/><ellipse class="n" cx="5.437" cy="5.437" rx="5.437" ry="5.437" transform="translate(13.382 294.13)"/><ellipse class="n" cx="5.437" cy="5.437" rx="5.437" ry="5.437" transform="translate(46.84 241.435)"/><ellipse class="n" cx="5.437" cy="5.437" rx="5.437" ry="5.437" transform="translate(46.84 259)"/><ellipse class="n" cx="5.437" cy="5.437" rx="5.437" ry="5.437" transform="translate(46.84 276.565)"/><ellipse class="n" cx="5.437" cy="5.437" rx="5.437" ry="5.437" transform="translate(46.84 294.13)"/><ellipse class="n" cx="5.437" cy="5.437" rx="5.437" ry="5.437" transform="translate(30.112 241.435)"/><ellipse class="n" cx="5.437" cy="5.437" rx="5.437" ry="5.437" transform="translate(30.112 259)"/><ellipse class="n" cx="5.437" cy="5.437" rx="5.437" ry="5.437" transform="translate(30.112 276.565)"/><ellipse class="n" cx="5.437" cy="5.437" rx="5.437" ry="5.437" transform="translate(30.112 294.13)"/><ellipse class="n" cx="5.437" cy="5.437" rx="5.437" ry="5.437" transform="translate(63.568 241.435)"/><ellipse class="n" cx="5.437" cy="5.437" rx="5.437" ry="5.437" transform="translate(63.568 259)"/><ellipse class="n" cx="5.437" cy="5.437" rx="5.437" ry="5.437" transform="translate(63.568 276.565)"/><ellipse class="n" cx="5.437" cy="5.437" rx="5.437" ry="5.437" transform="translate(63.568 294.13)"/><ellipse class="n" cx="16.817" cy="17.18" rx="16.817" ry="17.18" transform="translate(28.042 162.414)"/><path class="o" d="M0,0S18.922,3.844,22.648,23.715" transform="translate(27.917 154.537) rotate(-45)"/><path class="o" d="M0,0S18.922,3.844,22.648,23.715" transform="translate(60.702 203.56) rotate(135)"/><path class="o" d="M0,0S18.922,3.844,22.648,23.715" transform="translate(69.295 163.129) rotate(45)"/><path class="o" d="M0,0S18.922,3.844,22.648,23.715" transform="translate(19.324 195.913) rotate(-135)"/></g><text class="p" transform="translate(-6135 -18624)"><tspan x="595.267" y="59">Are you a cable subscriber?</tspan></text></g></svg>