<svg xmlns="http://www.w3.org/2000/svg" xmlns:xlink="http://www.w3.org/1999/xlink" viewBox="-10205 -10384 1920 1080"><defs><style>.a{clip-path:url(#f);}.b,.c,.i,.j,.q,.s,.z{fill:none;}.b,.c,.z{stroke:#95989a;}.b,.j,.z{stroke-width:3px;}.b,.c{opacity:0.234;}.c{stroke-width:4px;}.d{fill:#c6c6c6;opacity:0.408;}.e,.t,.x{fill:#585858;}.ab,.f,.h,.k,.m,.n,.o,.p,.u,.v,.y{fill:#fff;}.f,.o,.u,.x{font-size:18px;}.f,.n,.p,.x{font-family:HelveticaNeue-Bold, Helvetica Neue;font-weight:700;}.g{font-family:HelveticaNeue-Thin, Helvetica Neue;font-weight:200;}.h,.v{font-size:14px;}.ab,.h,.o{font-family:HelveticaNeue-Light, Helvetica Neue;font-weight:300;}.i,.j,.q{stroke:#fff;}.l,.w{fill:#a29e9e;}.m{opacity:0.495;}.n,.p{font-size:24px;}.n{opacity:0.493;}.q{stroke-width:2px;}.r{opacity:0.5;}.t{fill-rule:evenodd;}.u,.v{font-family:HelveticaNeue, Helvetica Neue;}.v{letter-spacing:0.1em;}.w{opacity:0.499;}.y{opacity:0.515;}.aa{fill:#5f5f5f;}.ab{font-size:64px;letter-spacing:0.04em;}.ac{stroke:none;}.ad{filter:url(#c);}.ae{filter:url(#a);}</style><filter id="a" x="-9988" y="-10163" width="1492" height="835" filterUnits="userSpaceOnUse"><feOffset dx="3" dy="4" input="SourceAlpha"/><feGaussianBlur stdDeviation="2" result="b"/><feFlood flood-opacity="0.314"/><feComposite operator="in" in2="b"/><feComposite in="SourceGraphic"/></filter><filter id="c" x="-9640.5" y="-9381.5" width="30" height="30" filterUnits="userSpaceOnUse"><feOffset dx="2" dy="4" input="SourceAlpha"/><feGaussianBlur stdDeviation="2.5" result="d"/><feFlood flood-opacity="0.341"/><feComposite operator="in" in2="d"/><feComposite in="SourceGraphic"/></filter><clipPath id="f"><rect x="-10205" y="-10384" width="1920" height="1080"/></clipPath></defs><g id="e" class="a"><rect class="k" x="-10205" y="-10384" width="1920" height="1080"/><line class="b" x2="1920" y2="1080" transform="translate(-10204.5 -10383.5)"/><line class="c" y1="1080" x2="1920" transform="translate(-10204.5 -10383.5)"/><rect class="d" width="1920" height="1080" transform="translate(-10205 -10384)"/><g class="ae" transform="matrix(1, 0, 0, 1, 0, 0)"><rect class="e" width="1480" height="823" rx="13" transform="translate(-9985 -10161)"/></g><text class="f" transform="translate(-9950 -9428)"><tspan x="0" y="18" xml:space="preserve">Chapter 15   </tspan><tspan class="g" y="18">S2 E03</tspan></text><text class="h" transform="translate(-9890 -9361)"><tspan x="0" y="14">0:00</tspan></text><text class="h" transform="translate(-9647 -9361)"><tspan x="6.378" y="14">9:13</tspan></text><text class="h" transform="translate(-8588 -9361)"><tspan x="4.972" y="14">58:34</tspan></text><line class="i" x2="1327.261" transform="translate(-9875.762 -9370.5)"/><line class="j" x2="263" transform="translate(-9890.5 -9370.5)"/><g class="ad" transform="matrix(1, 0, 0, 1, 0, 0)"><circle class="k" cx="7.5" cy="7.5" r="7.5" transform="translate(-9635 -9378)"/></g><path class="j" d="M-22903.527-5785.353l9.758-9.762,9.77,9.762" transform="translate(-31451.527 -15223.784) rotate(180)"/><path class="k" d="M7473,606l-11.9,20.213h24.525Z" transform="translate(-9323.484 -16845.121) rotate(90)"/><rect class="l" width="212" height="319" transform="translate(-9950 -9970)"/><g transform="translate(-10205 -10722)"><path class="k" d="M27.39,11.5,23.782,23.181,11.5,23.1l9.877,7.3L17.512,41.819l9.877-6.871,9.877,6.871L33.488,30.31,43.279,23.1,31,23.181Z" transform="translate(244 663.99)"/><path class="k" d="M27.39,11.5,23.782,23.181,11.5,23.1l9.877,7.3L17.512,41.819l9.877-6.871,9.877,6.871L33.488,30.31,43.279,23.1,31,23.181Z" transform="translate(288.93 663.99)"/><path class="k" d="M27.39,11.5,23.782,23.181,11.5,23.1l9.877,7.3L17.512,41.819l9.877-6.871,9.877,6.871L33.488,30.31,43.279,23.1,31,23.181Z" transform="translate(333.86 663.99)"/><path class="k" d="M27.39,11.5,23.782,23.181,11.5,23.1l9.877,7.3L17.512,41.819l9.877-6.871,9.877,6.871L33.488,30.31,43.279,23.1,31,23.181Z" transform="translate(378.791 663.99)"/><path class="m" d="M27.39,11.5,23.782,23.181,11.5,23.1l9.877,7.3L17.512,41.819l9.877-6.871,9.877,6.871L33.488,30.31,43.279,23.1,31,23.181Z" transform="translate(423.721 663.99)"/></g><text class="n" transform="translate(-9148 -10001)"><tspan x="0" y="23">Season 1</tspan></text><text class="f" transform="translate(-9148 -9929)"><tspan x="0" y="18">Episode 1</tspan><tspan x="0" y="52">Episode 2</tspan><tspan x="0" y="86">Episode 3</tspan><tspan x="0" y="120">Episode 4</tspan><tspan x="0" y="154">Episode 5</tspan><tspan x="0" y="188">Episode 6</tspan><tspan x="0" y="222">Episode 7</tspan><tspan x="0" y="256">Episode 8</tspan></text><text class="o" transform="translate(-9033 -9929)"><tspan x="0" y="17">58:49</tspan><tspan x="0" y="51">59:10</tspan><tspan x="0" y="85">58:34</tspan><tspan x="0" y="119">57:59</tspan><tspan x="0" y="153">58:22</tspan><tspan x="0" y="187">59:00</tspan><tspan x="0" y="221">58:46</tspan><tspan x="0" y="255">55:59</tspan></text><text class="o" transform="translate(-8698 -9929)"><tspan x="0" y="17">58:49</tspan><tspan x="0" y="51">59:10</tspan><tspan x="0" y="85">58:34</tspan><tspan x="0" y="119">57:59</tspan></text><text class="f" transform="translate(-8813 -9929)"><tspan x="0" y="18">Episode 9</tspan><tspan x="0" y="52">Episode 10</tspan><tspan x="0" y="86">Episode 11</tspan><tspan x="0" y="120">Episode 12</tspan></text><text class="p" transform="translate(-8998 -10001)"><tspan x="0" y="23">Season 2</tspan></text><text class="n" transform="translate(-8848 -10001)"><tspan x="0" y="23">Season 3</tspan></text><text class="n" transform="translate(-8698 -10001)"><tspan x="0" y="23">Season 4</tspan></text><line class="q" x2="556" transform="translate(-9147.5 -9961.5)"/><rect class="k" width="107" height="10" transform="translate(-8998 -9961)"/><g class="r" transform="translate(-10415 -10374.213)"><rect class="k" width="19.716" height="18.984" transform="translate(1238.55 446.556)"/><g transform="translate(1234 442)"><rect class="s" width="28.816" height="28.856" transform="translate(0 0)"/><path class="t" d="M22.211,3H5.4A2.41,2.41,0,0,0,3,5.4V22.238a2.41,2.41,0,0,0,2.4,2.4h16.81a2.41,2.41,0,0,0,2.4-2.4V5.4a2.41,2.41,0,0,0-2.4-2.4ZM11.4,19.833l-6-5.781,1.681-1.619L11.4,16.6,20.53,7.809l1.681,1.619L11.4,19.833Z" transform="translate(0.602 0.607)"/></g></g><g class="r" transform="translate(-10415 -10340.213)"><rect class="k" width="19.716" height="18.984" transform="translate(1238.55 446.556)"/><g transform="translate(1234 442)"><rect class="s" width="28.816" height="28.856" transform="translate(0 0)"/><path class="t" d="M22.211,3H5.4A2.41,2.41,0,0,0,3,5.4V22.238a2.41,2.41,0,0,0,2.4,2.4h16.81a2.41,2.41,0,0,0,2.4-2.4V5.4a2.41,2.41,0,0,0-2.4-2.4ZM11.4,19.833l-6-5.781,1.681-1.619L11.4,16.6,20.53,7.809l1.681,1.619L11.4,19.833Z" transform="translate(0.602 0.607)"/></g></g><text class="u" transform="translate(-9950 -9581)"><tspan x="0" y="17">Lorem ipsum dolor sit amet, no dicit offendit eum. Malis invidunt intellegat at his. No </tspan><tspan x="0" y="42">idque putant regione sit, te equidem ancillae lobortis eam. Te denique intellegam has, </tspan><tspan x="0" y="67">iisque graecis suscipit ius cu, eu maiorum laboramus referrentur quo. Fugit intellegam </tspan><tspan x="0" y="92">ad cum. Option nominati percipitur duo at, id maluisset consequuntur ius. An vix unum </tspan></text><text class="o" transform="translate(-9709 -9857)"><tspan x="0" y="17">Drama</tspan><tspan x="0" y="44">Thriller</tspan></text><text class="o" transform="translate(-9476 -9857)"><tspan x="0" y="17">The West Wing</tspan><tspan x="0" y="44">American Beauty</tspan></text><text class="f" transform="translate(-9709 -9946)"><tspan x="0" y="18">January 20, 2012</tspan></text><text class="f" transform="translate(-9476 -9946)"><tspan x="0" y="18">January 20, 2012</tspan></text><text class="u" transform="translate(-9670 -9724)"><tspan x="0" y="17">Kevin Spacey</tspan></text><text class="u" transform="translate(-9437 -9679)"><tspan x="0" y="17">Corey Stoll</tspan></text><text class="u" transform="translate(-9670 -9679)"><tspan x="0" y="17">Robin Wright</tspan></text><text class="u" transform="translate(-9437 -9723)"><tspan x="0" y="17">Kate Mara</tspan></text><text class="v" transform="translate(-9950 -9608)"><tspan x="0" y="13">SYNOPSIS</tspan></text><text class="v" transform="translate(-9709 -9882)"><tspan x="0" y="13">GENRE(S)</tspan></text><text class="v" transform="translate(-9476 -9882)"><tspan x="0" y="13">FOR FANS OF</tspan></text><text class="v" transform="translate(-9709 -9970)"><tspan x="0" y="13">RELEASED</tspan></text><text class="v" transform="translate(-9476 -9970)"><tspan x="0" y="13">LAST UPDATED</tspan></text><text class="v" transform="translate(-9709 -9757)"><tspan x="0" y="13">STARRING</tspan></text><text class="v" transform="translate(-9148 -9608)"><tspan x="0" y="13">RELATED CONTENT</tspan></text><circle class="l" cx="15" cy="15" r="15" transform="translate(-9709 -9729)"/><circle class="l" cx="15" cy="15" r="15" transform="translate(-9476 -9684)"/><circle class="l" cx="15" cy="15" r="15" transform="translate(-9709 -9684)"/><circle class="l" cx="15" cy="15" r="15" transform="translate(-9476 -9728)"/><rect class="w" width="156" height="88" transform="translate(-9148 -9581)"/><rect class="w" width="156" height="88" transform="translate(-8958 -9581)"/><rect class="k" width="179" height="35" rx="8" transform="translate(-8770 -10107)"/><rect class="w" width="156" height="88" transform="translate(-8768 -9581)"/><text class="x" transform="translate(-8770 -10101)"><tspan x="32.323" y="18">Start channel</tspan></text><path class="y" d="M239.688,200a10.55,10.55,0,0,0-9.562,6.375A10.55,10.55,0,0,0,220.563,200,9.391,9.391,0,0,0,211,209.562C211,217,219.075,222.95,230.125,234c11.05-11.05,19.125-17,19.125-24.438A9.391,9.391,0,0,0,239.688,200Z" transform="translate(-9107.625 -10306)"/><g transform="translate(-10370 -10390)"><g class="z" transform="translate(1536 284)"><circle class="ac" cx="17" cy="17" r="17"/><circle class="s" cx="17" cy="17" r="15.5"/></g><line class="z" y1="20.643" x2="20.643" transform="translate(1542.679 291.893)"/></g><g transform="translate(-11023 -10630.281)"><rect class="aa" width="71.039" height="71.039" rx="15" transform="translate(863 283)"/><path class="k" d="M-22319.945-12975.329h6.869v25.508h15.5v5.915h-22.365Z" transform="translate(23207.439 13278.3)"/></g><text class="ab" transform="translate(-9950 -10131)"><tspan x="0" y="62">House of Cards</tspan></text></g></svg>