<svg xmlns="http://www.w3.org/2000/svg" xmlns:xlink="http://www.w3.org/1999/xlink" viewBox="-15017 -16843 1920 1080"><defs><style>.a{clip-path:url(#b);}.b{fill:#c6c6c6;opacity:0.5;}.c,.f{fill:#919191;}.d,.g,.h{fill:#585858;}.d{font-size:64px;}.d,.f{font-family:HelveticaNeue-Light, Helvetica Neue;font-weight:300;}.e,.l{fill:none;}.e{stroke:#fff;stroke-width:6px;}.f{font-size:28px;}.g,.i{font-size:36px;font-family:HelveticaNeue-Bold, Helvetica Neue;font-weight:700;}.i,.m,.n{fill:#fff;}.j{fill:#6c6c6c;}.k{fill:#80ba6f;}.m{fill-rule:evenodd;}</style><clipPath id="b"><rect x="-15017" y="-16843" width="1920" height="1080"/></clipPath></defs><g id="a" class="a"><rect class="n" x="-15017" y="-16843" width="1920" height="1080"/><rect class="b" width="1920" height="22.06" transform="translate(-15017 -16843)"/><rect class="c" width="1281" height="22.06" transform="translate(-15017 -16843)"/><text class="d" transform="translate(-15017 -16689)"><tspan x="474.432" y="62">Mind telling us a bit about yourself?</tspan></text><line class="e" y2="21.479" transform="translate(-14696.5 -16842.709)"/><line class="e" y2="21.479" transform="translate(-14376.5 -16842.709)"/><line class="e" y2="21.479" transform="translate(-14056.5 -16842.709)"/><line class="e" y2="21.479" transform="translate(-13416.5 -16842.709)"/><line class="e" y2="21.479" transform="translate(-13736.5 -16842.709)"/><text class="f" transform="translate(-14988 -16797)"><tspan x="0" y="27">Back</tspan></text><text class="f" transform="translate(-14707 -16484)"><tspan x="0" y="27">Name</tspan></text><text class="f" transform="translate(-14017 -16484)"><tspan x="0" y="27">Password</tspan></text><text class="f" transform="translate(-14017 -16370)"><tspan x="0" y="27">Password</tspan></text><text class="f" transform="translate(-14707 -16368)"><tspan x="0" y="27">Email</tspan></text><text class="f" transform="translate(-14707 -16243)"><tspan x="0" y="27">Phone</tspan></text><text class="g" transform="translate(-14707 -16445)"><tspan x="0" y="35">Zack Labadie</tspan></text><text class="g" transform="translate(-14707 -16329)"><tspan x="0" y="35">zacklabadie@gmail.com</tspan></text><text class="g" transform="translate(-14707 -16204)"><tspan x="0" y="35">(207) 650-6653</tspan></text><rect class="h" width="481" height="81" transform="translate(-14297 -15892)"/><text class="i" transform="translate(-14297 -15875)"><tspan x="162.83" y="35">Continue</tspan></text><g transform="translate(-15230 -16964)"><circle class="j" cx="9" cy="9" r="9" transform="translate(1213 532)"/><circle class="j" cx="9" cy="9" r="9" transform="translate(1277 532)"/><circle class="j" cx="9" cy="9" r="9" transform="translate(1342 532)"/><circle class="j" cx="9" cy="9" r="9" transform="translate(1406 532)"/><circle class="j" cx="9" cy="9" r="9" transform="translate(1470 532)"/><circle class="j" cx="9" cy="9" r="9" transform="translate(1245 532)"/><circle class="j" cx="9" cy="9" r="9" transform="translate(1309 532)"/><circle class="j" cx="9" cy="9" r="9" transform="translate(1374 532)"/><circle class="j" cx="9" cy="9" r="9" transform="translate(1438 532)"/></g><g transform="translate(-15230 -16844)"><circle class="j" cx="9" cy="9" r="9" transform="translate(1213 532)"/><circle class="j" cx="9" cy="9" r="9" transform="translate(1277 532)"/><circle class="j" cx="9" cy="9" r="9" transform="translate(1342 532)"/><circle class="j" cx="9" cy="9" r="9" transform="translate(1406 532)"/><circle class="j" cx="9" cy="9" r="9" transform="translate(1470 532)"/><circle class="j" cx="9" cy="9" r="9" transform="translate(1245 532)"/><circle class="j" cx="9" cy="9" r="9" transform="translate(1309 532)"/><circle class="j" cx="9" cy="9" r="9" transform="translate(1374 532)"/><circle class="j" cx="9" cy="9" r="9" transform="translate(1438 532)"/></g><g transform="translate(-15489 -16898.883)"><rect class="k" width="34.161" height="44.143" transform="translate(1241.883 452.594)"/><g transform="translate(1234 442)"><rect class="l" width="49.928" height="67.098" transform="translate(0 0)"/><path class="m" d="M36.285,3H7.161C4.872,3,3,5.516,3,8.591v39.14c0,3.075,1.872,5.591,4.161,5.591H36.285c2.288,0,4.161-2.516,4.161-5.591V8.591C40.446,5.516,38.574,3,36.285,3ZM17.562,42.14,7.161,28.7l2.912-3.763,7.489,9.678,15.81-20.43,2.912,3.763L17.562,42.14Z" transform="translate(3.241 5.387)"/></g></g><g transform="translate(-14937 -16898.883)"><rect class="k" width="34.161" height="44.143" transform="translate(1241.883 452.594)"/><g transform="translate(1234 442)"><rect class="l" width="49.928" height="67.098" transform="translate(0 0)"/><path class="m" d="M36.285,3H7.161C4.872,3,3,5.516,3,8.591v39.14c0,3.075,1.872,5.591,4.161,5.591H36.285c2.288,0,4.161-2.516,4.161-5.591V8.591C40.446,5.516,38.574,3,36.285,3ZM17.562,42.14,7.161,28.7l2.912-3.763,7.489,9.678,15.81-20.43,2.912,3.763L17.562,42.14Z" transform="translate(3.241 5.387)"/></g></g><g transform="translate(-15489 -16778.883)"><rect class="k" width="34.161" height="44.143" transform="translate(1241.883 452.594)"/><g transform="translate(1234 442)"><rect class="l" width="49.928" height="67.098" transform="translate(0 0)"/><path class="m" d="M36.285,3H7.161C4.872,3,3,5.516,3,8.591v39.14c0,3.075,1.872,5.591,4.161,5.591H36.285c2.288,0,4.161-2.516,4.161-5.591V8.591C40.446,5.516,38.574,3,36.285,3ZM17.562,42.14,7.161,28.7l2.912-3.763,7.489,9.678,15.81-20.43,2.912,3.763L17.562,42.14Z" transform="translate(3.241 5.387)"/></g></g><g transform="translate(-14937 -16778.883)"><rect class="k" width="34.161" height="44.143" transform="translate(1241.883 452.594)"/><g transform="translate(1234 442)"><rect class="l" width="49.928" height="67.098" transform="translate(0 0)"/><path class="m" d="M36.285,3H7.161C4.872,3,3,5.516,3,8.591v39.14c0,3.075,1.872,5.591,4.161,5.591H36.285c2.288,0,4.161-2.516,4.161-5.591V8.591C40.446,5.516,38.574,3,36.285,3ZM17.562,42.14,7.161,28.7l2.912-3.763,7.489,9.678,15.81-20.43,2.912,3.763L17.562,42.14Z" transform="translate(3.241 5.387)"/></g></g><g transform="translate(-15489 -16664.883)"><rect class="k" width="34.161" height="44.143" transform="translate(1241.883 452.594)"/><g transform="translate(1234 442)"><rect class="l" width="49.928" height="67.098" transform="translate(0 0)"/><path class="m" d="M36.285,3H7.161C4.872,3,3,5.516,3,8.591v39.14c0,3.075,1.872,5.591,4.161,5.591H36.285c2.288,0,4.161-2.516,4.161-5.591V8.591C40.446,5.516,38.574,3,36.285,3ZM17.562,42.14,7.161,28.7l2.912-3.763,7.489,9.678,15.81-20.43,2.912,3.763L17.562,42.14Z" transform="translate(3.241 5.387)"/></g></g></g></svg>