<svg xmlns="http://www.w3.org/2000/svg" xmlns:xlink="http://www.w3.org/1999/xlink" viewBox="-14561 -10384 1920 1080"><defs><style>.a{clip-path:url(#f);}.b,.c,.j,.k,.m,.s{fill:none;}.b,.c,.s{stroke:#95989a;}.b,.k,.s{stroke-width:3px;}.b,.c{opacity:0.234;}.c{stroke-width:4px;}.d{fill:#c6c6c6;opacity:0.408;}.e,.o,.q{fill:#585858;}.f,.h,.i,.l{fill:#fff;}.f,.q{font-size:18px;}.f,.h,.o{font-family:HelveticaNeue-Bold, Helvetica Neue;font-weight:700;}.g{font-family:HelveticaNeue-Thin, Helvetica Neue;font-weight:200;}.h,.o{font-size:28px;}.i{font-size:14px;}.i,.p{font-family:HelveticaNeue-Light, Helvetica Neue;font-weight:300;}.j,.k,.m{stroke:#fff;}.m{stroke-width:5px;}.n{fill:#5f5e5e;}.q,.r{font-family:HelveticaNeue, Helvetica Neue;}.r{fill:#95989a;font-size:16px;letter-spacing:0.1em;}.t{filter:url(#c);}.u{filter:url(#a);}</style><filter id="a" x="-14344" y="-9475" width="1492" height="147" filterUnits="userSpaceOnUse"><feOffset dx="3" dy="4" input="SourceAlpha"/><feGaussianBlur stdDeviation="2" result="b"/><feFlood flood-opacity="0.314"/><feComposite operator="in" in2="b"/><feComposite in="SourceGraphic"/></filter><filter id="c" x="-13996.5" y="-9381.5" width="30" height="30" filterUnits="userSpaceOnUse"><feOffset dx="2" dy="4" input="SourceAlpha"/><feGaussianBlur stdDeviation="2.5" result="d"/><feFlood flood-opacity="0.341"/><feComposite operator="in" in2="d"/><feComposite in="SourceGraphic"/></filter><clipPath id="f"><rect x="-14561" y="-10384" width="1920" height="1080"/></clipPath></defs><g id="e" class="a"><rect class="l" x="-14561" y="-10384" width="1920" height="1080"/><line class="b" x2="1920" y2="1080" transform="translate(-14560.5 -10383.5)"/><line class="c" y1="1080" x2="1920" transform="translate(-14560.5 -10383.5)"/><rect class="d" width="1920" height="1080" transform="translate(-14561 -10384)"/><g class="u" transform="matrix(1, 0, 0, 1, 0, 0)"><rect class="e" width="1480" height="135" rx="13" transform="translate(-14341 -9473)"/></g><text class="f" transform="translate(-14306 -9420)"><tspan x="0" y="18" xml:space="preserve">Chapter 15   </tspan><tspan class="g" y="18">S2 E03</tspan></text><text class="h" transform="translate(-14306 -9456)"><tspan x="0" y="27">House of Cards</tspan></text><text class="i" transform="translate(-14246 -9361)"><tspan x="0" y="14">0:00</tspan></text><text class="i" transform="translate(-14003 -9361)"><tspan x="6.378" y="14">9:13</tspan></text><text class="i" transform="translate(-12944 -9361)"><tspan x="4.972" y="14">58:34</tspan></text><line class="j" x2="1327.261" transform="translate(-14231.761 -9370.5)"/><line class="k" x2="263" transform="translate(-14246.5 -9370.5)"/><g class="t" transform="matrix(1, 0, 0, 1, 0, 0)"><circle class="l" cx="7.5" cy="7.5" r="7.5" transform="translate(-13991 -9378)"/></g><path class="k" d="M-22903.527-5785.353l9.758-9.762,9.77,9.762" transform="translate(9980 -3643.317)"/><g transform="translate(-14537 -10385)"><line class="m" y2="25" transform="translate(236.5 1000.5)"/><line class="m" y2="25" transform="translate(245.5 1000.5)"/></g><g transform="translate(-15379 -10630.281)"><rect class="n" width="71.039" height="71.039" rx="15" transform="translate(863 283)"/><path class="l" d="M-22319.945-12975.329h6.869v25.508h15.5v5.915h-22.365Z" transform="translate(23207.439 13278.3)"/></g><rect class="l" width="686" height="276" rx="14" transform="translate(-14341 -9788)"/><text class="o" transform="translate(-14311 -9754)"><tspan x="0" y="27">Lasso Channels: </tspan><tspan class="p" y="27">Now Trending</tspan></text><text class="q" transform="translate(-14311 -9696)"><tspan x="0" y="17">Lasso builds channels dynamically based on your tastes.</tspan><tspan x="0" y="39"></tspan><tspan x="0" y="61">These channels are built behind the scenes and ready to watch whenever </tspan><tspan x="0" y="83">you’re feeling adventurous or indecisive. You can set your Channel </tspan><tspan x="0" y="105">preferences by going to your Account Settings.</tspan></text><text class="r" transform="translate(-14311 -9553)"><tspan x="0" y="15">DISABLE TIPS</tspan></text><g transform="translate(-14830.953 -10378)"><line class="s" x2="16.464" y2="16.464" transform="translate(1136.721 626.941)"/><line class="s" x1="16.464" y2="16.464" transform="translate(1136.721 626.941)"/></g><path class="l" d="M-14003-9512l28.015,28.015,28.014-28.015Z" transform="translate(-308)"/></g></svg>