<svg xmlns="http://www.w3.org/2000/svg" xmlns:xlink="http://www.w3.org/1999/xlink" viewBox="0 0 616.23 912.39"><defs><style>.a,.g{fill:none;}.b{clip-path:url(#a);}.c{fill:#67c6e7;}.d{fill:#ef5434;}.e{fill:#eedb37;}.f{fill:#fff;}.g{stroke:#000;stroke-miterlimit:10;stroke-width:3.5px;}.h{fill:#85d0f0;}</style><clipPath id="a"><rect class="a" x="9" y="41.46" width="590.19" height="859.38"/></clipPath></defs><title>Artboard 1 copy</title><g class="b"><path d="M-3.81,792.84l44-41s11-5.87,18-3.93,32.9-24.4,32.9-24.4,90.13-86.67,164.62-71.67l291.72-81s72.76,25.06,75.76,57.51,8,287.45,8,287.45l-635,7Z"/><path class="c" d="M171.87,443.65s-5.35,11.69-17,9.69c0,0,4.51,22.5-.35,30,0,0,14.58-4.68,12.61,23.66s-21,30.25,24.52,83.34c0,0,37.53,24.57,4.51,82.79,0,0-19.82,23.21-33.66,20.71,0,0-10.07-5.62-10.21.19,0,0-18.36,2.81,0,8.81a49.54,49.54,0,0,1-36.3,7.5s-23.34-1.44-15.34,7c0,0,2,3.47,8.5,4.47,0,0-48,11-65-23.5,0,0-13-35,8-56.5,0,0,6.84-3.5,10.67-9.75,0,0-22.67.25-17.67-27.75,0,0,11-13,10-25.22,0,0-6-23.28-12-20.28,0,0-6,4.5,7-23.5,0,0,10-27.76,9-39.13,0,0,1.25-9.61,0-15.55,0,0-6.5-4.82-5.5-8.82,0,0,7.5-12.64,1-14.07,0,0-5-.43-5,3.57,0,0-5-17.65,1-26.32,0,0,8-20.84,4.5-33.51,0,0-6.5-33.53,14-52.1,0,0-2.5-5.07-10-2.07,0,0-4.25-13,6.5-15.75a30.39,30.39,0,0,1-10.25-6.75s13.74-5.29,26.75-4.75c0,0,2.5-8.75,5.5-4.25,0,0-7.18-7.16-9.25-13-1.07-3-13.75-50.5-5.75-86.5,0,0,25.5-64,45-78.49,0,0,48.88-39.46,64.5-46.17,0,0-14.66,4.66-20.33,6.66,0,0,13.33-8.83,20.83-10.16s-2.83-2-2.83-2-19.7-3.84-45.94,26.16c0,0,24.27-47.3,89.77-37.65,0,0,7.08-3.65,12.29,0,0,0-11.79-9.35-25.29-10.35,0,0,6.63-8,22.84.84,0,0,15-2,16.66,1,0,0-4-19-11-21.84,0,0,40.5-24.72,92-17.11,0,0,83,9,106,45.28,0,0-4.87,1.69-14.15-2.67,0,0,25.15,13.5,30.15,32.5,0,0,23.45,46,30.48,53,0,0-18.34-24-23.66-26,0,0,0,21.5,9.58,34.5,0,0,14.46,4.9,21.46,40.18,0,0-2.52,8.16,10.4,3,0,0-5.92,12.77,4.08,13.11,0,0-8.16,13,1.46,12.72,0,0,8.7.44,7.7-9.56,0,0,7.5,28.5,24,29,0,0-9.32,2.87-12.5,2.17,0,0-8,11.61-1.75,14.72s1.25.67,1.25.67a32.46,32.46,0,0,1-29.27,0s21.77,20,42.27,16.22c0,0-5.5,8-17,5A20.85,20.85,0,0,0,536.51,302s-8.07,13.07,2.18,22.07c0,0-9.16,17.09,13.17,21.5,0,0-2.67,15.62,3.33,21.11,0,0-7.33-2.17-3.33,9,0,0,12.67,16.2,14.67,35.35,0,0-3.34,31,18.66,46.73l6,4.41s-8,3.33-11,1.33,12.81,11.67,18,12.33c0,0-10.66,4.34-15.66,2,0,0,1.66,12.34,9,19.34,0,0-13,1.66-14.67-2,0,0,8,10.66,19,16.66,0,0-8.33,1-12.67-2.33,0,0,9.81,13.33,15,15.33,0,0-8.66-2.66-13-5.33,0,0,25.34,23,36.34,26.67s24.66,71.33,24.66,71.33-27.19.33-35-7.33-29.66-24.34-38-22.67-20.66-8.48-21-11.07-2.66,5.56,1.67,9.48c0,0-10-7.41-13-4.74,0,0-13.33,4-3.33,9.66,0,0-15.34,2-9.34,7,0,0,3,8.34-7,6,0,0-16.3,20.26-67.48-2.7l-213.18-24.7L178.09,457.77Z"/><path class="d" d="M147.51,464.12l13,30.27,2,57.45,35.65,105.34s30-9,43.32-5.71L170.94,402.34Z"/><path class="e" d="M449.49,258.23c.74.5,20,13.31,39.06,10a.67.67,0,0,1,.73.37c.93,1.87,5.17,9.44,18.91,22.53,0,0,19.71,17.33,19.51,27.2a.7.7,0,0,1-.13.39c-1.17,1.62-9.93,14.84,3.57,30.67a.83.83,0,0,1,.08.12c.63,1.25,10,20.27,2.26,26a.65.65,0,0,1-.63.09c-2.38-.82-16.66-6.17-16.66-16.48,0,0,9.5,27.75,0,26.25-9.3-1.46-34.54-14.19-35.77,3.69a.68.68,0,0,1-1.05.52L458.8,375.92a.65.65,0,0,1-.3-.65c.73-5.75,8.27-70.37-15-120.19a.68.68,0,0,1,1-.83l4.89,3.95Z"/><path class="e" d="M231.86,113.51s-55.64,5.21-67.11,81.59c0,0,13.11-33.59,18.44-36.26,0,0-5.33,42.67-8,52.67,0,0,6.34-20,13.67-30,0,0-2.2,35.55-4.37,45,0,0,13-79,81.82-106.89C266.31,119.61,284.86,103.84,231.86,113.51Z"/><path class="e" d="M306.19,356.22s20.25-14.88,24-14.13c0,0,21.56,5.5,20.53,19.75v9.25s-29.86,16.6-52.19-13.32C298.53,357.77,301.69,361.84,306.19,356.22Z"/><path class="c" d="M444.94,481.59l11.59,112.59s-58,157.33-178,153.66L188.69,480.66S336,608.34,444.94,481.59Z"/><path class="e" d="M351.19,272.66s10.09-42.57,44.17-33.32c0,0,42.69,5.5,35.76,45,0,0,6.07,8.09,11.07,8.17,0,0-18.5,1.84-24-7.16,0,0-15.33-58-57.66-5.51C360.53,279.84,348.19,281.38,351.19,272.66Z"/><path class="e" d="M213.44,257.59s40.11-19.14,51.75,0c0,0,17.75,24.09,24,25.92,0,0,22.25,7.92,26-9.12,0,0-4-31.55-9-34.55,0,0,2.25-11.25-16.5-10.25l-11.16-.08s-48.17-13.67-72,10.83S213.44,257.59,213.44,257.59Z"/><path class="c" d="M375.19,537.51s-120,3.33-164-26.67c0,0-102.66-143.93-30.66-246.94C201,219.26,188.69,142.84,299.19,121c0,0,108.75-26.95,156.88,160.47,0,0,15.12,148.41-13.88,204.41C442.19,485.84,413.19,531.18,375.19,537.51Z"/><path class="c" d="M225.86,290.18s34.67-36,52.67-2Z"/><path class="e" d="M247.53,276.51s3,21.67,26,6.67C273.53,283.18,272.19,269.18,247.53,276.51Z"/><path class="d" d="M226.19,287.18s31-38,61.34,0h-9.67s-6.67-8.56-10.33-8.45c0,0-8,11.45-10.67-1.22,0,0-3.67-7.33-26.33,11.67Z"/><circle class="f" cx="265.19" cy="279.84" r="3.67"/><path class="c" d="M363.53,279.73s35-36.72,51,1.7Z"/><ellipse class="e" cx="395.36" cy="271.69" rx="11.5" ry="10.18"/><path class="d" d="M360.53,279.84s38.66-47,57.66,3.67l-9-1.64s-2-8.87-4.66-10.11c0,0-2.67,5.42-7.34,4.42s-6.33-3.67-7.83-8c0,0-2.5-6.67-23.83,11.66Z"/><circle class="f" cx="397.19" cy="273.57" r="3.67"/><path class="d" d="M286.19,277.24s11.67,2,9-2.85-15.33-19.55-41.66-14.55c0,0-27,5.67-38,32.67C215.53,292.51,261.19,239.29,286.19,277.24Z"/><path class="d" d="M426.86,281.87s-2.48-40.61-51.15-31.94a69.33,69.33,0,0,0-18.85,15.49s13.95-12.47,36.67-9.58c0,0,15.11-4.66,27.34,24q.33.78.66,1.59Z"/><path class="d" d="M292.86,246.84l-14.33-17.33s-52.34-9.67-72,25c0,0,45.33-20.67,58.66-8.33Z"/><path class="d" d="M353.19,244.18l12-21.67,35.67-1.33s20,3.66,26,16.33c0,0-27.22-12.3-41.67,1.33C385.19,238.84,362.19,246.51,353.19,244.18Z"/><path class="d" d="M443.44,251.34s15.25,13,21,14.5c0,0,2.5,13.25,6.75,19,0,0-7,1.92-13.87-4.41C457.32,280.43,449.19,255.34,443.44,251.34Z"/><path class="d" d="M469.94,268.09h19.13s15.47,21.16,19.12,23c0,0-15.5,2.5-3.5,13.5l.25,5.25s-16-15.25-23-11.75c0,0,.5-4,2.25-4s-7.5-8-7.5-8,5.25-1.23,9,0-15.75-16.89-15.75-16.89"/><path class="d" d="M480.69,376.09s1.13,35-8.69,42.5c0,0-12.81-4.75-13.56-13l1.39-46.25s9.7,13.17,10,24.84C469.86,384.18,478.94,382.59,480.69,376.09Z"/><path class="e" d="M136.19,134.18S79.19,170.07,75.86,249c0,0,21.33-52.78,35.33-61.78C111.19,187.18,121.53,147.84,136.19,134.18Z"/><path class="e" d="M172.53,117.51s-82.67,53.67-31.06,182.54L164.86,305s-13.33-46.06-26-64.61c0,0-8.67-84.21,40-117.21,0,0,15.33-10.59,31.83-11.34,0,0-6.49-7.2-23.25-1.75Z"/><path class="e" d="M161.86,119.18s35.33-21,43-23c0,0-15.33-.34-25.33,4,0,0,12.66-11.67,19.33-11.34s3.33-2.66-7.33-6.33c0,0,39.24-5.87,63.33,9,0,0,24.67-4.67,25,21,0,0-34.18-14.25-59.33-4.89a24.9,24.9,0,0,1,16.33-7.35C247.53,99.51,189.81,101.8,161.86,119.18Z"/><path class="e" d="M267.64,92.53s44.55-45.69,56.89-42.69,50,12,79.33,40.34c0,0-3.33,13.33-14.67,14.66,0,0,46.67,16,53,36,0,0-9.33-11-19.66-13.33,0,0,14.33,16.35,14.66,25.51,0,0-9-10.51-15.66-17.84,0,0,13,23,11.33,32.66,0,0-37-48.33-41-46.33s-118-21.24-118-21.24l-7.55-8.16"/><path class="d" d="M203.86,175.84s10.67-19.66,20-20c0,0,133.33-118.89,206.67,77.06,0,0,11.83-136.56-70-123.56l-11.67-.87s15.33-10.63,25-9.29c0,0-7.33-6.34-11.33-5.67,0,0,11-6.33,15-3.67,0,0-13.34-4-21-.65,0,0-20.34,10.32-26.34,9.32,0,0,.34-10.67,7-12.33,0,0-1.66-6-11-4.67,0,0-2-6.67.67-8.33,0,0-45-2-51.33,24.33,0,0,5.33,11.67,4.33,15,0,0-14.33-12-33.33-5.67,0,0,12,1.34,16,5.67,0,0-19,4.33-21,7,0,0,17.66-.33,18,2.33,0,0-19.34,3.67-22.67,6.67,0,0-4.67-8.67-16.33-6.67,0,0-28.34,15.34-29,33,0,0,14-23.33,23.33-23.33,0,0-11.33,10.69-14.33,21.51,0,0,13.33-16.51,18-14.51,0,0-21,22.67-23.34,34,0,0,16.67-24.33,22.34-24.33C217.53,148.18,203.53,168.18,203.86,175.84Z"/><path class="e" d="M206.53,540.84s56.33,200,72,207c0,0,4-24.33,17.33-25,0,0,23,3.34,18.83-11.33l-8.5-51.33s-2.09-7.84-9-23.34a100.92,100.92,0,0,0-2-17.33s34,2.67-4.66-24.67c0,0-22-21.25-13.34-24l-83.34-77.49Z"/><path class="d" d="M298.53,428.18s51.66-43,91-6C389.53,422.18,325.53,436.84,298.53,428.18Z"/><path class="f" d="M373.34,412.52l-4.48,6.07s-7,1-9.33.45v3.14l-47.67,1.33,8.33-12.32S364.34,404.19,373.34,412.52Z"/><path class="e" d="M286.53,424.18s15.94-14.35,26.74-20.27a13.46,13.46,0,0,1,9.62-1.25c6.7,1.64,23,3.93,53-1.15,0,0,15-.06,21.33,19,0,0-5,5.11-7.66,3.7,0,0-15-13.67-20.67-12.67s-29-.09-40.51.12c0,0-27.86,13.38-27.18,17.3C301.17,428.93,286.19,428.84,286.53,424.18Z"/><path class="e" d="M306.19,436.51s38.34,26,78.34-3.33c0,0,15.33-2.34-4.34,10.66,0,0-11,14-75.66,11.67C304.53,455.51,274.19,437.84,306.19,436.51Z"/><path class="e" d="M373.34,331.09s30.19,24,33.52,34.5l-4.42,15.75S379.48,357.59,373.34,331.09Z"/><path class="d" d="M311.86,363.51s16.33-12.67,30,2C341.86,365.51,323.53,374.51,311.86,363.51Z"/><path class="e" d="M363.53,285.35S397,297,412.19,294.18c0,0,7.77,4.21,10.67.44S393.19,318.85,363.53,285.35Z"/><path class="e" d="M265.19,302s25.34-6.18,27.67-9.51,13-1.75,16.67-4-10.81,30-10.81,30,3.14-9,0-18.33c0,0-9.86,11.66-18.53,14.66a43.82,43.82,0,0,0,7.47-11.41C290.53,296.84,282.19,307.52,265.19,302Z"/><path class="e" d="M356.86,528.55s-39-3-30-30.37c0,0,11.33-7.34,17.17,0,0,0-6.34-18.34-26.34-12.84,0,0-75.77-6.5-62.13-92.5,0,0,3.3-24.5,11-31,0,0-54.84,6.75-56.34-5.62,0,0-6.83-15.88,5.34-25.13,0,0-7.34-12.75-26.84,5.25,0,0,5.67-23.66,17.84-27.83,0,0-13.17-27.78,0-38.22,0,0-16.59-1.86-14.59-8.78,0,0-5.25-10.82-6,40.51,0,0-16.57,23.66-27.66,16.49,0,0-19.42,40,30.41,162.15C188.69,480.66,294.86,552.51,356.86,528.55Z"/><path class="d" d="M167.82,417.72s13.37,64.12,108.77,101.46c0,0,27,12.69,32.84,13.38,0,0-70.56-6.84-120.74-51.9,0,0-27.62-57.71-25.62-63C163.07,417.65,160.19,402.72,167.82,417.72Z"/><circle class="f" cx="337.72" cy="509.34" r="15.95"/><circle class="f" cx="369.9" cy="496.21" r="10.79"/><circle class="f" cx="356.86" cy="339.72" r="5.38"/><path class="e" d="M188.19,252.34s6.4-102.5,67.37-113.16c0,0,33.76-4.34,40,2.66,0,0-48.4,6.67-58.06,31,0,0,31.33-8.33,36-.33,0,0-37,16.33-33.67,28,0,0,9.67,17.67,23,20.67,0,0-56.33-7-68.33,29.66Z"/><path class="e" d="M440.69,485.34s-43.5,94.5-137.5,91c0,0-36-6-54-23,0,0-55.5-46.36-60.5-72.68C188.69,480.66,337.69,597.84,440.69,485.34Z"/><path class="d" d="M271.46,530.79s50.73,19.05,103.73,6.72c0,0-12,34.67-69,33.33,0,0-29-4.66-39.66-27.33,0,0,12.66.67,18-1.33S274.79,537.46,271.46,530.79Z"/><path class="d" d="M276.19,385.34s-8.21-24.24,19.4-45.62c0,0-11,23.37-9.07,33.87Z"/><path class="d" d="M298.53,357.77s8.87,14.58,17.77,21a13.35,13.35,0,0,0,8.6,2.48c7.42-.45,24.29-2.32,25.82-10.11,0,0-21.78,4.25-27.53,2.75S309.11,368.93,298.53,357.77Z"/><path class="e" d="M316.94,285.35l9.92,51.74s-24.2,12.91-24.67,17.5S306.69,296.1,316.94,285.35Z"/><path class="e" d="M346.53,281.43s20.33,17.75,23.33,30.41c0,0-1,14.84,0,19.25S346.86,290,346.53,281.43Z"/><path class="e" d="M354.44,359.09s20.54-11.25,21.77-9.5c0,0,9.15,12.25-12.68,23C363.53,372.59,351.69,368.84,354.44,359.09Z"/><path class="d" d="M360.53,359.71s25.66-20.15,11.33,4C371.86,363.7,378.86,350.25,360.53,359.71Z"/><path class="e" d="M109.19,195.1s-1.5,72.49,18.25,96.49l-27,25s-21.91.57-24.58-56.59C75.86,260,103.19,204.69,109.19,195.1Z"/><path class="e" d="M61.94,325.59s52.75-3,72-5.5c18.6-2.42,0,29.32,0,29.32s-50-11.32-73.23-6.32c0,0-1.5-9.62,15.17-8.75C81.87,334.66,61.69,327.34,61.94,325.59Z"/><path class="e" d="M81.19,350.34s-29,28.75-2.66,75.5c0,0,19,16.34-12.67,42.67,0,0,8.33-2,11-4.33,0,0-2,12-11,16.48,0,0,2,5.61-3,12.73,0,0,5.33,3.45,31.33-40.88,0,0,2.67-20.71-11.33-45.35,0,0-6-27.61,1.33-40.46l5.67-14.19S77.54,362.7,77.44,365.84,78.46,360,81.19,350.34Z"/><path class="e" d="M171.87,443.65s-12.24,10.69-17,9.69c0,0,4.51,23-.35,30,0,0,22.5-6.3,7.81,50.1,0,0,1.32,32.9,29.32,56.9,0,0,35.5,29.5,6,73l-9,7s8.58-30-6.71-53c0,0-17.18-29.5-17.23-35,0,0,7.19-.75,9.44,3.25,0,0-22.27-26.75-19.63-39,0,0,7.13-41.75,1.88-44.5,0,0-11.25-2.75-13.75,20,0,0-3.75-24,2-31,0,0,5.75-27,1-35.75,0,0-19.25-30.75-15.75-42.25l-.42-19s-9.83,27.11-.83,63.68c0,0-9.5,11.1-8,17.34,0,0-7.25-9-.16-17.34,0,0-1.59-12.93-3.59-4.18,0,0-7.25,18.25-13.5,25s-15.75,14.8-15.75,14.8,29.75-36.2,28.75-47c0,0-1-45.61-12.25-37.95,0,0-14.91-34.92-4.68-47.1,0,0,15.18,12.75,12.93,27.75,0,0-5.75-32.15,5.25-31.32s37.22,19.32,37.22,19.32Z"/><path class="d" d="M101.16,344.7s11.66-.85,14.3-2.56c0,0-3.36-1.28-11.74-4.15,0,0,17.55-7.62,22.82-11.37,0,0-4.65.74-16.33.26a46.8,46.8,0,0,0,9.24-5.81,58.36,58.36,0,0,1-7.73-4.21s13.79-12.89,19-19.31c0,0,8.47,8.2,17-2.27l-1.45-7,10.4,3.87s4.15,9.6,8.2,12.87c0,0-12.47,12-8.49,52.23,0,0,5.8,49.16,10.32,60.76,0,0-11.29,2.85-13.1,14.88,0,0-1.39-3.41-8.52-11.58,0,0,.25,15.38,3,20.67s-3.3,2.38-3.3,2.38-15.72-24.41-8.07-66.88c0,0-4.66.75-6.55,7.44,0,0-.47-8.32-.53-12.32,0,0-6-1.91-8.3,2.47,0,0-2.12-7.3.83-10.69,0,0-5.71-2.9-8.66.81,0,0-2.08-5-7.34-.55s-1-1.69-1-1.69S116.35,356.22,116,353C116,353,107.21,347.27,101.16,344.7Z"/><path class="e" d="M90.19,717.34s-22-20.5-7.5-47c0,0-4.5-12-1-18.5,0,0-21,2-23.5,41.5C58.19,693.34,83.69,718.34,90.19,717.34Z"/><path class="d" d="M141.69,651.84s21.44-22.5,13.22-58c0,0,19.78,31,19.28,65,0,0-7,7-9-3,0,0-10.56,4.5-10.28,14.5,0,0-3.47-14.25-1-16.25,0,0-8.5,10.75-10.25,14.75,0,0,6.5-15.25,7.25-20.75,0,0-13,13-13.25,18.75Z"/><path class="e" d="M127.69,576.44s37.5,34.9,0,73.4c0,0-11,9.5-8.5,20.5,0,0-9-7-9-14,0,0-9.5,2,5,24,0,0-22.5-3.5-27.5-31C87.69,649.34,138.69,640.53,127.69,576.44Z"/><path class="e" d="M101.16,490.34s-20.72,11.25-22.53,32c0,0-3.44,24,4.06,33.5,0,0,12.5-1.75,5,23.75,0,0,10.25-12.25,12,.5,0,0,18.25-16.75,1.47-46.65,0,0-25.95,2.84,0-40.05"/><path class="e" d="M133.92,537.62s-3,32.77,14.63,56.22c0,0,5.64,19,3.14,26.78,0,0-7.83-31.7-21.5-49.74C130.19,570.88,114,549.07,133.92,537.62Z"/><path class="d" d="M456.88,292a132.35,132.35,0,0,0,26.37,18.06s-8.13,5.43-13.19,3.43c0,0,6.94,12.05,15.44,18.77,0,0-9.42,5.48-4,11.11,0,0-15-8.88-21.63,9.13C459.91,352.52,458.39,312.17,456.88,292Z"/><path class="e" d="M459.07,401.51s18.2,4.65,21.66-4.51c0,0,.46,28.44,11,49.39,0,0,7.49,20.1-9.25,41.45,0,0-31.7,68.5-6.22,106,0,0,17.47,17.5,27,18,0,0-27,10.59-49.48-10.7,0,0-8.22-71.91-4.62-75.85,0,0,27.59-49.95,26.59-57.95s-20.6-37.5-20.6-37.5S459,407.18,459.07,401.51Z"/><path class="d" d="M455.08,429.84s-4.25,43.25-11.5,50.75c0,0,6.61,41.25,4.81,60.55,0,0,10.44-24.8,23.44-40.55,0,0,17.25-16.5,7.75-41.75,0,0-12-12.25-9-23,0,0-.5-14,1.5-16s-8.39,4.5-9.07,12C463,431.84,456.83,428.59,455.08,429.84Z"/><path class="e" d="M500.53,457.77s15.33,24.73-6,51.57c0,0-25,38.91-5.18,61.54,0,0,9.18,18,31.84,14.63,0,0-37.33-19.78-26-47.89,0,0,22.67-32.78,21.34-47.44C516.53,490.18,520.53,468.7,500.53,457.77Z"/><path class="e" d="M265.19,81.37s2-12.53,8.34-17.19c0,0-2.34-18.1-13-22.72,0,0,24-23.28,59.66-10.28,0,0,20.34,14,26.34,18.52s-30.73-12.19-44.37-4.19-27.11,27.63-27.11,27.63l-9.86,15Z"/><path class="e" d="M451.19,167.84s-.91,30.12,4.88,39.23c0,0-7.21,18.06-4.93,25.83,0,0-4.54-23.15-9.95-25.06-10.3-3.62,10-30.68-6-36a14.79,14.79,0,0,0,7-14.33S440.53,157.51,451.19,167.84Z"/><path class="f" d="M326.86,31.18s81.59,7.33,101.67,37.33c0,0-34.67-20.61-44.67-18.81,0,0,41.3,16.48,53.32,38.48,0,0-33.51-22-47.08-24.67C390.1,63.51,347.19,28.84,326.86,31.18Z"/><path class="f" d="M406.86,84.18s35.33,40,35.33,56.66c0,0,21.55,18,33.27,16.67,0,0-13.85-4.67-19.39-16.67,0,0-7.79-11.33,0-6.66,1.1,1.89,40.86,37.86,28.62,23.33,0,0-17.53-38.44-36.51-50.89C448.18,106.62,421.86,80.18,406.86,84.18Z"/><path class="f" d="M467.24,238.17s41.39,25.58,48-4.72c0,0,13.13,29.94-13.24,37.56C502,271,479.17,259.53,467.24,238.17Z"/><path class="f" d="M508.19,397s-9,25.84,22.34,53.84c0,0,44,23.75,6,63.21,0,0-18.84,34.79,24,52.79,0,0-7.36-16.8-6.34-26,0,0,12.34-17.33,20.34,4.67,0,0-9.34-38,13.33-5.67,0,0-5.33-28-28-30.5,0,0,8.67-34.5-3.33-48.5,0,0-39.34-28.66-41.34-59.33C515.19,401.51,510.19,411.84,508.19,397Z"/><path class="f" d="M466.53,207.07s21.84,23.51,34.92,18.64c0,0-11.88,14.24-31.07,2.56C470.38,228.27,463.86,213.29,466.53,207.07Z"/><path class="f" d="M541.86,419.48s17.33,21.36,28.67,22.7c0,0,5.33,12.52,14.66,15.59a41.13,41.13,0,0,1-31.33-11.38C539.86,432.84,541.86,419.48,541.86,419.48Z"/><path class="f" d="M262.53,91.37s-16.67,2.31-21-5.77c0,0,7.91-13.42-5.55-17.42,0,0,11.88-3.4,16.21,5s5-7.91,0-15.43C252.19,57.71,271,77.54,262.53,91.37Z"/></g><polyline class="g" points="562.77 41.46 9 41.46 9 900.85 599.19 900.85 599.19 24.3"/><path d="M599.19,8.46c2.77,7.45,7.49,16.7,12.49,22.44l-12.49-4.52L586.71,30.9C591.71,25.16,596.43,15.91,599.19,8.46Z"/><circle class="d" cx="479.69" cy="359.34" r="8.5"/><circle class="h" cx="296.72" cy="635.84" r="15.95"/></svg>