<svg width="88" height="43" viewBox="0 0 88 43" fill="none" xmlns="http://www.w3.org/2000/svg">
<path d="M0 18.479C0 24.9367 4.17268 28.6127 8.84211 28.6127C13.1141 28.6127 16.6907 25.0361 16.6907 20.764C16.6907 16.492 13.7102 13.6109 9.93495 13.6109C9.14015 13.6109 8.34536 13.7102 7.94796 13.9089C8.84211 10.3324 12.518 6.15967 15.6972 4.47073L10.233 0C4.07333 4.37138 0 11.0278 0 18.479ZM20.2673 18.479C20.2673 24.9367 24.44 28.6127 29.1094 28.6127C33.3814 28.6127 36.8587 25.0361 36.8587 20.764C36.8587 16.492 33.9775 13.6109 30.2022 13.6109C29.4075 13.6109 28.5133 13.7102 28.2153 13.9089C29.0101 10.3324 32.7853 6.15967 35.9645 4.47073L30.5003 0C24.3406 4.37138 20.2673 11.0278 20.2673 18.479Z" fill="#A9C0C4"/>
<path d="M87.9408 23.7807C87.9408 17.3229 83.7681 13.647 79.0987 13.647C74.8267 13.647 71.3495 17.2236 71.3495 21.4956C71.3495 25.7677 74.2306 28.6488 78.0059 28.6488C78.8007 28.6488 79.6948 28.5494 79.9929 28.3507C79.1981 31.9273 75.4228 36.1 72.2436 37.7889L77.7078 42.2597C83.8675 37.8883 87.9408 31.2319 87.9408 23.7807ZM67.7729 23.7807C67.7729 17.3229 63.6002 13.647 58.9308 13.647C54.6587 13.647 51.0822 17.2236 51.0822 21.4956C51.0822 25.7677 54.0626 28.6488 57.8379 28.6488C58.6327 28.6488 59.4275 28.5494 59.7256 28.3507C58.9308 31.9273 55.2548 36.1 52.0756 37.7889L57.5399 42.2597C63.6995 37.8883 67.7729 31.2319 67.7729 23.7807Z" fill="#A9C0C4"/>
</svg>
