<svg width="58" height="55" viewBox="0 0 58 55" fill="none" xmlns="http://www.w3.org/2000/svg">
<path d="M26.1468 2.78116C27.0449 0.0172253 30.9551 0.0172209 31.8532 2.78115L36.409 16.8024C36.8106 18.0385 37.9625 18.8754 39.2621 18.8754H54.005C56.9111 18.8754 58.1195 22.5942 55.7683 24.3024L43.8411 32.9681C42.7897 33.732 42.3497 35.0861 42.7513 36.3222L47.3071 50.3435C48.2052 53.1074 45.0417 55.4058 42.6906 53.6976L30.7634 45.0319C29.7119 44.268 28.2881 44.268 27.2366 45.0319L15.3094 53.6976C12.9583 55.4058 9.79484 53.1074 10.6929 50.3435L15.2487 36.3222C15.6503 35.0861 15.2103 33.732 14.1589 32.9681L2.23167 24.3024C-0.119476 22.5942 1.08885 18.8754 3.99502 18.8754H18.7379C20.0375 18.8754 21.1894 18.0385 21.591 16.8024L26.1468 2.78116Z" fill="#EA8C48"/>
</svg>
